<?xml version="1.0" standalone="no"?>
<!DOCTYPE svg PUBLIC "-//W3C//DTD SVG 1.1//EN" "http://www.w3.org/Graphics/SVG/1.1/DTD/svg11.dtd" >
<svg xmlns="http://www.w3.org/2000/svg" xmlns:xlink="http://www.w3.org/1999/xlink" version="1.1">
<metadata></metadata>
<defs>
<font id="bookinsanityitalic" horiz-adv-x="1183" >
<font-face units-per-em="2048" ascent="1536" descent="-512" />
<missing-glyph horiz-adv-x="514" />
<glyph horiz-adv-x="0" />
<glyph horiz-adv-x="0" />
<glyph horiz-adv-x="682" />
<glyph unicode=" "  horiz-adv-x="514" />
<glyph unicode="&#x09;" horiz-adv-x="514" />
<glyph unicode="&#xa0;" horiz-adv-x="514" />
<glyph unicode="!" horiz-adv-x="491" d="M268 109q12 55 56 90q43 37 100 37q59 0 86 -37q28 -36 16 -90q-9 -56 -55 -93q-45 -36 -100 -36q-60 0 -86 36t-17 93zM420 381q38 198 51 326q13 120 16 215q3 227 23 319q46 223 176 223q128 0 82 -223q-17 -79 -113 -319q-32 -75 -77 -215q-36 -113 -84 -326h-74z " />
<glyph unicode="&#x22;" horiz-adv-x="866" d="M815 893q9 82 12 160q2 36 -2 121q-6 133 2 169q12 53 54 89q35 32 84 32t71 -32q24 -34 15 -86q-7 -31 -70 -170q-33 -64 -55 -123q-38 -96 -54 -160h-57zM1190 893q9 82 12 160q2 36 -2 121q-6 133 2 169q12 54 53 89q35 32 84 32q50 0 72 -32q23 -33 14 -86 q-8 -35 -69 -170q-36 -71 -56 -123q-35 -89 -53 -160h-57z" />
<glyph unicode="#" horiz-adv-x="1130" d="M217 418l19 80h243l215 438h-256l19 82h278l207 416h88l-207 -416h301l207 416h88l-207 -416h224l-19 -82h-246l-215 -438h256l-18 -80h-279l-204 -418h-88l204 418h-303l-205 -418h-88l205 418h-219zM567 498h301l215 438h-301z" />
<glyph unicode="$" d="M332 440l49 15q120 -394 364 -400l127 600l-69 29q-37 14 -68 31q-78 43 -117 82q-109 109 -69 295q27 132 147 237q142 124 351 133l20 94h86l-20 -96q128 -12 184 -80l37 54h59l41 -400l-47 -16q-88 340 -293 358l-119 -553l72 -28q33 -11 72 -33q84 -41 125 -82 q116 -113 75 -307q-35 -164 -174 -273q-141 -114 -352 -129l-43 -198h-86l43 198q-162 12 -252 99l-43 -70h-61zM739 1126q-38 -173 179 -268l110 516q-242 -27 -289 -248zM831 59q132 18 224 103q73 70 94 162q21 115 -39 190q-45 57 -158 109z" />
<glyph unicode="%" horiz-adv-x="1685" d="M510 1004q47 206 154 325q114 123 268 123q158 0 217 -123q60 -123 14 -325q-44 -208 -153 -326q-111 -123 -269 -123q-155 0 -217 123q-58 119 -14 326zM565 0l1239 1434h88l-1239 -1434h-88zM645 719q15 -103 109 -103q96 0 155 103q49 85 90 285q43 198 31 286 q-15 101 -112 101q-94 0 -152 -101q-48 -82 -92 -286q-41 -201 -29 -285zM1294 430q43 205 152 326q114 123 268 123q158 0 217 -123q60 -123 17 -326q-47 -207 -154 -326q-113 -122 -270 -122t-215 122q-61 124 -15 326zM1427 145q15 -102 109 -102q98 0 156 102 q48 83 92 285q40 199 28 287q-15 100 -110 100q-97 0 -154 -100q-49 -84 -90 -287q-43 -198 -31 -285z" />
<glyph unicode="&#x26;" horiz-adv-x="1531" d="M246 342q41 181 194 313q104 88 318 197q-143 158 -109 317q20 105 119 191q116 104 281 104q141 0 208 -82q63 -75 39 -190q-21 -100 -114 -184q-68 -62 -205 -138q189 -174 262 -516q152 175 195 377q21 94 -19 131q-35 30 -135 39l10 53h490l-11 -53q-104 -9 -153 -43 q-54 -39 -88 -141q-81 -251 -273 -449q21 -113 56 -157q39 -45 110 -45q91 0 176 30l-16 -73q-94 -52 -246 -52q-197 0 -262 148q-225 -150 -467 -150q-202 0 -301 111q-93 107 -59 262zM483 395q-27 -130 31 -215q58 -94 201 -94q174 0 336 107l-4 4h4v4q-88 431 -228 583 q-293 -170 -340 -389zM791 1184q-15 -71 14 -133q24 -52 100 -119q262 136 289 264q15 84 -20 133q-44 53 -138 53q-90 0 -155 -53q-68 -51 -90 -145z" />
<glyph unicode="'" horiz-adv-x="491" d="M815 893q9 82 12 160q2 36 -2 121q-6 133 2 169q12 53 54 89q35 32 84 32t71 -32q24 -34 15 -86q-7 -31 -70 -170q-33 -64 -55 -123q-38 -96 -54 -160h-57z" />
<glyph unicode="(" horiz-adv-x="632" d="M287 532q65 308 276 578q189 244 443 395l34 -53q-193 -126 -358 -383q-166 -258 -225 -537q-58 -273 -2 -536q52 -253 194 -383l-57 -53q-191 153 -275 395q-94 270 -30 577z" />
<glyph unicode=")" horiz-adv-x="632" d="M-139 -387q196 131 358 383q164 257 223 536q59 281 4 537q-53 257 -194 383l55 53q192 -151 277 -395q95 -270 30 -578q-64 -307 -276 -577q-190 -246 -444 -395z" />
<glyph unicode="*" horiz-adv-x="786" d="M504 905q-22 66 59 109q25 14 101 30q48 11 67 17q25 7 86 31q-54 22 -74 28q-20 8 -32 10l-27 7q-59 14 -88 32q-30 20 -33 50q-3 28 21 59q22 29 53 35q35 9 63 -10q21 -15 62 -68q6 -8 12.5 -16.5t13 -18.5t9.5 -14q9 -9 27.5 -28t27.5 -28q7 51 4 87q0 13 -4 63 q-6 70 0 100q9 37 37 62q28 22 57 22q76 0 58 -84q-5 -27 -41 -100q-24 -43 -33 -63q-18 -41 -33 -87q16 10 80 56q48 42 57 49q64 55 88 68q39 19 68 10q31 -6 41 -35q21 -69 -60 -109q-32 -18 -102 -32l-33 -7q-14 -2 -37 -10q-8 -2 -88 -28q46 -22 76 -31q16 -6 62 -17 q67 -15 88 -30q66 -45 14 -109t-119 -24q-21 15 -61 67q-6 8 -18 24.5t-17 22.5q-9 9 -27.5 28t-27.5 28q-1 -14 -2 -42t-2 -42l4 -35l2 -29q6 -73 -2 -100q-15 -84 -93 -84q-74 0 -59 84q7 33 43 100q24 43 31 64q21 47 31 86q-33 -22 -78 -58q-17 -10 -31 -24l-27 -23 q-58 -52 -88 -67q-85 -42 -106 24z" />
<glyph unicode="+" horiz-adv-x="1130" d="M324 668l22 102h492l104 492h102l-104 -492h496l-23 -102h-495l-105 -494h-102l104 494h-491z" />
<glyph unicode="," horiz-adv-x="491" d="M160 -283q125 128 180 263q-69 0 -102 36q-28 39 -19 93q12 56 55 90q43 37 101 37t84 -39q29 -43 14 -111q-21 -96 -106 -215q-82 -113 -174 -184z" />
<glyph unicode="-" horiz-adv-x="497" d="M213 401l25 121h456l-24 -121h-457z" />
<glyph unicode="." horiz-adv-x="491" d="M268 109q12 55 56 90q43 37 100 37q59 0 86 -37q28 -36 16 -90q-9 -56 -55 -93q-45 -36 -100 -36q-60 0 -86 36t-17 93z" />
<glyph unicode="/" horiz-adv-x="632" d="M-184 -438l954 1933h88l-954 -1933h-88z" />
<glyph unicode="0" d="M414 717q71 336 239 534q183 213 422 213q243 0 332 -213q81 -196 10 -534t-237 -533q-182 -215 -422 -215q-243 0 -332 215q-82 199 -12 533zM582 244q27 -185 194 -185q165 0 273 185q85 150 153 473q70 322 49 475q-27 184 -194 184q-168 0 -273 -184 q-83 -146 -155 -475q-68 -324 -47 -473z" />
<glyph unicode="1" d="M467 0l10 51q169 9 217 35q58 30 82 143l197 928q15 66 -49 66h-195l8 43l422 198h76l-262 -1235q-24 -113 22 -143q36 -26 199 -35l-10 -51h-717z" />
<glyph unicode="2" d="M303 0l19 90l69 53l68 54q26 21 72.5 57.5t66.5 52.5q163 137 258 232q268 274 320 510q68 323 -197 323q-131 0 -231 -86q-107 -93 -144 -268h-100q43 204 196 330q143 116 330 116q198 0 299 -116q102 -118 62 -299q-47 -221 -291 -453q-185 -175 -541 -408h508 q55 0 80 25q33 33 80 154h55l-137 -412h-55q3 19 0 29q-6 16 -25 16h-762z" />
<glyph unicode="3" d="M305 180q9 47 45 76q39 31 78 31q56 0 86 -35q12 -12 23 -37l18 -41q46 -113 135 -113q320 0 393 340q30 145 -39 238q-73 104 -239 104h-37l20 91h50q132 0 221 86q84 78 108 194q22 111 -20 178q-47 80 -164 80q-115 0 -205 -72q-95 -73 -137 -217h-100q55 174 182 277 q131 104 317 104q198 0 291 -100q85 -94 58 -219q-24 -117 -111 -201q-83 -86 -211 -121q131 -24 201 -131q68 -105 41 -241q-47 -213 -213 -342q-181 -140 -432 -140q-166 0 -265 51q-115 58 -94 160z" />
<glyph unicode="4" d="M332 369l14 69l832 996h155l-207 -973h234l-21 -92h-233l-78 -369h-197l78 369h-577zM473 461h457l155 731z" />
<glyph unicode="5" d="M301 180q9 47 45 76q36 31 74 31q53 0 88 -35q14 -14 27 -37l22 -41q52 -113 150 -113q158 0 272 97q101 86 137 243q34 151 -53 252q-88 99 -260 99q-158 0 -289 -64l-45 21l260 725h582q50 0 65 45h56l-76 -232h-604l-117 -336q98 39 235 39q242 0 363 -145 q108 -139 65 -344q-47 -208 -208 -344q-177 -148 -416 -148q-168 0 -273 51q-121 58 -100 160z" />
<glyph unicode="6" d="M375 600q80 372 391 610q288 219 680 254l-19 -86q-548 -61 -759 -544q156 90 303 90q221 0 323 -150q93 -136 52 -330q-40 -191 -209 -329q-178 -146 -394 -146q-232 0 -331 178q-95 174 -37 453zM563 205q41 -146 199 -146q140 0 242 111q89 102 126 274 q38 171 -14 275q-57 112 -201 112q-152 0 -290 -108q-27 -84 -39 -148q-53 -249 -23 -370z" />
<glyph unicode="7" d="M709 1069l133 410h55q-3 -19 0 -29q10 -16 27 -16h778l-19 -88q-519 -559 -757 -1346h-215q205 640 788 1247h-575q-57 0 -80 -26q-34 -34 -80 -152h-55z" />
<glyph unicode="8" d="M293 342q53 249 387 387q-214 129 -162 377q27 130 154 233q155 125 385 125q194 0 291 -100q87 -90 59 -225t-127 -221q-79 -70 -217 -130q140 -67 199 -147q77 -108 43 -268q-41 -177 -193 -287q-163 -117 -403 -117q-231 0 -344 119q-102 108 -72 254zM434 350 q-24 -123 41 -200q75 -93 246 -93q166 0 272 86q88 73 109 179q30 138 -78 227q-32 27 -113 67l-65 29l-66 31q-145 -59 -221 -123q-98 -81 -125 -203zM719 1147q-24 -117 49 -193q44 -47 188 -114q140 59 207 112q95 76 115 178q24 110 -31 177q-60 69 -196 69 q-134 0 -220 -59q-91 -63 -112 -170z" />
<glyph unicode="9" d="M401 -31l19 88q549 58 760 543q-159 -90 -303 -90q-223 0 -324 149q-95 135 -51 330q41 195 209 332q174 143 393 143q232 0 334 -176q94 -171 35 -454q-80 -374 -390 -611q-291 -219 -682 -254zM717 989q-38 -171 14 -274q55 -113 199 -113q153 0 293 107q28 98 39 149 q52 248 22 373q-41 145 -199 145q-140 0 -241 -110q-90 -107 -127 -277z" />
<glyph unicode=":" horiz-adv-x="491" d="M268 109q12 55 56 90q43 37 100 37q59 0 86 -37q28 -36 16 -90q-9 -56 -55 -93q-45 -36 -100 -36q-60 0 -86 36t-17 93zM420 815q9 55 53 90q46 37 102 37q57 0 84 -37q28 -36 19 -90q-12 -56 -57 -92q-46 -37 -101 -37q-59 0 -86 37q-26 36 -14 92z" />
<glyph unicode=";" horiz-adv-x="491" d="M160 -283q125 128 180 263q-69 0 -102 36q-28 39 -19 93q12 56 55 90q43 37 101 37t84 -39q29 -43 14 -111q-21 -96 -106 -215q-82 -113 -174 -184zM371 815q9 55 53 90q46 37 102 37q57 0 84 -37q28 -36 19 -90q-12 -55 -58 -92t-100 -37q-59 0 -86 37q-26 36 -14 92z " />
<glyph unicode="&#x3c;" horiz-adv-x="1130" d="M406 651l22 113l1092 414l-23 -111l-946 -360l792 -359l-24 -112z" />
<glyph unicode="=" horiz-adv-x="1130" d="M238 465l22 102h1090l-23 -102h-1089zM324 870l22 103h1090l-23 -103h-1089z" />
<glyph unicode="&#x3e;" horiz-adv-x="1130" d="M221 236l25 112l946 359l-793 360l23 111l917 -414l-22 -113z" />
<glyph unicode="?" horiz-adv-x="960" d="M563 109q12 56 58 90q43 37 100 37q59 0 86 -37q28 -36 16 -90q-9 -56 -55 -93q-45 -36 -100 -36q-60 0 -86 36q-28 39 -19 93zM612 1280q18 90 117 139q86 45 219 45q252 0 371 -149q106 -130 65 -320q-44 -201 -194 -309q-138 -99 -348 -102l-47 -203h-86l79 387 q389 0 453 297q24 122 -39 209q-66 90 -198 90q-85 0 -164 -94q-81 -96 -154 -96q-39 0 -61 28q-22 31 -13 78z" />
<glyph unicode="@" horiz-adv-x="1914" d="M317 526q74 355 422 623q345 266 723 266q340 0 516 -182q183 -195 113 -520q-59 -270 -258 -451q-196 -178 -424 -178q-149 0 -149 123q-147 -123 -318 -123q-179 0 -231 143q-53 142 41 340q79 176 252 297q174 121 352 121q157 0 200 -104l168 104h58l-307 -663 q-27 -64 -27 -97q6 -45 68 -45q141 0 292 154q159 162 205 379q64 307 -110 475q-155 149 -455 149q-348 0 -660 -239q-314 -241 -385 -572q-77 -366 111 -587q183 -213 535 -213q327 0 684 223l28 -66q-387 -235 -733 -235q-385 0 -584 227q-215 244 -127 651zM942 535 q-167 -361 74 -361q148 0 268 135l219 473q-9 115 -151 115q-244 0 -410 -362z" />
<glyph unicode="A" horiz-adv-x="1361" d="M-53 0l10 51q146 15 215 139l737 1244h117l207 -1233q9 -70 41 -107q29 -34 98 -43l-10 -51h-533l11 51q116 9 155 35q30 20 30 63q0 13 -3 29l-45 262h-557l-156 -262q-16 -27 -16 -49q0 -23 19 -39q37 -31 145 -39l-11 -51h-454zM473 530h488l-109 641z" />
<glyph unicode="B" horiz-adv-x="1441" d="M123 0l10 51q131 9 170 35q44 31 68 143l207 975q10 50 10 84q0 44 -17 62q-26 23 -155 32l12 52h672q288 0 414 -89q96 -68 97 -188q0 -36 -9 -78q-52 -247 -383 -309q166 -35 237 -131q51 -71 50 -160q0 -34 -7 -71q-41 -196 -225 -304q-180 -104 -445 -104h-706z M557 154q-2 -10 -2 -19q0 -43 51 -43h244q178 0 291 88q103 80 133 228q9 44 9 82q0 88 -48 147q-70 88 -227 88h-330zM698 815h289q333 0 389 264q8 36 8 68q0 83 -53 129q-73 66 -246 65h-215q-61 0 -73 -61z" />
<glyph unicode="C" horiz-adv-x="1433" d="M416 717q70 325 307 536q236 211 537 211q219 0 339 -102l48 72h59l41 -400l-49 -16q-119 358 -445 358q-237 0 -399 -186q-149 -175 -213 -473q-29 -138 -29 -248q0 -131 41 -225q83 -185 320 -185q174 0 323 88q160 90 242 250l86 -30q-232 -398 -682 -398 q-299 0 -446 211q-101 146 -101 345q0 90 21 192z" />
<glyph unicode="D" horiz-adv-x="1564" d="M123 0l10 51q131 9 170 35q44 31 68 143l207 975q10 50 10 84q0 44 -17 62q-26 23 -155 32l12 52h645q361 0 520 -179q118 -131 118 -338q0 -92 -23 -200q-73 -350 -324 -539q-236 -178 -596 -178h-645zM557 154q-2 -10 -2 -19q0 -43 51 -43h182q260 0 410 123 q190 147 264 502q29 134 29 239q0 172 -78 265q-102 120 -360 120h-183q-61 0 -73 -61z" />
<glyph unicode="E" horiz-adv-x="1409" d="M123 0l10 51q131 9 170 35q44 31 68 143l207 975q10 50 10 84q0 44 -17 62q-26 23 -155 32l12 52h1135l65 -334l-47 -23q-71 139 -178 197q-113 67 -303 67h-230q-61 0 -73 -61l-105 -485h332q108 0 162 51q40 40 74 147h53l-105 -489h-53q6 40 6 71q0 52 -16 78 q-34 49 -139 49h-332l-117 -548q-2 -10 -2 -19q0 -43 51 -43h213q213 0 383 86q141 72 297 225l37 -26l-281 -377h-1132z" />
<glyph unicode="F" horiz-adv-x="1347" d="M123 0l10 51q131 9 170 35q44 31 68 143l207 975q10 50 10 84q0 44 -17 62q-26 23 -155 32l12 52h1135l65 -334l-47 -23q-71 139 -178 197q-113 67 -303 67h-230q-61 0 -73 -61l-105 -485h332q108 0 162 51q40 40 74 147h53l-105 -489h-53q6 40 6 71q0 52 -16 78 q-34 49 -139 49h-332l-101 -473q-10 -48 -10 -81q0 -45 19 -62q23 -26 151 -35l-10 -51h-600z" />
<glyph unicode="G" horiz-adv-x="1554" d="M416 717q70 325 307 536q236 211 537 211q215 0 335 -102l45 72h62l39 -400l-49 -16q-119 358 -437 358q-237 0 -399 -186q-151 -174 -215 -473q-29 -138 -29 -248q0 -132 41 -225q83 -185 316 -185q123 0 239 52q97 40 148 94l47 221q11 50 11 84q0 42 -17 59 q-26 26 -152 35l10 51h592l-10 -51q-126 -9 -162 -35q-45 -29 -69 -143l-90 -426h-62l-53 117q-189 -148 -461 -148q-299 0 -446 211q-99 146 -99 343q0 92 21 194z" />
<glyph unicode="H" horiz-adv-x="1615" d="M123 0l10 51q131 9 170 35q44 31 68 143l207 975q10 50 10 84q0 44 -17 62q-26 23 -155 32l12 52h600l-12 -52q-130 -9 -166 -32q-45 -29 -70 -146l-88 -409h690l88 409q11 52 11 86q0 43 -17 60q-26 23 -155 32l12 52h600l-12 -52q-130 -9 -166 -32q-45 -29 -70 -146 l-207 -975q-10 -48 -10 -81q0 -45 19 -62q23 -26 151 -35l-10 -51h-600l10 51q131 9 170 35q44 31 68 143l100 473h-690l-101 -473q-10 -48 -10 -81q0 -45 19 -62q23 -26 151 -35l-10 -51h-600z" />
<glyph unicode="I" horiz-adv-x="722" d="M123 0l10 51q131 9 170 35q44 31 68 143l207 975q10 50 10 84q0 44 -17 62q-26 23 -155 32l12 52h600l-12 -52q-130 -9 -166 -32q-45 -29 -70 -146l-207 -975q-10 -48 -10 -81q0 -45 19 -62q23 -26 151 -35l-10 -51h-600z" />
<glyph unicode="J" horiz-adv-x="704" d="M-567 -242q9 50 47 80q36 31 80 31q74 0 98 -92q21 -94 76 -94q86 0 139 71q62 83 102 275l250 1175q11 52 11 86q0 43 -17 60q-26 23 -156 32l13 52h600l-12 -52q-129 -9 -168 -32q-44 -30 -68 -146l-244 -1147q-102 -477 -514 -477q-136 0 -198 62q-42 42 -42 89 q0 14 3 27z" />
<glyph unicode="K" horiz-adv-x="1509" d="M123 0l10 51q131 9 170 35q44 31 68 143l207 975q10 50 10 84q0 44 -17 62q-26 23 -155 32l12 52h600l-12 -52q-130 -9 -166 -32q-45 -29 -70 -146l-106 -499l694 528q24 18 39 39q17 26 14 47q-9 54 -153 63l12 52h553l-12 -52q-88 -9 -152 -39q-55 -28 -178 -122 l-467 -353l408 -696q32 -58 94 -94q46 -27 88 -27l-10 -51h-607l11 51q169 11 169 96q0 32 -24 74l-305 510l-201 -149l-74 -353q-10 -48 -10 -81q0 -45 19 -62q23 -26 151 -35l-10 -51h-600z" />
<glyph unicode="L" horiz-adv-x="1308" d="M123 0l10 51q131 9 170 35q44 31 68 143l207 975q10 50 10 84q0 44 -17 62q-26 23 -155 32l12 52h600l-12 -52q-130 -9 -166 -32q-45 -29 -70 -146l-223 -1050q-2 -10 -2 -19q0 -43 51 -43h133q200 0 367 86q140 75 293 225l35 -26l-281 -377h-1030z" />
<glyph unicode="M" horiz-adv-x="1830" d="M123 0l10 51q131 9 170 35q46 30 70 143l207 975q10 48 10 81q0 46 -19 65q-26 23 -155 32l12 52h465l164 -1080l624 1080h455l-12 -52q-130 -9 -166 -32q-45 -29 -70 -146l-207 -975q-10 -48 -10 -81q0 -45 19 -62q23 -26 151 -35l-10 -51h-600l10 51q131 9 170 35 q44 31 68 143l223 1051l-739 -1280h-68l-195 1278l-223 -1049q-10 -49 -10 -83q0 -44 18 -60q23 -26 152 -35l-10 -51h-504z" />
<glyph unicode="N" horiz-adv-x="1552" d="M123 0l10 51q131 9 170 35q46 30 70 143l207 975q10 48 10 81q0 46 -19 65q-26 23 -155 32l12 52h446l474 -1072l178 842q11 53 11 88q0 41 -15 58q-23 23 -154 32l12 52h496l-12 -52q-130 -9 -166 -32q-44 -30 -68 -146l-256 -1204h-110l-564 1278l-223 -1049 q-10 -49 -10 -83q0 -44 18 -60q26 -26 154 -35l-10 -51h-506z" />
<glyph unicode="O" horiz-adv-x="1542" d="M414 717q71 329 297 536q233 211 542 211q311 0 455 -211q92 -137 92 -327q0 -97 -24 -209q-71 -333 -295 -537q-233 -211 -545 -211q-309 0 -453 211q-93 138 -93 329q0 97 24 208zM639 717q-32 -154 -32 -271q0 -387 347 -387q458 0 596 658q33 156 33 275 q0 384 -348 384q-455 0 -596 -659z" />
<glyph unicode="P" horiz-adv-x="1411" d="M123 0l10 51q131 9 170 35q44 31 68 143l207 975q11 52 11 86q0 42 -16 60q-23 23 -157 32l12 52h711q291 0 415 -91q95 -70 95 -193q0 -38 -9 -81q-76 -364 -659 -364h-307l-101 -476q-10 -48 -10 -81q0 -45 19 -62q23 -26 151 -35l-10 -51h-600zM692 795h307 q357 0 416 274q8 38 8 71q1 84 -53 133q-74 68 -252 68h-248q-61 0 -73 -61z" />
<glyph unicode="Q" horiz-adv-x="1542" d="M420 717q71 329 297 536q233 211 543 211t454 -211q92 -137 92 -327q0 -98 -24 -209q-61 -296 -256 -500q-196 -202 -467 -237q-10 -51 -10 -91q0 -165 163 -165q106 0 185 67q80 68 104 180h98q-35 -171 -165 -264q-122 -88 -281 -88q-179 0 -266 96q-61 70 -61 178 q0 40 8 84q-256 35 -367 240q-71 127 -71 294q0 96 24 206zM645 717q-32 -153 -32 -271q0 -387 348 -387q457 0 595 658q33 156 33 275q0 384 -348 384q-455 0 -596 -659z" />
<glyph unicode="R" horiz-adv-x="1478" d="M123 0l10 51q131 9 170 35q44 31 68 143l207 975q11 52 11 86q0 42 -16 60q-23 23 -157 32l12 52h711q291 0 415 -91q95 -70 95 -193q0 -38 -9 -81q-71 -331 -544 -358l268 -537q59 -111 211 -123l-10 -51h-351l-348 705h-192l-101 -476q-10 -48 -10 -81q0 -45 19 -62 q23 -26 151 -35l-10 -51h-600zM692 795h307q357 0 416 274q8 38 8 71q1 84 -53 133q-74 68 -252 68h-248q-61 0 -73 -61z" />
<glyph unicode="S" horiz-adv-x="1404" d="M332 440l49 15q127 -398 549 -398q158 0 289 84q125 82 153 211q5 24 5 47q0 108 -113 170q-61 35 -146 60l-82 24l-86 25q-222 62 -307 129q-103 80 -103 203q0 37 9 77q34 163 201 271q160 106 368 106q247 0 385 -102l45 72h62l39 -400l-47 -16q-101 358 -490 358 q-148 0 -252 -67q-98 -64 -119 -160q-4 -20 -4 -38q0 -95 117 -155q57 -29 147 -55l82 -24l88 -23q224 -66 308 -139q100 -81 100 -212q0 -41 -10 -87q-40 -195 -226 -322q-180 -125 -425 -125q-250 0 -433 115l-53 -84h-61z" />
<glyph unicode="T" horiz-adv-x="1366" d="M532 1100l238 379h51q6 -45 53 -45h760q50 0 70 45h51l78 -379l-47 -23q-63 153 -146 211q-83 53 -249 53q-62 0 -74 -61l-223 -1051q-10 -49 -10 -83q0 -44 18 -60q23 -26 151 -35l-10 -51h-600l10 51q131 9 170 35q44 31 68 143l223 1051q2 10 2 18q0 43 -51 43 q-167 0 -262 -53q-97 -54 -230 -211z" />
<glyph unicode="U" horiz-adv-x="1568" d="M614 418l168 786q11 52 11 86q0 43 -17 60q-26 23 -155 32l12 52h600l-12 -52q-130 -9 -166 -32q-45 -29 -70 -146l-166 -782q-12 -51 -11 -96q0 -109 69 -176q87 -87 272 -87q159 0 281 87q130 93 165 268l168 786q11 52 11 86q0 43 -17 60q-26 23 -155 32l12 52h502 l-13 -52q-130 -9 -166 -32q-44 -29 -69 -146l-168 -786q-40 -190 -193 -316q-168 -133 -413 -133q-274 0 -396 113q-96 87 -96 228q0 50 12 108z" />
<glyph unicode="V" horiz-adv-x="1361" d="M532 1382l13 52h534l-12 -52q-117 -9 -154 -34q-29 -17 -29 -60q0 -14 3 -31l170 -993l588 993q15 25 15 45q0 24 -21 41q-38 31 -146 39l12 52h455l-12 -52q-141 -15 -213 -139l-736 -1243h-116l-207 1233q-11 70 -43 106q-29 34 -101 43z" />
<glyph unicode="W" horiz-adv-x="1996" d="M532 1382l13 52h540l-12 -52q-123 -9 -162 -45q-30 -30 -30 -98q0 -17 2 -35l96 -887l496 922q-12 76 -37 104q-24 30 -95 39l13 52h538l-12 -52q-123 -9 -162 -45q-30 -30 -30 -98q0 -17 2 -35l96 -887l475 887q37 67 37 106q0 16 -6 27q-20 36 -144 45l13 52h432 l-12 -52q-75 -9 -119 -45q-45 -37 -99 -133l-643 -1204h-114l-117 1081l-578 -1081h-114l-129 1204q-11 98 -33 133q-26 36 -105 45z" />
<glyph unicode="X" horiz-adv-x="1398" d="M-33 0l10 51q126 9 191 47q57 31 145 131l424 490l-213 485q-46 107 -69 133q-39 39 -142 45l13 52h579l-12 -52q-122 -9 -145 -45q-9 -14 -9 -36q0 -36 25 -95l147 -323l279 321q77 88 77 126q0 4 -1 7q-9 36 -131 45l12 52h500l-13 -52q-117 -9 -184 -45 q-63 -36 -147 -133l-355 -413l248 -562q46 -98 82 -131q41 -38 131 -47l-10 -51h-586l10 51q125 9 150 47q9 13 9 34q0 37 -28 97l-180 400l-346 -402q-65 -75 -65 -116q0 -8 2 -15q14 -36 137 -45l-10 -51h-525z" />
<glyph unicode="Y" horiz-adv-x="1290" d="M532 1382l13 52h538l-12 -52q-109 -9 -141 -47q-20 -22 -20 -56q0 -31 16 -73l188 -528l399 526q54 71 54 112q0 10 -4 19q-17 38 -127 47l12 52h440l-12 -52q-85 -9 -135 -45q-51 -38 -119 -133l-485 -647l-70 -328q-10 -49 -10 -83q0 -44 18 -60q23 -26 152 -35 l-10 -51h-601l11 51q131 9 170 35q43 30 67 143l68 322l-234 653q-36 98 -59 131q-32 37 -107 47z" />
<glyph unicode="Z" horiz-adv-x="1335" d="M127 0l10 51l1182 1290h-289q-193 0 -330 -67q-122 -56 -256 -197l-38 23l208 334h996l-13 -52l-1177 -1290h301q217 0 381 86q122 62 289 225l34 -26l-280 -377h-1018z" />
<glyph unicode="[" horiz-adv-x="665" d="M172 -410l401 1885h449l-16 -82h-285l-367 -1721h285l-18 -82h-449z" />
<glyph unicode="\" horiz-adv-x="632" d="M635 1495h88l135 -1933h-88z" />
<glyph unicode="]" horiz-adv-x="665" d="M-90 -410l18 82h285l367 1721h-285l16 82h449l-402 -1885h-448z" />
<glyph unicode="^" horiz-adv-x="1130" d="M516 717l567 717h88l263 -717h-80l-279 477l-481 -477h-78z" />
<glyph unicode="_" horiz-adv-x="1130" d="M-98 -227l18 86h1133l-19 -86h-1132z" />
<glyph unicode="`" horiz-adv-x="1056" d="M934 1341q6 31 39 31h121q37 0 51 -33l125 -297h-84l-221 240q-34 37 -31 59z" />
<glyph unicode="a" horiz-adv-x="1060" d="M203 193q35 155 225 239q154 66 463 115l27 123q11 61 11 102q0 37 -9 57q-22 48 -107 48q-175 0 -246 -150q-46 -98 -123 -98q-63 0 -63 58q0 15 4 34q18 93 141 160q131 73 314 73q268 0 268 -203q0 -39 -10 -85l-103 -482q-5 -27 -5 -48q0 -62 48 -62q31 0 80 22 l-16 -73q-76 -46 -168 -46q-133 0 -133 122v5q-216 -131 -369 -131q-128 0 -190 56q-44 42 -44 112q0 24 5 52zM406 217q-5 -24 -5 -44q0 -95 119 -95q121 0 293 106l61 285q-212 -30 -319 -80q-128 -63 -149 -172z" />
<glyph unicode="b" horiz-adv-x="1122" d="M332 -31l258 1219q3 15 3 27q0 49 -50 49h-76l8 41l291 159h63l-131 -614q122 104 295 104q199 0 285 -141q53 -88 54 -207q0 -66 -17 -143q-47 -219 -187 -350q-150 -144 -356 -144q-180 0 -256 107l-113 -107h-71zM555 170q58 -113 203 -113q274 0 360 406 q21 96 21 170q0 233 -209 233q-146 0 -252 -112z" />
<glyph unicode="c" horiz-adv-x="987" d="M295 463q47 212 203 350q159 141 356 141q158 0 246 -73q70 -55 71 -127q0 -15 -4 -31q-21 -94 -114 -94q-78 0 -78 98q1 9 1 17q0 130 -138 130q-258 0 -346 -411q-17 -81 -17 -147q0 -86 29 -146q56 -115 203 -115q195 0 348 240l65 -39q-180 -287 -450 -287 q-223 0 -326 142q-64 92 -64 220q0 62 15 132z" />
<glyph unicode="d" horiz-adv-x="1142" d="M295 463q47 216 184 350q147 141 346 141q178 0 250 -106l74 348q3 13 3 23q0 45 -54 45h-72l8 41l289 159h63l-278 -1306q-3 -19 -3 -34q0 -31 13 -44q23 -20 107 -29l-11 -51q-156 0 -325 -31l22 107q-119 -107 -295 -107q-198 0 -284 144q-53 88 -53 207q0 67 16 143z M492 463q-21 -97 -20 -171q0 -235 208 -235q145 0 252 113l123 584q-57 112 -203 112q-274 0 -360 -403z" />
<glyph unicode="e" horiz-adv-x="1042" d="M295 463q47 212 197 350q159 141 370 141q182 0 268 -102q64 -74 64 -186q0 -49 -12 -105h-666q-18 -66 -24 -98q-18 -87 -19 -155q0 -253 252 -253q209 0 358 236l70 -35q-183 -287 -459 -287q-237 0 -346 142q-68 92 -68 223q0 60 15 129zM545 643h473q6 33 6 62 q0 66 -33 110q-47 59 -143 59q-212 0 -303 -231z" />
<glyph unicode="f" horiz-adv-x="614" d="M106 0l11 51q86 9 119 29q34 20 43 78l145 682h-139l18 84h139l25 120q41 192 172 308q124 112 293 112q70 0 110 -30q31 -23 31 -59q0 -9 -2 -19q-9 -43 -43 -70q-37 -29 -74 -29q-27 0 -51 17q-15 9 -24 33q-27 49 -66 49q-96 0 -131 -154l-59 -278h200l-18 -84h-201 l-145 -682q-2 -15 -2 -28q0 -35 18 -50q26 -20 109 -29l-11 -51h-467z" />
<glyph unicode="g" horiz-adv-x="1075" d="M27 -188q21 107 149 165q-81 37 -81 122q0 21 5 44q14 71 70 123q50 47 119 56q-71 76 -71 187q0 39 9 83q34 159 158 258q131 104 313 104q123 0 197 -45q125 146 254 146q98 0 98 -70q0 -11 -2 -24q-18 -80 -96 -80q-31 0 -57 26l-11 8l-10 9q-11 8 -29 8 q-43 0 -92 -64q72 -79 72 -189q0 -41 -10 -87q-35 -159 -156 -256q-132 -105 -311 -105q-75 0 -152 23q-28 6 -52 6q-38 0 -67 -14q-47 -21 -53 -58q-6 -25 11 -41.5t57 -23.5q76 -16 313 -25q232 -9 311 -65q60 -41 60 -118q0 -23 -6 -50q-27 -130 -166 -201 q-141 -72 -348 -72q-232 0 -339 56q-90 46 -90 131q0 16 3 33zM158 -170q-3 -14 -3 -27q0 -58 64 -91q78 -40 250 -40q152 0 250 43q94 40 106 105q3 12 3 22q0 44 -50 58q-60 17 -239 20q-157 6 -263 25q-100 -34 -118 -115zM414 592q-13 -63 -13 -111q0 -170 160 -170 q205 0 264 281q14 65 14 115q0 167 -157 167q-207 0 -268 -282z" />
<glyph unicode="h" horiz-adv-x="1171" d="M106 0l11 51q86 9 119 29q34 20 43 78l221 1038q3 13 3 23q0 45 -52 45h-76l8 41l291 159h63l-131 -612q74 41 164 70q92 32 176 32q117 0 180 -51q62 -53 62 -146q0 -37 -10 -79l-111 -520q-3 -19 -3 -34q0 -31 13 -44q22 -20 105 -29l-11 -51h-456l10 51q89 9 117 29 q34 20 43 78l110 520q7 32 7 59q0 113 -130 113q-141 0 -284 -88l-129 -604q-3 -19 -3 -34q0 -31 13 -44q23 -20 104 -29l-10 -51h-457z" />
<glyph unicode="i" horiz-adv-x="565" d="M106 0l11 51q86 9 119 29q34 20 43 78l112 528q3 13 3 23q0 45 -52 45h-76l8 41l291 159h64l-170 -796q-3 -19 -3 -34q0 -31 13 -44q23 -20 104 -29l-10 -51h-457zM492 1284q8 46 51 82q41 35 94 35q55 0 82 -35q17 -24 17 -56q0 -13 -3 -26q-9 -46 -49 -80 q-44 -35 -96 -35q-53 0 -80 35q-18 24 -18 56q0 11 2 24z" />
<glyph unicode="j" horiz-adv-x="544" d="M-471 -293q6 41 39 66q33 26 72 26q31 0 51 -14q10 -8 24 -35q27 -49 60 -49q104 0 139 154l176 831q3 13 3 23q0 45 -52 45h-76l8 41l291 159h64l-195 -917q-47 -218 -180 -336q-124 -109 -291 -109q-78 0 -112 29q-24 21 -24 58q0 13 3 28zM190 1284q8 45 52 82 q41 35 94 35q55 0 82 -35q17 -24 17 -56q0 -12 -3 -26q-9 -46 -49 -80q-44 -35 -96 -35q-53 0 -80 35q-19 25 -19 57q0 11 2 23z" />
<glyph unicode="k" horiz-adv-x="1099" d="M106 0l11 51q86 9 119 29q34 20 43 78l221 1038q3 13 3 23q0 45 -52 45h-76l8 41l291 159h63l-211 -989l336 279q50 39 50 67q0 3 -1 6q-9 39 -116 45l10 52h481l-10 -52q-153 -12 -301 -133l-174 -143l250 -424q63 -106 151 -121l-10 -51h-508l10 51q102 6 129 47 q12 15 12 34q0 20 -14 44l-176 293l-145 -119l-41 -192q-3 -19 -3 -34q0 -31 13 -44q23 -20 104 -29l-10 -51h-457z" />
<glyph unicode="l" horiz-adv-x="565" d="M106 0l11 51q86 9 119 29q34 20 43 78l221 1038q3 13 3 23q0 45 -52 45h-76l8 41l291 159h63l-278 -1306q-3 -19 -3 -34q0 -31 13 -44q23 -20 104 -29l-10 -51h-457z" />
<glyph unicode="m" horiz-adv-x="1779" d="M106 0l11 51q86 9 119 29q34 20 43 78l112 528q3 13 3 23q0 45 -52 45h-76l8 41l291 159h64l-23 -102q74 41 164 70q92 32 176 32q76 0 135 -24q74 -31 95 -99q200 123 376 123q120 0 183 -51q59 -50 59 -142q0 -38 -10 -83l-111 -520q-3 -19 -3 -34q0 -31 13 -44 q23 -20 107 -29l-10 -51h-457l10 51q85 9 117 29q34 20 43 78l111 520q7 32 7 59q0 113 -130 113q-141 0 -295 -92q0 -44 -8 -80l-111 -520q-3 -19 -3 -34q0 -31 13 -44q22 -20 105 -29l-11 -51h-456l10 51q89 9 117 29q34 20 43 78l110 520q7 32 7 59q0 113 -130 113 q-141 0 -284 -88l-129 -604q-3 -19 -3 -34q0 -31 13 -44q23 -20 104 -29l-10 -51h-457z" />
<glyph unicode="n" horiz-adv-x="1171" d="M106 0l11 51q86 9 119 29q34 20 43 78l112 528q3 13 3 23q0 45 -52 45h-76l8 41l291 159h64l-23 -102q74 41 164 70q92 32 176 32q117 0 180 -51q62 -53 62 -146q0 -37 -10 -79l-111 -520q-3 -19 -3 -34q0 -31 13 -44q22 -20 105 -29l-11 -51h-456l10 51q89 9 117 29 q34 20 43 78l110 520q7 32 7 59q0 113 -130 113q-141 0 -284 -88l-129 -604q-3 -19 -3 -34q0 -31 13 -44q23 -20 104 -29l-10 -51h-457z" />
<glyph unicode="o" horiz-adv-x="1107" d="M295 463q47 215 207 350q166 141 379 141q211 0 319 -141q74 -98 74 -229q0 -57 -14 -121q-47 -216 -209 -352q-165 -142 -379 -142q-211 0 -320 142q-72 96 -72 227q0 59 15 125zM492 463q-21 -98 -21 -173q0 -241 217 -241q286 0 375 414q21 97 21 171q0 240 -220 240 q-284 0 -372 -411z" />
<glyph unicode="p" horiz-adv-x="1132" d="M-74 -377l11 51q85 9 118 29q31 22 43 76l193 907q3 13 3 23q0 45 -52 45h-82l8 41l297 159h63l-22 -104q122 104 295 104q199 0 284 -141q53 -88 53 -207q0 -67 -16 -143q-47 -220 -186 -350q-150 -144 -356 -144q-164 0 -240 94l-61 -284q-3 -19 -3 -33q0 -30 13 -43 q23 -20 104 -29l-10 -51h-457zM362 170q58 -113 203 -113q275 0 361 406q20 96 20 169q0 234 -209 234q-146 0 -252 -112z" />
<glyph unicode="q" horiz-adv-x="1114" d="M295 463q47 216 184 350q147 141 346 141q179 0 256 -114l133 114h64l-250 -1175q-4 -19 -4 -34q0 -28 14 -42q23 -20 107 -29l-10 -51h-457l10 51q85 9 117 29q33 20 43 76l63 297q-119 -107 -295 -107q-198 0 -284 144q-53 88 -53 207q0 67 16 143zM492 463 q-21 -97 -21 -171q0 -235 209 -235q145 0 252 113l123 584q-57 112 -203 112q-274 0 -360 -403z" />
<glyph unicode="r" horiz-adv-x="821" d="M106 0l11 51q86 9 119 29q34 20 43 78l112 528q3 13 3 23q0 45 -52 45h-76l8 41l291 159h64l-29 -135q141 135 301 135q78 0 111 -31q24 -22 24 -61q0 -15 -4 -33q-21 -104 -123 -104q-47 0 -82 47l-12 16l-12 17q-17 14 -41 14q-93 0 -184 -104l-119 -557q-3 -19 -3 -34 q0 -31 13 -44q23 -20 104 -29l-10 -51h-457z" />
<glyph unicode="s" horiz-adv-x="950" d="M238 309l49 15q115 -275 370 -275q93 0 158 39q80 48 94 127q3 14 3 28q0 67 -76 105q-46 22 -99 35l-57 14l-57 15q-155 42 -211 84q-68 52 -68 136q0 25 6 54q24 114 133 191q115 77 258 77q179 0 267 -82l30 52h52l2 -265l-48 -16q-83 234 -307 234q-188 0 -215 -134 q-2 -11 -2 -21q0 -63 80 -97q53 -23 96 -33l56 -14l57 -15q153 -43 205 -90q66 -52 66 -140q0 -28 -7 -61q-27 -138 -151 -221q-119 -82 -279 -82q-197 0 -305 99l-39 -68h-53z" />
<glyph unicode="t" horiz-adv-x="653" d="M385 840l10 43q122 40 203 127q69 75 123 217h63l-63 -303h246l-19 -84h-246l-133 -625q-6 -29 -7 -52q0 -91 95 -91q63 0 134 24l-17 -80q-85 -39 -194 -39q-199 0 -199 162q0 35 10 78l131 623h-137z" />
<glyph unicode="u" horiz-adv-x="1155" d="M391 754l8 41l291 159h62l-150 -708q-7 -32 -7 -58q0 -114 132 -114q130 0 285 88l110 524q3 13 3 23q0 45 -54 45h-74l9 41l290 159h64l-170 -796q-3 -19 -3 -34q0 -31 13 -44q22 -20 105 -29l-11 -51q-154 0 -323 -31l20 101q-79 -42 -162 -68q-95 -33 -176 -33 q-114 0 -180 54q-61 52 -61 144q0 37 10 79l92 440q3 13 3 23q0 45 -52 45h-74z" />
<glyph unicode="v" horiz-adv-x="948" d="M336 872l10 52h451l-11 -52q-104 -9 -129 -41q-12 -16 -12 -51q0 -25 6 -59l80 -500l299 490q37 59 37 96q0 12 -4 22q-15 34 -102 43l10 52h360l-10 -52q-60 -9 -104 -45q-44 -41 -101 -133l-424 -694h-117l-116 694q-14 92 -33 131q-22 38 -90 47z" />
<glyph unicode="w" horiz-adv-x="1560" d="M336 872l10 52h453l-11 -52q-108 -9 -131 -45q-12 -19 -12 -58q0 -31 8 -75l80 -469l326 525q-27 113 -125 122l10 52h465l-10 -52q-108 -9 -131 -45q-11 -17 -11 -53q0 -32 9 -80l80 -473l284 473q44 69 44 109q0 13 -5 24q-14 36 -115 45l11 52h379l-11 -52 q-61 -9 -102 -45q-46 -43 -102 -133l-416 -694h-123l-109 631l-379 -631h-120l-123 694q-14 97 -33 131q-24 41 -90 47z" />
<glyph unicode="x" horiz-adv-x="1048" d="M41 0l10 51q98 9 185 96l313 320l-160 309q-27 53 -51 70q-30 23 -78 26l10 52h451l-10 -52q-75 -6 -101 -30q-14 -13 -14 -30q0 -16 12 -36l101 -188l186 188q29 29 29 50q0 38 -101 46l11 52h378l-10 -52q-110 -9 -194 -96l-263 -264l193 -365q50 -87 121 -96l-10 -51 h-441l10 51q88 3 111 29q6 8 6 20q0 19 -16 47l-131 244l-242 -244q-29 -29 -29 -50q0 -39 103 -46l-10 -51h-369z" />
<glyph unicode="y" horiz-adv-x="948" d="M-201 -279q9 42 43 68q37 29 78 29q48 0 82 -49q37 -52 70 -52q78 0 159 140l74 120l-121 717q-14 98 -32 133q-23 35 -91 45l11 52h450l-10 -52q-107 -9 -127 -45q-12 -17 -12 -60q0 -30 6 -73l78 -471l288 471q45 69 45 112q0 11 -4 21q-14 36 -102 45l10 52h363 l-10 -52q-62 -10 -103 -45q-46 -43 -102 -133l-537 -874q-138 -228 -334 -228q-83 0 -133 35q-41 29 -41 73q0 10 2 21z" />
<glyph unicode="z" horiz-adv-x="966" d="M106 0l11 51l741 793h-127q-152 0 -237 -39q-95 -44 -189 -154l-43 21l139 252h713l-10 -52l-742 -792h175q148 0 264 67q97 57 205 177l34 -23l-194 -301h-740z" />
<glyph unicode="{" horiz-adv-x="632" d="M293 504l14 65q110 0 162 52q48 44 68 141l71 336q85 407 441 407l-13 -55q-184 0 -233 -231l-72 -338q-61 -292 -301 -344q218 -53 156 -347l-72 -337q-50 -232 135 -232l-12 -55q-353 0 -268 407l71 336q21 98 -6 144q-34 51 -141 51z" />
<glyph unicode="|" horiz-adv-x="632" d="M360 -438l410 1933h86l-410 -1933h-86z" />
<glyph unicode="}" horiz-adv-x="632" d="M-94 -434l12 55q184 0 234 232l71 337q62 295 303 347q-218 53 -157 344l71 338q50 231 -135 231l12 55q356 0 271 -407l-72 -336q-21 -98 6 -141q30 -52 140 -52l-15 -65q-109 0 -160 -51q-46 -43 -67 -144l-72 -336q-85 -407 -442 -407z" />
<glyph unicode="~" horiz-adv-x="1056" d="M463 588q62 293 309 293q102 0 207 -97l39 -34q22 -22 37 -31q42 -31 78 -31q120 0 155 160h72q-64 -295 -311 -295q-105 0 -203 98l-37 35q-22 22 -37 31q-42 31 -78 31q-118 0 -153 -160h-78z" />
<glyph unicode="&#xa4;" d="M205 266l239 197q-58 108 -28 254q35 150 137 252l-158 200l115 95l158 -199q125 82 270 82t236 -82l241 201l76 -97l-242 -198q57 -109 27 -254q-27 -143 -135 -254l157 -199l-114 -94l-160 199q-119 -82 -268 -82q-147 0 -238 82l-239 -199zM539 717q-27 -126 45 -217 q72 -90 198 -90q125 0 238 90q107 88 135 217q27 128 -43 219q-75 90 -201 90q-125 0 -235 -90q-110 -93 -137 -219z" />
<glyph unicode="&#xa8;" horiz-adv-x="1019" d="M985 1262q9 44 47 75q39 31 84 31q49 0 74 -31q23 -29 14 -75q-9 -44 -47 -74q-42 -31 -86 -31q-47 0 -72 31q-23 29 -14 74zM1325 1262q9 44 47 75q39 31 86 31q46 0 74 -31q21 -30 12 -75q-9 -43 -45 -74q-42 -31 -86 -31q-49 0 -74 31q-23 29 -14 74z" />
<glyph unicode="&#xa9;" horiz-adv-x="1619" d="M365 717q65 311 331 528q269 219 576 219t481 -219q172 -217 107 -528q-64 -310 -330 -529q-269 -219 -576 -219t-481 219q-173 215 -108 529zM432 717q-58 -279 98 -479q156 -199 439 -199q280 0 522 199q240 200 299 479q62 279 -96 481q-156 199 -437 199 q-282 0 -524 -199q-239 -198 -301 -481zM698 721q40 196 185 323q143 125 331 125q126 0 195 -57l25 39h49l16 -244l-41 -12q-65 207 -244 207q-248 0 -327 -381q-83 -381 166 -381q99 0 188 59q88 60 133 146l64 -23q-148 -250 -414 -250q-191 0 -279 125q-90 128 -47 324z " />
<glyph unicode="&#xad;" horiz-adv-x="497" d="M213 401l25 121h456l-24 -121h-457z" />
<glyph unicode="&#xae;" horiz-adv-x="919" d="M530 1063q37 165 181 285q140 116 307 116q166 0 260 -116q92 -121 55 -285q-34 -162 -176 -283q-143 -116 -309 -116q-167 0 -258 116q-94 120 -60 283zM596 1063q-27 -139 49 -238q78 -96 217 -96q136 0 258 96q121 100 148 238q30 140 -47 240q-78 96 -217 96 q-137 0 -259 -96q-119 -98 -149 -240zM678 860l8 35q32 3 43 10q13 10 19 37l55 260q7 29 -2 35q-11 5 -41 8l8 35h244q85 0 121 -27.5t24 -83.5q-18 -92 -129 -110l59 -127q15 -34 54 -37l-8 -35h-136l-84 193h-34l-23 -111q-6 -29 2 -37q7 -7 41 -10l-8 -35h-213z M891 1104h63q81 0 93 65q7 31 -9.5 46.5t-56.5 15.5h-45q-20 0 -23 -19z" />
<glyph unicode="&#xaf;" horiz-adv-x="1056" d="M1044 1186l23 106h514l-22 -106h-515z" />
<glyph unicode="&#xb4;" horiz-adv-x="1056" d="M1368 1042l250 297q26 33 63 33h123q33 0 27 -31q-3 -19 -55 -59l-326 -240h-82z" />
<glyph unicode="&#xb7;" horiz-adv-x="491" d="M424 475q12 56 55 90q43 37 101 37q59 0 86 -37q28 -36 16 -90q-9 -55 -55 -92t-101 -37q-59 0 -86 37q-25 35 -16 92z" />
<glyph unicode="&#xc6;" horiz-adv-x="2181" d="M-66 0l11 51q115 3 274 178l1010 1114q-38 30 -187 39l13 52h1183l66 -334l-47 -23q-71 139 -178 197q-113 67 -303 67h-228q-61 0 -73 -61l-105 -485h332q109 0 160 51q43 40 73 147h54l-105 -489h-53q15 105 -10 149q-30 49 -138 49h-331l-117 -548q-12 -62 49 -62h211 q215 0 385 86q141 72 297 225l35 -26l-281 -377h-1130l10 51q131 9 170 35q44 31 68 143l45 215h-568l-200 -223q-65 -71 -37 -119q23 -42 125 -51l-11 -51h-469zM612 537h502l141 667q1 4 2.5 14t2.5 18.5t2 16.5z" />
<glyph unicode="&#xd7;" horiz-adv-x="1130" d="M426 362l430 355l-281 356l89 72l280 -357l434 359l58 -72l-437 -358l283 -357l-86 -71l-283 356l-432 -354z" />
<glyph unicode="&#xd8;" horiz-adv-x="1542" d="M246 0l188 180q-139 207 -69 537q71 329 297 536q233 211 542 211q259 0 404 -151l127 121h112l-188 -183q138 -205 67 -534q-72 -334 -294 -537q-233 -211 -545 -211q-259 0 -406 150l-123 -119h-112zM571 313l924 889q-79 174 -309 174q-455 0 -596 -659 q-53 -249 -19 -404zM598 231q79 -172 307 -172q458 0 596 658q53 248 19 401z" />
<glyph unicode="&#xf7;" horiz-adv-x="1130" d="M324 668l22 102h1090l-23 -102h-1089zM672 360q12 57 55 91q45 36 102 36q58 0 84 -36q29 -37 17 -91q-9 -54 -56 -92q-46 -37 -100 -37q-59 0 -86 37q-25 35 -16 92zM825 1075q9 54 54 90q46 37 102 37q57 0 84 -37q27 -35 18 -90q-12 -56 -57 -92q-46 -37 -100 -37 q-59 0 -86 37t-15 92z" />
<glyph unicode="&#x2c6;" horiz-adv-x="1056" d="M872 1040l269 301q34 37 71 37h88q42 0 54 -37l141 -301h-84l-180 217l-275 -217h-84z" />
<glyph unicode="&#x2dc;" horiz-adv-x="1056" d="M995 1161q58 205 211 205q53 0 121 -53l25 -21l24 -18q31 -17 54 -17q63 0 98 91h61q-58 -205 -211 -205q-51 0 -121 55l-24 19l-25 18q-29 16 -51 16q-61 0 -96 -90h-66z" />
<glyph unicode="&#x2000;" horiz-adv-x="845" />
<glyph unicode="&#x2001;" horiz-adv-x="1690" />
<glyph unicode="&#x2002;" horiz-adv-x="845" />
<glyph unicode="&#x2003;" horiz-adv-x="1690" />
<glyph unicode="&#x2004;" horiz-adv-x="563" />
<glyph unicode="&#x2005;" horiz-adv-x="422" />
<glyph unicode="&#x2006;" horiz-adv-x="281" />
<glyph unicode="&#x2007;" horiz-adv-x="281" />
<glyph unicode="&#x2008;" horiz-adv-x="211" />
<glyph unicode="&#x2009;" horiz-adv-x="338" />
<glyph unicode="&#x200a;" horiz-adv-x="93" />
<glyph unicode="&#x2010;" horiz-adv-x="497" d="M213 401l25 121h456l-24 -121h-457z" />
<glyph unicode="&#x2011;" horiz-adv-x="497" d="M213 401l25 121h456l-24 -121h-457z" />
<glyph unicode="&#x2012;" horiz-adv-x="497" d="M213 401l25 121h456l-24 -121h-457z" />
<glyph unicode="&#x2013;" horiz-adv-x="1130" d="M328 676l18 82h1090l-19 -82h-1089z" />
<glyph unicode="&#x2014;" horiz-adv-x="1673" d="M328 676l18 82h1632l-18 -82h-1632z" />
<glyph unicode="&#x2018;" horiz-adv-x="491" d="M674 1079q21 96 106 215q82 113 172 185l35 -31q-129 -129 -180 -262q68 0 102 -37q28 -38 19 -92q-12 -55 -56 -90q-43 -37 -100 -37q-58 0 -84 39q-28 43 -14 110z" />
<glyph unicode="&#x2019;" horiz-adv-x="491" d="M680 946q129 129 180 262q-68 0 -102 37q-28 39 -17 92q12 54 54 90q46 37 102 37q58 0 84 -39q27 -40 12 -110q-18 -96 -106 -215q-82 -113 -172 -185z" />
<glyph unicode="&#x201a;" horiz-adv-x="491" d="M160 -283q125 128 180 263q-69 0 -102 36q-28 39 -19 93q12 56 55 90q43 37 101 37t84 -39q29 -43 14 -111q-21 -96 -106 -215q-82 -113 -174 -184z" />
<glyph unicode="&#x201c;" horiz-adv-x="866" d="M674 1079q21 96 106 215q82 113 172 185l35 -31q-129 -129 -180 -262q68 0 102 -37q28 -38 19 -92q-12 -55 -56 -90q-43 -37 -100 -37q-58 0 -84 39q-28 43 -14 110zM1051 1079q21 96 106 215q82 113 172 185l35 -31q-129 -129 -180 -262q68 0 102 -37q28 -38 19 -92 q-12 -55 -56 -90q-43 -37 -100 -37q-58 0 -84 39q-28 43 -14 110z" />
<glyph unicode="&#x201d;" horiz-adv-x="866" d="M680 946q129 129 180 262q-68 0 -102 37q-28 39 -17 92q12 54 54 90q46 37 102 37q58 0 84 -39q27 -40 12 -110q-18 -96 -106 -215q-82 -113 -172 -185zM1055 946q129 129 180 262q-68 0 -102 37q-28 39 -17 92q12 55 53 90q46 37 103 37q58 0 84 -39q27 -40 12 -110 q-18 -96 -106 -215q-82 -113 -172 -185z" />
<glyph unicode="&#x201e;" horiz-adv-x="866" d="M160 -283q125 128 180 263q-69 0 -102 36q-28 39 -19 93q12 56 55 90q43 37 101 37t84 -39q29 -43 14 -111q-21 -96 -106 -215q-82 -113 -174 -184zM535 -283q125 128 180 263q-70 0 -103 36q-27 38 -18 93q12 56 55 90q43 37 101 37t84 -39q29 -43 14 -111 q-21 -94 -107 -215q-82 -113 -174 -184z" />
<glyph unicode="&#x2026;" horiz-adv-x="1472" d="M268 109q12 55 56 90q43 37 100 37q59 0 86 -37q28 -36 16 -90q-9 -56 -55 -93q-45 -36 -100 -36q-60 0 -86 36t-17 93zM758 109q12 56 55 90q43 37 100 37q59 0 86 -37q29 -37 17 -90q-9 -56 -55 -93q-45 -36 -101 -36q-60 0 -86 36q-25 35 -16 93zM1249 109 q12 55 56 90q43 37 100 37q59 0 86 -37q28 -36 16 -90q-9 -56 -55 -93q-45 -36 -100 -36q-60 0 -86 36t-17 93z" />
<glyph unicode="&#x202f;" horiz-adv-x="338" />
<glyph unicode="&#x205f;" horiz-adv-x="422" />
<glyph unicode="&#x2122;" horiz-adv-x="989" d="M578 1325l67 123h23q3 -14 18 -14h238q17 0 20 14h25l16 -123l-22 -8q-27 80 -103 80q-19 0 -22 -19l-66 -305q-6 -27 4 -37q7 -7 37 -10l-4 -22h-197l4 22q35 3 46 10q10 10 16 37l65 305q3 19 -14 19q-68 0 -133 -80zM932 1004l4 22q36 3 47 10q10 10 16 37l64 291 q6 27 -4 37q-7 7 -41 10l6 23h166l41 -277l160 277h161l-6 -23q-32 -3 -43 -10q-10 -10 -16 -37l-64 -291q-6 -27 4 -37q4 -7 37 -10l-4 -22h-196l4 22q36 3 47 10q10 10 16 37l62 285l-207 -354h-31l-51 354l-62 -285q-6 -26 5 -37q4 -7 36 -10l-4 -22h-147z" />
<glyph unicode="&#x25fc;" horiz-adv-x="921" d="M0 0v922h922v-922h-922z" />
<glyph horiz-adv-x="1140" d="M373 717q71 336 239 534q183 213 422 213q243 0 332 -213q81 -196 10 -534t-237 -533q-182 -215 -422 -215q-243 0 -332 215q-82 199 -12 533zM541 244q27 -185 194 -185q165 0 273 185q85 150 153 473q70 322 49 475q-27 184 -194 184q-168 0 -273 -184 q-83 -146 -155 -475q-68 -324 -47 -473z" />
<glyph horiz-adv-x="720" d="M127 0l10 51q131 9 170 35q44 31 68 143l196 928q15 66 -49 66h-133l8 43l361 198h76l-263 -1235q-24 -114 9 -143q23 -26 151 -35l-10 -51h-594z" />
<glyph horiz-adv-x="1046" d="M164 0l18 90l70 53l67 54q27 21 74 57.5t66 52.5q163 137 258 232q266 272 319 510q68 323 -196 323q-132 0 -232 -86q-105 -92 -143 -268h-100q43 204 196 330q143 116 330 116q198 0 299 -116q102 -117 61 -299q-47 -222 -290 -453q-185 -175 -541 -408h508q55 0 80 25 q32 32 79 154h56l-137 -412h-56q3 19 0 29q-6 16 -24 16h-762z" />
<glyph horiz-adv-x="1075" d="M178 180q9 47 45 76q39 31 78 31q56 0 86 -35q13 -12 23 -37l18 -41q46 -113 135 -113q320 0 393 340q30 146 -38 238q-73 104 -240 104h-37l21 91h49q132 0 221 86q84 78 108 194q22 111 -20 178q-47 80 -164 80q-115 0 -205 -72q-95 -73 -137 -217h-100q55 174 182 277 q131 104 317 104q198 0 291 -100q85 -94 58 -219q-24 -117 -111 -201q-83 -86 -211 -121q131 -24 201 -131q68 -105 41 -241q-47 -213 -213 -342q-181 -140 -432 -140q-166 0 -265 51q-115 58 -94 160z" />
<glyph horiz-adv-x="1134" d="M283 369l14 69l831 996h156l-207 -973h234l-21 -92h-233l-78 -369h-197l78 369h-577zM424 461h457l155 731z" />
<glyph horiz-adv-x="1052" d="M154 180q9 47 45 76q36 31 73 31q53 0 88 -35q14 -14 27 -37l23 -41q52 -113 149 -113q158 0 272 97q103 87 138 243q34 150 -54 252q-88 99 -260 99q-157 0 -288 -64l-45 21l260 725h581q51 0 66 45h55l-76 -232h-604l-117 -336q98 39 236 39q241 0 362 -145 q109 -140 66 -344q-47 -207 -209 -344q-177 -148 -416 -148q-167 0 -272 51q-121 58 -100 160z" />
<glyph horiz-adv-x="1140" d="M334 600q80 372 391 610q288 219 680 254l-19 -86q-548 -61 -759 -544q156 90 303 90q221 0 323 -150q93 -136 52 -330q-40 -191 -209 -329q-178 -146 -394 -146q-232 0 -331 178q-95 174 -37 453zM522 205q41 -146 199 -146q140 0 242 111q90 104 127 274 q38 170 -15 275q-57 112 -201 112q-152 0 -290 -108q-27 -84 -39 -148q-53 -249 -23 -370z" />
<glyph horiz-adv-x="987" d="M528 1069l134 410h55q-3 -19 0 -29q10 -16 26 -16h779l-19 -88q-520 -561 -758 -1346h-215q204 638 789 1247h-576q-56 0 -79 -26q-34 -34 -80 -152h-56z" />
<glyph horiz-adv-x="1140" d="M252 342q52 249 387 387q-214 129 -162 377q27 130 154 233q155 125 385 125q194 0 291 -100q87 -90 59 -225t-127 -221q-79 -70 -217 -130q140 -67 199 -147q77 -108 43 -268q-41 -177 -193 -287q-163 -117 -403 -117q-231 0 -344 119q-102 108 -72 254zM393 350 q-24 -123 41 -200q75 -93 246 -93q166 0 272 86q88 73 109 179q30 138 -78 227q-32 27 -113 67l-65 29l-66 31q-145 -59 -221 -123q-98 -81 -125 -203zM678 1147q-24 -117 49 -193q44 -47 188 -114q140 59 207 112q95 76 115 178q24 110 -31 177q-60 69 -196 69 q-133 0 -219 -59q-92 -64 -113 -170z" />
<glyph horiz-adv-x="1140" d="M360 -31l19 88q549 58 760 543q-159 -90 -303 -90q-223 0 -324 149q-95 135 -51 330q41 195 209 332q174 143 393 143q232 0 334 -176q94 -171 35 -454q-80 -374 -390 -611q-291 -219 -682 -254zM676 989q-38 -171 14 -274q55 -113 199 -113q153 0 293 107q28 98 39 149 q52 248 22 373q-41 145 -199 145q-140 0 -241 -110q-90 -107 -127 -277z" />
<glyph d="M358 528q46 222 207 383q179 176 414 176t340 -176q89 -160 43 -383q-46 -222 -207 -383q-179 -176 -414 -176t-340 176q-89 160 -43 383zM573 528q-102 -471 187 -471q285 0 387 471q45 210 16 328q-40 143 -202 143q-164 0 -265 -143q-77 -111 -123 -328z" />
<glyph d="M467 0l10 51q169 9 217 35q58 30 82 143l117 551q15 66 -49 66h-197l8 43l424 198h76l-182 -858q-24 -113 22 -143q36 -26 199 -35l-10 -51h-717z" />
<glyph d="M238 0l22 104q365 187 510 293q237 175 277 353q52 239 -211 239q-131 0 -234 -86q-109 -95 -143 -262h-101q43 204 199 330q143 116 334 116q195 0 299 -90q102 -91 67 -243q-68 -321 -706 -576h448q56 0 84 25q32 37 80 153h56l-136 -401h-55q3 19 0 29q-6 16 -24 16 h-766z" />
<glyph d="M82 -199q9 47 45 78q37 29 78 29q83 0 129 -111q43 -112 133 -112q320 0 393 340q27 143 -37 237q-73 105 -239 105h-37l18 90h47q132 0 224 86q80 75 108 194q22 111 -20 178q-47 80 -164 80q-114 0 -203 -71q-97 -75 -139 -217h-101q54 172 183 276q131 104 317 104 q198 0 291 -100q84 -93 57 -219q-52 -243 -319 -322q131 -24 198 -131q68 -105 41 -241q-47 -213 -213 -342q-178 -140 -430 -140q-163 0 -264 52q-116 58 -96 157z" />
<glyph d="M176 0l14 70l824 987h162l-205 -965h233l-20 -92h-234l-80 -377h-196l80 377h-578zM317 92h457l154 731z" />
<glyph d="M94 -199q9 47 45 78q37 29 76 29q55 0 90 -35q17 -22 25 -35l22 -41q55 -112 152 -112q163 0 270 94q102 89 137 246q30 152 -53 251q-88 99 -260 99q-156 0 -287 -64l-49 21l262 725h582q53 0 68 45h55l-78 -232h-604l-117 -335q96 38 236 38q245 0 360 -145 q111 -139 68 -344q-47 -207 -209 -344q-177 -148 -414 -148q-162 0 -272 52q-126 58 -105 157z" />
<glyph d="M375 600q80 372 391 610q288 219 680 254l-19 -86q-548 -61 -759 -544q156 90 303 90q221 0 323 -150q93 -136 52 -330q-40 -191 -209 -329q-178 -146 -394 -146q-232 0 -331 178q-95 174 -37 453zM563 205q41 -146 199 -146q140 0 242 111q89 102 126 274 q38 171 -14 275q-57 112 -201 112q-152 0 -290 -108q-27 -84 -39 -148q-53 -249 -23 -370z" />
<glyph d="M549 692l133 410h55q-3 -19 0 -29q10 -16 27 -16h778l-18 -88q-520 -561 -758 -1346h-215q205 640 788 1247h-575q-57 0 -80 -26q-34 -34 -80 -152h-55z" />
<glyph d="M293 342q53 249 387 387q-214 129 -162 377q27 130 154 233q155 125 385 125q194 0 291 -100q87 -90 59 -225t-127 -221q-79 -70 -217 -130q140 -67 199 -147q77 -108 43 -268q-41 -177 -193 -287q-163 -117 -403 -117q-231 0 -344 119q-102 108 -72 254zM434 350 q-24 -123 41 -200q75 -93 246 -93q166 0 272 86q88 73 109 179q30 138 -78 227q-32 27 -113 67l-65 29l-66 31q-145 -59 -221 -123q-98 -81 -125 -203zM719 1147q-24 -117 49 -193q44 -47 188 -114q140 59 207 112q95 76 115 178q24 110 -31 177q-60 69 -196 69 q-134 0 -220 -59q-91 -63 -112 -170z" />
<glyph d="M242 -408l18 86q548 61 760 545q-159 -90 -303 -90q-222 0 -324 150q-95 135 -51 329q41 195 209 332q174 143 393 143q232 0 334 -176q94 -172 33 -454q-77 -374 -387 -611q-291 -219 -682 -254zM557 612q-38 -171 14 -274q55 -113 199 -113q154 0 291 107 q36 126 41 149q52 248 22 373q-41 145 -198 145q-141 0 -242 -110q-93 -107 -127 -277z" />
<glyph horiz-adv-x="491" d="M526 717q12 55 56 90q46 37 102 37q57 0 84 -37q28 -36 16 -90q-9 -55 -55 -92t-100 -37q-59 0 -86 37q-26 36 -17 92z" />
<glyph horiz-adv-x="464" d="M264 96q9 48 47 78q41 35 95 35q51 0 75 -35q24 -30 15 -78q-9 -45 -47 -80q-40 -34 -93 -34t-77 34t-15 80zM391 307q24 135 29 217q9 71 6 152q-3 163 10 229q37 174 154 174q115 0 78 -174q-12 -60 -88 -229q-38 -88 -60 -152q-34 -102 -61 -217h-68z" />
<glyph horiz-adv-x="788" d="M465 96q9 48 47 78q41 35 94 35q52 0 76 -35q23 -29 14 -78q-9 -45 -47 -80q-40 -34 -92 -34q-54 0 -78 34q-23 33 -14 80zM489 930q15 74 97 114q75 35 182 35q193 0 287 -110q81 -97 53 -238q-30 -144 -145 -221q-109 -71 -271 -74l-28 -129h-76l59 291q285 0 326 197 q18 79 -25 137q-49 61 -143 61q-69 0 -129 -75q-66 -78 -123 -78q-35 0 -53 24q-20 26 -11 66z" />
<glyph horiz-adv-x="497" d="M319 657l27 121h457l-27 -121h-457z" />
<glyph horiz-adv-x="632" d="M367 717q64 307 276 577q191 247 442 396l35 -54q-193 -126 -358 -383q-167 -258 -225 -536q-58 -274 -2 -537q52 -253 194 -383l-57 -53q-191 153 -275 395q-95 270 -30 578z" />
<glyph horiz-adv-x="518" d="M303 500l12 55q140 0 170 145l52 248q30 142 127 221q95 74 225 74l-10 -49q-138 0 -172 -162l-52 -246q-46 -217 -241 -258q177 -44 131 -260l-53 -248q-35 -157 104 -157l-12 -51q-132 0 -193 73q-63 75 -33 221l54 250q30 144 -109 144z" />
<glyph horiz-adv-x="518" d="M8 -188l12 51q135 0 170 157l54 248q46 217 239 260q-175 40 -129 258l52 246q34 162 -103 162l10 49q131 0 193 -74q63 -75 33 -221l-52 -248q-30 -145 109 -145l-12 -55q-140 0 -170 -144l-54 -250q-30 -142 -127 -221q-94 -73 -225 -73z" />
<glyph horiz-adv-x="888" d="M168 299l14 72h189l161 315h-190l16 72h213l152 299h80l-154 -299h217l154 299h76l-152 -299h170l-16 -72h-191l-162 -315h193l-14 -72h-213l-152 -299h-78l152 299h-217l-152 -299h-80l152 299h-168zM451 371h217l161 315h-217z" />
<glyph d="M291 328q18 84 78 141q59 53 129 53q54 0 80 -33q27 -34 18 -83q-12 -56 -57 -89q-41 -27 -93 -30q-31 0 -38 -23q-15 -80 84 -143q94 -63 219 -66l127 600l-70 29q-37 14 -68 31q-76 42 -116 82q-110 110 -70 295q27 132 145 235q138 123 353 135l20 94h86l-20 -94 q172 -9 258 -104q79 -84 57 -195q-17 -85 -78 -143q-59 -53 -127 -53q-55 0 -82 34q-23 33 -14 78q8 49 53 84q42 28 90 31q34 3 37 23q15 63 -51 110q-64 43 -162 49l-118 -553l71 -28q33 -11 72 -33q84 -41 125 -82q116 -114 76 -307q-34 -162 -170 -271 q-144 -114 -357 -129l-43 -200h-86l43 196q-222 3 -332 119q-97 99 -69 240zM705 1126q-38 -173 178 -268l110 516q-241 -27 -288 -248zM797 59q131 18 223 103q73 70 94 162q21 115 -39 190q-46 58 -157 109z" />
</font>
</defs>
</svg>
