<?xml version="1.0" standalone="no"?>
<!DOCTYPE svg PUBLIC "-//W3C//DTD SVG 1.1//EN" "http://www.w3.org/Graphics/SVG/1.1/DTD/svg11.dtd" >
<svg xmlns="http://www.w3.org/2000/svg" xmlns:xlink="http://www.w3.org/1999/xlink" version="1.1">
<metadata></metadata>
<defs>
<font id="webfontregular" horiz-adv-x="336" >
<font-face units-per-em="1000" ascent="800" descent="-200" />
<missing-glyph horiz-adv-x="233" />
<glyph horiz-adv-x="0" />
<glyph horiz-adv-x="333" />
<glyph unicode=" "  horiz-adv-x="233" />
<glyph unicode="&#x09;" horiz-adv-x="233" />
<glyph unicode="&#xa0;" horiz-adv-x="233" />
<glyph unicode="&#x22;" horiz-adv-x="412" d="M75 568q0 20 14 34.5t33 14.5t33.5 -14.5t14.5 -34.5q0 -6 -17 -57q-18 -55 -23 -118h-17q-5 63 -22 118q-16 51 -16 57zM242 568q0 20 13.5 34.5t32.5 14.5q20 0 34.5 -14.5t14.5 -34.5q0 -6 -17 -57q-18 -55 -23 -118h-17q-5 63 -22 118q-16 51 -16 57z" />
<glyph unicode="#" horiz-adv-x="435" d="M28 262l10 52h77l19 111h-77l9 53h77l21 122h40l-21 -122h106l21 122h40l-21 -122h79l-10 -53h-78l-19 -111h78l-9 -52h-78l-20 -123h-40l21 123h-107l-20 -123h-40l21 123h-79zM155 314h106l19 111h-106z" />
<glyph unicode="$" horiz-adv-x="498" d="M56 116q0 25 25 25q10 0 27 -19q25 -28 39 -38q30 -22 69 -28v227l-48 25q-100 52 -100 140q0 55 42.5 94.5t105.5 40.5v100h36v-101q59 -6 97 -33q33 -24 33 -48q0 -25 -25 -25q-10 0 -39 30t-66 36v-197l71 -36q93 -47 93 -130q0 -70 -47.5 -115.5t-116.5 -47.5v-99 h-36v101q-69 6 -117 39q-43 30 -43 59zM130 467q0 -55 86 -103v179q-35 -3 -60.5 -24.5t-25.5 -51.5zM252 54q45 2 73.5 30t28.5 73q0 57 -102 107v-210z" />
<glyph unicode="%" horiz-adv-x="763" d="M58 473q0 59 44 101.5t106 42.5q61 0 105 -42.5t44 -101.5q0 -58 -44 -100.5t-105 -42.5t-105.5 42t-44.5 101zM125 473q0 -48 20 -77q22 -33 63 -33q40 0 62 33q20 29 20 77t-21 79t-61 31q-41 0 -62 -30.5t-21 -79.5zM172 0l383 618l36 -18l-383 -618zM406 128 q0 59 44 101t105 42t105 -42t44 -101t-44 -101.5t-105 -42.5t-105 42.5t-44 101.5zM473 128q0 -110 82 -110q41 0 63 32q20 29 20 78q0 48 -21 79t-62 31t-61.5 -31t-20.5 -79z" />
<glyph unicode="&#x26;" horiz-adv-x="657" d="M63 158q0 93 114 165q-55 86 -55 150q0 61 49 102.5t118 41.5q59 0 101 -32.5t42 -82.5q0 -56 -59 -100q-61 -38 -121 -76q44 -66 163 -196q16 44 16 92q0 34 -18.5 46t-71.5 12v21h226v-21q-60 0 -80 -19q-16 -16 -24 -71t-23 -87q69 -80 121 -80q30 0 65 35l17 -17 q-43 -58 -101 -58q-64 0 -133 67q-54 -67 -149 -67q-79 0 -134 43q-63 48 -63 132zM135 150q0 -51 37 -88q39 -40 96 -40q72 0 117 53q-130 138 -183 212q-67 -58 -67 -137zM194 489q0 -62 39 -132q69 39 94 62q41 38 41 83q0 33 -22.5 54.5t-56.5 21.5q-44 0 -71 -30 q-24 -26 -24 -59z" />
<glyph unicode="'" horiz-adv-x="245" d="M75 568q0 20 14 34.5t33 14.5t33.5 -14.5t14.5 -34.5q0 -6 -17 -57q-18 -55 -23 -118h-17q-5 63 -22 118q-16 51 -16 57z" />
<glyph unicode="(" horiz-adv-x="358" d="M83 295q0 221 224 406l23 -21q-73 -80 -109 -144q-68 -118 -68 -241t68 -240q36 -65 109 -145l-22 -21q-225 184 -225 406z" />
<glyph unicode=")" horiz-adv-x="358" d="M28 -90q73 81 110 145q68 117 68 240t-68 241q-37 63 -110 144l24 21q223 -184 223 -406q0 -223 -224 -406z" />
<glyph unicode="*" horiz-adv-x="407" d="M36 359q0 28 24 42q6 4 45.5 6.5t79.5 22.5q-40 20 -79 22.5t-46 6.5q-24 14 -24 42q0 19 14.5 33t33.5 14q13 0 24 -7q5 -3 26.5 -37t59.5 -58q-2 45 -19.5 80t-17.5 42q0 20 13.5 34.5t32.5 14.5q20 0 34.5 -14.5t14.5 -34.5q0 -7 -18 -42.5t-21 -80.5q38 25 59.5 57.5 t27.5 36.5q12 7 25 7q19 0 32.5 -13.5t13.5 -32.5q0 -28 -23 -42q-7 -4 -45 -6q-41 -2 -81 -22q40 -20 81 -21q38 -2 45 -6q23 -14 23 -42q0 -20 -13.5 -33.5t-32.5 -13.5q-13 0 -25 7q-6 4 -28 36.5t-60 57.5q3 -45 21.5 -80.5t18.5 -42.5q0 -19 -14.5 -34t-34.5 -15 q-19 0 -32.5 14.5t-13.5 34.5q0 7 17.5 42t19.5 80q-38 -24 -59.5 -58t-26.5 -37q-11 -7 -24 -7q-19 0 -33.5 14t-14.5 33z" />
<glyph unicode="+" horiz-adv-x="458" d="M50 199v44h157v157h44v-157h157v-44h-157v-157h-44v157h-157z" />
<glyph unicode="," horiz-adv-x="313" d="M97 -108q49 51 57 106q-2 -1 -8 -1q-19 0 -33 14.5t-14 34.5t14 34t33 14q22 0 38 -16t16 -47q0 -37 -23 -77q-26 -47 -69 -74z" />
<glyph unicode="-" horiz-adv-x="458" d="M83 199v44h292v-44h-292z" />
<glyph unicode="." horiz-adv-x="313" d="M99 44q0 22 16 37.5t39 15.5t40 -15.5t17 -37.5q0 -21 -17 -36.5t-40 -15.5t-39 15.5t-16 36.5z" />
<glyph unicode="/" horiz-adv-x="181" d="M-119 0l383 618l36 -18l-383 -618z" />
<glyph unicode="0" horiz-adv-x="467" d="M63 217q0 96 50 164.5t120 68.5q71 0 121 -68.5t50 -164.5q0 -97 -50 -165.5t-121 -68.5q-70 0 -120 68.5t-50 165.5zM135 217q0 -86 24 -139q26 -57 74 -57q49 0 75 57q24 52 24 139t-24 139q-26 57 -75 57q-48 0 -74 -57q-24 -53 -24 -139z" />
<glyph unicode="1" horiz-adv-x="467" d="M102 399v21l166 33v-315q0 -75 14.5 -96t65.5 -21v-21h-230v21q51 0 65.5 21t14.5 96v153q0 72 -19.5 91t-76.5 17z" />
<glyph unicode="2" horiz-adv-x="467" d="M59 322q0 51 43.5 89.5t114.5 38.5q68 0 115 -36q51 -38 51 -98q0 -74 -80 -140l-135 -118h228l-11 -58h-315v24l183 164q61 55 61 113q0 107 -104 107q-33 0 -60.5 -25.5t-27.5 -62.5q0 -31 21 -62l-30 -31q-54 37 -54 95z" />
<glyph unicode="3" horiz-adv-x="467" d="M72 299l23 134h293v-27l-115 -133q54 -15 89 -55.5t35 -87.5q0 -60 -49.5 -103.5t-122.5 -43.5q-65 0 -111 33q-40 28 -40 56q0 23 27 23q13 0 27 -18q19 -25 30 -34q26 -18 67 -18q50 0 77 31q24 28 24 74q0 39 -23.5 69.5t-62.5 35.5q-8 -10 -23 -34q-12 -20 -28 -20 q-21 0 -21 19q0 13 9 23l135 152h-121q-78 0 -92 -56l-5 -20h-22z" />
<glyph unicode="4" horiz-adv-x="467" d="M34 128v20l238 315h26v-298q36 0 52 14q20 16 31 62l5 20h21l-9 -133h-100q0 -67 15 -87t65 -20v-21h-230v21q50 0 65 20t15 87h-194zM90 165h138v183z" />
<glyph unicode="5" horiz-adv-x="467" d="M71 71q0 24 28 24q13 0 25 -18q16 -25 26 -34q24 -18 65 -18q51 0 81 34q28 31 28 79q0 50 -24 81q-27 34 -77 34q-33 0 -59 -18q-29 -21 -37 -55h-39l25 253h260l-10 -58h-215l-12 -115q37 34 96 34q70 0 116.5 -45.5t46.5 -110.5q0 -64 -53 -109.5t-127 -45.5 q-64 0 -107 32q-37 27 -37 56z" />
<glyph unicode="6" horiz-adv-x="467" d="M75 191q0 101 47 176q51 83 132 83q46 0 81 -22q32 -20 32 -42q0 -23 -22 -23q-8 0 -33.5 25t-56.5 25q-50 0 -79 -58q-24 -48 -29 -124q29 33 89 33q63 0 110.5 -41t47.5 -99t-44.5 -99.5t-106.5 -41.5q-61 0 -106 40q-62 54 -62 168zM144 178q2 -75 32 -118 q27 -40 67 -40q39 0 62 34q19 30 19 70q0 39 -24 70t-64 31q-32 0 -58.5 -13.5t-33.5 -33.5z" />
<glyph unicode="7" horiz-adv-x="467" d="M58 299l24 134h330v-27l-193 -383q-23 -46 -44 -46q-6 0 -12 2q-22 6 -22 31q0 15 12 34l210 331h-185q-78 0 -92 -56l-5 -20h-23z" />
<glyph unicode="8" horiz-adv-x="467" d="M68 108q0 81 110 126q-87 54 -87 105q0 47 42.5 79t99.5 32t100 -30t43 -72q0 -57 -98 -101q57 -28 82 -50q38 -34 38 -81q0 -56 -48.5 -94.5t-116.5 -38.5q-66 0 -115.5 38t-49.5 87zM136 108q0 -38 26 -62.5t71 -24.5t72 24t27 59q0 36 -40 66q-19 14 -81 46 q-75 -42 -75 -108zM158 351q0 -43 87 -88q64 33 64 88q0 26 -21.5 44t-54.5 18q-32 0 -53.5 -18t-21.5 -44z" />
<glyph unicode="9" horiz-adv-x="467" d="M73 309q0 58 45 99.5t107 41.5q61 0 106 -39q62 -55 62 -168q0 -101 -47 -177q-51 -83 -133 -83q-46 0 -81 22q-31 21 -31 43q0 23 22 23q7 0 32.5 -25t57.5 -25q49 0 78 57q24 48 30 125q-30 -34 -89 -34q-63 0 -111 41.5t-48 98.5zM143 309q0 -39 23 -68q25 -33 66 -33 q31 0 58 13.5t33 33.5q-1 75 -31 119q-27 39 -67 39t-62 -34q-20 -29 -20 -70z" />
<glyph unicode=":" horiz-adv-x="335" d="M120 40q0 20 14 34t33 14q20 0 34 -14t14 -34q0 -19 -14 -33.5t-34 -14.5q-19 0 -33 14t-14 34zM120 230q0 20 14 34t33 14q20 0 34 -14t14 -34q0 -19 -14 -33.5t-34 -14.5q-19 0 -33 14t-14 34z" />
<glyph unicode=";" horiz-adv-x="335" d="M118 -114q49 51 57 106h-8q-19 0 -33 14t-14 34t14 34t33 14q22 0 38 -16t16 -47q0 -37 -23 -77q-26 -47 -69 -74zM120 230q0 20 14 34t33 14q20 0 34 -14t14 -34q0 -19 -14 -33.5t-34 -14.5q-19 0 -33 14t-14 34z" />
<glyph unicode="&#x3c;" horiz-adv-x="500" d="M83 268l330 217l15 -17l-233 -200l233 -200l-15 -18z" />
<glyph unicode="=" horiz-adv-x="458" d="M83 133v45h292v-45h-292zM83 258v45h292v-45h-292z" />
<glyph unicode="&#x3e;" horiz-adv-x="500" d="M73 68l232 200l-232 200l15 17l329 -217l-329 -218z" />
<glyph unicode="?" horiz-adv-x="504" d="M73 501q0 47 48 81.5t120 34.5q86 0 147 -45q66 -48 66 -124q0 -110 -103 -163q-44 -22 -104 -31v-94h-44v164q74 0 124 30q61 36 61 105q0 58 -45.5 92t-109.5 34q-53 0 -87 -22q-30 -20 -30 -45q0 -26 43 -26q16 0 28 -11.5t12 -27.5q0 -22 -16.5 -33.5t-34.5 -11.5 q-28 0 -50 25q-25 27 -25 68zM178 40q0 20 14 34t33 14q20 0 34 -14t14 -34q0 -19 -14 -33.5t-34 -14.5q-19 0 -33 14t-14 34z" />
<glyph unicode="@" horiz-adv-x="708" d="M39 275q0 145 103.5 248t248.5 103q120 0 199.5 -73t79.5 -190q0 -95 -60 -170.5t-126 -75.5q-56 0 -66 51q-16 -22 -46 -38.5t-53 -16.5q-51 0 -79.5 38t-28.5 99q0 23 4 47q13 76 67.5 129.5t117.5 53.5q34 0 64 -17h56l-44 -250q-2 -13 -2 -24q0 -36 34 -36 q41 0 84 62q46 67 46 146q0 105 -70 167q-65 59 -162 59q-125 0 -213 -92.5t-88 -216.5q0 -125 74 -200t191 -75q109 0 212 65l11 -19q-112 -80 -231 -80q-135 0 -229 88t-94 218zM274 245q0 -92 63 -92q29 0 55.5 27t33.5 66l31 177q-23 25 -62 25q-42 0 -73.5 -44 t-42.5 -107q-5 -28 -5 -52z" />
<glyph unicode="A" horiz-adv-x="617" d="M-38 0v21q59 0 80 17q15 13 40 70l220 509h13l221 -509q25 -57 40 -70q20 -17 79 -17v-21h-277v21q88 0 88 40q0 14 -10 36l-48 111h-242l-48 -111q-9 -22 -9 -36q0 -40 87 -40v-21h-234zM182 245h209l-105 241z" />
<glyph unicode="B" horiz-adv-x="598" d="M38 0v21q62 0 78.5 21t16.5 96v325q0 75 -16.5 95.5t-78.5 20.5v21h269q92 0 144 -44q49 -41 49 -106q0 -78 -78 -124q58 -18 93 -61t35 -97q0 -73 -55 -119q-59 -49 -160 -49h-297zM213 153q0 -75 16.5 -95.5t78.5 -20.5h26q62 0 97 39q31 35 31 92q0 58 -31 94 q-35 39 -97 39h-121v-148zM213 338h89q54 0 83 33q27 30 27 79t-28 81t-82 32h-89v-225z" />
<glyph unicode="C" horiz-adv-x="692" d="M71 300q0 131 90 224t217 93q106 0 186 -85q27 21 34 57h20v-220h-20q-21 99 -77.5 154t-138.5 55q-110 0 -169 -92q-49 -77 -49 -186t49 -185q59 -92 169 -92q82 0 138.5 55.5t77.5 152.5h20v-220h-20q-8 39 -34 57q-82 -85 -186 -85q-127 0 -217 93t-90 224z" />
<glyph unicode="D" horiz-adv-x="713" d="M38 0v21q62 0 78.5 21t16.5 96v325q0 75 -16.5 95.5t-78.5 20.5v21h271q166 0 254 -88q80 -80 80 -212t-80 -212q-88 -88 -254 -88h-271zM213 153q0 -76 16 -96t77 -20h4q132 0 192 88q45 66 45 175t-45 175q-60 88 -192 88h-97v-410z" />
<glyph unicode="E" horiz-adv-x="583" d="M38 0v21q62 0 78.5 21t16.5 96v325q0 75 -16.5 95.5t-78.5 20.5v21h456l9 -132h-21l-5 20q-11 43 -28 57q-24 18 -88 18h-148v-227h50q75 0 95.5 16.5t20.5 79.5h21v-229h-21q0 63 -20.5 79.5t-95.5 16.5h-50v-146q0 -75 16.5 -95.5t78.5 -20.5h86q64 0 88 18 q17 14 28 58l5 20h21l-8 -133h-490z" />
<glyph unicode="F" horiz-adv-x="536" d="M38 0v21q62 0 78.5 21t16.5 96v325q0 75 -16.5 95.5t-78.5 20.5v21h473l8 -132h-21l-5 20q-11 43 -28 57q-23 18 -87 18h-165v-227h50q75 0 95.5 16.5t20.5 79.5h21v-229h-21q0 63 -20.5 79.5t-95.5 16.5h-50v-161q0 -75 16.5 -96t78.5 -21v-21h-270z" />
<glyph unicode="G" horiz-adv-x="725" d="M71 300q0 131 90 224t217 93q106 0 186 -85q27 21 34 57h20v-220h-20q-20 98 -77 153.5t-140 55.5q-110 0 -169 -92q-49 -77 -49 -186q0 -111 49 -183q62 -91 188 -91q69 0 115 35q50 38 50 102q0 65 -94 65v20h262v-20q-62 0 -78.5 -21t-16.5 -96v-76q-56 0 -132.5 -26 t-127.5 -26q-127 0 -217 93t-90 224z" />
<glyph unicode="H" horiz-adv-x="765" d="M38 0v21q62 0 78.5 21t16.5 96v325q0 75 -16.5 95.5t-78.5 20.5v21h270v-21q-62 0 -78.5 -20.5t-16.5 -95.5v-126h340v126q0 75 -17 95.5t-79 20.5v21h271v-21q-63 0 -79.5 -20.5t-16.5 -95.5v-325q0 -76 16.5 -96.5t79.5 -20.5v-21h-271v21q62 0 79 21t17 96v162h-340 v-162q0 -75 16.5 -96t78.5 -21v-21h-270z" />
<glyph unicode="I" horiz-adv-x="346" d="M38 0v21q62 0 78.5 21t16.5 96v325q0 75 -16.5 95.5t-78.5 20.5v21h270v-21q-62 0 -78.5 -20.5t-16.5 -95.5v-325q0 -75 16.5 -96t78.5 -21v-21h-270z" />
<glyph unicode="J" horiz-adv-x="346" d="M-109 -128q0 34 35 34q34 0 34 -34q0 -25 19 -44q23 -21 59 -21q95 0 95 138v518q0 75 -16.5 95.5t-78.5 20.5v21h270v-21q-62 0 -78.5 -20.5t-16.5 -95.5v-507q0 -97 -58 -143q-46 -36 -117 -36q-51 0 -96 24q-51 28 -51 71z" />
<glyph unicode="K" horiz-adv-x="730" d="M38 0v21q62 0 78.5 21t16.5 96v325q0 75 -16.5 95.5t-78.5 20.5v21h270v-21q-62 0 -78.5 -20.5t-16.5 -95.5v-140l205 175q49 42 49 62q0 19 -45 19v21h232v-21q-55 0 -94 -18q-34 -16 -89 -63l-175 -150l310 -269q26 -23 68 -41q39 -17 61 -17v-21h-281v21q61 0 61 24 q0 14 -23 34l-253 219l-26 -21v-139q0 -75 16.5 -96t78.5 -21v-21h-270z" />
<glyph unicode="L" horiz-adv-x="575" d="M38 0v21q62 0 78.5 21t16.5 96v325q0 75 -16.5 95.5t-78.5 20.5v21h270v-21q-62 0 -78.5 -20.5t-16.5 -95.5v-310q0 -75 16.5 -95.5t78.5 -20.5h120q64 0 87 18q17 14 28 58l5 20h21l-8 -133h-523z" />
<glyph unicode="M" horiz-adv-x="825" d="M38 0v21q62 0 78.5 21t16.5 96v325q0 75 -16.5 95.5t-78.5 20.5v21h170l212 -487l211 487h157v-21q-63 0 -79.5 -20.5t-16.5 -95.5v-325q0 -76 16.5 -96.5t79.5 -20.5v-21h-270v21q62 0 78.5 21t16.5 96v326l-208 -481h-13l-222 511v-356q0 -75 17 -96t79 -21v-21h-228z " />
<glyph unicode="N" horiz-adv-x="725" d="M38 0v21q62 0 78.5 21t16.5 96v325q0 75 -16.5 95.5t-78.5 20.5v21h141l384 -476v339q0 75 -16.5 95.5t-78.5 20.5v21h228v-21q-62 0 -79 -20.5t-17 -95.5v-480h-23l-407 503v-348q0 -75 17 -96t79 -21v-21h-228z" />
<glyph unicode="O" horiz-adv-x="808" d="M71 300q0 131 98 224t235 93q138 0 236 -93t98 -224t-98 -224t-236 -93q-137 0 -235 93t-98 224zM166 300q0 -108 55 -185q65 -92 183 -92q119 0 184 92q55 77 55 185t-55 186q-65 92 -184 92q-118 0 -183 -92q-55 -78 -55 -186z" />
<glyph unicode="P" horiz-adv-x="540" d="M38 0v21q62 0 78.5 21t16.5 96v325q0 75 -16.5 95.5t-78.5 20.5v21h264q101 0 160 -50q55 -46 55 -119t-55 -119q-59 -49 -160 -49h-89v-125q0 -75 16.5 -96t78.5 -21v-21h-270zM213 299h88q62 0 96 39q31 35 31 93t-31 93q-34 39 -96 39h-88v-264z" />
<glyph unicode="Q" horiz-adv-x="808" d="M71 300q0 131 98 224t235 93q138 0 236 -93t98 -224q0 -124 -87 -212.5t-213 -102.5q-81 -9 -133 -57q34 7 65 7q76 0 171.5 -55.5t151.5 -55.5q125 0 173 97l16 -8q-22 -65 -69 -109q-59 -57 -139 -57q-53 0 -119 41q-54 37 -107 75q-60 41 -100 41q-42 0 -66 -16 q-12 -9 -29 -31q-12 -18 -25 -20q-14 -2 -24 7t-10 25q0 24 44 60q48 39 112 58q-122 21 -200.5 109t-78.5 204zM163 300q0 -107 56 -185q66 -92 185 -92t186 92q56 78 56 185q0 108 -56 186q-67 92 -186 92t-185 -92q-56 -79 -56 -186z" />
<glyph unicode="R" horiz-adv-x="620" d="M38 0v21q62 0 78.5 21t16.5 96v325q0 75 -16.5 95.5t-78.5 20.5v21h264q101 0 160 -50q55 -46 55 -119q0 -67 -47.5 -113t-130.5 -55l98 -115q100 -117 186 -127v-21h-165l-198 263h-47v-125q0 -75 16.5 -96t78.5 -21v-21h-270zM213 299h88q62 0 96 39q31 35 31 93 t-31 93q-34 39 -96 39h-88v-264z" />
<glyph unicode="S" horiz-adv-x="498" d="M58 -17v220h20q4 -52 24 -90q47 -90 161 -90q54 0 89.5 31t35.5 79q0 62 -115 121l-96 49q-47 24 -77 65q-34 46 -34 100q0 63 47 106t119 43q66 0 122 -41q23 19 29 46h20v-220h-21q-15 175 -153 175q-42 0 -69.5 -25.5t-27.5 -63.5q0 -37 28 -65q25 -24 93 -59l96 -49 q104 -53 104 -152q0 -80 -55.5 -130t-134.5 -50q-46 0 -94 21l-62 26q-23 -19 -29 -47h-20z" />
<glyph unicode="T" horiz-adv-x="641" d="M8 465l9 135h607l9 -135h-21l-5 20q-11 44 -28 58q-24 18 -88 18h-131v-423q0 -75 17 -96t79 -21v-21h-271v21q62 0 79 21t17 96v423h-131q-64 0 -88 -18q-17 -14 -28 -58l-5 -20h-21z" />
<glyph unicode="U" horiz-adv-x="716" d="M23 579v21h270v-21q-62 0 -78.5 -20.5t-16.5 -95.5v-245q0 -94 50 -144q46 -46 125 -46q83 0 131 46q53 50 53 144v245q0 75 -17 95.5t-79 20.5v21h234v-21q-62 0 -79 -20.5t-17 -95.5v-240q0 -114 -71 -179q-66 -61 -170 -61t-169 61q-71 66 -71 179v240 q0 75 -16.5 95.5t-78.5 20.5z" />
<glyph unicode="V" horiz-adv-x="617" d="M-38 579v21h277v-21q-88 0 -88 -40q0 -14 10 -36l170 -389l168 389q9 22 9 36q0 40 -87 40v21h233v-21q-59 0 -79 -17q-15 -12 -40 -70l-220 -509h-13l-221 509q-25 58 -40 70q-20 17 -79 17z" />
<glyph unicode="W" horiz-adv-x="793" d="M-43 579v21h281v-21q-86 0 -86 -41q0 -13 7 -35l109 -345l140 442h15l140 -441l109 344q6 20 6 34q0 42 -76 42v21h225v-21q-60 0 -83 -18q-19 -16 -36 -69l-162 -509h-13l-140 443l-141 -443h-14l-161 509q-18 57 -38 72t-82 15z" />
<glyph unicode="X" horiz-adv-x="614" d="M-21 0v21q77 0 144 87l147 190l-131 194q-59 87 -144 87v21h284v-21q-71 0 -71 -32q0 -17 18 -44l95 -140l109 140q21 27 21 44q0 32 -74 32v21h237v-21q-56 0 -88 -24q-17 -12 -56 -63l-127 -164l150 -220q31 -45 60 -64q34 -23 84 -23v-21h-285v21q72 0 72 31 q0 16 -19 45l-112 166l-130 -166q-18 -23 -18 -41q0 -35 72 -35v-21h-238z" />
<glyph unicode="Y" horiz-adv-x="625" d="M-38 579v21h285v-21q-72 0 -72 -32q0 -16 18 -44l144 -220l146 220q21 31 21 47q0 29 -75 29v21h234v-21q-58 0 -89 -21q-23 -16 -56 -66l-165 -250v-104q0 -75 16.5 -96t78.5 -21v-21h-270v21q62 0 78.5 21t16.5 96v97l-166 257q-33 50 -62.5 68.5t-82.5 18.5z" />
<glyph unicode="Z" horiz-adv-x="575" d="M43 0v23l337 540h-184q-64 0 -88 -18q-17 -14 -28 -57l-5 -20h-21l9 132h426v-12l-345 -551h225q64 0 88 18q17 14 28 58l5 20h21l-8 -133h-460z" />
<glyph unicode="[" horiz-adv-x="358" d="M117 -88v766h202v-32h-137v-702h137v-32h-202z" />
<glyph unicode="\" horiz-adv-x="348" d="M-37 600l36 18l384 -618l-36 -18z" />
<glyph unicode="]" horiz-adv-x="358" d="M39 -56h138v702h-138v32h203v-766h-203v32z" />
<glyph unicode="^" horiz-adv-x="485" d="M42 338l201 279l200 -279l-18 -15l-182 182l-184 -182z" />
<glyph unicode="_" horiz-adv-x="358" d="M-1 0h360v-44h-360v44z" />
<glyph unicode="`" horiz-adv-x="404" d="M20 571q0 29 28 29q21 0 45 -23l93 -88l-5 -6l-138 58q-23 10 -23 30z" />
<glyph unicode="a" horiz-adv-x="514" d="M3 0v21q45 0 61.5 14.5t41.5 72.5l147 342h14l147 -342q24 -56 41 -71.5t57 -15.5v-21h-224v21q67 0 67 30q0 15 -13 46l-20 46h-164l-20 -46q-15 -35 -15 -49q0 -27 69 -27v-21h-189zM174 180h132l-66 153z" />
<glyph unicode="b" horiz-adv-x="490" d="M46 0v20q50 0 64.5 21t14.5 96v160q0 75 -14.5 95.5t-64.5 20.5v20h211q68 0 106 -31t38 -79q0 -51 -43 -86q78 -34 78 -114q0 -54 -42 -88.5t-117 -34.5h-231zM196 113q0 -45 7 -57q11 -19 54 -19h19q41 0 62 24t21 61q0 38 -21 62t-62 24h-80v-95zM196 248h57 q34 0 52 21t18 52q0 32 -18 54t-52 22h-57v-149z" />
<glyph unicode="c" horiz-adv-x="517" d="M57 217q0 96 66.5 164.5t159.5 68.5q36 0 72.5 -18.5t59.5 -47.5q8 9 18 49h19v-173h-20q-14 71 -53 111.5t-96 40.5q-76 0 -114 -66q-31 -52 -31 -129t31 -129q38 -66 114 -66q57 0 96 40.5t53 111.5h20v-174h-19q-9 40 -18 49q-23 -28 -60 -47t-72 -19q-94 0 -160 68.5 t-66 165.5z" />
<glyph unicode="d" horiz-adv-x="558" d="M46 0v20q50 0 64.5 21t14.5 96v160q0 75 -14.5 95.5t-64.5 20.5v20h212q121 0 186 -64q58 -57 58 -152t-58 -153q-65 -64 -186 -64h-212zM196 113q0 -45 6 -56q10 -20 51 -20h8q158 0 158 180t-158 180h-65v-284z" />
<glyph unicode="e" horiz-adv-x="475" d="M46 0v20q50 0 64.5 21t14.5 96v160q0 75 -14.5 95.5t-64.5 20.5v20h350l8 -120h-21l-5 20q-9 37 -28 49q-23 15 -87 15h-67v-149h6q73 0 92 14q16 13 16 65h20v-195h-20q0 51 -16 64q-19 15 -92 15h-6v-58q0 -75 14.5 -95.5t64.5 -20.5h12q65 0 88 14q19 12 28 50l5 20 h20l-8 -121h-374z" />
<glyph unicode="f" horiz-adv-x="435" d="M46 0v20q50 0 64.5 21t14.5 96v160q0 75 -14.5 95.5t-64.5 20.5v20h362l8 -120h-21l-5 20q-9 38 -28 49q-23 15 -88 15h-78v-149h6q73 0 92 14q16 13 16 65h20v-195h-20q0 51 -16 64q-19 15 -92 15h-6v-74q0 -75 14.5 -96t64.5 -21v-20h-229z" />
<glyph unicode="g" horiz-adv-x="558" d="M57 217q0 96 66.5 164.5t159.5 68.5q36 0 72.5 -18.5t59.5 -47.5q8 9 18 49h19v-173h-20q-14 71 -53 111.5t-96 40.5q-76 0 -115 -66q-32 -53 -32 -129q0 -77 32 -129q39 -66 115 -66q43 0 82 22q45 26 45 63q0 61 -86 61v20h221v-20q-50 0 -64.5 -21t-14.5 -96v-30 q-32 0 -93.5 -19t-89.5 -19q-94 0 -160 68.5t-66 165.5z" />
<glyph unicode="h" horiz-adv-x="620" d="M46 0v20q50 0 64.5 21t14.5 96v160q0 75 -14.5 95.5t-64.5 20.5v20h229v-20q-50 0 -64.5 -20.5t-14.5 -95.5v-49h227v49q0 75 -14.5 95.5t-64.5 20.5v20h229v-20q-50 0 -64.5 -21t-14.5 -95v-160q0 -75 14.5 -96t64.5 -21v-20h-229v20q50 0 64.5 21t14.5 96v74h-227v-74 q0 -75 14.5 -96t64.5 -21v-20h-229z" />
<glyph unicode="i" horiz-adv-x="322" d="M46 0v20q50 0 64.5 21t14.5 96v160q0 75 -14.5 95.5t-64.5 20.5v20h229v-20q-50 0 -64.5 -20.5t-14.5 -95.5v-160q0 -75 14.5 -96t64.5 -21v-20h-229z" />
<glyph unicode="j" horiz-adv-x="322" d="M-68 -80q0 26 27 28h4q20 0 29 -18q9 -20 18 -39q14 -21 44 -21q71 0 71 156v271q0 75 -14.5 95.5t-64.5 20.5v20h229v-20q-50 0 -64.5 -20.5t-14.5 -95.5v-271q0 -94 -45 -144q-40 -45 -102 -45q-53 0 -87 29q-30 25 -30 54z" />
<glyph unicode="k" horiz-adv-x="571" d="M46 0v20q50 0 64.5 21t14.5 96v160q0 75 -14.5 95.5t-64.5 20.5v20h229v-20q-50 0 -64.5 -20.5t-14.5 -95.5v-64l122 104q54 46 54 62q0 14 -42 14v20h188v-20q-37 0 -69 -17t-94 -71l-86 -74l163 -143q61 -53 89 -70t55 -17v-21h-235v21h5q40 0 40 17q0 18 -43 59 l-121 113l-26 -22v-51q0 -75 14.5 -96t64.5 -21v-20h-229z" />
<glyph unicode="l" horiz-adv-x="443" d="M46 0v20q50 0 64.5 21t14.5 96v160q0 75 -14.5 95.5t-64.5 20.5v20h229v-20q-50 0 -64.5 -20.5t-14.5 -95.5v-144q0 -75 14.5 -95.5t64.5 -20.5h35q65 0 88 14q18 12 28 50l5 20h21l-7 -121h-399z" />
<glyph unicode="m" horiz-adv-x="678" d="M46 0v20q50 0 64.5 21t14.5 96v160q0 75 -14.5 95.5t-64.5 20.5v20h150l149 -334l148 334h140v-20q-51 0 -65.5 -21t-14.5 -95v-160q0 -75 14.5 -96t65.5 -21v-20h-229v20q50 0 64.5 21t14.5 96v187l-151 -341h-14l-156 354v-200q0 -75 14.5 -96t64.5 -21v-20h-195z" />
<glyph unicode="n" horiz-adv-x="597" d="M46 0v20q50 0 64.5 21t14.5 96v160q0 75 -14.5 95.5t-64.5 20.5v20h123l266 -316v180q0 75 -14.5 95.5t-64.5 20.5v20h195v-20q-50 0 -64.5 -20.5t-14.5 -95.5v-313h-19l-291 349v-196q0 -75 14.5 -96t64.5 -21v-20h-195z" />
<glyph unicode="o" horiz-adv-x="602" d="M57 217q0 95 72 164t172 69t172 -69t72 -164q0 -97 -71.5 -165.5t-172.5 -68.5t-172.5 68.5t-71.5 165.5zM139 217q0 -76 37 -130q44 -65 125 -65t125 65q37 54 37 130t-37 130q-44 65 -125 65t-125 -65q-37 -54 -37 -130z" />
<glyph unicode="p" horiz-adv-x="433" d="M46 0v20q50 0 64.5 21t14.5 96v160q0 75 -14.5 95.5t-64.5 20.5v20h207q75 0 119 -35q41 -34 41 -89q0 -54 -41 -87q-44 -36 -119 -36h-57v-49q0 -75 14.5 -96t64.5 -21v-20h-229zM196 223h57q40 0 61 24.5t21 61.5q0 38 -21 63t-61 25h-57v-174z" />
<glyph unicode="q" horiz-adv-x="602" d="M57 217q0 95 72 163.5t172 68.5t172 -68.5t72 -163.5q0 -91 -63 -156t-156 -76q-15 -2 -44 -12q-34 -12 -49 -24q7 1 15 1q55 0 124 -38q83 -45 120 -45q92 0 129 73l16 -8q-18 -52 -53 -85q-44 -42 -105 -42q-47 0 -123 59t-108 59q-29 0 -46 -14q-9 -7 -21 -26 q-9 -15 -18 -16h-6q-25 0 -25 30q0 17 36 46q40 32 85 45q-87 20 -141.5 82.5t-54.5 146.5zM138 217q0 -76 37 -130q45 -65 126 -65t126 65q38 54 38 130q0 75 -38 130q-45 65 -126 65t-126 -65q-37 -55 -37 -130z" />
<glyph unicode="r" horiz-adv-x="485" d="M46 0v20q50 0 64.5 21t14.5 96v160q0 75 -14.5 95.5t-64.5 20.5v20h207q75 0 119 -35q41 -34 41 -89q0 -46 -33 -80t-88 -41l62 -75q69 -84 134 -93v-20h-128l-136 186h-28v-49q0 -75 14.5 -96t64.5 -21v-20h-229zM196 223h57q40 0 61 24.5t21 61.5q0 38 -21 63t-61 25 h-57v-174z" />
<glyph unicode="s" horiz-adv-x="398" d="M62 -17v172h20q6 -63 43 -98t94 -35q33 0 55 18t22 49q0 47 -82 89l-68 35q-83 43 -83 122q0 48 36 81t89 33t95 -30q7 8 15 31h20v-169h-20q-13 131 -105 131q-31 0 -51.5 -15.5t-20.5 -42.5q0 -25 21 -44q17 -16 66 -42l67 -35q78 -41 78 -113q0 -60 -41.5 -98.5 t-100.5 -38.5q-56 0 -112 37q-16 -18 -19 -37h-18z" />
<glyph unicode="t" horiz-adv-x="464" d="M3 310l6 123h446l7 -123h-21l-5 20q-10 38 -28 50q-23 14 -88 14h-52v-257q0 -75 14.5 -96t65.5 -21v-20h-230v20q51 0 65.5 21t14.5 96v257h-58q-65 0 -86 -14q-16 -11 -26 -50l-5 -20h-20z" />
<glyph unicode="u" horiz-adv-x="573" d="M29 413v20h229v-20q-50 0 -64.5 -21t-14.5 -95v-142q0 -127 118 -127q55 0 88.5 32t33.5 95v142q0 75 -14.5 95.5t-64.5 20.5v20h204v-20q-50 0 -64.5 -21t-14.5 -95v-135q0 -84 -53 -133q-49 -45 -126 -45t-126 45q-52 49 -52 133v135q0 75 -14.5 95.5t-64.5 20.5z" />
<glyph unicode="v" horiz-adv-x="514" d="M6 413v20h224v-20q-67 0 -67 -31q0 -15 13 -45l102 -236l101 236q15 35 15 49q0 27 -68 27v20h188v-20q-44 0 -62 -15q-14 -14 -40 -73l-148 -342h-13l-148 342q-25 57 -41.5 72.5t-55.5 15.5z" />
<glyph unicode="w" horiz-adv-x="664" d="M3 413v20h222v-20q-63 0 -63 -35q0 -15 9 -41l67 -204l101 300h19l99 -300l69 204q9 28 9 43q0 33 -62 33v20h188v-20q-47 0 -66 -16.5t-37 -71.5l-114 -342h-13l-102 313l-104 -313h-13l-111 342q-18 55 -36.5 71.5t-61.5 16.5z" />
<glyph unicode="x" horiz-adv-x="513" d="M16 0v21q34 0 60 18.5t65 68.5l82 104l-80 113q-38 53 -58 69q-25 19 -62 19v20h224v-20q-52 0 -52 -22q0 -16 26 -54l47 -69l55 69q29 37 29 54q0 22 -55 22v20h188v-20q-36 0 -63 -21q-21 -16 -62 -67l-70 -87l91 -130q36 -51 60.5 -69t60.5 -18v-21h-224v21 q52 0 52 21q0 16 -27 55l-58 83l-67 -83q-27 -34 -27 -52q0 -24 53 -24v-21h-188z" />
<glyph unicode="y" horiz-adv-x="483" d="M-4 413v20h222v-20q-54 0 -54 -23q0 -16 25 -53l78 -115l77 115q27 41 27 56q0 20 -55 20v20h188v-20q-39 0 -65 -20q-22 -16 -57 -68l-99 -146v-42q0 -75 14.5 -96t65.5 -21v-20h-230v20q51 0 65.5 21t14.5 96v41l-100 147q-37 54 -58 71t-59 17z" />
<glyph unicode="z" horiz-adv-x="445" d="M53 0v23l235 374h-86q-65 0 -88 -15q-19 -11 -28 -49l-5 -20h-21l7 120h318v-13l-240 -383h115q65 0 88 14q18 12 28 50l5 20h21l-7 -121h-342z" />
<glyph unicode="{" horiz-adv-x="358" d="M42 288v16q54 18 70 41q26 36 26 133q0 92 56 146q23 23 121 79l17 -21q-68 -47 -90 -77q-34 -47 -34 -125q0 -102 -25 -140q-20 -30 -79 -44q59 -14 79 -44q25 -38 25 -140q0 -78 34 -125q22 -30 90 -77l-17 -21q-99 57 -121 78q-56 55 -56 147q0 97 -26 133 q-16 23 -70 41z" />
<glyph unicode="|" horiz-adv-x="467" d="M102 563v20l166 34v-479q0 -75 14.5 -96t65.5 -21v-21h-230v21q51 0 65.5 21t14.5 96v316q0 72 -19.5 91t-76.5 18z" />
<glyph unicode="}" horiz-adv-x="358" d="M27 -90q68 46 90 77q33 46 33 125q0 102 25 140q20 30 79 44q-59 14 -79 44q-25 38 -25 140q0 79 -33 125q-22 31 -90 77l16 21q99 -56 122 -79q56 -54 56 -146q0 -97 26 -133q16 -23 70 -41v-16q-54 -18 -70 -41q-26 -36 -26 -133q0 -93 -56 -147q-23 -22 -122 -78z" />
<glyph unicode="~" horiz-adv-x="423" d="M44 201q0 57 25 93t61 36q27 0 86 -36t82 -36q42 0 58 63h21q0 -62 -25 -97t-67 -35q-24 0 -84.5 37t-79.5 37q-17 0 -33.5 -18.5t-22.5 -43.5h-21z" />
<glyph unicode="&#xa0;" horiz-adv-x="216" d="M18 378v23q57 13 65 87h30v-78h63v-32h-63v-142q0 -49 30 -49q20 0 46 26l18 -16q-37 -45 -78 -45q-73 0 -73 84v142h-38z" />
<glyph unicode="&#xa1;" d="M50 337q0 20 21 20q9 0 18 -15q12 -21 20 -28q16 -15 46 -15q34 0 56 27q19 25 19 59q0 35 -18 59t-51 24q-22 0 -41.5 -15.5t-26.5 -40.5h-33l18 188h195l-10 -48h-154l-7 -79q25 27 66 27q51 0 85.5 -33.5t34.5 -81.5q0 -47 -39 -81t-94 -34q-48 0 -79 24 q-26 20 -26 43z" />
<glyph unicode="&#xa2;" d="M22 93v17l172 229h24v-213q25 1 35.5 13t17.5 39l4 16h21l-6 -101h-72q0 -41 8 -54q11 -17 49 -17v-22h-172v22q39 0 50 18q8 12 8 53h-139zM72 126h89v118z" />
<glyph unicode="&#xa3;" d="M48 210l18 103h216v-23l-79 -94q38 -13 62 -42t24 -62q0 -45 -36.5 -77t-90.5 -32q-49 0 -81 25q-28 21 -28 44q0 18 20 18q9 0 19 -15q13 -20 22 -27q18 -15 48 -15q34 0 53 25q17 22 17 54q0 26 -16 47t-42 25q-4 -4 -18 -26q-9 -13 -22 -13q-18 0 -18 17q0 10 9 19 l99 104h-86q-53 0 -63 -37l-5 -18h-22z" />
<glyph unicode="&#xa5;" horiz-adv-x="227" d="M8 561l93 87q26 24 44 24q28 0 28 -29q0 -20 -23 -30l-137 -59z" />
<glyph unicode="&#xa7;" d="M40 523q0 38 32 66t84 28q50 0 86.5 -27.5t36.5 -71.5q0 -51 -60 -104l-89 -79h159l-9 -48h-233v22l132 119q44 40 44 87q0 29 -18.5 46.5t-50.5 17.5q-24 0 -43 -16.5t-19 -42.5q0 -22 16 -46l-26 -25q-42 29 -42 74z" />
<glyph unicode="&#xa8;" horiz-adv-x="570" d="M83 251v44h376v-172h-44v128h-332z" />
<glyph unicode="&#xa9;" horiz-adv-x="683" d="M25 300q0 131 93 224t224 93t223.5 -93t92.5 -224t-92.5 -224t-223.5 -93t-224 93t-93 224zM57 300q0 -118 83.5 -201.5t201.5 -83.5t201.5 83.5t83.5 201.5t-83.5 201.5t-201.5 83.5t-201.5 -83t-83.5 -202zM151 300q0 86 60 148t143 62q71 0 119 -59q9 11 16 44h17 v-156h-18q-13 64 -48 100.5t-86 36.5q-69 0 -106 -59q-30 -49 -30 -117t30 -117q37 -59 106 -59q51 0 86 37t48 101h18v-157h-17q-6 34 -16 44q-48 -59 -119 -59q-83 0 -143 61.5t-60 148.5z" />
<glyph unicode="&#xaa;" horiz-adv-x="667" d="M88 122l174 146l-174 146l11 19l274 -165l-274 -166zM239 68l233 200l-233 200l15 17l329 -217l-329 -218z" />
<glyph unicode="&#xab;" horiz-adv-x="525" d="M61 217q0 90 59.5 156.5t146.5 74.5v169h36v-168q73 -8 116 -65q8 9 18 49h19v-173h-20q-29 139 -133 151v-388q104 11 133 151h20v-174h-19q-9 40 -18 49q-45 -57 -116 -65v-167h-36v167q-87 8 -146.5 75t-59.5 158zM142 217q0 -72 27 -122q32 -64 98 -72v387 q-66 -8 -98 -71q-27 -51 -27 -122z" />
<glyph unicode="&#xac;" horiz-adv-x="287" d="M25 163v22q41 0 52 22q6 13 6 59v36q0 46 -6 59q-11 22 -52 22v20l103 20q7 -20 10 -46q32 45 75 45q60 0 60 -54q0 -31 -32 -31q-29 0 -29 29q0 21 -19 21q-16 0 -32 -20q-21 -25 -21 -62v-39q0 -46 6 -58q10 -23 51 -23v-22h-172z" />
<glyph unicode="&#xad;" horiz-adv-x="458" d="M83 199v44h292v-44h-292z" />
<glyph unicode="&#xae;" horiz-adv-x="310" d="M32 623q0 16 11.5 27.5t27.5 11.5t27.5 -11.5t11.5 -27.5q0 -17 -11.5 -28.5t-27.5 -11.5t-27.5 11.5t-11.5 28.5zM198 623q0 16 11.5 27.5t27.5 11.5t27.5 -11.5t11.5 -27.5t-11.5 -28t-27.5 -12t-27.5 11.5t-11.5 28.5z" />
<glyph unicode="&#xaf;" horiz-adv-x="602" d="M57 217q0 95 72 164t172 69q63 0 118 -30l40 58l34 -20l-40 -59q92 -72 92 -182q0 -97 -71.5 -165.5t-172.5 -68.5q-63 0 -118 30l-40 -57l-34 19l41 58q-93 72 -93 184zM139 217q0 -82 43 -138l211 304q-39 29 -92 29q-81 0 -125 -65q-37 -54 -37 -130zM209 51 q39 -29 92 -29q81 0 125 65q37 54 37 130q0 82 -42 137z" />
<glyph unicode="&#xb0;" d="M70 288v20l127 26v-231q0 -46 5 -58q11 -23 51 -23v-22h-171v22q41 0 51 22q6 13 6 59v110q0 49 -13.5 62t-55.5 13z" />
<glyph unicode="&#xb1;" horiz-adv-x="458" d="M50 -1v44h358v-44h-358zM50 224v44h157v140h44v-140h157v-44h-157v-141h-44v141h-157z" />
<glyph unicode="&#xb4;" horiz-adv-x="667" d="M83 268l330 217l15 -17l-233 -200l233 -200l-15 -18zM293 268l275 165l11 -19l-174 -146l174 -146l-11 -20z" />
<glyph unicode="&#xb6;" horiz-adv-x="211" d="M83 0v300h45v-300h-45zM83 408v300h45v-300h-45z" />
<glyph unicode="&#xb7;" horiz-adv-x="514" d="M3 0v21q45 0 61.5 14.5t41.5 72.5l147 342h14l147 -342q24 -56 41 -71.5t57 -15.5v-21h-224v21q67 0 67 30q0 15 -13 46l-20 46h-164l-20 -46q-15 -35 -15 -49q0 -27 69 -27v-21h-189zM174 180h132l-66 153zM236 515l93 87q26 24 44 24q28 0 28 -29q0 -20 -23 -30 l-137 -59z" />
<glyph unicode="&#xb8;" horiz-adv-x="573" d="M29 413v20h229v-20q-50 0 -64.5 -21t-14.5 -95v-142q0 -127 118 -127q55 0 88.5 32t33.5 95v142q0 75 -14.5 95.5t-64.5 20.5v20h204v-20q-50 0 -64.5 -21t-14.5 -95v-135q0 -84 -53 -133q-49 -45 -126 -45t-126 45q-52 49 -52 133v135q0 75 -14.5 95.5t-64.5 20.5z M172 548q0 16 11.5 27.5t27.5 11.5t27.5 -11.5t11.5 -27.5q0 -17 -11.5 -28.5t-27.5 -11.5t-27.5 11.5t-11.5 28.5zM338 548q0 16 11.5 27.5t27.5 11.5t27.5 -11.5t11.5 -27.5t-11.5 -28t-27.5 -12t-27.5 11.5t-11.5 28.5z" />
<glyph unicode="&#xba;" horiz-adv-x="853" d="M87 574v21l126 26v-232q0 -46 6 -59q11 -22 51 -22v-21h-172v21q41 0 52 22q6 13 6 59v110q0 49 -15 64q-13 12 -54 11zM217 0l383 618l36 -18l-383 -618zM505 93v17l173 229h24v-213q39 1 52 52l4 16h21l-6 -101h-71q0 -41 7 -53q11 -18 49 -18v-22h-171v22q39 0 50 18 q7 12 7 53h-139zM555 126h89v118z" />
<glyph unicode="&#xbb;" horiz-adv-x="209" d="M25 163v22q41 0 52 22q6 13 6 59v36q0 46 -6 59q-11 22 -52 22v21l115 19v-157q0 -46 6 -58q10 -23 51 -23v-22h-172zM77 522q0 14 10 24.5t24 10.5t24.5 -10.5t10.5 -24.5t-10.5 -25t-24.5 -11t-24 11t-10 25z" />
<glyph unicode="&#xbf;" horiz-adv-x="617" d="M-38 0v21q59 0 80 17q15 13 40 70l220 509h13l221 -509q25 -57 40 -70q20 -17 79 -17v-21h-277v21q88 0 88 40q0 14 -10 36l-48 111h-242l-48 -111q-9 -22 -9 -36q0 -40 87 -40v-21h-234zM172 763q0 29 28 29q21 0 45 -23l93 -88l-5 -6l-138 58q-23 10 -23 30zM182 245 h209l-105 241z" />
<glyph unicode="&#xc0;" d="M48 423q0 75 35 131q38 63 100 63q37 0 63 -17t26 -35q0 -17 -19 -17q-6 0 -25.5 18.5t-43.5 18.5q-64 0 -79 -127q29 20 64 20q49 0 85.5 -30.5t36.5 -73.5t-34 -73.5t-82 -30.5q-47 0 -80 29q-47 40 -47 124zM103 413q1 -52 22 -83t50 -31q28 0 44 26q14 21 14 49 t-16 50q-19 25 -48 25q-51 0 -66 -36z" />
<glyph unicode="&#xc1;" horiz-adv-x="517" d="M57 217q0 96 66.5 164.5t159.5 68.5q36 0 72.5 -18.5t59.5 -47.5q8 9 18 49h19v-173h-20q-14 71 -53 111.5t-96 40.5q-76 0 -114 -66q-31 -52 -31 -129t31 -129q38 -66 114 -66q57 0 96 40.5t53 111.5h20v-174h-19q-9 40 -18 49q-54 -66 -132 -66l-40 -41q31 -2 55 -20 q29 -22 29 -59q0 -47 -61 -77q-41 -19 -86 -25v27q86 28 86 75q0 39 -62 39q-20 0 -40 -6v14l78 77q-80 16 -132.5 80.5t-52.5 149.5z" />
<glyph unicode="&#xc2;" horiz-adv-x="514" d="M3 0v21q45 0 61.5 14.5t41.5 72.5l147 342h14l147 -342q24 -56 41 -71.5t57 -15.5v-21h-224v21q67 0 67 30q0 15 -13 46l-20 46h-164l-20 -46q-15 -35 -15 -49q0 -27 69 -27v-21h-189zM174 180h132l-66 153z" />
<glyph unicode="&#xc3;" horiz-adv-x="333" d="M38 0v21q62 0 78.5 21t16.5 96v325q0 75 -16.5 95.5t-78.5 20.5v21h270v-21q-62 0 -78.5 -20.5t-16.5 -95.5v-325q0 -75 16.5 -96t78.5 -21v-21h-270zM53 763q0 29 28 29q21 0 45 -23l93 -88l-5 -6l-138 58q-23 10 -23 30z" />
<glyph unicode="&#xc6;" horiz-adv-x="683" d="M25 300q0 131 93 224t224 93t223.5 -93t92.5 -224t-92.5 -224t-223.5 -93t-224 93t-93 224zM57 300q0 -118 83.5 -201.5t201.5 -83.5q123 0 208 90h-100l-125 168h-31v-45q0 -67 13 -86t58 -19v-18h-202v18q45 0 58.5 19t13.5 86v144q0 67 -13.5 86t-58.5 19v18h195 q61 0 98 -31.5t37 -80.5q0 -42 -29.5 -72t-79.5 -37l57 -66q73 -85 124 -85q62 78 62 177q0 118 -83.5 201.5t-201.5 83.5t-201.5 -83t-83.5 -202zM294 305h59q36 0 57 23q18 21 18 55t-19 56.5t-56 22.5h-59v-157z" />
<glyph unicode="&#xc7;" d="M42 443q0 72 37 123t89 51t89 -51t37 -123q0 -71 -37 -122t-89 -51t-89 51t-37 122zM101 443q0 -61 16 -99q18 -43 51 -43t52 43q16 38 16 99q0 62 -16 100q-19 43 -52 43t-51 -43q-16 -38 -16 -100z" />
<glyph unicode="&#xc8;" horiz-adv-x="475" d="M46 0v20q50 0 64.5 21t14.5 96v160q0 75 -14.5 95.5t-64.5 20.5v20h350l8 -120h-21l-5 20q-9 37 -28 49q-23 15 -87 15h-67v-149h6q73 0 92 14q16 13 16 65h20v-195h-20q0 51 -16 64q-19 15 -92 15h-6v-58q0 -75 14.5 -95.5t64.5 -20.5h12q65 0 88 14q19 12 28 50l5 20 h20l-8 -121h-374zM192 515l93 87q26 24 44 24q28 0 28 -29q0 -20 -23 -30l-137 -59z" />
<glyph unicode="&#xc9;" horiz-adv-x="316" d="M-74 -184q0 26 26 28t42.5 -38t53.5 -40q70 0 70 156v376h-81v35h81v96q0 95 52 145q44 43 113 43q46 0 74 -26q25 -23 25 -50q0 -34 -33 -34q-22 0 -36.5 38.5t-48.5 38.5q-39 0 -57 -34q-18 -37 -18 -121v-96h101v-35h-101v-376q0 -94 -45 -144q-39 -45 -101 -45 q-53 0 -87 29q-30 25 -30 54z" />
<glyph unicode="&#xca;" horiz-adv-x="657" d="M3 0v21q40 0 63 16t55 71l187 325h279l8 -120h-21l-5 20q-9 37 -28 49q-23 15 -88 15h-66v-179h6q73 0 92 15q16 13 16 65h20v-195h-20q0 51 -16 64q-19 15 -92 15h-6v-29q0 -75 14.5 -95.5t64.5 -20.5h12q65 0 87 14q18 12 28 50l5 20h21l-8 -121h-374v20q50 0 64.5 21 t14.5 96v45h-118l-50 -85q-21 -35 -21 -51q0 -25 60 -25v-21h-184zM219 218h97v167z" />
<glyph unicode="&#xcb;" horiz-adv-x="475" d="M46 0v20q50 0 64.5 21t14.5 96v160q0 75 -14.5 95.5t-64.5 20.5v20h350l8 -120h-21l-5 20q-9 37 -28 49q-23 15 -87 15h-67v-149h6q73 0 92 14q16 13 16 65h20v-195h-20q0 51 -16 64q-19 15 -92 15h-6v-58q0 -75 14.5 -95.5t64.5 -20.5h12q65 0 88 14q19 12 28 50l5 20 h20l-8 -121h-374zM143 597q0 29 28 29q21 0 45 -23l93 -88l-5 -6l-138 58q-23 10 -23 30z" />
<glyph unicode="&#xcc;" horiz-adv-x="322" d="M46 0v20q50 0 64.5 21t14.5 96v160q0 75 -14.5 95.5t-64.5 20.5v20h229v-20q-50 0 -64.5 -20.5t-14.5 -95.5v-160q0 -75 14.5 -96t64.5 -21v-20h-229zM104 515l94 88q25 23 44 23q28 0 28 -29q0 -20 -23 -30l-138 -59z" />
<glyph unicode="&#xcd;" horiz-adv-x="475" d="M46 0v20q50 0 64.5 21t14.5 96v160q0 75 -14.5 95.5t-64.5 20.5v20h350l8 -120h-21l-5 20q-9 37 -28 49q-23 15 -87 15h-67v-149h6q73 0 92 14q16 13 16 65h20v-195h-20q0 51 -16 64q-19 15 -92 15h-6v-58q0 -75 14.5 -95.5t64.5 -20.5h12q65 0 88 14q19 12 28 50l5 20 h20l-8 -121h-374zM118 520l119 129l119 -129l-13 -12l-106 76l-107 -76z" />
<glyph unicode="&#xce;" horiz-adv-x="475" d="M46 0v20q50 0 64.5 21t14.5 96v160q0 75 -14.5 95.5t-64.5 20.5v20h350l8 -120h-21l-5 20q-9 37 -28 49q-23 15 -87 15h-67v-149h6q73 0 92 14q16 13 16 65h20v-195h-20q0 51 -16 64q-19 15 -92 15h-6v-58q0 -75 14.5 -95.5t64.5 -20.5h12q65 0 88 14q19 12 28 50l5 20 h20l-8 -121h-374zM110 548q0 16 11.5 27.5t27.5 11.5t27.5 -11.5t11.5 -27.5q0 -17 -11.5 -28.5t-27.5 -11.5t-27.5 11.5t-11.5 28.5zM276 548q0 16 11.5 27.5t27.5 11.5t27.5 -11.5t11.5 -27.5t-11.5 -28t-27.5 -12t-27.5 11.5t-11.5 28.5z" />
<glyph unicode="&#xcf;" horiz-adv-x="322" d="M44 597q0 29 29 29q20 0 44 -23l93 -88l-5 -7l-137 59q-24 10 -24 30zM46 0v20q50 0 64.5 21t14.5 96v160q0 75 -14.5 95.5t-64.5 20.5v20h229v-20q-50 0 -64.5 -20.5t-14.5 -95.5v-160q0 -75 14.5 -96t64.5 -21v-20h-229z" />
<glyph unicode="&#xd1;" horiz-adv-x="418" d="M73 -114q49 51 57 106h-8q-19 0 -33 14t-14 34t14 34t33 14q22 0 38 -16t16 -47q0 -37 -23 -77q-26 -47 -69 -74zM239 -114q50 51 58 106h-9q-19 0 -32.5 14t-13.5 34t13.5 34t32.5 14q22 0 38.5 -16t16.5 -47q0 -37 -23 -77q-26 -47 -69 -74z" />
<glyph unicode="&#xd2;" horiz-adv-x="597" d="M46 0v20q50 0 64.5 21t14.5 96v160q0 75 -14.5 95.5t-64.5 20.5v20h123l266 -316v180q0 75 -14.5 95.5t-64.5 20.5v20h195v-20q-50 0 -64.5 -20.5t-14.5 -95.5v-313h-19l-291 349v-196q0 -75 14.5 -96t64.5 -21v-20h-195zM165 518q0 42 18.5 69.5t45.5 27.5 q21 0 65 -27.5t61 -27.5q32 0 43 48h16q0 -47 -18.5 -73.5t-50.5 -26.5q-18 0 -63 27.5t-59 27.5q-30 0 -43 -45h-15z" />
<glyph unicode="&#xd3;" horiz-adv-x="322" d="M41 519l119 129l119 -129l-12 -11l-107 75l-107 -75zM46 0v20q50 0 64.5 21t14.5 96v160q0 75 -14.5 95.5t-64.5 20.5v20h229v-20q-50 0 -64.5 -20.5t-14.5 -95.5v-160q0 -75 14.5 -96t64.5 -21v-20h-229z" />
<glyph unicode="&#xd4;" horiz-adv-x="322" d="M37 548q0 16 11.5 27.5t27.5 11.5t27.5 -11.5t11.5 -27.5q0 -17 -11.5 -28.5t-27.5 -11.5t-27.5 11.5t-11.5 28.5zM46 0v20q50 0 64.5 21t14.5 96v160q0 75 -14.5 95.5t-64.5 20.5v20h229v-20q-50 0 -64.5 -20.5t-14.5 -95.5v-160q0 -75 14.5 -96t64.5 -21v-20h-229z M203 548q0 16 11.5 27.5t27.5 11.5t27.5 -11.5t11.5 -27.5t-11.5 -28t-27.5 -12t-27.5 11.5t-11.5 28.5z" />
<glyph unicode="&#xd5;" horiz-adv-x="236" d="M29 152v111h22q0 -29 19 -53q22 -28 56 -28q37 0 37 37q0 18 -38 38l-40 21q-50 26 -50 75q0 30 23.5 49.5t53.5 19.5q19 0 37 -8.5t20 -8.5q4 0 4 17h22v-90h-22q0 25 -15 43t-40 18q-33 0 -33 -31q0 -15 42 -38l35 -19q51 -28 51 -72q0 -37 -25.5 -59t-63.5 -22 q-18 0 -39.5 11.5t-25.5 11.5q-8 0 -8 -23h-22z" />
<glyph unicode="&#xd6;" horiz-adv-x="896" d="M99 40q0 20 14 34t33 14q20 0 34 -14t14 -34q0 -19 -14 -33.5t-34 -14.5q-19 0 -33 14t-14 34zM391 40q0 20 14 34t33 14t33.5 -14.5t14.5 -33.5t-14.5 -33.5t-33.5 -14.5t-33 14t-14 34zM683 40q0 20 13.5 34t32.5 14q20 0 34.5 -14.5t14.5 -33.5t-14.5 -33.5 t-34.5 -14.5q-19 0 -32.5 14t-13.5 34z" />
<glyph unicode="&#xd8;" horiz-adv-x="258" d="M22 621v23h181v-23h-181z" />
<glyph unicode="&#xd9;" horiz-adv-x="602" d="M57 217q0 95 72 164t172 69t172 -69t72 -164q0 -97 -71.5 -165.5t-172.5 -68.5t-172.5 68.5t-71.5 165.5zM139 217q0 -76 37 -130q44 -65 125 -65t125 65q37 54 37 130t-37 130q-44 65 -125 65t-125 -65q-37 -54 -37 -130zM178 520l120 129l119 -129l-13 -12l-106 76 l-107 -76z" />
<glyph unicode="&#xda;" horiz-adv-x="602" d="M57 217q0 95 72 164t172 69t172 -69t72 -164q0 -97 -71.5 -165.5t-172.5 -68.5t-172.5 68.5t-71.5 165.5zM139 217q0 -76 37 -130q44 -65 125 -65t125 65q37 54 37 130t-37 130q-44 65 -125 65t-125 -65q-37 -54 -37 -130zM193 597q0 29 28 29q21 0 45 -23l93 -88l-5 -6 l-138 58q-23 10 -23 30z" />
<glyph unicode="&#xdb;" horiz-adv-x="602" d="M57 217q0 95 72 164t172 69t172 -69t72 -164q0 -97 -71.5 -165.5t-172.5 -68.5t-172.5 68.5t-71.5 165.5zM139 217q0 -76 37 -130q44 -65 125 -65t125 65q37 54 37 130t-37 130q-44 65 -125 65t-125 -65q-37 -54 -37 -130zM243 515l93 87q26 24 44 24q28 0 28 -29 q0 -20 -23 -30l-137 -59z" />
<glyph unicode="&#xdc;" horiz-adv-x="448" d="M62 443q0 19 14 33t32 14q5 0 11 -2l94 -30l-35 101q-2 6 -2 12q0 18 14.5 32t33.5 14t33.5 -13.5t14.5 -32.5q0 -6 -2 -12l-34 -101l92 30q6 2 12 2q18 0 32 -14t14 -33t-14 -33.5t-32 -14.5q-6 0 -12 2l-90 29l27 -203l-37 -410h-8l-37 410l28 204l-92 -30 q-6 -2 -11 -2q-18 0 -32 14.5t-14 33.5z" />
<glyph unicode="&#xdf;" d="M48 136q0 75 35 132q38 62 100 62q37 0 63 -17t26 -35q0 -16 -19 -16q-6 0 -25.5 18t-43.5 18q-64 0 -79 -126q29 20 64 20q48 0 85 -31t37 -73q0 -43 -34 -74t-82 -31q-47 0 -80 29q-47 40 -47 124zM103 126q1 -52 22 -82.5t50 -30.5q28 0 44 25q14 21 14 50 q0 27 -16 50q-19 25 -48 25q-51 0 -66 -37z" />
<glyph unicode="&#xe0;" horiz-adv-x="403" d="M25 163v22q41 0 52 22q6 13 6 59v36q0 46 -6 59q-11 22 -52 22v20l103 20q8 -20 11 -49q42 48 98 48q48 0 74 -32q23 -29 23 -78v-46q0 -46 6 -58q10 -23 51 -23v-22h-172v22q40 0 51 22q6 13 6 59v42q0 73 -62 73q-23 0 -47 -18q-27 -21 -27 -50v-47q0 -50 5 -60 q8 -21 46 -21v-22h-166z" />
<glyph unicode="&#xe1;" d="M38 497l19 103h243v-23l-139 -277q-17 -34 -35 -34q-27 0 -27 25q0 12 9 27l148 234h-128q-54 0 -63 -38l-4 -17h-23z" />
<glyph unicode="&#xe2;" horiz-adv-x="307" d="M33 287q0 57 43 97q40 38 94 38q43 0 73.5 -27t30.5 -67q0 -13 -4 -26h-173q-1 -11 -1 -21q0 -93 92 -93q41 0 79 35l17 -21q-48 -50 -114 -50q-60 0 -98.5 39t-38.5 96zM103 335h112q2 5 2 11q0 16 -12.5 28.5t-34.5 12.5q-50 0 -67 -52z" />
<glyph unicode="&#xe3;" d="M48 497l18 103h216v-23l-79 -94q38 -13 62 -42t24 -63q0 -44 -36.5 -76t-90.5 -32q-49 0 -81 25q-28 21 -28 43q0 19 20 19q9 0 19 -15q13 -20 22 -27q18 -15 48 -15q34 0 52 23t18 55q0 27 -16 47.5t-42 25.5q-6 -6 -16 -22.5t-24 -16.5q-18 0 -18 17q0 10 9 19l99 104 h-86q-52 0 -63 -38l-5 -17h-22z" />
<glyph unicode="&#xe4;" horiz-adv-x="498" d="M58 -17v220h20q4 -52 24 -90q47 -90 161 -90q54 0 89.5 31t35.5 79q0 62 -115 121l-96 49q-47 24 -77 65q-34 46 -34 100q0 63 47 106t119 43q66 0 122 -41q23 19 29 46h20v-220h-21q-15 175 -153 175q-42 0 -69.5 -25.5t-27.5 -63.5q0 -37 28 -65q25 -24 93 -59l96 -49 q104 -53 104 -152q0 -80 -55.5 -130t-134.5 -50q-46 0 -94 21l-62 26q-23 -19 -29 -47h-20z" />
<glyph unicode="&#xe5;" horiz-adv-x="934" d="M71 300q0 131 98 224t235 93q55 0 108 -17h334l8 -132h-21l-5 20q-11 43 -28 57q-23 18 -87 18h-149v-227h50q76 0 96.5 16.5t20.5 79.5h21v-229h-21q0 63 -20.5 79.5t-96.5 16.5h-50v-146q0 -75 17 -95.5t79 -20.5h86q64 0 88 18q17 14 28 58l5 20h21l-9 -133h-368 q-51 -17 -107 -17q-137 0 -235 93t-98 224zM166 300q0 -108 55 -185q65 -92 183 -92q42 0 81 13v528q-37 14 -81 14q-118 0 -183 -92q-55 -78 -55 -186z" />
<glyph unicode="&#xe6;" horiz-adv-x="853" d="M64 497l19 103h215v-23l-79 -94q38 -13 62.5 -42t24.5 -63q0 -44 -36.5 -76t-91.5 -32q-49 0 -81 25q-28 21 -28 43q0 19 20 19q9 0 19 -15q14 -20 22 -27q18 -15 48 -15q34 0 52 23t18 55q0 27 -15.5 47.5t-41.5 25.5q-6 -6 -16 -22.5t-24 -16.5q-18 0 -18 17q0 10 9 19 l99 104h-87q-54 0 -62 -38l-5 -17h-23zM217 0l383 618l36 -18l-383 -618zM497 93v17l172 229h24v-213q25 1 35.5 13t17.5 39l4 16h21l-6 -101h-72q0 -41 8 -54q11 -17 49 -17v-22h-172v22q39 0 50 18q8 12 8 53h-139zM547 126h89v118z" />
<glyph unicode="&#xeb;" horiz-adv-x="251" d="M75 553q0 31 17 49q15 15 37 15q19 0 33 -14.5t14 -34.5q0 -19 -14 -33.5t-33 -14.5q-6 0 -8 1q9 -56 57 -107l-11 -11q-44 27 -69 73q-23 41 -23 77z" />
<glyph unicode="&#xec;" horiz-adv-x="418" d="M75 553q0 31 17 49q15 15 37 15q19 0 33 -14.5t14 -34.5q0 -19 -14 -33.5t-33 -14.5q-6 0 -8 1q9 -56 57 -107l-11 -11q-44 27 -69 73q-23 41 -23 77zM242 553q0 31 17 49q15 15 37 15q19 0 33 -14.5t14 -34.5q0 -19 -14 -33.5t-33 -14.5q-6 0 -8 1q7 -54 57 -107 l-12 -11q-43 27 -68 73q-23 41 -23 77z" />
<glyph unicode="&#xed;" horiz-adv-x="251" d="M73 414q48 51 57 107q-2 -1 -8 -1q-19 0 -33 14.5t-14 33.5q0 20 14 34.5t33 14.5q22 0 37 -15q17 -18 17 -49q0 -36 -23 -77q-25 -46 -69 -73z" />
<glyph unicode="&#xee;" horiz-adv-x="418" d="M73 414q48 51 57 107q-2 -1 -8 -1q-19 0 -33 14.5t-14 33.5q0 20 14 34.5t33 14.5q22 0 37 -15q17 -18 17 -49q0 -36 -23 -77q-25 -46 -69 -73zM239 414q49 51 58 107q-3 -1 -9 -1q-19 0 -32.5 14.5t-13.5 33.5q0 20 13.5 34.5t32.5 14.5q22 0 37 -15q18 -18 18 -49 q0 -36 -23 -77q-25 -46 -69 -73z" />
<glyph unicode="&#xef;" d="M43 78q0 60 75 91q-58 37 -58 75q0 36 32 61t76 25q45 0 77 -22t32 -56q0 -45 -67 -74q84 -39 84 -95q0 -41 -37 -70.5t-89 -29.5t-88.5 27t-36.5 68zM97 75q0 -25 20 -44t51 -19q32 0 51.5 19t19.5 44t-29 45q-14 10 -59 31q-54 -27 -54 -76zM114 253q0 -27 63 -60 q45 23 45 60q0 18 -16 33t-38 15q-23 0 -38.5 -13.5t-15.5 -34.5z" />
<glyph unicode="&#xf1;" horiz-adv-x="525" d="M-1 199v44h526v-44h-526z" />
<glyph unicode="&#xf2;" horiz-adv-x="563" d="M25 163v22q41 0 52 22q6 13 6 59v36q0 46 -6 59q-11 22 -52 22v20l103 20q8 -24 11 -49q42 48 92 48q59 0 77 -50q41 50 100 50q86 0 86 -110v-46q0 -46 6 -59q11 -22 51 -22v-22h-159v22q31 0 38 13t7 68v42q0 73 -52 73q-19 0 -41 -18q-27 -21 -27 -50v-47q0 -55 7 -68 t38 -13v-22h-148v22q31 0 38 13t7 68v42q0 73 -51 73q-19 0 -41 -18q-27 -21 -27 -50v-47q0 -50 3 -58q7 -23 42 -23v-22h-160z" />
<glyph unicode="&#xf3;" horiz-adv-x="667" d="M-1 199v44h668v-44h-668z" />
<glyph unicode="&#xf4;" d="M40 236q0 38 32 66t84 28q50 0 86.5 -27t36.5 -72q0 -49 -60 -103l-89 -80h159l-9 -48h-233v23l132 118q44 39 44 87q0 29 -18.5 47t-50.5 18q-24 0 -43 -16.5t-19 -42.5q0 -22 16 -46l-26 -25q-42 29 -42 73z" />
<glyph unicode="&#xf5;" d="M22 379v18l172 229h24v-213q41 0 53 51l4 17h21l-6 -102h-72q0 -41 8 -54q11 -17 49 -17v-21h-172v21q39 0 50 18q8 12 8 53h-139zM72 413h89v118z" />
<glyph unicode="&#xf6;" horiz-adv-x="398" d="M62 -17v172h20q6 -63 43 -98t94 -35q33 0 55 18t22 49q0 47 -82 89l-68 35q-83 43 -83 122q0 48 36 81t89 33t95 -30q7 8 15 31h20v-169h-20q-13 131 -105 131q-31 0 -51.5 -15.5t-20.5 -42.5q0 -25 21 -44q17 -16 66 -42l67 -35q78 -41 78 -113q0 -60 -41.5 -98.5 t-100.5 -38.5q-56 0 -112 37q-16 -18 -19 -37h-18z" />
<glyph unicode="&#xf7;" d="M45 513q0 43 34 73.5t82 30.5q47 0 80 -29q47 -40 47 -124q0 -75 -34 -131q-39 -63 -101 -63q-37 0 -63 17t-26 35q0 16 19 16q6 0 25.5 -18t43.5 -18q64 0 79 126q-32 -20 -64 -20q-49 0 -85.5 31t-36.5 74zM103 513q0 -28 16 -50q19 -25 48 -25q51 0 66 36 q-1 52 -22 83t-50 31q-28 0 -43 -23.5t-15 -51.5z" />
<glyph unicode="&#xf8;" horiz-adv-x="504" d="M76 -18q0 110 104 163q43 22 103 31v94h45v-164q-75 0 -125 -30q-60 -36 -60 -105q0 -58 47 -93q43 -33 108 -33q52 0 86 22q30 20 30 45q0 26 -43 26q-16 0 -28 11.5t-12 27.5q0 22 18 35q15 10 33 10q28 0 51.5 -26t23.5 -67q0 -47 -48 -81.5t-120 -34.5q-86 0 -147 45 q-66 48 -66 124zM257 390q0 20 14.5 34t33.5 14t33 -14t14 -34t-14 -34t-33 -14t-33.5 14.5t-14.5 33.5z" />
<glyph unicode="&#xfa;" horiz-adv-x="758" d="M57 217q0 95 72 164t172 69q47 0 90 -17h293l9 -120h-21l-5 20q-9 38 -28 49q-23 15 -88 15h-67v-149h6q73 0 92 14q16 13 16 65h20v-195h-20q0 51 -16 64q-19 15 -92 15h-6v-58q0 -74 14.5 -95t64.5 -21h12q65 0 88 14q18 12 28 50l5 20h21l-9 -121h-317 q-43 -17 -90 -17q-101 0 -172.5 68.5t-71.5 165.5zM139 217q0 -76 37 -130q44 -65 125 -65q71 0 112 48v293q-41 49 -112 49q-81 0 -125 -65q-37 -54 -37 -130z" />
<glyph unicode="&#xfc;" horiz-adv-x="625" d="M-38 579v21h285v-21q-72 0 -72 -32q0 -16 18 -44l144 -220l146 220q21 31 21 47q0 29 -75 29v21h234v-21q-58 0 -89 -21q-23 -16 -56 -66l-165 -250v-104q0 -75 16.5 -96t78.5 -21v-21h-270v21q62 0 78.5 21t16.5 96v97l-166 257q-33 50 -62.5 68.5t-82.5 18.5zM200 714 q0 16 11.5 27.5t27.5 11.5t27.5 -11.5t11.5 -27.5q0 -17 -11.5 -28.5t-27.5 -11.5t-27.5 11.5t-11.5 28.5zM366 714q0 16 11.5 27.5t27.5 11.5t27.5 -11.5t11.5 -27.5t-11.5 -28t-27.5 -12t-27.5 11.5t-11.5 28.5z" />
<glyph unicode="&#xff;" horiz-adv-x="371" d="M33 287q0 56 44 95.5t105 39.5t104.5 -40t43.5 -95t-43.5 -95t-104.5 -40t-105 39.5t-44 95.5zM98 287q0 -45 20 -71q22 -30 64 -30q41 0 63 30q20 26 20 71t-21 73t-62 28q-42 0 -63 -28t-21 -73z" />
<glyph unicode="&#x152;" horiz-adv-x="373" d="M33 287q0 56 38 95.5t91 39.5q49 0 84 -37v108q0 46 -6 59q-10 22 -51 22v21l115 20v-343q0 -46 6 -58q10 -23 51 -23v-21l-100 -19q-6 8 -13 41q-33 -40 -86 -40t-91 39.5t-38 95.5zM98 287q0 -44 20 -72t59 -28q49 0 69 54v91q-21 55 -69 55q-39 0 -59 -28t-20 -72z " />
<glyph unicode="&#x153;" horiz-adv-x="361" d="M0 574v21l115 20v-230q35 37 85 37q53 0 90.5 -40t37.5 -95t-37.5 -95t-90.5 -40q-60 0 -92 46l-31 -45l-19 -1v341q0 46 -6 59q-11 22 -52 22zM115 242q22 -55 70 -55q78 0 78 100t-78 100q-48 0 -70 -54v-91z" />
<glyph unicode="&#x178;" horiz-adv-x="749" d="M23 579v21h270v-21q-62 0 -78.5 -20.5t-16.5 -95.5v-245q0 -94 50 -144q46 -46 125 -46q83 0 131 46q53 50 53 144v245q0 75 -17 95.5t-79 20.5v21h234v-21q-62 0 -79 -20.5t-17 -95.5v-240q0 -114 -71 -179q-66 -61 -170 -61t-169 61q-71 66 -71 179v240 q0 75 -16.5 95.5t-78.5 20.5zM232 763q0 29 28 29q21 0 45 -23l93 -88l-5 -6l-138 58q-23 10 -23 30z" />
<glyph unicode="&#x192;" horiz-adv-x="307" d="M33 287q0 57 43 97q40 38 94 38q43 0 73.5 -27t30.5 -67q0 -13 -4 -26h-173q-1 -11 -1 -21q0 -93 92 -93q41 0 79 35l17 -21q-48 -50 -114 -50q-60 0 -98.5 39t-38.5 96zM103 335h112q2 5 2 11q0 16 -12.5 28.5t-34.5 12.5q-50 0 -67 -52z" />
<glyph unicode="&#x2c6;" horiz-adv-x="602" d="M57 217q0 95 72 164t172 69t172 -69t72 -164q0 -97 -71.5 -165.5t-172.5 -68.5t-172.5 68.5t-71.5 165.5zM139 217q0 -76 37 -130q44 -65 125 -65t125 65q37 54 37 130t-37 130q-44 65 -125 65t-125 -65q-37 -54 -37 -130zM182 548q0 16 11.5 27.5t27.5 11.5t27.5 -11.5 t11.5 -27.5q0 -17 -11.5 -28.5t-27.5 -11.5t-27.5 11.5t-11.5 28.5zM348 548q0 16 11.5 27.5t27.5 11.5t27.5 -11.5t11.5 -27.5t-11.5 -28t-27.5 -12t-27.5 11.5t-11.5 28.5z" />
<glyph unicode="&#x2c7;" horiz-adv-x="483" d="M-4 413v20h222v-20q-54 0 -54 -23q0 -16 25 -53l78 -115l77 115q27 41 27 56q0 20 -55 20v20h188v-20q-39 0 -65 -20q-22 -16 -57 -68l-99 -146v-42q0 -75 14.5 -96t65.5 -21v-20h-230v20q51 0 65.5 21t14.5 96v41l-100 147q-37 54 -58 71t-59 17zM116 548 q0 16 11.5 27.5t27.5 11.5t27.5 -11.5t11.5 -27.5q0 -17 -11.5 -28.5t-27.5 -11.5t-27.5 11.5t-11.5 28.5zM282 548q0 16 11.5 27.5t27.5 11.5t27.5 -11.5t11.5 -27.5t-11.5 -28t-27.5 -12t-27.5 11.5t-11.5 28.5z" />
<glyph unicode="&#x2d8;" horiz-adv-x="573" d="M29 413v20h229v-20q-50 0 -64.5 -21t-14.5 -95v-142q0 -127 118 -127q55 0 88.5 32t33.5 95v142q0 75 -14.5 95.5t-64.5 20.5v20h204v-20q-50 0 -64.5 -21t-14.5 -95v-135q0 -84 -53 -133q-49 -45 -126 -45t-126 45q-52 49 -52 133v135q0 75 -14.5 95.5t-64.5 20.5z M163 596q0 29 28 29q21 0 45 -23l93 -88l-5 -6l-138 58q-23 10 -23 30z" />
<glyph unicode="&#x2da;" horiz-adv-x="573" d="M29 413v20h229v-20q-50 0 -64.5 -21t-14.5 -95v-142q0 -127 118 -127q55 0 88.5 32t33.5 95v142q0 75 -14.5 95.5t-64.5 20.5v20h204v-20q-50 0 -64.5 -21t-14.5 -95v-135q0 -84 -53 -133q-49 -45 -126 -45t-126 45q-52 49 -52 133v135q0 75 -14.5 95.5t-64.5 20.5z M169 520l119 129l120 -129l-13 -12l-107 76l-106 -76z" />
<glyph unicode="&#x2db;" horiz-adv-x="540" d="M38 0v21q62 0 78.5 21t16.5 96v337q0 66 -17.5 85t-77.5 19v21h270v-21q-60 0 -77.5 -19t-17.5 -85h89q99 0 159 -50q56 -47 56 -119t-56 -119q-60 -49 -159 -49h-89q0 -75 16.5 -96t78.5 -21v-21h-270zM213 174h88q62 0 96 39q31 35 31 93t-31 93q-34 39 -96 39h-88 v-264z" />
<glyph unicode="&#x2dc;" horiz-adv-x="458" d="M83 199v44h292v-44h-292zM182 84q0 20 13.5 34.5t32.5 14.5q20 0 34.5 -14.5t14.5 -34.5q0 -19 -14.5 -33.5t-34.5 -14.5q-19 0 -32.5 14t-13.5 34zM182 358q0 20 13.5 34.5t32.5 14.5q20 0 34.5 -14.5t14.5 -34.5q0 -19 -15 -33.5t-34 -14.5t-32.5 14.5t-13.5 33.5z" />
<glyph unicode="&#x2dd;" horiz-adv-x="483" d="M-4 413v20h222v-20q-54 0 -54 -23q0 -16 25 -53l78 -115l77 115q27 41 27 56q0 20 -55 20v20h188v-20q-39 0 -65 -20q-22 -16 -57 -68l-99 -146v-42q0 -75 14.5 -96t65.5 -21v-20h-230v20q51 0 65.5 21t14.5 96v41l-100 147q-37 54 -58 71t-59 17zM209 515l93 87 q26 24 44 24q28 0 28 -29q0 -20 -23 -30l-137 -59z" />
<glyph unicode="&#x3a9;" horiz-adv-x="853" d="M87 574v21l126 26v-232q0 -46 6 -59q11 -22 51 -22v-21h-172v21q41 0 52 22q6 13 6 59v110q0 49 -15 64q-13 12 -54 11zM217 0l383 618l36 -18l-383 -618zM531 236q0 38 32 66t85 28q50 0 86.5 -27t36.5 -72q0 -49 -60 -103l-89 -80h159l-9 -48h-234v23l133 118 q43 38 43 82q0 70 -71 70q-23 0 -41 -16.5t-18 -41.5q0 -23 16 -47l-27 -25q-42 29 -42 73z" />
<glyph unicode="&#x2000;" horiz-adv-x="408" />
<glyph unicode="&#x2001;" horiz-adv-x="816" />
<glyph unicode="&#x2002;" horiz-adv-x="408" />
<glyph unicode="&#x2003;" horiz-adv-x="816" />
<glyph unicode="&#x2004;" horiz-adv-x="272" />
<glyph unicode="&#x2005;" horiz-adv-x="204" />
<glyph unicode="&#x2006;" horiz-adv-x="136" />
<glyph unicode="&#x2007;" horiz-adv-x="136" />
<glyph unicode="&#x2008;" horiz-adv-x="102" />
<glyph unicode="&#x2009;" horiz-adv-x="163" />
<glyph unicode="&#x200a;" horiz-adv-x="45" />
<glyph unicode="&#x2010;" horiz-adv-x="458" d="M83 199v44h292v-44h-292z" />
<glyph unicode="&#x2011;" horiz-adv-x="458" d="M83 199v44h292v-44h-292z" />
<glyph unicode="&#x2012;" horiz-adv-x="458" d="M83 199v44h292v-44h-292z" />
<glyph unicode="&#x2013;" horiz-adv-x="713" d="M17 279v45h116v139q0 75 -16.5 95.5t-78.5 20.5v21h271q166 0 254 -88q80 -80 80 -212t-80 -212q-88 -88 -254 -88h-271v21q62 0 78.5 21t16.5 96v141h-116zM208 153q0 -75 17 -95.5t79 -20.5h5q135 0 196 88q46 66 46 175t-46 175q-61 88 -196 88h-101v-239h100v-45 h-100v-126z" />
<glyph unicode="&#x2014;" d="M38 497l19 103h243v-23l-139 -277q-17 -34 -35 -34q-27 0 -27 25q0 12 9 27l148 234h-128q-54 0 -63 -38l-4 -17h-23z" />
<glyph unicode="&#x2018;" horiz-adv-x="563" d="M25 163v22q41 0 52 22q6 13 6 59v36q0 46 -6 59q-11 22 -52 22v20l103 20q8 -24 11 -49q42 48 92 48q59 0 77 -50q41 50 100 50q86 0 86 -110v-46q0 -46 6 -59q11 -22 51 -22v-22h-159v22q31 0 38 13t7 68v42q0 73 -52 73q-19 0 -41 -18q-27 -21 -27 -50v-47q0 -55 7 -68 t38 -13v-22h-148v22q31 0 38 13t7 68v42q0 73 -51 73q-19 0 -41 -18q-27 -21 -27 -50v-47q0 -50 3 -58q7 -23 42 -23v-22h-160z" />
<glyph unicode="&#x2019;" horiz-adv-x="808" d="M71 300q0 131 98 224t235 93q138 0 236 -93t98 -224t-98 -224t-236 -93q-137 0 -235 93t-98 224zM166 300q0 -108 55 -185q65 -92 183 -92q119 0 184 92q55 77 55 185t-55 186q-65 92 -184 92q-118 0 -183 -92q-55 -78 -55 -186zM262 683q0 43 18.5 70.5t45.5 27.5 q21 0 65 -27.5t61 -27.5q32 0 43 47h16q0 -46 -19 -72.5t-50 -26.5q-18 0 -63.5 27.5t-59.5 27.5q-31 0 -42 -46h-15z" />
<glyph unicode="&#x201a;" horiz-adv-x="514" d="M3 0v21q45 0 61.5 14.5t41.5 72.5l147 342h14l147 -342q24 -56 41 -71.5t57 -15.5v-21h-224v21q67 0 67 30q0 15 -13 46l-20 46h-164l-20 -46q-15 -35 -15 -49q0 -27 69 -27v-21h-189zM137 520l119 129l119 -129l-12 -12l-107 76l-107 -76zM174 180h132l-66 153z" />
<glyph unicode="&#x201c;" horiz-adv-x="196" d="M13 163v22q40 0 50 23q6 12 6 58v227q0 46 -5 58q-11 23 -51 23v21l114 20v-349q0 -46 6 -58q10 -23 51 -23v-22h-171z" />
<glyph unicode="&#x201d;" horiz-adv-x="403" d="M25 163v22q41 0 52 22q6 13 6 59v36q0 46 -6 59q-11 22 -52 22v20l103 20q8 -20 11 -49q42 48 98 48q48 0 74 -32q23 -29 23 -78v-46q0 -46 6 -58q10 -23 51 -23v-22h-172v22q40 0 51 22q6 13 6 59v42q0 73 -62 73q-23 0 -47 -18q-27 -21 -27 -50v-47q0 -50 5 -60 q8 -21 46 -21v-22h-166z" />
<glyph unicode="&#x201e;" horiz-adv-x="514" d="M3 0v21q45 0 61.5 14.5t41.5 72.5l147 342h14l147 -342q24 -56 41 -71.5t57 -15.5v-21h-224v21q67 0 67 30q0 15 -13 46l-20 46h-164l-20 -46q-15 -35 -15 -49q0 -27 69 -27v-21h-189zM133 518q0 42 18.5 69.5t45.5 27.5q21 0 65 -27.5t61 -27.5q30 0 43 48h16 q0 -47 -19 -73.5t-50 -26.5q-18 0 -63.5 27.5t-59.5 27.5q-31 0 -42 -45h-15zM174 180h132l-66 153z" />
<glyph unicode="&#x2022;" horiz-adv-x="625" d="M-38 579v21h285v-21q-72 0 -72 -32q0 -16 18 -44l144 -220l146 220q21 31 21 47q0 29 -75 29v21h234v-21q-58 0 -89 -21q-23 -16 -56 -66l-141 -214h98v-44h-122v-46h122v-44h-122v-6q0 -75 16.5 -96t78.5 -21v-21h-270v21q62 0 78.5 21t16.5 96v6h-150v44h150v46h-150 v44h122l-138 214q-32 50 -62 68.5t-83 18.5z" />
<glyph unicode="&#x2026;" d="M22 379v18l172 229h24v-213q41 0 53 51l4 17h21l-6 -102h-72q0 -41 8 -54q11 -17 49 -17v-21h-172v21q39 0 50 18q8 12 8 53h-139zM72 413h89v118z" />
<glyph unicode="&#x202f;" horiz-adv-x="163" />
<glyph unicode="&#x2039;" d="M42 443q0 72 37 123t89 51t89 -51t37 -123q0 -71 -37 -122t-89 -51t-89 51t-37 122zM101 443q0 -61 16 -99q18 -43 51 -43t52 43q16 38 16 99q0 62 -16 100q-19 43 -52 43t-51 -43q-16 -38 -16 -100z" />
<glyph unicode="&#x203a;" horiz-adv-x="625" d="M-38 579v21h285v-21q-72 0 -72 -32q0 -16 18 -44l144 -220l146 220q21 31 21 47q0 29 -75 29v21h234v-21q-58 0 -89 -21q-23 -16 -56 -66l-165 -250v-104q0 -75 16.5 -96t78.5 -21v-21h-270v21q62 0 78.5 21t16.5 96v97l-166 257q-33 50 -62.5 68.5t-82.5 18.5zM298 682 l93 87q26 24 44 24q28 0 28 -29q0 -20 -23 -30l-137 -59z" />
<glyph unicode="&#x205f;" horiz-adv-x="204" />
<glyph unicode="&#x20ac;" horiz-adv-x="749" d="M23 579v21h270v-21q-62 0 -78.5 -20.5t-16.5 -95.5v-245q0 -94 50 -144q46 -46 125 -46q83 0 131 46q53 50 53 144v245q0 75 -17 95.5t-79 20.5v21h234v-21q-62 0 -79 -20.5t-17 -95.5v-240q0 -114 -71 -179q-66 -61 -170 -61t-169 61q-71 66 -71 179v240 q0 75 -16.5 95.5t-78.5 20.5zM261 687l119 129l119 -129l-12 -12l-107 76l-107 -76z" />
<glyph unicode="&#x2122;" d="M45 226q0 43 34 73.5t82 30.5q47 0 80 -29q47 -39 47 -123q0 -76 -34 -132q-39 -63 -101 -63q-37 0 -63 17t-26 35q0 17 19 17q6 0 25.5 -18.5t43.5 -18.5q64 0 79 127q-29 -20 -64 -20q-49 0 -85.5 30.5t-36.5 73.5zM103 226q0 -28 16 -50q19 -25 48 -25q51 0 66 37 q-1 52 -23 84q-20 29 -49 29q-28 0 -43 -23.5t-15 -51.5z" />
<glyph unicode="&#x2248;" horiz-adv-x="293" d="M25 218q0 76 154 105q0 35 -5 48q-10 21 -40 21q-38 0 -38 -29.5t-28 -29.5t-28 28q0 26 29 43.5t66 17.5q54 0 78 -24t24 -77v-109q0 -24 13 -24q10 0 20 13l14 -20q-22 -25 -51 -25q-43 0 -52 37q-46 -39 -87 -39q-29 0 -49 17.5t-20 46.5zM88 223q0 -30 29 -30 q25 0 62 33v67q-91 -22 -91 -70z" />
<glyph unicode="&#x25ca;" horiz-adv-x="0" />
<glyph unicode="&#xfb01;" horiz-adv-x="433" d="M46 0v20q50 0 64.5 21t14.5 96v160q0 75 -14.5 95.5t-64.5 20.5v20h229v-20q-45 0 -60.5 -15.5t-17.5 -67.5h56q160 0 160 -106q0 -108 -160 -108h-57q1 -55 12 -71q15 -25 67 -25v-20h-229zM196 153h57q82 0 82 70t-82 70h-57v-140z" />
<glyph unicode="&#xfb02;" horiz-adv-x="598" d="M38 0v21q50 0 64.5 21t14.5 96v160h-79v20q50 0 64.5 20t14.5 89v2q0 95 51 145q44 43 113 43q46 0 75 -26q25 -23 25 -50q0 -34 -33 -34q-23 0 -37.5 38.5t-47.5 38.5q-39 0 -57 -34q-18 -37 -18 -121v-429h-150zM318 -17v146h20q0 -39 28 -73q32 -39 82 -39q24 0 40 15 t16 36q0 30 -56 61l-55 30q-67 37 -67 100q0 39 32 66q29 25 70 25q30 0 56.5 -11.5l26.5 -11.5q7 0 7 23h21v-116h-21q0 33 -22 58.5t-59 25.5q-51 0 -51 -43q0 -28 61 -61l48 -26q69 -37 69 -96q0 -48 -34.5 -78.5t-84.5 -30.5q-27 0 -58.5 16t-36.5 16q-12 0 -12 -32h-20 z" />
<glyph horiz-adv-x="558" d="M42 199v44h83v54q0 75 -14.5 95.5t-64.5 20.5v20h212q121 0 186 -64q58 -57 58 -152t-58 -153q-65 -64 -186 -64h-212v20q50 0 64.5 21t14.5 96v62h-83zM196 113q0 -45 6 -56q10 -20 51 -20h8q158 0 158 180t-158 180h-65v-154h95v-44h-95v-86z" />
<glyph horiz-adv-x="522" d="M19 -166q50 0 64.5 21t14.5 96v245q0 75 -14.5 96t-64.5 21v20h150v-195q0 -107 84 -107q28 0 61 26q39 31 39 73v66q0 75 -14.5 96t-65.5 21v20h150v-187q0 -75 14.5 -96t65.5 -21v-21l-134 -25q-8 16 -16 64q-62 -64 -131 -64q-26 0 -53 9v-41q0 -75 14.5 -96t64.5 -21 v-21h-229v21z" />
</font>
</defs>
</svg>
