<?xml version="1.0" standalone="no"?>
<!DOCTYPE svg PUBLIC "-//W3C//DTD SVG 1.1//EN" "http://www.w3.org/Graphics/SVG/1.1/DTD/svg11.dtd" >
<svg xmlns="http://www.w3.org/2000/svg" xmlns:xlink="http://www.w3.org/1999/xlink" version="1.1">
<metadata></metadata>
<defs>
<font id="scaly_sansbold" horiz-adv-x="1202" >
<font-face units-per-em="2048" ascent="1638" descent="-410" />
<missing-glyph horiz-adv-x="512" />
<glyph unicode="&#xd;" horiz-adv-x="512" />
<glyph horiz-adv-x="0" />
<glyph unicode=" "  horiz-adv-x="512" />
<glyph unicode="&#x09;" horiz-adv-x="512" />
<glyph unicode="&#xa0;" horiz-adv-x="512" />
<glyph unicode="!" horiz-adv-x="577" d="M121 90q0 61 48 109.5t120 48.5t120 -48.5t48 -109.5t-48.5 -109.5t-119.5 -48.5q-72 0 -120 48.5t-48 109.5zM147 1548h283l-12 -1190h-258z" />
<glyph unicode="#" horiz-adv-x="1282" d="M31 397l35 199h239l39 184h-238l35 199h240l82 410h225l-80 -410h191l80 410h229l-80 -410h227l-34 -199h-232l-35 -184h234l-35 -199h-240l-84 -438h-229l84 438h-190l-88 -438h-228l88 438h-235zM532 596h191l37 184h-191z" />
<glyph unicode="$" horiz-adv-x="1097" d="M61 109l134 206q78 -51 98 -64t35.5 -22.5t31 -16.5t29.5 -15q37 -14 66.5 -20.5t33.5 -6.5v426l-63 37q-82 49 -140.5 92t-96 89t-55 94t-17.5 108q0 162 108.5 266t263.5 123l3 129h192v-123q-10 0 18.5 -2t53 -5t50 -9t54.5 -15q45 -16 81 -33.5t128 -70.5l-121 -219 q-72 47 -89 55t-30.5 15.5t-29 13.5t-33.5 14q-25 8 -40 13.5t-27.5 7.5t-30 4t15.5 0v-408q-4 2 4 -2t17 -8q84 -49 138 -83t81 -56q57 -45 88.5 -118t31.5 -153q0 -90 -34.5 -171t-102.5 -136q-27 -23 -53.5 -40t-57 -29.5t-68.5 -21.5t-44 -9v-127h-192l-3 116 q-45 2 -101 12.5t-112 35.5q-41 16 -78.5 37.5t-136.5 89.5zM385 1028q0 -74 66 -117q78 -53 81 -57q10 -8 -16.5 8.5t-26.5 -63.5v372q-104 -18 -104 -143zM647 514q-16 14 37 14v-348q10 2 51 46.5t41 105.5t-12 82q-10 14 -117 100z" />
<glyph unicode="%" horiz-adv-x="1843" d="M70 1014q0 80 31.5 152.5t86 128t130 88t161.5 32.5t162 -32.5t131 -88t86 -128t31 -152.5t-31 -153t-86 -128t-131 -87t-162 -32t-161.5 32t-130 87t-86 128t-31.5 153zM170 -131l1235 1589h262l-1235 -1589h-262zM297 1014q0 -43 15.5 -79t41 -61.5t57 -40t68.5 -14.5 t70 14.5t58.5 40t41 61.5t15.5 79t-15.5 78.5t-41 61.5t-58.5 40t-70 14t-68.5 -14t-57 -40t-41 -61.5t-15.5 -78.5zM954 332q0 80 31 152.5t86 128t131 87t162 31.5t162 -31.5t130 -87t86 -128t32 -152.5t-32 -153t-86 -127t-130 -87t-162 -33t-162 33t-131 87t-86 127 t-31 153zM1180 332q0 -43 15 -78t41 -60.5t58.5 -40t69.5 -14.5t68.5 14.5t57.5 40t41 60.5t15 78t-15 78.5t-41 61.5t-57.5 40t-68.5 14t-69.5 -14t-58.5 -40t-41 -61.5t-15 -78.5z" />
<glyph unicode="&#x26;" horiz-adv-x="1554" d="M68 342q0 57 14 108.5t47 101.5t83 101.5t124 112.5l59 49q0 2 -19.5 26.5t-35.5 47.5q-63 86 -89 149.5t-26 137.5q0 82 32 151.5t92.5 121.5t143 79.5t183.5 27.5q92 0 169 -24.5t133 -68.5t87 -105.5t31 -132.5q0 -78 -52.5 -158t-146.5 -152l-139 -102l-135 172 l112 84q53 43 74.5 76t21.5 76q0 55 -43 88.5t-114 33.5q-78 0 -130 -44t-52 -113q0 -23 8 -53q6 -23 12 -39.5t18.5 -38t34 -52t58.5 -79.5l354 -494q-23 -23 -8.5 -4.5t26 35t20.5 34t17 37.5t14.5 41t10.5 42.5t8 52t12 108.5h244q-8 -92 -12 -126t-9.5 -63.5t-13.5 -54 t-18 -51.5q-14 -33 -29.5 -61.5t-36 -57t-48.5 -60.5t-44 -52q39 -49 69.5 -70.5t59.5 -21.5t60.5 25.5t119.5 154.5l178 -121q-37 -57 -52 -78.5t-27.5 -38t-25.5 -31t-32 -32.5q-102 -102 -241 -103q-35 0 -68 6.5t-64 18.5q-49 20 -89 53t-64 60q-59 -55 -162.5 -97.5 t-239.5 -42.5q-104 0 -190 30t-147.5 85t-94 130t-32.5 165zM338 360q0 -98 60.5 -151t164.5 -53q70 0 125 24q27 12 53.5 29.5t57.5 42.5l-273 381l-39 -31q-84 -68 -116.5 -120t-32.5 -122z" />
<glyph unicode="'" horiz-adv-x="450" d="M106 848v545h244v-545h-244z" />
<glyph unicode="(" horiz-adv-x="651" d="M135 436q0 174 35 334t106 336q29 68 48.5 111t36 71.5t35 52t63.5 64.5h272q-113 -131 -162 -233.5t-84.5 -223.5t-56 -255t-20.5 -263q0 -131 20.5 -264t56 -254t84.5 -222.5t162 -232.5h-276q-43 53 -62.5 79t-37 57.5t-36 70.5t-43.5 100q-72 170 -106.5 333 t-34.5 339z" />
<glyph unicode=")" horiz-adv-x="663" d="M-70 -543q113 131 162 232.5t85 222.5t56.5 254t20.5 264q0 129 -20.5 263t-56.5 255t-85 223.5t-162 233.5h275q41 -41 60.5 -63.5t35.5 -52t35.5 -72.5t48.5 -111q72 -176 106.5 -336t34.5 -334t-33.5 -331.5t-107.5 -340.5q-23 -55 -41 -94t-35.5 -70.5t-38 -59 t-61.5 -83.5h-279z" />
<glyph unicode="*" horiz-adv-x="1071" d="M-4 938l72 223l421 -153l-65 -191zM125 553l268 340l172 -123l-241 -360zM395 1393h252l-18 -428h-217zM473 770l170 127l268 -342l-196 -145zM545 1008l422 153l71 -223l-428 -121z" />
<glyph unicode="+" horiz-adv-x="1124" d="M2 385v199h428v428h217v-428h428v-199h-428v-426h-217v426h-428z" />
<glyph unicode="," horiz-adv-x="434" d="M23 -338q37 86 45 106.5t22 61.5q6 20 11 34.5t7.5 28t6.5 27.5t6 25l-94 235q68 47 101.5 56.5t76.5 9.5q168 0 168 -172q0 -51 -19 -117q-6 -25 -14 -48.5t-20.5 -49t-26.5 -54t-35 -69.5l-41 -74h-194z" />
<glyph unicode="-" horiz-adv-x="614" d="M51 348v238h494v-238h-494z" />
<glyph unicode="." horiz-adv-x="405" d="M12 92q0 61 47 108.5t121 47.5q72 0 119 -47.5t47 -108.5q0 -63 -47 -110.5t-119 -47.5q-74 0 -121 47.5t-47 110.5z" />
<glyph unicode="/" horiz-adv-x="710" d="M-84 -543l539 1936h245l-538 -1936h-246z" />
<glyph unicode="0" d="M66 657q0 147 42 280.5t114.5 234t177 162t227.5 61.5q121 0 225 -61.5t177 -162t115 -234t42 -280.5t-42 -279t-115 -232.5t-177 -162t-225 -61.5q-123 0 -227.5 61.5t-177 162t-114.5 232.5t-42 279zM322 657q0 -104 26.5 -195t70.5 -156.5t97 -99.5t111 -34 q57 0 109 34t96.5 99.5t71 156.5t26.5 195q0 106 -26.5 195.5t-71 155t-97.5 100.5t-108 35t-109.5 -35t-98.5 -100.5t-70.5 -154.5t-26.5 -196z" />
<glyph unicode="1" d="M211 1137v260h616v-1438h-307v1178h-309z" />
<glyph unicode="2" d="M125 -41v160l483 571q94 106 94 248q0 90 -38.5 139t-90.5 49q-23 0 -50 -10t-48 -29q-14 -12 -24.5 -22t-23.5 -28.5t-34.5 -47t-91.5 -133.5l-172 176q49 76 69.5 107.5t36 53t28.5 38t32 35.5q55 59 133 94t162 35q178 0 276.5 -125t98.5 -324q0 -104 -27 -188 q-10 -33 -23.5 -62.5t-36 -64.5t-56.5 -76t-83 -100l-209 -238h521v-258h-926z" />
<glyph unicode="3" d="M180 1241q51 47 72.5 63.5t38.5 28.5q63 41 142 66.5t157 25.5q150 0 236.5 -89t86.5 -232q0 -236 -143 -307q-47 14 -23.5 5t50.5 -22q90 -51 137 -135.5t47 -193.5q0 -121 -49 -218.5t-139.5 -168t-217 -108.5t-278.5 -38h-102v211q117 4 167 8t87.5 12.5t67.5 19.5 t63 30q70 39 108.5 101t38.5 136q0 102 -60.5 153.5t-177.5 51.5h-153v184q182 41 254 104.5t72 157.5q0 61 -28 91t-73 30q-20 0 -36.5 -4t-37 -14t-49 -29.5t-108.5 -87.5z" />
<glyph unicode="4" d="M51 348v90l744 983h151v-862h238v-211h-238v-430h-250v430h-645zM375 559h321l-2 459l-12 -180l84 163l-354 -473l41 47z" />
<glyph unicode="5" d="M240 -72v211q98 4 130.5 7.5t57.5 6.5t46.5 9t47.5 14q92 29 142.5 98.5t50.5 176.5q0 143 -78 217q-29 27 -76 40t-133 17l-149 6v699h657v-211h-408v-283l33 -2q197 -16 306.5 -143t109.5 -330q0 -131 -59.5 -240.5t-165.5 -181.5q-92 -57 -215 -82q-29 -8 -52.5 -11 t-50 -6t-60.5 -5.5t-134 -6.5z" />
<glyph unicode="6" d="M133 545q0 377 205 637q94 119 215 175t285 56q33 0 60.5 -2t123.5 -10v-211q-94 10 -113.5 11t-46.5 1q-43 0 -83 -4t-66 -14q-92 -31 -178 -135q-31 -39 -53.5 -72t-39 -71t-29 -86t-10.5 -32q-37 -18 -15 -7.5t46 20.5q63 25 127 37t123 12q90 0 165 -33t127 -89 t79.5 -132t27.5 -166q0 -109 -32.5 -202t-94 -161.5t-147.5 -109.5t-191 -41q-115 0 -207 47t-154 130t-93 196.5t-31 255.5zM385 498q0 -86 19.5 -156t53.5 -116t74.5 -68.5t90.5 -22.5q43 0 82.5 19.5t70.5 55.5t50.5 89.5t19.5 114.5q0 51 -16.5 93t-42 70.5t-59.5 43 t-75 14.5q-18 0 -46.5 -4t-59.5 -13q-25 -6 -44.5 -12t-40 -15t-44 -19.5t-33.5 -14.5v-26.5v-32.5z" />
<glyph unicode="7" d="M141 1186v223h901v-125l-299 -754q-20 -49 -46.5 -105t-61.5 -120q-29 -53 -53.5 -93t-49 -77t-55.5 -77t-110 -134l-191 162q51 59 71.5 84t33.5 39q70 90 134 203.5t103 220.5l213 553h-590z" />
<glyph unicode="8" d="M121 303q0 90 37 162q23 43 68.5 98t86.5 86l109 86l-98 82q-41 35 -71 65.5t-47.5 61.5t-24.5 61.5t-7 69.5q0 78 32 142.5t90 112.5t137 74t175 26q88 0 165 -24t131 -67t85 -102t31 -131q0 -156 -143 -272l-109 -86l135 -115q39 -29 76 -78q55 -66 74.5 -119 t19.5 -131q0 -82 -36 -150.5t-102.5 -119.5t-156.5 -79t-196 -28q-102 0 -186.5 28t-146 78t-95 118.5t-33.5 150.5zM385 319q0 -88 51 -131t152 -43q106 0 162.5 45t56.5 129q0 47 -26.5 90.5t-94.5 104.5l-92 84l-90 -74q-119 -94 -119 -205zM436 1090q0 -72 86 -146 l74 -61l80 63q35 29 56.5 73t21.5 87q0 57 -42 89t-120 32q-70 0 -113 -38t-43 -99z" />
<glyph unicode="9" d="M143 911q0 109 33 201t94.5 163t147.5 111.5t190 40.5q233 0 359.5 -171.5t126.5 -458.5q0 -184 -51.5 -345t-151.5 -288q-94 -121 -216 -178.5t-286 -57.5q-33 0 -59.5 2t-122.5 11v213q94 -10 112.5 -12.5t45.5 -2.5q90 0 149 21q45 12 91 47t89 86q33 37 54.5 70.5 t38 71.5t28.5 87t10 31q37 20 14.5 10t-42.5 -18q-131 -53 -254 -53q-90 0 -165 32.5t-127 89t-80 132t-28 165.5zM383 928q0 -102 54.5 -161.5t137.5 -59.5q18 0 46 3t59 13q49 12 86 26.5t76 34.5v27v33q0 88 -19.5 157.5t-52.5 115.5t-74 68.5t-92 22.5q-43 0 -83 -19.5 t-70.5 -55t-49 -90t-18.5 -115.5z" />
<glyph unicode=":" horiz-adv-x="520" d="M86 92q0 61 47 108.5t121 47.5q72 0 119 -47.5t47 -108.5q0 -63 -47 -110.5t-119 -47.5q-74 0 -121 47.5t-47 110.5zM86 838q0 61 47 108t121 47q72 0 119 -47t47 -108q0 -63 -47 -110.5t-119 -47.5q-74 0 -121 47t-47 111z" />
<glyph unicode=";" horiz-adv-x="538" d="M68 -338q43 86 50 106.5l21 61.5q8 20 13.5 34.5t7.5 28t6 27.5t6 25l-94 235q66 47 99.5 56.5t78.5 9.5q168 0 168 -172q0 -51 -18 -117q-12 -49 -32 -96t-65 -125l-43 -74h-198zM104 838q0 61 47.5 108t118.5 47q74 0 121 -47t47 -108q0 -63 -47 -110.5t-121 -47.5 q-72 0 -119 47t-47 111z" />
<glyph unicode="&#x3c;" horiz-adv-x="1163" d="M18 406v159l1069 475v-223l-755 -332l755 -331v-224z" />
<glyph unicode="=" horiz-adv-x="1294" d="M78 233v199h1126v-199h-1126zM78 518v199h1126v-199h-1126z" />
<glyph unicode="&#x3e;" horiz-adv-x="1198" d="M82 -70v224l756 331l-756 332v223l1069 -475v-159z" />
<glyph unicode="?" horiz-adv-x="851" d="M74 1323l78 240q94 -23 128.5 -30t63.5 -17.5t53.5 -21.5t51.5 -28q76 -43 133 -103t98 -132t62.5 -153t21.5 -165q0 -86 -21.5 -147t-78.5 -119q-23 -20 -44.5 -37.5t-48 -27t-56.5 -13.5t-69 -4h-53v-219h-256v442h330q16 20 25.5 49t9.5 72q0 82 -28 153t-76 123 t-116.5 86t-207.5 52zM98 92q0 61 47.5 108.5t120.5 47.5q72 0 119 -47.5t47 -108.5q0 -63 -47 -110.5t-119 -47.5q-74 0 -121 47.5t-47 110.5z" />
<glyph unicode="@" horiz-adv-x="1974" d="M106 446q0 197 67 361t187.5 285.5t288.5 189.5t371 68q186 0 341 -60.5t265.5 -168t172 -256t61.5 -322.5q0 -135 -38 -246t-111 -190.5t-178.5 -122.5t-236.5 -43q-264 0 -264 235q0 23 3 54.5t12 66.5l-54 -250q113 190 57.5 123.5t-116 -113.5t-126 -75.5 t-128.5 -28.5q-96 0 -141 99.5t-45 244.5q0 147 37.5 277.5t108.5 228.5t169 157.5t217 59.5q29 0 61.5 -3t69.5 -7q29 -6 49.5 -10.5t43 -9.5t47 -12t94.5 -30l-111 -698q-4 -29 -6 -49.5t-2 -32.5q0 -20 16.5 -32.5t42.5 -12.5q12 0 35 6t45 14q215 96 215 387 q0 129 -48 240t-130 191.5t-190.5 127t-231.5 46.5q-145 0 -269 -50.5t-215 -139.5t-142.5 -216t-51.5 -278q0 -162 55.5 -279t174.5 -209q90 -70 179 -98.5t214 -28.5q45 0 80.5 3t68.5 10.5t67 19.5t130 53l78 -198q-84 -41 -107 -50q-137 -53 -321 -53q-90 0 -167 10.5 t-145.5 33t-131 59t-124.5 86.5q-154 123 -223.5 278.5t-69.5 357.5zM758 291q0 -86 12 -86q2 0 30.5 21.5t73.5 68.5q20 18 41 47t48 64q59 90 94 158.5t49 144.5l18 79q-10 4 -41.5 11.5t-60.5 7.5q-45 0 -91 -36t-86 -105.5t-63.5 -167t-23.5 -207.5z" />
<glyph unicode="A" horiz-adv-x="1255" d="M-49 -41l532 1473h258l531 -1473h-287l-139 399h-469l-139 -399h-287zM459 594h305l-152 428z" />
<glyph unicode="B" horiz-adv-x="1181" d="M117 -41v1434h489q106 0 178 -21.5t131 -77.5q55 -53 87 -124.5t32 -149.5q0 -121 -70 -214q-55 -74 -55 -85q0 -2 2 -2h2q4 0 88 -102.5t84 -256.5q0 -86 -29.5 -158.5t-83.5 -128t-133 -85t-171 -29.5h-551zM387 182h180q84 0 120 9.5t61 29.5t41 62.5t16 89.5 q0 102 -60.5 153.5t-177.5 51.5h-180v-396zM387 813h168q33 0 55.5 2t37 7t26.5 13.5t28 24.5q52 52 52 146q0 86 -45 131q-16 18 -44 25t-98 7h-180v-356z" />
<glyph unicode="C" horiz-adv-x="1216" d="M41 682q0 154 55.5 287t152.5 233.5t231 157.5t292 57q139 0 275 -49q49 -16 81.5 -34.5t116.5 -76.5l-133 -200q-119 82 -188.5 103.5t-157.5 21.5q-96 0 -175 -34t-137.5 -98.5t-93 -155.5t-34.5 -202q0 -121 34.5 -219t96 -164.5t148.5 -102.5t194 -36 q80 0 145.5 13.5t196.5 68.5l76 -209q-66 -33 -90.5 -42t-46 -17.5t-43 -14.5t-48.5 -12q-55 -14 -102 -19.5t-99 -5.5q-166 0 -304 56.5t-237.5 158t-152.5 237.5t-53 298z" />
<glyph unicode="D" horiz-adv-x="1429" d="M117 -41v1434h501q160 0 295.5 -54.5t232.5 -149.5t150.5 -225t53.5 -282q0 -139 -49.5 -271t-143.5 -237q-98 -117 -225 -166t-316 -49h-499zM387 182h205q123 0 195.5 24.5t127.5 82.5q35 35 64 82t49.5 99t31.5 107.5t11 106.5q0 106 -37 196.5t-101.5 154t-151.5 99 t-189 35.5h-205v-987z" />
<glyph unicode="E" horiz-adv-x="1046" d="M117 -41v1434h862v-224h-592v-368h490v-223h-490v-396h610v-223h-880z" />
<glyph unicode="F" horiz-adv-x="993" d="M117 -41v1434h862v-224h-592v-381h490v-225h-490v-604h-270z" />
<glyph unicode="G" horiz-adv-x="1392" d="M41 678q0 156 57.5 291t158.5 234.5t242.5 155.5t307.5 56q76 0 156.5 -8t140.5 -25q49 -14 84 -29.5t125 -64.5l-101 -221q-76 45 -93 53t-27 15q-51 20 -122 33.5t-147 13.5q-131 0 -218 -35t-156 -119q-59 -70 -92 -157t-33 -181q0 -117 41 -213t113.5 -164.5 t169.5 -107.5t212 -39q47 0 89 6t83 14v459h271v-620q-63 -23 -90 -32t-44 -13q-74 -23 -170 -35.5t-186 -12.5q-166 0 -307 58.5t-244.5 159t-162 236.5t-58.5 292z" />
<glyph unicode="H" horiz-adv-x="1492" d="M117 -41v1434h270v-580h694v580h271v-1434h-271v619h-694v-619h-270z" />
<glyph unicode="I" horiz-adv-x="528" d="M117 -41v1434h270v-1434h-270z" />
<glyph unicode="J" horiz-adv-x="540" d="M-98 -389q59 66 81.5 93.5t39 48t26.5 36.5t21 35q27 55 42 130t15 163v1276h270v-1436q-14 -47 -24.5 -80t-22.5 -61.5t-27.5 -56t-35.5 -58.5q-18 -29 -36 -53.5t-37 -48t-43 -47t-93 -91.5z" />
<glyph unicode="K" horiz-adv-x="1130" d="M117 -41v1434h270v-1434h-270zM289 682l559 711h315l-561 -699l586 -735h-328z" />
<glyph unicode="L" horiz-adv-x="991" d="M117 -41v1434h270v-1211h604v-223h-874z" />
<glyph unicode="M" horiz-adv-x="1712" d="M117 -41v1434h319l424 -1110q21 -58 21 -66q0 -21 -60 -98q-24 81 -24 106q1 5 1 7q6 18 15 49l438 1112h320v-1434h-271v778q2 395 40 395h4q42 -20 36 -38.5t-13 -39t-17 -48.5l-412 -1047h-229l-383 1022q-10 29 -17.5 48.5t-13.5 40t38 39.5q2 1 3 1q37 0 37 -378 v-75v-698h-256z" />
<glyph unicode="N" horiz-adv-x="1468" d="M117 -41v1434h301l684 -1053q4 -6 10 -16.5t12 -22.5q4 -14 8.5 -23.5t14.5 -35.5q5 -10 5 -13t-95 142v1022h270v-1446h-276l-699 1079q-4 8 -11 19.5t-15 27.5q-6 10 -11.5 18.5t-7.5 14.5q-4 10 37 26q2 1 4 0q37 0 39 -307v-866h-270z" />
<glyph unicode="O" horiz-adv-x="1581" d="M41 676q0 158 53 293t150.5 235.5t232.5 156.5t295 56t294 -56t232.5 -156.5t150.5 -235.5t52 -293q0 -160 -52 -294t-150.5 -235.5t-232.5 -158t-294 -56.5t-295 56.5t-232.5 158t-150.5 235.5t-53 294zM328 676q0 -109 36.5 -204t98 -163.5t141.5 -107.5t168 -39 q86 0 166 39t141.5 107.5t98 163.5t36.5 204q0 106 -36.5 201.5t-98 164t-141.5 107.5t-166 39q-88 0 -168 -39t-141.5 -107.5t-98 -164t-36.5 -201.5z" />
<glyph unicode="P" horiz-adv-x="1144" d="M117 -41v1434h475q133 0 218 -27t153 -96q59 -59 86.5 -137.5t27.5 -180.5q0 -113 -36.5 -204t-106.5 -156.5t-169 -101t-220 -35.5q-23 0 -42.5 1t-43 3t-54 5t-18.5 3v-508h-270zM387 688q25 -2 60.5 -4t68.5 -2q98 0 154 23q57 25 94 87t37 150q0 121 -62 182 q-25 25 -61.5 35t-110.5 10h-180v-481z" />
<glyph unicode="Q" horiz-adv-x="1581" d="M41 676q0 158 52 293t150.5 235.5t233.5 156.5t295 56t294 -56t232.5 -157.5t150.5 -235.5t52 -294q0 -139 -42 -261t-120.5 -219.5t-190.5 -165t-183 -79.5q-16 23 -5 10.5l33 -37.5q53 -55 105 -92q27 -20 48 -35.5t46 -29t56.5 -29t123.5 -53.5l-147 -203 q-94 49 -132 70.5t-69 41t-59.5 39t-59.5 45.5q-37 27 -65.5 53.5t-56 55.5t-54.5 60.5t-59 70.5l-17 21q-10 2 -33.5 5t-42 8t-34 9t-33.5 12q-106 35 -192.5 105.5t-149 165t-95 205t-32.5 229.5zM326 676q0 -109 36.5 -204t98 -163.5t142.5 -107.5t169 -39t168 39 t141.5 107.5t98.5 163.5t37 204q0 106 -37 201.5t-98.5 164t-141.5 107.5t-168 39t-168 -39t-141.5 -107.5t-99 -164t-37.5 -201.5z" />
<glyph unicode="R" horiz-adv-x="1181" d="M117 -41v1434h463q66 0 117 -5.5t94 -18.5t79.5 -36.5t67.5 -54.5q55 -53 87 -130t32 -161q0 -86 -34 -167t-97 -140q-45 -45 -96.5 -71.5t-71.5 -30.5l407 -619h-307l-373 580h-98v-580h-270zM387 762h168q219 0 219 223q0 111 -57 158q-12 8 -22.5 12t-26 8t-42 5 t-71.5 1h-168v-407z" />
<glyph unicode="S" horiz-adv-x="1036" d="M23 109l133 206q104 -70 133.5 -86t60.5 -28q80 -31 172 -31q100 0 152.5 41t52.5 123q0 53 -16 80q-29 55 -99 94q-14 10 -70.5 37.5t-152.5 81.5q-162 88 -236.5 180t-74.5 209q0 88 36 161.5t101.5 127t158.5 82t201 28.5q63 0 126 -9t120 -26q45 -16 81 -33.5 t128 -70.5l-121 -215q-102 57 -126.5 70.5t-53.5 21.5q-35 12 -83 19.5t-85 7.5q-96 0 -151.5 -41t-55.5 -109q0 -31 10.5 -54.5t42 -51t94 -65.5t165.5 -91q147 -80 221 -143q57 -49 88 -122t31 -153q0 -190 -134.5 -304t-361.5 -114q-150 0 -272 50q-41 16 -79 37.5 t-136 89.5z" />
<glyph unicode="T" horiz-adv-x="1042" d="M-6 1169v224h1171v-224h-450v-1210h-271v1210h-450z" />
<glyph unicode="U" horiz-adv-x="1347" d="M100 463v930h271v-879q0 -61 3 -102t10 -69t19.5 -48.5t34.5 -42.5q90 -100 242 -100t242 100q23 23 35 43t19 48t10 69t3 102v879h271v-930q0 -141 -39 -234.5t-131 -171.5q-170 -137 -408 -137q-240 0 -410 137q-94 76 -133 171.5t-39 234.5z" />
<glyph unicode="V" horiz-adv-x="1249" d="M-20 1393h286l412 -1086l10 -35q0 -20 -57 -98q-35 71 -35 93q0 9 10 40l395 1086h277l-557 -1469h-176z" />
<glyph unicode="W" horiz-adv-x="1826" d="M-20 1393h288l375 -1016l160 414l-230 602h261l98 -256l100 256h246l-223 -578l166 -434l360 1012h272l-540 -1461h-180l-207 541l-209 -541h-164z" />
<glyph unicode="X" horiz-adv-x="1226" d="M-47 -41l502 731l-480 703h310l327 -478l324 478h307l-481 -705l500 -729h-310l-342 506l-346 -506h-311z" />
<glyph unicode="Y" horiz-adv-x="1060" d="M-63 1393h292l332 -531l342 531h293l-508 -772v-662h-270v651z" />
<glyph unicode="Z" horiz-adv-x="1193" d="M39 -41v129l747 1081h-747v224h1114v-142l-747 -1069h784v-223h-1151z" />
<glyph unicode="[" horiz-adv-x="512" d="M98 -543v1936h439v-197h-181v-1542h181v-197h-439z" />
<glyph unicode="\" horiz-adv-x="837" d="M25 1393h245l539 -1936h-246z" />
<glyph unicode="]" horiz-adv-x="512" d="M-25 -346h181v1542h-181v197h439v-1936h-439v197z" />
<glyph unicode="^" horiz-adv-x="1069" d="M-23 -39l465 1049h185l465 -1049h-238l-319 727l-320 -727h-238z" />
<glyph unicode="_" horiz-adv-x="1024" d="M-51 41h1126v-199h-1126v199z" />
<glyph unicode="a" horiz-adv-x="894" d="M55 219q0 115 61.5 191.5t182.5 105.5l285 68v137q0 74 -125 74q-90 0 -90 -39q0 -6 20 -64l-248 -53q-31 55 -35 70.5t-4 35.5q0 113 110 180.5t275 67.5q162 0 258.5 -73.5t96.5 -198.5v-502v-65q0 -6 86 -21l-58 -203q-158 10 -211 49t-53 25q45 39 21.5 21.5 t-47.5 -29.5q-49 -29 -108.5 -45.5t-117.5 -16.5q-137 0 -218 80t-81 205zM311 233q0 -41 20.5 -60t53.5 -19q20 0 36.5 4t40 15t57.5 31.5t65 45.5v119l-258 -68q-6 -12 -10.5 -27.5t-4.5 -40.5z" />
<glyph unicode="b" horiz-adv-x="1103" d="M121 4v1530h256v-571q-39 -18 -16.5 -10t55.5 18q39 12 91 17t99 5q100 0 183 -36.5t140.5 -102.5t87.5 -155t30 -193q0 -127 -42 -231.5t-119 -181.5t-188.5 -119t-244.5 -42q-45 0 -102.5 6.5t-98.5 16.5q-27 6 -48.5 12t-82.5 37zM377 164q2 0 25.5 -5t58.5 -5 q39 0 67 6q35 8 67 22.5t60 34.5q68 47 94.5 109.5t26.5 173.5q0 133 -59.5 199.5t-161.5 66.5q-55 0 -100 -14.5t-78 -36.5v-551z" />
<glyph unicode="c" horiz-adv-x="987" d="M41 453q0 117 38 214t109.5 170.5t171 114.5t218.5 41q78 0 151 -20q53 -14 88 -31.5t117 -75.5l-143 -200q-94 80 -130 93t-90 13q-115 0 -187.5 -83t-72.5 -228q0 -147 74 -226t199 -79q57 0 97 14t140 88l131 -199q-59 -35 -74.5 -44t-27.5 -13q-127 -70 -283 -70 q-119 0 -216 39t-165.5 110t-106.5 165t-38 207z" />
<glyph unicode="d" horiz-adv-x="1089" d="M41 438q0 119 37 219.5t106.5 175t168 117.5t212.5 43q82 0 142.5 -17.5t27.5 9.5v549h258v-1575h-258v29q5 6 5 9q0 2 -3 3q-13 0 -66 -26q-89 -42 -192 -42q-100 0 -182 39t-138.5 107.5t-87 161t-30.5 198.5zM309 440q0 -66 16.5 -119t44 -89.5t62.5 -54t74 -17.5 q31 0 70.5 13t76.5 40q23 16 41.5 34.5t40.5 47.5v309q0 51 -2 70.5t-12 36.5q-27 53 -139 53q-121 0 -197 -84t-76 -240z" />
<glyph unicode="e" horiz-adv-x="997" d="M41 463q0 117 34 213t97.5 166.5t155.5 110.5t202 40q94 0 170 -31.5t130.5 -89t82 -135.5t27.5 -170v-131h-635q0 -117 68.5 -198.5t183.5 -81.5q51 0 94 16t168 102l103 -200q-84 -53 -129 -77t-88 -38t-87.5 -20.5t-93.5 -6.5q-109 0 -200 40t-154.5 112t-96 167 t-32.5 212zM328 633h342q-2 55 -41 97t-109 42q-76 0 -128 -45t-64 -94z" />
<glyph unicode="f" horiz-adv-x="634" d="M12 758v162l156 38v123q0 104 29.5 190.5t89 150t143.5 98t188 34.5q66 0 118 -11t151 -56l-99 -201q-94 31 -122.5 37t-57.5 6q-184 0 -184 -287v-73h219v-211h-219v-799h-256v799h-156z" />
<glyph unicode="g" horiz-adv-x="1054" d="M33 -295q0 47 33 111q23 43 48 77.5t38 47.5q-14 6 -57.5 39.5t-43.5 91.5q0 57 49.5 117.5t106.5 107.5q-152 80 -152 301q0 84 31 156.5t87 126t134 83t170 29.5q27 0 51.5 -2t50 -7t52 -12t53.5 -18h129l221 19v-215h-162q23 -33 23 -152q0 -78 -32 -148.5t-87 -123.5 t-131 -86t-162 -33q-12 0 -27.5 1t-31.5 3q-6 0 -14.5 1t6.5 1q-47 -39 -68.5 -64.5t-21.5 -33.5q0 6 -2 7t28 1h346q152 0 226.5 -64.5t74.5 -193.5q0 -90 -43 -168t-118.5 -137.5t-176 -93t-215.5 -33.5q-82 0 -155.5 19.5t-130 55t-92 85t-35.5 104.5zM295 -262 q0 -31 43 -54.5t123 -23.5q61 0 118.5 17.5t99.5 44t65.5 61.5t23.5 72q0 53 -70 53h-315l-16 -25q-43 -68 -57.5 -97.5t-14.5 -47.5zM313 604q0 -41 14.5 -76.5t36 -61.5t49 -39t56.5 -13q31 0 57.5 12t48 37.5t36 61.5t14.5 79t-14.5 79t-36 60.5t-50 38t-57.5 13.5 t-55.5 -13.5t-48 -39t-36 -61.5t-14.5 -77z" />
<glyph unicode="h" horiz-adv-x="1091" d="M121 -41v1575h256v-676q-54 -60 -55 -60l2 4q16 20 30.5 34t28.5 26t31 27q59 51 135 77.5t151 26.5q295 0 295 -299v-735h-258v698q0 45 -2 62.5t-8 32.5q-10 23 -45 22q-53 0 -127 -50t-178 -169v-596h-256z" />
<glyph unicode="i" horiz-adv-x="509" d="M111 1251q0 55 43 98.5t108 43.5q66 0 109 -43.5t43 -98.5t-43 -98t-109 -43t-108.5 43t-42.5 98zM133 -41v1010h256v-1010h-256z" />
<glyph unicode="j" horiz-adv-x="540" d="M-59 -444q45 63 62 86.5t28.5 43t21.5 38t25 45.5q23 45 33 97t10 122v981h256v-1129q-18 -45 -31.5 -73.5t-26 -53t-24.5 -46t-29 -50.5q-14 -23 -26.5 -41t-25.5 -36.5t-28.5 -38t-70.5 -91.5zM96 1253q0 55 43 98.5t109 43.5t108.5 -43.5t42.5 -98.5t-43 -98t-108 -43 q-66 0 -109 43t-43 98z" />
<glyph unicode="k" horiz-adv-x="958" d="M121 -41v1575h256v-1575h-256zM268 506l418 463h330l-436 -469l428 -541h-324z" />
<glyph unicode="l" horiz-adv-x="473" d="M121 -41v1575h256v-1575h-256z" />
<glyph unicode="m" horiz-adv-x="1689" d="M100 -41v1010h256v-111l-54 -59l3 3q17 18 31 33t28.5 27t30.5 27q59 51 134 77.5t151 26.5q276 0 285 -145l-46 -52l3 4q16 18 31.5 34t29.5 28t31 27q59 51 134 77.5t150 26.5q295 0 295 -299v-735h-256v698q0 49 -2 63.5t-8 29.5q-6 12 -17.5 18t-29.5 6 q-47 0 -109.5 -41t-162.5 -145l-33 -35v-594h-256v698q0 49 -2 63.5t-8 29.5q-6 12 -17.5 18t-29.5 6q-25 0 -54.5 -10t-67.5 -37t-85 -72t-99 -100v-596h-256z" />
<glyph unicode="n" horiz-adv-x="1071" d="M100 -41v1010h256v-111l-54 -59l3 3q17 18 31 33t28.5 27t30.5 27q59 51 134 77.5t151 26.5q295 0 295 -299v-735h-256v698q0 45 -3 62.5t-9 34.5q-4 8 -15.5 14t-29.5 6q-25 0 -54.5 -10t-67.5 -37t-85 -72t-99 -100v-596h-256z" />
<glyph unicode="o" horiz-adv-x="1116" d="M41 463q0 106 38 201.5t106.5 168t162.5 116.5t203 44t202 -44t161.5 -116.5t106.5 -168t38 -201.5t-38 -201.5t-106.5 -168.5t-162 -117t-201.5 -44q-109 0 -203 44t-162.5 117t-106.5 168t-38 202zM311 463q0 -68 20.5 -127.5t54.5 -100t76 -62t89 -21.5t88 21.5t75 62 t54 100t20 127.5t-20 127t-54 100t-75 62.5t-88 21.5t-89 -21.5t-76 -62.5t-54.5 -100.5t-20.5 -126.5z" />
<glyph unicode="p" horiz-adv-x="1107" d="M100 -530v1499h256v-29q-6 -7 -6 -10t4 -3q12 0 64 25q90 43 192 43q100 0 182 -38.5t139.5 -107.5t88.5 -161.5t31 -198.5q0 -119 -38 -219t-106.5 -175t-167 -118t-213.5 -43q-82 0 -142 17.5t-28 -8.5v-473h-256zM356 322q0 -57 2 -73t13 -32q31 -55 139 -55 q121 0 196.5 84.5t75.5 240.5q0 66 -16 119t-44 90t-62.5 54.5t-73.5 17.5q-31 0 -71 -14.5t-77 -38.5q-25 -18 -42 -35.5t-40 -48.5v-309z" />
<glyph unicode="q" horiz-adv-x="1060" d="M41 414q0 125 42 229.5t119 183t185.5 122.5t239.5 44q49 0 107.5 -5t101.5 -17q27 -6 48 -13.5t83 -33.5v-1454h-256v493q39 18 16.5 10t-55.5 -18q-39 -10 -91.5 -17.5t-99.5 -7.5q-98 0 -181 37t-140.5 102.5t-88 152.5t-30.5 192zM311 422q0 -131 59.5 -196.5 t161.5 -65.5q55 0 100.5 14t78.5 35v551q-2 0 -25.5 5t-62.5 5q-141 0 -226.5 -91t-85.5 -257z" />
<glyph unicode="r" horiz-adv-x="659" d="M100 -41v1010h256v-66q-30 -39 -30 -41t15 14q36 39 68.5 66t66.5 39t71 12q80 0 178 -98l-121 -207l-80 68q-51 0 -168 -211v-586h-256z" />
<glyph unicode="s" horiz-adv-x="878" d="M43 47l102 209q76 -41 92.5 -50t28.5 -16q43 -20 94.5 -32.5t92.5 -12.5q51 0 81.5 22.5t30.5 59.5q0 12 -3 24.5t-7 18.5q-14 18 -26.5 29.5t-37 26t-63.5 33t-98 42.5q-72 31 -122 61t-85 64.5t-49.5 74.5t-14.5 89q0 141 110 222t294 81q31 0 64.5 -2t64.5 -8 t53.5 -12t45 -14.5t47 -20.5t89.5 -51l-122 -201q-90 57 -114 67.5t-54 18.5q-51 14 -91 14q-59 0 -89.5 -20.5t-30.5 -54.5q0 -20 8 -29q14 -16 25.5 -23.5t33 -19.5t57 -27.5t99.5 -42.5q78 -33 131 -64.5t88 -71.5t48 -86t13 -105q0 -141 -100 -224.5t-274 -83.5 q-66 0 -140 13q-35 8 -63.5 14t-55 16.5t-54 22.5t-99.5 49z" />
<glyph unicode="t" horiz-adv-x="673" d="M12 758v162l156 38v281h256v-270h246v-211h-246v-488l2 -39q2 -23 2 -35t2 -20q0 -8 2 -8q14 0 34.5 10t115.5 82l110 -178q-68 -55 -100.5 -78.5t-64 -41t-64.5 -24t-66 -6.5q-106 0 -167.5 72t-61.5 176v578h-156z" />
<glyph unicode="u" horiz-adv-x="1071" d="M100 231v738h256v-699q0 -76 15.5 -98t44.5 -22q25 0 61.5 15t78.5 46t85 74t76 86v598h258v-1010h-258v82q-80 -111 -318 -111q-299 0 -299 301z" />
<glyph unicode="v" horiz-adv-x="933" d="M-20 969h274l268 -787l-86 -57l-10 55l264 789h277l-392 -1037h-219z" />
<glyph unicode="w" horiz-adv-x="1423" d="M-18 969h274l233 -774l-30 -76l-68 76l207 571l-78 203h271l258 -772l-62 -109l-37 109l244 772h260l-350 -1037h-203l-219 611l31 47l41 -47l-232 -611h-205z" />
<glyph unicode="x" horiz-adv-x="962" d="M-14 969h309l172 -291l174 291h295l-336 -494l348 -516h-305l-182 295l-187 -295h-286l338 510z" />
<glyph unicode="y" horiz-adv-x="878" d="M-25 969h281l236 -598l-29 84l-19 -86l201 600h264l-383 -1032q-33 -86 -62.5 -151t-70.5 -128q-14 -23 -26.5 -42t-27.5 -42t-36.5 -49.5t-83.5 -106.5l-201 154q61 66 85 94.5t42.5 52t34 50t35.5 63.5q18 33 33.5 61.5t29 59.5t29 69.5t31.5 79.5z" />
<glyph unicode="z" horiz-adv-x="942" d="M49 -41v131l526 660h-499v219h874v-119l-534 -672h534v-219h-901z" />
<glyph unicode="{" horiz-adv-x="837" d="M125 414v194h125q104 0 104 191v450q0 160 76 236t246 76h166v-211h-142q-18 0 -37.5 -10.5t-31.5 -28.5q-12 -16 -16.5 -43t-4.5 -84v-412v-53.5t-2 -42.5q-8 -68 -50 -123t-107 -70l141 35l-148 25q78 -16 125 -88q12 -18 20.5 -38t13.5 -43.5t6 -53t1 -70.5v-414 q0 -55 4 -80.5t17 -44.5q10 -16 30.5 -27.5t38.5 -11.5h142v-211h-166q-170 0 -246 76t-76 236v450q0 190 -104 191h-125z" />
<glyph unicode="|" horiz-adv-x="512" d="M137 -530v2064h246v-2064h-246z" />
<glyph unicode="}" horiz-adv-x="837" d="M4 -328h141q18 0 38 10.5t32 28.5q12 16 16.5 43t4.5 82v414v52.5t2 43.5q8 68 50 123t109 70l-143 -29l145 -29q-78 16 -123 86q-12 18 -20 38t-13 43.5t-6 53t-1 70.5v412q0 57 -4.5 82.5t-16.5 44.5q-10 16 -30.5 27.5t-39.5 11.5h-141v211h166q170 0 246 -76t76 -236 v-450q0 -188 106 -191l123 -4v-190h-125q-45 0 -74.5 -44t-29.5 -147v-450q0 -160 -76 -236t-246 -76h-166v211z" />
<glyph unicode="~" horiz-adv-x="1114" d="M-47 461q51 43 71.5 58.5t42 27.5t41 21.5t46.5 21.5q102 41 188 41q41 0 89 -10.5t99 -36.5l103 -43q43 -20 68.5 -26.5t52.5 -6.5q53 0 110 18q31 10 53.5 24.5t112.5 78.5l121 -162q-84 -61 -117 -79.5t-82 -37.5q-109 -39 -207 -39q-37 0 -68.5 3t-65 13.5t-71.5 26 t-87 39.5q-43 20 -69 27.5t-52 7.5q-49 0 -107.5 -23.5t-161.5 -101.5z" />
<glyph unicode="&#xa6;" horiz-adv-x="450" d="M104 449h250v-979h-250v979zM104 555v979h250v-979h-250z" />
<glyph unicode="&#xab;" horiz-adv-x="1146" d="M12 463l584 489v-286l-250 -203l250 -203v-283zM502 463l583 489v-286l-249 -203l249 -203v-283z" />
<glyph unicode="&#xad;" horiz-adv-x="614" d="M51 348v238h494v-238h-494z" />
<glyph unicode="&#xc0;" horiz-adv-x="1255" d="M-49 -41l532 1473h258l531 -1473h-287l-139 399h-469l-139 -399h-287zM217 1747h311l263 -324h-261zM459 594h305l-152 428z" />
<glyph unicode="&#xc1;" horiz-adv-x="1255" d="M-49 -41l532 1473h258l531 -1473h-287l-139 399h-469l-139 -399h-287zM455 1423l262 324h309l-309 -324h-262zM459 594h305l-152 428z" />
<glyph unicode="&#xc2;" horiz-adv-x="1255" d="M-49 -41l532 1473h258l531 -1473h-287l-139 399h-469l-139 -399h-287zM221 1384l307 322h179l313 -322h-270l-134 117l-131 -117h-264zM459 594h305l-152 428z" />
<glyph unicode="&#xc3;" horiz-adv-x="1255" d="M-49 -41l532 1473h258l531 -1473h-287l-139 399h-469l-139 -399h-287zM174 1569q86 55 110.5 69.5t55.5 26.5q72 37 152 37q25 0 34 -2q14 -2 30.5 -5t37 -11.5t45.5 -21.5t63 -34q33 -16 49.5 -22.5t30.5 -6.5t25.5 2.5t26 8.5t35 18t100.5 68l114 -148 q-63 -57 -86.5 -73.5t-66.5 -34.5q-86 -37 -168 -37q-88 0 -205 61q-45 23 -58.5 28t-29.5 5q-25 0 -47 -12q-8 -2 -14.5 -5t-14.5 -8.5t-21.5 -13.5t-80.5 -51zM459 594h305l-152 428z" />
<glyph unicode="&#xc4;" horiz-adv-x="1255" d="M-49 -41l532 1473h258l531 -1473h-287l-139 399h-469l-139 -399h-287zM266 1552q0 57 44 101.5t110 44.5q68 0 111.5 -44.5t43.5 -101.5q0 -55 -44 -99t-111 -44q-66 0 -110 44t-44 99zM459 594h305l-152 428zM645 1552q0 57 44 101.5t112 44.5t110.5 -44.5t42.5 -101.5 q0 -55 -43 -99t-110 -44q-68 0 -112 44t-44 99z" />
<glyph unicode="&#xc5;" horiz-adv-x="1255" d="M-49 -41l532 1473h258l531 -1473h-287l-139 399h-469l-139 -399h-287zM401 1614q0 82 61.5 143.5t153.5 61.5t152.5 -61.5t60.5 -143.5t-60 -142.5t-153 -60.5q-92 0 -153.5 60.5t-61.5 142.5zM459 594h305l-152 428zM582 1614q0 -20 12 -31.5t22 -11.5t21.5 11.5 t11.5 31.5t-11 32.5t-22 12.5q-10 0 -22 -12.5t-12 -32.5z" />
<glyph unicode="&#xc6;" horiz-adv-x="1638" d="M-96 -41l723 1434h139h811v-224h-602v-368h498v-223h-498v-396h614v-223h-874v399h-314l-192 -399h-305zM504 594h211v432z" />
<glyph unicode="&#xc7;" horiz-adv-x="1216" d="M41 682q0 154 55.5 287t152.5 233.5t231 157.5t292 57q139 0 275 -49q49 -16 81.5 -34.5t116.5 -76.5l-133 -200q-119 82 -188.5 103.5t-157.5 21.5q-96 0 -175 -34t-137.5 -98.5t-93 -155.5t-34.5 -202q0 -121 34.5 -219t96 -164.5t148.5 -102.5t194 -36 q80 0 145.5 13.5t196.5 68.5l76 -209q-90 -43 -122 -55.5t-75 -22.5q-113 -29 -213 -28h22l-22 -37h-64q209 0 209 -197q0 -100 -70.5 -164.5t-191.5 -64.5q-55 0 -108.5 11t-175.5 56l90 183q104 -45 132.5 -53.5t49.5 -8.5q14 0 23.5 8t9.5 27q0 27 -14.5 35t-71.5 8h-146 l127 211q29 -6 1.5 -1t-53.5 12t-47.5 15.5t-47.5 18.5q-98 45 -176 115.5t-131.5 160.5t-82 193.5t-28.5 216.5z" />
<glyph unicode="&#xc8;" horiz-adv-x="1046" d="M117 -41v1434h862v-224h-592v-368h490v-223h-490v-396h610v-223h-880zM211 1747h311l256 -324h-258z" />
<glyph unicode="&#xc9;" horiz-adv-x="1046" d="M117 -41v1434h862v-224h-592v-368h490v-223h-490v-396h610v-223h-880zM465 1482.5q18 22.5 55 68.5t78 98.5t80 97.5h309l-309 -324h-139q-92 37 -74 59.5z" />
<glyph unicode="&#xca;" horiz-adv-x="1046" d="M117 -41v1434h862v-224h-592v-368h490v-223h-490v-396h610v-223h-880zM184 1384l305 322h179l315 -322h-272l-131 117l-134 -117h-262z" />
<glyph unicode="&#xcb;" horiz-adv-x="1046" d="M117 -41v1434h862v-224h-592v-368h490v-223h-490v-396h610v-223h-880zM231 1559q0 57 44 100t112 43q66 0 110 -43t44 -100t-44 -101.5t-110 -44.5q-68 0 -112 44t-44 102zM612 1559q0 57 43 100t111 43t111 -43t43 -100t-43 -101.5t-111 -44.5t-111 44t-43 102z" />
<glyph unicode="&#xcc;" horiz-adv-x="575" d="M-92 1747h311l256 -324h-258zM125 -41v1434h270v-1434h-270z" />
<glyph unicode="&#xcd;" horiz-adv-x="569" d="M76 1423l256 324h311l-309 -324h-258zM143 -41v1434h271v-1434h-271z" />
<glyph unicode="&#xce;" horiz-adv-x="661" d="M-74 1384l307 322h179l313 -322h-270l-133 117l-132 -117h-264zM178 -41v1434h271v-1434h-271z" />
<glyph unicode="&#xcf;" horiz-adv-x="585" d="M-23 1552q0 57 43 101.5t111 44.5t111 -44.5t43 -101.5q0 -55 -43 -99t-111 -44t-111 44t-43 99zM145 -41v1434h271v-1434h-271zM289 1552q0 57 43 101.5t110 44.5q68 0 111 -44.5t43 -101.5q0 -55 -43 -99t-111 -44t-110.5 44t-42.5 99z" />
<glyph unicode="&#xd1;" horiz-adv-x="1468" d="M117 -41v1434h301l684 -1053q4 -6 10 -16.5t12 -22.5q4 -14 8.5 -23.5t14.5 -35.5q4 -8 5 -12.5t-95 141.5v1022h270v-1446h-276l-699 1079q-4 8 -11 19.5t-15 27.5q-6 10 -11.5 18.5t-7.5 14.5l-9 22.5t89 -303.5v-866h-270zM289 1550q86 55 110.5 69.5t55.5 27.5 q72 37 151 36q25 0 35 -2q14 -2 30.5 -5t37 -11t45 -21.5t63.5 -33.5q33 -16 49.5 -22.5t30.5 -6.5t25.5 2t26 8t35 18.5t99.5 67.5l115 -147q-63 -57 -87 -73.5t-67 -35.5q-86 -37 -167 -37q-88 0 -205 62q-45 23 -58.5 28t-29.5 5q-25 0 -47 -13q-8 -2 -14.5 -5t-14.5 -8 t-21.5 -13t-80.5 -51z" />
<glyph unicode="&#xd2;" horiz-adv-x="1581" d="M41 676q0 158 53 293t150.5 235.5t232.5 156.5t295 56t294 -56t232.5 -156.5t150.5 -235.5t52 -293q0 -160 -52 -294t-150.5 -235.5t-232.5 -158t-294 -56.5t-295 56.5t-232.5 158t-150.5 235.5t-53 294zM328 676q0 -104 37.5 -197.5t99 -162t141.5 -106.5t166 -38 t166 39t141.5 106.5t98 161t36.5 197.5t-36.5 197.5t-98 161t-141.5 106.5t-166 39t-166 -39t-141.5 -106.5t-99 -161t-37.5 -197.5zM354 1747h312l256 -324h-258z" />
<glyph unicode="&#xd3;" horiz-adv-x="1581" d="M41 676q0 158 53 293t150.5 235.5t232.5 156.5t295 56t294 -56t232.5 -156.5t150.5 -235.5t52 -293q0 -160 -52 -294t-150.5 -235.5t-232.5 -158t-294 -56.5t-295 56.5t-232.5 158t-150.5 235.5t-53 294zM328 676q0 -104 37.5 -197.5t99 -162t141.5 -106.5t166 -38 t166 39t141.5 106.5t98 161t36.5 197.5t-36.5 197.5t-98 161t-141.5 106.5t-166 39t-166 -39t-141.5 -106.5t-99 -161t-37.5 -197.5zM602 1423l256 324h311l-309 -324h-258z" />
<glyph unicode="&#xd4;" horiz-adv-x="1581" d="M41 676q0 158 53 293t150.5 235.5t232.5 156.5t295 56t294 -56t232.5 -156.5t150.5 -235.5t52 -293q0 -160 -52 -294t-150.5 -235.5t-232.5 -158t-294 -56.5t-295 56.5t-232.5 158t-150.5 235.5t-53 294zM328 676q0 -104 37.5 -197.5t99 -162t141.5 -106.5t166 -38 t166 39t141.5 106.5t98 161t36.5 197.5t-36.5 197.5t-98 161t-141.5 106.5t-166 39t-166 -39t-141.5 -106.5t-99 -161t-37.5 -197.5zM373 1384l307 322h178l316 -322h-273l-131 117l-133 -117h-264z" />
<glyph unicode="&#xd5;" horiz-adv-x="1581" d="M41 676q0 158 53 293t150.5 235.5t232.5 156.5t295 56t294 -56t232.5 -156.5t150.5 -235.5t52 -293q0 -160 -52 -294t-150.5 -235.5t-232.5 -158t-294 -56.5t-295 56.5t-232.5 158t-150.5 235.5t-53 294zM319 1542q86 55 111 69.5t55 26.5q72 37 152 37q25 0 35 -2 q14 -2 30.5 -5t37 -11t45 -21.5t63.5 -33.5q33 -16 49 -22.5t31 -6.5q14 0 25.5 2t25.5 8t34.5 18.5t100.5 67.5l115 -147q-63 -57 -87 -73.5t-67 -35.5q-86 -37 -168 -37q-88 0 -205 62q-45 23 -58 27.5t-30 4.5q-25 0 -47 -12q-8 -2 -14 -5t-14.5 -8t-21.5 -13.5 t-81 -51.5zM328 676q0 -104 37.5 -197.5t99 -162t141.5 -106.5t166 -38t166 39t141.5 106.5t98 161t36.5 197.5t-36.5 197.5t-98 161t-141.5 106.5t-166 39t-166 -39t-141.5 -106.5t-99 -161t-37.5 -197.5z" />
<glyph unicode="&#xd6;" horiz-adv-x="1581" d="M41 676q0 158 53 293t150.5 235.5t232.5 156.5t295 56t294 -56t232.5 -156.5t150.5 -235.5t52 -293q0 -160 -52 -294t-150.5 -235.5t-232.5 -158t-294 -56.5t-295 56.5t-232.5 158t-150.5 235.5t-53 294zM328 676q0 -104 37.5 -197.5t99 -162t141.5 -106.5t166 -38 t166 39t141.5 106.5t98 161t36.5 197.5t-36.5 197.5t-98 161t-141.5 106.5t-166 39t-166 -39t-141.5 -106.5t-99 -161t-37.5 -197.5zM414 1556q0 55 44 99.5t111 44.5q66 0 110 -44.5t44 -99.5q0 -57 -44 -101t-110 -44q-68 0 -111.5 44t-43.5 101zM829 1556q0 55 43 99.5 t111 44.5t111 -44.5t43 -99.5q0 -57 -43 -101t-111 -44t-111 44t-43 101z" />
<glyph unicode="&#xd7;" horiz-adv-x="1126" d="M8 59l404 404l-404 403l152 152l403 -404l404 404l151 -152l-403 -403l403 -404l-151 -149l-404 401l-403 -403z" />
<glyph unicode="&#xd9;" horiz-adv-x="1347" d="M100 463v930h271v-879q0 -61 3 -102t10 -69t19.5 -48.5t34.5 -42.5q90 -100 242 -100t242 100q23 23 35 43t19 48t10 69t3 102v879h271v-930q0 -141 -39 -234.5t-131 -171.5q-170 -137 -408 -137q-240 0 -410 137q-94 76 -133 171.5t-39 234.5zM340 1747h311l262 -324 h-260z" />
<glyph unicode="&#xda;" horiz-adv-x="1347" d="M100 463v930h271v-879q0 -61 3 -102t10 -69t19.5 -48.5t34.5 -42.5q90 -100 242 -100t242 100q23 23 35 43t19 48t10 69t3 102v879h271v-930q0 -141 -39 -234.5t-131 -171.5q-170 -137 -408 -137q-240 0 -410 137q-94 76 -133 171.5t-39 234.5zM506 1423l256 324h311 l-309 -324h-258z" />
<glyph unicode="&#xdb;" horiz-adv-x="1347" d="M100 463v930h271v-879q0 -61 3 -102t10 -69t19.5 -48.5t34.5 -42.5q90 -100 242 -100t242 100q23 23 35 43t19 48t10 69t3 102v879h271v-930q0 -141 -39 -234.5t-131 -171.5q-170 -137 -408 -137q-240 0 -410 137q-94 76 -133 171.5t-39 234.5zM297 1384l307 322h178 l316 -322h-273l-131 117l-133 -117h-264z" />
<glyph unicode="&#xdc;" horiz-adv-x="1347" d="M100 463v930h271v-879q0 -61 3 -102t10 -69t19.5 -48.5t34.5 -42.5q90 -100 242 -100t242 100q23 23 35 43t19 48t10 69t3 102v879h271v-930q0 -141 -39 -234.5t-131 -171.5q-170 -137 -408 -137q-240 0 -410 137q-94 76 -133 171.5t-39 234.5zM334 1561q0 57 43 100 t110 43q68 0 111 -43t43 -100t-43 -100.5t-111 -43.5t-110.5 43t-42.5 101zM748 1561q0 57 43 100t110 43q68 0 111 -43t43 -100t-43 -100.5t-111 -43.5t-110.5 43t-42.5 101z" />
<glyph unicode="&#xe0;" horiz-adv-x="894" d="M55 219q0 115 61.5 191.5t182.5 105.5l285 68v137q0 74 -125 74q-90 0 -90 -39q0 -6 20 -64l-248 -53q-31 55 -35 70.5t-4 35.5q0 113 110 180.5t275 67.5q162 0 258.5 -73.5t96.5 -198.5v-502v-65q0 -6 86 -21l-58 -203q-158 10 -211 49t-53 25q45 39 21.5 21.5 t-47.5 -29.5q-49 -29 -108.5 -45.5t-117.5 -16.5q-137 0 -218 80t-81 205zM164 1393h299l239 -416h-251zM311 233q0 -41 20.5 -60t53.5 -19q20 0 36.5 4t40 15t57.5 31.5t65 45.5v119l-258 -68q-6 -12 -10.5 -27.5t-4.5 -40.5z" />
<glyph unicode="&#xe1;" horiz-adv-x="892" d="M53 219q0 115 61.5 191.5t182.5 105.5l285 68v137q0 74 -125 74q-90 0 -90 -39q0 -6 20 -64l-248 -53q-31 55 -35 70.5t-4 35.5q0 113 109.5 180.5t275.5 67.5q162 0 258.5 -73.5t96.5 -198.5v-502v-65q0 -6 86 -21l-58 -203q-158 10 -211 49t-53 25q45 39 21.5 21.5 t-47.5 -29.5q-49 -29 -108.5 -45.5t-117.5 -16.5q-137 0 -218 80t-81 205zM309 233q0 -41 20.5 -60t53.5 -19q20 0 36.5 4t40 15t57.5 31.5t65 45.5v119l-258 -68q-6 -12 -10.5 -27.5t-4.5 -40.5zM322 977l239 416h299l-287 -416h-251z" />
<glyph unicode="&#xe2;" horiz-adv-x="894" d="M55 219q0 115 61.5 191.5t182.5 105.5l285 68v137q0 74 -125 74q-90 0 -90 -39q0 -6 20 -64l-248 -53q-31 55 -35 70.5t-4 35.5q0 113 110 180.5t275 67.5q162 0 258.5 -73.5t96.5 -198.5v-502v-65q0 -6 86 -21l-58 -203q-158 10 -211 49t-53 25q45 39 21.5 21.5 t-47.5 -29.5q-49 -29 -108.5 -45.5t-117.5 -16.5q-137 0 -218 80t-81 205zM111 977l284 416h189l295 -416h-263l-124 178l-127 -178h-254zM311 233q0 -41 20.5 -60t53.5 -19q20 0 36.5 4t40 15t57.5 31.5t65 45.5v119l-258 -68q-6 -12 -10.5 -27.5t-4.5 -40.5z" />
<glyph unicode="&#xe3;" horiz-adv-x="946" d="M59 1200q86 55 111 69.5t55 26.5q72 37 152 37q25 0 35 -2q14 -2 30.5 -5t37 -11t45 -21.5t63.5 -33.5q33 -16 49 -22.5t31 -6.5q14 0 25.5 2t25.5 8t34.5 18.5t100.5 67.5l115 -147q-63 -57 -87 -73.5t-67 -35.5q-86 -37 -168 -37q-88 0 -205 62q-45 23 -58 27.5 t-30 4.5q-25 0 -47 -12q-8 -2 -14 -5t-14.5 -8t-21.5 -13.5t-81 -51.5zM72 219q0 115 61.5 191.5t181.5 105.5l285 68v137q0 74 -125 74q-90 0 -90 -39q0 -6 21 -64l-248 -53q-31 55 -35 70.5t-4 35.5q0 113 109.5 180.5t275.5 67.5q162 0 258 -73.5t96 -198.5v-502v-65 q0 -6 86 -21l-57 -203q-158 10 -211 49t-53 25q45 39 21.5 21.5t-48.5 -29.5q-49 -29 -108.5 -45.5t-116.5 -16.5q-137 0 -218 80t-81 205zM328 233q0 -41 20.5 -60t52.5 -19q20 0 37 4t40.5 15t57 31.5t64.5 45.5v119l-258 -68q-6 -12 -10 -27.5t-4 -40.5z" />
<glyph unicode="&#xe4;" horiz-adv-x="903" d="M63 219q0 115 61.5 191.5t182.5 105.5l285 68v137q0 74 -125 74q-90 0 -90 -39q0 -6 20 -64l-247 -53q-31 55 -35 70.5t-4 35.5q0 113 109.5 180.5t275.5 67.5q162 0 258 -73.5t96 -198.5v-502v-65q0 -6 86 -21l-57 -203q-158 10 -211.5 49t-53.5 25q45 39 21.5 21.5 t-47.5 -29.5q-49 -29 -108.5 -45.5t-117.5 -16.5q-137 0 -218 80t-81 205zM145 1174q0 57 44 101t112 44q66 0 110 -44t44 -101q0 -55 -44 -99.5t-110 -44.5q-68 0 -112 44t-44 100zM319 233q0 -41 20.5 -60t53.5 -19q20 0 36.5 4t40.5 15t57.5 31.5t64.5 45.5v119l-258 -68 q-6 -12 -10.5 -27.5t-4.5 -40.5zM504 1174q0 57 44 101t111 44q66 0 110 -44t44 -101q0 -55 -44 -99.5t-110 -44.5q-68 0 -111.5 44t-43.5 100z" />
<glyph unicode="&#xe5;" horiz-adv-x="894" d="M55 219q0 115 61.5 191.5t182.5 105.5l285 68v137q0 74 -125 74q-90 0 -90 -39q0 -6 20 -64l-248 -53q-31 55 -35 70.5t-4 35.5q0 113 110 180.5t275 67.5q162 0 258.5 -73.5t96.5 -198.5v-502v-65q0 -6 86 -21l-58 -203q-158 10 -211 49t-53 25q45 39 21.5 21.5 t-47.5 -29.5q-49 -29 -108.5 -45.5t-117.5 -16.5q-137 0 -218 80t-81 205zM274 1200q0 82 61.5 143.5t153.5 61.5t152.5 -61.5t60.5 -143.5t-60 -142.5t-153 -60.5q-92 0 -153.5 60.5t-61.5 142.5zM311 233q0 -41 20.5 -60t53.5 -19q20 0 36.5 4t40 15t57.5 31.5t65 45.5 v119l-258 -68q-6 -12 -10.5 -27.5t-4.5 -40.5zM455 1200q0 -20 12 -31.5t22 -11.5t21.5 11.5t11.5 31.5t-11 32.5t-22 12.5q-10 0 -22 -12t-12 -33z" />
<glyph unicode="&#xe7;" horiz-adv-x="987" d="M41 455q0 115 38 212t109.5 170.5t171 114.5t218.5 41q78 0 151 -20q53 -14 88 -31.5t117 -75.5l-143 -200q-94 80 -130 93t-90 13q-115 0 -187.5 -83t-72.5 -228q0 -147 74 -226t199 -79q57 0 97 14t140 88l131 -199q-61 -37 -82.5 -49t-42 -21t-42 -16.5t-50.5 -17.5 q-41 -10 -64.5 -15.5t-35.5 -5.5l-21 -34q18 0 71.5 -53.5t53.5 -143.5q0 -96 -67.5 -161.5t-177.5 -65.5q-25 0 -44.5 2t-45 7t-57.5 14t-122 40l90 185q104 -45 133 -53.5t52 -8.5q12 0 21 8t9 27q0 27 -14 35t-70 8h-147l127 207q-166 39 -275.5 168t-109.5 340z" />
<glyph unicode="&#xe8;" horiz-adv-x="991" d="M35 463q0 117 33.5 213t97 166.5t156 110.5t202.5 40q94 0 170 -31.5t130.5 -89t82 -135.5t27.5 -170v-131h-635q0 -117 68.5 -198.5t183.5 -81.5q51 0 94 16t168 102l102 -200q-84 -53 -129 -77t-88 -38t-87 -20.5t-93 -6.5q-109 0 -200 40t-154.5 112t-96 167 t-32.5 212zM205 1393h299l239 -416h-251zM322 633h342q-2 55 -41 97t-109 42q-76 0 -128 -45t-64 -94z" />
<glyph unicode="&#xe9;" horiz-adv-x="1028" d="M41 463q0 117 34 213t97.5 166.5t155.5 110.5t202 40q94 0 170 -31.5t130.5 -89t82 -135.5t27.5 -170v-131h-635q0 -117 68.5 -198.5t183.5 -81.5q51 0 94 16t168 102l103 -200q-84 -53 -129 -77t-88 -38t-87.5 -20.5t-93.5 -6.5q-109 0 -200 40t-154.5 112t-96 167 t-32.5 212zM328 633h342q-2 55 -41 97t-109 42q-76 0 -128 -45t-64 -94zM344 977l242 416h299l-287 -416h-254z" />
<glyph unicode="&#xea;" horiz-adv-x="1021" d="M35 463q0 117 33.5 213t97 166.5t156 110.5t202.5 40q94 0 170 -31.5t130.5 -89t82 -135.5t27.5 -170v-131h-635q0 -117 68.5 -198.5t183.5 -81.5q51 0 94 16t168 102l102 -200q-84 -53 -129 -77t-88 -38t-87 -20.5t-93 -6.5q-109 0 -200 40t-154.5 112t-96 167 t-32.5 212zM139 977l287 416h190l287 -416h-256l-125 178l-127 -178h-256zM322 633h342q-2 55 -41 97t-109 42q-76 0 -128 -45t-64 -94z" />
<glyph unicode="&#xeb;" horiz-adv-x="1030" d="M35 463q0 117 33.5 213t97 166.5t156 110.5t202.5 40q94 0 170 -31.5t130.5 -89t82 -135.5t27.5 -170v-131h-635q0 -117 68.5 -198.5t183.5 -81.5q51 0 94 16t168 102l102 -200q-84 -53 -129 -77t-88 -38t-87 -20.5t-93 -6.5q-109 0 -200 40t-154.5 112t-96 167 t-32.5 212zM188 1171q0 57 44 101.5t112 44.5q66 0 110 -44.5t44 -101.5q0 -55 -44 -99t-110 -44q-68 0 -112 44t-44 99zM322 633h342q-2 55 -41 97t-109 42q-76 0 -128 -45t-64 -94zM547 1171q0 57 44 101.5t111 44.5q66 0 110 -44.5t44 -101.5q0 -55 -44 -99t-110 -44 q-68 0 -111.5 44t-43.5 99z" />
<glyph unicode="&#xec;" horiz-adv-x="557" d="M-49 1393h299l239 -416h-251zM178 -41v1010h256v-1010h-256z" />
<glyph unicode="&#xed;" horiz-adv-x="503" d="M68 977l239 416h299l-287 -416h-251zM109 -41v1010h256v-1010h-256z" />
<glyph unicode="&#xee;" horiz-adv-x="612" d="M-61 977l286 416h191l286 -416h-256l-124 178l-127 -178h-256zM193 -41v1010h256v-1010h-256z" />
<glyph unicode="&#xef;" horiz-adv-x="565" d="M-35 1174q0 57 44 101t112 44q66 0 109.5 -44t43.5 -101q0 -55 -44 -99.5t-109 -44.5q-68 0 -112 44t-44 100zM166 -41v1010h256v-1010h-256zM324 1174q0 57 44 101t111 44q66 0 110 -44t44 -101q0 -55 -44 -99.5t-110 -44.5q-68 0 -111.5 44t-43.5 100z" />
<glyph unicode="&#xf1;" horiz-adv-x="1093" d="M100 1192q86 55 111 69.5t55 26.5q72 37 152 37q25 0 35 -2q14 -2 30.5 -5t37 -11.5t45 -21.5t63.5 -34q33 -16 49 -22t31 -6q14 0 25 2t25.5 8t35 18.5t100.5 67.5l115 -148q-63 -57 -87 -73.5t-67 -34.5q-86 -37 -168 -37q-88 0 -205 61q-45 23 -58 28t-30 5 q-25 0 -47 -12q-8 -2 -14 -5t-14.5 -8t-21.5 -13.5t-81 -51.5zM104 -41v1010h256v-111q-68 -74 -51 -55.5t31 33t28.5 26.5t30.5 27q59 51 134 77.5t151 26.5q295 0 295 -299v-735h-256v698q0 45 -3 62.5t-9 34.5q-4 8 -15.5 14t-29.5 6q-25 0 -54.5 -10t-67.5 -37t-85 -72 t-99 -100v-596h-256z" />
<glyph unicode="&#xf2;" horiz-adv-x="1110" d="M35 463q0 106 38 201.5t106.5 168t162.5 116.5t203 44t202 -44t161.5 -116.5t106.5 -168t38 -201.5t-38 -201.5t-106.5 -168.5t-162 -117t-201.5 -44q-109 0 -203 44t-162.5 117t-106.5 168t-38 202zM190 1393h302l258 -416h-252zM305 463q0 -68 20.5 -127.5t54.5 -100 t76 -62t89 -21.5t88 21.5t74.5 62t54 100t20.5 127.5t-20.5 127t-54 100t-74.5 62.5t-88 21.5t-89 -21.5t-76 -62.5t-54.5 -100.5t-20.5 -126.5z" />
<glyph unicode="&#xf3;" horiz-adv-x="1116" d="M41 463q0 106 38 201.5t106.5 168t162.5 116.5t203 44t202 -44t161.5 -116.5t106.5 -168t38 -201.5t-38 -201.5t-106.5 -168.5t-162 -117t-201.5 -44q-109 0 -203 44t-162.5 117t-106.5 168t-38 202zM311 463q0 -68 20.5 -127.5t54.5 -100t76 -62t89 -21.5t88 21.5t75 62 t54 100t20 127.5t-20 127t-54 100t-75 62.5t-88 21.5t-89 -21.5t-76 -62.5t-54.5 -100.5t-20.5 -126.5zM389 977l221 416h297l-274 -416h-244z" />
<glyph unicode="&#xf4;" horiz-adv-x="1110" d="M35 463q0 106 38 201.5t106.5 168t162.5 116.5t203 44t202 -44t161.5 -116.5t106.5 -168t38 -201.5t-38 -201.5t-106.5 -168.5t-162 -117t-201.5 -44q-109 0 -203 44t-162.5 117t-106.5 168t-38 202zM170 977l287 416h190l287 -416h-256l-127 178l-125 -178h-256z M305 463q0 -68 20.5 -127.5t54.5 -100t76 -62t89 -21.5t88 21.5t74.5 62t54 100t20.5 127.5t-20.5 127t-54 100t-74.5 62.5t-88 21.5t-89 -21.5t-76 -62.5t-54.5 -100.5t-20.5 -126.5z" />
<glyph unicode="&#xf5;" horiz-adv-x="1148" d="M41 463q0 106 38 201.5t106.5 168t162.5 116.5t203 44t202 -44t161.5 -116.5t106.5 -168t38 -201.5t-38 -201.5t-106.5 -168.5t-162 -117t-201.5 -44q-109 0 -203 44t-162.5 117t-106.5 168t-38 202zM78 1192q86 55 110.5 69.5t55.5 26.5q72 37 151 37q25 0 35 -2 q14 -2 30.5 -5t37 -11.5t45 -21.5t63.5 -34q33 -16 49.5 -22t30.5 -6t25.5 2t26 8t35 18.5t99.5 67.5l115 -148q-63 -57 -86.5 -73.5t-66.5 -34.5q-86 -37 -168 -37q-88 0 -205 61q-45 23 -58.5 28t-29.5 5q-25 0 -47 -12q-8 -2 -14.5 -5t-14.5 -8t-21.5 -13.5t-80.5 -51.5z M311 463q0 -68 20.5 -127.5t54.5 -100t76 -62t89 -21.5t88 21.5t75 62t54 100t20 127.5t-20 127t-54 100t-75 62.5t-88 21.5t-89 -21.5t-76 -62.5t-54.5 -100.5t-20.5 -126.5z" />
<glyph unicode="&#xf6;" horiz-adv-x="1110" d="M35 463q0 106 38 201.5t106.5 168t162.5 116.5t203 44t202 -44t161.5 -116.5t106.5 -168t38 -201.5t-38 -201.5t-106.5 -168.5t-162 -117t-201.5 -44q-109 0 -203 44t-162.5 117t-106.5 168t-38 202zM219 1171q0 57 44 101.5t112 44.5q66 0 109.5 -44.5t43.5 -101.5 q0 -55 -44 -99t-109 -44q-68 0 -112 44t-44 99zM305 463q0 -68 20.5 -127.5t54.5 -100t76 -62t89 -21.5t88 21.5t74.5 62t54 100t20.5 127.5t-20.5 127t-54 100t-74.5 62.5t-88 21.5t-89 -21.5t-76 -62.5t-54.5 -100.5t-20.5 -126.5zM578 1171q0 57 44 101.5t111 44.5 q66 0 110 -44.5t44 -101.5q0 -55 -44 -99t-110 -44q-68 0 -111.5 44t-43.5 99z" />
<glyph unicode="&#xf7;" horiz-adv-x="1126" d="M0 385v199h1126v-199h-1126zM395 98q0 63 48.5 111.5t123.5 48.5q74 0 122 -48.5t48 -111.5q0 -66 -48 -113.5t-122 -47.5q-76 0 -124 48t-48 113zM395 874q0 66 48.5 114t123.5 48q74 0 122 -48t48 -114q0 -63 -48 -111t-122 -48q-76 0 -124 48t-48 111z" />
<glyph unicode="&#xf9;" horiz-adv-x="1067" d="M96 231v738h256v-699q0 -76 15.5 -98t44.5 -22q25 0 61.5 15t78.5 46t85 74t76 86v598h258v-1010h-258v82q-80 -111 -318 -111q-299 0 -299 301zM190 1393h299l240 -416h-252z" />
<glyph unicode="&#xfa;" horiz-adv-x="1071" d="M100 231v738h256v-699q0 -76 15.5 -98t44.5 -22q25 0 61.5 15t78.5 46t85 74t76 86v598h258v-1010h-258v82q-80 -111 -318 -111q-299 0 -299 301zM367 977l241 416h299l-289 -416h-251z" />
<glyph unicode="&#xfb;" horiz-adv-x="1067" d="M96 231v738h256v-699q0 -76 15.5 -98t44.5 -22q25 0 61.5 15t78.5 46t85 74t76 86v598h258v-1010h-258v82q-80 -111 -318 -111q-299 0 -299 301zM152 977l286 416h191l286 -416h-256l-127 178l-124 -178h-256z" />
<glyph unicode="&#xfc;" horiz-adv-x="1067" d="M96 231v738h256v-699q0 -76 15.5 -98t44.5 -22q25 0 61.5 15t78.5 46t85 74t76 86v598h258v-1010h-258v82q-80 -111 -318 -111q-299 0 -299 301zM213 1171q0 57 44 101.5t112 44.5q66 0 109.5 -44.5t43.5 -101.5q0 -55 -44 -99t-109 -44q-68 0 -112 44t-44 99zM571 1171 q0 57 44 101.5t112 44.5q66 0 110 -44.5t44 -101.5q0 -55 -44 -99t-110 -44q-68 0 -112 44t-44 99z" />
<glyph unicode="&#xff;" horiz-adv-x="878" d="M-25 969h281l236 -598l-29 84l-19 -86l201 600h264l-383 -1032q-33 -86 -62.5 -151t-70.5 -128q-14 -23 -26.5 -42t-27.5 -42t-36.5 -49.5t-83.5 -106.5l-201 154q61 66 85 94.5t42.5 52t34 50t35.5 63.5q18 33 33.5 61.5t29 59.5t29 69.5t31.5 79.5zM119 1120 q0 57 44 101.5t111 44.5q66 0 110 -44.5t44 -101.5q0 -55 -44 -99t-110 -44q-68 0 -111.5 44t-43.5 99zM477 1120q0 57 44 101.5t112 44.5q66 0 109.5 -44.5t43.5 -101.5q0 -55 -44 -99t-109 -44q-68 0 -112 44t-44 99z" />
<glyph unicode="&#x178;" horiz-adv-x="1060" d="M-63 1393h292l332 -531l342 531h293l-508 -772v-662h-270v651zM190 1552q0 55 43 99.5t111 44.5t112 -44.5t44 -99.5q0 -57 -44 -101t-112 -44t-111 44t-43 101zM604 1552q0 55 44 99.5t110 44.5q68 0 111.5 -44.5t43.5 -99.5q0 -57 -44 -101t-111 -44q-66 0 -110 44 t-44 101z" />
<glyph unicode="&#x2000;" horiz-adv-x="909" />
<glyph unicode="&#x2001;" horiz-adv-x="1819" />
<glyph unicode="&#x2002;" horiz-adv-x="909" />
<glyph unicode="&#x2003;" horiz-adv-x="1819" />
<glyph unicode="&#x2004;" horiz-adv-x="606" />
<glyph unicode="&#x2005;" horiz-adv-x="454" />
<glyph unicode="&#x2006;" horiz-adv-x="303" />
<glyph unicode="&#x2007;" horiz-adv-x="303" />
<glyph unicode="&#x2008;" horiz-adv-x="227" />
<glyph unicode="&#x2009;" horiz-adv-x="363" />
<glyph unicode="&#x200a;" horiz-adv-x="101" />
<glyph unicode="&#x2010;" horiz-adv-x="614" d="M51 348v238h494v-238h-494z" />
<glyph unicode="&#x2011;" horiz-adv-x="614" d="M51 348v238h494v-238h-494z" />
<glyph unicode="&#x2012;" horiz-adv-x="614" d="M51 348v238h494v-238h-494z" />
<glyph unicode="&#x2013;" horiz-adv-x="1024" d="M-51 385v199h1126v-199h-1126z" />
<glyph unicode="&#x2014;" horiz-adv-x="2168" d="M51 348v238h2048v-238h-2048z" />
<glyph unicode="&#x2018;" horiz-adv-x="516" d="M102 981q0 51 19 115q12 47 34.5 94t63.5 125l39 78h199q-41 -88 -48.5 -108.5t-21.5 -59.5q-6 -20 -11 -37t-8 -29t-6.5 -25.5t-5.5 -25.5l95 -236q-70 -45 -103 -54t-76 -9q-170 0 -170 172z" />
<glyph unicode="&#x2019;" horiz-adv-x="516" d="M39 836q51 76 58 88t12.5 23t11.5 25.5t14 39.5q10 31 15.5 53t11.5 53l-99 242q61 31 79 37t34.5 12t33.5 7t36 1q168 0 168 -172q0 -78 -37 -179t-119 -230h-219z" />
<glyph unicode="&#x201a;" horiz-adv-x="516" d="M61 -338q37 86 45.5 106.5t22.5 61.5q6 20 11 34.5t7.5 28t6.5 27.5t6 25l-94 235q68 47 101.5 56.5t76.5 9.5q168 0 168 -172q0 -51 -19 -117q-6 -25 -14 -48.5t-20.5 -49t-27 -54t-34.5 -69.5l-41 -74h-195z" />
<glyph unicode="&#x201c;" horiz-adv-x="894" d="M102 983q0 78 37 178.5t119 231.5h221q-63 -94 -72.5 -113.5t-23.5 -62.5q-10 -31 -15.5 -53.5t-11.5 -53.5l99 -240q-59 -31 -78 -38t-35 -13t-33.5 -7t-36.5 -1q-170 0 -170 172zM479 983q0 78 38 179.5t118 230.5h221q-53 -78 -60.5 -90.5t-12.5 -22.5t-10 -25.5 t-13 -37.5q-10 -31 -15.5 -53.5t-11.5 -53.5l98 -242q-61 -31 -78.5 -37t-34 -12t-33.5 -7t-36 -1q-170 0 -170 172z" />
<glyph unicode="&#x201d;" horiz-adv-x="894" d="M39 836q51 76 58 88t12.5 23t11.5 25.5t14 39.5q10 31 15.5 53t11.5 53l-99 242q61 31 79 37t34.5 12t33.5 7t36 1q168 0 168 -172q0 -78 -37 -179t-119 -230h-219zM416 836q53 78 60 90t12.5 23.5t11.5 25.5t12 35q10 33 14 55t13 55l-99 238q59 31 77 38t34 13t34.5 7 t37.5 1q168 0 168 -172q0 -78 -37 -178t-119 -231h-219z" />
<glyph unicode="&#x201e;" horiz-adv-x="894" d="M39 -336q53 78 59 88t11.5 22.5t11.5 28t14 35.5q12 33 16.5 54.5t10.5 52.5l-99 241q59 29 77 37t35.5 14.5t34.5 7.5t36 1q168 0 168 -174q0 -78 -37 -179.5t-119 -228.5h-219zM416 -336q53 78 60 90.5t12.5 22.5t11.5 24.5t12 34.5q10 33 14 55.5t13 55.5l-99 237 q57 31 74.5 39t35 14.5t36 7.5t37.5 1q168 0 168 -174q0 -78 -37 -177.5t-119 -230.5h-219z" />
<glyph unicode="&#x2022;" horiz-adv-x="720" d="M70 473q0 55 21.5 106.5t60 90.5t93 61.5t115.5 22.5t115.5 -22.5t93.5 -61.5t60.5 -90.5t21.5 -106.5t-21.5 -106.5t-60.5 -90t-93 -61t-116 -22.5q-61 0 -115.5 22.5t-93 61t-60 90t-21.5 106.5z" />
<glyph unicode="&#x2026;" horiz-adv-x="1536" d="M88 92q0 63 48 110.5t120 47.5t119 -47.5t47 -110.5q0 -61 -47 -108t-119 -47t-120 47t-48 108zM618 92q0 63 47.5 110.5t118.5 47.5q74 0 121 -47.5t47 -110.5q0 -61 -47 -108t-121 -47q-72 0 -119 47t-47 108zM1130 92q0 63 47.5 110.5t118.5 47.5q74 0 121 -47.5 t47 -110.5q0 -61 -47 -108t-121 -47q-72 0 -119 47t-47 108z" />
<glyph unicode="&#x202f;" horiz-adv-x="363" />
<glyph unicode="&#x2039;" horiz-adv-x="657" d="M12 463l584 489v-286l-250 -203l250 -203v-283z" />
<glyph unicode="&#x203a;" horiz-adv-x="657" d="M59 -23v283l252 203l-252 203v286l588 -489z" />
<glyph unicode="&#x205f;" horiz-adv-x="454" />
<glyph unicode="&#x25fc;" horiz-adv-x="972" d="M0 0v973h973v-973h-973z" />
</font>
</defs>
</svg>
