<?xml version="1.0" standalone="no"?>
<!DOCTYPE svg PUBLIC "-//W3C//DTD SVG 1.1//EN" "http://www.w3.org/Graphics/SVG/1.1/DTD/svg11.dtd" >
<svg xmlns="http://www.w3.org/2000/svg" xmlns:xlink="http://www.w3.org/1999/xlink" version="1.1">
<metadata></metadata>
<defs>
<font id="scaly_sansitalic" horiz-adv-x="1202" >
<font-face units-per-em="2048" ascent="1638" descent="-410" />
<missing-glyph horiz-adv-x="512" />
<glyph unicode="&#xd;" horiz-adv-x="512" />
<glyph horiz-adv-x="0" />
<glyph unicode=" "  horiz-adv-x="512" />
<glyph unicode="&#x09;" horiz-adv-x="512" />
<glyph unicode="&#xa0;" horiz-adv-x="512" />
<glyph unicode="!" horiz-adv-x="577" d="M190 90q10 47 52.5 82t89.5 35t74.5 -35t17.5 -82t-52 -82t-89 -35t-75 35t-18 82zM295 399l223 1108h180l-247 -1108h-156z" />
<glyph unicode="#" horiz-adv-x="1282" d="M182 438l47 117h238l111 266h-238l45 117h238l170 410h122l-167 -410h292l168 410h127l-168 -410h228l-45 -117h-230l-106 -266h233l-47 -117h-237l-177 -438h-127l177 438h-293l-181 -438h-124l180 438h-236zM592 555h293l108 266h-293z" />
<glyph unicode="$" horiz-adv-x="1097" d="M150 119l114 133q25 -18 43.5 -32.5t33.5 -25t29.5 -17.5t28.5 -15q39 -18 72 -25.5t96 -11.5l105 491l-74 50q-70 47 -117 88t-71.5 82t-30.5 84t4 96q33 147 148.5 239.5t299.5 114.5l29 123h90l-26 -121q37 -2 64.5 -4t49 -5t43 -8t45.5 -14q39 -14 68 -30.5t80 -48.5 l-109 -140q-18 14 -33.5 23.5t-28.5 17.5t-28.5 14.5t-34.5 14.5q-23 8 -39 14t-32.5 9.5t-33.5 5.5t-42 4l-100 -471q12 -10 21 -16.5t15 -10.5q74 -47 119 -80t66 -53q41 -39 55 -103.5t0 -138.5q-18 -84 -65.5 -156.5t-116.5 -121.5q-29 -20 -55.5 -35.5t-55 -26 t-63.5 -18.5t-84 -14l-27 -121h-90l23 114q-88 4 -136.5 13.5t-95.5 31.5q-37 14 -66.5 35t-86.5 66zM553 1028q-20 -92 51 -147q63 -51 66 -54q12 -12 25.5 -22t15.5 -6l90 424q-215 -37 -248 -195zM659 129q94 16 159 71.5t79 131.5q16 72 4 100q-10 20 -102 111 q-27 27 -45 26z" />
<glyph unicode="%" horiz-adv-x="1843" d="M244 -90l1491 1507h141l-1491 -1507h-141zM336 874.5q-14 65.5 0 139.5q16 74 58 139.5t101.5 114.5t131 77.5t145.5 28.5t133.5 -28.5t97 -77.5t52 -114.5t-1.5 -139.5q-14 -74 -56.5 -139.5t-101.5 -114.5t-131 -77t-146 -28t-133 28t-97 77t-52 114.5zM460 922 q9 -43 34.5 -75t63.5 -50.5t87 -18.5t96 18.5t85 50.5t66 75t38 92t1 91t-34 74.5t-63.5 51t-88.5 18.5q-49 0 -95 -18.5t-85 -51t-66.5 -74.5t-37.5 -91t-1 -92zM1074 192.5q-13 65.5 1 139.5q16 74 58.5 139.5t101.5 114.5t131 76.5t145 27.5q74 0 133.5 -27.5t97.5 -76.5 t52 -114.5t-2 -139.5q-14 -74 -57 -139.5t-101.5 -113.5t-130 -77t-145.5 -29t-133.5 29t-98.5 77t-52 113.5zM1198 241q10 -42 34.5 -74t63.5 -50.5t88 -18.5t95.5 18.5t85.5 50.5t65.5 74t36.5 91q12 49 2 92t-34.5 74.5t-62.5 50t-87 18.5t-96.5 -18.5t-86 -50 t-65.5 -74.5t-39 -92q-10 -49 0 -91z" />
<glyph unicode="&#x26;" horiz-adv-x="1554" d="M189.5 190.5q-15.5 67.5 0.5 151.5q12 53 36 99t63 92.5t97 95.5t144 108l103 72q-16 29 -29.5 53.5t-25.5 46.5q-43 82 -54.5 140.5t2.5 126.5q16 76 58.5 138t104 107t140 70t168.5 25q82 0 145.5 -21.5t104.5 -59.5t56.5 -92.5t1.5 -117.5q-14 -68 -77 -140.5 t-165 -138.5l-109 -69l-57 102l94 61q70 47 104.5 87t47.5 94q14 72 -34 117.5t-140 45.5q-100 0 -179 -56t-98 -142q-6 -27 -2 -62q0 -25 3 -43t11.5 -41.5t23.5 -55.5t42 -81l277 -545q31 25 51 45.5t36.5 39t30 37t27.5 40.5q12 23 24.5 44.5t21.5 45t19.5 54t22.5 71.5 h141q-14 -47 -25.5 -80.5t-21.5 -61.5t-22.5 -51.5t-28.5 -47.5q-18 -31 -37.5 -57.5t-45.5 -54.5t-59.5 -58.5t-78.5 -71.5q45 -78 80 -106.5t82 -28.5q49 0 98 33.5t129 123.5l86 -67q-25 -29 -43 -49.5t-33.5 -36t-31 -28.5t-31.5 -27q-111 -90 -226 -91q-29 0 -54 5.5 t-48 15.5q-39 16 -68.5 46t-76.5 95q-113 -88 -214.5 -126t-224.5 -38q-94 0 -163.5 27t-113.5 75t-59.5 115.5zM362 360q-23 -113 38 -179t188 -66q82 0 155 28q33 14 67 34t105 69l-229 454l-102 -69q-104 -72 -154.5 -132.5t-67.5 -138.5z" />
<glyph unicode="'" horiz-adv-x="450" d="M346 889l98 463h142l-99 -463h-141z" />
<glyph unicode="(" horiz-adv-x="651" d="M242 104.5q0 159.5 37 331.5q37 170 103.5 327t176.5 331q43 68 69.5 109.5t48 68t42 47t53.5 45.5h154q-78 -72 -152 -177.5t-136.5 -229t-112.5 -260t-76 -267.5q-29 -133 -37.5 -268t2 -259t39 -228.5t75.5 -176.5h-153q-20 33 -33.5 57.5t-23 54.5t-19.5 67.5 t-20 99.5q-37 168 -37 327.5z" />
<glyph unicode=")" horiz-adv-x="663" d="M-80 -502q76 72 149.5 176.5t137 228.5t113 259t77.5 268q27 131 36 267.5t-2 260t-40 229t-74 177.5h154q18 -25 31.5 -45.5t23 -47t19.5 -68.5t24 -109q33 -174 34 -331t-36 -327q-35 -170 -100.5 -324.5t-177.5 -334.5q-35 -55 -60.5 -93t-48 -68t-47 -56.5 t-59.5 -61.5h-154z" />
<glyph unicode="*" horiz-adv-x="1071" d="M262 965l76 139l299 -119l-64 -115zM309 561l271 270l84 -69l-254 -287zM674 1006l61 346h146l-88 -346h-119zM698 762l113 72l154 -273l-136 -86zM815 985l352 119l15 -139l-353 -95z" />
<glyph unicode="+" horiz-adv-x="1124" d="M143 426l25 117h428l92 428h115l-92 -428h428l-25 -117h-428l-90 -426h-115l90 426h-428z" />
<glyph unicode="," horiz-adv-x="434" d="M31 -297q23 33 35 54.5t34 62.5q10 20 19.5 35.5t14.5 29t12.5 27.5t15.5 35l-41 221q39 23 65.5 30t61.5 7q117 0 90 -131q-10 -47 -41 -109q-10 -23 -23.5 -45t-30 -47t-37 -53.5t-48.5 -67.5l-37 -49h-90z" />
<glyph unicode="-" horiz-adv-x="614" d="M184 389l35 156h391l-35 -156h-391z" />
<glyph unicode="." horiz-adv-x="405" d="M84 92q8 47 49 81t90 34q47 0 73.5 -34t18.5 -81q-12 -49 -53 -83t-88 -34q-49 0 -75.5 34t-14.5 83z" />
<glyph unicode="/" horiz-adv-x="710" d="M-127 -502l909 1854h142l-910 -1854h-141z" />
<glyph unicode="0" d="M238.5 387q-13.5 127 17.5 270t98.5 271.5t155.5 221.5t192.5 148.5t210.5 55.5q104 0 186.5 -55.5t131.5 -148.5t61.5 -221.5t-18.5 -271.5t-97.5 -270t-154.5 -220t-193.5 -148.5t-210.5 -55.5q-106 0 -187 55.5t-130 148.5t-62.5 220zM394 452q7 -96 41 -167.5 t90.5 -112.5t129.5 -41q74 0 146.5 41t136 112.5t111.5 167.5t71 205q25 111 16.5 205t-41 166t-88 114t-128.5 42q-74 0 -148 -42t-138.5 -114t-111.5 -166t-71 -205q-23 -109 -16 -205z" />
<glyph unicode="1" d="M512 1178l39 178h514l-289 -1356h-205l250 1178h-309z" />
<glyph unicode="2" d="M176 0l23 106l594 562q127 117 159 270q23 102 -14 165.5t-117 63.5q-35 0 -74.5 -14t-70.5 -37q-20 -14 -34.5 -26.5t-33 -32t-46 -49t-70.5 -78.5l-82 106q45 53 72.5 85t46 52.5t34 35t37.5 32.5q59 53 132 83t145 30q150 0 214 -110.5t23 -297.5q-20 -100 -61 -178 q-16 -31 -35 -58.5t-47.5 -60.5t-69.5 -72.5t-102 -99.5l-330 -301h567l-37 -176h-823z" />
<glyph unicode="3" d="M238 -41l26 131q72 2 124 6t96 13.5t82 22.5t77 34q90 45 150.5 115.5t76.5 154.5q27 119 -34.5 182.5t-200.5 63.5h-103l23 113q166 35 266.5 109.5t122.5 182.5q16 74 -15.5 118t-101.5 44q-27 0 -51 -5t-53 -18.5t-64.5 -35t-80.5 -53.5l-68 102q27 20 49.5 35.5 t40.5 25.5q66 39 141.5 61.5t143.5 22.5q125 0 182 -75.5t31 -204.5q-47 -213 -273 -316q41 -14 61.5 -22t39.5 -21q70 -43 95 -118.5t5 -175.5q-25 -113 -89.5 -203t-159.5 -154.5t-220 -99.5t-268 -35h-51z" />
<glyph unicode="4" d="M184 389l9 39l923 952h72l-182 -862h237l-29 -129h-237l-90 -430h-148l90 430h-645zM438 508l54 10h366l105 500l16 63l-43 -61l-451 -469z" />
<glyph unicode="5" d="M285 -29l26 129q53 2 88 5.5t62.5 7.5t52.5 10t55 14q117 35 193 116t100 198q33 158 -39 243q-31 35 -84 51.5t-147 20.5l-98 4l131 619h555l-27 -129h-408l-77 -361l80 -6q168 -14 242.5 -128t33.5 -304q-27 -123 -102.5 -224.5t-188.5 -164.5q-92 -53 -209 -76 q-29 -6 -52 -9t-49 -6.5t-59.5 -5.5t-78.5 -4z" />
<glyph unicode="6" d="M277.5 299q-7.5 109 23.5 246q76 365 326 614q113 111 232.5 162t268.5 51q31 0 57.5 -2t76.5 -6l-29 -127q-37 4 -57.5 5t-49.5 1q-47 0 -92 -5t-78 -15q-119 -37 -237 -152q-41 -41 -72 -75.5t-57.5 -75.5t-50 -91.5t-52.5 -119.5q59 27 82 36t45 17q68 25 128.5 36 t113.5 11q78 0 135.5 -27.5t93 -78t45.5 -120t-6 -153.5q-23 -102 -71.5 -189t-117.5 -149.5t-152 -98.5t-173 -36q-100 0 -172.5 41t-112.5 116.5t-47.5 184.5zM425 333q5 -75 32.5 -128t74 -82t111.5 -29q57 0 112.5 24.5t101.5 67.5t80 101.5t48 126.5q12 57 4 105 t-32.5 83t-65.5 54.5t-94 19.5q-23 0 -56.5 -5t-68.5 -14q-27 -6 -50.5 -13t-48 -16.5t-51 -20.5t-63.5 -27q-8 -33 -12.5 -49.5t-6.5 -32.5q-20 -90 -15 -165z" />
<glyph unicode="7" d="M260 90q37 33 62.5 57.5t42.5 40.5q90 92 180 208t153 225l363 606h-608l30 141h799l-16 -78l-457 -747q-31 -49 -67.5 -104.5t-86.5 -116.5q-39 -53 -70.5 -92.5t-64.5 -75t-70.5 -74.5t-91.5 -90z" />
<glyph unicode="8" d="M236 303q18 82 65 148q29 39 82 90t96 80l170 112l-108 113q-33 33 -53.5 60.5t-31 54t-10.5 53t9 61.5q14 70 54 127.5t99.5 99t134 64.5t160.5 23q80 0 142.5 -20.5t101.5 -57.5t54.5 -89.5t2.5 -115.5q-31 -139 -182 -244l-164 -114l137 -144q29 -27 54 -72 q39 -59 45.5 -107t-7.5 -120q-16 -74 -61 -135t-112.5 -106.5t-153.5 -70t-185 -24.5q-92 0 -161.5 24.5t-114.5 68.5t-61.5 105.5t-1.5 135.5zM401 319q-23 -104 31.5 -159.5t177.5 -55.5q127 0 211.5 57.5t104.5 157.5q12 55 -8.5 105.5t-77.5 116.5l-105 116l-151 -104 q-156 -106 -183 -234zM616 1090q-18 -88 64 -175l90 -92l133 92q53 37 89 88.5t48 102.5q14 74 -32.5 118t-145.5 44q-92 0 -160.5 -50.5t-85.5 -127.5z" />
<glyph unicode="9" d="M254 -23l27 129q37 -4 56 -6t48 -2q100 0 174 23q55 16 115.5 55t120.5 94q41 39 72.5 75t57 77t50 92t51.5 121q-59 -27 -82.5 -36t-46.5 -17q-131 -49 -242 -50q-78 0 -135 28t-93 78t-46 119.5t8 153.5q20 102 69.5 189.5t118 151t152.5 99t174 35.5 q205 0 285.5 -156.5t23.5 -432.5q-39 -180 -120.5 -335t-204.5 -278q-111 -111 -233 -163t-271 -52q-31 0 -56.5 2t-72.5 6zM528 928q-25 -115 27.5 -188.5t161.5 -73.5q23 0 55.5 4t69.5 14q53 12 97 28.5t114 49.5l12 49.5t8 32.5q18 92 14 166.5t-30.5 128t-73.5 82 t-113 28.5q-57 0 -112.5 -24.5t-101.5 -67.5t-79.5 -102.5t-48.5 -126.5z" />
<glyph unicode=":" horiz-adv-x="520" d="M158 92q8 47 49 81t90 34q47 0 73.5 -34t18.5 -81q-12 -49 -53 -83t-88 -34q-49 0 -76 34t-14 83zM315 838q10 47 51.5 80.5t90.5 33.5q47 0 73.5 -33.5t16.5 -80.5q-10 -49 -51 -83t-88 -34q-49 0 -76 33.5t-17 83.5z" />
<glyph unicode=";" horiz-adv-x="538" d="M80 -297q25 33 36 54.5t34 62.5q12 20 21 35.5t14 29t12.5 27.5t15.5 35l-41 221q39 23 64.5 30t62.5 7q117 0 90 -131q-10 -47 -41 -109q-23 -47 -50.5 -92t-88.5 -121l-39 -49h-90zM334 838q10 47 51 80.5t88 33.5q49 0 75.5 -33.5t16.5 -80.5q-10 -49 -51 -83t-90 -34 q-47 0 -73.5 33.5t-16.5 83.5z" />
<glyph unicode="&#x3c;" horiz-adv-x="1163" d="M162 430l22 111l1059 430l-29 -129l-886 -357l735 -356l-27 -129z" />
<glyph unicode="=" horiz-adv-x="1294" d="M186 274l27 117h1024l-27 -117h-1024zM248 559l24 117h1024l-24 -117h-1024z" />
<glyph unicode="&#x3e;" horiz-adv-x="1198" d="M133 0l27 129l887 356l-736 357l29 129l874 -430l-22 -111z" />
<glyph unicode="?" horiz-adv-x="851" d="M170 92q8 47 49 81t90 34q47 0 73.5 -34t18.5 -81q-12 -49 -53 -83t-88 -34q-49 0 -75.5 34t-14.5 83zM270 387l78 361h309q41 47 59.5 79.5t28.5 81.5q20 88 6 165t-55 135.5t-110.5 96t-159.5 50.5l84 155q43 -10 73.5 -17t54.5 -16.5t44 -19.5t43 -24 q59 -39 100 -95.5t65.5 -124t28.5 -144.5t-12 -157t-48 -135t-89 -102q-27 -23 -47.5 -36t-40.5 -20.5t-46 -10.5t-61 -3h-104l-47 -219h-154z" />
<glyph unicode="@" horiz-adv-x="1974" d="M245.5 102.5q-34.5 147.5 6.5 343.5q41 190 138 348t236.5 273t310.5 178.5t361 63.5q174 0 306.5 -56.5t215.5 -158t111.5 -242.5t-8.5 -309q-27 -129 -85 -233.5t-140 -177.5t-184.5 -111.5t-221.5 -38.5q-213 0 -172 194q4 20 14.5 50t24.5 65l21 47 q-63 -80 -129 -143.5t-132.5 -107.5t-128 -68.5t-112.5 -24.5q-61 0 -80.5 82t10.5 221q31 143 94.5 268t148.5 217t183.5 144.5t200.5 52.5q27 0 56.5 -3t64.5 -7q23 -4 41 -8.5t38.5 -9.5t43 -12t53.5 -17l-250 -668q-10 -29 -16 -50.5t-11 -35.5q-6 -37 21 -61.5 t74 -24.5q20 0 48.5 7t57.5 17q266 109 334 424q29 135 3 253t-95.5 205t-178 137.5t-243.5 50.5q-158 0 -303.5 -54.5t-263 -151t-200.5 -229.5t-116 -290q-37 -168 -4 -293t139 -224q80 -76 172.5 -107.5t227.5 -31.5q47 0 86 3t77.5 11.5t78.5 21.5t87 32l21 -121 q-51 -23 -74 -31q-137 -49 -309 -49q-86 0 -155.5 9.5t-129 31t-110.5 55t-99 80.5q-121 117 -155.5 264.5zM768 291q-27 -127 37 -127q20 0 64 27.5t104 78.5q25 20 53.5 50t63.5 67q82 92 133 164t84 151l49 113q-49 16 -84 24.5t-70 8.5q-66 0 -132 -44t-125.5 -120 t-105.5 -177t-71 -216z" />
<glyph unicode="A" horiz-adv-x="1255" d="M18 0l799 1391h180l207 -1391h-180l-55 399h-547l-223 -399h-181zM508 553h440l-86 618z" />
<glyph unicode="B" horiz-adv-x="1181" d="M168 0l287 1352h438q98 0 154.5 -18.5t99.5 -65.5q39 -48 53 -112q7 -32 7 -66t-7 -70q-25 -111 -103.5 -193t-193.5 -118q129 -27 183 -117q35 -58 35 -136q0 -44 -11 -96q-16 -80 -57 -146.5t-99.5 -114.5t-131 -73.5t-154.5 -25.5h-500zM367 141h231q92 0 139 11.5 t88 40.5q39 29 69 78t42 102q7 34 7 64q1 73 -43 118q-62 63 -202 63h-231zM500 772h219q37 0 64.5 3t50 10.5t43 18.5t38.5 27q80 66 103 175q8 34 8 63q0 56 -29 92q-23 29 -58.5 39t-113.5 10h-231z" />
<glyph unicode="C" horiz-adv-x="1216" d="M228 396q-10 54 -9 113q0 82 19 173q31 147 109.5 274t190 220.5t247 146.5t280.5 53q129 0 244 -45q41 -16 67.5 -32.5t69.5 -51.5l-111 -127q-66 53 -138.5 78t-170.5 25q-109 0 -207 -39t-178 -109.5t-137.5 -168t-81.5 -214.5q-18 -83 -17 -156q1 -40 5 -76 q14 -104 67 -177.5t141.5 -113.5t206.5 -40q86 0 161 14.5t165 50.5l18 -133q-33 -14 -57.5 -23t-47 -16.5t-44 -13.5t-45.5 -12q-55 -12 -100.5 -17.5t-92.5 -5.5q-154 0 -270.5 52.5t-188 146.5t-95.5 224z" />
<glyph unicode="D" horiz-adv-x="1429" d="M168 0l287 1352h450q147 0 262 -50.5t186.5 -139.5t96.5 -212q11 -55 11 -114q0 -74 -17 -154q-29 -133 -102.5 -259t-184.5 -226q-115 -106 -239.5 -151.5t-301.5 -45.5h-448zM367 141h256q133 0 222 29t167 94q45 39 87 89t74.5 105.5t57.5 113t37 112.5q14 63 14 120 q0 46 -9 89q-20 96 -76 166.5t-144 110.5t-203 40h-256z" />
<glyph unicode="E" horiz-adv-x="1046" d="M168 0l287 1352h759l-28 -142h-592l-96 -450h489l-31 -142h-489l-100 -477h610l-31 -141h-778z" />
<glyph unicode="F" horiz-adv-x="993" d="M168 0l287 1352h759l-28 -142h-592l-98 -462h489l-31 -144h-489l-129 -604h-168z" />
<glyph unicode="G" horiz-adv-x="1392" d="M232 399q-12 61 -12 126q0 74 16 153q33 150 113.5 277.5t196.5 221t258 145.5t296 52q72 0 147.5 -8t124.5 -23q43 -12 72 -26t78 -45l-92 -139q-23 14 -38.5 22t-27.5 14q-53 25 -126 39.5t-155 14.5q-143 0 -249.5 -40t-204.5 -132q-80 -74 -134.5 -167t-74.5 -194 q-15 -68 -15 -131q0 -50 9 -95q22 -104 85.5 -178.5t162 -117.5t225.5 -43q51 0 97 6t132 23l96 450h168l-118 -553q-35 -12 -61.5 -20t-43.5 -13q-74 -23 -169 -34t-181 -11q-154 0 -272.5 54.5t-196.5 148.5t-106 223z" />
<glyph unicode="H" horiz-adv-x="1492" d="M168 0l287 1352h168l-123 -580h796l123 580h168l-287 -1352h-167l131 618h-797l-131 -618h-168z" />
<glyph unicode="I" horiz-adv-x="528" d="M168 0l287 1352h168l-287 -1352h-168z" />
<glyph unicode="J" horiz-adv-x="540" d="M-115 -385q43 39 73 66.5t51.5 49t36.5 40t30 39.5q41 59 74.5 137t52.5 170l262 1235h168l-295 -1391q-23 -43 -39 -74.5t-33.5 -58.5t-37 -52.5t-46.5 -56.5q-25 -29 -46 -52t-43.5 -44.5t-50.5 -45t-69 -54.5z" />
<glyph unicode="K" horiz-adv-x="1130" d="M168 0l287 1352h168l-287 -1352h-168zM494 682l669 670h193l-668 -658l408 -694h-207z" />
<glyph unicode="L" horiz-adv-x="991" d="M168 0l287 1352h168l-256 -1211h604l-31 -141h-772z" />
<glyph unicode="M" horiz-adv-x="1712" d="M168 0l287 1352h231l182 -1082q8 -41 7 -57t-3 -45q16 41 23.5 57.5t24.5 44.5l655 1082h231l-286 -1352h-168l252 1184q-12 -27 -20.5 -45.5t-18 -36t-21.5 -38t-26 -46.5l-617 -1018h-153l-162 991q-4 29 -7.5 48.5t-5.5 39t-3 41t1 51.5l-249 -1171h-154z" />
<glyph unicode="N" horiz-adv-x="1468" d="M168 0l287 1352h219l450 -1030q4 -6 7.5 -14.5t5.5 -18.5q2 -16 4 -24.5t8 -37.5v-9t2 -11l244 1145h168l-289 -1364h-195l-458 1054q-2 8 -7.5 19.5t-9.5 28.5q-4 10 -6 17t-4 13q-4 10 -6 20.5t-2 30.5l-250 -1171h-168z" />
<glyph unicode="O" horiz-adv-x="1581" d="M228 394q-10 55 -11 114q0 80 19 168q33 152 111.5 280.5t188 222t246 145.5t283.5 52t260 -52t185 -146t94 -222q9 -52 9 -108q0 -82 -20 -172q-33 -154 -109.5 -282t-188 -222t-247 -146.5t-282.5 -52.5t-261 52.5t-183.5 146.5t-93.5 222zM412 460 q18 -102 70.5 -176.5t133 -118.5t183.5 -44q100 0 199.5 44t182.5 118.5t143 176t85 216.5q15 66 15 129q0 44 -8 85q-18 101 -70 176t-131.5 119t-180.5 44q-102 0 -202.5 -44t-183.5 -119t-143.5 -176.5t-84.5 -213.5q-15 -68 -15 -131q0 -43 7 -85z" />
<glyph unicode="P" horiz-adv-x="1144" d="M168 0l287 1352h424q123 0 192.5 -23.5t114.5 -83.5q43 -53 53 -125q3 -24 3 -51q0 -53 -13 -117q-23 -106 -75 -190t-127 -143.5t-171 -91t-207 -31.5q-20 0 -37.5 1t-40 3t-52.5 5t-75 7l-108 -512h-168zM475 653q68 -8 105.5 -10t72.5 -2q111 0 181 27 q80 31 139.5 104.5t79.5 169.5q9 44 9 82q0 78 -40 129q-25 31 -70 44t-127 13h-231z" />
<glyph unicode="Q" horiz-adv-x="1581" d="M220 456q-2 27 -2 56q0 79 18 164q33 152 110.5 280.5t188 222t247 145.5t283.5 52t260 -52t183.5 -146.5t93.5 -221.5q10 -54 10 -111q0 -81 -19 -171q-29 -133 -93 -250t-157.5 -208t-211 -153.5t-252.5 -87.5q16 -27 25 -40t26 -37q45 -59 90 -99q23 -20 43 -36.5 t43.5 -31t52.5 -29.5t72 -36l-121 -129q-43 27 -76 47.5t-58.5 39t-49 38t-49.5 43.5q-29 27 -51.5 52.5t-43 53t-39 58.5t-43.5 70l-22 34q-29 6 -50.5 9.5t-38 7.5t-29.5 8t-30 10q-90 33 -155.5 98.5t-105.5 154.5t-49 195zM410 460q18 -102 70 -176.5t134 -118.5 t185 -44q102 0 201.5 44t182.5 118.5t143 176t85 216.5q15 66 15 129q0 43 -8 85q-17 101 -69.5 176t-132 119t-182.5 44q-102 0 -202.5 -44t-183.5 -119t-144.5 -176.5t-85.5 -213.5q-15 -68 -15 -131q0 -44 7 -85z" />
<glyph unicode="R" horiz-adv-x="1181" d="M168 0l287 1352h411q61 0 107.5 -5.5t81.5 -16.5t61.5 -30.5t48.5 -48.5q39 -47 53 -117q6 -30 6 -61q0 -42 -10 -86q-16 -80 -62 -153.5t-116 -126.5q-49 -41 -98 -63.5t-127 -39.5l270 -604h-192l-250 580h-180l-123 -580h-168zM489 721h220q270 0 325 264q8 39 8 72 q0 73 -41 114q-14 12 -28.5 19.5t-34.5 12.5t-50 6t-75 1h-219z" />
<glyph unicode="S" horiz-adv-x="1036" d="M111 119l114 133q49 -39 77 -56.5t60 -31.5q84 -35 187 -35q121 0 199.5 53.5t101.5 151.5q6 30 6 54t-6 42q-23 66 -92 111q-14 10 -64.5 38.5t-134.5 82.5q-137 82 -186 166q-35 59 -35 129q0 29 6 59q18 80 64.5 146.5t114 113.5t156.5 72.5t189 25.5q59 0 114.5 -8 t104.5 -25q39 -14 68 -30.5t80 -48.5l-109 -140q-45 31 -69.5 45.5t-55.5 24.5q-37 12 -88 20.5t-92 8.5q-117 0 -198.5 -52.5t-100.5 -138.5q-4 -20 -4 -38q0 -16 3 -30q7 -30 37 -63t87 -72t148 -94q127 -76 184 -137q41 -40 54 -106q6 -29 6 -61q0 -38 -9 -79 q-37 -174 -178 -275.5t-346 -101.5q-137 0 -240 45q-37 14 -66.5 35t-86.5 66z" />
<glyph unicode="T" horiz-adv-x="1042" d="M303 1210l29 142h1069l-29 -142h-450l-258 -1210h-168l258 1210h-451z" />
<glyph unicode="U" horiz-adv-x="1347" d="M238 243q-7 33 -6 72q0 65 18 148l188 889h168l-178 -838q-12 -63 -18 -105q-5 -34 -6 -62v-12q2 -32 12 -56.5t30 -51.5q77 -116 253 -116h3q178 0 310 116q29 27 49 51.5t35.5 56.5t28 74t24.5 105l178 838h168l-188 -889q-29 -135 -83.5 -221t-152.5 -156 q-180 -125 -397 -125q-219 0 -346 125q-72 70 -90 157z" />
<glyph unicode="V" horiz-adv-x="1249" d="M336 1352h180l176 -1055q0 -14 1 -29.5t-1 -36.5q4 18 10.5 34t16.5 32l608 1055h168l-819 -1387h-103z" />
<glyph unicode="W" horiz-adv-x="1826" d="M336 1352h180l176 -1116l332 555l-94 561h153l62 -355l211 355h139l-319 -537l98 -577l633 1114h166l-805 -1379h-105l-106 639l-383 -639h-90z" />
<glyph unicode="X" horiz-adv-x="1226" d="M39 0l620 690l-311 662h193l247 -521l465 521h191l-594 -664l326 -688h-193l-256 551l-494 -551h-194z" />
<glyph unicode="Y" horiz-adv-x="1060" d="M305 1352h180l240 -580l496 580h178l-629 -721l-133 -631h-168l131 618z" />
<glyph unicode="Z" horiz-adv-x="1193" d="M90 0l16 78l1024 1132h-782l29 142h1012l-19 -90l-1020 -1121h819l-30 -141h-1049z" />
<glyph unicode="[" horiz-adv-x="512" d="M43 -502l393 1854h336l-24 -115h-181l-344 -1624h180l-24 -115h-336z" />
<glyph unicode="\" horiz-adv-x="837" d="M375 1352h141l123 -1854h-141z" />
<glyph unicode="]" horiz-adv-x="512" d="M-80 -502l25 115h180l344 1624h-180l24 115h336l-393 -1854h-336z" />
<glyph unicode="^" horiz-adv-x="1069" d="M49 2l637 967h111l223 -967h-129l-184 809l-529 -809h-129z" />
<glyph unicode="_" horiz-adv-x="1024" d="M-25 -117l25 117h1024l-25 -117h-1024z" />
<glyph unicode="a" horiz-adv-x="894" d="M154 219q20 102 86.5 168t175.5 90l336 76l36 168q3 14 3 27q0 88 -154 88q-141 0 -160 -80q-2 -12 2 -35l-164 -33q-6 18 -6 29.5t2 27.5q20 92 125 149.5t254 57.5q141 0 209 -62q51 -46 51 -117q0 -24 -6 -52l-106 -502l-15 -67q-2 -37 66 -50l-66 -129q-95 6 -127 35 q-26 23 -26 70q0 11 2 24q-43 -31 -66.5 -46t-48.5 -27q-49 -25 -104.5 -39.5t-104.5 -14.5q-113 0 -166 67q-36 46 -36 111q0 31 8 66zM309 233q-4 -17 -4 -31q-1 -34 19 -56q28 -32 86 -33q27 0 51 5t55 18.5t71 36t97 58.5l41 193l-367 -90q-25 -33 -34 -52.5t-15 -48.5z " />
<glyph unicode="b" horiz-adv-x="1103" d="M178 27l311 1466h154l-129 -604q41 18 63.5 26.5t53.5 16.5q37 10 86 15t92 5q88 0 152.5 -31.5t103.5 -90t49 -141.5q3 -28 3 -57q0 -59 -13 -126q-27 -121 -86.5 -219.5t-145.5 -168t-194.5 -107.5t-231.5 -38q-41 0 -93 6.5t-89 14.5q-23 6 -40 11t-46 22zM356 141 q29 -16 58.5 -22t70.5 -6q45 0 82 8q41 8 82 25.5t78 39.5q90 55 136 126t71 188q11 53 11 97q-1 78 -35 129q-54 81 -183 81q-66 0 -123 -17.5t-123 -56.5z" />
<glyph unicode="c" horiz-adv-x="987" d="M182 258q-7 38 -7 79q0 55 13 116q23 111 78.5 201.5t134 157.5t176 103.5t203.5 36.5q70 0 133 -18q43 -12 70 -27.5t68 -48.5l-115 -125q-43 45 -86 62.5t-107 17.5q-141 0 -246.5 -97.5t-138.5 -254.5q-12 -54 -12 -101q0 -91 45 -152q68 -93 217 -93q68 0 121 17.5 t119 60.5l53 -121q-23 -12 -40 -21.5t-27 -13.5q-131 -63 -273 -64q-106 0 -186 35t-128.5 98.5t-64.5 151.5z" />
<glyph unicode="d" horiz-adv-x="1089" d="M174 250q-3 29 -3 59q0 61 13 129q25 113 80 207t133 163t173.5 106.5t197.5 37.5q74 0 122 -14t85 -49l129 604h156l-318 -1493h-156l25 117q-76 -70 -163 -107t-175 -37q-86 0 -149.5 34t-101.5 95.5t-48 147.5zM342 311q6 -59 29.5 -102t64.5 -66.5t94 -23.5 q41 0 93.5 16.5t101.5 46.5q31 18 55.5 39t65.5 62l69 321q10 53 12.5 77t-5.5 46q-23 78 -168 78q-147 0 -257 -98.5t-145 -266.5q-12 -51 -11 -96q-1 -17 1 -33z" />
<glyph unicode="e" horiz-adv-x="997" d="M179 262q-4 30 -4 62q0 65 15 139q25 111 75 201t122 154.5t160 99t186 34.5q82 0 141.5 -27.5t96.5 -77.5t47 -122q4 -26 3 -53q0 -50 -11 -105l-19 -90h-635q-14 -65 -14 -118q0 -88 38 -148q60 -96 202 -96q61 0 117.5 19.5t142.5 72.5l37 -121q-57 -33 -104.5 -54.5 t-89.5 -34.5t-82 -18.5t-85 -5.5q-96 0 -169 35t-116 99.5t-54 154.5zM391 592h455q8 39 8 72q0 57 -26 93q-40 56 -136 56q-98 0 -174 -56.5t-127 -164.5z" />
<glyph unicode="f" horiz-adv-x="634" d="M219 0l170 799h-156l19 90l164 39l33 153q20 98 65 178t109.5 136.5t144.5 87t172 30.5q59 0 103 -10t92 -35l-91 -129q-45 16 -77.5 23.5t-67.5 7.5q-236 0 -305 -328l-25 -114h219l-26 -129h-219l-170 -799h-154z" />
<glyph unicode="g" horiz-adv-x="1054" d="M20 -295q8 39 50 96q29 39 60.5 72t96.5 88q-68 20 -93 45q-19 19 -19 47q0 9 2 19q10 45 65.5 99t165.5 132q-124 75 -124 215q0 37 9 80q16 78 58.5 143.5t102 112.5t132 72.5t154.5 25.5q25 0 45 -2t43 -6t45.5 -11t54.5 -20h142l170 15l-27 -129h-195q23 -53 23 -115 q0 -37 -8 -78q-16 -72 -58.5 -135t-100.5 -110.5t-130 -76t-145 -28.5q-10 0 -23.5 1t-34.5 3q-4 0 -12 1t-18 1q-76 -53 -111 -86t-39 -53q-4 -18 11.5 -25.5t58.5 -7.5h346q129 0 179 -52q34 -35 34 -98q0 -30 -8 -67q-18 -82 -71.5 -152.5t-133.5 -124t-178.5 -84 t-202.5 -30.5q-74 0 -135.5 17.5t-104.5 48t-64 71.5q-14 29 -14 61q0 12 2 25zM188 -262q-2 -10 -2 -18q0 -41 44 -68q55 -33 149 -33q70 0 140.5 19.5t125.5 51t94 75t49 90.5q3 13 3 25q0 69 -103 69h-346l-41 -47q-59 -70 -82.5 -104t-30.5 -60zM388 515 q7 -42 28.5 -73.5t55.5 -50t77 -18.5t84 17.5t75.5 49t60.5 73.5t36 91q6 29 6 55q0 19 -3 36q-7 42 -28.5 73t-56.5 49.5t-78 18.5t-84 -18.5t-75.5 -50.5t-59.5 -74t-35 -89q-6 -28 -6 -54q0 -18 3 -35z" />
<glyph unicode="h" horiz-adv-x="1091" d="M172 0l317 1493h154l-162 -760q31 27 50.5 45.5t35 31.5t31.5 24.5t35 25.5q63 45 134 68.5t136 23.5q199 0 199 -172q0 -39 -10 -86l-148 -694h-156l140 657q10 47 12 67.5t-4 41.5q-10 49 -80 49q-72 0 -167 -57.5t-243 -190.5l-120 -567h-154z" />
<glyph unicode="i" horiz-adv-x="509" d="M184 0l197 928h154l-197 -928h-154zM428 1251q8 41 44 71t77 30t65 -30q18 -22 17 -51q0 -10 -2 -20q-8 -41 -45 -70.5t-78 -29.5q-42 -1 -64 29q-17 22 -16 50q0 10 2 21z" />
<glyph unicode="j" horiz-adv-x="540" d="M-88 -438q33 37 55.5 61.5t40 45t31.5 39t31 42.5q39 53 61.5 108.5t38.5 129.5l199 940h153l-229 -1082q-25 -39 -43.5 -66.5t-35.5 -51t-33.5 -45t-37.5 -45.5q-18 -25 -34.5 -43.5t-33 -36t-36 -37t-43.5 -45.5zM414 1253q8 41 44 71t77 30t64 -30q17 -22 17 -51 q0 -9 -2 -20q-8 -41 -43.5 -70.5t-76.5 -29.5t-64 29q-18 23 -18 51q0 10 2 20z" />
<glyph unicode="k" horiz-adv-x="958" d="M172 0l317 1493h154l-317 -1493h-154zM436 504l473 424h201l-485 -426l290 -502h-202z" />
<glyph unicode="l" horiz-adv-x="473" d="M172 0l317 1493h154l-317 -1493h-154z" />
<glyph unicode="m" horiz-adv-x="1689" d="M152 0l196 928h154l-41 -195q31 27 51 45.5t35.5 31.5t32 24.5t34.5 25.5q63 45 133 68.5t136 23.5q198 0 198 -168q0 -24 -4 -53q31 27 50.5 45.5t37 32.5t33.5 25.5t35 25.5q63 45 133 68.5t135 23.5q199 0 199 -172q0 -39 -10 -86l-148 -694h-153l139 657 q12 51 13 68.5t-5 40.5q-4 23 -26.5 36t-55.5 13q-66 0 -147.5 -47t-208.5 -156l-54 -45l-120 -567h-154l139 657q12 51 13.5 68.5t-4.5 40.5q-4 23 -27 36t-55 13q-35 0 -76 -13.5t-90 -43t-108.5 -76.5t-135.5 -115l-121 -567h-153z" />
<glyph unicode="n" horiz-adv-x="1071" d="M152 0l196 928h154l-41 -195q31 27 51 45.5t35.5 31.5t32 24.5t34.5 25.5q63 45 133 68.5t136 23.5q198 0 198 -171q0 -39 -10 -87l-147 -694h-154l139 657q10 47 11.5 67.5t-2.5 41.5q-4 23 -27 36t-55 13q-35 0 -76 -13.5t-90 -43t-108.5 -76.5t-135.5 -115l-121 -567 h-153z" />
<glyph unicode="o" horiz-adv-x="1116" d="M186 273q-7 40 -7 83q0 52 11 107q20 100 76 189t132.5 155.5t168.5 105.5t187 39q94 0 168.5 -39t123 -105.5t64.5 -155.5q7 -40 7 -81q0 -52 -11 -108q-20 -100 -75.5 -189.5t-132.5 -156t-168 -105.5t-185 -39t-170 39t-124.5 105.5t-64.5 155.5zM351 324 q9 -64 38 -111t76 -74.5t108 -27.5t120 27.5t108 74.5t85 111.5t52 138.5q10 47 10 91q0 24 -3 48q-9 64 -37.5 111t-75 74.5t-107.5 27.5t-120.5 -27.5t-109 -74.5t-85 -111.5t-52.5 -138.5q-10 -47 -10 -91q0 -25 3 -48z" />
<glyph unicode="p" horiz-adv-x="1107" d="M47 -489l301 1417h154l-25 -117q74 68 161 105.5t175 37.5q86 0 150.5 -33.5t102.5 -95t48 -147.5q3 -29 3 -60q0 -61 -13 -129q-25 -113 -80 -207t-133 -162.5t-173 -106.5t-198 -38q-74 0 -122 14.5t-85 49.5l-112 -528h-154zM359.5 243q-1.5 -20 7.5 -42 q29 -80 170 -80q147 0 255.5 99t145.5 267q10 49 10 93q0 19 -2 36q-6 60 -29.5 103t-64.5 66.5t-94 23.5q-41 0 -93.5 -17.5t-101.5 -46.5q-33 -20 -56.5 -40.5t-64.5 -61.5l-69 -321q-12 -59 -13.5 -79z" />
<glyph unicode="q" horiz-adv-x="1060" d="M171 234q-4 28 -4 60q0 56 13 120q25 119 85.5 217t146.5 169.5t192.5 111.5t224.5 40q47 0 100.5 -5t90.5 -15q23 -6 40 -12.5t46 -20.5l-295 -1388h-154l113 526q-41 -18 -63.5 -26.5t-53.5 -16.5q-37 -10 -86 -16.5t-92 -6.5q-86 0 -150.5 32t-103.5 90.5t-50 140.5z M350 422q-11 -52 -11 -95q0 -77 35 -128q54 -80 183 -80q66 0 123 17.5t123 53.5l125 592q-29 16 -58.5 22.5t-74.5 6.5q-166 0 -287 -105.5t-158 -283.5z" />
<glyph unicode="r" horiz-adv-x="659" d="M152 0l196 928h154l-35 -168q55 55 96 92t74 59.5t59.5 31.5t53.5 9q55 0 104 -63l-102 -129q-35 37 -58 37q-84 0 -272 -244l-117 -553h-153z" />
<glyph unicode="s" horiz-adv-x="878" d="M121 63l90 130q20 -12 35.5 -21.5t25.5 -15.5q45 -23 99.5 -37.5t103.5 -14.5q72 0 125 35t66 88q2 16 1 35t-8 29q-10 20 -23 35.5t-37 32t-60.5 36t-94.5 43.5q-61 29 -101 55.5t-62.5 56.5t-27.5 64q-2 11 -2 23q0 24 7 53q25 123 134.5 192.5t273.5 69.5 q29 0 58.5 -2t57.5 -8q25 -4 44.5 -10t38 -13.5t38 -18.5t45.5 -28l-102 -124q-39 29 -63.5 40t-57.5 21q-55 16 -102 16q-78 0 -132.5 -31.5t-64.5 -84.5q-8 -35 10 -58q10 -14 21.5 -24.5t33 -23.5t56.5 -29.5t92 -43.5q68 -31 110 -59.5t64.5 -62t24.5 -73.5q0 -7 1 -14 q0 -35 -10 -81q-27 -125 -127 -196t-253 -71q-59 0 -125 13q-33 6 -57.5 12t-47 15.5t-45 20.5t-53.5 29z" />
<glyph unicode="t" horiz-adv-x="673" d="M233 799l19 90l164 39l57 270h154l-58 -270h246l-27 -129h-245l-113 -529l-6 -41q-4 -23 -6 -36t-2 -21q-1 -6 -1 -11q0 -34 44 -34q29 0 60.5 14.5t88.5 51.5l41 -103q-47 -35 -83 -56.5t-65.5 -35.5t-56 -19.5t-53.5 -5.5q-81 -1 -117 57q-24 37 -23 89q0 28 7 61 l131 619h-156z" />
<glyph unicode="u" horiz-adv-x="1071" d="M201 231l147 697h154l-140 -658q-9 -44 -9 -75q1 -31 9 -49q18 -38 76 -37q37 0 86 18t102.5 52t110 80t107.5 101l121 568h155l-196 -928h-156l41 193q-207 -221 -416 -222q-202 0 -202 173q0 39 10 87z" />
<glyph unicode="v" horiz-adv-x="933" d="M244 928h168l96 -752l-4 -37l10 35l412 754h168l-564 -955h-141z" />
<glyph unicode="w" horiz-adv-x="1423" d="M244 928h168l67 -740l-4 -26l8 26l330 578l-27 162h162l90 -738l-4 -28l8 28l388 738h153l-524 -955h-125l-86 580l-2 51l-25 -51l-342 -580h-129z" />
<glyph unicode="x" horiz-adv-x="962" d="M72 0l411 469l-215 459h191l133 -344l278 344h177l-404 -453l219 -475h-188l-139 346l-291 -346h-172z" />
<glyph unicode="y" horiz-adv-x="878" d="M-4 -424q43 39 73.5 67.5t55.5 54.5t47.5 53.5t50.5 64.5q25 33 46.5 62.5t43 61t45 70.5t56.5 92l-170 826h172l102 -568l12 -90l39 90l312 568h157l-571 -979q-51 -86 -93 -148.5t-95 -124.5q-18 -23 -35 -42t-36.5 -40.5t-46 -48l-63.5 -63.5z" />
<glyph unicode="z" horiz-adv-x="942" d="M100 0l17 78l719 713h-541l29 137h772l-15 -66l-729 -725h576l-29 -137h-799z" />
<glyph unicode="{" horiz-adv-x="837" d="M272 455l25 112h74q156 0 204 232l97 450q31 145 106.5 208t220.5 63h115l-29 -129h-90q-33 0 -68.5 -16.5t-58.5 -45.5q-20 -23 -32.5 -54.5t-24.5 -90.5l-88 -412q-6 -29 -11 -52.5t-10 -39.5q-20 -59 -63 -103.5t-92 -54.5l-53 -12l47 -8q51 -10 75 -66 q8 -16 11.5 -32.5t3.5 -37t-5 -48t-14 -68.5l-88 -414q-12 -57 -13 -88t9 -55q10 -27 40 -44.5t63 -17.5h90l-29 -129h-115q-145 0 -194 62.5t-19 208.5l97 450q49 231 -107 232h-74z" />
<glyph unicode="|" horiz-adv-x="512" d="M84 -489l422 1982h143l-422 -1982h-143z" />
<glyph unicode="}" horiz-adv-x="837" d="M-51 -498l28 129h91q33 0 68.5 16.5t58.5 45.5q20 23 32.5 54.5t24.5 88.5l88 414q6 29 11 51.5l9 40.5q20 59 63.5 103t92.5 55l53 10l-47 10q-53 12 -76 66q-8 16 -11 32.5t-3 37t5 48t14 68.5l88 412q12 59 13 90t-9 55q-10 27 -40 44.5t-63 17.5h-90l29 129h115 q145 0 194 -62.5t19 -208.5l-97 -450q-49 -227 107 -232l74 -2l-25 -110h-74q-76 0 -128 -59.5t-77 -172.5l-96 -450q-31 -145 -106.5 -208t-221.5 -63h-114z" />
<glyph unicode="~" horiz-adv-x="1114" d="M113 455q29 20 50 34.5t41.5 24.5t41 19.5t47.5 19.5q100 37 174 37q35 0 74 -9.5t82 -31.5l92 -45q43 -20 72.5 -28.5t64.5 -8.5q63 0 137 22q37 12 66.5 27.5t83.5 48.5l47 -90q-59 -37 -92 -54.5t-80 -33.5q-104 -35 -193 -35q-33 0 -60.5 3t-55 11.5t-60.5 24 t-78 37.5q-41 23 -70.5 32t-64.5 9q-61 0 -134 -26.5t-144 -73.5z" />
<glyph unicode="&#xa6;" horiz-adv-x="450" d="M51 -489l191 897h147l-190 -897h-148zM283 596l190 897h148l-191 -897h-147z" />
<glyph unicode="&#xab;" horiz-adv-x="1146" d="M180 463l545 387l-35 -168l-317 -219l223 -219l-35 -166zM670 463l544 387l-34 -168l-318 -219l223 -219l-34 -166z" />
<glyph unicode="&#xad;" horiz-adv-x="614" d="M184 389l35 156h391l-35 -156h-391z" />
<glyph unicode="&#xc0;" horiz-adv-x="1255" d="M18 0l799 1391h180l207 -1391h-180l-55 399h-547l-223 -399h-181zM508 553h440l-86 618zM684 1706h180l144 -242h-142z" />
<glyph unicode="&#xc1;" horiz-adv-x="1255" d="M18 0l799 1391h180l207 -1391h-180l-55 399h-547l-223 -399h-181zM508 553h440l-86 618zM860 1464l246 242h180l-282 -242h-144z" />
<glyph unicode="&#xc2;" horiz-adv-x="1255" d="M18 0l799 1391h180l207 -1391h-180l-55 399h-547l-223 -399h-181zM508 553h440l-86 618zM627 1425l280 240h129l183 -240h-144l-127 138l-182 -138h-139z" />
<glyph unicode="&#xc3;" horiz-adv-x="1255" d="M18 0l799 1391h180l207 -1391h-180l-55 399h-547l-223 -399h-181zM508 553h440l-86 618zM571 1559q57 33 83 46t57 25q68 31 133 31q16 0 24 -2q16 -2 28.5 -4t26 -8.5t34 -19.5t57.5 -34q31 -18 53.5 -26t46.5 -8q20 0 37.5 3t38 11t47.5 22.5t68 38.5l45 -82 q-41 -33 -64.5 -46t-66.5 -29q-80 -33 -150 -33q-74 0 -166 55q-43 25 -61.5 32t-44.5 7q-39 0 -76 -16q-10 -4 -18.5 -8.5t-18.5 -9.5t-25.5 -13t-42.5 -23z" />
<glyph unicode="&#xc4;" horiz-adv-x="1255" d="M18 0l799 1391h180l207 -1391h-180l-55 399h-547l-223 -399h-181zM508 553h440l-86 618zM647 1552q10 43 47 74t78 31q43 0 67.5 -31t14.5 -74q-8 -41 -46 -71.5t-81 -30.5q-41 0 -64.5 30.5t-15.5 71.5zM1026 1552q10 43 47 74t80 31t66.5 -31t13.5 -74 q-8 -41 -45 -71.5t-80 -30.5t-66.5 30.5t-15.5 71.5z" />
<glyph unicode="&#xc5;" horiz-adv-x="1255" d="M18 0l799 1391h180l207 -1391h-180l-55 399h-547l-223 -399h-181zM508 553h440l-86 618zM795 1614q16 68 73.5 116t124.5 48q68 0 105.5 -48t21.5 -116q-14 -68 -70.5 -115t-123.5 -47q-68 0 -107 47t-24 115zM872 1614q-6 -35 14.5 -59.5t55.5 -24.5t64.5 24.5 t35.5 59.5q8 35 -11 60.5t-54 25.5t-65.5 -25.5t-39.5 -60.5z" />
<glyph unicode="&#xc6;" horiz-adv-x="1638" d="M-20 0l968 1352h105h759l-28 -142h-602l-97 -450h498l-31 -142h-497l-101 -477h615l-31 -141h-772l84 399h-399l-277 -399h-194zM547 553h336l147 692z" />
<glyph unicode="&#xc7;" horiz-adv-x="1216" d="M221 474q-6 99 17 208q31 147 109.5 274t190 220.5t247 146.5t280.5 53q129 0 244 -45q41 -16 67.5 -32.5t69.5 -51.5l-111 -127q-66 53 -138.5 78t-170.5 25q-109 0 -207 -39t-178 -109.5t-137.5 -168t-81.5 -214.5q-27 -127 -12.5 -231.5t67.5 -178t141.5 -113.5 t206.5 -40q86 0 161 14.5t165 49.5l18 -132q-57 -25 -89.5 -36t-73.5 -21q-111 -27 -203 -27h-8l-101 -118h19q158 0 125 -156q-18 -86 -85 -137t-165 -51q-49 0 -95.5 10t-113.5 37l72 104q53 -25 85.5 -35t61.5 -10q37 0 64.5 21.5t35.5 54.5q8 47 -19.5 65.5t-100.5 18.5 h-64l162 199q-33 6 -59.5 10t-46 10t-39 14.5t-42.5 18.5q-80 41 -139 106.5t-91 150.5t-38 184z" />
<glyph unicode="&#xc8;" horiz-adv-x="1046" d="M168 0l287 1352h759l-28 -142h-592l-96 -450h489l-31 -142h-489l-100 -477h610l-31 -141h-778zM676 1706h180l141 -242h-141z" />
<glyph unicode="&#xc9;" horiz-adv-x="1046" d="M168 0l287 1352h759l-28 -142h-592l-96 -450h489l-31 -142h-489l-100 -477h610l-31 -141h-778zM817 1459q25 24 71 70l98 98t81 79h180l-282 -242h-144q-29 -29 -4 -5z" />
<glyph unicode="&#xca;" horiz-adv-x="1046" d="M168 0l287 1352h759l-28 -142h-592l-96 -450h489l-31 -142h-489l-100 -477h610l-31 -141h-778zM590 1425l278 240h129l185 -240h-146l-125 138l-184 -138h-137z" />
<glyph unicode="&#xcb;" horiz-adv-x="1046" d="M168 0l287 1352h759l-28 -142h-592l-96 -450h489l-31 -142h-489l-100 -477h610l-31 -141h-778zM614 1559q8 43 45 72.5t80 29.5q41 0 65.5 -29.5t16.5 -72.5q-10 -43 -47 -74t-78 -31q-43 0 -67.5 31t-14.5 74zM995 1559q8 43 44 72.5t79 29.5t66.5 -29.5t15.5 -72.5 q-10 -43 -46 -74t-79 -31t-66.5 31t-13.5 74z" />
<glyph unicode="&#xcc;" horiz-adv-x="575" d="M176 0l287 1352h168l-287 -1352h-168zM373 1706h180l141 -242h-141z" />
<glyph unicode="&#xcd;" horiz-adv-x="569" d="M195 0l286 1352h168l-287 -1352h-167zM479 1464l244 242h180l-282 -242h-142z" />
<glyph unicode="&#xce;" horiz-adv-x="661" d="M229 0l287 1352h168l-287 -1352h-168zM332 1425l280 240h129l183 -240h-144l-127 138l-182 -138h-139z" />
<glyph unicode="&#xcf;" horiz-adv-x="585" d="M197 0l286 1352h168l-286 -1352h-168zM358 1552q10 43 46 74t79 31t66.5 -31t13.5 -74q-8 -41 -45 -71.5t-80 -30.5t-65.5 30.5t-14.5 71.5zM670 1552q10 43 46 74t79 31t66 -31t13 -74q-8 -41 -44.5 -71.5t-79.5 -30.5t-65.5 30.5t-14.5 71.5z" />
<glyph unicode="&#xd1;" horiz-adv-x="1468" d="M168 0l287 1352h219l450 -1030q4 -6 7.5 -14.5t5.5 -18.5q2 -16 4 -24.5t8 -37.5v-9t2 -11l244 1145h168l-289 -1364h-195l-458 1054q-2 8 -7.5 19.5t-9.5 28.5q-4 10 -6 17t-4 13q-4 10 -6 20.5t-2 30.5l-250 -1171h-168zM682 1540q57 33 83 46t56 26q68 31 133 30 q16 0 25 -2q16 -2 28.5 -4t26 -8t35 -19.5t55.5 -33.5q33 -18 54.5 -26.5t46.5 -8.5q20 0 37.5 3t38 11.5t47 22.5t67.5 39l45 -82q-41 -33 -64.5 -46t-66.5 -30q-80 -33 -149 -33q-74 0 -166 56q-43 25 -61.5 32t-45.5 7q-39 0 -76 -17q-10 -4 -18 -8t-18.5 -9t-25.5 -13.5 t-42 -22.5z" />
<glyph unicode="&#xd2;" horiz-adv-x="1581" d="M227.5 394q-24.5 128 8.5 282q33 152 111.5 280.5t188 222t246 145.5t283.5 52t260 -52t184.5 -145.5t94 -222t-10.5 -280.5q-33 -154 -109.5 -282t-188 -222t-247 -146.5t-282.5 -52.5t-261 52.5t-183.5 146.5t-94 222zM415.5 466q18.5 -99 71 -174t133 -118t181.5 -43 q100 0 199.5 44t182.5 118t143 173t83 210q25 111 6.5 210t-70 173t-132 118t-181.5 44q-100 0 -199.5 -44t-183.5 -118t-144.5 -173.5t-84.5 -209.5q-23 -111 -4.5 -210zM819 1706h180l142 -242h-142z" />
<glyph unicode="&#xd3;" horiz-adv-x="1581" d="M227.5 394q-24.5 128 8.5 282q33 152 111.5 280.5t188 222t246 145.5t283.5 52t260 -52t184.5 -145.5t94 -222t-10.5 -280.5q-33 -154 -109.5 -282t-188 -222t-247 -146.5t-282.5 -52.5t-261 52.5t-183.5 146.5t-94 222zM415.5 466q18.5 -99 71 -174t133 -118t181.5 -43 q100 0 199.5 44t182.5 118t143 173t83 210q25 111 6.5 210t-70 173t-132 118t-181.5 44q-100 0 -199.5 -44t-183.5 -118t-144.5 -173.5t-84.5 -209.5q-23 -111 -4.5 -210zM1006 1464l243 242h181l-283 -242h-141z" />
<glyph unicode="&#xd4;" horiz-adv-x="1581" d="M227.5 394q-24.5 128 8.5 282q33 152 111.5 280.5t188 222t246 145.5t283.5 52t260 -52t184.5 -145.5t94 -222t-10.5 -280.5q-33 -154 -109.5 -282t-188 -222t-247 -146.5t-282.5 -52.5t-261 52.5t-183.5 146.5t-94 222zM415.5 466q18.5 -99 71 -174t133 -118t181.5 -43 q100 0 199.5 44t182.5 118t143 173t83 210q25 111 6.5 210t-70 173t-132 118t-181.5 44q-100 0 -199.5 -44t-183.5 -118t-144.5 -173.5t-84.5 -209.5q-23 -111 -4.5 -210zM778 1425l281 240h129l184 -240h-145l-125 138l-184 -138h-140z" />
<glyph unicode="&#xd5;" horiz-adv-x="1581" d="M227.5 394q-24.5 128 8.5 282q33 152 111.5 280.5t188 222t246 145.5t283.5 52t260 -52t184.5 -145.5t94 -222t-10.5 -280.5q-33 -154 -109.5 -282t-188 -222t-247 -146.5t-282.5 -52.5t-261 52.5t-183.5 146.5t-94 222zM415.5 466q18.5 -99 71 -174t133 -118t181.5 -43 q100 0 199.5 44t182.5 118t143 173t83 210q25 111 6.5 210t-70 173t-132 118t-181.5 44q-100 0 -199.5 -44t-183.5 -118t-144.5 -173.5t-84.5 -209.5q-23 -111 -4.5 -210zM711 1532q57 33 82.5 46t56.5 26q70 31 135 30q16 0 23 -2q16 -2 28.5 -4t25.5 -8t34.5 -19.5 t58.5 -33.5q31 -18 52.5 -26.5t45.5 -8.5q20 0 39 3t38.5 11t46 22.5t67.5 39.5l45 -82q-41 -33 -64.5 -46.5t-66.5 -29.5q-80 -33 -150 -33q-74 0 -166 56q-43 25 -61 31.5t-45 6.5q-39 0 -76 -16q-10 -4 -18 -8t-18.5 -9t-26 -13.5t-39.5 -22.5z" />
<glyph unicode="&#xd6;" horiz-adv-x="1581" d="M227.5 394q-24.5 128 8.5 282q33 152 111.5 280.5t188 222t246 145.5t283.5 52t260 -52t184.5 -145.5t94 -222t-10.5 -280.5q-33 -154 -109.5 -282t-188 -222t-247 -146.5t-282.5 -52.5t-261 52.5t-183.5 146.5t-94 222zM415.5 466q18.5 -99 71 -174t133 -118t181.5 -43 q100 0 199.5 44t182.5 118t143 173t83 210q25 111 6.5 210t-70 173t-132 118t-181.5 44q-100 0 -199.5 -44t-183.5 -118t-144.5 -173.5t-84.5 -209.5q-23 -111 -4.5 -210zM797 1556q8 41 45 72t80 31q41 0 65.5 -31t16.5 -72q-10 -43 -47 -73.5t-78 -30.5q-43 0 -68 30.5 t-14 73.5zM1212 1556q8 41 44 72t79 31t66.5 -31t15.5 -72q-10 -43 -46 -73.5t-79 -30.5t-66.5 30.5t-13.5 73.5z" />
<glyph unicode="&#xd7;" horiz-adv-x="1126" d="M86 59l489 404l-317 403l104 86l318 -403l489 403l68 -86l-489 -403l317 -404l-104 -84l-318 402l-489 -404z" />
<glyph unicode="&#xd9;" horiz-adv-x="1347" d="M238.5 243q-17.5 87 11.5 220l188 889h168l-178 -838q-12 -63 -18.5 -105t-5 -74t11.5 -56.5t30 -51.5q78 -117 256 -116q178 0 310 116q29 27 49 51.5t35.5 56.5t28 74t24.5 105l178 838h168l-188 -889q-29 -135 -83.5 -221t-152.5 -156q-180 -125 -397 -125 q-219 0 -346 125q-72 70 -89.5 157zM807 1706h180l143 -242h-141z" />
<glyph unicode="&#xda;" horiz-adv-x="1347" d="M238.5 243q-17.5 87 11.5 220l188 889h168l-178 -838q-12 -63 -18.5 -105t-5 -74t11.5 -56.5t30 -51.5q78 -117 256 -116q178 0 310 116q29 27 49 51.5t35.5 56.5t28 74t24.5 105l178 838h168l-188 -889q-29 -135 -83.5 -221t-152.5 -156q-180 -125 -397 -125 q-219 0 -346 125q-72 70 -89.5 157zM909 1464l244 242h180l-282 -242h-142z" />
<glyph unicode="&#xdb;" horiz-adv-x="1347" d="M238.5 243q-17.5 87 11.5 220l188 889h168l-178 -838q-12 -63 -18.5 -105t-5 -74t11.5 -56.5t30 -51.5q78 -117 256 -116q178 0 310 116q29 27 49 51.5t35.5 56.5t28 74t24.5 105l178 838h168l-188 -889q-29 -135 -83.5 -221t-152.5 -156q-180 -125 -397 -125 q-219 0 -346 125q-72 70 -89.5 157zM702 1425l281 240h129l184 -240h-145l-125 138l-184 -138h-140z" />
<glyph unicode="&#xdc;" horiz-adv-x="1347" d="M238.5 243q-17.5 87 11.5 220l188 889h168l-178 -838q-12 -63 -18.5 -105t-5 -74t11.5 -56.5t30 -51.5q78 -117 256 -116q178 0 310 116q29 27 49 51.5t35.5 56.5t28 74t24.5 105l178 838h168l-188 -889q-29 -135 -83.5 -221t-152.5 -156q-180 -125 -397 -125 q-219 0 -346 125q-72 70 -89.5 157zM717 1561q8 43 45 72.5t80 29.5t65.5 -29.5t14.5 -72.5t-45 -73t-80 -30t-65.5 30t-14.5 73zM1130 1561q8 43 45 72.5t80 29.5t65.5 -29.5t14.5 -72.5t-45 -73t-80 -30t-65.5 30t-14.5 73z" />
<glyph unicode="&#xe0;" horiz-adv-x="894" d="M154 219q20 102 86.5 168t175.5 90l336 76l36 168q25 115 -151 115q-141 0 -160 -80q-2 -12 2 -35l-164 -33q-6 18 -6 29.5t2 27.5q20 92 125 149.5t254 57.5q141 0 209 -61.5t45 -169.5l-106 -502l-15 -67q-2 -37 66 -50l-66 -129q-94 6 -126.5 35t-24.5 94 q-43 -31 -66.5 -46t-48.5 -27q-49 -25 -104.5 -39.5t-104.5 -14.5q-113 0 -166 67t-28 177zM309 233q-12 -55 15.5 -87.5t85.5 -32.5q27 0 51 5t55 18.5t71 36t97 58.5l41 193l-367 -90q-25 -33 -34 -52.5t-15 -48.5zM537 1352h180l123 -334h-142z" />
<glyph unicode="&#xe1;" horiz-adv-x="892" d="M152 219q20 102 86.5 168t175.5 90l336 76l36 168q25 115 -151 115q-141 0 -160 -80q-2 -12 2 -35l-164 -33q-6 18 -6 29.5t2 27.5q20 92 125 149.5t254 57.5q141 0 209 -61.5t45 -169.5l-106 -502l-15 -67q-2 -37 66 -50l-66 -129q-94 6 -126.5 35t-24.5 94 q-43 -31 -66.5 -46t-48.5 -27q-49 -25 -104.5 -39.5t-104.5 -14.5q-113 0 -166 67t-28 177zM307 233q-12 -55 15.5 -87.5t85.5 -32.5q27 0 51 5t55 18.5t71 36t97 58.5l41 193l-367 -90q-25 -33 -34 -52.5t-15 -48.5zM618 1018l263 334h180l-301 -334h-142z" />
<glyph unicode="&#xe2;" horiz-adv-x="894" d="M154 219q20 102 86.5 168t175.5 90l336 76l36 168q25 115 -151 115q-141 0 -160 -80q-2 -12 2 -35l-164 -33q-6 18 -6 29.5t2 27.5q20 92 125 149.5t254 57.5q141 0 209 -61.5t45 -169.5l-106 -502l-15 -67q-2 -37 66 -50l-66 -129q-94 6 -126.5 35t-24.5 94 q-43 -31 -66.5 -46t-48.5 -27q-49 -25 -104.5 -39.5t-104.5 -14.5q-113 0 -166 67t-28 177zM309 233q-12 -55 15.5 -87.5t85.5 -32.5q27 0 51 5t55 18.5t71 36t97 58.5l41 193l-367 -90q-25 -33 -34 -52.5t-15 -48.5zM414 1018l299 334h129l166 -334h-146l-108 219 l-201 -219h-139z" />
<glyph unicode="&#xe3;" horiz-adv-x="946" d="M170 219q20 102 87 168t175 90l336 76l37 168q25 115 -152 115q-141 0 -159 -80q-2 -12 2 -35l-164 -33q-6 18 -6 29.5t2 27.5q20 92 124.5 149.5t254.5 57.5q141 0 208.5 -61.5t45.5 -169.5l-107 -502l-14 -67q-2 -37 65 -50l-65 -129q-94 6 -127 35t-25 94 q-43 -31 -66.5 -46t-48.5 -27q-49 -25 -104 -39.5t-104 -14.5q-113 0 -166.5 67t-28.5 177zM326 233q-12 -55 15.5 -87.5t84.5 -32.5q27 0 51.5 5t55 18.5t70.5 36t97 58.5l41 193l-366 -90q-25 -33 -34 -52.5t-15 -48.5zM377 1190q59 33 84.5 46t56.5 26q68 31 133 30 q16 0 25 -2q16 -2 27.5 -4t25.5 -8t34.5 -19.5t57.5 -33.5q31 -18 52.5 -26.5t46.5 -8.5q20 0 38.5 3t39 11t47 22.5t65.5 39.5l47 -82q-43 -33 -65.5 -46.5t-65.5 -29.5q-80 -33 -149 -33q-74 0 -168 55q-41 25 -60.5 32t-46.5 7q-39 0 -74 -16q-12 -4 -20 -8t-18.5 -9.5 t-24.5 -13.5t-41 -22z" />
<glyph unicode="&#xe4;" horiz-adv-x="903" d="M162 219q20 102 86.5 168t175.5 90l336 76l37 168q25 115 -152 115q-141 0 -160 -80q-2 -12 2 -35l-163 -33q-6 18 -6.5 29.5t1.5 27.5q20 92 125 149.5t254 57.5q141 0 209 -61.5t45 -169.5l-106 -502l-15 -67q-2 -37 66 -50l-66 -129q-94 6 -126.5 35t-24.5 94 q-43 -31 -66.5 -46t-48.5 -27q-49 -25 -104 -39.5t-105 -14.5q-113 0 -166 67t-28 177zM317 233q-12 -55 15.5 -87.5t85.5 -32.5q27 0 51.5 5t55 18.5t70.5 36t97 58.5l41 193l-366 -90q-25 -33 -34 -52.5t-16 -48.5zM446 1174q8 43 46 73.5t81 30.5q41 0 64.5 -30.5 t15.5 -73.5q-8 -41 -46 -72t-79 -31q-43 0 -66.5 31t-15.5 72zM805 1174q8 43 46 73.5t81 30.5q41 0 64.5 -30.5t15.5 -73.5q-8 -41 -46 -72t-79 -31q-43 0 -66.5 31t-15.5 72z" />
<glyph unicode="&#xe5;" horiz-adv-x="894" d="M154 219q20 102 86.5 168t175.5 90l336 76l36 168q25 115 -151 115q-141 0 -160 -80q-2 -12 2 -35l-164 -33q-6 18 -6 29.5t2 27.5q20 92 125 149.5t254 57.5q141 0 209 -61.5t45 -169.5l-106 -502l-15 -67q-2 -37 66 -50l-66 -129q-94 6 -126.5 35t-24.5 94 q-43 -31 -66.5 -46t-48.5 -27q-49 -25 -104.5 -39.5t-104.5 -14.5q-113 0 -166 67t-28 177zM309 233q-12 -55 15.5 -87.5t85.5 -32.5q27 0 51 5t55 18.5t71 36t97 58.5l41 193l-367 -90q-25 -33 -34 -52.5t-15 -48.5zM582 1200q14 68 72.5 116t125.5 48q68 0 104.5 -48 t22.5 -116t-71.5 -115t-124.5 -47q-68 0 -106 47.5t-23 114.5zM659 1200q-8 -35 12.5 -59.5t55.5 -24.5t64.5 24.5t37.5 59.5q6 35 -13 60.5t-54 25.5t-65.5 -25.5t-37.5 -60.5z" />
<glyph unicode="&#xe7;" horiz-adv-x="987" d="M188 455q23 109 78.5 199.5t134 157.5t176 103.5t203.5 36.5q70 0 133 -18q43 -12 70 -27.5t68 -48.5l-115 -125q-43 45 -86 62.5t-107 17.5q-141 0 -246.5 -97.5t-138.5 -254.5q-35 -160 33 -253t217 -93q68 0 121 17.5t119 60.5l53 -121q-29 -16 -51.5 -27.5t-42 -20 t-41 -15.5t-49.5 -15q-41 -10 -62.5 -14.5t-60.5 -6.5l-88 -114q72 0 103.5 -40t15.5 -116q-16 -82 -82 -134t-152 -52q-20 0 -37.5 2t-39 6t-49 13t-66.5 24l71 104q53 -25 86 -35t64 -10q35 0 62.5 21.5t35.5 54.5q8 47 -19.5 65.5t-99.5 18.5h-65l158 192 q-197 47 -271 165t-33 317z" />
<glyph unicode="&#xe8;" horiz-adv-x="991" d="M173 262q-11 90 11 201q25 111 75 201t122 154.5t160 99t186 34.5q82 0 141.5 -27.5t96 -77.5t47 -122t-7.5 -158l-19 -90h-635q-37 -170 23.5 -266t201.5 -96q61 0 118 19.5t143 72.5l36 -121q-57 -33 -104 -54.5t-89 -34.5t-82 -18.5t-85 -5.5q-96 0 -169 35t-116 99.5 t-54 154.5zM385 592h455q23 109 -17.5 165t-136.5 56q-98 0 -174 -56.5t-127 -164.5zM578 1352h180l123 -334h-142z" />
<glyph unicode="&#xe9;" horiz-adv-x="1028" d="M179 262q-11 90 11 201q25 111 75 201t122 154.5t160 99t186 34.5q82 0 141.5 -27.5t96.5 -77.5t47 -122t-8 -158l-19 -90h-635q-37 -170 23.5 -266t202.5 -96q61 0 117.5 19.5t142.5 72.5l37 -121q-57 -33 -104.5 -54.5t-89.5 -34.5t-82 -18.5t-85 -5.5q-96 0 -169 35 t-116 99.5t-54 154.5zM391 592h455q23 109 -17.5 165t-136.5 56q-98 0 -174 -56.5t-127 -164.5zM641 1018l264 334h180l-301 -334h-143z" />
<glyph unicode="&#xea;" horiz-adv-x="1021" d="M173 262q-11 90 11 201q25 111 75 201t122 154.5t160 99t186 34.5q82 0 141.5 -27.5t96 -77.5t47 -122t-7.5 -158l-19 -90h-635q-37 -170 23.5 -266t201.5 -96q61 0 118 19.5t143 72.5l36 -121q-57 -33 -104 -54.5t-89 -34.5t-82 -18.5t-85 -5.5q-96 0 -169 35t-116 99.5 t-54 154.5zM385 592h455q23 109 -17.5 165t-136.5 56q-98 0 -174 -56.5t-127 -164.5zM442 1018l301 334h129l162 -334h-141l-109 219l-200 -219h-142z" />
<glyph unicode="&#xeb;" horiz-adv-x="1030" d="M173 262q-11 90 11 201q25 111 75 201t122 154.5t160 99t186 34.5q82 0 141.5 -27.5t96 -77.5t47 -122t-7.5 -158l-19 -90h-635q-37 -170 23.5 -266t201.5 -96q61 0 118 19.5t143 72.5l36 -121q-57 -33 -104 -54.5t-89 -34.5t-82 -18.5t-85 -5.5q-96 0 -169 35t-116 99.5 t-54 154.5zM385 592h455q23 109 -17.5 165t-136.5 56q-98 0 -174 -56.5t-127 -164.5zM489 1171q8 43 45 74t80 31q41 0 65.5 -31t16.5 -74q-10 -41 -47 -71.5t-78 -30.5q-43 0 -67.5 30.5t-14.5 71.5zM848 1171q8 43 45 74t80 31q41 0 65.5 -31t16.5 -74q-10 -41 -47 -71.5 t-78 -30.5q-43 0 -67.5 30.5t-14.5 71.5z" />
<glyph unicode="&#xec;" horiz-adv-x="557" d="M229 0l197 928h154l-197 -928h-154zM324 1352h180l123 -334h-142z" />
<glyph unicode="&#xed;" horiz-adv-x="503" d="M160 0l196 928h154l-197 -928h-153zM365 1018l262 334h180l-301 -334h-141z" />
<glyph unicode="&#xee;" horiz-adv-x="612" d="M242 1018l301 334h129l162 -334h-142l-108 219l-201 -219h-141zM244 0l196 928h154l-197 -928h-153z" />
<glyph unicode="&#xef;" horiz-adv-x="565" d="M217 0l197 928h153l-196 -928h-154zM266 1174q8 43 46 73.5t81 30.5q41 0 64.5 -30.5t15.5 -73.5q-8 -41 -46 -72t-79 -31q-43 0 -66.5 31t-15.5 72zM625 1174q8 43 46 73.5t81 30.5q41 0 64 -30.5t15 -73.5q-8 -41 -45.5 -72t-78.5 -31q-43 0 -67 31t-15 72z" />
<glyph unicode="&#xf1;" horiz-adv-x="1093" d="M156 0l196 928h154l-41 -195q31 27 51.5 45.5t35.5 31.5t31.5 24.5t34.5 25.5q63 45 133 68.5t136 23.5q244 0 188 -258l-147 -694h-154l139 657q10 47 11.5 67.5t-2.5 41.5q-4 23 -27 36t-55 13q-35 0 -76 -13.5t-90 -43t-108.5 -76.5t-135.5 -115l-121 -567h-153z M418 1182q57 33 82.5 46t56.5 25q68 31 133 31q16 0 25 -2q16 -2 27.5 -4t25.5 -8t34.5 -19.5t57.5 -33.5q31 -18 53.5 -26.5t47.5 -8.5q20 0 37.5 3t38 11t47 22.5t67.5 38.5l45 -81q-41 -33 -64.5 -46.5t-66.5 -29.5q-80 -33 -150 -33q-74 0 -167 55q-41 25 -59.5 32 t-45.5 7q-39 0 -76 -16q-12 -4 -19 -8t-18.5 -9.5t-26 -13.5t-40.5 -22z" />
<glyph unicode="&#xf2;" horiz-adv-x="1110" d="M180.5 273q-16.5 89 3.5 190q20 100 75.5 189t132.5 155.5t169 105.5t187 39q94 0 168.5 -39t122.5 -105.5t64.5 -155.5t-3.5 -189t-75.5 -189.5t-132.5 -156t-168 -105.5t-185 -39t-170 39t-124 105.5t-64.5 155.5zM345 324.5q9 -64.5 38 -111.5t76 -74.5t108 -27.5 t119.5 27.5t108 74.5t85.5 111.5t52 138.5t7 138.5t-38 111.5t-75 74.5t-107 27.5t-120.5 -27.5t-109 -74.5t-85 -111.5t-52.5 -138.5q-16 -74 -7 -138.5zM567 1352h181l137 -334h-142z" />
<glyph unicode="&#xf3;" horiz-adv-x="1116" d="M186.5 273q-16.5 89 3.5 190q20 100 76 189t132.5 155.5t168.5 105.5t187 39q94 0 168.5 -39t123 -105.5t64.5 -155.5t-4 -189t-75.5 -189.5t-132.5 -156t-168 -105.5t-185 -39t-170 39t-124 105.5t-64.5 155.5zM351 324.5q9 -64.5 38 -111.5t76 -74.5t108 -27.5 t120 27.5t108 74.5t85 111.5t52 138.5t7 138.5t-37.5 111.5t-75 74.5t-107.5 27.5t-120.5 -27.5t-109 -74.5t-85 -111.5t-52.5 -138.5q-16 -74 -7 -138.5zM684 1018l246 334h180l-291 -334h-135z" />
<glyph unicode="&#xf4;" horiz-adv-x="1110" d="M180.5 273q-16.5 89 3.5 190q20 100 75.5 189t132.5 155.5t169 105.5t187 39q94 0 168.5 -39t122.5 -105.5t64.5 -155.5t-3.5 -189t-75.5 -189.5t-132.5 -156t-168 -105.5t-185 -39t-170 39t-124 105.5t-64.5 155.5zM345 324.5q9 -64.5 38 -111.5t76 -74.5t108 -27.5 t119.5 27.5t108 74.5t85.5 111.5t52 138.5t7 138.5t-38 111.5t-75 74.5t-107 27.5t-120.5 -27.5t-109 -74.5t-85 -111.5t-52.5 -138.5q-16 -74 -7 -138.5zM473 1018l301 334h129l162 -334h-141l-111 219l-199 -219h-141z" />
<glyph unicode="&#xf5;" horiz-adv-x="1148" d="M186.5 273q-16.5 89 3.5 190q20 100 76 189t132.5 155.5t168.5 105.5t187 39q94 0 168.5 -39t123 -105.5t64.5 -155.5t-4 -189t-75.5 -189.5t-132.5 -156t-168 -105.5t-185 -39t-170 39t-124 105.5t-64.5 155.5zM351 324.5q9 -64.5 38 -111.5t76 -74.5t108 -27.5 t120 27.5t108 74.5t85 111.5t52 138.5t7 138.5t-37.5 111.5t-75 74.5t-107.5 27.5t-120.5 -27.5t-109 -74.5t-85 -111.5t-52.5 -138.5q-16 -74 -7 -138.5zM395 1182q57 33 83 46t57 25q68 31 133 31q16 0 24 -2q16 -2 27.5 -4t26 -8t35 -19.5t57.5 -33.5q31 -18 53 -26.5 t47 -8.5q20 0 37.5 3t38 11t47 22.5t67.5 38.5l46 -81q-41 -33 -65 -46.5t-67 -29.5q-80 -33 -149 -33q-74 0 -168 55q-41 25 -59.5 32t-44.5 7q-39 0 -76 -16q-12 -4 -19.5 -8t-18.5 -9.5t-25.5 -13.5t-41.5 -22z" />
<glyph unicode="&#xf6;" horiz-adv-x="1110" d="M180.5 273q-16.5 89 3.5 190q20 100 75.5 189t132.5 155.5t169 105.5t187 39q94 0 168.5 -39t122.5 -105.5t64.5 -155.5t-3.5 -189t-75.5 -189.5t-132.5 -156t-168 -105.5t-185 -39t-170 39t-124 105.5t-64.5 155.5zM345 324.5q9 -64.5 38 -111.5t76 -74.5t108 -27.5 t119.5 27.5t108 74.5t85.5 111.5t52 138.5t7 138.5t-38 111.5t-75 74.5t-107 27.5t-120.5 -27.5t-109 -74.5t-85 -111.5t-52.5 -138.5q-16 -74 -7 -138.5zM520 1171q8 43 45 74t80 31q41 0 65.5 -31t16.5 -74q-10 -41 -47 -71.5t-78 -30.5q-43 0 -67.5 30.5t-14.5 71.5z M879 1171q8 43 45 74t80 31q41 0 65 -31t16 -74q-10 -41 -47 -71.5t-77 -30.5q-43 0 -68 30.5t-14 71.5z" />
<glyph unicode="&#xf7;" horiz-adv-x="1126" d="M141 426l25 117h1024l-25 -117h-1024zM467 98q10 49 53 84t94 35q49 0 76 -35t17 -84q-10 -51 -52.5 -86t-91.5 -35q-51 0 -78.5 35t-17.5 86zM633 874q10 51 52 86t93 35q49 0 76.5 -35t17.5 -86q-10 -49 -53 -83.5t-92 -34.5q-51 0 -77.5 34.5t-16.5 83.5z" />
<glyph unicode="&#xf9;" horiz-adv-x="1067" d="M197 231l147 697h154l-140 -658q-18 -86 -0.5 -123.5t76.5 -37.5q37 0 86 18t102.5 52t109.5 80t108 101l121 568h155l-196 -928h-156l41 193q-207 -221 -416 -222q-248 0 -192 260zM563 1352h180l123 -334h-141z" />
<glyph unicode="&#xfa;" horiz-adv-x="1071" d="M201 231l147 697h154l-140 -658q-18 -86 -0.5 -123.5t76.5 -37.5q37 0 86 18t102.5 52t110 80t107.5 101l121 568h155l-196 -928h-156l41 193q-207 -221 -416 -222q-248 0 -192 260zM664 1018l264 334h180l-303 -334h-141z" />
<glyph unicode="&#xfb;" horiz-adv-x="1067" d="M197 231l147 697h154l-140 -658q-18 -86 -0.5 -123.5t76.5 -37.5q37 0 86 18t102.5 52t109.5 80t108 101l121 568h155l-196 -928h-156l41 193q-207 -221 -416 -222q-248 0 -192 260zM455 1018l301 334h129l162 -334h-142l-110 219l-199 -219h-141z" />
<glyph unicode="&#xfc;" horiz-adv-x="1067" d="M197 231l147 697h154l-140 -658q-18 -86 -0.5 -123.5t76.5 -37.5q37 0 86 18t102.5 52t109.5 80t108 101l121 568h155l-196 -928h-156l41 193q-207 -221 -416 -222q-248 0 -192 260zM514 1171q8 43 45 74t80 31q41 0 65.5 -31t16.5 -74q-10 -41 -47 -71.5t-78 -30.5 q-43 0 -67.5 30.5t-14.5 71.5zM872 1171q8 43 45 74t80 31q41 0 65.5 -31t16.5 -74q-10 -41 -47 -71.5t-78 -30.5q-43 0 -67.5 30.5t-14.5 71.5z" />
<glyph unicode="&#xff;" horiz-adv-x="878" d="M-4 -424q43 39 73.5 67.5t55.5 54.5t47.5 53.5t50.5 64.5q25 33 46.5 62.5t43 61t45 70.5t56.5 92l-170 826h172l102 -568l12 -90l39 90l312 568h157l-571 -979q-51 -86 -93 -148.5t-95 -124.5q-18 -23 -35 -42t-36.5 -40.5t-46 -48l-63.5 -63.5zM408 1120q10 43 47 74 t80 31q41 0 65 -31t14 -74q-8 -41 -45 -71.5t-77 -30.5q-43 0 -68 30.5t-16 71.5zM766 1120q10 43 47 74t80 31q41 0 65.5 -31t14.5 -74q-8 -41 -45 -71.5t-78 -30.5q-43 0 -67.5 30.5t-16.5 71.5z" />
<glyph unicode="&#x178;" horiz-adv-x="1060" d="M305 1352h180l240 -580l496 580h178l-629 -721l-133 -631h-168l131 618zM571 1552q8 41 45 72t80 31t66.5 -31t15.5 -72q-8 -43 -46 -73.5t-81 -30.5t-65.5 30.5t-14.5 73.5zM985 1552q8 41 46 72t79 31q43 0 66.5 -31t15.5 -72q-8 -43 -46 -73.5t-81 -30.5 q-41 0 -64.5 30.5t-15.5 73.5z" />
<glyph unicode="&#x2000;" horiz-adv-x="889" />
<glyph unicode="&#x2001;" horiz-adv-x="1778" />
<glyph unicode="&#x2002;" horiz-adv-x="889" />
<glyph unicode="&#x2003;" horiz-adv-x="1778" />
<glyph unicode="&#x2004;" horiz-adv-x="592" />
<glyph unicode="&#x2005;" horiz-adv-x="444" />
<glyph unicode="&#x2006;" horiz-adv-x="296" />
<glyph unicode="&#x2007;" horiz-adv-x="296" />
<glyph unicode="&#x2008;" horiz-adv-x="222" />
<glyph unicode="&#x2009;" horiz-adv-x="355" />
<glyph unicode="&#x200a;" horiz-adv-x="98" />
<glyph unicode="&#x2010;" horiz-adv-x="614" d="M184 389l35 156h391l-35 -156h-391z" />
<glyph unicode="&#x2011;" horiz-adv-x="614" d="M184 389l35 156h391l-35 -156h-391z" />
<glyph unicode="&#x2012;" horiz-adv-x="614" d="M184 389l35 156h391l-35 -156h-391z" />
<glyph unicode="&#x2013;" horiz-adv-x="1024" d="M90 426l25 117h1024l-25 -117h-1024z" />
<glyph unicode="&#x2014;" horiz-adv-x="2236" d="M184 389l168 156h1880l-168 -156h-1880z" />
<glyph unicode="&#x2018;" horiz-adv-x="516" d="M362 981q10 47 39 106q23 45 53.5 90.5t88.5 122.5l37 52h90q-23 -35 -35 -56.5t-35 -60.5q-10 -23 -18.5 -38t-15.5 -28.5t-13 -28t-14 -34.5l41 -219q-39 -23 -66 -30t-61 -7q-119 0 -91 131z" />
<glyph unicode="&#x2019;" horiz-adv-x="516" d="M311 877q16 18 26.5 31.5t19 25.5t17.5 27.5t23 39.5q16 33 27.5 56.5t28.5 64.5l-43 219q27 12 44 18.5t30.5 10.5t25.5 5t29 1q117 0 88 -131q-14 -72 -69.5 -169t-143.5 -199h-103z" />
<glyph unicode="&#x201a;" horiz-adv-x="516" d="M70 -297q23 33 35 54.5t34 62.5q10 20 19.5 35.5t14.5 29t12.5 27.5t15.5 35l-41 221q39 23 65.5 30t61.5 7q117 0 90 -131q-10 -47 -41 -109q-10 -23 -23.5 -45t-30 -47t-37 -53.5t-48.5 -67.5l-37 -49h-90z" />
<glyph unicode="&#x201c;" horiz-adv-x="894" d="M362 983q14 72 69.5 168t143.5 201h105q-33 -37 -47.5 -58.5t-38.5 -66.5q-16 -33 -27.5 -56.5t-27.5 -64.5l43 -219q-25 -12 -43.5 -18.5t-30.5 -10.5t-25.5 -5t-29.5 -1q-119 0 -91 131zM739 983q14 72 71.5 169t141.5 200h105q-16 -18 -26.5 -31.5t-20 -26t-17.5 -28 t-22 -39.5q-16 -33 -27.5 -56.5t-28.5 -64.5l43 -219q-27 -12 -44 -18.5t-29.5 -10.5t-25.5 -5t-30 -1q-119 0 -90 131z" />
<glyph unicode="&#x201d;" horiz-adv-x="894" d="M311 877q16 18 26.5 31.5t19 25.5t17.5 27.5t23 39.5q16 33 27.5 56.5t28.5 64.5l-43 219q27 12 44 18.5t30.5 10.5t25.5 5t29 1q117 0 88 -131q-14 -72 -69.5 -169t-143.5 -199h-103zM688 877q16 18 27.5 31.5t19.5 26.5t18.5 28.5t20.5 37.5q16 33 26.5 56.5t28.5 64.5 l-43 219q25 12 42.5 18.5t30.5 10.5t26.5 5t29.5 1q118 0 89 -131q-14 -72 -69.5 -168t-143.5 -200h-103z" />
<glyph unicode="&#x201e;" horiz-adv-x="894" d="M61 -295q16 18 26.5 30.5t20 26t18.5 28.5t21 38q20 35 29.5 57.5t28.5 63.5l-45 219q29 12 45 19.5t29.5 11.5t25.5 5t29 1q117 0 88 -133q-14 -72 -69.5 -169.5t-143.5 -197.5h-103zM438 -295q16 18 27.5 31.5t21 26t18.5 27.5t19 38q18 33 27.5 56.5t30.5 64.5 l-45 219q27 12 43 19.5t29.5 11.5t26.5 5t30 1q117 0 88 -133q-14 -72 -69.5 -167t-143.5 -200h-103z" />
<glyph unicode="&#x2022;" horiz-adv-x="720" d="M220 380q-9 44 1 93t38 93t68 77t88 51.5t97 18.5t89 -18.5t65.5 -51.5t34.5 -77t-1 -93t-37.5 -93t-67.5 -77t-88 -51.5t-97 -18.5t-89 18.5t-66 51.5t-35 77z" />
<glyph unicode="&#x2026;" horiz-adv-x="1536" d="M160 92q10 49 52 83t89 34t73.5 -34t16.5 -83q-10 -47 -51 -81t-88 -34t-74.5 34t-17.5 81zM690 92q10 49 51 83t88 34q49 0 76 -34t17 -83q-10 -47 -51.5 -81t-90.5 -34q-47 0 -73.5 34t-16.5 81zM1202 92q10 49 51 83t88 34q49 0 76 -34t17 -83q-10 -47 -51.5 -81 t-90.5 -34q-47 0 -73.5 34t-16.5 81z" />
<glyph unicode="&#x202f;" horiz-adv-x="355" />
<glyph unicode="&#x2039;" horiz-adv-x="657" d="M180 463l545 387l-35 -168l-317 -219l223 -219l-35 -166z" />
<glyph unicode="&#x203a;" horiz-adv-x="657" d="M127 78l35 166l319 219l-225 219l35 168l383 -387z" />
<glyph unicode="&#x205f;" horiz-adv-x="444" />
<glyph unicode="&#x25fc;" horiz-adv-x="931" d="M0 0v932h932v-932h-932z" />
</font>
</defs>
</svg>
