<?xml version="1.0" encoding="UTF-8"?>
<!DOCTYPE svg PUBLIC "-//W3C//DTD SVG 1.1//EN" "http://www.w3.org/Graphics/SVG/1.1/DTD/svg11.dtd">
<svg version="1.1" xmlns="http://www.w3.org/2000/svg" xmlns:xlink="http://www.w3.org/1999/xlink" width="60" height="70"  xml:space="preserve" id="aCBlock">
    <!-- Generated by PaintCode - http://www.paintcodeapp.com -->
    <path id="aCBlock-bezier" stroke="none" fill="rgb(255, 255, 255)" d="M 50.9,7.5 L 30,1 9.1,7.5 C 9.1,7.5 8.3,18.5 0.9,20 L 0.9,35.1 C 0.9,35.1 7.8,63 30,69 52.2,63 59.1,35.1 59.1,35.1 L 59.1,20 C 51.7,18.5 50.9,7.5 50.9,7.5 Z M 50.9,7.5" />
    <path id="aCBlock-bezier2" stroke="none" fill="rgb(0, 0, 0)" d="M 31.1,64.2 C 30.7,63.6 29.8,63.5 29.3,63.9 29.2,64 29.1,64.1 29,64.2 12.3,58.2 5.8,37.3 5,34.5 L 5,24 C 5.5,23.8 5.9,23.2 5.9,22.7 5.9,22.6 5.9,22.6 5.9,22.5 10.5,19.4 12.2,13.6 12.8,10.8 L 28.9,5.8 C 29.3,6.4 30.1,6.5 30.7,6.1 30.9,6 31,5.9 31.1,5.8 L 47.2,10.8 C 47.8,13.6 49.5,19.4 54.1,22.5 54,23.1 54.3,23.8 55,24 L 55,24 55,34.5 C 54.2,37.3 47.7,58.2 31.1,64.2 Z M 48.1,10.3 L 48.1,10 31.4,4.8 C 31.4,4 30.7,3.4 30,3.5 29.3,3.5 28.7,4.1 28.7,4.8 L 11.9,10 11.8,10.3 C 11.3,12.8 9.7,18.6 5.3,21.6 5.1,21.4 4.8,21.3 4.4,21.3 3.6,21.3 3,22 3,22.8 3,23.4 3.4,23.9 3.9,24.1 L 3.9,34.6 3.9,34.7 C 4.6,37.2 11.2,59 28.5,65.2 28.5,66 29.1,66.6 29.9,66.6 30.6,66.6 31.2,66 31.2,65.2 38.3,62.7 44.3,57.4 49.3,49.3 52.1,44.7 54.3,39.8 55.8,34.7 L 56,24 C 56.7,23.7 57.1,22.9 56.8,22.1 56.6,21.6 56.1,21.2 55.5,21.2 55.2,21.2 54.9,21.3 54.6,21.5 50.2,18.6 48.6,12.8 48.1,10.3 Z M 58.2,35 C 57.7,36.9 50.5,62.3 30,68 9.5,62.3 2.3,36.9 1.8,35 L 1.8,20.8 C 8.2,18.9 9.7,10.6 10,8.2 L 30,2 50,8.2 C 50.3,10.6 51.8,18.9 58.1,20.8 L 58.2,35 Z M 59.3,19.1 C 52.7,17.7 51.8,7.5 51.8,7.4 L 51.7,6.7 30,-0 8.3,6.8 8.2,7.4 C 8.2,7.5 7.3,17.7 0.7,19.1 L 0,19.2 0,35 0,35.2 C 0.1,35.5 7.3,63.7 29.7,69.8 L 30,70 30.2,69.9 C 52.7,63.8 59.9,35.6 60,35.3 L 60,19.2 59.3,19.1 Z M 59.3,19.1" />
</svg>
