<?xml version="1.0" encoding="UTF-8"?>
<!DOCTYPE svg PUBLIC "-//W3C//DTD SVG 1.1//EN" "http://www.w3.org/Graphics/SVG/1.1/DTD/svg11.dtd">
<svg version="1.1" xmlns="http://www.w3.org/2000/svg" xmlns:xlink="http://www.w3.org/1999/xlink" width="60" height="436"  preserveAspectRatio="none" id="attrBox">
    <!-- Generated by PaintCode - http://www.paintcodeapp.com -->
    <path id="attrBox-attrBox" stroke="none" fill="rgb(220, 221, 222)" d="M 15.77,428.66 L 15.84,428.59 C 16.45,428.02 17.1,427.49 17.78,427 L 17.51,427.14 C 14.39,428.12 11.09,428.45 7.82,428.12 L 7.91,428.14 C 9.02,428.48 10.18,428.66 11.35,428.66 L 15.77,428.66 Z M 1.21,417.16 L 0.04,412.96 0.04,421.88 C 0.28,422.25 0.57,422.65 0.9,423.07 L 0.89,422.98 C 0.52,420.98 0.65,418.92 1.27,416.98 M 38.85,432.04 L 37.93,432.04 37.94,432.03 C 33.57,435.82 26.93,435.82 22.56,432.03 L 21.65,432.04 C 21.92,432.3 22.21,432.55 22.51,432.79 L 22.51,432.79 C 22.56,432.77 22.62,432.76 22.67,432.76 L 22.67,432.76 C 22.99,432.76 23.24,433 23.24,433.3 L 23.23,433.31 23.32,433.37 C 27.54,436.21 33.18,436.17 37.35,433.25 L 37.26,433.3 37.26,433.3 C 37.26,433 37.51,432.76 37.82,432.76 L 37.82,432.76 C 37.88,432.76 37.93,432.77 37.99,432.79 38.28,432.55 38.57,432.3 38.85,432.04 Z M 60.46,423.16 L 60.46,424.92 60.41,424.97 C 57.06,428.43 52.74,430.87 47.97,432.02 L 39.52,432.04 39.48,432.08 C 39.17,432.39 38.85,432.7 38.51,432.98 L 43.48,432.96 43.48,433 C 43.72,433 43.95,432.97 44.18,432.96 L 52.27,432.96 52.99,432.04 49.82,432.04 49.65,432.09 C 53.62,430.85 57.22,428.73 60.17,425.89 L 60.46,428.05 C 60.46,428.05 56.81,430.14 55.88,432.04 L 53.93,432.04 52.64,433.69 45.34,433.69 C 42.52,434.03 38.95,434.67 37.27,435.79 37.27,435.79 36.07,436.49 36.07,435.34 36.07,434.64 38.81,434.05 40.94,433.69 L 38.21,433.69 38.21,433.69 C 38.02,433.87 37.72,433.89 37.51,433.74 L 37.47,433.76 C 33.13,436.68 27.36,436.68 23.02,433.76 L 22.99,433.73 C 22.9,433.8 22.79,433.84 22.68,433.84 L 22.68,433.84 C 22.53,433.84 22.39,433.78 22.28,433.68 L 19.56,433.69 C 21.69,434.05 24.43,434.64 24.43,435.34 24.43,436.49 23.23,435.79 23.23,435.79 21.54,434.67 17.98,434.03 15.15,433.69 L 7.85,433.69 6.57,432.04 4.62,432.04 C 3.68,430.14 0.04,428.05 0.04,428.05 L 0.04,425.61 0,425.57 C 2.9,428.46 6.46,430.65 10.41,431.95 L 7.51,432.04 8.23,432.96 16.31,432.96 C 16.55,432.97 16.77,433 17.01,433 L 17.01,432.96 21.97,432.96 21.97,432.97 C 21.63,432.68 21.31,432.38 21,432.07 L 12.61,432.04 12.53,432.02 C 7.76,430.87 3.43,428.43 0.08,424.97 L 0.04,423.16 C 2.02,425.79 5.75,429.38 11.32,429.38 L 23.75,429.38 23.75,429.38 C 23.88,429.62 24.14,429.78 24.42,429.78 L 24.43,429.78 C 24.86,429.78 25.21,429.44 25.21,429.02 25.21,428.6 24.86,428.26 24.43,428.26 L 24.42,428.26 C 24.14,428.27 23.88,428.42 23.74,428.66 L 16.88,428.66 17,428.56 C 24.63,421.95 36.24,422.05 43.75,428.78 L 36.75,428.66 36.75,428.66 C 36.62,428.42 36.36,428.27 36.07,428.26 L 36.07,428.26 C 35.63,428.26 35.28,428.6 35.28,429.02 35.28,429.44 35.63,429.78 36.07,429.78 L 36.07,429.78 C 36.36,429.78 36.61,429.62 36.75,429.38 L 49.18,429.38 C 54.75,429.38 58.48,425.79 60.46,423.16 Z M 59.59,423.08 C 59.92,422.65 60.21,422.25 60.46,421.88 L 60.46,412.96 59.28,417.16 59.29,417.19 C 59.87,419.15 59.97,421.2 59.57,423.2 M 49.18,428.66 L 49.15,428.66 C 50.31,428.66 51.47,428.48 52.58,428.14 L 52.66,428.13 C 49.4,428.45 46.11,428.12 42.99,427.15 L 43.01,427.21 C 43.68,427.72 44.32,428.26 44.93,428.84 L 49.18,428.66 Z M 49.18,7.34 L 44.73,7.34 44.65,7.41 C 44.04,7.98 43.4,8.51 42.72,9 L 42.98,8.86 C 46.1,7.88 49.41,7.55 52.67,7.88 L 52.58,7.86 C 51.47,7.52 50.31,7.34 49.14,7.34 M 59.28,18.84 L 60.46,23.04 60.46,14.12 C 60.21,13.75 59.93,13.35 59.59,12.93 L 59.61,13.02 C 59.98,15.02 59.85,17.08 59.23,19.02 M 37.98,3.21 L 37.98,3.21 C 37.93,3.23 37.87,3.24 37.82,3.24 L 37.82,3.24 C 37.51,3.24 37.26,3 37.26,2.7 L 37.26,2.69 37.18,2.63 C 32.95,-0.21 27.31,-0.16 23.14,2.75 L 23.24,2.7 23.24,2.7 C 23.24,3 22.99,3.24 22.67,3.24 L 22.68,3.24 C 22.62,3.24 22.56,3.23 22.51,3.21 22.21,3.45 21.92,3.7 21.65,3.96 L 22.56,3.96 22.55,3.97 C 26.93,0.18 33.57,0.18 37.94,3.97 L 38.84,3.96 C 38.57,3.7 38.28,3.45 37.98,3.21 Z M 49.82,3.96 L 52.99,3.96 52.27,3.04 44.18,3.04 C 43.95,3.03 43.72,3 43.48,3 L 43.48,3.04 38.53,3.04 38.53,3.04 C 38.87,3.32 39.19,3.62 39.5,3.94 L 47.88,3.96 47.96,3.98 C 52.74,5.12 57.06,7.57 60.42,11.03 L 60.46,12.84 C 58.47,10.21 54.75,6.62 49.18,6.62 L 36.75,6.62 36.75,6.62 C 36.62,6.38 36.36,6.22 36.07,6.22 L 36.07,6.22 C 35.63,6.22 35.28,6.56 35.28,6.98 35.28,7.4 35.63,7.74 36.07,7.74 L 36.07,7.74 C 36.36,7.73 36.62,7.58 36.75,7.34 L 43.61,7.34 43.73,7.23 C 40.08,10.51 35.27,12.33 30.27,12.33 L 30.23,12.33 C 25.23,12.33 20.42,10.51 16.76,7.23 L 23.75,7.34 23.75,7.34 C 23.88,7.58 24.14,7.73 24.42,7.74 L 24.43,7.74 C 24.86,7.74 25.22,7.4 25.22,6.98 25.22,6.56 24.86,6.22 24.43,6.22 L 24.42,6.22 C 24.14,6.22 23.88,6.38 23.75,6.62 L 11.32,6.62 C 5.75,6.62 2.02,10.22 0.04,12.84 L 0.04,11.08 0.09,11.02 C 3.44,7.57 7.76,5.12 12.52,3.98 L 20.97,3.96 21.01,3.93 C 21.32,3.61 21.64,3.31 21.98,3.03 L 17.01,3.04 17.01,3 C 16.78,3 16.55,3.03 16.31,3.04 L 8.23,3.04 7.5,3.96 10.67,3.96 10.85,3.91 C 6.88,5.15 3.27,7.27 0.32,10.11 L 0.04,7.95 C 0.04,7.95 3.68,5.86 4.62,3.96 L 6.57,3.96 7.85,2.31 15.15,2.31 C 17.98,1.97 21.54,1.34 23.23,0.21 23.23,0.21 24.43,-0.49 24.43,0.66 24.43,1.35 21.69,1.95 19.56,2.31 L 22.28,2.31 22.28,2.32 C 22.39,2.22 22.53,2.16 22.68,2.16 L 22.67,2.16 C 22.79,2.16 22.9,2.2 22.99,2.26 L 23.02,2.24 C 27.36,-0.68 33.13,-0.68 37.47,2.24 L 37.5,2.26 C 37.6,2.2 37.71,2.16 37.82,2.16 L 37.82,2.16 C 37.97,2.16 38.11,2.22 38.21,2.32 L 40.94,2.31 C 38.81,1.95 36.07,1.35 36.07,0.66 36.07,-0.49 37.27,0.21 37.27,0.21 38.95,1.34 42.52,1.97 45.34,2.31 L 52.64,2.31 53.93,3.96 55.88,3.96 C 56.81,5.86 60.46,7.95 60.46,7.95 L 60.46,10.39 60.5,10.43 C 57.6,7.54 54.03,5.35 50.08,4.05 M 58.79,18.76 L 58.79,18.76 C 59.43,16.61 59.47,14.33 58.91,12.16 L 58.9,12.11 C 57.95,11.02 56.85,10.06 55.62,9.27 50.68,6.96 43.55,9.13 41.49,9.85 L 41.44,9.88 C 38.12,11.95 34.24,13.06 30.28,13.06 L 30.21,13.06 C 26.25,13.06 22.37,11.95 19.05,9.88 16.94,9.13 9.8,6.95 4.93,9.23 L 4.87,9.27 C 3.64,10.06 2.54,11.02 1.59,12.11 L 1.59,12.16 C 1.03,14.33 1.07,16.61 1.71,18.76 L 1.73,18.83 1.71,18.89 0.04,24.89 0.04,411.11 1.73,417.17 1.71,417.24 1.71,417.24 C 1.07,419.39 1.03,421.67 1.59,423.84 L 1.59,423.89 C 2.54,424.98 3.65,425.93 4.87,426.73 9.82,429.05 16.95,426.87 19.01,426.15 L 19.02,426.14 C 25.85,421.88 34.65,421.88 41.47,426.14 43.55,426.87 50.7,429.05 55.56,426.77 L 55.63,426.73 C 56.85,425.94 57.96,424.98 58.91,423.89 L 58.9,423.84 C 59.47,421.67 59.43,419.39 58.78,417.24 L 58.76,417.17 58.78,417.11 60.46,411.11 60.46,24.89 58.76,18.83 58.79,18.76 Z M 0.91,12.92 C 0.57,13.35 0.28,13.75 0.04,14.12 L 0.04,23.04 1.21,18.84 1.2,18.81 C 0.62,16.85 0.53,14.8 0.93,12.8 M 7.9,7.87 L 7.92,7.86 C 9.03,7.52 10.19,7.34 11.35,7.34 L 15.76,7.34 15.83,7.4 C 16.44,7.97 17.09,8.51 17.78,9 L 17.51,8.85 C 14.39,7.88 11.09,7.55 7.83,7.88" transform="scale(0.99, 0.99)"  />
</svg>
