<?xml version="1.0" encoding="UTF-8"?>
<!DOCTYPE svg PUBLIC "-//W3C//DTD SVG 1.1//EN" "http://www.w3.org/Graphics/SVG/1.1/DTD/svg11.dtd">
<svg version="1.1" xmlns="http://www.w3.org/2000/svg" xmlns:xlink="http://www.w3.org/1999/xlink" width="54" height="64"  xml:space="preserve" id="attributeBlock6">
    <!-- Generated by PaintCode - http://www.paintcodeapp.com -->
    <path id="attributeBlock6-bezier" stroke="none" fill="rgb(255, 255, 255)" d="M 1.32,20.73 L 1.18,20.02 C 2.54,27.02 3.11,34.16 2.86,41.29 2.82,42.23 -0.31,45.36 3.07,50.42 L 2.79,55.89 51.58,55.89 51.3,50.42 C 54.68,45.36 51.55,42.23 51.55,42.23 L 51.59,42.93 C 51.21,35.81 51.65,28.66 52.89,21.64 L 51.62,19.67 51.7,19.4 C 52.11,18.16 52.45,16.89 52.72,15.61 L 51.76,4.1 C 48.91,5.27 47.07,0.96 47.07,0.96 L 7.3,0.96 C 7.3,0.96 5.46,5.27 2.61,4.1 L 1.66,15.64 1.65,15.62 C 1.93,16.9 2.26,18.16 2.67,19.41 L 1.32,20.73 Z M 1.32,20.73" />
    <ellipse id="attributeBlock6-oval" stroke="none" fill="rgb(255, 255, 255)" cx="27.2" cy="52.07" rx="12.2" ry="8.25" />
    <path id="attributeBlock6-bezier2" stroke="none" fill="rgb(214, 215, 215)" d="M 27.19,61.52 C 34.62,61.52 40.64,57.27 40.64,52.03 40.64,46.79 34.62,42.54 27.19,42.54 19.75,42.54 13.73,46.79 13.73,52.03 13.73,57.27 19.75,61.52 27.19,61.52 Z M 27.19,59.02 C 21.25,59.02 16.23,55.82 16.23,52.03 16.23,48.24 21.25,45.04 27.19,45.04 33.13,45.04 38.14,48.24 38.14,52.03 38.14,55.82 33.13,59.02 27.19,59.02 Z M 27.19,59.02" />
    <path id="attributeBlock6-bezier3" stroke="none" fill="rgb(0, 0, 0)" d="M 1.92,21.06 L 1.96,21.03 C 2.26,20.82 2.54,20.58 2.81,20.33 L 2.83,21 C 3.23,24.85 3.4,28.72 3.34,32.59 2.98,28.82 2.51,23.2 1.92,21.06 Z M 3.49,53.54 L 3.45,53.53 C 5.07,53.82 6.62,54.42 7.99,55.32 L 3.34,55.35 C 3.38,54.92 3.43,54.3 3.49,53.54 Z M 3.63,51.64 C 4.01,52.08 4.39,52.48 4.75,52.84 L 4.75,52.84 C 4.37,52.74 3.98,52.67 3.6,52.62 3.59,52.31 3.61,51.98 3.63,51.64 Z M 0.67,53.63 L 0.66,53.63 C 0.91,54.04 1.33,54.32 1.8,54.39 L 1.79,54.39 C 1.59,54.24 1.42,54.05 1.3,53.82 1.19,53.63 1.28,53.54 1.39,53.5 1.48,53.48 1.56,53.47 1.64,53.46 L 1.65,53.46 C 1.83,53.44 2.02,53.44 2.2,53.44 2.08,54.96 1.99,55.88 1.98,55.93 L 1.9,56.64 10.07,56.64 10.05,56.64 C 10.89,57.12 11.42,58 11.46,58.97 11.46,58.99 11.63,59.73 12.16,59.56 12.62,59.4 13.21,58.07 11.59,56.64 L 11.59,56.64 11.58,56.63 11.56,56.62 C 11.32,56.41 11.05,56.21 10.78,56.04 L 10.77,56.05 C 10.5,55.86 10.24,55.66 9.97,55.47 L 9.8,55.35 9.79,55.35 9.71,55.3 C 8.98,54.81 8.23,54.36 7.46,53.95 L 7.43,53.91 C 5.98,52.82 4.69,51.54 3.6,50.09 L 3.72,50.25 C 3.72,50.25 3.71,50.23 3.69,50.2 3.58,50.06 3.48,49.92 3.39,49.78 3.35,49.73 3.32,49.68 3.29,49.63 L 3.27,49.6 C 2.53,48.55 2.06,47.33 1.91,46.06 L 1.91,46.08 C 1.81,45 2.07,43.92 2.65,43 2.64,44.46 2.61,45.88 2.56,47.2 L 2.58,47.24 C 2.88,48.03 3.28,48.79 3.77,49.48 3.9,46.95 4.95,25.22 3.87,19.13 L 3.87,19.13 C 4.72,18.04 5.05,16.63 4.76,15.27 L 4.78,15.31 C 4.17,13.88 3.7,12.39 3.38,10.87 L 3.39,10.89 C 2.93,9.5 2.63,8.06 2.47,6.6 L 1.66,15.64 1.7,15.77 1.75,15.92 C 2.03,16.76 2.25,17.61 2.42,18.48 L 2.39,18.47 C 2.84,18.12 3.2,17.66 3.43,17.14 3.3,16.56 3.14,16 2.97,15.48 L 3.14,13.61 C 3.49,14.67 3.84,15.49 3.87,15.56 L 3.88,15.58 C 4.04,16.33 3.93,17.11 3.58,17.8 L 3.61,17.75 C 3.38,18.31 3.03,18.81 2.59,19.22 L 2.58,19.23 C 2.16,19.69 1.68,20.09 1.17,20.44 L 0.82,20.65 0.93,21 C 1.76,23.71 2.67,40.63 2.67,40.63 2.67,40.89 2.67,41.15 2.67,41.4 L 2.68,41.39 C 1.47,42.65 0.85,44.36 0.97,46.1 L 0.98,46.18 C 1.15,47.55 1.63,48.85 2.4,49.99 2.37,50.93 2.32,51.76 2.27,52.5 2.21,52.49 2.14,52.49 2.09,52.49 L 2.09,52.48 C 1.11,52.4 0.25,52.95 0.67,53.63 Z M 3.53,9.21 L 3.5,9.12 C 3.04,7.59 2.73,6.02 2.59,4.42 L 2.61,4.1 3.02,3.97 C 3.99,3.67 6.75,2.46 6.75,0.91 L 6.75,0.26 47.63,0.26 47.63,0.91 C 47.63,2.46 50.38,3.67 51.35,3.97 L 51.76,4.1 51.79,4.38 51.78,4.42 C 51.64,6.02 51.33,7.6 50.86,9.14 L 50.55,5.06 C 49.48,4.67 46.89,3.53 46.41,1.55 L 7.96,1.55 C 7.48,3.53 4.89,4.67 3.82,5.06 L 3.53,9.21 Z M 51.61,20.38 L 51.57,20.34 C 51.84,20.59 52.12,20.82 52.41,21.03 51.86,23.2 51.39,28.81 51.04,32.54 L 51.04,32.59 C 50.97,28.73 51.14,24.86 51.54,21.02 M 46.33,55.35 L 46.38,55.32 C 47.76,54.42 49.3,53.82 50.92,53.53 50.94,54.3 51,54.92 51.04,55.35 L 46.33,55.35 Z M 50.74,51.64 C 50.76,51.98 50.79,52.31 50.81,52.61 L 50.77,52.62 C 50.39,52.67 50,52.74 49.63,52.84 49.99,52.48 50.37,52.08 50.74,51.64 Z M 49.61,15.26 L 49.61,15.28 C 49.32,16.63 49.65,18.04 50.5,19.13 49.42,25.22 50.47,46.95 50.61,49.48 L 50.6,49.49 C 51.09,48.79 51.5,48.03 51.8,47.23 51.76,45.88 51.73,44.46 51.71,42.98 L 51.72,43 C 52.3,43.92 52.56,45 52.46,46.09 L 52.47,46.05 C 52.31,47.33 51.84,48.55 51.11,49.6 51.05,49.68 51.02,49.73 50.99,49.78 50.89,49.92 50.79,50.06 50.69,50.2 L 50.65,50.25 50.65,50.25 50.56,50.36 C 49.45,51.79 48.14,53.05 46.67,54.12 L 46.91,53.95 C 46.14,54.36 45.39,54.81 44.66,55.3 L 44.57,55.35 44.41,55.47 C 44.13,55.66 43.87,55.86 43.61,56.05 L 43.59,56.04 43.61,56.03 C 43.32,56.21 43.05,56.41 42.79,56.64 L 42.78,56.64 42.78,56.64 C 41.16,58.07 41.75,59.4 42.22,59.56 42.74,59.73 42.92,58.99 42.92,58.99 L 42.92,59.02 C 42.94,58.05 43.45,57.16 44.28,56.66 L 52.47,56.64 52.39,55.93 C 52.39,55.88 52.29,54.96 52.17,53.44 52.36,53.44 52.54,53.44 52.73,53.46 L 52.73,53.46 C 52.82,53.47 52.9,53.48 52.98,53.5 53.09,53.54 53.18,53.63 53.07,53.83 L 53.07,53.83 C 52.95,54.05 52.78,54.24 52.58,54.39 L 52.57,54.39 C 53.05,54.32 53.46,54.04 53.71,53.63 54.12,52.95 53.26,52.41 52.28,52.48 L 52.29,52.49 C 52.23,52.49 52.17,52.49 52.1,52.5 52.05,51.76 52,50.93 51.95,50.03 L 51.97,49.99 C 52.74,48.85 53.23,47.55 53.39,46.19 L 53.39,46.2 C 53.55,44.47 52.95,42.75 51.76,41.47 51.7,41.15 51.7,40.89 51.7,40.63 51.7,40.63 52.61,23.71 53.44,21 L 53.55,20.66 53.24,20.47 53.2,20.44 C 52.69,20.09 52.22,19.69 51.79,19.23 L 51.78,19.22 C 51.34,18.81 50.99,18.31 50.77,17.75 L 50.76,17.74 C 50.43,17.05 50.34,16.27 50.51,15.52 50.53,15.49 50.88,14.67 51.23,13.61 L 51.4,15.48 C 51.23,16 51.08,16.56 50.94,17.12 L 50.94,17.14 C 51.17,17.66 51.53,18.11 51.98,18.47 L 51.96,18.46 C 52.13,17.6 52.35,16.75 52.62,15.92 L 52.71,15.64 51.9,6.59 51.9,6.61 C 51.75,8.06 51.44,9.49 50.99,10.88 L 50.99,10.88 C 50.67,12.4 50.2,13.89 49.59,15.32 M 27.19,60.81 C 22.61,60.81 18.61,59.14 16.35,56.64 16.17,56.44 16,56.24 15.84,56.02 15.82,56 15.81,55.98 15.8,55.96 L 15.79,55.95 C 15.64,55.75 15.51,55.55 15.38,55.35 L 15.41,55.39 C 14.79,54.4 14.45,53.26 14.43,52.09 14.43,47.19 20.15,43.25 27.19,43.25 34.22,43.25 39.94,47.19 39.94,52.03 L 39.94,51.98 C 39.94,53.15 39.62,54.3 39.02,55.3 L 38.99,55.34 C 38.86,55.56 38.72,55.76 38.57,55.96 38.56,55.98 38.55,56 38.53,56.02 38.37,56.24 38.2,56.44 38.02,56.64 35.77,59.14 31.76,60.81 27.19,60.81 Z M 42.04,56.64 L 43.67,55.35 42.15,55.35 42.17,55.29 C 42.48,54.4 42.67,53.46 42.74,52.51 L 42.72,52.6 C 43.42,53.77 44.85,54.27 46.13,53.81 45.76,53.91 44.15,54.15 42.71,51.11 L 42.7,51.13 42.7,51.17 C 42.61,49.83 42.03,48.58 41.06,47.65 L 41.03,47.6 C 42.14,49.68 42.37,52.12 41.68,54.37 L 41.67,54.39 C 41.46,54.66 41.14,54.81 40.8,54.81 L 40.8,54.81 C 41.16,53.91 41.35,52.95 41.35,51.98 41.35,46.41 34.99,41.84 27.19,41.84 19.38,41.84 13.02,46.41 13.02,52.03 L 13.02,51.98 C 13.02,52.95 13.21,53.91 13.57,54.81 L 13.58,54.81 C 13.24,54.81 12.91,54.66 12.7,54.39 L 12.69,54.37 C 12,52.12 12.24,49.68 13.34,47.6 L 13.31,47.65 C 12.35,48.58 11.76,49.83 11.67,51.17 L 11.67,51.11 C 10.22,54.15 8.61,53.91 8.22,53.8 L 8.2,53.79 C 9.47,54.28 10.9,53.8 11.62,52.65 L 11.65,52.69 C 11.73,53.65 11.94,54.58 12.27,55.48 L 10.7,55.35 12.33,56.64 12.34,56.64 12.35,56.66 C 13.46,57.52 13.99,58.94 13.72,60.32 13.73,60.29 13.45,61.09 14.15,61.2 14.82,61.31 15.61,59.77 13.46,56.64 L 14.58,56.64 14.53,56.58 C 14.84,57.02 15.18,57.43 15.55,57.82 L 15.65,57.93 C 15.65,57.93 15.67,57.96 15.7,58.02 17.99,61.42 16.09,61.97 16.08,61.97 L 16.08,61.97 C 15.92,62.03 15.83,62.2 15.88,62.36 15.89,62.39 15.9,62.41 15.91,62.43 16.27,63.01 18.47,62.79 17.53,59.96 L 17.56,59.97 C 18.51,60.19 19.35,60.75 19.93,61.54 L 25.1,62.11 25.06,62.09 25.03,62.09 C 26.46,62.27 27.91,62.27 29.34,62.09 L 29.27,62.11 34.46,61.52 34.44,61.54 C 35.02,60.75 35.86,60.19 36.82,59.97 35.9,62.79 38.1,63.01 38.46,62.43 L 38.46,62.43 C 38.55,62.29 38.51,62.1 38.36,62.01 38.34,61.99 38.32,61.98 38.3,61.98 38.29,61.97 36.38,61.42 38.67,58.02 38.71,57.96 38.73,57.93 38.73,57.93 L 38.72,57.92 38.7,57.94 C 39.08,57.56 39.43,57.16 39.74,56.72 L 40.92,56.64 C 38.76,59.77 39.56,61.31 40.22,61.2 40.92,61.08 40.64,60.29 40.64,60.29 L 40.64,60.26 C 40.39,58.87 40.95,57.47 42.07,56.62" />
</svg>
