<?xml version="1.0" encoding="UTF-8"?>
<!DOCTYPE svg PUBLIC "-//W3C//DTD SVG 1.1//EN" "http://www.w3.org/Graphics/SVG/1.1/DTD/svg11.dtd">
<svg version="1.1" xmlns="http://www.w3.org/2000/svg" xmlns:xlink="http://www.w3.org/1999/xlink" width="54" height="63"  xml:space="preserve" id="attrBlock6">
    <!-- Generated by PaintCode - http://www.paintcodeapp.com -->
    <g id="attrBlock6-group">
        <path id="attrBlock6-bezier" stroke="none" fill="rgb(255, 255, 255)" d="M 1.13,20.47 L 1,19.76 C 2.36,26.76 2.92,33.9 2.67,41.03 2.63,41.97 -0.49,45.1 2.88,50.16 L 2.6,55.63 51.4,55.63 51.12,50.16 C 54.49,45.1 51.37,41.97 51.37,41.97 L 51.4,42.67 C 51.03,35.54 51.46,28.4 52.7,21.38 L 51.43,19.41 51.52,19.14 C 51.92,17.9 52.26,16.63 52.53,15.35 L 51.58,3.84 C 48.72,5.01 46.88,0.7 46.88,0.7 L 7.12,0.7 C 7.12,0.7 5.28,5.01 2.42,3.84 L 1.47,15.38 1.47,15.36 C 1.74,16.64 2.08,17.9 2.48,19.15 L 1.13,20.47 Z M 1.13,20.47" />
        <ellipse id="attrBlock6-oval" stroke="none" fill="rgb(255, 255, 255)" cx="27.01" cy="51.81" rx="12.2" ry="8.25" />
        <path id="attrBlock6-bezier2" stroke="none" fill="rgb(212, 213, 214)" d="M 27,61.26 C 34.43,61.26 40.46,57.01 40.46,51.77 40.46,46.53 34.43,42.28 27,42.28 19.57,42.28 13.54,46.53 13.54,51.77 13.54,57.01 19.57,61.26 27,61.26 Z M 27,58.76 C 21.06,58.76 16.04,55.56 16.04,51.77 16.04,47.98 21.06,44.78 27,44.78 32.94,44.78 37.96,47.98 37.96,51.77 37.96,55.56 32.94,58.76 27,58.76 Z M 27,58.76" />
        <path id="attrBlock6-bezier3" stroke="none" fill="rgb(0, 0, 0)" d="M 1.73,20.8 L 1.77,20.77 C 2.07,20.56 2.35,20.32 2.62,20.07 L 2.64,20.74 C 3.05,24.59 3.22,28.46 3.15,32.33 2.8,28.55 2.33,22.94 1.73,20.8 Z M 3.31,53.28 L 3.27,53.27 C 4.88,53.56 6.43,54.16 7.81,55.06 L 3.15,55.09 C 3.19,54.66 3.25,54.04 3.31,53.28 Z M 3.44,51.38 C 3.82,51.82 4.2,52.22 4.56,52.58 L 4.56,52.58 C 4.18,52.48 3.8,52.41 3.41,52.36 3.4,52.05 3.42,51.72 3.44,51.38 Z M 0.48,53.37 L 0.48,53.36 C 0.72,53.77 1.14,54.05 1.61,54.13 L 1.61,54.13 C 1.4,53.98 1.23,53.79 1.12,53.56 1.01,53.37 1.09,53.28 1.21,53.24 1.29,53.22 1.37,53.21 1.46,53.2 L 1.46,53.2 C 1.64,53.18 1.83,53.18 2.01,53.18 1.89,54.7 1.8,55.62 1.79,55.67 L 1.72,56.38 9.88,56.38 9.87,56.38 C 10.71,56.86 11.24,57.74 11.27,58.71 11.27,58.73 11.45,59.47 11.97,59.3 12.44,59.14 13.02,57.81 11.4,56.38 L 11.4,56.38 11.39,56.37 11.37,56.36 C 11.13,56.15 10.87,55.95 10.59,55.78 L 10.58,55.79 C 10.31,55.6 10.05,55.4 9.78,55.21 L 9.61,55.09 9.6,55.09 9.52,55.04 C 8.79,54.55 8.04,54.1 7.27,53.69 L 7.24,53.65 C 5.79,52.56 4.5,51.28 3.41,49.83 L 3.53,49.98 C 3.53,49.98 3.52,49.97 3.5,49.94 3.4,49.8 3.3,49.66 3.2,49.52 3.17,49.47 3.13,49.42 3.1,49.37 L 3.08,49.34 C 2.34,48.29 1.88,47.07 1.72,45.8 L 1.72,45.82 C 1.63,44.74 1.89,43.66 2.46,42.74 2.46,44.2 2.42,45.62 2.37,46.93 L 2.39,46.98 C 2.69,47.77 3.09,48.53 3.58,49.22 3.71,46.69 4.77,24.96 3.68,18.87 L 3.68,18.87 C 4.54,17.78 4.86,16.37 4.57,15.01 L 4.59,15.05 C 3.99,13.62 3.52,12.13 3.19,10.61 L 3.2,10.63 C 2.75,9.24 2.44,7.8 2.29,6.34 L 1.47,15.38 1.52,15.51 1.56,15.66 C 1.84,16.5 2.06,17.35 2.23,18.22 L 2.21,18.21 C 2.65,17.85 3.01,17.4 3.24,16.88 3.11,16.29 2.96,15.74 2.78,15.22 L 2.95,13.35 C 3.3,14.4 3.65,15.22 3.68,15.3 L 3.69,15.32 C 3.85,16.07 3.75,16.85 3.4,17.53 L 3.42,17.49 C 3.19,18.05 2.85,18.55 2.41,18.96 L 2.4,18.97 C 1.97,19.42 1.5,19.83 0.98,20.18 L 0.63,20.39 0.74,20.74 C 1.57,23.45 2.48,40.37 2.48,40.37 2.48,40.63 2.48,40.89 2.48,41.14 L 2.5,41.13 C 1.28,42.38 0.66,44.1 0.78,45.84 L 0.79,45.92 C 0.96,47.29 1.45,48.59 2.22,49.73 2.19,50.67 2.13,51.5 2.08,52.24 2.02,52.23 1.96,52.23 1.9,52.23 L 1.9,52.22 C 0.92,52.14 0.06,52.69 0.48,53.37 Z M 3.35,8.95 L 3.32,8.86 C 2.85,7.33 2.54,5.76 2.4,4.16 L 2.42,3.84 2.84,3.71 C 3.8,3.41 6.56,2.2 6.56,0.65 L 6.56,-0 47.44,-0 47.44,0.65 C 47.44,2.2 50.2,3.41 51.16,3.71 L 51.58,3.84 51.6,4.12 51.6,4.15 C 51.46,5.76 51.15,7.34 50.68,8.87 L 50.37,4.8 C 49.3,4.41 46.71,3.27 46.22,1.29 L 7.77,1.29 C 7.29,3.27 4.7,4.41 3.63,4.8 L 3.35,8.95 Z M 51.42,20.12 L 51.39,20.08 C 51.65,20.33 51.93,20.56 52.23,20.77 51.67,22.94 51.2,28.55 50.85,32.28 L 50.85,32.33 C 50.78,28.47 50.95,24.6 51.35,20.76 M 46.14,55.09 L 46.19,55.06 C 47.57,54.16 49.11,53.56 50.73,53.27 50.75,54.04 50.81,54.66 50.85,55.09 L 46.14,55.09 Z M 50.55,51.38 C 50.58,51.72 50.6,52.05 50.62,52.35 L 50.59,52.36 C 50.2,52.41 49.82,52.48 49.44,52.58 49.8,52.22 50.18,51.82 50.55,51.38 Z M 49.43,15 L 49.42,15.02 C 49.14,16.37 49.46,17.78 50.31,18.87 49.23,24.96 50.29,46.69 50.42,49.22 L 50.42,49.22 C 50.91,48.53 51.31,47.77 51.61,46.97 51.58,45.62 51.54,44.2 51.52,42.72 L 51.54,42.74 C 52.11,43.66 52.37,44.74 52.28,45.82 L 52.28,45.79 C 52.12,47.07 51.66,48.29 50.92,49.34 50.86,49.42 50.83,49.47 50.8,49.52 50.7,49.66 50.6,49.8 50.5,49.94 L 50.46,49.98 50.46,49.99 50.38,50.1 C 49.26,51.53 47.95,52.79 46.48,53.86 L 46.72,53.69 C 45.95,54.1 45.2,54.55 44.48,55.04 L 44.38,55.09 44.22,55.21 C 43.95,55.4 43.69,55.6 43.42,55.79 L 43.41,55.78 43.42,55.77 C 43.14,55.95 42.86,56.15 42.61,56.38 L 42.59,56.38 42.6,56.38 C 40.98,57.81 41.56,59.14 42.03,59.3 42.56,59.47 42.73,58.73 42.73,58.73 L 42.73,58.76 C 42.75,57.79 43.26,56.9 44.09,56.4 L 52.28,56.38 52.21,55.67 C 52.2,55.62 52.1,54.7 51.99,53.18 52.17,53.18 52.36,53.18 52.54,53.2 L 52.54,53.2 C 52.63,53.21 52.71,53.22 52.79,53.24 52.91,53.28 52.99,53.37 52.88,53.57 L 52.88,53.56 C 52.76,53.79 52.6,53.98 52.39,54.13 L 52.39,54.13 C 52.86,54.06 53.27,53.78 53.52,53.37 53.93,52.69 53.08,52.14 52.1,52.22 L 52.1,52.23 C 52.04,52.23 51.98,52.23 51.92,52.24 51.87,51.5 51.81,50.67 51.76,49.76 L 51.79,49.73 C 52.55,48.59 53.04,47.29 53.21,45.93 L 53.21,45.94 C 53.36,44.2 52.77,42.48 51.58,41.21 51.51,40.89 51.52,40.63 51.52,40.37 51.52,40.37 52.43,23.45 53.26,20.74 L 53.37,20.39 53.06,20.2 53.02,20.18 C 52.5,19.83 52.03,19.43 51.61,18.97 L 51.59,18.96 C 51.15,18.55 50.8,18.05 50.58,17.49 L 50.58,17.48 C 50.24,16.79 50.15,16.01 50.32,15.26 50.34,15.22 50.69,14.4 51.05,13.35 L 51.22,15.22 C 51.04,15.74 50.89,16.29 50.75,16.86 L 50.76,16.88 C 50.99,17.4 51.34,17.85 51.79,18.2 L 51.77,18.2 C 51.94,17.34 52.16,16.49 52.43,15.66 L 52.53,15.38 51.71,6.33 51.71,6.35 C 51.56,7.8 51.25,9.23 50.8,10.62 L 50.8,10.62 C 50.48,12.14 50.01,13.63 49.4,15.06 M 27,60.55 C 22.43,60.55 18.42,58.88 16.17,56.38 15.99,56.18 15.81,55.98 15.65,55.76 15.64,55.74 15.62,55.72 15.61,55.7 L 15.6,55.68 C 15.45,55.49 15.32,55.29 15.2,55.09 L 15.22,55.13 C 14.6,54.14 14.27,53 14.25,51.83 14.24,46.93 19.97,42.98 27,42.98 34.03,42.98 39.75,46.93 39.75,51.77 L 39.75,51.72 C 39.75,52.89 39.43,54.03 38.83,55.04 L 38.8,55.08 C 38.68,55.3 38.54,55.5 38.39,55.7 38.37,55.72 38.36,55.74 38.34,55.76 38.18,55.98 38.01,56.18 37.83,56.38 35.58,58.88 31.57,60.55 27,60.55 Z M 41.85,56.38 L 43.49,55.09 41.96,55.09 41.98,55.03 C 42.29,54.13 42.48,53.2 42.55,52.25 L 42.53,52.34 C 43.23,53.51 44.66,54.01 45.94,53.55 45.57,53.65 43.97,53.89 42.52,50.85 L 42.51,50.87 42.52,50.91 C 42.42,49.57 41.84,48.32 40.88,47.39 L 40.84,47.34 C 41.95,49.42 42.18,51.86 41.49,54.11 L 41.49,54.13 C 41.27,54.4 40.95,54.55 40.61,54.55 L 40.61,54.55 C 40.97,53.65 41.16,52.69 41.16,51.72 41.16,46.15 34.81,41.58 27,41.58 19.19,41.58 12.84,46.15 12.84,51.77 L 12.84,51.72 C 12.84,52.69 13.02,53.65 13.39,54.54 L 13.39,54.55 C 13.05,54.55 12.73,54.4 12.51,54.13 L 12.5,54.11 C 11.82,51.86 12.05,49.42 13.16,47.34 L 13.12,47.39 C 12.16,48.32 11.57,49.57 11.48,50.91 L 11.48,50.85 C 10.03,53.89 8.42,53.65 8.03,53.54 L 8.01,53.53 C 9.28,54.02 10.72,53.54 11.44,52.39 L 11.46,52.43 C 11.55,53.38 11.75,54.32 12.08,55.22 L 10.51,55.09 12.15,56.38 12.15,56.38 12.17,56.4 C 13.28,57.26 13.81,58.68 13.54,60.06 13.54,60.03 13.26,60.82 13.97,60.94 14.63,61.05 15.42,59.51 13.27,56.38 L 14.39,56.38 14.34,56.31 C 14.65,56.75 14.99,57.17 15.36,57.56 L 15.46,57.67 C 15.46,57.67 15.48,57.7 15.52,57.76 17.8,61.16 15.9,61.71 15.89,61.71 L 15.89,61.71 C 15.73,61.77 15.64,61.94 15.7,62.1 15.7,62.13 15.71,62.15 15.73,62.17 16.08,62.75 18.28,62.53 17.35,59.7 L 17.37,59.71 C 18.33,59.93 19.17,60.49 19.74,61.28 L 24.92,61.85 24.87,61.83 24.84,61.83 C 26.27,62 27.72,62 29.16,61.83 L 29.08,61.85 34.27,61.26 34.25,61.28 C 34.83,60.49 35.68,59.93 36.63,59.71 35.72,62.53 37.92,62.75 38.27,62.17 L 38.27,62.17 C 38.36,62.03 38.32,61.84 38.18,61.74 38.16,61.73 38.13,61.72 38.11,61.71 38.1,61.71 36.2,61.16 38.48,57.76 38.52,57.7 38.54,57.67 38.54,57.67 L 38.54,57.66 38.51,57.68 C 38.89,57.3 39.24,56.89 39.55,56.46 L 40.73,56.38 C 38.58,59.51 39.37,61.05 40.03,60.94 40.74,60.82 40.46,60.03 40.46,60.03 L 40.45,60 C 40.21,58.61 40.76,57.21 41.89,56.36" />
    </g>
</svg>
