<?xml version="1.0" encoding="UTF-8"?>
<!DOCTYPE svg PUBLIC "-//W3C//DTD SVG 1.1//EN" "http://www.w3.org/Graphics/SVG/1.1/DTD/svg11.dtd">
<svg version="1.1" xmlns="http://www.w3.org/2000/svg" xmlns:xlink="http://www.w3.org/1999/xlink" width="70" height="80"  xml:space="preserve" id="attrBlock6">
    <!-- Generated by PaintCode - http://www.paintcodeapp.com -->
    <path id="attrBlock6-bezier" stroke="none" fill="rgb(255, 255, 255)" d="M 1,25.31 C 1,25.31 3.86,39.71 2.92,52.83 2.92,52.83 -1.08,56.83 3.24,63.31 L 2.88,70.32 65.34,70.32 64.98,63.31 C 69.3,56.83 65.3,52.83 65.3,52.83 64.36,39.71 67.22,25.31 67.22,25.31 L 65.38,23.95 65.49,23.61 C 66.01,22.01 66.45,20.39 66.8,18.75 L 65.57,4.02 C 61.92,5.52 59.56,-0 59.56,-0 L 8.66,-0 C 8.66,-0 6.31,5.52 2.65,4.02 L 1.44,18.8 1.43,18.76 C 1.78,20.4 2.21,22.02 2.73,23.62 L 1,25.31 Z M 1,25.31" transform="translate(0.97, 0.89)"  />
    <ellipse id="attrBlock6-oval" stroke="none" fill="rgb(255, 255, 255)" cx="16.65" cy="10.55" rx="15.65" ry="10.55"  transform="translate(18.4, 55.71)" />
    <path id="attrBlock6-bezier2" stroke="none" fill="rgb(220, 221, 222)" d="M 18.23,24.29 C 27.74,24.29 35.45,18.85 35.45,12.15 35.45,5.44 27.74,-0 18.23,-0 8.71,-0 1,5.44 1,12.15 1,18.85 8.71,24.29 18.23,24.29 Z M 18.23,21.09 C 10.62,21.09 4.2,17 4.2,12.15 4.2,7.3 10.62,3.2 18.23,3.2 25.83,3.2 32.25,7.3 32.25,12.15 32.25,16.99 25.83,21.09 18.23,21.09 Z M 18.23,21.09" transform="translate(16.86, 54.12)"  />
    <path id="attrBlock6-bezier3" stroke="none" fill="rgb(0, 0, 0)" d="M 2.74,26.62 L 2.79,26.59 C 3.17,26.31 3.53,26.01 3.88,25.69 L 3.9,26.55 C 4.42,31.48 4.64,36.43 4.55,41.39 4.1,36.55 3.5,29.36 2.74,26.62 Z M 4.75,68.19 L 4.7,68.19 C 6.77,68.55 8.75,69.33 10.52,70.48 L 4.55,70.52 C 4.61,69.96 4.68,69.17 4.75,68.19 Z M 4.93,65.77 C 5.41,66.33 5.9,66.85 6.36,67.3 L 6.36,67.31 C 5.88,67.18 5.38,67.08 4.89,67.02 4.87,66.62 4.9,66.2 4.93,65.77 Z M 1.14,68.31 L 1.13,68.31 C 1.45,68.83 1.98,69.19 2.59,69.29 L 2.58,69.28 C 2.32,69.09 2.1,68.85 1.95,68.56 1.81,68.31 1.92,68.2 2.07,68.14 2.17,68.12 2.28,68.1 2.39,68.09 L 2.39,68.09 C 2.62,68.07 2.86,68.07 3.1,68.07 2.95,70.02 2.83,71.19 2.82,71.25 L 2.72,72.17 13.17,72.17 13.15,72.16 C 14.23,72.78 14.9,73.91 14.95,75.15 14.95,75.18 15.17,76.12 15.85,75.9 16.44,75.7 17.19,74 15.12,72.17 L 15.12,72.17 15.1,72.16 15.08,72.14 C 14.77,71.87 14.43,71.62 14.08,71.4 L 14.06,71.41 C 13.72,71.16 13.39,70.91 13.04,70.67 L 12.83,70.52 12.81,70.52 12.71,70.45 C 11.78,69.82 10.82,69.25 9.83,68.72 L 9.79,68.68 C 7.94,67.28 6.29,65.63 4.89,63.78 L 5.05,63.98 C 5.05,63.98 5.03,63.96 5,63.92 4.87,63.74 4.74,63.56 4.62,63.38 4.57,63.32 4.54,63.26 4.49,63.19 L 4.46,63.16 C 3.52,61.81 2.92,60.25 2.72,58.62 L 2.73,58.65 C 2.61,57.27 2.94,55.88 3.67,54.7 3.67,56.57 3.62,58.39 3.56,60.08 L 3.58,60.13 C 3.97,61.15 4.48,62.11 5.11,63 5.27,59.77 6.63,31.95 5.24,24.15 L 5.24,24.16 C 6.33,22.76 6.75,20.95 6.38,19.22 L 6.4,19.27 C 5.62,17.43 5.02,15.53 4.61,13.58 L 4.62,13.61 C 4.04,11.82 3.64,9.98 3.45,8.12 L 2.41,19.69 2.47,19.85 2.53,20.04 C 2.88,21.12 3.16,22.21 3.37,23.32 L 3.35,23.3 C 3.92,22.85 4.38,22.27 4.67,21.6 4.5,20.86 4.31,20.15 4.09,19.48 L 4.3,17.08 C 4.75,18.44 5.2,19.49 5.24,19.58 L 5.24,19.6 C 5.45,20.57 5.32,21.57 4.87,22.44 L 4.9,22.39 C 4.61,23.1 4.17,23.75 3.6,24.27 L 3.59,24.28 C 3.05,24.86 2.44,25.38 1.78,25.83 L 1.33,26.1 1.47,26.55 C 2.54,30.01 3.7,51.68 3.7,51.68 3.7,52.01 3.7,52.34 3.7,52.66 L 3.72,52.65 C 2.17,54.25 1.37,56.44 1.52,58.67 L 1.53,58.78 C 1.75,60.53 2.37,62.2 3.36,63.66 3.32,64.86 3.25,65.92 3.19,66.86 3.11,66.86 3.03,66.85 2.95,66.85 L 2.96,66.85 C 1.7,66.74 0.61,67.44 1.14,68.31 Z M 4.8,11.46 L 4.77,11.34 C 4.17,9.38 3.78,7.37 3.6,5.33 L 3.62,4.91 4.15,4.75 C 5.39,4.36 8.92,2.82 8.92,0.83 L 8.92,-0 61.24,-0 61.24,0.83 C 61.24,2.82 64.77,4.36 66.01,4.75 L 66.54,4.91 66.57,5.27 66.56,5.32 C 66.39,7.37 65.99,9.39 65.39,11.36 L 64.99,6.14 C 63.62,5.64 60.31,4.18 59.69,1.65 L 10.47,1.65 C 9.86,4.18 6.54,5.64 5.17,6.14 L 4.8,11.46 Z M 66.35,25.75 L 66.3,25.7 C 66.64,26.02 67,26.32 67.37,26.59 66.66,29.36 66.06,36.55 65.61,41.31 L 65.61,41.38 C 65.52,36.44 65.74,31.49 66.26,26.57 M 59.58,70.52 L 59.65,70.48 C 61.41,69.33 63.39,68.55 65.46,68.19 65.49,69.17 65.56,69.96 65.61,70.52 L 59.58,70.52 Z M 65.23,65.77 C 65.26,66.2 65.29,66.62 65.32,67.01 L 65.27,67.02 C 64.78,67.08 64.29,67.18 63.8,67.3 64.27,66.84 64.75,66.33 65.23,65.77 Z M 63.79,19.21 L 63.78,19.22 C 63.42,20.95 63.83,22.76 64.92,24.15 63.54,31.95 64.89,59.77 65.06,63 L 65.06,63.01 C 65.68,62.11 66.2,61.14 66.59,60.12 66.54,58.39 66.49,56.57 66.47,54.68 L 66.49,54.71 C 67.22,55.88 67.56,57.27 67.44,58.66 L 67.44,58.61 C 67.24,60.25 66.64,61.81 65.7,63.16 65.63,63.26 65.59,63.32 65.54,63.38 65.42,63.56 65.29,63.74 65.16,63.92 65.13,63.96 65.12,63.98 65.12,63.98 L 65.12,63.98 65,64.13 C 63.58,65.96 61.9,67.57 60.02,68.94 L 60.33,68.72 C 59.34,69.25 58.38,69.82 57.45,70.45 L 57.33,70.52 57.12,70.67 C 56.77,70.91 56.44,71.16 56.1,71.41 L 56.08,71.4 56.11,71.39 C 55.74,71.62 55.39,71.88 55.06,72.16 L 55.04,72.17 55.05,72.17 C 52.97,74 53.72,75.7 54.32,75.9 54.99,76.12 55.22,75.18 55.22,75.18 L 55.22,75.21 C 55.24,73.97 55.9,72.83 56.96,72.19 L 67.44,72.17 67.35,71.25 C 67.34,71.19 67.22,70.02 67.07,68.07 67.3,68.07 67.54,68.07 67.77,68.09 L 67.77,68.09 C 67.89,68.1 67.99,68.12 68.1,68.14 68.24,68.2 68.35,68.31 68.21,68.57 L 68.21,68.56 C 68.06,68.85 67.85,69.1 67.58,69.29 L 67.58,69.29 C 68.18,69.19 68.71,68.83 69.03,68.31 69.56,67.44 68.46,66.74 67.21,66.85 L 67.21,66.85 C 67.14,66.85 67.06,66.86 66.98,66.86 66.91,65.92 66.84,64.86 66.78,63.7 L 66.81,63.65 C 67.79,62.2 68.41,60.53 68.63,58.79 L 68.63,58.81 C 68.82,56.58 68.06,54.38 66.54,52.75 66.46,52.34 66.46,52.01 66.47,51.68 66.47,51.68 67.63,30.01 68.69,26.55 L 68.83,26.1 68.43,25.86 68.38,25.83 C 67.73,25.38 67.12,24.87 66.58,24.28 L 66.56,24.27 C 65.99,23.74 65.55,23.1 65.26,22.38 L 65.26,22.38 C 64.83,21.5 64.71,20.49 64.94,19.53 64.96,19.49 65.41,18.44 65.86,17.08 L 66.08,19.48 C 65.85,20.15 65.66,20.86 65.48,21.58 L 65.49,21.6 C 65.79,22.27 66.24,22.85 66.82,23.3 L 66.79,23.3 C 67.01,22.2 67.29,21.11 67.64,20.04 L 67.76,19.69 66.72,8.1 66.71,8.12 C 66.52,9.98 66.13,11.81 65.55,13.59 L 65.55,13.59 C 65.14,15.54 64.54,17.44 63.76,19.28 M 35.08,77.51 C 29.23,77.51 24.1,75.37 21.22,72.17 20.99,71.91 20.77,71.65 20.56,71.38 20.54,71.35 20.52,71.32 20.5,71.29 L 20.49,71.28 C 20.3,71.03 20.13,70.77 19.97,70.51 L 20.01,70.57 C 19.22,69.3 18.78,67.84 18.76,66.34 18.76,60.06 26.08,55.02 35.08,55.02 44.08,55.02 51.41,60.06 51.41,66.26 L 51.41,66.2 C 51.41,67.69 51,69.16 50.23,70.45 L 50.19,70.5 C 50.03,70.78 49.85,71.04 49.66,71.29 49.64,71.32 49.62,71.35 49.6,71.38 49.4,71.65 49.18,71.91 48.95,72.17 46.06,75.37 40.94,77.51 35.08,77.51 Z M 54.09,72.17 L 56.18,70.52 54.24,70.52 54.26,70.44 C 54.66,69.29 54.9,68.1 54.99,66.88 L 54.97,67 C 55.86,68.49 57.69,69.14 59.33,68.54 58.86,68.67 56.8,68.97 54.95,65.09 L 54.94,65.11 54.95,65.16 C 54.83,63.45 54.08,61.85 52.84,60.66 L 52.8,60.6 C 54.22,63.26 54.52,66.38 53.64,69.26 L 53.63,69.29 C 53.35,69.63 52.94,69.83 52.5,69.83 L 52.5,69.83 C 52.97,68.68 53.21,67.45 53.21,66.2 53.21,59.07 45.07,53.22 35.08,53.22 25.09,53.22 16.95,59.07 16.95,66.26 L 16.95,66.2 C 16.95,67.44 17.19,68.67 17.66,69.82 L 17.66,69.83 C 17.23,69.83 16.81,69.63 16.54,69.29 L 16.53,69.26 C 15.65,66.38 15.95,63.26 17.36,60.6 L 17.32,60.66 C 16.09,61.85 15.34,63.45 15.22,65.16 L 15.22,65.09 C 13.37,68.97 11.3,68.67 10.8,68.53 L 10.78,68.52 C 12.4,69.14 14.24,68.53 15.16,67.05 L 15.19,67.11 C 15.3,68.33 15.57,69.53 15.99,70.69 L 13.98,70.52 16.07,72.17 16.07,72.17 16.1,72.19 C 17.52,73.3 18.19,75.11 17.85,76.88 17.86,76.84 17.5,77.85 18.4,78 19.25,78.14 20.26,76.17 17.51,72.17 L 18.94,72.17 18.88,72.08 C 19.27,72.65 19.71,73.18 20.19,73.67 L 20.31,73.81 C 20.31,73.81 20.34,73.86 20.39,73.93 23.31,78.28 20.87,78.99 20.87,78.99 L 20.87,78.99 C 20.66,79.06 20.55,79.28 20.61,79.49 20.62,79.52 20.64,79.55 20.65,79.58 21.11,80.32 23.92,80.03 22.72,76.42 L 22.76,76.43 C 23.98,76.71 25.06,77.42 25.79,78.43 L 32.41,79.17 32.36,79.14 32.32,79.14 C 34.15,79.36 36.01,79.36 37.84,79.14 L 37.75,79.17 44.39,78.41 44.37,78.44 C 45.11,77.42 46.19,76.7 47.41,76.42 46.24,80.03 49.06,80.32 49.51,79.58 L 49.51,79.58 C 49.63,79.39 49.57,79.15 49.39,79.03 49.36,79.02 49.33,79 49.31,78.99 49.29,78.99 46.85,78.28 49.78,73.93 49.83,73.86 49.86,73.81 49.86,73.81 L 49.85,73.8 49.81,73.84 C 50.3,73.35 50.75,72.83 51.15,72.27 L 52.66,72.17 C 49.9,76.17 50.92,78.14 51.77,78 52.67,77.85 52.31,76.84 52.31,76.84 L 52.3,76.8 C 51.99,75.02 52.7,73.22 54.14,72.14" transform=""  />
</svg>
