<?xml version="1.0" encoding="UTF-8"?>
<!DOCTYPE svg PUBLIC "-//W3C//DTD SVG 1.1//EN" "http://www.w3.org/Graphics/SVG/1.1/DTD/svg11.dtd">
<svg version="1.1" xmlns="http://www.w3.org/2000/svg" xmlns:xlink="http://www.w3.org/1999/xlink" width="54" height="63"  xml:space="preserve" id="attrBlock3">
    <!-- Generated by PaintCode - http://www.paintcodeapp.com -->
    <g id="attrBlock3-attrBlock3">
        <path id="attrBlock3-bezier" stroke="none" fill="rgb(255, 255, 255)" d="M 1.13,20.47 L 0.99,19.76 C 2.36,26.76 2.92,33.89 2.67,41.02 2.63,41.97 -0.5,45.1 2.88,50.16 L 2.6,55.63 51.39,55.63 51.11,50.16 C 54.49,45.1 51.36,41.97 51.36,41.97 L 51.4,42.67 C 51.02,35.54 51.46,28.4 52.7,21.37 L 51.43,19.41 51.52,19.14 C 51.92,17.89 52.26,16.63 52.53,15.34 L 51.57,3.83 C 48.72,5.01 46.88,0.7 46.88,0.7 L 7.11,0.7 C 7.11,0.7 5.27,5.01 2.42,3.83 L 1.47,15.38 1.46,15.35 C 1.74,16.64 2.08,17.9 2.48,19.15 L 1.13,20.47 Z M 1.13,20.47" />
        <ellipse id="attrBlock3-oval" stroke="none" fill="rgb(255, 255, 255)" cx="26.97" cy="51.77" rx="12.2" ry="8.25" />
        <path id="attrBlock3-bezier2" stroke="none" fill="rgb(212, 213, 214)" d="M 27,61.25 C 34.43,61.25 40.45,57.01 40.45,51.77 40.45,46.53 34.43,42.28 27,42.28 19.56,42.28 13.54,46.53 13.54,51.77 13.54,57.01 19.56,61.25 27,61.25 Z M 27,58.75 C 21.06,58.75 16.04,55.55 16.04,51.77 16.04,47.98 21.06,44.78 27,44.78 32.94,44.78 37.95,47.98 37.95,51.77 37.95,55.55 32.94,58.75 27,58.75 Z M 27,58.75" />
        <path id="attrBlock3-bezier3" stroke="none" fill="rgb(0, 0, 0)" d="M 3.15,32.27 L 3.15,32.33 C 3.22,28.46 3.05,24.6 2.64,20.76 L 2.62,20.07 C 2.35,20.32 2.06,20.56 1.76,20.78 2.32,22.94 2.79,28.55 3.15,32.27 Z M 3.15,55.09 L 7.86,55.09 7.81,55.06 C 6.42,54.16 4.88,53.55 3.25,53.26 3.24,54.03 3.19,54.66 3.15,55.09 Z M 3.37,52.35 L 3.4,52.35 C 3.79,52.4 4.19,52.48 4.57,52.58 4.2,52.22 3.82,51.82 3.44,51.38 3.42,51.72 3.4,52.05 3.37,52.35 Z M 16.23,58.37 L 16.22,58.36 C 15.5,57.76 14.86,57.06 14.32,56.29 L 13.22,56.38 C 13.78,57.18 14.88,58.43 16.23,58.37 Z M 14.24,51.77 L 14.24,51.71 C 14.24,52.89 14.56,54.03 15.16,55.04 L 15.19,55.07 C 15.31,55.28 15.45,55.49 15.6,55.68 15.62,55.72 15.64,55.74 15.65,55.76 15.81,55.97 15.98,56.18 16.17,56.38 18.42,58.88 22.42,60.55 27,60.55 31.57,60.55 35.58,58.88 37.83,56.38 38.01,56.18 38.18,55.97 38.34,55.76 38.36,55.74 38.37,55.72 38.39,55.69 38.53,55.5 38.67,55.3 38.79,55.09 L 38.77,55.13 C 39.39,54.14 39.73,53 39.75,51.82 39.75,46.92 34.03,42.98 27,42.98 19.96,42.98 14.24,46.92 14.24,51.77 Z M 39.61,56.38 L 39.56,56.45 C 39.01,57.21 38.36,57.89 37.63,58.48 39.1,58.41 40.19,57.18 40.75,56.38 L 39.61,56.38 Z M 46.14,55.09 L 50.85,55.09 C 50.81,54.66 50.75,54.03 50.69,53.27 L 50.74,53.27 C 49.12,53.55 47.57,54.16 46.19,55.06 M 49.44,52.58 L 49.43,52.58 C 49.81,52.48 50.2,52.4 50.6,52.35 50.6,52.05 50.57,51.72 50.55,51.38 50.18,51.82 49.8,52.22 49.44,52.58 Z M 50.85,32.27 C 51.2,28.55 51.67,22.94 52.26,20.8 L 52.23,20.78 C 51.93,20.56 51.65,20.32 51.38,20.07 L 51.35,20.76 C 50.95,24.6 50.78,28.45 50.85,32.31 M 1.9,52.22 L 1.9,52.22 C 1.95,52.22 2.02,52.23 2.08,52.23 2.13,51.5 2.18,50.67 2.23,49.76 L 2.21,49.73 C 1.44,48.59 0.96,47.28 0.79,45.92 L 0.79,45.95 C 0.64,44.21 1.23,42.48 2.42,41.21 2.48,40.89 2.48,40.63 2.48,40.37 2.48,40.37 1.57,23.44 0.74,20.74 L 0.63,20.39 0.94,20.2 0.97,20.18 C 1.49,19.83 1.97,19.42 2.4,18.96 L 2.4,18.96 C 2.85,18.55 3.19,18.04 3.42,17.49 L 3.42,17.48 C 3.76,16.79 3.85,16.01 3.67,15.26 3.65,15.22 3.3,14.4 2.95,13.35 L 2.78,15.22 C 2.96,15.74 3.11,16.29 3.25,16.86 L 3.24,16.87 C 3.01,17.39 2.65,17.85 2.2,18.2 L 2.22,18.21 C 2.06,17.34 1.83,16.48 1.56,15.64 L 1.47,15.38 2.28,6.33 2.28,6.33 C 2.43,7.79 2.74,9.23 3.19,10.62 L 3.19,10.62 C 3.52,12.14 3.98,13.62 4.59,15.05 L 4.57,15.02 C 4.86,16.37 4.54,17.78 3.68,18.87 4.77,24.96 3.71,46.69 3.57,49.22 L 3.58,49.23 C 3.1,48.53 2.69,47.78 2.39,46.98 2.42,45.61 2.45,44.19 2.47,42.72 L 2.46,42.74 C 1.89,43.66 1.63,44.74 1.72,45.82 L 1.72,45.8 C 1.88,47.07 2.34,48.29 3.08,49.34 3.13,49.42 3.17,49.47 3.2,49.51 3.29,49.66 3.39,49.8 3.5,49.93 3.52,49.96 3.53,49.98 3.53,49.98 L 3.53,49.98 3.62,50.09 C 4.73,51.52 6.04,52.79 7.51,53.85 L 7.25,53.68 C 8.03,54.09 8.79,54.54 9.52,55.04 L 9.61,55.09 9.78,55.21 C 10.3,55.56 10.8,55.93 11.28,56.3 L 11.4,56.38 5.6,56.38 C 5.52,56.9 5.53,58.44 8.19,59 8.19,59 8.57,60.33 12.51,61.25 16.45,62.18 13.32,57.33 12.12,56.38 L 12.13,56.37 10.51,55.09 12.03,55.09 12.02,55.04 C 11.7,54.14 11.51,53.19 11.44,52.24 L 11.46,52.34 C 10.76,53.51 9.33,54.01 8.06,53.55 8.42,53.65 10.03,53.88 11.48,50.85 L 11.48,50.86 11.48,50.91 C 11.57,49.57 12.16,48.31 13.12,47.38 L 13.15,47.34 C 12.05,49.42 11.81,51.85 12.5,54.11 L 12.51,54.13 C 12.73,54.4 13.05,54.55 13.39,54.55 L 13.38,54.54 C 13.02,53.65 12.84,52.69 12.84,51.73 12.84,46.15 19.19,41.57 27,41.57 34.81,41.57 41.16,46.15 41.16,51.77 L 41.16,51.72 C 41.16,52.69 40.97,53.65 40.61,54.55 L 40.61,54.55 C 40.95,54.55 41.27,54.4 41.49,54.13 L 41.49,54.11 C 42.18,51.86 41.95,49.42 40.84,47.34 L 40.87,47.39 C 41.84,48.32 42.42,49.57 42.52,50.9 L 42.52,50.85 C 43.96,53.88 45.57,53.65 45.97,53.54 L 45.99,53.53 C 44.72,54.02 43.28,53.54 42.56,52.38 L 42.53,52.44 C 42.45,53.39 42.24,54.32 41.92,55.22 L 43.48,55.09 41.85,56.38 C 40.65,57.33 37.52,62.18 41.46,61.25 45.4,60.33 45.79,59 45.79,59 48.45,58.44 48.45,56.9 48.37,56.38 L 42.59,56.38 42.71,56.3 C 43.19,55.93 43.7,55.56 44.22,55.21 L 44.38,55.09 44.4,55.09 44.49,55.03 C 45.21,54.54 45.96,54.09 46.73,53.68 L 46.75,53.65 C 48.2,52.56 49.49,51.28 50.58,49.83 L 50.46,49.98 C 50.46,49.98 50.48,49.96 50.5,49.93 50.6,49.8 50.7,49.66 50.8,49.51 50.83,49.47 50.86,49.42 50.9,49.37 L 50.91,49.34 C 51.65,48.29 52.12,47.07 52.28,45.79 L 52.27,45.82 C 52.37,44.74 52.11,43.66 51.54,42.74 51.54,44.19 51.57,45.61 51.63,46.93 L 51.61,46.97 C 51.3,47.77 50.9,48.53 50.41,49.23 50.28,46.69 49.23,24.96 50.31,18.87 L 50.31,18.87 C 49.46,17.78 49.13,16.37 49.42,15.01 L 49.4,15.06 C 50.01,13.63 50.48,12.14 50.8,10.61 L 50.8,10.62 C 51.25,9.23 51.56,7.79 51.71,6.33 L 52.52,15.38 52.48,15.51 52.43,15.65 C 52.16,16.49 51.94,17.35 51.77,18.21 L 51.79,18.2 C 51.34,17.85 50.98,17.39 50.75,16.87 50.89,16.29 51.04,15.74 51.21,15.22 L 51.04,13.35 C 50.69,14.4 50.34,15.22 50.31,15.29 L 50.31,15.32 C 50.15,16.07 50.25,16.85 50.6,17.53 L 50.58,17.49 C 50.8,18.05 51.15,18.55 51.59,18.96 L 51.59,18.96 C 52.02,19.42 52.49,19.82 53.01,20.17 L 53.36,20.39 53.26,20.74 C 52.42,23.44 51.52,40.37 51.52,40.37 51.52,40.63 51.51,40.89 51.51,41.14 L 51.5,41.13 C 52.71,42.38 53.34,44.1 53.21,45.84 L 53.21,45.92 C 53.04,47.29 52.55,48.59 51.78,49.73 51.81,50.67 51.86,51.5 51.92,52.23 51.98,52.23 52.04,52.22 52.1,52.22 L 52.1,52.22 C 53.07,52.14 53.93,52.68 53.52,53.37 L 53.52,53.36 C 53.28,53.76 52.87,54.04 52.41,54.12 L 52.38,54.13 C 52.58,53.99 52.75,53.8 52.87,53.58 52.99,53.37 52.9,53.28 52.79,53.23 52.71,53.22 52.63,53.2 52.54,53.2 L 52.54,53.2 C 52.36,53.18 52.17,53.18 51.99,53.18 52.1,54.7 52.2,55.62 52.2,55.67 L 52.28,56.38 49.71,56.38 C 48.52,60.94 40.19,62.45 40.19,62.45 L 40.18,62.43 C 39.3,61.64 38.1,61.3 36.94,61.51 L 36.97,61.5 C 37.82,60.99 38.42,60.17 38.66,59.21 L 36.78,59.66 36.81,59.65 C 35.8,59.85 34.9,60.41 34.28,61.24 L 29.08,61.85 29.12,61.83 29.17,61.82 C 27.73,62 26.27,62 24.82,61.82 L 24.91,61.85 19.73,61.25 19.72,61.24 C 19.09,60.41 18.18,59.85 17.17,59.65 L 17.19,59.66 15.31,59.21 15.31,59.22 C 15.55,60.17 16.15,60.99 17,61.5 L 17.03,61.51 C 15.87,61.3 14.67,61.64 13.79,62.43 13.78,62.45 5.45,60.94 4.26,56.38 L 1.72,56.38 1.79,55.67 C 1.8,55.62 1.89,54.7 2.01,53.18 1.83,53.18 1.64,53.18 1.46,53.2 L 1.46,53.2 C 1.37,53.2 1.29,53.22 1.2,53.23 1.09,53.28 1,53.37 1.11,53.56 L 1.11,53.56 C 1.23,53.79 1.4,53.98 1.61,54.13 L 1.61,54.13 C 1.15,54.06 0.74,53.78 0.49,53.38 0.06,52.68 0.92,52.14 1.9,52.22 Z M 3.34,8.95 L 3.32,8.87 C 2.85,7.33 2.54,5.76 2.4,4.16 L 2.42,3.83 2.83,3.71 C 3.8,3.41 6.56,2.2 6.56,0.64 L 6.56,-0 47.44,-0 47.44,0.64 C 47.44,2.2 50.19,3.41 51.16,3.71 L 51.57,3.83 51.6,4.11 51.59,4.15 C 51.45,5.75 51.15,7.33 50.68,8.87 L 50.36,4.8 C 49.3,4.41 46.7,3.26 46.22,1.29 L 7.77,1.29 C 7.29,3.26 4.7,4.41 3.63,4.8 L 3.34,8.95 Z M 3.34,8.95" />
    </g>
</svg>
