<?xml version="1.0" encoding="UTF-8"?>
<!DOCTYPE svg PUBLIC "-//W3C//DTD SVG 1.1//EN" "http://www.w3.org/Graphics/SVG/1.1/DTD/svg11.dtd">
<svg version="1.1" xmlns="http://www.w3.org/2000/svg" xmlns:xlink="http://www.w3.org/1999/xlink" width="60" height="26"  preserveAspectRatio="none" id="attrBox">
    <!-- Generated by PaintCode - http://www.paintcodeapp.com -->
    <path id="attrBox-attrBox" stroke="none" fill="rgb(212, 213, 214)" d="M 15.75,445.36 L 15.83,445.28 C 16.44,444.69 17.09,444.14 17.76,443.63 L 17.5,443.78 C 14.38,444.79 11.08,445.14 7.82,444.8 L 7.91,444.81 C 9.02,445.17 10.18,445.36 11.34,445.36 L 15.75,445.36 Z M 1.21,433.41 L 0.04,429.05 0.04,438.31 C 0.28,438.69 0.57,439.11 0.9,439.55 L 0.88,439.45 C 0.52,437.37 0.65,435.24 1.27,433.22 M 38.82,448.87 L 37.91,448.87 37.91,448.86 C 33.54,452.79 26.91,452.79 22.54,448.86 L 21.63,448.87 C 21.91,449.14 22.19,449.4 22.49,449.65 L 22.49,449.65 C 22.54,449.63 22.6,449.62 22.65,449.61 L 22.66,449.61 C 22.97,449.61 23.22,449.86 23.22,450.17 L 23.22,450.19 23.3,450.25 C 27.52,453.2 33.15,453.15 37.32,450.12 L 37.23,450.18 37.23,450.18 C 37.23,449.86 37.48,449.61 37.79,449.61 L 37.79,449.61 C 37.85,449.62 37.91,449.63 37.96,449.65 38.26,449.4 38.54,449.14 38.82,448.87 Z M 60.41,439.64 L 60.41,441.47 60.37,441.52 C 57.02,445.11 52.7,447.66 47.93,448.84 L 39.49,448.86 39.45,448.91 C 39.14,449.24 38.82,449.55 38.48,449.84 L 43.45,449.83 43.45,449.86 C 43.69,449.86 43.91,449.84 44.15,449.83 L 52.23,449.83 52.95,448.86 49.79,448.86 49.61,448.92 C 53.57,447.63 57.18,445.43 60.13,442.48 L 60.41,444.72 C 60.41,444.72 56.77,446.89 55.84,448.86 L 53.89,448.86 52.6,450.58 45.31,450.58 C 42.49,450.93 38.92,451.59 37.24,452.76 37.24,452.76 36.04,453.49 36.04,452.3 36.04,451.57 38.78,450.95 40.9,450.58 L 38.18,450.58 38.18,450.58 C 37.99,450.77 37.69,450.79 37.48,450.63 L 37.44,450.65 C 33.11,453.69 27.34,453.69 23.01,450.65 L 22.97,450.63 C 22.89,450.69 22.78,450.73 22.66,450.74 L 22.66,450.74 C 22.51,450.74 22.37,450.68 22.26,450.57 L 19.54,450.58 C 21.67,450.95 24.41,451.57 24.41,452.3 24.41,453.49 23.21,452.76 23.21,452.76 21.53,451.59 17.96,450.93 15.14,450.58 L 7.85,450.58 6.56,448.87 4.61,448.87 C 3.68,446.89 0.04,444.72 0.04,444.72 L 0.04,442.19 0,442.15 C 2.9,445.15 6.46,447.42 10.4,448.78 L 7.5,448.87 8.22,449.83 16.3,449.83 C 16.54,449.84 16.76,449.86 17,449.86 L 17,449.83 21.95,449.83 21.95,449.83 C 21.61,449.53 21.29,449.22 20.98,448.89 L 12.6,448.87 12.52,448.84 C 7.75,447.66 3.43,445.11 0.08,441.52 L 0.04,439.64 C 2.02,442.37 5.74,446.11 11.31,446.11 L 23.73,446.11 23.73,446.11 C 23.86,446.36 24.12,446.51 24.4,446.52 L 24.41,446.52 C 24.84,446.52 25.2,446.17 25.2,445.73 25.2,445.3 24.84,444.94 24.41,444.94 L 24.4,444.94 C 24.12,444.95 23.86,445.11 23.73,445.36 L 16.87,445.36 16.99,445.25 C 24.61,438.38 36.21,438.49 43.72,445.48 L 36.72,445.36 36.72,445.36 C 36.59,445.11 36.33,444.95 36.04,444.94 L 36.04,444.94 C 35.6,444.94 35.25,445.3 35.25,445.73 35.25,446.17 35.6,446.52 36.04,446.52 L 36.04,446.52 C 36.33,446.51 36.59,446.36 36.72,446.11 L 49.14,446.11 C 54.71,446.11 58.43,442.37 60.41,439.64 Z M 59.54,439.56 C 59.88,439.11 60.17,438.69 60.41,438.31 L 60.41,429.04 59.24,433.41 59.25,433.44 C 59.83,435.47 59.92,437.61 59.52,439.68 M 49.14,445.36 L 49.11,445.36 C 50.27,445.36 51.43,445.17 52.54,444.81 L 52.62,444.8 C 49.36,445.14 46.07,444.8 42.96,443.78 L 42.98,443.85 C 43.65,444.38 44.29,444.94 44.89,445.55 L 49.14,445.36 Z M 49.14,7.63 L 44.7,7.63 44.62,7.7 C 44.01,8.29 43.36,8.84 42.69,9.35 L 42.94,9.2 C 46.07,8.19 49.37,7.84 52.63,8.18 L 52.54,8.17 C 51.43,7.81 50.27,7.63 49.1,7.63 M 59.24,19.57 L 60.41,23.94 60.41,14.67 C 60.17,14.29 59.88,13.87 59.55,13.43 L 59.56,13.53 C 59.93,15.61 59.8,17.74 59.18,19.76 M 37.96,3.34 L 37.95,3.34 C 37.9,3.36 37.84,3.37 37.79,3.37 L 37.79,3.37 C 37.48,3.37 37.23,3.12 37.23,2.81 L 37.23,2.79 37.15,2.74 C 32.93,-0.22 27.29,-0.17 23.12,2.86 L 23.22,2.81 23.22,2.81 C 23.22,3.12 22.97,3.37 22.66,3.37 L 22.66,3.37 C 22.6,3.37 22.55,3.36 22.49,3.34 22.19,3.58 21.91,3.84 21.63,4.12 L 22.54,4.12 22.53,4.12 C 26.91,0.19 33.54,0.19 37.91,4.12 L 38.81,4.12 C 38.54,3.84 38.25,3.58 37.96,3.34 Z M 49.78,4.11 L 52.95,4.11 52.23,3.15 44.15,3.15 C 43.91,3.15 43.69,3.12 43.45,3.12 L 43.45,3.15 38.5,3.15 38.5,3.16 C 38.84,3.45 39.16,3.76 39.47,4.09 L 47.84,4.11 47.93,4.13 C 52.7,5.32 57.02,7.87 60.37,11.46 L 60.41,13.34 C 58.43,10.61 54.71,6.88 49.14,6.88 L 36.72,6.88 36.72,6.88 C 36.59,6.63 36.33,6.47 36.05,6.46 L 36.04,6.46 C 35.61,6.46 35.25,6.81 35.25,7.25 35.25,7.69 35.61,8.04 36.04,8.04 L 36.05,8.04 C 36.33,8.03 36.59,7.87 36.72,7.62 L 43.58,7.63 43.7,7.52 C 40.05,10.92 35.24,12.82 30.25,12.82 L 30.2,12.82 C 25.21,12.82 20.4,10.92 16.75,7.52 L 23.73,7.63 23.73,7.62 C 23.86,7.87 24.12,8.03 24.4,8.04 L 24.41,8.04 C 24.84,8.04 25.2,7.69 25.2,7.25 25.2,6.81 24.84,6.46 24.41,6.46 L 24.4,6.46 C 24.12,6.47 23.86,6.63 23.73,6.88 L 11.31,6.88 C 5.74,6.88 2.02,10.61 0.04,13.35 L 0.04,11.51 0.09,11.45 C 3.44,7.87 7.75,5.32 12.51,4.14 L 20.96,4.12 20.99,4.08 C 21.3,3.75 21.62,3.44 21.96,3.14 L 17,3.15 17,3.12 C 16.76,3.12 16.54,3.15 16.3,3.15 L 8.22,3.15 7.5,4.12 10.66,4.12 10.84,4.06 C 6.87,5.35 3.27,7.56 0.32,10.5 L 0.04,8.26 C 0.04,8.26 3.68,6.09 4.61,4.12 L 6.56,4.12 7.85,2.4 15.14,2.4 C 17.96,2.05 21.53,1.39 23.21,0.22 23.21,0.22 24.41,-0.51 24.41,0.68 24.41,1.41 21.67,2.03 19.54,2.4 L 22.27,2.4 22.26,2.41 C 22.37,2.3 22.51,2.24 22.66,2.24 L 22.65,2.24 C 22.77,2.25 22.88,2.28 22.97,2.35 L 23.01,2.33 C 27.34,-0.71 33.11,-0.71 37.44,2.33 L 37.48,2.35 C 37.57,2.28 37.68,2.25 37.79,2.24 L 37.79,2.24 C 37.94,2.24 38.08,2.3 38.18,2.41 L 40.9,2.4 C 38.78,2.03 36.04,1.41 36.04,0.68 36.04,-0.51 37.24,0.22 37.24,0.22 38.92,1.39 42.49,2.05 45.31,2.4 L 52.6,2.4 53.88,4.11 55.84,4.11 C 56.77,6.09 60.41,8.26 60.41,8.26 L 60.41,10.79 60.45,10.83 C 57.56,7.83 53.99,5.56 50.04,4.2 M 58.74,19.49 L 58.74,19.49 C 59.38,17.25 59.42,14.89 58.86,12.64 L 58.86,12.58 C 57.91,11.45 56.8,10.46 55.58,9.63 50.64,7.23 43.51,9.49 41.46,10.23 L 41.41,10.26 C 38.09,12.42 34.22,13.57 30.26,13.57 L 30.19,13.57 C 26.23,13.57 22.36,12.42 19.04,10.26 16.93,9.49 9.79,7.22 4.93,9.59 L 4.87,9.63 C 3.64,10.46 2.54,11.45 1.59,12.58 L 1.59,12.63 C 1.03,14.89 1.07,17.26 1.71,19.49 L 1.73,19.56 1.71,19.63 0.04,25.86 0.04,427.12 1.73,433.42 1.71,433.49 1.71,433.49 C 1.07,435.73 1.02,438.09 1.59,440.34 L 1.59,440.4 C 2.54,441.53 3.64,442.52 4.87,443.35 9.81,445.76 16.94,443.49 18.99,442.75 L 19.01,442.74 C 25.83,438.31 34.62,438.31 41.44,442.74 43.52,443.5 50.66,445.76 55.52,443.39 L 55.58,443.35 C 56.81,442.53 57.91,441.53 58.86,440.4 L 58.86,440.35 C 59.42,438.09 59.38,435.72 58.74,433.49 L 58.72,433.42 58.74,433.35 60.41,427.12 60.41,25.86 58.72,19.56 58.74,19.49 Z M 0.91,13.43 C 0.57,13.87 0.28,14.29 0.04,14.67 L 0.04,23.94 1.21,19.57 1.2,19.54 C 0.62,17.51 0.53,15.37 0.93,13.3 M 7.89,8.18 L 7.92,8.17 C 9.02,7.81 10.18,7.63 11.34,7.63 L 15.75,7.63 15.82,7.69 C 16.43,8.28 17.08,8.84 17.76,9.35 L 17.49,9.2 C 14.38,8.19 11.08,7.84 7.83,8.18" transform="scale(0.99, 0.99)"  />
</svg>
