<?xml version="1.0" encoding="UTF-8"?>
<!DOCTYPE svg PUBLIC "-//W3C//DTD SVG 1.1//EN" "http://www.w3.org/Graphics/SVG/1.1/DTD/svg11.dtd">
<svg version="1.1" xmlns="http://www.w3.org/2000/svg" xmlns:xlink="http://www.w3.org/1999/xlink" width="77" height="580"  xml:space="preserve" id="attrBox">
    <!-- Generated by PaintCode - http://www.paintcodeapp.com -->
    <path id="attrBox-bezier" stroke="none" fill="rgb(220, 221, 222)" d="M 20.12,570.05 L 20.22,569.96 C 21,569.21 21.82,568.5 22.69,567.85 19.53,568.9 14.61,570.03 10.06,569.35 L 10.08,569.36 C 11.5,569.82 12.98,570.05 14.47,570.05 L 20.12,570.05 Z M 1.5,554.77 L 0,549.18 0,561.04 C 0.31,561.53 0.68,562.06 1.11,562.63 L 1.09,562.5 C 0.62,559.84 0.78,557.1 1.57,554.52 M 49.64,574.55 L 48.47,574.55 48.48,574.54 C 42.89,579.58 34.4,579.58 28.8,574.54 L 27.65,574.55 C 28,574.9 28.36,575.23 28.75,575.55 L 28.75,575.55 C 28.81,575.52 28.88,575.51 28.95,575.5 L 28.96,575.5 C 29.35,575.5 29.68,575.83 29.68,576.22 L 29.67,576.24 29.78,576.31 C 35.18,580.1 42.39,580.03 47.73,576.16 L 47.61,576.23 47.61,576.22 C 47.61,575.83 47.93,575.5 48.33,575.5 L 48.33,575.5 C 48.4,575.51 48.47,575.52 48.54,575.55 48.92,575.23 49.29,574.9 49.64,574.55 Z M 77.28,562.73 L 77.28,565.08 77.22,565.15 C 72.94,569.74 67.41,573 61.31,574.52 L 50.5,574.55 50.45,574.6 C 50.06,575.02 49.64,575.42 49.21,575.8 L 55.57,575.78 55.57,575.82 C 55.87,575.82 56.16,575.79 56.46,575.78 L 66.8,575.78 67.73,574.55 63.68,574.55 63.45,574.62 C 68.53,572.97 73.14,570.14 76.92,566.37 L 77.28,569.24 C 77.28,569.24 72.61,572.02 71.42,574.55 L 68.93,574.55 67.28,576.74 57.95,576.74 C 54.33,577.2 49.78,578.04 47.62,579.53 47.62,579.53 46.09,580.46 46.09,578.94 46.09,578.01 49.59,577.22 52.31,576.74 L 48.83,576.74 48.82,576.74 C 48.58,576.98 48.2,577.01 47.92,576.81 L 47.88,576.84 C 42.33,580.72 34.95,580.72 29.4,576.84 L 29.36,576.8 C 29.25,576.89 29.11,576.94 28.96,576.94 L 28.96,576.94 C 28.77,576.94 28.59,576.87 28.45,576.73 L 24.97,576.74 C 27.69,577.22 31.2,578.01 31.2,578.94 31.2,580.46 29.66,579.53 29.66,579.53 27.51,578.04 22.95,577.2 19.33,576.74 L 10,576.74 8.36,574.55 5.86,574.55 C 4.67,572.02 0,569.24 0,569.24 L 0,566 -0.05,565.95 C 3.66,569.79 8.22,572.7 13.27,574.43 L 9.55,574.55 10.48,575.78 20.82,575.78 C 21.12,575.79 21.41,575.82 21.71,575.82 L 21.71,575.78 28.05,575.78 28.05,575.78 C 27.62,575.4 27.2,575 26.81,574.58 L 16.09,574.55 15.98,574.52 C 9.88,573 4.35,569.74 0.06,565.14 L 0,562.74 C 2.54,566.23 7.3,571.01 14.43,571.01 L 30.32,571.01 30.32,571.01 C 30.5,571.34 30.83,571.54 31.19,571.54 L 31.19,571.54 C 31.75,571.54 32.2,571.09 32.2,570.54 32.2,569.98 31.75,569.53 31.19,569.53 L 31.19,569.53 C 30.83,569.53 30.49,569.74 30.32,570.06 L 21.54,570.05 21.7,569.92 C 31.45,561.13 46.31,561.26 55.91,570.22 L 46.96,570.05 46.96,570.06 C 46.79,569.74 46.45,569.53 46.09,569.53 L 46.09,569.53 C 45.53,569.53 45.08,569.98 45.08,570.54 45.08,571.09 45.53,571.54 46.09,571.54 L 46.09,571.54 C 46.45,571.54 46.78,571.34 46.96,571.01 L 62.85,571.01 C 69.98,571.01 74.75,566.23 77.28,562.73 Z M 76.17,562.63 C 76.6,562.06 76.97,561.53 77.28,561.04 L 77.28,549.17 75.78,554.76 75.79,554.8 C 76.53,557.4 76.65,560.14 76.14,562.79 M 62.85,570.05 L 62.81,570.05 C 64.3,570.05 65.78,569.82 67.2,569.36 62.67,570.03 57.76,568.9 54.78,567.99 L 54.96,568.13 C 55.82,568.8 56.64,569.53 57.41,570.3 L 62.85,570.05 Z M 62.85,9.76 L 57.16,9.76 57.06,9.86 C 56.28,10.61 55.46,11.32 54.59,11.97 57.76,10.91 62.67,9.79 67.22,10.46 L 67.2,10.46 C 65.78,10 64.3,9.76 62.8,9.76 M 75.78,25.05 L 77.28,30.64 77.28,18.78 C 76.97,18.29 76.6,17.75 76.17,17.19 L 76.19,17.32 C 76.66,19.98 76.5,22.71 75.71,25.3 M 48.54,4.27 L 48.54,4.27 C 48.48,4.29 48.41,4.31 48.34,4.31 L 48.33,4.31 C 47.93,4.31 47.61,3.99 47.61,3.59 47.61,3.59 47.61,3.58 47.61,3.57 L 47.51,3.5 C 42.1,-0.28 34.89,-0.22 29.55,3.66 29.67,3.58 29.68,3.59 29.68,3.59 L 29.68,3.59 C 29.68,3.99 29.35,4.31 28.96,4.31 L 28.96,4.31 C 28.89,4.31 28.81,4.29 28.75,4.27 28.36,4.58 27.99,4.92 27.64,5.27 L 28.81,5.27 28.8,5.28 C 34.39,0.24 42.89,0.24 48.48,5.28 L 49.64,5.27 C 49.29,4.92 48.92,4.58 48.54,4.27 Z M 63.67,5.27 L 67.73,5.27 66.8,4.04 56.46,4.04 C 56.16,4.03 55.87,3.99 55.57,3.99 L 55.57,4.04 49.23,4.04 49.24,4.04 C 49.67,4.42 50.08,4.82 50.47,5.24 L 61.19,5.27 61.3,5.29 C 67.41,6.81 72.94,10.07 77.23,14.67 L 77.28,17.08 C 74.74,13.58 69.98,8.8 62.85,8.8 L 46.96,8.8 46.96,8.8 C 46.79,8.48 46.46,8.28 46.09,8.27 L 46.09,8.27 C 45.53,8.27 45.08,8.72 45.08,9.28 45.08,9.84 45.53,10.29 46.09,10.29 L 46.09,10.29 C 46.46,10.28 46.79,10.08 46.96,9.76 L 55.74,9.76 55.89,9.62 C 51.21,13.98 45.06,16.4 38.67,16.4 L 38.62,16.4 C 32.22,16.4 26.07,13.98 21.4,9.62 L 30.33,9.76 30.33,9.76 C 30.5,10.08 30.83,10.28 31.19,10.29 L 31.2,10.29 C 31.75,10.29 32.2,9.84 32.2,9.28 32.2,8.72 31.75,8.27 31.2,8.27 L 31.19,8.27 C 30.83,8.28 30.5,8.48 30.33,8.8 L 14.43,8.8 C 7.3,8.8 2.54,13.58 0,17.08 L 0,14.73 0.07,14.66 C 4.35,10.07 9.87,6.81 15.97,5.3 L 26.78,5.27 26.83,5.22 C 27.22,4.8 27.63,4.4 28.06,4.02 L 21.72,4.04 21.72,3.99 C 21.41,3.99 21.12,4.03 20.82,4.04 L 10.48,4.04 9.55,5.27 13.6,5.27 13.83,5.2 C 8.75,6.84 4.14,9.67 0.37,13.44 L 0,10.58 C 0,10.58 4.67,7.8 5.86,5.27 L 8.35,5.27 10,3.08 19.33,3.08 C 22.95,2.62 27.51,1.78 29.66,0.28 29.66,0.28 31.2,-0.65 31.2,0.87 31.2,1.8 27.69,2.6 24.97,3.08 L 28.46,3.08 28.45,3.08 C 28.59,2.95 28.77,2.87 28.96,2.87 L 28.95,2.87 C 29.1,2.87 29.24,2.92 29.36,3.01 L 29.4,2.98 C 34.95,-0.9 42.33,-0.9 47.88,2.98 L 47.92,3.01 C 48.04,2.92 48.18,2.87 48.33,2.87 L 48.32,2.87 C 48.51,2.87 48.69,2.95 48.83,3.08 L 52.31,3.08 C 49.59,2.6 46.09,1.8 46.09,0.87 46.09,-0.65 47.62,0.28 47.62,0.28 49.78,1.78 54.33,2.62 57.95,3.08 L 67.28,3.08 68.93,5.27 71.42,5.27 C 72.61,7.8 77.28,10.57 77.28,10.57 L 77.28,13.82 77.33,13.87 C 73.62,10.03 69.06,7.12 64.01,5.38 M 75.14,24.95 L 75.14,24.94 C 75.96,22.09 76.02,19.06 75.3,16.18 L 75.29,16.11 C 74.08,14.66 72.66,13.38 71.09,12.32 64.77,9.25 55.65,12.14 53.02,13.1 L 52.96,13.13 C 48.71,15.89 43.75,17.36 38.68,17.36 L 38.6,17.36 C 33.53,17.36 28.57,15.89 24.32,13.13 21.62,12.14 12.48,9.24 6.26,12.27 L 6.18,12.33 C 4.61,13.38 3.2,14.66 1.99,16.1 L 1.99,16.17 C 1.27,19.06 1.32,22.09 2.14,24.95 L 2.17,25.04 2.14,25.13 0,33.1 0,546.72 2.17,554.78 2.14,554.87 2.14,554.87 C 1.32,557.73 1.26,560.75 1.98,563.64 L 1.99,563.71 C 3.2,565.16 4.62,566.43 6.19,567.49 12.51,570.57 21.63,567.67 24.26,566.72 L 24.28,566.71 C 33.02,561.04 44.27,561.04 53,566.71 55.66,567.67 64.8,570.57 71.02,567.54 L 71.1,567.49 C 72.67,566.43 74.08,565.16 75.29,563.71 L 75.29,563.65 C 76.01,560.76 75.96,557.73 75.14,554.86 L 75.11,554.78 75.14,554.69 77.28,546.71 77.28,33.1 75.11,25.04 75.14,24.95 Z M 1.11,17.19 C 0.68,17.75 0.31,18.29 0,18.78 L 0,30.64 1.5,25.05 1.49,25.01 C 0.75,22.42 0.63,19.68 1.14,17.03 M 10.06,10.46 L 10.09,10.45 C 11.5,9.99 12.98,9.76 14.47,9.76 L 20.12,9.76 20.2,9.84 C 20.99,10.6 21.82,11.31 22.69,11.97 19.52,10.91 14.61,9.78 10.06,10.46 Z M 10.06,10.46" />
</svg>
