<?xml version="1.0" encoding="UTF-8"?>
<!DOCTYPE svg PUBLIC "-//W3C//DTD SVG 1.1//EN" "http://www.w3.org/Graphics/SVG/1.1/DTD/svg11.dtd">
<svg version="1.1" xmlns="http://www.w3.org/2000/svg" xmlns:xlink="http://www.w3.org/1999/xlink" width="70" height="80"  xml:space="preserve" id="attrBlock2">
    <!-- Generated by PaintCode - http://www.paintcodeapp.com -->
    <path id="attrBlock2-bezier" stroke="none" fill="rgb(255, 255, 255)" d="M 1,25.31 C 1,25.31 3.86,39.71 2.92,52.83 2.92,52.83 -1.08,56.83 3.24,63.31 L 2.88,70.32 65.34,70.32 64.98,63.31 C 69.3,56.83 65.3,52.83 65.3,52.83 64.36,39.71 67.22,25.31 67.22,25.31 L 65.38,23.95 65.49,23.61 C 66.01,22.01 66.45,20.39 66.8,18.75 L 65.57,4.02 C 61.92,5.52 59.56,-0 59.56,-0 L 8.66,-0 C 8.66,-0 6.31,5.52 2.65,4.02 L 1.44,18.8 1.43,18.76 C 1.78,20.4 2.21,22.02 2.73,23.62 L 1,25.31 Z M 1,25.31" transform="translate(0.97, 0.89)"  />
    <ellipse id="attrBlock2-oval" stroke="none" fill="rgb(255, 255, 255)" cx="16.65" cy="10.55" rx="15.65" ry="10.55"  transform="translate(18.4, 55.71)" />
    <path id="attrBlock2-bezier2" stroke="none" fill="rgb(220, 221, 222)" d="M 18.23,24.29 C 27.74,24.29 35.45,18.85 35.45,12.15 35.45,5.44 27.74,-0 18.23,-0 8.71,-0 1,5.44 1,12.15 1,18.85 8.71,24.29 18.23,24.29 Z M 18.23,21.09 C 10.62,21.09 4.2,17 4.2,12.15 4.2,7.3 10.62,3.2 18.23,3.2 25.83,3.2 32.25,7.3 32.25,12.15 32.25,16.99 25.83,21.09 18.23,21.09 Z M 18.23,21.09" transform="translate(16.86, 54.12)"  />
    <path id="attrBlock2-bezier3" stroke="none" fill="rgb(0, 0, 0)" d="M 2.74,26.62 L 2.78,26.6 C 3.16,26.32 3.53,26.02 3.88,25.69 L 3.91,26.56 C 4.42,31.48 4.64,36.43 4.55,41.37 4.1,36.55 3.5,29.36 2.74,26.62 Z M 4.76,68.19 L 4.7,68.18 C 6.77,68.55 8.75,69.33 10.52,70.48 L 4.55,70.52 C 4.61,69.96 4.68,69.17 4.76,68.19 Z M 4.93,65.77 C 5.41,66.33 5.9,66.85 6.36,67.3 L 6.34,67.3 C 5.82,67.16 5.28,67.06 4.74,67 4.87,66.62 4.9,66.2 4.93,65.77 Z M 1.14,68.31 L 1.13,68.31 C 1.45,68.83 1.98,69.19 2.59,69.29 L 2.58,69.28 C 2.32,69.09 2.1,68.85 1.95,68.56 1.81,68.31 1.92,68.2 2.07,68.14 2.17,68.12 2.28,68.1 2.39,68.09 L 2.39,68.09 C 2.62,68.07 2.86,68.07 3.1,68.07 2.95,70.02 2.83,71.19 2.82,71.26 L 2.72,72.17 13.37,72.17 C 14.29,72.85 14.9,73.56 14.11,73.92 L 14.09,73.93 C 12.93,74.35 11.63,74.1 10.71,73.27 12.34,75.37 15.64,75.6 16.19,74.62 16.74,73.65 15.09,72.17 15.09,72.17 L 15.12,72.17 14.97,72.06 C 14.35,71.59 13.71,71.12 13.04,70.67 L 12.83,70.52 12.81,70.52 12.74,70.47 C 11.8,69.83 10.82,69.25 9.81,68.71 L 9.8,68.69 C 7.94,67.29 6.29,65.64 4.89,63.78 L 5.04,63.98 5.04,63.98 C 5.03,63.96 5.01,63.94 5,63.92 4.87,63.74 4.74,63.56 4.62,63.38 4.58,63.32 4.54,63.26 4.49,63.19 L 4.46,63.15 C 3.52,61.81 2.92,60.25 2.72,58.62 L 2.73,58.65 C 2.61,57.27 2.94,55.89 3.67,54.71 3.67,56.57 3.62,58.39 3.56,60.08 L 3.58,60.15 C 3.97,61.16 4.48,62.12 5.1,63 5.28,59.77 6.62,31.95 5.24,24.16 L 5.24,24.16 C 6.33,22.76 6.75,20.95 6.38,19.22 L 6.4,19.27 C 5.62,17.44 5.02,15.53 4.61,13.58 L 4.61,13.6 C 4.03,11.82 3.64,9.98 3.45,8.13 L 2.41,19.69 2.46,19.86 2.53,20.05 C 2.88,21.13 3.16,22.22 3.38,23.34 L 3.34,23.3 C 3.92,22.85 4.38,22.27 4.67,21.6 4.5,20.86 4.31,20.15 4.08,19.48 L 4.3,17.08 C 4.75,18.44 5.2,19.49 5.24,19.58 L 5.24,19.61 C 5.45,20.57 5.32,21.57 4.87,22.45 L 4.9,22.38 C 4.61,23.1 4.17,23.74 3.6,24.27 L 3.6,24.28 C 3.05,24.86 2.44,25.38 1.78,25.82 L 1.33,26.1 1.47,26.55 C 2.54,30.01 3.7,51.68 3.7,51.68 3.7,52.01 3.7,52.34 3.7,52.66 L 3.72,52.65 C 2.17,54.25 1.37,56.44 1.53,58.67 L 1.54,58.79 C 1.75,60.53 2.37,62.2 3.36,63.65 3.32,64.86 3.25,65.92 3.19,66.86 3.11,66.85 3.03,66.85 2.95,66.85 L 2.96,66.85 C 1.7,66.74 0.61,67.44 1.14,68.31 Z M 4.81,11.46 L 4.77,11.33 C 4.17,9.37 3.78,7.36 3.6,5.33 L 3.63,4.91 4.15,4.75 C 5.39,4.36 8.92,2.82 8.92,0.83 L 8.92,-0 61.24,-0 61.24,0.83 C 61.24,2.82 64.77,4.36 66.01,4.75 L 66.54,4.91 66.57,5.27 66.56,5.33 C 66.39,7.37 65.99,9.38 65.4,11.34 L 64.99,6.14 C 63.63,5.64 60.31,4.18 59.69,1.65 L 10.47,1.65 C 9.86,4.18 6.54,5.64 5.17,6.14 L 4.81,11.46 Z M 66.35,25.75 L 66.29,25.69 C 66.63,26.02 67,26.32 67.39,26.6 66.67,29.36 66.06,36.55 65.61,41.31 L 65.61,41.34 C 65.53,36.41 65.74,31.47 66.26,26.57 M 59.58,70.52 L 59.65,70.48 C 61.41,69.33 63.39,68.55 65.46,68.18 65.49,69.17 65.56,69.96 65.61,70.52 L 59.58,70.52 Z M 65.23,65.77 C 65.26,66.2 65.29,66.62 65.32,67.01 L 65.25,67.02 C 64.7,67.09 64.17,67.2 63.65,67.35 64.27,66.84 64.75,66.33 65.23,65.77 Z M 63.79,19.21 L 63.79,19.23 C 63.42,20.96 63.84,22.76 64.92,24.15 63.54,31.95 64.89,59.77 65.06,63 L 65.06,63 C 65.68,62.12 66.19,61.16 66.58,60.15 66.54,58.39 66.5,56.57 66.47,54.68 L 66.49,54.71 C 67.23,55.89 67.56,57.27 67.44,58.65 L 67.44,58.62 C 67.24,60.25 66.64,61.81 65.7,63.15 65.63,63.26 65.59,63.32 65.55,63.38 65.42,63.56 65.29,63.74 65.16,63.92 65.13,63.96 65.12,63.98 65.12,63.98 L 65.12,63.98 65.01,64.13 C 63.58,65.96 61.9,67.58 60.02,68.94 L 60.36,68.71 C 59.34,69.25 58.36,69.84 57.41,70.48 L 57.34,70.52 57.12,70.67 C 56.46,71.12 55.81,71.59 55.19,72.06 L 55.04,72.17 C 55.04,72.17 53.39,73.64 53.94,74.62 54.49,75.6 57.8,75.37 59.42,73.27 L 59.43,73.27 C 58.51,74.1 57.2,74.35 56.04,73.93 55.23,73.55 55.84,72.85 56.76,72.17 L 67.44,72.17 67.34,71.25 C 67.34,71.19 67.21,70.02 67.07,68.07 67.3,68.07 67.54,68.07 67.77,68.09 L 67.78,68.09 C 67.89,68.1 67.99,68.12 68.1,68.14 68.24,68.2 68.35,68.31 68.21,68.56 L 68.21,68.56 C 68.06,68.85 67.85,69.09 67.59,69.28 L 67.58,69.29 C 68.18,69.19 68.71,68.83 69.03,68.31 69.56,67.44 68.46,66.74 67.21,66.84 L 67.21,66.85 C 67.14,66.85 67.05,66.85 66.98,66.86 66.91,65.92 66.84,64.86 66.78,63.7 L 66.81,63.65 C 67.83,62.14 68.46,60.41 68.65,58.6 L 68.63,58.81 C 68.82,56.58 68.06,54.38 66.54,52.75 66.46,52.34 66.46,52.01 66.46,51.68 66.46,51.68 67.63,30.01 68.69,26.55 L 68.83,26.1 68.44,25.86 68.38,25.83 C 67.72,25.38 67.11,24.86 66.56,24.27 L 66.56,24.27 C 66,23.74 65.55,23.1 65.26,22.38 L 65.26,22.38 C 64.83,21.5 64.71,20.49 64.94,19.53 64.97,19.49 65.41,18.44 65.86,17.08 L 66.08,19.48 C 65.85,20.15 65.66,20.86 65.48,21.58 L 65.49,21.6 C 65.79,22.27 66.24,22.85 66.82,23.3 L 66.8,23.3 C 67.01,22.19 67.29,21.1 67.64,20.03 L 67.76,19.69 66.72,8.1 66.72,8.11 C 66.52,9.98 66.13,11.82 65.55,13.6 L 65.55,13.58 C 65.14,15.54 64.53,17.46 63.75,19.3 M 21.22,72.17 L 21.22,72.17 C 20.99,71.91 20.77,71.65 20.56,71.38 20.54,71.35 20.52,71.32 20.5,71.29 L 20.49,71.27 C 20.3,71.02 20.13,70.77 19.97,70.5 L 20.01,70.57 C 19.22,69.3 18.78,67.83 18.76,66.33 18.76,60.06 26.08,55.02 35.08,55.02 44.08,55.02 51.41,60.06 51.41,66.26 L 51.41,66.19 C 51.41,67.69 51,69.16 50.23,70.45 L 50.2,70.49 C 50.04,70.77 49.86,71.03 49.66,71.29 49.64,71.32 49.62,71.35 49.6,71.38 49.4,71.65 49.18,71.91 48.95,72.17 46.06,75.37 40.94,77.51 35.08,77.51 29.23,77.51 24.1,75.37 21.22,72.17 Z M 48.52,74.99 L 48.49,75.01 C 49.52,74.2 50.43,73.26 51.19,72.21 L 54.09,72.17 56.18,70.52 54.24,70.52 54.26,70.45 C 54.66,69.29 54.9,68.09 54.99,66.87 L 54.97,67 C 55.86,68.49 57.69,69.14 59.33,68.54 58.86,68.67 56.8,68.97 54.95,65.09 L 54.94,65.11 54.95,65.16 C 54.83,63.45 54.08,61.85 52.84,60.66 L 52.8,60.6 C 54.22,63.26 54.52,66.38 53.63,69.26 L 53.63,69.29 C 53.35,69.63 52.94,69.83 52.5,69.83 L 52.5,69.83 C 52.97,68.68 53.21,67.45 53.21,66.21 53.21,59.07 45.08,53.22 35.08,53.22 25.09,53.22 16.96,59.07 16.96,66.26 L 16.96,66.21 C 16.96,67.45 17.19,68.68 17.66,69.83 L 17.66,69.83 C 17.23,69.83 16.81,69.63 16.54,69.29 L 16.53,69.26 C 15.65,66.38 15.95,63.26 17.36,60.59 L 17.32,60.66 C 16.08,61.85 15.34,63.45 15.22,65.16 L 15.22,65.09 C 13.37,68.97 11.31,68.67 10.8,68.53 L 10.78,68.52 C 12.4,69.14 14.24,68.53 15.16,67.05 L 15.19,67.11 C 15.3,68.33 15.57,69.53 15.99,70.68 L 13.98,70.52 16.07,72.17 18.94,72.17 18.97,72.21 C 19.74,73.27 20.65,74.21 21.68,75.01 21.57,75.01 16.32,78.06 12.28,75.45 12.28,75.45 13.47,77.87 17.34,77.72 L 17.32,77.73 C 17.37,77.72 17.42,77.73 17.47,77.72 17.5,77.72 17.53,77.72 17.56,77.72 22,77.28 24.07,79.17 24.07,79.17 L 24.07,79.16 C 23.56,77.95 22.45,77.11 21.16,76.92 21.58,76.76 22.04,76.58 22.53,76.37 L 22.53,76.36 22.51,76.35 C 23.8,76.61 24.96,77.33 25.76,78.38 L 32.41,79.17 32.36,79.14 32.32,79.14 C 34.15,79.36 36.01,79.36 37.85,79.14 L 37.75,79.17 44.39,78.41 44.41,78.39 C 45.2,77.33 46.36,76.61 47.65,76.36 48.09,76.58 48.56,76.76 49,76.92 L 48.98,76.92 C 47.68,77.11 46.57,77.96 46.06,79.16 46.06,79.17 48.13,77.28 52.57,77.72 52.6,77.72 52.63,77.72 52.66,77.72 52.72,77.73 52.76,77.72 52.82,77.73 L 52.8,77.72 C 56.66,77.87 57.85,75.45 57.85,75.45 53.89,78.01 48.76,75.13 48.52,74.99 Z M 48.52,74.99" transform=""  />
</svg>
