<?xml version="1.0" encoding="UTF-8"?>
<!DOCTYPE svg PUBLIC "-//W3C//DTD SVG 1.1//EN" "http://www.w3.org/Graphics/SVG/1.1/DTD/svg11.dtd">
<svg version="1.1" xmlns="http://www.w3.org/2000/svg" xmlns:xlink="http://www.w3.org/1999/xlink" width="54" height="63"  xml:space="preserve" id="attrBlock2">
    <!-- Generated by PaintCode - http://www.paintcodeapp.com -->
    <g id="attrBlock2-attrBlock2">
        <path id="attrBlock2-bezier" stroke="none" fill="rgb(255, 255, 255)" d="M 1.13,20.47 L 1,19.76 C 2.36,26.76 2.92,33.9 2.67,41.03 2.63,41.97 -0.49,45.1 2.88,50.16 L 2.6,55.63 51.4,55.63 51.12,50.16 C 54.49,45.1 51.37,41.97 51.37,41.97 L 51.4,42.67 C 51.03,35.54 51.46,28.4 52.7,21.38 L 51.43,19.41 51.52,19.14 C 51.92,17.89 52.26,16.63 52.53,15.35 L 51.58,3.84 C 48.72,5.01 46.88,0.7 46.88,0.7 L 7.12,0.7 C 7.12,0.7 5.28,5.01 2.42,3.84 L 1.47,15.38 1.47,15.36 C 1.74,16.64 2.08,17.9 2.48,19.15 L 1.13,20.47 Z M 1.13,20.47" />
        <ellipse id="attrBlock2-oval" stroke="none" fill="rgb(255, 255, 255)" cx="26.97" cy="51.77" rx="12.2" ry="8.25" />
        <path id="attrBlock2-bezier2" stroke="none" fill="rgb(212, 213, 214)" d="M 27,61.26 C 34.43,61.26 40.46,57.01 40.46,51.77 40.46,46.53 34.43,42.28 27,42.28 19.57,42.28 13.54,46.53 13.54,51.77 13.54,57.01 19.57,61.26 27,61.26 Z M 27,58.76 C 21.06,58.76 16.04,55.56 16.04,51.77 16.04,47.98 21.06,44.78 27,44.78 32.94,44.78 37.96,47.98 37.96,51.77 37.96,55.56 32.94,58.76 27,58.76 Z M 27,58.76" />
        <path id="attrBlock2-bezier3" stroke="none" fill="rgb(0, 0, 0)" d="M 1.73,20.8 L 1.76,20.78 C 2.06,20.56 2.35,20.33 2.62,20.07 L 2.64,20.75 C 3.05,24.59 3.22,28.46 3.15,32.32 2.8,28.55 2.33,22.94 1.73,20.8 Z M 3.31,53.28 L 3.26,53.27 C 4.88,53.55 6.43,54.16 7.81,55.06 L 3.15,55.09 C 3.19,54.66 3.25,54.04 3.31,53.28 Z M 3.45,51.38 C 3.82,51.82 4.2,52.22 4.56,52.58 L 4.55,52.58 C 4.14,52.47 3.72,52.39 3.29,52.35 3.4,52.05 3.42,51.72 3.45,51.38 Z M 0.48,53.37 L 0.48,53.36 C 0.72,53.77 1.14,54.05 1.61,54.13 L 1.61,54.13 C 1.4,53.98 1.23,53.79 1.12,53.57 1.01,53.37 1.09,53.28 1.21,53.23 1.29,53.22 1.37,53.2 1.46,53.2 L 1.46,53.2 C 1.64,53.18 1.83,53.18 2.01,53.18 1.89,54.7 1.8,55.62 1.8,55.67 L 1.72,56.38 10.04,56.38 C 10.76,56.91 11.23,57.46 10.62,57.75 L 10.6,57.76 C 9.69,58.09 8.68,57.89 7.96,57.24 9.23,58.88 11.81,59.06 12.24,58.3 12.67,57.53 11.38,56.38 11.38,56.38 L 11.4,56.38 11.29,56.3 C 10.8,55.93 10.3,55.56 9.78,55.21 L 9.61,55.09 9.6,55.09 9.55,55.06 C 8.81,54.56 8.04,54.1 7.25,53.68 L 7.25,53.66 C 5.8,52.57 4.51,51.28 3.41,49.83 L 3.53,49.98 3.53,49.98 C 3.52,49.97 3.51,49.95 3.5,49.94 3.4,49.8 3.3,49.66 3.2,49.52 3.17,49.47 3.14,49.42 3.1,49.37 L 3.08,49.34 C 2.34,48.29 1.88,47.07 1.72,45.8 L 1.72,45.82 C 1.63,44.74 1.89,43.66 2.46,42.75 2.46,44.2 2.42,45.62 2.37,46.93 L 2.39,46.99 C 2.7,47.78 3.09,48.53 3.58,49.22 3.71,46.69 4.77,24.96 3.69,18.87 L 3.68,18.87 C 4.54,17.78 4.86,16.37 4.58,15.01 L 4.6,15.06 C 3.99,13.62 3.52,12.14 3.19,10.61 L 3.2,10.62 C 2.74,9.23 2.44,7.8 2.29,6.34 L 1.47,15.38 1.52,15.51 1.57,15.66 C 1.84,16.5 2.06,17.36 2.23,18.23 L 2.2,18.21 C 2.65,17.86 3.01,17.4 3.24,16.88 3.11,16.29 2.96,15.74 2.78,15.22 L 2.95,13.35 C 3.31,14.4 3.65,15.22 3.68,15.3 L 3.69,15.32 C 3.85,16.07 3.75,16.85 3.4,17.54 L 3.42,17.49 C 3.19,18.05 2.85,18.55 2.41,18.96 L 2.4,18.97 C 1.98,19.42 1.5,19.83 0.99,20.17 L 0.63,20.39 0.74,20.74 C 1.57,23.44 2.48,40.37 2.48,40.37 2.48,40.63 2.49,40.89 2.49,41.14 L 2.5,41.13 C 1.28,42.39 0.66,44.1 0.78,45.84 L 0.79,45.93 C 0.96,47.29 1.45,48.59 2.21,49.73 2.19,50.67 2.13,51.5 2.08,52.23 2.02,52.23 1.96,52.22 1.9,52.22 L 1.9,52.22 C 0.92,52.14 0.06,52.69 0.48,53.37 Z M 3.35,8.95 L 3.32,8.85 C 2.85,7.32 2.54,5.75 2.4,4.16 L 2.42,3.84 2.84,3.71 C 3.8,3.41 6.56,2.2 6.56,0.65 L 6.56,-0 47.44,-0 47.44,0.65 C 47.44,2.2 50.2,3.41 51.16,3.71 L 51.57,3.84 51.6,4.12 51.6,4.16 C 51.46,5.76 51.15,7.33 50.68,8.86 L 50.37,4.8 C 49.3,4.41 46.71,3.27 46.23,1.29 L 7.77,1.29 C 7.29,3.27 4.7,4.41 3.63,4.8 L 3.35,8.95 Z M 51.42,20.12 L 51.38,20.07 C 51.65,20.33 51.94,20.56 52.24,20.78 51.67,22.94 51.2,28.55 50.85,32.27 L 50.85,32.3 C 50.78,28.45 50.95,24.59 51.36,20.75 M 46.14,55.09 L 46.19,55.06 C 47.57,54.16 49.12,53.55 50.74,53.27 50.75,54.04 50.81,54.66 50.85,55.09 L 46.14,55.09 Z M 50.55,51.38 C 50.58,51.72 50.6,52.05 50.62,52.35 L 50.57,52.36 C 50.14,52.41 49.72,52.5 49.32,52.62 49.8,52.22 50.18,51.82 50.55,51.38 Z M 49.43,15 L 49.43,15.02 C 49.14,16.37 49.46,17.78 50.31,18.87 49.23,24.96 50.29,46.69 50.42,49.22 L 50.42,49.22 C 50.91,48.53 51.3,47.78 51.61,46.99 51.58,45.62 51.54,44.2 51.52,42.72 L 51.54,42.75 C 52.11,43.66 52.37,44.74 52.28,45.82 L 52.28,45.8 C 52.12,47.07 51.66,48.29 50.92,49.34 50.86,49.42 50.83,49.47 50.8,49.52 50.7,49.66 50.6,49.8 50.5,49.94 50.48,49.97 50.47,49.98 50.47,49.98 L 50.47,49.99 50.38,50.1 C 49.26,51.53 47.95,52.8 46.48,53.86 L 46.75,53.68 C 45.96,54.1 45.18,54.56 44.44,55.06 L 44.39,55.09 44.22,55.21 C 43.7,55.56 43.2,55.93 42.71,56.3 L 42.59,56.38 C 42.59,56.38 41.31,57.54 41.73,58.3 42.16,59.06 44.75,58.88 46.02,57.24 L 46.02,57.24 C 45.3,57.89 44.28,58.09 43.37,57.76 42.74,57.47 43.22,56.91 43.94,56.38 L 52.28,56.38 52.2,55.67 C 52.2,55.62 52.1,54.7 51.99,53.18 52.17,53.18 52.36,53.18 52.54,53.2 L 52.54,53.2 C 52.63,53.21 52.71,53.22 52.79,53.23 52.91,53.28 52.99,53.37 52.88,53.57 L 52.88,53.57 C 52.76,53.79 52.6,53.98 52.39,54.13 L 52.39,54.13 C 52.86,54.06 53.27,53.78 53.52,53.37 53.93,52.69 53.08,52.14 52.1,52.22 L 52.1,52.23 C 52.04,52.23 51.98,52.23 51.92,52.23 51.87,51.5 51.81,50.67 51.76,49.76 L 51.79,49.73 C 52.58,48.55 53.08,47.19 53.22,45.78 L 53.21,45.95 C 53.36,44.21 52.77,42.48 51.58,41.21 51.51,40.89 51.52,40.63 51.52,40.37 51.52,40.37 52.43,23.45 53.26,20.74 L 53.37,20.39 53.06,20.2 53.02,20.18 C 52.5,19.83 52.02,19.42 51.59,18.96 L 51.59,18.96 C 51.15,18.55 50.81,18.05 50.58,17.49 L 50.58,17.48 C 50.24,16.79 50.15,16.01 50.32,15.26 50.35,15.22 50.69,14.4 51.05,13.35 L 51.22,15.22 C 51.04,15.74 50.89,16.29 50.75,16.86 L 50.76,16.88 C 50.99,17.4 51.34,17.85 51.79,18.2 L 51.78,18.2 C 51.94,17.34 52.16,16.49 52.44,15.65 L 52.53,15.38 51.71,6.33 51.71,6.34 C 51.56,7.79 51.26,9.23 50.8,10.63 L 50.81,10.61 C 50.48,12.14 50.01,13.64 49.4,15.08 M 16.17,56.38 L 16.17,56.38 C 15.99,56.18 15.81,55.98 15.65,55.76 15.64,55.74 15.62,55.72 15.61,55.7 L 15.6,55.68 C 15.45,55.49 15.32,55.29 15.19,55.08 L 15.23,55.13 C 14.6,54.14 14.27,53 14.25,51.82 14.24,46.92 19.97,42.98 27,42.98 34.03,42.98 39.75,46.92 39.75,51.77 L 39.75,51.71 C 39.75,52.88 39.44,54.03 38.83,55.04 L 38.81,55.07 C 38.68,55.29 38.54,55.5 38.39,55.7 38.38,55.72 38.36,55.74 38.34,55.76 38.18,55.98 38.01,56.18 37.83,56.38 35.58,58.88 31.57,60.55 27,60.55 22.43,60.55 18.42,58.88 16.17,56.38 Z M 37.5,58.58 L 37.48,58.6 C 38.28,57.97 38.99,57.24 39.59,56.42 L 41.85,56.38 43.49,55.09 41.96,55.09 41.98,55.04 C 42.29,54.14 42.49,53.2 42.55,52.25 L 42.54,52.34 C 43.24,53.51 44.66,54.01 45.94,53.55 45.57,53.65 43.97,53.89 42.52,50.85 L 42.52,50.87 42.52,50.91 C 42.43,49.57 41.84,48.32 40.88,47.39 L 40.84,47.34 C 41.95,49.42 42.18,51.86 41.49,54.11 L 41.49,54.13 C 41.27,54.4 40.95,54.55 40.61,54.55 L 40.61,54.56 C 40.97,53.66 41.16,52.69 41.16,51.72 41.16,46.15 34.81,41.58 27,41.58 19.19,41.58 12.84,46.15 12.84,51.77 L 12.84,51.72 C 12.84,52.69 13.03,53.66 13.39,54.56 L 13.39,54.55 C 13.05,54.55 12.73,54.4 12.51,54.13 L 12.51,54.11 C 11.82,51.86 12.05,49.42 13.16,47.34 L 13.12,47.39 C 12.16,48.32 11.57,49.57 11.48,50.91 L 11.48,50.85 C 10.03,53.89 8.42,53.65 8.03,53.54 L 8.01,53.53 C 9.28,54.02 10.72,53.54 11.44,52.39 L 11.46,52.43 C 11.55,53.38 11.75,54.32 12.08,55.22 L 10.51,55.09 12.15,56.38 14.39,56.38 14.41,56.41 C 15.01,57.24 15.72,57.98 16.53,58.6 16.44,58.61 12.34,60.98 9.19,58.94 9.19,58.94 10.12,60.84 13.14,60.72 L 13.12,60.73 C 13.16,60.72 13.2,60.72 13.24,60.72 13.27,60.72 13.29,60.72 13.31,60.71 16.78,60.38 18.4,61.85 18.4,61.85 L 18.4,61.84 C 18,60.9 17.13,60.24 16.12,60.1 16.45,59.97 16.81,59.83 17.19,59.66 L 17.2,59.66 17.18,59.65 C 18.19,59.85 19.09,60.41 19.71,61.24 L 24.91,61.85 24.87,61.83 24.84,61.83 C 26.27,62 27.72,62 29.16,61.83 L 29.08,61.85 34.27,61.26 34.28,61.24 C 34.9,60.42 35.81,59.85 36.82,59.65 37.16,59.83 37.53,59.97 37.87,60.1 L 37.86,60.1 C 36.84,60.24 35.98,60.9 35.58,61.85 35.58,61.85 37.2,60.38 40.66,60.71 40.69,60.72 40.71,60.72 40.73,60.72 40.78,60.72 40.81,60.72 40.85,60.73 L 40.84,60.72 C 43.86,60.84 44.79,58.94 44.79,58.94 41.69,60.95 37.69,58.7 37.5,58.58 Z M 37.5,58.58" />
    </g>
</svg>
