<?xml version="1.0" encoding="UTF-8"?>
<!DOCTYPE svg PUBLIC "-//W3C//DTD SVG 1.1//EN" "http://www.w3.org/Graphics/SVG/1.1/DTD/svg11.dtd">
<svg version="1.1" xmlns="http://www.w3.org/2000/svg" xmlns:xlink="http://www.w3.org/1999/xlink" width="70" height="80"  xml:space="preserve" id="attrBlock3">
    <!-- Generated by PaintCode - http://www.paintcodeapp.com -->
    <path id="attrBlock3-bezier" stroke="none" fill="rgb(255, 255, 255)" d="M 1,25.31 C 1,25.31 3.86,39.71 2.92,52.83 2.92,52.83 -1.08,56.83 3.24,63.31 L 2.88,70.32 65.34,70.32 64.98,63.31 C 69.3,56.83 65.3,52.83 65.3,52.83 64.36,39.71 67.22,25.31 67.22,25.31 L 65.38,23.95 65.49,23.61 C 66.01,22.01 66.45,20.39 66.8,18.75 L 65.57,4.02 C 61.92,5.52 59.56,-0 59.56,-0 L 8.66,-0 C 8.66,-0 6.31,5.52 2.65,4.02 L 1.44,18.8 1.43,18.76 C 1.78,20.4 2.21,22.02 2.73,23.62 L 1,25.31 Z M 1,25.31" transform="translate(0.97, 0.89)"  />
    <ellipse id="attrBlock3-oval" stroke="none" fill="rgb(255, 255, 255)" cx="16.65" cy="10.55" rx="15.65" ry="10.55"  transform="translate(18.4, 55.71)" />
    <path id="attrBlock3-bezier2" stroke="none" fill="rgb(220, 221, 222)" d="M 18.23,24.29 C 27.74,24.29 35.45,18.85 35.45,12.15 35.45,5.44 27.74,-0 18.23,-0 8.71,-0 1,5.44 1,12.15 1,18.85 8.71,24.29 18.23,24.29 Z M 18.23,21.09 C 10.62,21.09 4.2,17 4.2,12.15 4.2,7.3 10.62,3.2 18.23,3.2 25.83,3.2 32.25,7.3 32.25,12.15 32.25,16.99 25.83,21.09 18.23,21.09 Z M 18.23,21.09" transform="translate(16.85, 54.11)"  />
    <path id="attrBlock3-bezier3" stroke="none" fill="rgb(0, 0, 0)" d="M 4.55,41.31 L 4.55,41.38 C 4.63,36.43 4.42,31.49 3.9,26.57 L 3.87,25.69 C 3.52,26.01 3.16,26.32 2.77,26.59 3.49,29.36 4.09,36.55 4.55,41.31 Z M 4.55,70.52 L 10.58,70.52 10.51,70.47 C 8.74,69.33 6.76,68.55 4.68,68.18 4.67,69.16 4.6,69.96 4.55,70.52 Z M 4.84,67.01 L 4.86,67.01 C 5.37,67.08 5.88,67.17 6.37,67.31 5.89,66.84 5.4,66.32 4.92,65.76 4.9,66.2 4.87,66.62 4.84,67.01 Z M 21.3,74.72 L 21.28,74.7 C 20.36,73.93 19.54,73.04 18.85,72.05 L 17.44,72.17 C 18.16,73.19 19.57,74.79 21.3,74.72 Z M 18.75,66.26 L 18.75,66.19 C 18.75,67.69 19.16,69.16 19.93,70.45 L 19.96,70.49 C 20.12,70.76 20.29,71.02 20.48,71.27 20.51,71.32 20.53,71.35 20.55,71.38 20.76,71.65 20.98,71.91 21.21,72.17 24.09,75.36 29.22,77.5 35.07,77.5 40.93,77.5 46.06,75.36 48.94,72.17 49.17,71.91 49.39,71.65 49.6,71.38 49.62,71.35 49.64,71.32 49.66,71.29 49.84,71.04 50.02,70.78 50.18,70.52 L 50.14,70.57 C 50.94,69.3 51.37,67.83 51.4,66.33 51.4,60.06 44.08,55.02 35.07,55.02 26.07,55.02 18.75,60.06 18.75,66.26 Z M 51.22,72.17 L 51.15,72.26 C 50.45,73.23 49.62,74.1 48.68,74.86 50.57,74.77 51.96,73.19 52.68,72.17 L 51.22,72.17 Z M 59.57,70.52 L 65.6,70.52 C 65.55,69.96 65.48,69.16 65.4,68.19 L 65.47,68.18 C 63.39,68.55 61.41,69.33 59.64,70.47 M 63.8,67.3 L 63.78,67.31 C 64.28,67.17 64.78,67.08 65.28,67.01 65.28,66.62 65.25,66.2 65.23,65.76 64.75,66.32 64.26,66.84 63.8,67.3 Z M 65.6,41.31 C 66.06,36.55 66.66,29.36 67.41,26.62 L 67.38,26.59 C 66.99,26.32 66.63,26.01 66.28,25.69 L 66.25,26.57 C 65.73,31.48 65.52,36.42 65.6,41.35 M 2.95,66.84 L 2.95,66.85 C 3.02,66.85 3.1,66.85 3.18,66.86 3.25,65.92 3.31,64.86 3.38,63.7 L 3.35,63.66 C 2.37,62.2 1.74,60.52 1.53,58.78 L 1.53,58.81 C 1.33,56.59 2.09,54.38 3.62,52.74 3.7,52.34 3.69,52.01 3.69,51.68 3.69,51.68 2.53,30.01 1.46,26.55 L 1.33,26.1 1.72,25.86 1.76,25.83 C 2.43,25.38 3.05,24.86 3.59,24.27 L 3.6,24.27 C 4.16,23.74 4.6,23.1 4.89,22.38 L 4.9,22.38 C 5.33,21.49 5.44,20.49 5.22,19.53 5.19,19.49 4.75,18.43 4.29,17.08 L 4.08,19.48 C 4.3,20.15 4.5,20.86 4.68,21.58 L 4.67,21.6 C 4.37,22.27 3.91,22.85 3.34,23.3 L 3.36,23.31 C 3.15,22.2 2.87,21.1 2.52,20.03 L 2.4,19.69 3.44,8.1 3.44,8.1 C 3.64,9.97 4.03,11.81 4.61,13.59 L 4.61,13.59 C 5.02,15.53 5.62,17.43 6.39,19.26 L 6.37,19.22 C 6.74,20.95 6.32,22.76 5.23,24.15 6.62,31.95 5.27,59.76 5.09,63 L 5.11,63.02 C 4.48,62.12 3.97,61.16 3.58,60.14 3.61,58.39 3.66,56.57 3.68,54.68 L 3.67,54.71 C 2.93,55.88 2.6,57.26 2.72,58.64 L 2.72,58.63 C 2.92,60.25 3.51,61.81 4.45,63.15 4.53,63.26 4.57,63.32 4.61,63.38 4.74,63.56 4.86,63.74 4.99,63.92 5.02,63.96 5.04,63.98 5.04,63.98 L 5.04,63.98 5.15,64.12 C 6.58,65.95 8.25,67.57 10.13,68.93 L 9.8,68.71 C 10.8,69.24 11.77,69.82 12.7,70.45 L 12.82,70.52 13.03,70.67 C 13.7,71.12 14.34,71.59 14.96,72.06 L 15.12,72.17 7.69,72.17 C 7.59,72.84 7.59,74.8 11,75.52 11,75.52 11.48,77.22 16.53,78.41 21.58,79.59 17.57,73.38 16.03,72.17 L 16.05,72.16 13.97,70.52 15.92,70.52 15.9,70.46 C 15.5,69.3 15.25,68.09 15.17,66.86 L 15.19,67 C 14.29,68.49 12.47,69.14 10.83,68.54 11.3,68.67 13.36,68.97 15.21,65.09 L 15.22,65.11 15.21,65.16 C 15.33,63.45 16.08,61.84 17.31,60.65 L 17.36,60.59 C 15.94,63.26 15.64,66.37 16.52,69.26 L 16.53,69.29 C 16.81,69.63 17.22,69.83 17.65,69.83 L 17.65,69.81 C 17.19,68.67 16.95,67.44 16.95,66.21 16.95,59.07 25.08,53.21 35.08,53.21 45.07,53.21 53.2,59.07 53.2,66.26 L 53.2,66.2 C 53.2,67.44 52.96,68.67 52.5,69.82 L 52.49,69.83 C 52.93,69.83 53.35,69.63 53.62,69.29 L 53.63,69.26 C 54.51,66.38 54.21,63.26 52.79,60.59 L 52.84,60.65 C 54.07,61.84 54.82,63.45 54.94,65.16 L 54.94,65.09 C 56.79,68.97 58.85,68.67 59.36,68.53 L 59.38,68.52 C 57.75,69.14 55.91,68.53 54.99,67.05 L 54.96,67.12 C 54.85,68.34 54.59,69.53 54.17,70.68 L 56.18,70.52 54.09,72.17 C 52.55,73.38 48.54,79.59 53.59,78.41 58.63,77.22 59.12,75.52 59.12,75.52 62.53,74.8 62.53,72.84 62.43,72.17 L 55.04,72.17 55.19,72.06 C 55.81,71.59 56.45,71.12 57.12,70.67 L 57.33,70.52 57.34,70.52 57.46,70.44 C 58.39,69.81 59.35,69.24 60.33,68.71 L 60.36,68.68 C 62.22,67.28 63.86,65.64 65.26,63.78 L 65.11,63.98 C 65.11,63.98 65.13,63.95 65.16,63.92 65.29,63.74 65.42,63.56 65.54,63.38 65.58,63.32 65.62,63.26 65.67,63.19 L 65.69,63.16 C 66.63,61.81 67.23,60.25 67.43,58.61 L 67.43,58.65 C 67.55,57.27 67.22,55.88 66.48,54.71 66.49,56.57 66.53,58.39 66.6,60.07 L 66.58,60.13 C 66.19,61.15 65.67,62.12 65.04,63.02 64.88,59.76 63.53,31.95 64.92,24.15 L 64.92,24.15 C 63.83,22.76 63.41,20.95 63.78,19.22 L 63.75,19.28 C 64.53,17.44 65.13,15.54 65.55,13.58 L 65.54,13.59 C 66.12,11.81 66.51,9.97 66.71,8.1 L 67.75,19.68 67.69,19.85 67.63,20.03 C 67.28,21.11 67,22.2 66.78,23.31 L 66.81,23.3 C 66.23,22.85 65.78,22.26 65.48,21.6 65.65,20.86 65.85,20.15 66.07,19.48 L 65.85,17.08 C 65.4,18.44 64.96,19.49 64.92,19.58 L 64.91,19.61 C 64.71,20.57 64.84,21.57 65.28,22.44 L 65.26,22.38 C 65.55,23.1 65.99,23.74 66.56,24.27 L 66.56,24.27 C 67.1,24.85 67.71,25.37 68.37,25.82 L 68.82,26.1 68.68,26.55 C 67.62,30.01 66.46,51.68 66.46,51.68 66.46,52.01 66.45,52.34 66.45,52.66 L 66.44,52.64 C 67.99,54.25 68.79,56.44 68.63,58.67 L 68.62,58.78 C 68.41,60.53 67.78,62.2 66.8,63.65 66.84,64.86 66.9,65.92 66.97,66.86 67.05,66.85 67.13,66.85 67.2,66.85 L 67.2,66.84 C 68.45,66.74 69.55,67.44 69.02,68.31 L 69.02,68.3 C 68.71,68.82 68.2,69.18 67.6,69.28 L 67.57,69.29 C 67.82,69.11 68.04,68.87 68.19,68.59 68.35,68.31 68.24,68.19 68.09,68.14 67.98,68.12 67.88,68.1 67.77,68.09 L 67.76,68.09 C 67.53,68.07 67.29,68.07 67.06,68.07 67.21,70.01 67.33,71.19 67.34,71.26 L 67.44,72.17 64.15,72.17 C 62.62,78.01 51.96,79.93 51.96,79.93 L 51.94,79.92 C 50.82,78.9 49.29,78.47 47.8,78.73 L 47.84,78.72 C 48.92,78.07 49.7,77.02 50.01,75.8 L 47.6,76.36 47.64,76.36 C 46.35,76.61 45.19,77.33 44.4,78.38 L 37.74,79.17 37.8,79.14 37.86,79.14 C 36.01,79.36 34.14,79.36 32.29,79.14 L 32.41,79.17 25.77,78.41 25.75,78.39 C 24.96,77.33 23.79,76.6 22.49,76.35 L 22.52,76.36 20.11,75.79 20.12,75.8 C 20.42,77.02 21.2,78.07 22.27,78.72 L 22.32,78.73 C 20.83,78.47 19.3,78.9 18.18,79.92 18.16,79.93 7.5,78.01 5.97,72.17 L 2.72,72.17 2.81,71.25 C 2.82,71.19 2.94,70.01 3.09,68.07 2.85,68.07 2.62,68.07 2.38,68.09 L 2.38,68.09 C 2.27,68.1 2.16,68.12 2.06,68.14 1.91,68.19 1.8,68.31 1.94,68.56 L 1.94,68.56 C 2.1,68.85 2.31,69.1 2.58,69.29 L 2.58,69.29 C 1.99,69.19 1.46,68.84 1.14,68.33 0.6,67.44 1.7,66.74 2.95,66.84 Z M 4.8,11.46 L 4.76,11.35 C 4.16,9.39 3.77,7.37 3.59,5.32 L 3.62,4.91 4.15,4.74 C 5.38,4.36 8.91,2.82 8.91,0.82 L 8.91,-0 61.24,-0 61.24,0.82 C 61.24,2.82 64.77,4.36 66,4.74 L 66.53,4.91 66.56,5.27 66.56,5.32 C 66.38,7.36 65.99,9.38 65.39,11.35 L 64.98,6.14 C 63.62,5.64 60.3,4.18 59.68,1.65 L 10.47,1.65 C 9.85,4.18 6.53,5.64 5.17,6.14 L 4.8,11.46 Z M 4.8,11.46" transform="translate(0.01, -0)"  />
</svg>
