<?xml version="1.0" encoding="UTF-8"?>
<!DOCTYPE svg PUBLIC "-//W3C//DTD SVG 1.1//EN" "http://www.w3.org/Graphics/SVG/1.1/DTD/svg11.dtd">
<svg version="1.1" xmlns="http://www.w3.org/2000/svg" xmlns:xlink="http://www.w3.org/1999/xlink" width="54" height="63"  xml:space="preserve" id="attrBlock5">
    <!-- Generated by PaintCode - http://www.paintcodeapp.com -->
    <g id="attrBlock5-attrBlock5">
        <path id="attrBlock5-bezier" stroke="none" fill="rgb(255, 255, 255)" d="M 1.13,20.47 L 1,19.76 C 2.36,26.76 2.92,33.9 2.67,41.03 2.63,41.97 -0.49,45.1 2.88,50.16 L 2.6,55.63 51.4,55.63 51.12,50.16 C 54.49,45.1 51.37,41.97 51.37,41.97 L 51.4,42.67 C 51.03,35.54 51.46,28.4 52.7,21.38 L 51.43,19.41 51.52,19.14 C 51.92,17.9 52.26,16.63 52.53,15.35 L 51.58,3.84 C 48.72,5.01 46.88,0.7 46.88,0.7 L 7.12,0.7 C 7.12,0.7 5.28,5.01 2.42,3.84 L 1.47,15.38 1.47,15.36 C 1.74,16.64 2.08,17.9 2.48,19.15 L 1.13,20.47 Z M 1.13,20.47" />
        <ellipse id="attrBlock5-oval" stroke="none" fill="rgb(255, 255, 255)" cx="26.97" cy="51.77" rx="12.2" ry="8.25" />
        <path id="attrBlock5-bezier2" stroke="none" fill="rgb(214, 215, 215)" d="M 27,61.26 C 34.43,61.26 40.46,57.01 40.46,51.77 40.46,46.53 34.43,42.28 27,42.28 19.57,42.28 13.54,46.53 13.54,51.77 13.54,57.01 19.57,61.26 27,61.26 Z M 27,58.76 C 21.06,58.76 16.04,55.56 16.04,51.77 16.04,47.98 21.06,44.78 27,44.78 32.94,44.78 37.96,47.98 37.96,51.77 37.96,55.56 32.94,58.76 27,58.76 Z M 27,58.76" />
        <path id="attrBlock5-bezier3" stroke="none" fill="rgb(0, 0, 0)" d="M 51.42,20.11 L 51.39,20.09 C 51.66,20.33 51.93,20.56 52.22,20.77 51.67,22.94 51.2,28.55 50.85,32.27 L 50.85,32.3 C 50.78,28.45 50.95,24.6 51.35,20.77 M 46.14,55.09 L 46.19,55.06 C 47.57,54.16 49.12,53.56 50.73,53.27 50.75,54.04 50.81,54.66 50.85,55.09 L 46.14,55.09 Z M 50.55,51.38 C 50.58,51.72 50.6,52.05 50.62,52.36 L 50.69,52.35 C 50.27,52.39 49.86,52.47 49.46,52.58 49.8,52.22 50.18,51.82 50.55,51.38 Z M 49.43,15 L 49.42,15.02 C 49.14,16.37 49.46,17.78 50.31,18.87 49.23,24.96 50.28,46.69 50.42,49.22 L 50.42,49.22 C 50.91,48.52 51.3,47.78 51.61,46.99 51.58,45.62 51.54,44.2 51.52,42.72 L 51.54,42.74 C 52.11,43.66 52.37,44.74 52.28,45.82 L 52.28,45.8 C 52.12,47.07 51.65,48.29 50.92,49.34 50.86,49.42 50.83,49.47 50.8,49.52 50.7,49.66 50.6,49.8 50.5,49.94 50.48,49.97 50.47,49.98 50.47,49.98 L 50.47,49.98 50.38,50.1 C 49.26,51.53 47.95,52.79 46.48,53.86 L 46.75,53.68 C 45.96,54.1 45.2,54.55 44.46,55.05 L 44.39,55.09 44.22,55.21 C 43.7,55.57 43.2,55.93 42.71,56.3 L 42.59,56.38 42.6,56.38 C 42.6,56.38 41.44,57.21 42.21,58.09 42.21,58.09 41.98,57.15 43.91,56.38 L 52.28,56.38 52.2,55.67 C 52.2,55.62 52.1,54.7 51.99,53.18 52.17,53.18 52.36,53.18 52.54,53.2 L 52.54,53.2 C 52.63,53.21 52.71,53.22 52.79,53.23 52.91,53.28 52.99,53.37 52.88,53.57 L 52.88,53.56 C 52.76,53.79 52.59,53.98 52.39,54.13 L 52.39,54.13 C 52.86,54.05 53.27,53.78 53.52,53.37 53.93,52.69 53.08,52.14 52.1,52.22 L 52.1,52.23 C 52.04,52.23 51.98,52.23 51.92,52.23 51.87,51.5 51.81,50.67 51.76,49.76 L 51.79,49.73 C 52.55,48.59 53.04,47.29 53.21,45.92 L 53.21,45.95 C 53.36,44.21 52.77,42.49 51.57,41.21 51.51,40.89 51.52,40.63 51.52,40.37 51.52,40.37 52.42,23.45 53.26,20.74 L 53.37,20.39 53.06,20.2 53.03,20.18 C 52.5,19.83 52.02,19.42 51.59,18.96 L 51.59,18.96 C 51.15,18.55 50.8,18.05 50.58,17.49 L 50.57,17.48 C 50.24,16.79 50.15,16.01 50.32,15.26 50.35,15.22 50.69,14.4 51.05,13.35 L 51.22,15.22 C 51.04,15.74 50.89,16.29 50.75,16.86 L 50.76,16.88 C 50.99,17.4 51.34,17.85 51.79,18.2 L 51.78,18.18 C 51.94,17.33 52.16,16.49 52.43,15.66 L 52.53,15.38 51.71,6.33 51.71,6.34 C 51.56,7.8 51.25,9.24 50.8,10.63 L 50.81,10.61 C 50.48,12.14 50.01,13.63 49.4,15.07" />
        <path id="attrBlock5-bezier4" stroke="none" fill="rgb(0, 0, 0)" d="M 3.63,4.8 C 4.7,4.41 7.29,3.27 7.77,1.29 L 46.23,1.29 C 46.71,3.27 49.3,4.41 50.37,4.8 L 50.65,8.95 50.68,8.87 C 51.15,7.34 51.46,5.76 51.6,4.16 L 51.58,3.84 51.16,3.71 C 50.2,3.41 47.44,2.2 47.44,0.65 L 47.44,-0 6.56,-0 6.56,0.65 C 6.56,2.2 3.8,3.41 2.84,3.71 L 2.42,3.84 2.4,4.12 2.4,4.16 C 2.54,5.76 2.85,7.34 3.32,8.87 L 3.63,4.8 Z M 3.63,4.8" />
        <path id="attrBlock5-bezier5" stroke="none" fill="rgb(0, 0, 0)" d="M 1.73,20.8 L 1.76,20.78 C 2.06,20.56 2.35,20.32 2.63,20.07 L 2.64,20.75 C 3.05,24.59 3.22,28.46 3.15,32.32 2.79,28.55 2.32,22.94 1.73,20.8 Z M 3.31,53.28 L 3.26,53.27 C 4.88,53.55 6.43,54.16 7.81,55.06 L 3.15,55.09 C 3.19,54.66 3.25,54.04 3.31,53.28 Z M 3.44,51.38 C 3.82,51.82 4.2,52.22 4.56,52.58 L 4.55,52.58 C 4.14,52.47 3.72,52.39 3.29,52.35 3.4,52.05 3.42,51.72 3.44,51.38 Z M 0.48,53.37 L 0.48,53.36 C 0.72,53.77 1.14,54.06 1.61,54.13 L 1.6,54.13 C 1.4,53.98 1.24,53.79 1.12,53.57 1.01,53.37 1.09,53.28 1.21,53.23 1.29,53.22 1.37,53.2 1.46,53.2 L 1.46,53.2 C 1.64,53.18 1.83,53.18 2.01,53.18 1.89,54.7 1.8,55.62 1.79,55.67 L 1.72,56.38 10.09,56.38 C 12.01,57.15 11.79,58.09 11.79,58.09 12.56,57.21 11.4,56.38 11.4,56.38 L 11.41,56.38 11.29,56.3 C 10.8,55.93 10.3,55.56 9.78,55.21 L 9.61,55.09 9.6,55.09 9.56,55.06 C 8.81,54.56 8.04,54.1 7.25,53.68 L 7.25,53.66 C 5.8,52.57 4.51,51.28 3.41,49.83 L 3.53,49.98 C 3.53,49.98 3.52,49.97 3.5,49.94 3.4,49.8 3.3,49.66 3.2,49.52 3.17,49.47 3.14,49.42 3.1,49.37 L 3.08,49.34 C 2.34,48.29 1.88,47.07 1.72,45.79 L 1.72,45.82 C 1.63,44.74 1.89,43.66 2.46,42.74 2.46,44.19 2.42,45.62 2.37,46.93 L 2.39,46.99 C 2.7,47.78 3.09,48.53 3.58,49.22 3.71,46.69 4.77,24.96 3.68,18.87 L 3.69,18.87 C 4.54,17.78 4.86,16.37 4.58,15.02 L 4.6,15.07 C 3.99,13.63 3.52,12.14 3.19,10.61 L 3.19,10.62 C 2.74,9.23 2.44,7.8 2.29,6.34 L 1.47,15.38 1.52,15.51 1.56,15.65 C 1.84,16.49 2.06,17.34 2.22,18.2 L 2.2,18.2 C 2.66,17.85 3.01,17.39 3.25,16.87 3.11,16.29 2.96,15.74 2.78,15.22 L 2.95,13.35 C 3.31,14.4 3.65,15.22 3.68,15.29 L 3.69,15.32 C 3.85,16.07 3.75,16.85 3.4,17.53 L 3.42,17.49 C 3.19,18.05 2.85,18.55 2.41,18.96 L 2.4,18.97 C 1.97,19.43 1.49,19.83 0.97,20.19 L 0.63,20.39 0.74,20.74 C 1.57,23.44 2.48,40.37 2.48,40.37 2.48,40.63 2.49,40.89 2.49,41.14 L 2.5,41.13 C 1.28,42.39 0.66,44.1 0.78,45.84 L 0.79,45.92 C 0.96,47.29 1.44,48.59 2.21,49.73 2.19,50.67 2.13,51.5 2.08,52.23 2.02,52.23 1.96,52.22 1.9,52.22 L 1.9,52.22 C 0.92,52.14 0.07,52.69 0.48,53.37 Z M 0.48,53.37" />
        <path id="attrBlock5-bezier6" stroke="none" fill="rgb(0, 0, 0)" d="M 40.52,57.99 L 40.56,58.01 C 40.07,57.74 39.61,57.42 39.18,57.06 L 39.12,57.01 C 39.29,56.81 39.46,56.6 39.61,56.38 L 41.03,56.38 41.03,56.38 C 40.68,56.84 40.5,57.41 40.52,57.98 M 13.48,57.99 L 13.48,57.98 C 13.5,57.41 13.32,56.84 12.97,56.38 L 14.39,56.38 C 14.54,56.6 14.71,56.81 14.88,57.01 L 14.86,57.02 14.81,57.06 C 14.39,57.42 13.93,57.74 13.44,58.01 M 27,42.98 C 34.03,42.98 39.75,46.92 39.75,51.77 L 39.75,51.71 C 39.75,52.88 39.44,54.03 38.83,55.04 L 38.81,55.07 C 38.68,55.29 38.54,55.5 38.39,55.7 38.38,55.72 38.36,55.74 38.34,55.76 38.18,55.97 38.01,56.18 37.83,56.38 L 37.8,56.41 C 36.91,57.37 35.86,58.16 34.7,58.75 34.64,58.79 34.59,58.81 34.54,58.83 34.17,59.03 33.77,59.21 33.36,59.37 33.32,59.39 33.29,59.4 33.25,59.41 32.8,59.59 32.34,59.75 31.86,59.89 31.83,59.89 31.8,59.9 31.77,59.91 31.35,60.03 30.92,60.12 30.47,60.21 30.34,60.24 30.2,60.26 30.06,60.28 29.7,60.35 29.34,60.4 28.97,60.44 28.82,60.45 28.68,60.47 28.53,60.48 28.03,60.53 27.52,60.55 27,60.55 26.48,60.55 25.97,60.53 25.47,60.48 25.32,60.47 25.18,60.45 25.03,60.44 24.66,60.4 24.3,60.35 23.94,60.28 23.8,60.26 23.66,60.24 23.53,60.21 23.08,60.12 22.65,60.03 22.23,59.91 22.2,59.9 22.17,59.89 22.14,59.89 21.66,59.75 21.19,59.59 20.74,59.41 20.71,59.4 20.67,59.39 20.64,59.37 20.23,59.21 19.84,59.03 19.45,58.83 19.41,58.81 19.36,58.79 19.31,58.76 L 19.31,58.76 C 18.14,58.16 17.09,57.37 16.19,56.41 15.99,56.18 15.82,55.97 15.66,55.76 15.64,55.74 15.62,55.72 15.61,55.7 15.46,55.5 15.33,55.3 15.2,55.09 L 15.23,55.13 C 14.61,54.14 14.27,53 14.25,51.83 14.25,46.92 19.97,42.98 27,42.98 Z M 41.57,58.51 C 41.51,58.45 40.55,57.63 41.85,56.38 L 43.48,55.09 41.96,55.09 41.98,55.04 C 42.29,54.14 42.49,53.19 42.55,52.24 L 42.53,52.34 C 43.23,53.51 44.66,54.01 45.94,53.55 45.58,53.65 43.97,53.88 42.52,50.85 L 42.51,50.87 42.52,50.91 C 42.42,49.57 41.84,48.32 40.87,47.39 L 40.84,47.34 C 41.95,49.42 42.18,51.86 41.49,54.11 L 41.49,54.13 C 41.27,54.4 40.95,54.55 40.61,54.55 L 40.61,54.54 C 40.98,53.65 41.16,52.69 41.16,51.73 41.16,46.15 34.81,41.58 27,41.58 19.19,41.58 12.84,46.15 12.84,51.77 L 12.84,51.73 C 12.84,52.7 13.03,53.66 13.39,54.56 L 13.39,54.55 C 13.05,54.55 12.73,54.4 12.51,54.14 L 12.51,54.11 C 11.82,51.86 12.05,49.42 13.16,47.34 L 13.12,47.39 C 12.16,48.32 11.57,49.57 11.48,50.91 L 11.48,50.85 C 10.03,53.88 8.43,53.65 8.03,53.54 L 8.01,53.53 C 9.28,54.02 10.72,53.54 11.44,52.38 L 11.46,52.44 C 11.55,53.39 11.75,54.32 12.08,55.22 L 10.51,55.09 12.15,56.38 C 13.45,57.63 12.49,58.45 12.43,58.51 L 12.38,58.53 C 10.36,59.43 8.06,59.41 6.06,58.48 L 6.13,58.5 C 6.73,59.36 7.59,60 8.58,60.34 L 8.61,60.35 C 9.72,59.92 10.91,59.74 12.1,59.8 12.17,59.8 14.2,57.22 16.11,58.28 16.21,58.36 16.32,58.44 16.42,58.52 16.44,58.54 16.47,58.56 16.5,58.58 12.55,59.12 12.84,61.85 12.84,61.85 13.24,60.65 14.82,60.78 14.82,60.78 15.17,59.46 17.19,59.66 17.21,59.66 L 17.22,59.66 C 17.42,59.71 17.62,59.77 17.81,59.84 17.91,59.88 17.97,59.92 18.03,59.94 L 18.06,59.96 C 18.24,60.03 18.41,60.11 18.57,60.2 L 18.51,60.16 C 18.64,60.25 18.77,60.33 18.89,60.43 L 18.88,60.42 C 18.98,60.48 19.08,60.55 19.17,60.63 L 19.17,60.62 C 19.38,60.8 19.56,61.01 19.72,61.24 L 24.92,61.85 24.87,61.83 24.88,61.83 C 25.2,61.87 25.52,61.9 25.85,61.92 26.23,61.94 26.61,61.96 27,61.96 27.39,61.96 27.77,61.94 28.15,61.92 28.48,61.9 28.8,61.87 29.11,61.83 L 29.12,61.83 29.08,61.85 34.27,61.26 34.28,61.24 C 34.9,60.42 35.81,59.85 36.82,59.65 36.78,59.66 38.82,59.45 39.18,60.78 39.18,60.78 40.76,60.65 41.16,61.85 41.16,61.85 41.45,59.12 37.5,58.58 37.53,58.56 37.55,58.54 37.58,58.52 37.68,58.44 37.79,58.36 37.89,58.28 39.8,57.22 41.83,59.8 41.83,59.8 L 41.9,59.8 C 43.09,59.74 44.28,59.92 45.39,60.35 L 45.42,60.34 C 46.41,60 47.26,59.36 47.87,58.5 L 47.82,58.53 C 45.8,59.43 43.5,59.41 41.5,58.48" />
    </g>
</svg>
