<?xml version="1.0" encoding="UTF-8"?>
<!DOCTYPE svg PUBLIC "-//W3C//DTD SVG 1.1//EN" "http://www.w3.org/Graphics/SVG/1.1/DTD/svg11.dtd">
<svg version="1.1" xmlns="http://www.w3.org/2000/svg" xmlns:xlink="http://www.w3.org/1999/xlink" width="54" height="63"  xml:space="preserve" id="attrBlock1">
    <!-- Generated by PaintCode - http://www.paintcodeapp.com -->
    <g id="attrBlock1-group">
        <path id="attrBlock1-bezier" stroke="none" fill="rgb(255, 255, 255)" d="M 1.13,20.47 L 1,19.76 C 2.36,26.76 2.92,33.89 2.67,41.02 2.63,41.97 -0.49,45.1 2.88,50.16 L 2.6,55.63 51.4,55.63 51.12,50.16 C 54.49,45.1 51.37,41.97 51.37,41.97 L 51.4,42.67 C 51.03,35.54 51.46,28.4 52.7,21.37 L 51.43,19.41 51.52,19.14 C 51.92,17.89 52.26,16.63 52.54,15.34 L 51.58,3.83 C 48.72,5.01 46.88,0.7 46.88,0.7 L 7.12,0.7 C 7.12,0.7 5.28,5.01 2.42,3.83 L 1.47,15.38 1.47,15.35 C 1.74,16.64 2.08,17.9 2.48,19.15 L 1.13,20.47 Z M 1.13,20.47" />
        <ellipse id="attrBlock1-oval" stroke="none" fill="rgb(255, 255, 255)" cx="26.97" cy="51.77" rx="12.2" ry="8.25" />
        <path id="attrBlock1-bezier2" stroke="none" fill="rgb(220, 221, 222)" d="M 27,61.25 C 34.43,61.25 40.46,57.01 40.46,51.77 40.46,46.53 34.43,42.28 27,42.28 19.57,42.28 13.54,46.53 13.54,51.77 13.54,57.01 19.57,61.25 27,61.25 Z M 27,58.75 C 21.06,58.75 16.04,55.55 16.04,51.77 16.04,47.98 21.06,44.78 27,44.78 32.94,44.78 37.96,47.98 37.96,51.77 37.96,55.55 32.94,58.75 27,58.75 Z M 27,58.75" />
        <path id="attrBlock1-bezier3" stroke="none" fill="rgb(0, 0, 0)" d="M 3.15,32.27 L 3.15,32.32 C 3.22,28.46 3.05,24.6 2.65,20.77 L 2.63,20.06 C 2.35,20.32 2.06,20.56 1.76,20.78 2.32,22.94 2.8,28.55 3.15,32.27 Z M 3.15,55.09 L 7.86,55.09 7.82,55.06 C 6.43,54.16 4.88,53.55 3.26,53.27 3.25,54.04 3.19,54.66 3.15,55.09 Z M 3.38,52.35 L 3.43,52.36 C 3.81,52.41 4.19,52.48 4.56,52.58 4.2,52.22 3.82,51.82 3.45,51.38 3.42,51.72 3.4,52.05 3.38,52.35 Z M 13.53,59.37 L 13.57,59.37 C 12.46,59.33 11.34,59.46 10.27,59.74 12.01,60.51 14.3,61.2 14.99,60.81 L 14.99,60.81 C 15.01,60.8 15.03,60.79 15.04,60.78 14.77,60.5 14.24,60 13.53,59.37 Z M 27,60.55 C 31.57,60.55 35.58,58.88 37.83,56.38 38.01,56.18 38.18,55.97 38.34,55.76 38.36,55.74 38.38,55.72 38.39,55.69 38.54,55.5 38.67,55.3 38.8,55.09 L 38.77,55.13 C 39.39,54.14 39.73,52.99 39.75,51.82 39.75,46.92 34.03,42.98 27,42.98 19.97,42.98 14.25,46.92 14.25,51.77 L 14.25,51.71 C 14.25,52.88 14.56,54.03 15.17,55.03 L 15.19,55.08 C 15.32,55.29 15.47,55.5 15.62,55.71 15.62,55.72 15.64,55.74 15.66,55.76 15.82,55.97 15.99,56.18 16.17,56.38 18.42,58.88 22.43,60.55 27,60.55 Z M 38.96,60.77 L 38.96,60.77 C 38.97,60.79 38.99,60.8 39.01,60.81 39.7,61.2 41.99,60.51 43.81,59.77 L 43.74,59.74 C 42.66,59.46 41.55,59.33 40.43,59.37 39.76,60 39.23,60.5 38.96,60.77 Z M 46.14,55.09 L 50.85,55.09 C 50.81,54.66 50.75,54.04 50.69,53.28 L 50.74,53.27 C 49.12,53.55 47.57,54.16 46.19,55.06 M 49.44,52.58 L 49.45,52.58 C 49.82,52.48 50.19,52.41 50.57,52.36 50.6,52.05 50.58,51.72 50.55,51.38 50.18,51.82 49.8,52.22 49.44,52.58 Z M 50.85,32.27 C 51.2,28.55 51.68,22.94 52.27,20.8 L 52.23,20.77 C 51.93,20.56 51.65,20.32 51.38,20.07 L 51.35,20.77 C 50.95,24.6 50.78,28.45 50.85,32.29 M 1.9,52.22 L 1.9,52.22 C 1.96,52.22 2.02,52.23 2.08,52.23 2.13,51.5 2.19,50.67 2.24,49.76 L 2.21,49.72 C 1.42,48.54 0.92,47.19 0.77,45.78 L 0.78,45.84 C 0.66,44.1 1.29,42.38 2.5,41.13 2.49,40.89 2.48,40.63 2.48,40.37 2.48,40.37 1.57,23.44 0.74,20.74 L 0.63,20.39 0.94,20.2 0.97,20.18 C 1.49,19.83 1.97,19.42 2.4,18.97 L 2.41,18.96 C 2.85,18.55 3.19,18.05 3.42,17.49 L 3.42,17.48 C 3.76,16.79 3.85,16 3.68,15.26 3.65,15.22 3.31,14.4 2.95,13.35 L 2.78,15.22 C 2.96,15.74 3.11,16.29 3.25,16.86 L 3.24,16.88 C 3.01,17.4 2.66,17.85 2.21,18.2 L 2.22,18.19 C 2.06,17.33 1.84,16.49 1.57,15.66 L 1.47,15.38 2.28,6.33 2.28,6.33 C 2.44,7.79 2.74,9.23 3.2,10.63 L 3.2,10.63 C 3.52,12.14 3.99,13.62 4.59,15.04 L 4.58,15.02 C 4.86,16.37 4.54,17.78 3.69,18.87 4.77,24.96 3.71,46.69 3.58,49.22 L 3.58,49.22 C 3.09,48.52 2.7,47.78 2.39,46.99 2.42,45.62 2.46,44.19 2.48,42.72 L 2.46,42.74 C 1.89,43.66 1.63,44.74 1.72,45.82 L 1.72,45.8 C 1.88,47.07 2.34,48.29 3.08,49.34 3.14,49.42 3.17,49.47 3.2,49.51 3.3,49.66 3.4,49.8 3.5,49.93 L 3.53,49.98 3.53,49.98 3.63,50.1 C 4.74,51.52 6.04,52.78 7.5,53.85 L 7.25,53.67 C 8.03,54.09 8.8,54.55 9.53,55.04 L 9.61,55.09 9.78,55.21 C 10.3,55.56 10.8,55.93 11.29,56.3 L 11.41,56.38 11.4,56.38 C 12.33,57.09 13.18,57.8 13.88,58.42 14.8,58.43 15.7,58.49 16.49,58.57 L 16.52,58.6 C 15.72,57.97 15.01,57.24 14.42,56.42 L 12.15,56.38 10.51,55.09 12.04,55.09 12.02,55.04 C 11.71,54.13 11.51,53.19 11.45,52.24 L 11.47,52.34 C 10.76,53.51 9.34,54.01 8.06,53.55 8.42,53.65 10.03,53.88 11.48,50.85 L 11.48,50.87 11.48,50.91 C 11.58,49.57 12.16,48.32 13.12,47.39 L 13.16,47.34 C 12.05,49.42 11.82,51.86 12.51,54.11 L 12.51,54.13 C 12.73,54.4 13.05,54.55 13.39,54.55 L 13.39,54.54 C 13.02,53.65 12.84,52.69 12.84,51.73 12.84,46.14 19.19,41.57 27,41.57 34.81,41.57 41.16,46.14 41.16,51.77 L 41.16,51.73 C 41.16,52.69 40.98,53.65 40.61,54.55 L 40.61,54.55 C 40.95,54.55 41.27,54.4 41.49,54.13 L 41.5,54.11 C 42.18,51.86 41.95,49.42 40.84,47.34 L 40.88,47.39 C 41.84,48.31 42.43,49.57 42.52,50.9 L 42.52,50.85 C 43.97,53.88 45.58,53.65 45.97,53.54 L 45.99,53.53 C 44.72,54.02 43.28,53.54 42.56,52.38 L 42.54,52.44 C 42.45,53.38 42.25,54.32 41.92,55.21 L 43.49,55.09 41.85,56.38 39.61,56.38 39.59,56.41 C 38.99,57.24 38.28,57.97 37.47,58.6 38.3,58.49 39.2,58.43 40.12,58.42 40.82,57.8 41.67,57.09 42.6,56.38 L 42.59,56.38 42.71,56.3 C 43.2,55.93 43.7,55.56 44.22,55.21 L 44.39,55.09 44.4,55.09 44.47,55.04 C 45.21,54.55 45.96,54.09 46.75,53.68 L 46.76,53.65 C 48.21,52.56 49.49,51.28 50.58,49.83 L 50.47,49.98 C 50.47,49.98 50.48,49.97 50.5,49.94 50.6,49.8 50.7,49.66 50.8,49.52 50.83,49.47 50.87,49.42 50.9,49.37 L 50.92,49.34 C 51.66,48.29 52.12,47.07 52.28,45.8 L 52.28,45.81 C 52.37,44.74 52.11,43.66 51.54,42.74 51.54,44.19 51.58,45.62 51.63,46.93 L 51.61,46.99 C 51.3,47.78 50.91,48.52 50.42,49.22 50.29,46.69 49.23,24.96 50.32,18.87 L 50.32,18.87 C 49.46,17.78 49.14,16.37 49.43,15.02 L 49.4,15.07 C 50.01,13.63 50.48,12.14 50.81,10.61 L 50.8,10.62 C 51.26,9.23 51.56,7.8 51.71,6.35 L 52.53,15.38 52.48,15.51 52.43,15.66 C 52.16,16.49 51.95,17.33 51.78,18.19 L 51.79,18.2 C 51.34,17.85 50.99,17.39 50.76,16.88 50.89,16.29 51.04,15.74 51.22,15.22 L 51.05,13.35 C 50.69,14.4 50.35,15.22 50.32,15.29 L 50.31,15.32 C 50.15,16.07 50.25,16.85 50.6,17.53 L 50.58,17.48 C 50.81,18.04 51.15,18.55 51.6,18.96 L 51.6,18.97 C 52.03,19.42 52.51,19.83 53.02,20.18 L 53.37,20.39 53.26,20.74 C 52.43,23.44 51.52,40.37 51.52,40.37 51.52,40.63 51.51,40.89 51.51,41.14 L 51.5,41.13 C 52.71,42.38 53.34,44.1 53.22,45.84 L 53.21,45.92 C 53.04,47.28 52.55,48.59 51.79,49.73 51.81,50.67 51.87,51.5 51.92,52.23 51.98,52.23 52.04,52.22 52.1,52.22 L 52.1,52.22 C 53.08,52.14 53.93,52.68 53.52,53.37 L 53.52,53.36 C 53.27,53.77 52.86,54.05 52.39,54.13 L 52.39,54.13 C 52.6,53.98 52.77,53.79 52.88,53.56 52.99,53.37 52.91,53.28 52.79,53.23 52.71,53.22 52.63,53.2 52.54,53.2 L 52.54,53.2 C 52.36,53.18 52.17,53.18 51.99,53.18 52.11,54.7 52.2,55.62 52.21,55.67 L 52.28,56.38 44.18,56.38 C 43.22,57.07 42.32,57.79 41.53,58.45 L 41.57,58.45 C 43.22,58.42 44.84,58.91 46.19,59.86 L 44.35,60.56 44.35,60.56 44.5,60.49 C 43.37,61 42.19,61.39 40.97,61.67 L 40.85,61.71 C 40.78,61.72 40.71,61.73 40.64,61.74 40.58,61.75 40.53,61.77 40.48,61.77 34.13,62.87 33.46,62.27 33.46,62.27 L 33.51,62.27 C 35.15,62.24 36.72,61.6 37.92,60.49 L 38.07,60.33 C 38.14,60.26 38.48,59.92 39.03,59.41 38.62,59.43 38.23,59.46 37.84,59.49 L 37.84,59.49 C 37.74,59.5 37.65,59.51 37.55,59.52 L 37.54,59.52 C 37.27,59.55 37,59.6 36.74,59.67 36.6,59.71 36.4,59.77 36.2,59.84 36.17,59.85 36.14,59.86 36.11,59.88 L 36.08,59.89 C 35.88,59.97 35.67,60.06 35.48,60.17 35.46,60.18 35.44,60.19 35.41,60.21 L 35.39,60.22 C 35.22,60.33 35.05,60.45 34.89,60.58 34.86,60.61 34.81,60.65 34.76,60.69 L 34.76,60.7 C 34.57,60.86 34.41,61.05 34.27,61.26 L 29.08,61.85 29.13,61.83 29.14,61.83 C 27.72,62 26.28,62 24.86,61.83 L 24.92,61.85 19.73,61.25 19.74,61.27 C 19.6,61.06 19.43,60.87 19.25,60.7 19.18,60.64 19.13,60.6 19.08,60.56 L 19.07,60.55 C 18.91,60.42 18.74,60.3 18.57,60.2 18.54,60.18 18.53,60.17 18.51,60.16 L 18.53,60.17 C 18.33,60.06 18.12,59.96 17.9,59.88 17.84,59.86 17.8,59.84 17.77,59.83 17.57,59.76 17.37,59.7 17.2,59.66 L 17.22,59.66 C 16.96,59.6 16.69,59.55 16.42,59.51 16.35,59.51 16.26,59.5 16.16,59.49 L 16.16,59.49 C 15.77,59.46 15.38,59.43 14.97,59.41 15.52,59.92 15.86,60.26 15.93,60.33 L 16.08,60.48 16.08,60.49 C 17.28,61.6 18.85,62.24 20.49,62.27 20.53,62.27 19.87,62.87 13.53,61.77 13.47,61.77 13.42,61.75 13.36,61.74 13.29,61.73 13.22,61.72 13.15,61.71 L 13.17,61.7 13.02,61.67 C 11.82,61.39 10.64,61 9.51,60.49 L 9.65,60.56 7.84,59.84 7.81,59.86 C 9.17,58.91 10.78,58.42 12.43,58.45 11.68,57.79 10.78,57.07 9.82,56.38 L 1.72,56.38 1.79,55.67 C 1.8,55.62 1.9,54.7 2.01,53.18 1.83,53.18 1.64,53.18 1.46,53.2 L 1.46,53.2 C 1.37,53.2 1.29,53.22 1.21,53.23 1.09,53.28 1.01,53.37 1.12,53.56 L 1.11,53.56 C 1.23,53.79 1.4,53.98 1.61,54.13 L 1.61,54.13 C 1.14,54.05 0.73,53.77 0.48,53.36 0.07,52.68 0.92,52.14 1.9,52.22 Z M 3.35,8.95 L 3.32,8.87 C 2.85,7.34 2.54,5.76 2.4,4.16 L 2.42,3.83 2.84,3.71 C 3.8,3.41 6.56,2.2 6.56,0.64 L 6.56,0 47.44,0 47.44,0.64 C 47.44,2.2 50.2,3.41 51.16,3.71 L 51.58,3.84 51.6,4.11 51.6,4.16 C 51.46,5.76 51.15,7.34 50.68,8.87 L 50.37,4.8 C 49.3,4.41 46.71,3.27 46.23,1.29 L 7.77,1.29 C 7.29,3.27 4.7,4.41 3.63,4.8 L 3.35,8.95 Z M 3.35,8.95" />
    </g>
</svg>
