<?xml version="1.0" encoding="UTF-8"?>
<!DOCTYPE svg PUBLIC "-//W3C//DTD SVG 1.1//EN" "http://www.w3.org/Graphics/SVG/1.1/DTD/svg11.dtd">
<svg version="1.1" xmlns="http://www.w3.org/2000/svg" xmlns:xlink="http://www.w3.org/1999/xlink" width="70" height="80"  xml:space="preserve" id="attrBlock4">
    <!-- Generated by PaintCode - http://www.paintcodeapp.com -->
    <path id="attrBlock4-bezier" stroke="none" fill="rgb(255, 255, 255)" d="M 1,25.31 C 1,25.31 3.86,39.71 2.92,52.83 2.92,52.83 -1.08,56.83 3.24,63.31 L 2.88,70.32 65.34,70.32 64.98,63.31 C 69.3,56.83 65.3,52.83 65.3,52.83 64.36,39.71 67.22,25.31 67.22,25.31 L 65.38,23.95 65.49,23.61 C 66.01,22.01 66.45,20.39 66.79,18.75 L 65.57,4.02 C 61.92,5.52 59.56,-0 59.56,-0 L 8.66,-0 C 8.66,-0 6.31,5.52 2.65,4.02 L 1.44,18.8 1.43,18.77 C 1.78,20.41 2.21,22.03 2.73,23.62 L 1,25.31 Z M 1,25.31" transform="translate(0.97, 0.89)"  />
    <ellipse id="attrBlock4-oval" stroke="none" fill="rgb(255, 255, 255)" cx="16.65" cy="10.55" rx="15.65" ry="10.55"  transform="translate(18.4, 55.71)" />
    <path id="attrBlock4-bezier2" stroke="none" fill="rgb(220, 221, 222)" d="M 18.23,24.29 C 27.74,24.29 35.45,18.85 35.45,12.15 35.45,5.44 27.74,-0 18.23,-0 8.71,-0 1,5.44 1,12.15 1,18.85 8.71,24.29 18.23,24.29 Z M 18.23,21.09 C 10.62,21.09 4.2,16.99 4.2,12.15 4.2,7.3 10.62,3.2 18.23,3.2 25.83,3.2 32.25,7.3 32.25,12.15 32.25,16.99 25.83,21.09 18.23,21.09 Z M 18.23,21.09" transform="translate(16.85, 54.11)"  />
    <path id="attrBlock4-bezier3" stroke="none" fill="rgb(0, 0, 0)" d="M 2.74,26.62 L 2.78,26.59 C 3.16,26.32 3.53,26.02 3.87,25.69 L 3.91,26.55 C 4.42,31.47 4.64,36.41 4.55,41.36 4.1,36.55 3.5,29.36 2.74,26.62 Z M 4.75,68.19 L 4.7,68.18 C 6.77,68.55 8.76,69.33 10.53,70.48 L 4.55,70.52 C 4.6,69.96 4.68,69.17 4.75,68.19 Z M 4.93,65.77 C 5.41,66.33 5.9,66.85 6.36,67.3 L 6.34,67.3 C 5.82,67.16 5.28,67.06 4.74,67 4.87,66.62 4.9,66.2 4.93,65.77 Z M 1.14,68.31 L 1.13,68.3 C 1.44,68.82 1.96,69.18 2.55,69.28 L 2.59,69.29 C 2.32,69.1 2.1,68.85 1.95,68.56 1.81,68.31 1.92,68.2 2.07,68.14 2.17,68.12 2.28,68.1 2.39,68.09 L 2.39,68.09 C 2.62,68.07 2.86,68.07 3.1,68.07 2.95,70.01 2.83,71.19 2.82,71.25 L 2.72,72.17 8.9,72.17 C 10.76,72.94 14.5,74.87 13.66,77.6 L 13.66,77.6 C 14.05,77.05 14.56,76.6 15.15,76.29 L 15.21,76.32 C 14.12,74.65 12.67,73.25 10.97,72.22 L 13.42,72.17 13.41,72.17 C 14.46,72.37 15.39,72.96 16.04,73.81 L 16.04,73.83 C 15.95,73.18 15.61,72.58 15.08,72.17 L 15.12,72.17 14.97,72.06 C 14.35,71.59 13.71,71.12 13.04,70.67 L 12.83,70.52 12.81,70.52 12.74,70.47 C 11.8,69.83 10.83,69.25 9.83,68.72 L 9.79,68.68 C 7.94,67.28 6.29,65.64 4.9,63.79 L 5.05,63.98 C 5.05,63.98 5.03,63.96 5,63.92 4.87,63.74 4.74,63.56 4.62,63.38 4.58,63.32 4.53,63.26 4.49,63.19 L 4.47,63.15 C 3.52,61.81 2.92,60.25 2.72,58.62 L 2.73,58.65 C 2.61,57.27 2.94,55.89 3.67,54.71 3.67,56.57 3.62,58.39 3.56,60.07 L 3.59,60.15 C 3.97,61.16 4.48,62.11 5.1,62.99 5.28,59.77 6.63,31.95 5.24,24.15 L 5.24,24.15 C 6.33,22.76 6.75,20.95 6.38,19.22 L 6.41,19.28 C 5.63,17.44 5.03,15.54 4.61,13.59 L 4.61,13.6 C 4.03,11.81 3.64,9.98 3.45,8.12 L 2.41,19.69 2.47,19.86 2.53,20.05 C 2.87,21.11 3.15,22.19 3.36,23.27 L 3.35,23.3 C 3.92,22.85 4.38,22.26 4.68,21.6 4.5,20.85 4.31,20.15 4.08,19.48 L 4.3,17.08 C 4.75,18.44 5.2,19.49 5.24,19.58 L 5.25,19.61 C 5.45,20.57 5.32,21.57 4.87,22.44 L 4.9,22.38 C 4.61,23.1 4.16,23.75 3.6,24.28 L 3.59,24.28 C 3.05,24.86 2.45,25.37 1.79,25.82 L 1.33,26.1 1.47,26.55 C 2.54,30.01 3.7,51.68 3.7,51.68 3.7,52.01 3.7,52.34 3.7,52.66 L 3.72,52.64 C 2.17,54.25 1.37,56.45 1.52,58.68 L 1.53,58.78 C 1.76,60.59 2.42,62.31 3.46,63.81 3.32,64.86 3.25,65.92 3.19,66.86 3.11,66.85 3.03,66.85 2.95,66.85 L 2.95,66.84 C 1.7,66.74 0.61,67.44 1.14,68.31 Z M 4.8,11.46 L 4.77,11.35 C 4.17,9.39 3.78,7.37 3.6,5.32 L 3.62,4.91 4.15,4.75 C 5.39,4.36 8.92,2.82 8.92,0.83 L 8.92,-0 61.24,-0 61.24,0.83 C 61.24,2.82 64.77,4.36 66.01,4.75 L 66.54,4.91 66.57,5.27 66.56,5.33 C 66.39,7.37 65.99,9.38 65.4,11.34 L 64.99,6.14 C 63.62,5.64 60.31,4.18 59.69,1.65 L 10.47,1.65 C 9.86,4.18 6.54,5.64 5.17,6.14 L 4.8,11.46 Z M 66.35,25.75 L 66.3,25.7 C 66.64,26.02 67,26.32 67.37,26.59 66.67,29.36 66.06,36.55 65.61,41.31 L 65.61,41.36 C 65.52,36.42 65.74,31.48 66.26,26.57 M 59.58,70.52 L 59.64,70.48 C 61.41,69.33 63.39,68.55 65.47,68.18 65.49,69.17 65.56,69.96 65.61,70.52 L 59.58,70.52 Z M 65.23,65.77 C 65.26,66.2 65.29,66.62 65.32,67.01 L 65.24,67.02 C 64.7,67.09 64.17,67.2 63.65,67.35 64.27,66.85 64.75,66.33 65.23,65.77 Z M 63.79,19.2 L 63.79,19.22 C 63.42,20.95 63.83,22.76 64.93,24.15 63.54,31.95 64.89,59.77 65.06,63 L 65.06,63.01 C 65.68,62.12 66.19,61.16 66.58,60.14 66.54,58.39 66.5,56.57 66.47,54.68 L 66.49,54.71 C 67.23,55.89 67.56,57.27 67.44,58.65 L 67.44,58.62 C 67.24,60.25 66.64,61.81 65.7,63.15 65.63,63.26 65.59,63.32 65.55,63.38 65.42,63.56 65.29,63.74 65.16,63.92 65.14,63.96 65.12,63.98 65.12,63.98 L 65.12,63.98 65,64.13 C 63.58,65.95 61.9,67.57 60.03,68.93 L 60.36,68.7 C 59.35,69.24 58.37,69.83 57.42,70.47 L 57.34,70.52 57.12,70.67 C 56.46,71.12 55.81,71.59 55.19,72.06 L 55.04,72.17 55.05,72.17 55.05,72.17 C 54.54,72.57 54.2,73.15 54.1,73.79 L 54.1,73.81 C 54.74,72.96 55.68,72.37 56.73,72.17 L 59.26,72.17 59.17,72.22 C 57.46,73.25 56.01,74.65 54.93,76.32 L 54.98,76.29 C 55.58,76.6 56.09,77.05 56.47,77.6 55.9,75.72 57.49,74.23 59.14,73.22 L 59.22,73.19 C 60.67,72.54 62.23,72.2 63.81,72.17 L 67.44,72.17 67.34,71.25 C 67.34,71.19 67.22,70.02 67.07,68.07 67.3,68.07 67.54,68.07 67.77,68.09 L 67.78,68.09 C 67.89,68.1 67.99,68.12 68.1,68.14 68.24,68.2 68.35,68.31 68.21,68.56 L 68.21,68.56 C 68.06,68.85 67.84,69.1 67.58,69.29 L 67.57,69.29 C 68.17,69.19 68.69,68.85 69.01,68.34 69.56,67.44 68.46,66.74 67.21,66.84 L 67.21,66.85 C 67.14,66.85 67.05,66.85 66.98,66.86 66.91,65.92 66.84,64.86 66.78,63.7 L 66.81,63.65 C 67.79,62.19 68.42,60.52 68.63,58.78 L 68.63,58.81 C 68.82,56.58 68.07,54.38 66.54,52.75 66.46,52.34 66.46,52.01 66.47,51.68 66.47,51.68 67.63,30.01 68.69,26.55 L 68.83,26.1 68.43,25.86 68.38,25.82 C 67.72,25.38 67.11,24.86 66.57,24.27 L 66.56,24.27 C 66,23.75 65.55,23.1 65.26,22.38 L 65.26,22.38 C 64.83,21.49 64.71,20.49 64.93,19.53 64.96,19.49 65.41,18.44 65.86,17.08 L 66.08,19.48 C 65.85,20.15 65.66,20.85 65.48,21.58 L 65.49,21.61 C 65.79,22.27 66.24,22.85 66.81,23.3 L 66.79,23.32 C 67,22.21 67.29,21.11 67.64,20.03 L 67.76,19.69 66.72,8.1 66.71,8.11 C 66.52,9.98 66.13,11.81 65.55,13.59 L 65.55,13.61 C 65.14,15.54 64.54,17.42 63.77,19.24 M 21.22,72.17 L 21.22,72.17 C 20.99,71.91 20.77,71.65 20.56,71.38 20.54,71.35 20.52,71.32 20.5,71.29 L 20.49,71.28 C 20.31,71.04 20.14,70.79 19.99,70.53 L 20.01,70.57 C 19.22,69.3 18.78,67.83 18.76,66.34 18.76,60.06 26.08,55.02 35.08,55.02 44.08,55.02 51.41,60.06 51.41,66.26 L 51.41,66.19 C 51.41,67.69 51,69.17 50.23,70.45 50.03,70.78 49.85,71.04 49.66,71.29 49.64,71.32 49.62,71.35 49.6,71.38 49.4,71.65 49.18,71.91 48.95,72.17 46.06,75.37 40.93,77.51 35.08,77.51 29.23,77.51 24.1,75.37 21.22,72.17 Z M 51.22,72.17 L 53.13,72.17 53.11,72.19 C 52.25,72.88 51.63,73.82 51.33,74.87 L 51.3,74.83 C 51.79,74.93 52.27,75.09 52.72,75.32 52.01,73.59 54.09,72.17 54.09,72.17 L 56.18,70.52 54.24,70.52 54.26,70.45 C 54.66,69.29 54.91,68.08 54.99,66.86 L 54.97,67 C 55.86,68.49 57.69,69.14 59.32,68.54 58.86,68.67 56.8,68.97 54.95,65.09 L 54.94,65.11 54.94,65.16 C 54.82,63.45 54.08,61.84 52.84,60.65 L 52.8,60.59 C 54.22,63.26 54.52,66.38 53.64,69.26 L 53.63,69.29 C 53.35,69.63 52.94,69.83 52.5,69.83 L 52.51,69.81 C 52.97,68.67 53.21,67.44 53.21,66.21 53.21,59.07 45.08,53.22 35.08,53.22 25.09,53.22 16.96,59.07 16.96,66.26 L 16.95,66.2 C 16.95,67.45 17.19,68.68 17.66,69.83 L 17.66,69.83 C 17.22,69.83 16.81,69.63 16.54,69.29 L 16.53,69.26 C 15.65,66.38 15.95,63.26 17.36,60.6 L 17.32,60.66 C 16.09,61.85 15.34,63.45 15.22,65.16 L 15.22,65.09 C 13.36,68.97 11.31,68.67 10.8,68.53 L 10.78,68.52 C 12.4,69.14 14.24,68.53 15.17,67.05 L 15.19,67.11 C 15.3,68.33 15.57,69.53 15.98,70.67 L 13.98,70.52 16.05,72.16 16.04,72.17 C 16.04,72.17 18.12,73.6 17.37,75.35 L 17.33,75.37 C 17.78,75.13 18.25,74.96 18.74,74.85 L 18.8,74.87 C 18.5,73.81 17.88,72.88 17.02,72.19 L 18.94,72.17 18.97,72.22 C 19.74,73.26 20.64,74.2 21.66,75 L 21.62,74.92 C 18.83,75.11 16.18,76.21 14.07,78.05 18.42,76.85 20.37,78.05 20.37,78.05 L 20.37,78.06 C 20.21,77.44 19.7,76.97 19.08,76.85 19.17,75.45 22.53,76.37 22.53,76.37 L 22.53,76.36 22.51,76.35 C 23.8,76.61 24.96,77.33 25.76,78.39 L 32.41,79.17 32.36,79.14 32.32,79.14 C 34.15,79.36 36.01,79.36 37.85,79.14 L 37.75,79.17 44.39,78.41 44.41,78.38 C 45.2,77.33 46.35,76.61 47.65,76.36 47.61,76.37 50.96,75.45 51.06,76.85 L 51.06,76.85 C 50.43,76.97 49.92,77.44 49.76,78.06 49.76,78.05 51.71,76.85 56.07,78.05 L 56.06,78.04 C 53.95,76.21 51.31,75.11 48.52,74.92 L 48.69,74.85 C 49.7,74.03 50.59,73.08 51.33,72.02" transform=""  />
</svg>
