<svg xmlns="http://www.w3.org/2000/svg" viewBox="0 0 53.25 62.43"><defs><style>.cls-1{fill:#dedfdf;}</style></defs><title>Asset 1</title><g id="Layer_2" data-name="Layer 2"><g id="Layer_1-2" data-name="Layer 1"><path class="cls-1" d="M26.63,61.25c7.43,0,13.46-4.25,13.46-9.49s-6-9.49-13.46-9.49-13.46,4.25-13.46,9.49,6,9.49,13.46,9.49m0-2.5c-5.94,0-11-3.2-11-7s5-7,11-7,11,3.2,11,7-5,7-11,7"/><path d="M2.78,32.27A94.65,94.65,0,0,0,2.2,20.11a9.25,9.25,0,0,1-.84.68C2,22.94,2.42,28.55,2.78,32.27m0,22.82H7.49a12.3,12.3,0,0,0-4.55-1.82c-.06.76-.12,1.38-.16,1.82M3,52.35a8.27,8.27,0,0,1,1.19.23c-.36-.36-.74-.76-1.12-1.2,0,.34,0,.67-.07,1m10.15,7a11.25,11.25,0,0,0-3.34.4c1.82.75,4.11,1.43,4.8,1l0,0c-.28-.27-.81-.78-1.51-1.41m13.47,1.18c4.57,0,8.58-1.67,10.83-4.17.18-.2.35-.41.51-.62l0-.07c.14-.2.28-.4.4-.6a6.45,6.45,0,0,0,1-3.33c0-4.84-5.72-8.79-12.75-8.79s-12.75,3.94-12.75,8.79a6.45,6.45,0,0,0,1,3.33,7.24,7.24,0,0,0,.41.6l0,.07c.16.21.33.42.51.62,2.25,2.5,6.26,4.17,10.83,4.17m12,.22,0,0c.69.39,3-.29,4.8-1a11.25,11.25,0,0,0-3.34-.4c-.71.63-1.24,1.14-1.51,1.41m7.18-5.68h4.71c0-.43-.1-1.05-.16-1.82a12.29,12.29,0,0,0-4.55,1.82m3.3-2.51a8.24,8.24,0,0,1,1.18-.23c0-.3,0-.64-.07-1-.37.44-.75.84-1.12,1.2m1.41-20.31c.35-3.72.83-9.34,1.42-11.48a9.1,9.1,0,0,1-.84-.68,94.46,94.46,0,0,0-.58,12.16M1.53,52.22h.18c.05-.73.11-1.56.16-2.47A8.67,8.67,0,0,1,.41,45.89a6.17,6.17,0,0,1,1.7-4.75c0-.25,0-.51,0-.77,0,0-.91-16.93-1.74-19.63l-.11-.35.31-.19A8.28,8.28,0,0,0,2,19,4.12,4.12,0,0,0,3,17.5a3.35,3.35,0,0,0,.27-2.21c0-.07-.38-.89-.73-1.95l-.17,1.88c.18.52.33,1.07.47,1.64a3.46,3.46,0,0,1-1,1.33,21.39,21.39,0,0,0-.7-2.68l0-.13.81-9.05a21,21,0,0,0,.91,4.29A24.15,24.15,0,0,0,4.2,15a4.68,4.68,0,0,1-.89,3.87c1.08,6.09,0,27.82-.11,30.35A10.36,10.36,0,0,1,2,46.93c.05-1.32.09-2.74.1-4.21a5,5,0,0,0-.75,3.09,7.85,7.85,0,0,0,1.38,3.56l.1.15.3.42,0,0h0A19.36,19.36,0,0,0,6.94,53.7a25.47,25.47,0,0,1,2.29,1.39h0l.17.12c.52.35,1,.72,1.51,1.09l.12.08h0c.93.71,1.78,1.42,2.49,2,.91,0,1.81.07,2.6.15A10.88,10.88,0,0,1,14,56.38H11.77l-1.63-1.29h1.52a11,11,0,0,1-.58-2.74,2.84,2.84,0,0,1-3.42,1.18c.39.11,2,.35,3.45-2.69v0a5.42,5.42,0,0,1,1.66-3.5,8.89,8.89,0,0,0-.63,6.76,1.14,1.14,0,0,0,.88.42,7.51,7.51,0,0,1-.55-2.78c0-5.62,6.35-10.19,14.16-10.19s14.16,4.57,14.16,10.19a7.53,7.53,0,0,1-.55,2.78,1.13,1.13,0,0,0,.88-.42,8.89,8.89,0,0,0-.63-6.76,5.42,5.42,0,0,1,1.66,3.5v0c1.45,3,3.06,2.8,3.45,2.69a2.84,2.84,0,0,1-3.43-1.18,10.87,10.87,0,0,1-.58,2.74h1.52l-1.63,1.29H39.24a10.93,10.93,0,0,1-2.1,2.19c.79-.07,1.69-.14,2.6-.15.7-.62,1.55-1.33,2.49-2h0l.12-.08c.49-.37,1-.73,1.51-1.09l.17-.12h0a25.33,25.33,0,0,1,2.29-1.39A19.4,19.4,0,0,0,50.09,50h0l0,0,.3-.42.1-.15a7.85,7.85,0,0,0,1.38-3.56,5,5,0,0,0-.75-3.09c0,1.47.05,2.9.1,4.21A10.36,10.36,0,0,1,50,49.22c-.14-2.53-1.19-24.25-.11-30.35A4.68,4.68,0,0,1,49.05,15a24.41,24.41,0,0,0,1.38-4.38,20.92,20.92,0,0,0,.91-4.29l.81,9.05,0,.13a21.39,21.39,0,0,0-.7,2.68,3.47,3.47,0,0,1-1-1.33c.14-.57.29-1.12.47-1.64l-.17-1.88c-.35,1.06-.7,1.88-.73,1.95a3.34,3.34,0,0,0,.27,2.21,4.14,4.14,0,0,0,1,1.47,8.26,8.26,0,0,0,1.45,1.23l.31.19-.11.35c-.83,2.71-1.74,19.63-1.74,19.63,0,.26,0,.52,0,.77a6.17,6.17,0,0,1,1.7,4.75,8.69,8.69,0,0,1-1.45,3.87c0,.91.1,1.74.15,2.47h.18c1-.08,1.83.46,1.42,1.15a1.62,1.62,0,0,1-1.13.76,1.67,1.67,0,0,0,.49-.56c.11-.2,0-.29-.09-.33l-.25,0h0l-.55,0c.12,1.52.21,2.44.22,2.49l.08.71h-8.1c-1,.69-1.87,1.41-2.65,2.07a7.82,7.82,0,0,1,4.63,1.39L44,60.56h0a19.4,19.4,0,0,1-3.51,1.15h0l-.22,0-.16,0c-6.35,1.1-7,.49-7,.49a6.63,6.63,0,0,0,4.45-1.78l.16-.16c.07-.06.41-.41,1-.92l-1.18.08h0l-.29,0a5.9,5.9,0,0,0-.78.15c-.18,0-.37.1-.57.18l-.09,0a4.79,4.79,0,0,0-.63.29l-.07,0a3.89,3.89,0,0,0-.5.35l-.15.13a3.08,3.08,0,0,0-.49.56l-5.19.59,0,0a17.57,17.57,0,0,1-4.25,0l0,0-5.19-.59a3.07,3.07,0,0,0-.5-.57l-.15-.13a4.36,4.36,0,0,0-.52-.37l-.06,0a5,5,0,0,0-.63-.29l-.12,0c-.2-.07-.39-.13-.57-.17a6.63,6.63,0,0,0-.75-.14l-.29,0h0l-1.18-.08c.55.51.89.86,1,.92l.16.16a6.63,6.63,0,0,0,4.45,1.78s-.66.6-7-.49l-.16,0-.22,0h0a19.34,19.34,0,0,1-3.51-1.15h0l-1.81-.72a7.81,7.81,0,0,1,4.63-1.39c-.78-.66-1.69-1.38-2.65-2.07H1.34l.08-.71c0-.05.1-1,.22-2.49l-.55,0h0l-.25,0c-.11,0-.2.14-.09.33a1.67,1.67,0,0,0,.49.56,1.62,1.62,0,0,1-1.12-.76c-.42-.68.44-1.23,1.42-1.15M3,9A23,23,0,0,1,2,4.11l0-.28.41-.13c1-.3,3.73-1.51,3.73-3.06V0H47.07V.64c0,1.56,2.76,2.76,3.72,3.06l.41.13,0,.28A23,23,0,0,1,50.28,9L50,4.8c-1.07-.39-3.66-1.53-4.14-3.51H7.4c-.48,2-3.07,3.12-4.14,3.51Z"/></g></g></svg>