<?xml version="1.0" encoding="UTF-8"?>
<!DOCTYPE svg PUBLIC "-//W3C//DTD SVG 1.1//EN" "http://www.w3.org/Graphics/SVG/1.1/DTD/svg11.dtd">
<svg version="1.1" xmlns="http://www.w3.org/2000/svg" xmlns:xlink="http://www.w3.org/1999/xlink" width="70" height="80"  xml:space="preserve" id="attrBlock5">
    <!-- Generated by PaintCode - http://www.paintcodeapp.com -->
    <path id="attrBlock5-bezier" stroke="none" fill="rgb(255, 255, 255)" d="M 1,25.31 C 1,25.31 3.86,39.71 2.92,52.83 2.92,52.83 -1.08,56.83 3.24,63.31 L 2.88,70.32 65.34,70.32 64.98,63.31 C 69.3,56.83 65.3,52.83 65.3,52.83 64.36,39.71 67.22,25.31 67.22,25.31 L 65.38,23.95 65.49,23.61 C 66.01,22.01 66.45,20.39 66.79,18.75 L 65.57,4.02 C 61.92,5.52 59.56,-0 59.56,-0 L 8.66,-0 C 8.66,-0 6.31,5.52 2.65,4.02 L 1.44,18.8 1.43,18.77 C 1.78,20.41 2.21,22.03 2.73,23.62 L 1,25.31 Z M 1,25.31" transform="translate(0.97, 0.89)"  />
    <ellipse id="attrBlock5-oval" stroke="none" fill="rgb(255, 255, 255)" cx="16.65" cy="10.55" rx="15.65" ry="10.55"  transform="translate(18.4, 55.71)" />
    <path id="attrBlock5-bezier2" stroke="none" fill="rgb(220, 221, 222)" d="M 18.23,24.29 C 27.74,24.29 35.45,18.85 35.45,12.15 35.45,5.44 27.74,-0 18.23,-0 8.71,-0 1,5.44 1,12.15 1,18.85 8.71,24.29 18.23,24.29 Z M 18.23,21.09 C 10.62,21.09 4.2,17 4.2,12.15 4.2,7.3 10.62,3.2 18.23,3.2 25.83,3.2 32.25,7.3 32.25,12.15 32.25,16.99 25.83,21.09 18.23,21.09 Z M 18.23,21.09" transform="translate(16.85, 54.12)"  />
    <path id="attrBlock5-bezier3" stroke="none" fill="rgb(0, 0, 0)" d="M 13.14,17.65 L 13.1,17.61 C 13.43,17.92 13.79,18.22 14.16,18.49 13.46,21.26 12.85,28.45 12.4,33.21 L 12.4,33.24 C 12.31,28.31 12.53,23.39 13.04,18.49 M 6.37,62.42 L 6.44,62.38 C 8.2,61.23 10.18,60.45 12.25,60.09 12.28,61.07 12.35,61.86 12.4,62.42 L 6.37,62.42 Z M 12.02,57.67 C 12.05,58.1 12.08,58.52 12.11,58.92 L 12.19,58.91 C 11.66,58.96 11.13,59.06 10.62,59.2 11.06,58.75 11.54,58.23 12.02,57.67 Z M 10.58,11.11 L 10.58,11.12 C 10.21,12.86 10.62,14.66 11.71,16.06 10.33,23.85 11.68,51.67 11.85,54.9 L 11.85,54.9 C 12.47,54.01 12.98,53.05 13.37,52.04 13.33,50.29 13.28,48.47 13.26,46.58 L 13.28,46.61 C 14.02,47.79 14.35,49.17 14.23,50.55 L 14.23,50.52 C 14.03,52.15 13.43,53.71 12.49,55.06 12.42,55.16 12.38,55.22 12.34,55.28 12.21,55.46 12.08,55.64 11.95,55.82 11.93,55.86 11.91,55.88 11.91,55.88 L 11.91,55.88 11.8,56.02 C 10.37,57.85 8.69,59.48 6.81,60.84 L 7.15,60.61 C 6.14,61.14 5.16,61.73 4.22,62.37 L 4.13,62.42 3.91,62.57 C 3.25,63.02 2.6,63.49 1.98,63.96 L 1.83,64.07 1.84,64.07 C 1.84,64.07 0.35,65.13 1.34,66.26 1.34,66.26 1.05,65.06 3.52,64.07 L 14.23,64.07 14.13,63.15 C 14.13,63.09 14.01,61.92 13.86,59.97 14.09,59.97 14.33,59.97 14.56,59.99 L 14.56,59.99 C 14.68,60 14.78,60.02 14.89,60.04 15.03,60.1 15.14,60.21 15,60.47 L 15,60.46 C 14.85,60.75 14.63,61 14.37,61.19 L 14.37,61.19 C 14.97,61.09 15.5,60.73 15.82,60.21 16.35,59.34 15.25,58.64 14,58.75 L 14,58.75 C 13.93,58.75 13.85,58.76 13.77,58.76 13.7,57.82 13.63,56.76 13.57,55.6 L 13.6,55.55 C 14.58,54.09 15.21,52.43 15.42,50.68 L 15.42,50.72 C 15.61,48.49 14.85,46.28 13.33,44.64 13.25,44.24 13.25,43.91 13.26,43.58 13.26,43.58 14.42,21.91 15.48,18.45 L 15.62,18 15.22,17.76 15.19,17.74 C 14.52,17.28 13.9,16.76 13.35,16.17 L 13.35,16.17 C 12.79,15.65 12.34,15 12.05,14.28 L 12.05,14.28 C 11.62,13.39 11.5,12.39 11.73,11.43 11.76,11.39 12.2,10.34 12.65,8.98 L 12.87,11.38 C 12.64,12.05 12.45,12.76 12.27,13.48 L 12.28,13.5 C 12.58,14.17 13.03,14.75 13.61,15.2 L 13.59,15.18 C 13.8,14.09 14.08,13.01 14.43,11.95 L 14.55,11.59 13.51,-0 13.5,0.02 C 13.31,1.88 12.92,3.72 12.34,5.51 L 12.35,5.48 C 11.93,7.44 11.33,9.35 10.54,11.19" transform="translate(53.21, 8.1)"  />
    <path id="attrBlock5-bezier4" stroke="none" fill="rgb(0, 0, 0)" d="M 2.58,6.14 C 3.94,5.64 7.26,4.18 7.88,1.65 L 57.1,1.65 C 57.71,4.18 61.03,5.64 62.4,6.14 L 62.77,11.46 62.8,11.35 C 63.4,9.39 63.79,7.37 63.97,5.33 L 63.94,4.91 63.42,4.75 C 62.18,4.36 58.65,2.82 58.65,0.83 L 58.65,-0 6.32,-0 6.32,0.83 C 6.32,2.82 2.8,4.36 1.56,4.75 L 1.03,4.91 1,5.27 1.01,5.33 C 1.18,7.37 1.58,9.39 2.18,11.35 L 2.58,6.14 Z M 2.58,6.14" transform="translate(2.59, -0)"  />
    <path id="attrBlock5-bezier5" stroke="none" fill="rgb(0, 0, 0)" d="M 2.74,18.5 L 2.77,18.48 C 3.16,18.2 3.53,17.89 3.89,17.56 L 3.91,18.44 C 4.42,23.36 4.64,28.31 4.55,33.25 4.1,28.43 3.5,21.24 2.74,18.5 Z M 4.75,60.07 L 4.7,60.06 C 6.77,60.43 8.75,61.21 10.52,62.36 L 4.55,62.4 C 4.6,61.84 4.68,61.05 4.75,60.07 Z M 4.93,57.65 C 5.41,58.21 5.9,58.72 6.36,59.18 L 6.34,59.18 C 5.82,59.04 5.28,58.94 4.74,58.88 4.87,58.5 4.9,58.08 4.93,57.65 Z M 1.14,60.19 L 1.13,60.19 C 1.45,60.71 1.98,61.07 2.59,61.17 L 2.57,61.16 C 2.32,60.97 2.1,60.73 1.95,60.45 1.81,60.19 1.92,60.08 2.07,60.02 2.17,60 2.28,59.98 2.39,59.97 L 2.39,59.97 C 2.62,59.95 2.86,59.95 3.1,59.95 2.95,61.9 2.83,63.07 2.82,63.13 L 2.72,64.05 13.44,64.05 C 15.9,65.04 15.62,66.24 15.62,66.24 16.6,65.11 15.11,64.05 15.11,64.05 L 15.12,64.05 14.97,63.94 C 14.35,63.47 13.71,63 13.04,62.55 L 12.83,62.4 12.81,62.4 12.76,62.36 C 11.8,61.72 10.82,61.13 9.8,60.59 L 9.8,60.57 C 7.94,59.17 6.29,57.52 4.89,55.66 L 5.05,55.86 C 5.05,55.86 5.03,55.84 5,55.8 4.87,55.62 4.74,55.44 4.62,55.26 4.58,55.2 4.54,55.14 4.49,55.07 L 4.47,55.04 C 3.52,53.69 2.92,52.13 2.72,50.5 L 2.73,50.53 C 2.61,49.15 2.94,47.77 3.67,46.59 3.67,48.45 3.62,50.27 3.56,51.95 L 3.59,52.03 C 3.97,53.03 4.48,53.99 5.1,54.88 5.28,51.65 6.63,23.83 5.24,16.03 L 5.24,16.03 C 6.33,14.64 6.75,12.83 6.38,11.1 L 6.41,11.16 C 5.63,9.33 5.03,7.42 4.61,5.47 L 4.61,5.47 C 4.03,3.69 3.64,1.86 3.45,-0 L 2.41,11.57 2.47,11.73 2.52,11.91 C 2.87,12.98 3.15,14.07 3.37,15.18 L 3.34,15.18 C 3.92,14.73 4.38,14.14 4.68,13.47 4.5,12.74 4.31,12.03 4.08,11.36 L 4.3,8.96 C 4.75,10.32 5.2,11.37 5.24,11.46 L 5.24,11.48 C 5.45,12.45 5.32,13.45 4.87,14.32 L 4.9,14.26 C 4.61,14.98 4.17,15.62 3.61,16.14 L 3.59,16.16 C 3.04,16.74 2.43,17.27 1.77,17.72 L 1.33,17.98 1.47,18.43 C 2.54,21.89 3.7,43.56 3.7,43.56 3.7,43.89 3.7,44.22 3.7,44.54 L 3.72,44.53 C 2.16,46.13 1.37,48.32 1.52,50.55 L 1.53,50.66 C 1.75,52.41 2.37,54.07 3.35,55.53 3.32,56.74 3.25,57.8 3.19,58.74 3.11,58.73 3.03,58.73 2.95,58.73 L 2.95,58.72 C 1.7,58.62 0.61,59.32 1.14,60.19 Z M 1.14,60.19" transform="translate(-0, 8.12)"  />
    <path id="attrBlock5-bezier6" stroke="none" fill="rgb(0, 0, 0)" d="M 45.11,21.01 L 45.16,21.03 C 44.53,20.69 43.94,20.28 43.39,19.82 L 43.32,19.76 C 43.54,19.49 43.75,19.23 43.94,18.95 L 45.75,18.95 45.76,18.95 C 45.31,19.54 45.08,20.26 45.11,21 M 10.49,21.01 L 10.49,21 C 10.52,20.26 10.29,19.54 9.84,18.94 L 11.66,18.95 C 11.86,19.23 12.06,19.49 12.29,19.76 L 12.27,19.77 12.2,19.82 C 11.66,20.28 11.07,20.68 10.45,21.03 M 27.8,1.8 C 36.8,1.8 44.13,6.85 44.13,13.05 L 44.13,12.98 C 44.13,14.47 43.72,15.94 42.95,17.23 L 42.92,17.28 C 42.75,17.55 42.57,17.82 42.38,18.07 42.36,18.1 42.34,18.13 42.32,18.16 42.12,18.43 41.9,18.7 41.67,18.95 L 41.63,18.99 C 40.49,20.22 39.14,21.23 37.65,21.99 37.58,22.03 37.52,22.06 37.46,22.09 36.97,22.34 36.47,22.57 35.94,22.78 35.9,22.8 35.85,22.82 35.81,22.83 35.23,23.06 34.64,23.26 34.02,23.44 33.98,23.45 33.94,23.46 33.91,23.47 33.37,23.62 32.81,23.74 32.25,23.85 32.07,23.89 31.9,23.92 31.72,23.95 31.26,24.03 30.79,24.09 30.32,24.14 30.13,24.16 29.95,24.19 29.76,24.2 29.12,24.26 28.47,24.29 27.8,24.29 27.14,24.29 26.48,24.26 25.84,24.2 25.65,24.19 25.47,24.16 25.28,24.14 24.81,24.09 24.34,24.03 23.88,23.95 23.71,23.92 23.53,23.89 23.35,23.85 22.79,23.74 22.23,23.62 21.69,23.47 21.66,23.46 21.62,23.45 21.58,23.44 20.97,23.26 20.37,23.06 19.79,22.83 19.75,22.82 19.7,22.8 19.66,22.78 19.13,22.57 18.63,22.34 18.14,22.09 18.08,22.06 18.02,22.03 17.96,22 L 17.96,21.99 C 16.46,21.23 15.11,20.22 13.97,18.99 13.7,18.7 13.49,18.43 13.28,18.16 13.26,18.13 13.24,18.1 13.22,18.07 13.03,17.82 12.86,17.57 12.7,17.3 L 12.73,17.35 C 11.94,16.08 11.5,14.62 11.48,13.12 11.48,6.85 18.8,1.8 27.8,1.8 Z M 46.46,21.67 C 46.37,21.6 45.14,20.55 46.81,18.95 L 48.9,17.3 46.96,17.3 46.98,17.24 C 47.38,16.08 47.62,14.87 47.71,13.65 L 47.69,13.78 C 48.58,15.27 50.41,15.92 52.05,15.33 51.58,15.46 49.52,15.76 47.67,11.87 L 47.66,11.89 47.66,11.95 C 47.54,10.24 46.8,8.63 45.56,7.44 L 45.52,7.37 C 46.94,10.04 47.24,13.16 46.35,16.05 L 46.35,16.07 C 46.07,16.41 45.66,16.61 45.22,16.61 L 45.23,16.6 C 45.69,15.45 45.93,14.23 45.93,12.99 45.93,5.85 37.79,-0 27.8,-0 17.81,-0 9.67,5.85 9.67,13.05 L 9.67,12.99 C 9.67,14.23 9.91,15.46 10.38,16.61 L 10.38,16.61 C 9.94,16.61 9.53,16.41 9.26,16.08 L 9.25,16.05 C 8.37,13.16 8.67,10.04 10.08,7.37 L 10.04,7.44 C 8.8,8.63 8.06,10.24 7.94,11.95 L 7.94,11.87 C 6.08,15.76 4.03,15.46 3.52,15.31 L 3.5,15.3 C 5.12,15.93 6.96,15.31 7.88,13.83 L 7.91,13.9 C 8.02,15.12 8.29,16.32 8.7,17.46 L 6.7,17.3 8.79,18.95 C 10.46,20.55 9.23,21.6 9.15,21.67 L 9.08,21.7 C 6.51,22.85 3.56,22.82 1,21.63 L 1.09,21.66 C 1.86,22.76 2.96,23.59 4.22,24.02 4.26,24.03 7.25,22.94 8.81,23.33 8.81,23.33 11.42,20.03 13.87,21.38 13.99,21.49 14.13,21.58 14.26,21.69 14.29,21.71 14.32,21.74 14.36,21.76 9.31,22.46 9.67,25.95 9.67,25.95 10.18,24.42 12.21,24.58 12.21,24.58 12.66,22.89 15.24,23.14 15.27,23.15 L 15.28,23.15 C 15.54,23.22 15.79,23.29 16.04,23.38 16.17,23.43 16.25,23.48 16.33,23.51 L 16.37,23.53 C 16.59,23.62 16.81,23.72 17.02,23.84 L 16.94,23.79 C 17.1,23.9 17.27,24.01 17.42,24.13 L 17.41,24.12 C 17.54,24.2 17.66,24.29 17.78,24.38 L 17.78,24.38 C 18.05,24.61 18.28,24.88 18.48,25.17 L 25.13,25.95 25.08,25.93 25.09,25.93 C 25.5,25.97 25.91,26.02 26.33,26.04 26.81,26.07 27.3,26.09 27.8,26.09 28.3,26.09 28.79,26.07 29.27,26.04 29.69,26.02 30.1,25.97 30.51,25.93 L 30.52,25.93 30.47,25.95 37.11,25.19 37.12,25.17 C 37.92,24.11 39.07,23.39 40.37,23.14 40.32,23.15 42.94,22.88 43.39,24.58 43.39,24.58 45.42,24.42 45.93,25.95 45.93,25.95 46.3,22.46 41.25,21.76 41.28,21.74 41.31,21.71 41.34,21.69 41.47,21.58 41.61,21.49 41.73,21.38 44.19,20.03 46.79,23.33 46.79,23.33 48.35,22.94 51.34,24.03 51.34,24.03 L 51.38,24.02 C 52.64,23.59 53.74,22.76 54.51,21.66 L 54.44,21.7 C 51.87,22.85 48.92,22.82 46.37,21.63" transform="translate(7.28, 53.22)"  />
</svg>
