<?xml version="1.0" encoding="UTF-8"?>
<!DOCTYPE svg PUBLIC "-//W3C//DTD SVG 1.1//EN" "http://www.w3.org/Graphics/SVG/1.1/DTD/svg11.dtd">
<svg version="1.1" xmlns="http://www.w3.org/2000/svg" xmlns:xlink="http://www.w3.org/1999/xlink" width="78" height="580"  xml:space="preserve" id="attrBox">
    <!-- Generated by PaintCode - http://www.paintcodeapp.com -->
    <path id="attrBox-bezier" stroke="none" fill="rgb(220, 221, 222)" d="M 20.47,570.05 L 20.57,569.96 C 21.35,569.21 22.18,568.5 23.05,567.85 19.88,568.9 14.96,570.03 10.41,569.35 L 10.43,569.36 C 11.85,569.82 13.34,570.05 14.83,570.05 L 20.47,570.05 Z M 1.86,554.77 L 0.36,549.18 0.36,561.04 C 0.67,561.53 1.04,562.06 1.47,562.63 L 1.44,562.5 C 0.97,559.84 1.14,557.1 1.93,554.52 M 49.99,574.55 L 48.83,574.55 48.84,574.54 C 43.24,579.58 34.75,579.58 29.16,574.54 L 28,574.55 C 28.35,574.9 28.72,575.23 29.1,575.55 L 29.1,575.55 C 29.17,575.52 29.24,575.51 29.31,575.5 L 29.31,575.5 C 29.71,575.5 30.03,575.83 30.03,576.22 L 30.03,576.24 30.13,576.31 C 35.54,580.1 42.75,580.03 48.08,576.16 L 47.96,576.23 47.96,576.22 C 47.96,575.83 48.29,575.5 48.68,575.5 L 48.69,575.5 C 48.76,575.51 48.83,575.52 48.9,575.55 49.28,575.23 49.64,574.9 49.99,574.55 Z M 77.64,562.73 L 77.64,565.08 77.58,565.15 C 73.29,569.74 67.76,573 61.67,574.52 L 50.86,574.55 50.81,574.6 C 50.41,575.02 50,575.42 49.57,575.8 L 55.92,575.78 55.92,575.82 C 56.23,575.82 56.52,575.79 56.82,575.78 L 67.16,575.78 68.08,574.55 64.03,574.55 63.81,574.62 C 68.89,572.97 73.5,570.14 77.27,566.37 L 77.64,569.24 C 77.64,569.24 72.97,572.02 71.78,574.55 L 69.28,574.55 67.64,576.74 58.31,576.74 C 54.69,577.2 50.13,578.04 47.97,579.53 47.97,579.53 46.44,580.46 46.44,578.94 46.44,578.01 49.95,577.22 52.67,576.74 L 49.18,576.74 49.18,576.74 C 48.94,576.98 48.55,577.01 48.28,576.81 L 48.23,576.84 C 42.69,580.72 35.3,580.72 29.76,576.84 L 29.72,576.8 C 29.6,576.89 29.46,576.94 29.32,576.94 L 29.31,576.94 C 29.12,576.94 28.94,576.87 28.81,576.73 L 25.33,576.74 C 28.05,577.22 31.55,578.01 31.55,578.94 31.55,580.46 30.02,579.53 30.02,579.53 27.86,578.04 23.3,577.2 19.69,576.74 L 10.35,576.74 8.71,574.55 6.21,574.55 C 5.02,572.02 0.36,569.24 0.36,569.24 L 0.36,566 0.31,565.95 C 4.02,569.79 8.58,572.7 13.62,574.43 L 9.91,574.55 10.83,575.78 21.18,575.78 C 21.48,575.79 21.76,575.82 22.07,575.82 L 22.07,575.78 28.41,575.78 28.41,575.78 C 27.97,575.4 27.56,575 27.17,574.58 L 16.44,574.55 16.33,574.52 C 10.23,573 4.7,569.74 0.41,565.14 L 0.36,562.74 C 2.89,566.23 7.66,571.01 14.78,571.01 L 30.68,571.01 30.68,571.02 C 30.85,571.34 31.18,571.54 31.54,571.54 L 31.55,571.54 C 32.11,571.54 32.56,571.09 32.56,570.54 32.56,569.98 32.11,569.53 31.55,569.53 L 31.54,569.53 C 31.18,569.53 30.85,569.74 30.68,570.06 L 21.9,570.05 22.05,569.92 C 31.81,561.13 46.66,561.26 56.27,570.22 L 47.31,570.05 47.31,570.06 C 47.14,569.74 46.81,569.53 46.45,569.53 L 46.44,569.53 C 45.88,569.53 45.43,569.98 45.43,570.54 45.43,571.09 45.88,571.54 46.44,571.54 L 46.45,571.54 C 46.81,571.54 47.14,571.34 47.31,571.02 L 63.21,571.01 C 70.33,571.01 75.1,566.23 77.64,562.73 Z M 76.52,562.63 C 76.95,562.06 77.32,561.53 77.64,561.04 L 77.64,549.17 76.13,554.76 76.15,554.8 C 76.89,557.4 77.01,560.14 76.49,562.79 M 63.21,570.05 L 63.17,570.05 C 64.66,570.05 66.14,569.82 67.56,569.36 63.03,570.03 58.12,568.9 55.14,567.99 L 55.32,568.13 C 56.18,568.8 57,569.53 57.77,570.3 L 63.21,570.05 Z M 63.21,9.76 L 57.52,9.76 57.42,9.86 C 56.64,10.61 55.81,11.32 54.94,11.97 58.11,10.91 63.03,9.79 67.58,10.46 L 67.56,10.46 C 66.14,10 64.65,9.76 63.16,9.76 M 76.14,25.05 L 77.64,30.64 77.64,18.78 C 77.32,18.29 76.96,17.75 76.53,17.19 L 76.55,17.32 C 77.02,19.98 76.85,22.71 76.06,25.3 M 48.89,4.27 L 48.9,4.27 C 48.83,4.29 48.76,4.31 48.69,4.31 L 48.68,4.31 C 48.28,4.31 47.96,3.99 47.96,3.59 47.96,3.59 47.97,3.58 47.97,3.57 L 47.87,3.5 C 42.46,-0.28 35.25,-0.22 29.91,3.66 30.03,3.58 30.03,3.59 30.03,3.59 L 30.03,3.59 C 30.03,3.99 29.71,4.31 29.31,4.31 L 29.31,4.31 C 29.24,4.31 29.17,4.3 29.1,4.27 28.72,4.58 28.35,4.92 28,5.27 L 29.16,5.27 29.15,5.28 C 34.75,0.24 43.24,0.24 48.84,5.28 L 49.99,5.27 C 49.64,4.92 49.28,4.58 48.89,4.27 Z M 64.03,5.27 L 68.08,5.27 67.16,4.04 56.82,4.04 C 56.52,4.03 56.23,3.99 55.92,3.99 L 55.92,4.04 49.59,4.04 49.59,4.04 C 50.02,4.42 50.44,4.82 50.83,5.24 L 61.55,5.27 61.66,5.29 C 67.76,6.81 73.29,10.07 77.58,14.67 L 77.64,17.08 C 75.1,13.58 70.33,8.8 63.21,8.8 L 47.31,8.8 47.31,8.8 C 47.14,8.48 46.81,8.28 46.45,8.27 L 46.44,8.27 C 45.89,8.27 45.43,8.72 45.43,9.28 45.43,9.84 45.89,10.29 46.44,10.29 L 46.45,10.29 C 46.81,10.28 47.14,10.08 47.31,9.76 L 56.09,9.76 56.24,9.62 C 51.57,13.98 45.42,16.4 39.03,16.4 L 38.97,16.4 C 32.58,16.4 26.43,13.98 21.75,9.62 L 30.68,9.76 30.68,9.76 C 30.85,10.08 31.18,10.28 31.55,10.29 L 31.55,10.29 C 32.11,10.29 32.56,9.84 32.56,9.28 32.56,8.72 32.11,8.27 31.55,8.27 L 31.55,8.27 C 31.18,8.28 30.85,8.48 30.68,8.8 L 14.79,8.8 C 7.66,8.8 2.89,13.58 0.36,17.08 L 0.36,14.73 0.42,14.66 C 4.71,10.07 10.23,6.81 16.32,5.3 L 27.14,5.27 27.18,5.22 C 27.57,4.8 27.99,4.4 28.42,4.02 L 22.07,4.04 22.07,3.99 C 21.77,3.99 21.48,4.03 21.18,4.04 L 10.83,4.04 9.91,5.27 13.96,5.27 14.18,5.2 C 9.11,6.84 4.5,9.67 0.72,13.44 L 0.36,10.58 C 0.36,10.58 5.02,7.8 6.21,5.27 L 8.71,5.27 10.35,3.08 19.69,3.08 C 23.3,2.62 27.86,1.78 30.02,0.28 30.02,0.28 31.55,-0.65 31.55,0.87 31.55,1.8 28.05,2.6 25.33,3.08 L 28.81,3.08 28.81,3.08 C 28.94,2.95 29.12,2.87 29.31,2.87 L 29.31,2.87 C 29.45,2.87 29.6,2.92 29.71,3.01 L 29.76,2.98 C 35.3,-0.9 42.69,-0.9 48.23,2.98 L 48.28,3.01 C 48.4,2.92 48.54,2.87 48.68,2.87 L 48.68,2.87 C 48.87,2.87 49.05,2.95 49.18,3.08 L 52.67,3.08 C 49.95,2.6 46.44,1.8 46.44,0.87 46.44,-0.65 47.97,0.28 47.97,0.28 50.13,1.78 54.69,2.62 58.31,3.08 L 67.64,3.08 69.28,5.27 71.78,5.27 C 72.97,7.8 77.64,10.57 77.64,10.57 L 77.64,13.82 77.69,13.87 C 73.98,10.03 69.41,7.12 64.37,5.38 M 75.5,24.95 L 75.5,24.94 C 76.32,22.09 76.37,19.06 75.65,16.18 L 75.65,16.11 C 74.43,14.66 73.02,13.38 71.45,12.32 65.13,9.25 56.01,12.14 53.37,13.1 L 53.32,13.13 C 49.07,15.89 44.11,17.36 39.04,17.36 L 38.95,17.36 C 33.89,17.36 28.93,15.89 24.68,13.13 21.98,12.14 12.84,9.24 6.62,12.27 L 6.54,12.33 C 4.97,13.38 3.56,14.66 2.34,16.1 L 2.34,16.17 C 1.62,19.06 1.68,22.09 2.5,24.95 L 2.53,25.04 2.5,25.13 0.36,33.1 0.36,546.72 2.52,554.78 2.49,554.87 2.49,554.87 C 1.67,557.73 1.62,560.75 2.34,563.64 L 2.34,563.71 C 3.56,565.16 4.97,566.43 6.54,567.49 12.86,570.57 21.99,567.67 24.62,566.72 L 24.64,566.71 C 33.37,561.04 44.62,561.04 53.35,566.71 56.01,567.67 65.16,570.57 71.38,567.54 L 71.46,567.49 C 73.02,566.43 74.44,565.16 75.65,563.71 L 75.65,563.65 C 76.37,560.76 76.32,557.73 75.5,554.86 L 75.47,554.78 75.49,554.69 77.64,546.71 77.64,33.1 75.47,25.04 75.5,24.95 Z M 1.47,17.19 C 1.04,17.75 0.67,18.29 0.36,18.78 L 0.36,30.64 1.86,25.05 1.85,25.01 C 1.1,22.42 0.98,19.68 1.5,17.03 M 10.41,10.46 L 10.44,10.46 C 11.86,9.99 13.34,9.76 14.83,9.76 L 20.47,9.76 20.56,9.84 C 21.34,10.6 22.17,11.31 23.05,11.97 19.88,10.91 14.96,9.78 10.41,10.46 Z M 10.41,10.46" />
</svg>
