<?xml version="1.0" encoding="UTF-8"?>
<!DOCTYPE svg PUBLIC "-//W3C//DTD SVG 1.1//EN" "http://www.w3.org/Graphics/SVG/1.1/DTD/svg11.dtd">
<svg version="1.1" xmlns="http://www.w3.org/2000/svg" xmlns:xlink="http://www.w3.org/1999/xlink" width="54" height="63"  xml:space="preserve" id="attrBlock4">
    <!-- Generated by PaintCode - http://www.paintcodeapp.com -->
    <g id="attrBlock4-attrBlock4">
        <path id="attrBlock4-bezier" stroke="none" fill="rgb(255, 255, 255)" d="M 1.14,20.47 L 1,19.76 C 2.36,26.76 2.92,33.89 2.67,41.02 2.64,41.97 -0.49,45.1 2.89,50.16 L 2.61,55.63 51.4,55.63 51.12,50.16 C 54.49,45.1 51.37,41.97 51.37,41.97 L 51.4,42.67 C 51.03,35.54 51.47,28.4 52.71,21.37 L 51.43,19.41 51.52,19.14 C 51.93,17.89 52.27,16.63 52.54,15.34 L 51.58,3.83 C 48.73,5.01 46.89,0.7 46.89,0.7 L 7.12,0.7 C 7.12,0.7 5.28,5.01 2.43,3.83 L 1.48,15.38 1.47,15.35 C 1.74,16.64 2.08,17.9 2.49,19.15 L 1.14,20.47 Z M 1.14,20.47" />
        <ellipse id="attrBlock4-oval" stroke="none" fill="rgb(255, 255, 255)" cx="26.98" cy="51.77" rx="12.2" ry="8.25" />
        <path id="attrBlock4-bezier2" stroke="none" fill="rgb(214, 215, 215)" d="M 27,61.26 C 34.44,61.26 40.46,57.01 40.46,51.77 40.46,46.53 34.44,42.28 27,42.28 19.57,42.28 13.54,46.53 13.54,51.77 13.54,57.01 19.57,61.26 27,61.26 Z M 27,58.76 C 21.06,58.76 16.04,55.55 16.04,51.77 16.04,47.98 21.06,44.78 27,44.78 32.94,44.78 37.96,47.98 37.96,51.77 37.96,55.55 32.94,58.76 27,58.76 Z M 27,58.76" />
        <path id="attrBlock4-bezier3" stroke="none" fill="rgb(0, 0, 0)" d="M 1.74,20.8 L 1.77,20.78 C 2.07,20.56 2.35,20.33 2.62,20.07 L 2.65,20.74 C 3.05,24.59 3.22,28.45 3.15,32.31 2.8,28.55 2.33,22.94 1.74,20.8 Z M 3.31,53.28 L 3.26,53.27 C 4.89,53.55 6.44,54.16 7.82,55.06 L 3.15,55.09 C 3.19,54.66 3.25,54.04 3.31,53.28 Z M 3.45,51.38 C 3.82,51.82 4.2,52.22 4.56,52.58 L 4.55,52.58 C 4.14,52.47 3.72,52.39 3.3,52.34 3.4,52.05 3.43,51.72 3.45,51.38 Z M 0.48,53.37 L 0.48,53.36 C 0.72,53.77 1.13,54.04 1.59,54.13 L 1.62,54.13 C 1.41,53.98 1.24,53.79 1.12,53.56 1.01,53.37 1.1,53.28 1.21,53.23 1.29,53.22 1.37,53.2 1.46,53.2 L 1.46,53.2 C 1.64,53.18 1.83,53.18 2.01,53.18 1.9,54.7 1.8,55.62 1.8,55.67 L 1.72,56.38 6.55,56.38 C 8,56.98 10.92,58.49 10.27,60.62 L 10.27,60.63 C 10.57,60.2 10.97,59.84 11.43,59.6 L 11.48,59.63 C 10.63,58.32 9.5,57.23 8.16,56.42 L 10.08,56.38 10.07,56.38 C 10.89,56.54 11.62,57 12.13,57.66 L 12.13,57.68 C 12.06,57.17 11.79,56.7 11.38,56.38 L 11.41,56.38 11.29,56.3 C 10.81,55.93 10.3,55.57 9.78,55.21 L 9.62,55.09 9.61,55.09 9.55,55.05 C 8.81,54.56 8.05,54.1 7.27,53.68 L 7.24,53.65 C 5.8,52.56 4.51,51.28 3.43,49.84 L 3.54,49.98 C 3.54,49.98 3.52,49.96 3.5,49.94 3.4,49.8 3.3,49.66 3.2,49.52 3.17,49.47 3.14,49.42 3.1,49.37 L 3.08,49.34 C 2.35,48.29 1.88,47.07 1.72,45.79 L 1.73,45.82 C 1.63,44.74 1.89,43.66 2.47,42.74 2.46,44.19 2.42,45.62 2.37,46.93 L 2.4,46.99 C 2.7,47.78 3.1,48.52 3.58,49.21 3.72,46.69 4.77,24.96 3.69,18.87 L 3.69,18.87 C 4.54,17.78 4.87,16.37 4.58,15.02 L 4.6,15.06 C 3.99,13.63 3.52,12.14 3.2,10.61 L 3.2,10.62 C 2.75,9.23 2.44,7.79 2.29,6.34 L 1.48,15.38 1.52,15.51 1.57,15.67 C 1.84,16.49 2.06,17.33 2.22,18.18 L 2.21,18.2 C 2.66,17.85 3.02,17.39 3.25,16.87 3.11,16.29 2.96,15.74 2.79,15.22 L 2.95,13.35 C 3.31,14.4 3.66,15.22 3.69,15.3 L 3.69,15.32 C 3.85,16.07 3.75,16.85 3.4,17.53 L 3.42,17.48 C 3.2,18.05 2.85,18.55 2.41,18.97 L 2.4,18.97 C 1.98,19.42 1.51,19.82 0.99,20.17 L 0.64,20.39 0.74,20.74 C 1.58,23.44 2.48,40.37 2.48,40.37 2.49,40.63 2.49,40.89 2.49,41.14 L 2.5,41.13 C 1.29,42.38 0.66,44.1 0.79,45.84 L 0.79,45.92 C 0.96,47.28 1.45,48.59 2.21,49.72 2.19,50.67 2.14,51.5 2.08,52.23 2.02,52.23 1.96,52.22 1.9,52.22 L 1.9,52.22 C 0.93,52.14 0.07,52.68 0.48,53.37 Z M 3.35,8.95 L 3.32,8.87 C 2.85,7.34 2.55,5.76 2.41,4.16 L 2.43,3.83 2.84,3.71 C 3.81,3.41 6.56,2.2 6.56,0.65 L 6.56,-0 47.44,-0 47.44,0.65 C 47.44,2.2 50.2,3.41 51.17,3.71 L 51.58,3.83 51.6,4.11 51.6,4.16 C 51.46,5.75 51.15,7.33 50.69,8.86 L 50.37,4.8 C 49.3,4.41 46.71,3.27 46.23,1.29 L 7.78,1.29 C 7.3,3.27 4.7,4.41 3.64,4.8 L 3.35,8.95 Z M 51.43,20.11 L 51.39,20.08 C 51.66,20.33 51.94,20.56 52.23,20.77 51.68,22.94 51.21,28.55 50.85,32.27 L 50.85,32.31 C 50.79,28.45 50.95,24.6 51.36,20.76 M 46.14,55.09 L 46.19,55.06 C 47.57,54.16 49.12,53.55 50.74,53.27 50.76,54.04 50.81,54.66 50.85,55.09 L 46.14,55.09 Z M 50.56,51.38 C 50.58,51.72 50.6,52.05 50.63,52.35 L 50.57,52.36 C 50.15,52.41 49.73,52.5 49.32,52.61 49.8,52.22 50.18,51.82 50.56,51.38 Z M 49.43,15 L 49.43,15.01 C 49.14,16.37 49.47,17.78 50.32,18.87 49.23,24.96 50.29,46.69 50.43,49.22 L 50.42,49.22 C 50.91,48.53 51.31,47.78 51.61,46.99 51.58,45.62 51.54,44.19 51.53,42.72 L 51.54,42.74 C 52.12,43.66 52.37,44.74 52.28,45.82 L 52.28,45.8 C 52.13,47.07 51.66,48.29 50.92,49.34 50.87,49.42 50.84,49.47 50.8,49.51 50.71,49.66 50.6,49.8 50.5,49.94 L 50.47,49.98 50.47,49.98 50.38,50.1 C 49.27,51.53 47.96,52.79 46.49,53.85 L 46.75,53.67 C 45.96,54.09 45.2,54.55 44.46,55.05 L 44.39,55.09 44.22,55.21 C 43.7,55.57 43.2,55.93 42.71,56.3 L 42.6,56.38 42.6,56.38 42.61,56.38 C 42.21,56.69 41.94,57.15 41.86,57.65 L 41.86,57.66 C 42.36,57 43.09,56.54 43.91,56.38 L 45.89,56.38 45.82,56.42 C 44.49,57.23 43.35,58.32 42.51,59.62 L 42.55,59.6 C 43.02,59.84 43.41,60.2 43.72,60.63 43.26,59.16 44.51,57.99 45.8,57.2 L 45.86,57.18 C 46.99,56.67 48.21,56.4 49.44,56.38 L 52.28,56.38 52.21,55.67 C 52.2,55.62 52.11,54.7 51.99,53.18 52.17,53.18 52.36,53.18 52.54,53.2 L 52.54,53.2 C 52.63,53.2 52.71,53.22 52.8,53.23 52.91,53.28 53,53.37 52.88,53.57 L 52.89,53.56 C 52.77,53.79 52.6,53.98 52.39,54.13 L 52.39,54.13 C 52.85,54.06 53.26,53.79 53.51,53.39 53.94,52.68 53.08,52.14 52.1,52.22 L 52.1,52.22 C 52.05,52.22 51.98,52.23 51.92,52.23 51.87,51.5 51.82,50.67 51.76,49.76 L 51.79,49.73 C 52.56,48.59 53.05,47.28 53.21,45.92 L 53.21,45.95 C 53.36,44.21 52.77,42.48 51.58,41.21 51.52,40.89 51.52,40.63 51.52,40.37 51.52,40.37 52.43,23.44 53.26,20.74 L 53.37,20.39 53.06,20.2 53.02,20.17 C 52.5,19.83 52.03,19.42 51.6,18.96 L 51.6,18.96 C 51.16,18.55 50.81,18.05 50.58,17.49 L 50.58,17.48 C 50.24,16.79 50.15,16.01 50.33,15.26 50.35,15.22 50.7,14.4 51.05,13.35 L 51.22,15.22 C 51.04,15.74 50.89,16.29 50.75,16.86 L 50.76,16.88 C 50.99,17.4 51.35,17.85 51.79,18.2 L 51.77,18.22 C 51.94,17.35 52.17,16.49 52.44,15.65 L 52.53,15.38 51.72,6.33 51.72,6.34 C 51.56,7.79 51.26,9.23 50.81,10.62 L 50.8,10.64 C 50.48,12.14 50.02,13.61 49.42,15.03 M 16.17,56.38 L 16.17,56.38 C 15.99,56.18 15.82,55.97 15.66,55.76 15.64,55.74 15.63,55.72 15.61,55.69 L 15.61,55.69 C 15.46,55.5 15.33,55.3 15.21,55.1 L 15.23,55.13 C 14.61,54.14 14.27,52.99 14.25,51.82 14.25,46.92 19.97,42.98 27,42.98 34.04,42.98 39.76,46.92 39.76,51.77 L 39.76,51.71 C 39.76,52.88 39.44,54.04 38.83,55.04 38.68,55.3 38.54,55.5 38.39,55.69 38.38,55.72 38.36,55.74 38.35,55.76 38.19,55.97 38.02,56.18 37.83,56.38 35.58,58.88 31.58,60.55 27,60.55 22.43,60.55 18.42,58.88 16.17,56.38 Z M 39.61,56.38 L 41.1,56.38 41.09,56.39 C 40.42,56.94 39.93,57.67 39.7,58.49 L 39.67,58.46 C 40.06,58.54 40.43,58.67 40.78,58.85 40.23,57.5 41.86,56.38 41.86,56.38 L 43.49,55.09 41.97,55.09 41.99,55.04 C 42.3,54.13 42.49,53.19 42.56,52.23 L 42.54,52.34 C 43.24,53.51 44.67,54.01 45.94,53.55 45.58,53.65 43.97,53.88 42.52,50.85 L 42.52,50.87 42.52,50.91 C 42.43,49.57 41.84,48.32 40.88,47.39 L 40.85,47.34 C 41.95,49.42 42.19,51.86 41.5,54.11 L 41.49,54.13 C 41.28,54.4 40.95,54.55 40.61,54.55 L 40.62,54.54 C 40.98,53.65 41.17,52.69 41.17,51.73 41.16,46.15 34.81,41.57 27,41.57 19.19,41.57 12.84,46.15 12.84,51.77 L 12.84,51.72 C 12.84,52.69 13.03,53.66 13.39,54.56 L 13.39,54.55 C 13.05,54.55 12.73,54.4 12.52,54.13 L 12.51,54.11 C 11.82,51.86 12.05,49.42 13.16,47.34 L 13.13,47.39 C 12.16,48.32 11.58,49.57 11.49,50.91 L 11.48,50.85 C 10.04,53.88 8.43,53.65 8.03,53.54 L 8.02,53.53 C 9.29,54.02 10.72,53.54 11.44,52.38 L 11.47,52.43 C 11.55,53.38 11.76,54.32 12.08,55.21 L 10.52,55.09 12.14,56.37 12.13,56.38 C 12.13,56.38 13.75,57.5 13.16,58.86 L 13.14,58.88 C 13.48,58.7 13.85,58.56 14.24,58.48 L 14.28,58.49 C 14.05,57.67 13.56,56.94 12.9,56.39 L 14.39,56.38 14.42,56.42 C 15.01,57.24 15.72,57.97 16.52,58.59 L 16.49,58.53 C 14.31,58.68 12.23,59.54 10.58,60.97 13.98,60.04 15.51,60.98 15.51,60.98 L 15.51,60.98 C 15.38,60.5 14.99,60.13 14.5,60.04 14.57,58.94 17.19,59.66 17.19,59.66 L 17.2,59.65 17.18,59.65 C 18.19,59.85 19.1,60.41 19.72,61.24 L 24.92,61.85 24.88,61.83 24.84,61.83 C 26.28,62 27.73,62 29.16,61.83 L 29.09,61.85 34.27,61.25 34.29,61.24 C 34.91,60.41 35.81,59.85 36.82,59.65 36.79,59.66 39.41,58.94 39.49,60.04 L 39.48,60.04 C 38.99,60.13 38.6,60.5 38.47,60.99 38.47,60.98 40,60.04 43.4,60.98 L 43.39,60.97 C 41.75,59.54 39.68,58.68 37.5,58.53 L 37.63,58.48 C 38.42,57.84 39.12,57.09 39.7,56.27" />
    </g>
</svg>
