<?xml version="1.0" encoding="UTF-8"?>
<!DOCTYPE svg PUBLIC "-//W3C//DTD SVG 1.1//EN" "http://www.w3.org/Graphics/SVG/1.1/DTD/svg11.dtd">
<svg version="1.1" xmlns="http://www.w3.org/2000/svg" xmlns:xlink="http://www.w3.org/1999/xlink" width="70" height="80"  xml:space="preserve" id="attrBlock1">
    <!-- Generated by PaintCode - http://www.paintcodeapp.com -->
    <path id="attrBlock1-bezier" stroke="none" fill="rgb(255, 255, 255)" d="M 1,25.31 C 1,25.31 3.86,39.71 2.92,52.83 2.92,52.83 -1.08,56.83 3.24,63.31 L 2.88,70.32 65.34,70.32 64.98,63.31 C 69.3,56.83 65.3,52.83 65.3,52.83 64.36,39.71 67.22,25.31 67.22,25.31 L 65.38,23.95 65.49,23.61 C 66.01,22.01 66.45,20.39 66.8,18.75 L 65.57,4.02 C 61.92,5.52 59.56,-0 59.56,-0 L 8.66,-0 C 8.66,-0 6.31,5.52 2.65,4.02 L 1.44,18.8 1.43,18.76 C 1.78,20.4 2.21,22.02 2.73,23.62 L 1,25.31 Z M 1,25.31" transform="translate(0.97, 0.89)"  />
    <ellipse id="attrBlock1-oval" stroke="none" fill="rgb(255, 255, 255)" cx="16.65" cy="10.55" rx="15.65" ry="10.55"  transform="translate(18.4, 55.71)" />
    <path id="attrBlock1-bezier2" stroke="none" fill="rgb(220, 221, 222)" d="M 18.23,24.29 C 27.74,24.29 35.45,18.85 35.45,12.15 35.45,5.44 27.74,-0 18.23,-0 8.71,-0 1,5.44 1,12.15 1,18.85 8.71,24.29 18.23,24.29 Z M 18.23,21.09 C 10.62,21.09 4.2,16.99 4.2,12.15 4.2,7.3 10.62,3.2 18.23,3.2 25.83,3.2 32.25,7.3 32.25,12.15 32.25,16.99 25.83,21.09 18.23,21.09 Z M 18.23,21.09" transform="translate(16.85, 54.11)"  />
    <path id="attrBlock1-bezier3" stroke="none" fill="rgb(0, 0, 0)" d="M 4.55,41.31 L 4.55,41.36 C 4.64,36.43 4.42,31.49 3.91,26.59 L 3.89,25.68 C 3.53,26.01 3.16,26.32 2.77,26.6 3.5,29.36 4.1,36.55 4.55,41.31 Z M 4.55,70.52 L 10.58,70.52 10.53,70.48 C 8.76,69.33 6.77,68.55 4.69,68.18 4.68,69.17 4.61,69.96 4.55,70.52 Z M 4.84,67.01 L 4.91,67.02 C 5.4,67.08 5.88,67.17 6.36,67.3 5.9,66.84 5.41,66.32 4.93,65.76 4.9,66.2 4.87,66.62 4.84,67.01 Z M 17.84,75.99 L 17.89,75.99 C 16.46,75.94 15.04,76.1 13.66,76.47 15.9,77.46 18.82,78.33 19.71,77.83 L 19.71,77.83 C 19.73,77.82 19.75,77.81 19.77,77.79 19.42,77.44 18.74,76.8 17.84,75.99 Z M 35.08,77.51 C 40.93,77.51 46.06,75.37 48.95,72.17 49.18,71.91 49.4,71.65 49.6,71.38 49.62,71.35 49.64,71.32 49.66,71.29 49.85,71.04 50.03,70.78 50.18,70.52 L 50.15,70.57 C 50.95,69.3 51.38,67.83 51.41,66.33 51.41,60.06 44.08,55.02 35.08,55.02 26.08,55.02 18.76,60.06 18.76,66.26 L 18.76,66.19 C 18.76,67.69 19.16,69.16 19.94,70.44 L 19.97,70.5 C 20.14,70.78 20.32,71.05 20.51,71.3 20.52,71.32 20.54,71.35 20.56,71.38 20.77,71.65 20.99,71.91 21.22,72.17 24.1,75.37 29.23,77.51 35.08,77.51 Z M 50.39,77.79 L 50.39,77.79 C 50.41,77.81 50.43,77.82 50.45,77.83 51.34,78.33 54.26,77.46 56.6,76.5 L 56.5,76.47 C 55.13,76.1 53.7,75.94 52.28,75.99 51.42,76.8 50.74,77.44 50.39,77.79 Z M 59.58,70.52 L 65.61,70.52 C 65.56,69.96 65.49,69.17 65.41,68.19 L 65.48,68.18 C 63.4,68.55 61.41,69.33 59.64,70.48 M 63.8,67.3 L 63.81,67.3 C 64.29,67.17 64.77,67.08 65.26,67.02 65.29,66.62 65.26,66.2 65.23,65.76 64.75,66.32 64.27,66.84 63.8,67.3 Z M 65.61,41.31 C 66.06,36.55 66.67,29.36 67.42,26.62 L 67.38,26.59 C 67,26.31 66.63,26.01 66.28,25.69 L 66.26,26.59 C 65.74,31.49 65.53,36.41 65.61,41.34 M 2.96,66.84 L 2.95,66.85 C 3.02,66.85 3.11,66.85 3.19,66.86 3.25,65.92 3.32,64.86 3.39,63.7 L 3.35,63.64 C 2.33,62.13 1.7,60.4 1.51,58.59 L 1.53,58.68 C 1.37,56.44 2.17,54.25 3.72,52.64 3.7,52.34 3.7,52.01 3.7,51.68 3.7,51.68 2.54,30.01 1.47,26.55 L 1.33,26.1 1.73,25.86 1.77,25.83 C 2.43,25.38 3.05,24.86 3.59,24.28 L 3.6,24.27 C 4.17,23.74 4.61,23.1 4.9,22.38 L 4.91,22.37 C 5.34,21.49 5.45,20.49 5.23,19.53 5.2,19.48 4.76,18.44 4.3,17.08 L 4.09,19.48 C 4.31,20.15 4.5,20.85 4.68,21.58 L 4.67,21.61 C 4.38,22.27 3.92,22.85 3.35,23.29 L 3.37,23.28 C 3.15,22.18 2.87,21.1 2.53,20.04 L 2.41,19.69 3.45,8.1 3.45,8.1 C 3.64,9.97 4.03,11.81 4.62,13.6 L 4.62,13.61 C 5.03,15.54 5.62,17.43 6.4,19.26 L 6.38,19.22 C 6.75,20.95 6.33,22.76 5.24,24.15 6.63,31.95 5.28,59.76 5.1,63 L 5.1,63 C 4.48,62.11 3.97,61.15 3.58,60.14 3.62,58.39 3.67,56.57 3.69,54.68 L 3.67,54.71 C 2.94,55.89 2.61,57.27 2.73,58.65 L 2.72,58.62 C 2.93,60.25 3.52,61.81 4.47,63.16 4.54,63.26 4.58,63.32 4.62,63.38 4.74,63.56 4.87,63.74 5,63.92 L 5.05,63.98 5.05,63.98 5.16,64.13 C 6.59,65.95 8.26,67.56 10.13,68.92 L 9.8,68.7 C 10.81,69.23 11.78,69.82 12.73,70.46 L 12.83,70.52 13.04,70.67 C 13.71,71.12 14.35,71.59 14.97,72.06 L 15.12,72.17 15.11,72.17 C 16.31,73.08 17.4,73.99 18.29,74.78 19.46,74.79 20.61,74.87 21.62,74.97 L 21.67,75 C 20.64,74.2 19.74,73.27 18.98,72.22 L 16.07,72.17 13.98,70.52 15.93,70.52 15.91,70.45 C 15.51,69.29 15.26,68.09 15.18,66.86 L 15.2,67 C 14.3,68.49 12.47,69.14 10.84,68.54 11.31,68.67 13.37,68.97 15.22,65.09 L 15.22,65.11 15.22,65.16 C 15.34,63.45 16.09,61.84 17.32,60.65 L 17.36,60.59 C 15.95,63.26 15.65,66.38 16.53,69.26 L 16.53,69.28 C 16.81,69.63 17.23,69.82 17.67,69.82 L 17.66,69.81 C 17.19,68.67 16.96,67.44 16.96,66.21 16.96,59.07 25.09,53.22 35.08,53.22 45.08,53.22 53.21,59.07 53.21,66.26 L 53.21,66.21 C 53.21,67.45 52.97,68.67 52.51,69.82 L 52.5,69.82 C 52.94,69.82 53.35,69.63 53.63,69.29 L 53.64,69.26 C 54.52,66.37 54.22,63.26 52.8,60.59 L 52.85,60.65 C 54.08,61.84 54.83,63.45 54.95,65.16 L 54.95,65.09 C 56.8,68.97 58.86,68.67 59.36,68.53 L 59.39,68.52 C 57.76,69.14 55.92,68.53 55,67.05 L 54.97,67.12 C 54.86,68.33 54.6,69.52 54.18,70.67 L 56.19,70.52 54.09,72.17 51.22,72.17 51.2,72.21 C 50.43,73.26 49.52,74.21 48.49,75.01 49.55,74.87 50.7,74.79 51.87,74.78 52.77,73.99 53.86,73.08 55.05,72.17 L 55.04,72.17 55.19,72.06 C 55.82,71.59 56.46,71.12 57.13,70.67 L 57.34,70.52 57.35,70.52 57.45,70.45 C 58.39,69.82 59.36,69.24 60.36,68.7 L 60.38,68.67 C 62.23,67.28 63.87,65.63 65.27,63.78 L 65.12,63.98 C 65.12,63.98 65.14,63.96 65.16,63.92 65.3,63.74 65.42,63.56 65.55,63.38 65.59,63.32 65.63,63.26 65.68,63.19 L 65.7,63.16 C 66.64,61.81 67.24,60.25 67.44,58.62 L 67.44,58.64 C 67.56,57.26 67.23,55.88 66.49,54.71 66.5,56.57 66.54,58.39 66.61,60.07 L 66.58,60.14 C 66.19,61.15 65.68,62.11 65.06,63 64.89,59.76 63.54,31.95 64.93,24.15 L 64.93,24.15 C 63.84,22.76 63.42,20.95 63.79,19.22 L 63.76,19.29 C 64.54,17.45 65.14,15.53 65.56,13.58 L 65.55,13.6 C 66.13,11.82 66.52,9.98 66.71,8.12 L 67.76,19.69 67.7,19.85 67.64,20.04 C 67.29,21.1 67.01,22.18 66.8,23.28 L 66.81,23.29 C 66.24,22.85 65.79,22.27 65.49,21.6 65.66,20.85 65.85,20.15 66.08,19.48 L 65.86,17.08 C 65.41,18.44 64.97,19.48 64.93,19.58 L 64.92,19.61 C 64.72,20.57 64.85,21.57 65.29,22.44 L 65.27,22.38 C 65.55,23.1 66,23.74 66.56,24.27 L 66.57,24.28 C 67.12,24.86 67.73,25.38 68.39,25.83 L 68.83,26.1 68.69,26.55 C 67.63,30.01 66.47,51.68 66.47,51.68 66.46,52.01 66.46,52.34 66.46,52.66 L 66.44,52.64 C 68,54.25 68.8,56.44 68.64,58.68 L 68.63,58.78 C 68.42,60.52 67.79,62.19 66.81,63.65 66.84,64.86 66.91,65.92 66.98,66.86 67.06,66.85 67.14,66.85 67.21,66.85 L 67.21,66.84 C 68.46,66.74 69.56,67.44 69.03,68.31 L 69.03,68.31 C 68.71,68.83 68.18,69.19 67.58,69.29 L 67.58,69.29 C 67.85,69.09 68.06,68.85 68.21,68.56 68.35,68.31 68.24,68.19 68.1,68.14 67.99,68.12 67.89,68.1 67.78,68.09 L 67.77,68.09 C 67.54,68.07 67.3,68.07 67.07,68.07 67.22,70.01 67.34,71.19 67.35,71.25 L 67.44,72.17 57.08,72.17 C 55.85,73.05 54.69,73.97 53.68,74.81 L 53.73,74.81 C 55.84,74.78 57.91,75.41 59.64,76.62 L 57.29,77.51 57.29,77.51 57.48,77.43 C 56.03,78.07 54.52,78.58 52.97,78.94 L 52.82,78.98 C 52.72,79 52.63,79.02 52.54,79.03 52.47,79.04 52.4,79.06 52.33,79.07 44.21,80.47 43.36,79.7 43.36,79.7 L 43.42,79.7 C 45.51,79.66 47.52,78.85 49.06,77.42 L 49.26,77.22 C 49.34,77.14 49.78,76.7 50.48,76.04 49.96,76.07 49.45,76.1 48.96,76.14 L 48.96,76.14 C 48.83,76.16 48.71,76.17 48.59,76.18 L 48.58,76.18 C 48.23,76.22 47.88,76.29 47.54,76.38 47.37,76.43 47.12,76.5 46.86,76.59 46.82,76.61 46.78,76.62 46.75,76.64 L 46.71,76.65 C 46.44,76.75 46.19,76.88 45.94,77.01 45.91,77.03 45.88,77.05 45.85,77.07 L 45.82,77.09 C 45.6,77.22 45.39,77.37 45.19,77.54 45.15,77.58 45.08,77.63 45.02,77.69 L 45.01,77.69 C 44.77,77.91 44.56,78.15 44.38,78.42 L 37.75,79.16 37.8,79.14 37.82,79.14 C 36,79.36 34.16,79.36 32.34,79.14 L 32.41,79.16 25.77,78.41 25.79,78.42 C 25.61,78.16 25.4,77.91 25.16,77.7 25.08,77.62 25.01,77.57 24.95,77.52 L 24.93,77.5 C 24.73,77.33 24.51,77.19 24.29,77.05 24.26,77.03 24.24,77.02 24.21,77 L 24.25,77.02 C 23.98,76.88 23.71,76.75 23.43,76.64 23.36,76.62 23.31,76.6 23.26,76.58 23.01,76.49 22.76,76.41 22.53,76.36 L 22.56,76.36 C 22.23,76.28 21.89,76.22 21.55,76.18 21.45,76.17 21.33,76.16 21.21,76.14 L 21.2,76.14 C 20.71,76.1 20.2,76.07 19.69,76.04 20.39,76.7 20.82,77.14 20.91,77.22 L 21.11,77.42 21.11,77.42 C 22.64,78.85 24.65,79.66 26.75,79.7 26.81,79.7 25.96,80.47 17.84,79.07 17.77,79.06 17.7,79.04 17.63,79.03 17.53,79.02 17.45,79 17.35,78.98 L 17.37,78.98 17.19,78.94 C 15.65,78.58 14.14,78.08 12.69,77.43 L 12.88,77.51 10.56,76.59 10.52,76.62 C 12.25,75.41 14.32,74.78 16.43,74.81 15.48,73.97 14.32,73.05 13.09,72.17 L 2.72,72.17 2.82,71.25 C 2.83,71.19 2.95,70.01 3.1,68.07 2.86,68.07 2.62,68.07 2.39,68.09 L 2.39,68.09 C 2.28,68.1 2.17,68.12 2.07,68.14 1.92,68.19 1.81,68.31 1.95,68.56 L 1.95,68.56 C 2.1,68.85 2.32,69.09 2.58,69.29 L 2.59,69.29 C 1.98,69.19 1.45,68.83 1.14,68.31 0.61,67.44 1.7,66.74 2.96,66.84 Z M 4.8,11.46 L 4.77,11.35 C 4.17,9.39 3.78,7.37 3.6,5.32 L 3.62,4.91 4.15,4.75 C 5.39,4.36 8.92,2.82 8.92,0.82 L 8.92,-0 61.24,-0 61.24,0.82 C 61.24,2.82 64.77,4.36 66.01,4.74 L 66.54,4.91 66.57,5.27 66.56,5.32 C 66.39,7.37 65.99,9.39 65.39,11.35 L 64.99,6.14 C 63.63,5.64 60.31,4.18 59.69,1.65 L 10.47,1.65 C 9.86,4.18 6.54,5.64 5.17,6.14 L 4.8,11.46 Z M 4.8,11.46" transform="translate(-0, -0)"  />
</svg>
