<?xml version="1.0" encoding="UTF-8"?>
<!DOCTYPE svg PUBLIC "-//W3C//DTD SVG 1.1//EN" "http://www.w3.org/Graphics/SVG/1.1/DTD/svg11.dtd">
<svg version="1.1" xmlns="http://www.w3.org/2000/svg" xmlns:xlink="http://www.w3.org/1999/xlink" width="559" height="95"  xml:space="preserve" id="basicBar">
    <!-- Generated by PaintCode - http://www.paintcodeapp.com -->
    <g id="basicBar-group" transform="scale(0.95, 0.95)" >
        <g id="basicBar-clouds">
            <path id="basicBar-bezier" stroke="none" fill="rgb(220, 221, 222)" d="M 337.78,31.52 L 360.06,29.85 332.58,27.79 374.63,24.65 337.19,21.85 389.06,17.97 300.72,11.37 324.46,9.59 281.12,6.35 242.62,9.23 225.3,6.98 267.79,3.8 233.74,1.25 210.01,3.03 182.46,0.97 156.71,2.89 182.87,4.85 154.04,7.01 125.22,4.85 141.93,3.6 121.97,2.11 58.15,6.88 80.77,8.57 9.06,13.93 51.29,17.09 29,18.76 56.48,20.81 14.43,23.95 51.88,26.76 0,30.63 71.29,35.96 38.65,38.41 73.11,40.98 82.02,40.32 107.94,42.25 146.44,39.37 163.74,41.63 118.87,44.98 180.47,49.59 193.94,48.58 169.69,46.77 204.32,44.18 228.58,45.99 244.47,44.8 267.09,46.49 330.91,41.72 308.3,40.03 380.01,34.67 337.78,31.52 Z M 223.49,48.51 L 246.74,50.25 270,48.51 246.74,46.77 223.49,48.51 Z M 84.29,41.99 L 107.54,43.73 84.29,45.47 61.03,43.73 84.29,41.99 Z M 84.29,41.99" />
            <path id="basicBar-bezier2" stroke="none" fill="rgb(220, 221, 222)" d="M 388.92,83.74 L 407.03,82.39 384.7,80.72 418.86,78.17 388.44,75.89 430.58,72.74 358.82,67.38 378.1,65.94 342.9,63.3 311.62,65.64 297.56,63.81 332.07,61.23 304.41,59.16 285.14,60.6 262.76,58.93 241.84,60.49 263.09,62.09 239.68,63.84 216.26,62.09 229.83,61.07 213.62,59.86 161.78,63.73 180.15,65.11 121.9,69.46 156.2,72.03 138.1,73.38 160.42,75.05 126.27,77.6 156.68,79.88 114.54,83.03 172.46,87.36 145.94,89.34 173.93,91.43 181.17,90.89 202.22,92.47 233.5,90.13 247.55,91.96 211.1,94.68 261.14,98.42 272.08,97.6 252.38,96.13 280.51,94.03 300.22,95.5 313.13,94.54 331.5,95.91 383.34,92.04 364.98,90.66 423.23,86.31 388.92,83.74 Z M 296.08,97.55 L 314.97,98.96 333.86,97.55 314.97,96.13 296.08,97.55 Z M 183.01,92.25 L 201.9,93.66 183.01,95.08 164.12,93.66 183.01,92.25 Z M 183.01,92.25" />
            <path id="basicBar-bezier3" stroke="none" fill="rgb(220, 221, 222)" d="M 553.09,37.74 L 568.02,36.62 549.61,35.25 577.78,33.14 552.69,31.27 587.44,28.67 528.26,24.24 544.16,23.05 515.13,20.88 489.33,22.81 477.73,21.3 506.2,19.17 483.38,17.47 467.49,18.65 449.03,17.27 431.78,18.57 449.31,19.88 430,21.32 410.69,19.88 421.88,19.04 408.51,18.04 365.75,21.24 380.9,22.37 332.86,25.96 361.15,28.08 346.22,29.19 364.63,30.57 336.46,32.67 361.55,34.55 326.79,37.15 374.56,40.72 352.69,42.36 375.77,44.08 381.74,43.64 399.11,44.93 424.9,43 436.49,44.51 406.43,46.76 447.7,49.85 456.72,49.17 440.48,47.96 463.67,46.22 479.93,47.44 490.57,46.64 505.73,47.78 548.48,44.58 533.34,43.45 581.38,39.86 553.09,37.74 Z M 476.52,49.12 L 492.09,50.29 507.67,49.12 492.09,47.96 476.52,49.12 Z M 383.26,44.76 L 398.84,45.92 383.26,47.09 367.68,45.92 383.26,44.76 Z M 383.26,44.76" />
        </g>
        <g id="basicBar-group2">
            <path id="basicBar-bezier4" stroke="none" fill="rgb(0, 0, 0)" d="M 71.31,5.02 L 71.31,5.03 C 71.08,7.16 71.16,9.32 71.53,11.44 L 71.71,11.56 C 70.27,10.51 68.77,9.55 67.22,8.66 L 67.2,8.64 C 65.84,7.7 64.74,6.43 63.98,4.96 63.49,4.08 63.21,3.45 63.21,3.45 L 63.17,3.49 C 61.34,5.51 60.93,8.43 62.13,10.87 L 62.16,10.81 C 59.55,10.12 56.79,10.16 54.21,10.95 63.41,17.06 58.46,17.56 53.08,20.09 47.72,22.63 47.32,25.78 47.32,25.78 53.74,23.68 56.3,26.37 56.3,26.37 52.84,29.67 55.92,34.81 55.92,34.81 59.28,41.22 67.6,43.95 75.04,45.07 L 75.55,45.14 C 80.06,45.77 84.62,45.97 89.17,45.74 L 71.98,51 56.74,54.83 C 56.74,54.83 41.62,53.22 36.06,40.46 30.52,27.69 40.21,17.65 39.24,16.99 38.32,16.36 37.14,17.76 37.02,17.91 41.24,5.87 53.95,6 54.45,4.73 54.97,3.45 51.95,3.37 51.95,3.37 64.8,-0.85 71.31,5.02 71.31,5.02 Z M 71.31,5.02" />
            <path id="basicBar-bezier5" stroke="none" fill="rgb(255, 255, 255)" d="M 565.42,39.44 L 565.42,77.99 C 580.19,77.9 582.12,77.99 584.64,74.73 L 584.64,36.82 C 579.91,39.32 575.03,39.4 565.42,39.44 Z M 565.42,39.44" />
            <path id="basicBar-bezier6" stroke="rgb(0, 0, 0)" stroke-width="1.38" stroke-miterlimit="10" fill="none" d="M 565.42,39.44 L 565.42,77.99 C 580.19,77.9 582.12,77.99 584.64,74.73 L 584.64,36.82 C 579.91,39.32 575.03,39.4 565.42,39.44 Z M 565.42,39.44" />
            <path id="basicBar-bezier7" stroke="rgb(0, 0, 0)" stroke-width="0.75" stroke-miterlimit="10" fill="none" d="M 565.42,74.84 C 585.3,77.1 583.61,71.22 584.49,71.05 M 564.81,42.3 C 581.27,42.25 582.75,41.11 584.24,39.97" />
            <path id="basicBar-bezier8" stroke="none" fill="rgb(255, 255, 255)" d="M 183.44,70.72 C 183.44,70.73 183.43,70.74 183.42,70.75 L 183.42,70.75 C 183.33,71.06 183.38,71.39 183.57,71.66 183.79,71.99 189.07,79.69 195.96,79.69 L 195.9,79.69 C 197.5,79.69 199.08,79.28 200.47,78.51 201.09,78.12 201.67,77.74 202.17,77.39 L 202.26,77.33 C 205.25,75.4 208.04,73.18 210.6,70.72 L 183.44,70.72 Z M 183.44,70.72" />
            <path id="basicBar-bezier9" stroke="none" fill="rgb(255, 255, 255)" d="M 13.85,46.22 L 13.85,84.13 49.85,79.44 49.85,41.53 13.85,46.22 Z M 13.85,46.22" />
            <path id="basicBar-bezier10" stroke="rgb(0, 0, 0)" stroke-width="1.38" stroke-miterlimit="10" fill="none" d="M 13.85,46.22 L 13.85,84.13 49.85,79.44 49.85,41.53 13.85,46.22 Z M 13.85,46.22" />
            <path id="basicBar-bezier11" stroke="rgb(0, 0, 0)" stroke-width="0.75" stroke-miterlimit="10" fill="none" d="M 14.64,48.76 L 49.86,44.29 M 14.64,81.31 L 49.86,76.33" />
            <path id="basicBar-bezier12" stroke="none" fill="rgb(220, 221, 222)" d="M 49.85,41.53 L 25.29,37.91 25.29,75.82 49.85,79.44 49.85,41.53 Z M 49.85,41.53" />
            <path id="basicBar-bezier13" stroke="rgb(0, 0, 0)" stroke-width="1.38" stroke-miterlimit="10" fill="none" d="M 49.85,41.53 L 25.29,37.91 25.29,75.82 49.85,79.44 49.85,41.53 Z M 49.85,41.53" />
            <path id="basicBar-bezier14" stroke="none" fill="rgb(255, 255, 255)" d="M 247.44,75.82 C 184.81,87.19 87.92,64.44 25.29,75.82 L 25.29,37.91 C 87.92,26.54 184.81,49.28 247.44,37.91 L 247.44,75.82 Z M 247.44,75.82" />
            <path id="basicBar-bezier15" stroke="rgb(0, 0, 0)" stroke-width="1.38" stroke-miterlimit="10" fill="none" d="M 247.44,75.82 C 184.81,87.19 87.92,64.44 25.29,75.82 L 25.29,37.91 C 87.92,26.54 184.81,49.28 247.44,37.91 L 247.44,75.82 Z M 247.44,75.82" />
            <path id="basicBar-bezier16" stroke="rgb(0, 0, 0)" stroke-width="0.75" stroke-miterlimit="10" fill="none" d="M 247.44,40.87 C 247.44,40.87 227.29,48.99 131.79,40.57 64.33,34.62 30.65,39.83 25.44,40.74 M 248.34,72.15 C 248.34,72.15 227.54,80.91 132.04,72.49 64.58,66.54 30.9,71.76 25.69,72.66" />
            <rect id="basicBar-rectangle" stroke="none" fill="rgb(255, 255, 255)" x="247.08" y="25.97" width="317.89" height="61.64" />
            <rect id="basicBar-rectangle2" stroke="rgb(0, 0, 0)" stroke-width="1.25" stroke-miterlimit="10" fill="none" x="247.08" y="25.97" width="317.89" height="61.64" />
            <path id="basicBar-bezier17" stroke="none" fill="rgb(255, 255, 255)" d="M 245.22,19.88 L 245.22,93.92 245.2,93.99 C 245.67,92.69 246.37,91.48 247.26,90.42 L 247.35,23.48 247.39,23.53 C 246.49,22.49 245.77,21.3 245.27,20.01" />
            <path id="basicBar-bezier18" stroke="rgb(0, 0, 0)" stroke-width="1.25" stroke-miterlimit="10" fill="none" d="M 245.22,19.88 L 245.22,93.92 245.2,93.99 C 245.67,92.69 246.37,91.48 247.26,90.42 L 247.35,23.48 247.39,23.53 C 246.49,22.49 245.77,21.3 245.27,20.01 L 245.22,19.88 Z M 245.22,19.88" />
            <path id="basicBar-bezier19" stroke="rgb(0, 0, 0)" stroke-width="1.25" stroke-miterlimit="10" fill="none" d="M 247.35,79.58 C 247.35,79.58 248.43,90.02 255.87,90.02 L 278.18,90.02 C 278.18,90.02 285.45,87.55 298.97,87.55 M 247.35,34.23 C 247.35,34.23 248.43,23.78 255.87,23.78 L 278.18,23.78 C 278.18,23.78 285.45,26.25 298.97,26.25" />
            <path id="basicBar-bezier20" stroke="none" fill="rgb(255, 255, 255)" d="M 567.83,19.88 L 567.83,93.92 567.86,93.99 C 567.38,92.69 566.68,91.48 565.79,90.42 L 565.7,23.48 565.66,23.53 C 566.57,22.49 567.29,21.3 567.78,20.01" />
            <path id="basicBar-bezier21" stroke="rgb(0, 0, 0)" stroke-width="1.25" stroke-miterlimit="10" fill="none" d="M 567.83,19.88 L 567.83,93.92 567.86,93.99 C 567.38,92.69 566.68,91.48 565.79,90.42 L 565.7,23.48 565.66,23.53 C 566.57,22.49 567.29,21.3 567.78,20.01 L 567.83,19.88 Z M 567.83,19.88" />
            <path id="basicBar-bezier22" stroke="rgb(0, 0, 0)" stroke-width="1.25" stroke-miterlimit="10" fill="none" d="M 565.71,79.58 C 565.71,79.58 564.62,90.02 557.19,90.02 L 534.87,90.02 C 534.87,90.02 527.61,87.55 514.08,87.55 M 565.71,34.23 C 565.71,34.23 564.62,23.78 557.18,23.78 L 534.87,23.78 C 534.87,23.78 527.6,26.25 514.08,26.25" />
            <path id="basicBar-bezier23" stroke="rgb(0, 0, 0)" stroke-width="0.75" stroke-miterlimit="10" fill="none" d="M 269.56,87.55 L 269.84,87.5 C 275.86,86.33 281.98,85.69 288.12,85.58 L 526.04,85.61 526.78,85.63 C 532.91,85.84 539.02,86.59 545.02,87.86 M 543.5,26.26 L 543.23,26.31 C 537.2,27.48 531.07,28.12 524.93,28.22 L 287.01,28.2 286.28,28.18 C 280.14,27.96 274.03,27.22 268.02,25.94" />
            <path id="basicBar-bezier24" stroke="none" fill="rgb(255, 255, 255)" d="M 84.15,21.04 L 84.17,21.05 C 86.23,21.92 87.81,23.64 88.5,25.77 85.61,25.67 84.76,23.45 84.15,21.04 Z M 84.15,21.04" />
            <path id="basicBar-bezier25" stroke="none" fill="rgb(0, 0, 0)" d="M 242.68,80.9 C 242.03,77.4 239.54,71.68 234.74,68.66 230.76,66.18 227.29,66.72 227.28,65.48 227.25,63.91 231.7,64.4 231.7,64.4 226.9,61.66 220.01,65.01 219.03,63.44 218.45,62.5 222.23,61.18 222.23,61.18 216.37,60.96 209.46,63.97 206.69,66.7 213.68,64.37 223.52,65.71 228.04,69.56 L 228.05,69.57 C 226.15,68.52 224.09,67.77 221.95,67.35 213.99,65.76 205.16,68.11 199.85,70.31 L 199.8,70.33 C 196.1,71.6 192.55,73.28 189.23,75.35 185.31,77.62 178,79.76 173.04,77.67 L 173.04,77.68 C 173.04,77.68 180.8,90.56 190.34,86.08 191.04,85.69 191.71,85.29 192.34,84.9 L 192.24,84.96 C 195.84,82.89 199.24,80.48 202.37,77.76 L 202.53,77.57 C 206.88,74.54 211.65,72.17 216.69,70.54 L 216.94,70.46 C 218.4,70.01 219.94,69.89 221.45,70.1 225.25,70.62 228.54,73.03 229.61,75.91 232.52,75.4 239.9,77.83 242.68,80.9 Z M 242.68,80.9" />
            <path id="basicBar-bezier26" stroke="none" fill="rgb(0, 0, 0)" d="M 77.42,34.65 C 76.62,30.34 70.66,29.6 67.59,31.59 L 67.56,31.64 C 68.77,28.82 71.02,26.57 73.85,25.37 L 73.78,25.27 C 72.22,24.7 70.61,24.25 68.98,23.94 71.38,22.53 76.22,21.4 78.67,21.61 L 78.65,21.6 C 78.16,21.46 77.65,21.36 77.15,21.3 L 77.68,18.51 C 77.4,16.16 75.27,13.47 72.74,11.86 71.48,8.27 72.71,1.74 74.44,-0 73.57,9.39 86.88,15.19 89.46,22.12 88,16.2 81.85,12.3 78.97,8.7 L 78.98,8.75 C 78.25,6.21 78.61,3.47 79.98,1.21 79.53,7.4 86.21,12.53 89.75,16.17 93.93,20.45 95.03,24.16 94.35,27.14 L 94.37,27.14 C 95.62,27.45 96.44,28.65 96.29,29.93 L 96.28,29.91 C 97.7,29.48 98.87,28.47 99.49,27.13 100.02,31.86 97.1,36.72 93.97,38.11 L 93.97,38.11 C 94.47,36.8 94.3,35.33 93.51,34.16 92.16,32.41 88.22,32.27 86.88,32.32 86.88,32.32 88.59,29.96 87.97,28.72 87.22,27.17 79.47,27.6 75.97,28.75 L 75.98,28.75 C 77.64,28.72 79.28,28.96 80.85,29.47 80.32,30.27 78.8,33.62 79.8,34.67 80.64,35.57 81.83,34.23 81.98,34.06 81.87,34.39 80.7,37.76 81.5,38.61 82.33,39.5 84.21,38.94 84.21,38.94 82.96,41.81 78.41,43.68 75.26,43.58 L 75.21,43.61 C 76.72,42.94 77.92,41.74 78.59,40.24 L 78.6,40.16 C 77.38,40.55 76.09,40.68 74.81,40.52 75.84,40.14 77.96,37.6 77.42,34.65 Z M 88.5,25.75 L 88.5,25.76 C 87.81,23.64 86.23,21.92 84.17,21.05 84.76,23.45 85.61,25.67 88.5,25.75 Z M 88.5,25.75" />
            <path id="basicBar-bezier27" stroke="none" fill="rgb(0, 0, 0)" d="M 60.83,17 C 61.35,15.18 57.8,11.94 56.46,11.31 L 56.47,11.31 C 59.03,11.18 61.59,11.51 64.03,12.3 L 63.9,12.22 C 62.63,10.02 62.37,7.38 63.2,4.97 65.7,11.66 75.43,13.02 77.68,18.51 L 77.21,21.31 C 73.37,20.81 67.7,21.95 64.84,25.12 L 64.9,25.12 C 66.48,25.29 68.04,25.62 69.55,26.11 65.06,26.7 59.1,30.5 57.31,32.33 57.84,29.87 58.6,27.8 58.06,26.29 57.3,24.17 54.77,23.2 49.64,24.1 53.18,20.77 60.29,18.86 60.83,17 Z M 60.83,17" />
            <path id="basicBar-bezier28" stroke="none" fill="rgb(0, 0, 0)" d="M 32.4,33.69 L 33.44,35.94 C 32.05,36.17 30.49,41.64 30.49,41.64 26.95,39.6 29.93,33.07 29.93,33.07 L 32.4,33.69 Z M 32.4,33.69" />
            <path id="basicBar-bezier29" stroke="none" fill="rgb(0, 0, 0)" d="M 24.67,32.76 L 24.76,32.7 C 25.65,32.06 26.63,31.53 27.66,31.13 L 29.11,32.62 28.27,32.88 C 28.27,32.88 26.72,37.93 27.35,40.02 L 28.37,42.95 C 28.37,42.95 25.06,42.3 24.55,41.03 24.55,41.03 23.49,35.34 24.67,32.76 Z M 24.67,32.76" />
            <path id="basicBar-bezier30" stroke="none" fill="rgb(0, 0, 0)" d="M 22.81,34.91 C 22.81,34.91 23.02,41.4 23.69,41.97 L 26.15,43.01 26.22,45.23 C 26.22,45.23 21.83,43.84 21.47,42.17 21.1,40.51 20.82,36.36 20.82,36.36 L 20.82,36.36 C 21.31,35.69 21.99,35.19 22.78,34.92" />
            <path id="basicBar-bezier33" stroke="none" fill="rgb(0, 0, 0)" d="M 242.2,19.11 L 242.2,19.09 C 242.23,20.44 241.15,21.54 239.8,21.57 238.45,21.59 237.34,20.52 237.31,19.17 237.31,19.16 237.31,19.15 237.31,19.13 L 237.31,19.13 C 237.29,17.78 238.37,16.68 239.72,16.65 241.07,16.63 242.18,17.7 242.2,19.05 242.2,19.06 242.2,19.07 242.2,19.09 M 239.75,21.07 L 239.74,21.07 C 240.74,21.1 241.58,20.33 241.61,19.33 241.62,19.26 241.61,19.18 241.61,19.11 L 241.61,19.1 C 241.66,18.08 240.88,17.21 239.85,17.16 238.83,17.11 237.96,17.89 237.9,18.91 237.9,18.97 237.9,19.04 237.9,19.1 L 237.9,19.1 C 237.82,20.1 238.55,20.98 239.55,21.06 239.61,21.07 239.68,21.07 239.74,21.07 M 240.35,19.46 C 241.26,19.25 241.08,17.86 239.97,17.86 L 238.77,17.86 238.77,20.36 239.43,20.36 239.43,19.58 239.66,19.58 240.26,20.36 240.98,20.36 240.98,20.22 240.35,19.46 Z M 239.97,18.45 L 239.96,18.45 C 240.12,18.44 240.25,18.57 240.26,18.73 240.27,18.88 240.14,19.02 239.98,19.02 239.98,19.02 239.97,19.02 239.97,19.02 L 239.43,19.02 239.43,18.45 239.97,18.45 Z M 239.97,18.45" />
            <path id="basicBar-bezier34" stroke="none" fill="rgb(0, 0, 0)" d="M 179.58,25.2 L 179.58,25.2 C 179.5,26.33 178.52,27.18 177.39,27.1 177.31,27.1 177.22,27.09 177.14,27.07 L 177.13,27.06 C 177.57,27.42 178.15,27.54 178.69,27.39 L 178.69,27.4 C 178.06,28.1 177.09,28.39 176.17,28.17 L 176.18,28.17 C 175.32,27.92 174.71,27.17 174.65,26.28 L 174.64,26.28 C 174.22,26.73 174.22,27.43 174.64,27.88 L 174.64,27.87 C 174.05,27.71 173.62,27.21 173.52,26.61 173.43,25.95 173.79,25.21 173.11,24.62 172.71,24.26 172.09,23.75 171.69,23.44 170.86,22.79 171.18,22.31 170.99,21.96 170.84,21.7 170.49,21.55 170.28,21.31 L 170.28,21.31 C 170.09,21.08 170.06,20.76 170.2,20.49 L 170.2,20.49 C 170.18,20.77 170.37,21.03 170.64,21.09 170.96,21.19 171.22,21.11 171.48,21.26 171.8,21.44 171.65,21.94 171.88,22.11 172.08,22.27 172.6,22.06 173.04,22.41 173.48,22.76 174.46,23.58 174.89,23.93 L 174.88,23.93 C 175.17,24.24 175.66,24.27 175.98,23.98 176.21,23.77 176.29,23.43 176.18,23.13 L 176.18,23.13 C 176.83,23.55 177.02,24.42 176.59,25.07 176.53,25.16 176.47,25.24 176.39,25.31 177,25.45 178.1,25.18 178.1,24.3 L 178.1,24.29 C 178.06,23.81 177.71,23.41 177.23,23.32 L 177.26,23.32 C 178.38,23.16 179.41,23.94 179.57,25.05 179.57,25.11 179.58,25.17 179.58,25.23 M 166.48,18.52 C 166.56,18.22 165.96,17.71 165.74,17.62 L 165.73,17.62 C 166.14,17.58 166.56,17.62 166.96,17.74 L 166.96,17.73 C 166.74,17.38 166.68,16.95 166.8,16.56 167.24,17.63 168.83,17.8 169.22,18.68 L 169.22,18.68 C 169.1,18.23 168.8,17.85 168.4,17.63 L 168.39,17.64 C 168.19,16.99 168.27,16.29 168.6,15.7 168.51,17.22 170.7,18.09 171.15,19.2 170.89,18.25 169.86,17.65 169.38,17.08 L 169.38,17.07 C 169.25,16.66 169.3,16.22 169.52,15.84 169.47,16.87 170.57,17.66 171.17,18.24 L 171.18,18.24 C 171.73,18.66 172.03,19.33 171.97,20.01 L 171.97,19.99 C 172.17,20.04 172.31,20.23 172.3,20.43 L 172.3,20.43 C 172.53,20.35 172.71,20.18 172.8,19.96 L 172.8,19.96 C 172.9,20.67 172.58,21.37 171.97,21.76 L 171.96,21.77 C 172.04,21.55 172,21.32 171.87,21.13 171.64,20.86 171,20.85 170.78,20.87 170.78,20.87 171.05,20.48 170.94,20.28 170.81,20.03 169.56,20.14 169,20.34 L 168.98,20.35 C 169.25,20.33 169.52,20.36 169.78,20.44 169.71,20.57 169.48,21.12 169.65,21.29 169.8,21.44 170,21.17 170,21.17 170,21.17 169.8,21.78 169.94,21.92 170.08,22.06 170.38,21.96 170.38,21.96 L 170.39,21.95 C 170.09,22.45 169.54,22.76 168.96,22.76 L 168.96,22.75 C 169.2,22.63 169.39,22.42 169.49,22.17 L 169.49,22.18 C 169.29,22.25 169.08,22.28 168.87,22.26 L 168.87,22.26 C 169.19,22.04 169.34,21.66 169.26,21.29 169.11,20.6 168.14,20.51 167.65,20.85 L 167.65,20.86 C 167.82,20.4 168.17,20.02 168.62,19.81 L 168.67,19.81 C 168.43,19.73 168.18,19.66 167.93,19.62 L 167.93,19.6 C 168.37,19.32 168.89,19.17 169.42,19.17 L 169.42,19.18 C 168.62,19.01 167.79,19.24 167.19,19.79 L 167.16,19.81 C 167.4,19.83 167.64,19.87 167.88,19.93 L 167.93,19.94 C 167.21,20.13 166.55,20.49 166.01,21 L 165.99,21.02 C 166.09,20.71 166.13,20.38 166.08,20.05 165.94,19.7 165.53,19.55 164.7,19.72 165.26,19.17 166.4,18.82 166.48,18.52 Z M 171.27,19.99 L 171.2,19.74 171.2,19.75 C 171.06,19.35 170.75,19.03 170.35,18.88 L 170,18.75 170.1,19.11 C 170.19,19.42 170.35,19.99 171.01,19.99 L 171.27,19.99 Z M 146.3,20.8 L 146.3,20.78 C 146.3,23.1 144.41,24.98 142.08,24.98 142.01,24.98 141.94,24.97 141.86,24.97 L 141.89,24.97 C 139.59,25.09 137.63,23.33 137.51,21.04 137.38,18.75 139.15,16.79 141.45,16.67 141.57,16.66 141.69,16.66 141.81,16.67 L 141.87,16.67 C 144.19,16.55 146.17,18.32 146.29,20.63 146.3,20.68 146.3,20.73 146.3,20.78 M 143.97,20.8 L 143.97,20.81 C 144.07,19.7 143.24,18.73 142.13,18.63 142.04,18.62 141.94,18.62 141.85,18.62 L 141.85,18.63 C 140.76,18.59 139.84,19.44 139.8,20.53 139.8,20.63 139.8,20.74 139.81,20.84 L 139.81,20.87 C 139.72,21.96 140.53,22.93 141.64,23.03 141.73,23.04 141.82,23.04 141.92,23.03 L 141.91,23.03 C 143.05,23.03 143.98,22.11 143.98,20.97 143.98,20.91 143.98,20.85 143.97,20.79 M 105.03,20.79 L 105.03,20.76 C 105.04,21.68 104.75,22.57 104.2,23.3 L 104.18,23.33 C 103.92,23.64 103.62,23.91 103.28,24.13 L 103.33,24.1 C 102.54,24.63 101.59,24.89 100.64,24.84 L 96.36,24.84 96.54,24.74 C 96.54,24.73 97.07,24.43 97.31,24.28 97.55,24.14 97.64,24.01 97.64,23.51 L 97.64,18.86 C 97.64,18.35 97.5,18.2 97.3,18.06 L 97.31,18.07 C 96.72,17.7 96.3,17.1 96.17,16.41 L 96.16,16.28 96.25,16.35 96.24,16.34 C 96.47,16.48 96.71,16.58 96.97,16.65 L 96.91,16.65 C 97.66,16.76 98.41,16.81 99.17,16.78 L 100.95,16.78 100.95,16.78 100.93,16.78 C 101.63,16.78 102.31,16.95 102.94,17.26 L 102.96,17.27 C 104.25,17.96 105.05,19.32 105.03,20.78 M 102.68,20.81 C 102.68,19.49 102,18.74 100.8,18.74 L 99.9,18.74 99.9,22.88 100.8,22.88 C 102,22.88 102.68,22.13 102.68,20.81 Z M 158.78,19.68 C 158.68,19.65 158.57,19.62 158.46,19.6 L 158.43,19.59 C 157.66,19.41 157.16,19.27 157.16,18.94 L 157.16,18.94 C 157.15,18.84 157.18,18.75 157.25,18.68 L 157.25,18.68 C 157.48,18.51 157.77,18.44 158.05,18.47 158.11,18.46 158.18,18.47 158.24,18.47 L 158.26,18.47 158.3,18.48 158.27,18.47 C 159.13,18.58 159.95,18.89 160.65,19.38 L 160.55,17.03 160.39,16.97 160.36,16.96 160.38,16.97 C 160.26,16.93 160.13,16.9 160,16.87 L 160.02,16.88 C 159.51,16.76 159,16.67 158.48,16.62 158.36,16.61 158.2,16.61 158.05,16.61 156.25,16.61 155.2,17.46 155.09,19 L 155.09,19.02 C 155.03,19.78 155.41,20.52 156.06,20.93 L 156.02,20.91 C 156.69,21.26 157.39,21.53 158.11,21.73 L 158.27,21.77 C 158.66,21.89 159.11,22.13 159.05,22.6 159.02,22.85 158.92,23.11 158.18,23.11 158.08,23.11 157.96,23.11 157.83,23.09 L 157.81,23.09 C 157.15,22.97 156.53,22.67 156.03,22.2 L 156.07,22.24 C 156.05,22.22 156.03,22.2 156,22.19 L 155.59,21.88 155.17,21.56 155.34,24.58 155.5,24.63 155.53,24.64 C 155.53,24.64 155.62,24.67 155.89,24.73 L 155.77,24.71 C 156.33,24.82 156.89,24.91 157.46,24.97 157.66,24.99 157.81,24.99 157.96,24.99 159.93,24.99 161.22,24.02 161.26,22.51 161.3,21.06 160.47,20.1 158.78,19.68 Z M 135.26,22.88 L 133.42,22.88 133.42,21.7 135.14,21.7 135.13,21.7 C 135.34,21.68 135.54,21.7 135.74,21.76 L 135.75,21.77 C 135.86,21.83 135.95,21.91 136.03,22.01 L 136.1,22.13 136.1,19.55 136.03,19.59 136.02,19.59 C 135.95,19.64 135.88,19.67 135.8,19.71 L 135.83,19.7 C 135.66,19.75 135.49,19.77 135.32,19.75 L 133.42,19.75 133.42,18.74 135.32,18.74 135.32,18.74 C 135.64,18.7 135.96,18.78 136.2,18.98 L 136.67,19.34 136.42,16.78 129.95,16.78 130.12,16.89 C 130.13,16.89 130.56,17.16 130.83,17.34 131.08,17.5 131.17,17.61 131.17,18.13 L 131.17,23.51 C 131.17,24.04 131.09,24.13 130.84,24.28 130.59,24.44 130.08,24.73 130.08,24.73 L 129.89,24.84 136.6,24.84 137.2,22.15 C 137.2,22.15 136.66,22.54 136.51,22.63 L 136.52,22.63 C 136.14,22.85 135.7,22.94 135.26,22.88 M 122.67,16.78 L 118.09,16.78 118.26,16.89 C 118.26,16.89 118.7,17.16 118.97,17.34 119.22,17.5 119.31,17.61 119.31,18.13 L 119.31,20.08 115.92,16.78 115.93,16.78 110.61,16.78 110.61,16.78 C 110.49,16.79 110.37,16.83 110.27,16.89 L 110.22,16.92 110.26,16.97 C 110.26,16.97 110.37,17.13 110.44,17.24 L 110.44,17.24 C 110.51,17.34 110.54,17.46 110.53,17.59 L 110.53,21.7 110.53,21.71 110.53,21.74 C 110.52,22.6 110.13,23.04 109.32,23.04 108.49,23.04 108.06,22.59 108.06,21.7 L 108.06,17.59 108.06,17.59 C 108.05,17.47 108.08,17.34 108.15,17.24 108.22,17.13 108.34,16.97 108.34,16.97 L 108.38,16.92 108.32,16.88 108.33,16.89 C 108.22,16.83 108.11,16.79 107.99,16.78 L 104.59,16.78 104.76,16.89 C 104.76,16.89 105.2,17.16 105.47,17.34 105.72,17.5 105.81,17.61 105.81,18.13 L 105.81,21.46 105.81,21.49 C 105.79,22.08 105.88,22.66 106.08,23.21 L 106.07,23.17 C 106.21,23.47 106.41,23.75 106.66,23.98 L 106.64,23.96 C 107.36,24.66 108.34,25.02 109.34,24.97 L 109.29,24.97 C 110.64,25.09 111.93,24.36 112.53,23.14 L 112.54,23.11 C 112.74,22.6 112.82,22.04 112.78,21.49 L 112.78,18.13 C 112.78,17.61 112.88,17.5 113.12,17.34 113.27,17.24 113.46,17.12 113.61,17.03 113.75,17.12 113.92,17.24 114.05,17.33 114.28,17.5 114.39,17.67 114.39,18.2 L 114.39,23.51 C 114.39,24.03 114.3,24.14 114.06,24.28 113.81,24.44 113.3,24.73 113.3,24.73 L 113.12,24.84 117.71,24.84 117.53,24.73 C 117.52,24.73 117.01,24.44 116.76,24.28 116.54,24.14 116.43,24.02 116.43,23.51 L 116.43,20.31 121.35,25.1 121.35,18.13 C 121.35,17.61 121.43,17.51 121.68,17.34 121.96,17.15 122.46,16.89 122.46,16.89 L 122.67,16.78 Z M 155.44,16.78 L 150.86,16.78 151.03,16.89 C 151.04,16.89 151.48,17.16 151.74,17.34 151.99,17.5 152.08,17.61 152.08,18.13 L 152.08,20.08 148.7,16.78 146.01,16.78 146.17,16.89 C 146.17,16.89 146.58,17.16 146.82,17.33 147.06,17.5 147.17,17.67 147.17,18.2 L 147.17,23.51 C 147.17,24.03 147.07,24.14 146.84,24.28 146.58,24.44 146.08,24.73 146.07,24.73 L 145.89,24.84 150.49,24.84 150.3,24.73 C 150.29,24.73 149.79,24.44 149.54,24.28 149.31,24.14 149.21,24.02 149.21,23.51 L 149.21,20.31 154.12,25.1 154.12,18.13 C 154.12,17.61 154.21,17.51 154.46,17.34 154.73,17.15 155.23,16.89 155.24,16.89 L 155.44,16.78 Z M 129.9,24.37 C 129.9,24.37 129.78,24.21 129.71,24.1 129.65,24.01 129.61,23.92 129.61,23.59 L 129.61,21.42 C 129.61,21.09 129.64,21.03 129.71,20.93 129.77,20.82 129.89,20.66 129.89,20.66 L 129.93,20.61 129.87,20.58 129.87,20.58 C 129.77,20.52 129.66,20.49 129.55,20.48 L 129.55,20.48 C 129.5,20.48 126.11,20.48 126.11,20.48 L 126.28,20.58 C 126.28,20.58 126.78,20.89 127.01,21.03 127.23,21.17 127.35,21.33 127.35,21.81 L 127.35,22.99 127.35,22.99 C 127.08,23.07 126.79,23.11 126.51,23.11 125.13,23.11 124.42,22.36 124.42,20.89 L 124.42,20.88 C 124.29,19.81 125.06,18.82 126.14,18.69 126.28,18.68 126.41,18.67 126.55,18.69 L 126.54,18.68 C 127.58,18.68 128.58,19.05 129.37,19.71 L 129.34,19.63 129.09,17.3 129.07,17.12 128.9,17.08 128.74,17.05 128.74,17.05 C 128.27,16.93 127.79,16.84 127.31,16.78 L 127.31,16.78 C 127.09,16.75 126.86,16.74 126.64,16.74 126.6,16.74 126.51,16.74 126.47,16.74 L 126.5,16.74 C 124.19,16.62 122.22,18.38 122.1,20.68 121.98,22.98 123.75,24.94 126.06,25.06 126.18,25.07 126.31,25.07 126.43,25.07 L 126.43,25.07 C 127.02,25.06 127.61,25 128.2,24.9 128.43,24.85 128.49,24.83 128.57,24.82 128.59,24.81 128.61,24.81 128.63,24.8 128.93,24.73 129.24,24.65 129.55,24.56 L 129.95,24.44 129.9,24.37 Z M 190.1,20.79 L 190.09,20.76 C 190.11,21.67 189.82,22.57 189.27,23.3 L 189.24,23.33 C 188.99,23.64 188.69,23.91 188.35,24.13 L 188.4,24.1 C 187.61,24.63 186.66,24.89 185.7,24.84 L 181.43,24.84 181.61,24.74 C 181.61,24.73 182.13,24.43 182.38,24.28 182.61,24.14 182.71,24.01 182.71,23.51 L 182.71,18.86 C 182.71,18.35 182.57,18.2 182.36,18.06 L 182.38,18.07 C 181.78,17.7 181.37,17.1 181.23,16.41 L 181.22,16.28 181.32,16.34 181.31,16.34 C 181.53,16.48 181.78,16.58 182.03,16.65 L 181.98,16.65 C 182.73,16.76 183.48,16.81 184.23,16.78 L 186.02,16.78 186.02,16.78 185.99,16.78 C 186.69,16.78 187.38,16.95 188,17.26 L 188.02,17.28 C 189.32,17.96 190.12,19.32 190.1,20.78 M 187.74,20.81 C 187.74,19.49 187.06,18.74 185.87,18.74 L 184.96,18.74 184.96,22.88 185.87,22.88 C 187.06,22.88 187.74,22.13 187.74,20.81 Z M 234.68,19.68 C 234.57,19.65 234.46,19.62 234.35,19.6 L 234.32,19.59 C 233.55,19.41 233.05,19.27 233.05,18.94 L 233.05,18.94 C 233.04,18.84 233.08,18.75 233.14,18.68 L 233.14,18.68 C 233.36,18.52 233.64,18.44 233.92,18.46 234,18.46 234.07,18.47 234.13,18.47 L 234.16,18.47 C 234.17,18.47 234.18,18.48 234.19,18.48 L 234.16,18.47 C 235.02,18.58 235.84,18.89 236.55,19.39 L 236.44,17.03 236.28,16.97 236.25,16.96 236.25,16.96 C 236.13,16.92 236,16.89 235.87,16.87 L 235.93,16.88 C 235.4,16.76 234.88,16.67 234.34,16.62 234.25,16.61 234.09,16.61 233.94,16.61 232.14,16.61 231.09,17.46 230.98,19 L 230.98,19.01 C 230.92,19.78 231.3,20.52 231.96,20.93 L 231.9,20.9 C 232.57,21.25 233.28,21.53 234.01,21.73 L 234.16,21.77 C 234.55,21.89 235,22.13 234.94,22.6 234.91,22.85 234.81,23.11 234.07,23.11 233.97,23.11 233.85,23.11 233.72,23.09 L 233.71,23.09 C 233.06,22.98 232.46,22.68 231.97,22.24 L 231.96,22.24 C 231.94,22.22 231.92,22.2 231.89,22.19 L 231.48,21.88 231.06,21.56 231.23,24.58 231.39,24.63 231.42,24.64 C 231.42,24.64 231.51,24.67 231.78,24.73 L 231.69,24.71 C 232.24,24.83 232.79,24.91 233.34,24.97 233.55,24.99 233.7,24.99 233.85,24.99 235.82,24.99 237.11,24.02 237.15,22.51 237.19,21.06 236.36,20.1 234.68,19.68 Z M 222.19,20.8 L 222.19,20.78 C 222.19,23.1 220.3,24.98 217.98,24.98 217.9,24.98 217.83,24.98 217.75,24.98 L 217.78,24.98 C 215.48,25.1 213.52,23.34 213.4,21.04 213.27,18.75 215.04,16.8 217.34,16.68 217.46,16.67 217.58,16.67 217.71,16.67 L 217.76,16.67 C 220.08,16.55 222.06,18.33 222.18,20.64 222.19,20.69 222.19,20.74 222.19,20.79 M 219.86,20.8 L 219.86,20.82 C 219.96,19.71 219.14,18.73 218.02,18.64 217.93,18.63 217.83,18.63 217.74,18.63 L 217.74,18.63 C 216.64,18.6 215.73,19.45 215.69,20.54 215.68,20.64 215.69,20.74 215.7,20.85 L 215.7,20.87 C 215.61,21.97 216.42,22.94 217.53,23.04 217.62,23.04 217.71,23.05 217.81,23.04 L 217.8,23.04 C 218.94,23.04 219.87,22.12 219.87,20.98 219.87,20.92 219.87,20.86 219.86,20.8 M 205.6,24.31 L 206.28,24.84 202.05,24.84 C 202.05,24.84 202.41,24.5 202.57,24.33 L 202.57,24.33 C 202.73,24.2 202.78,23.97 202.68,23.79 202.66,23.73 202.61,23.6 202.55,23.43 L 199.62,23.43 C 199.56,23.59 199.51,23.72 199.48,23.79 199.36,24.08 199.39,24.16 199.55,24.32 199.73,24.49 200.17,24.84 200.17,24.84 L 195.74,24.84 193.7,22.39 193.7,22.39 193.7,22.38 193.7,22.38 C 193.55,22.16 193.36,21.97 193.14,21.82 L 193.16,21.83 C 193.11,21.81 193.07,21.8 193.03,21.79 L 193.03,23.51 C 193.03,24.01 193.12,24.11 193.36,24.29 L 193.39,24.31 C 193.68,24.49 193.98,24.67 194.29,24.82 L 189.6,24.84 C 189.6,24.84 190.32,24.44 190.54,24.29 190.75,24.15 190.88,24.02 190.88,23.51 L 190.88,18.14 C 190.88,17.65 190.77,17.49 190.54,17.35 190.3,17.2 189.83,16.9 189.83,16.9 L 189.66,16.8 193.51,16.79 193.49,16.8 C 193.98,16.77 194.46,16.82 194.93,16.95 L 194.96,16.95 C 195.93,17.21 196.59,18.11 196.56,19.11 L 196.56,19.08 C 196.56,19.54 196.43,19.99 196.17,20.37 L 196.16,20.39 C 195.97,20.67 195.71,20.91 195.41,21.08 196.27,22.2 196.93,23.04 197.35,23.49 197.37,23.44 199.79,17.61 199.79,17.61 L 199.79,17.61 C 199.8,17.57 199.81,17.54 199.81,17.5 199.81,17.46 199.81,17.41 199.69,17.3 L 199.11,16.78 202.3,16.78 C 202.3,16.78 204.95,23.49 204.97,23.53 L 204.97,23.53 204.97,23.53 C 205.02,23.64 205.07,23.75 205.15,23.85 L 205.15,23.86 C 205.27,24.04 205.42,24.2 205.61,24.31 M 194.35,19.08 C 194.35,18.67 194.08,18.39 193.3,18.39 L 193.03,18.39 193.03,20.27 C 193.14,20.27 193.25,20.27 193.3,20.27 193.81,20.27 194.35,20.16 194.35,19.08 Z M 201.87,21.52 L 201.14,19.54 200.34,21.52 201.87,21.52 Z M 231.33,16.78 L 226.75,16.78 226.92,16.89 C 226.93,16.89 227.37,17.16 227.64,17.34 227.88,17.5 227.97,17.61 227.97,18.13 L 227.97,20.08 224.59,16.78 224.59,16.78 221.9,16.78 222.06,16.89 C 222.06,16.89 222.47,17.16 222.71,17.33 222.95,17.5 223.06,17.67 223.06,18.2 L 223.06,23.51 C 223.06,24.03 222.96,24.14 222.73,24.28 222.47,24.44 221.97,24.73 221.96,24.73 L 221.78,24.84 226.37,24.84 226.19,24.73 C 226.19,24.73 225.67,24.44 225.43,24.28 225.2,24.14 225.1,24.02 225.1,23.51 L 225.1,20.31 230.01,25.1 230.01,18.13 C 230.01,17.61 230.1,17.51 230.35,17.34 230.62,17.15 231.12,16.89 231.13,16.89 L 231.33,16.78 Z M 212.74,24.03 L 212.74,24.03 C 212.65,23.88 212.62,23.7 212.64,23.52 L 212.64,21.35 C 212.64,21.02 212.67,20.96 212.73,20.86 212.8,20.75 212.92,20.59 212.92,20.59 L 212.96,20.54 212.9,20.51 212.9,20.51 C 212.8,20.45 212.69,20.42 212.57,20.4 L 212.58,20.41 C 212.53,20.41 209.13,20.41 209.13,20.41 L 209.31,20.51 C 209.31,20.51 209.81,20.82 210.04,20.96 210.26,21.1 210.38,21.26 210.38,21.74 L 210.38,22.92 210.37,22.92 C 210.1,23 209.82,23.04 209.54,23.04 208.16,23.04 207.45,22.29 207.45,20.82 L 207.45,20.81 C 207.32,19.73 208.09,18.75 209.17,18.62 209.3,18.61 209.44,18.6 209.58,18.62 L 209.58,18.61 C 210.61,18.61 211.61,18.98 212.39,19.64 L 212.36,19.56 212.12,17.23 212.1,17.05 211.93,17.01 211.77,16.98 211.78,16.98 C 211.3,16.86 210.81,16.77 210.32,16.71 L 210.35,16.71 C 210.12,16.68 209.9,16.67 209.67,16.67 209.63,16.67 209.54,16.67 209.49,16.67 L 209.53,16.67 C 207.22,16.55 205.25,18.31 205.13,20.61 205.01,22.91 206.78,24.87 209.09,24.99 209.21,25 209.33,25 209.45,25 L 209.46,25 C 210.05,24.98 210.63,24.93 211.21,24.83 211.46,24.78 211.52,24.76 211.6,24.74 211.62,24.74 211.64,24.74 211.65,24.73 211.96,24.66 212.27,24.58 212.58,24.49 L 212.98,24.36 212.93,24.3 C 212.93,24.3 212.81,24.14 212.74,24.03 Z M 176.89,19.28 C 175.14,19.36 173.65,20.83 172.88,21.87 L 172.88,21.88 C 173.03,21.92 173.17,22 173.29,22.09 173.46,22.22 173.69,22.41 173.95,22.62 L 173.93,22.66 C 174.28,21.87 174.75,21.13 175.31,20.47 L 175.34,20.43 C 175.93,19.74 176.95,19.59 177.72,20.08 L 177.71,20.07 C 178.44,19.62 179.3,19.46 180.14,19.6 L 180.12,19.6 C 179.52,18.95 178.69,18.57 177.8,18.52 176.98,18.52 176.51,18.92 176.39,18.74 176.24,18.51 176.95,18.17 176.95,18.17 175.98,18.21 175.27,19.35 174.98,19.21 174.8,19.12 175.24,18.57 175.24,18.57 L 175.24,18.57 C 174.39,19.1 173.76,19.91 173.45,20.86 L 173.46,20.84 C 174.31,19.83 175.57,19.25 176.89,19.28 Z M 171.59,23.88 L 171.59,23.88 C 171.12,24.79 170.25,25.44 169.24,25.61 167.5,25.61 166.61,23.14 168.57,21.11 L 168.57,21.11 C 168.48,21.08 168.4,21.07 168.31,21.07 L 168.31,21.07 C 168.16,21.06 168.01,21.11 167.88,21.19 L 167.02,21.93 167.26,20.72 C 167.28,20.68 167.29,20.64 167.31,20.6 L 167.32,20.59 C 166.94,20.77 166.6,21.01 166.29,21.3 L 165.5,22.15 165.58,20.95 165.64,20.68 165.64,20.69 C 165.69,20.52 165.71,20.36 165.7,20.19 L 165.7,20.18 C 165.69,20.16 165.67,20.14 165.65,20.13 L 165.67,20.11 C 164.87,20.69 164.34,21.56 164.18,22.53 L 164.17,22.58 C 164.26,22.44 164.39,22.33 164.53,22.24 164.65,22.2 164.74,22.25 164.64,22.57 L 164.65,22.55 C 164.06,24.08 164.38,25.82 165.49,27.05 165.53,27.09 165.32,26.57 165.45,26.41 165.51,26.33 165.59,26.32 165.7,26.46 L 165.68,26.44 C 165.76,26.55 165.85,26.66 165.94,26.76 L 165.95,26.77 165.95,26.77 165.96,26.78 C 166.12,26.96 166.29,27.12 166.48,27.27 L 166.49,27.28 C 167.14,27.73 167.92,27.98 168.72,27.98 L 168.64,27.98 C 170.51,27.95 172.18,26.82 172.91,25.11 L 172.94,25.04 C 172.91,25 172.88,24.96 172.85,24.93 172.49,24.61 171.98,24.19 171.59,23.88 Z M 166.35,17.21 L 166.35,17.22 C 166.31,16.96 166.33,16.7 166.41,16.44 L 166.75,15.39 167.18,16.41 167.18,16.41 C 167.34,16.72 167.58,16.97 167.89,17.13 L 167.88,17.15 C 167.85,16.67 167.92,16.19 168.1,15.74 L 168.12,15.72 C 168.03,15.04 168.52,14.41 169.2,14.33 169.23,14.33 169.25,14.33 169.27,14.32 170.41,14.32 170.71,15.68 170.19,16.65 L 170.17,16.62 C 170.44,17 170.76,17.34 171.12,17.64 171.25,17.75 171.36,17.85 171.45,17.94 171.48,17.97 171.5,18 171.53,18.03 L 171.52,18.04 C 172.02,17.38 172.32,16.59 172.38,15.77 L 172.38,15.73 C 172.4,14.18 171.16,12.9 169.6,12.87 169.55,12.87 169.51,12.87 169.46,12.87 L 169.46,12.87 C 168.45,12.77 167.45,13.13 166.75,13.86 L 166.79,13.81 C 166.18,14.42 165.88,15.28 165.99,16.14 L 165.99,16.14 C 166.01,16.51 166.13,16.87 166.33,17.19" />
        </g>
    </g>
</svg>
