<?xml version="1.0" encoding="UTF-8"?>
<!DOCTYPE svg PUBLIC "-//W3C//DTD SVG 1.1//EN" "http://www.w3.org/Graphics/SVG/1.1/DTD/svg11.dtd">
<svg version="1.1" xmlns="http://www.w3.org/2000/svg" xmlns:xlink="http://www.w3.org/1999/xlink" width="559" height="95"  xml:space="preserve" id="basicBar">
    <!-- Generated by PaintCode - http://www.paintcodeapp.com -->
    <g id="basicBar-group" transform="scale(0.95, 0.95)" >
        <path id="basicBar-bezier" stroke="none" fill="rgb(212, 213, 214)" d="M 337.78,31.52 L 360.06,29.85 332.58,27.79 374.63,24.65 337.19,21.85 389.06,17.97 300.72,11.37 324.46,9.59 281.12,6.35 242.62,9.23 225.3,6.98 267.79,3.8 233.74,1.25 210.01,3.03 182.46,0.97 156.71,2.89 182.87,4.85 154.04,7.01 125.22,4.85 141.93,3.6 121.97,2.11 58.15,6.88 80.77,8.57 9.06,13.93 51.29,17.09 29,18.76 56.48,20.81 14.43,23.95 51.88,26.76 0,30.63 71.29,35.96 38.65,38.41 73.11,40.98 82.02,40.32 107.94,42.25 146.44,39.37 163.74,41.63 118.87,44.98 180.47,49.59 193.94,48.58 169.69,46.77 204.32,44.18 228.58,45.99 244.47,44.8 267.09,46.49 330.91,41.72 308.3,40.03 380.01,34.67 337.78,31.52 Z M 223.49,48.51 L 246.74,50.25 270,48.51 246.74,46.77 223.49,48.51 Z M 84.29,41.99 L 107.54,43.73 84.29,45.47 61.03,43.73 84.29,41.99 Z M 84.29,41.99" />
        <path id="basicBar-bezier2" stroke="none" fill="rgb(212, 213, 214)" d="M 388.92,83.74 L 407.03,82.39 384.7,80.72 418.86,78.17 388.44,75.89 430.58,72.74 358.82,67.38 378.1,65.94 342.9,63.3 311.62,65.64 297.56,63.81 332.07,61.23 304.41,59.16 285.14,60.6 262.76,58.93 241.84,60.49 263.09,62.09 239.68,63.84 216.26,62.09 229.83,61.07 213.62,59.86 161.78,63.73 180.15,65.11 121.9,69.46 156.2,72.03 138.1,73.38 160.42,75.05 126.27,77.6 156.68,79.88 114.54,83.03 172.46,87.36 145.94,89.34 173.93,91.43 181.17,90.89 202.22,92.47 233.5,90.13 247.55,91.96 211.1,94.68 261.14,98.42 272.08,97.6 252.38,96.13 280.51,94.03 300.22,95.5 313.13,94.54 331.5,95.91 383.34,92.04 364.98,90.66 423.23,86.31 388.92,83.74 Z M 296.08,97.55 L 314.97,98.96 333.86,97.55 314.97,96.13 296.08,97.55 Z M 183.01,92.25 L 201.9,93.66 183.01,95.08 164.12,93.66 183.01,92.25 Z M 183.01,92.25" />
        <path id="basicBar-bezier3" stroke="none" fill="rgb(212, 213, 214)" d="M 553.09,37.74 L 568.02,36.62 549.61,35.25 577.78,33.14 552.69,31.27 587.44,28.67 528.26,24.24 544.16,23.05 515.13,20.88 489.33,22.81 477.73,21.3 506.2,19.17 483.38,17.47 467.49,18.65 449.03,17.27 431.78,18.57 449.31,19.88 430,21.32 410.69,19.88 421.88,19.04 408.51,18.04 365.75,21.24 380.9,22.37 332.86,25.96 361.15,28.08 346.22,29.19 364.63,30.57 336.46,32.67 361.55,34.55 326.79,37.15 374.56,40.72 352.69,42.36 375.77,44.08 381.74,43.64 399.11,44.93 424.9,43 436.49,44.51 406.43,46.76 447.7,49.85 456.72,49.17 440.48,47.96 463.67,46.22 479.93,47.44 490.57,46.64 505.73,47.78 548.48,44.58 533.34,43.45 581.38,39.86 553.09,37.74 Z M 476.52,49.12 L 492.09,50.29 507.67,49.12 492.09,47.96 476.52,49.12 Z M 383.26,44.76 L 398.84,45.92 383.26,47.09 367.68,45.92 383.26,44.76 Z M 383.26,44.76" />
        <path id="basicBar-bezier4" stroke="none" fill="rgb(0, 0, 0)" d="M 78.5,4.97 L 78.5,4.98 C 78.28,7.09 78.36,9.22 78.72,11.31 L 78.9,11.44 C 77.47,10.4 76,9.44 74.48,8.56 L 74.45,8.55 C 73.11,7.61 72.02,6.36 71.28,4.9 70.79,4.04 70.51,3.41 70.51,3.41 L 70.48,3.45 C 68.68,5.45 68.27,8.34 69.45,10.76 L 69.49,10.7 C 66.91,10.01 64.19,10.06 61.64,10.84 70.71,16.88 65.83,17.37 60.53,19.88 55.24,22.39 54.85,25.51 54.85,25.51 61.18,23.43 63.7,26.09 63.7,26.09 60.29,29.35 63.33,34.44 63.33,34.44 66.64,40.78 74.84,43.48 82.18,44.59 L 82.68,44.66 C 87.13,45.29 91.63,45.48 96.11,45.25 L 79.16,50.46 64.14,54.25 C 64.14,54.25 49.23,52.65 43.75,40.03 38.28,27.4 47.84,17.46 46.88,16.81 45.97,16.19 44.81,17.57 44.69,17.72 48.85,5.81 61.38,5.94 61.88,4.68 62.39,3.41 59.41,3.33 59.41,3.33 72.08,-0.84 78.5,4.97 78.5,4.97 Z M 78.5,4.97" />
        <path id="basicBar-bezier5" stroke="none" fill="rgb(255, 255, 255)" d="M 565.69,39.02 L 565.69,77.16 C 580.26,77.07 582.15,77.16 584.64,73.93 L 584.64,36.43 C 579.98,38.91 575.16,38.98 565.69,39.02 Z M 565.69,39.02" />
        <path id="basicBar-bezier6" stroke="rgb(0, 0, 0)" stroke-width="1.38" stroke-miterlimit="10" fill="none" d="M 565.69,39.02 L 565.69,77.16 C 580.26,77.07 582.15,77.16 584.64,73.93 L 584.64,36.43 C 579.98,38.91 575.16,38.98 565.69,39.02 Z M 565.69,39.02" />
        <path id="basicBar-bezier7" stroke="rgb(0, 0, 0)" stroke-width="0.75" stroke-miterlimit="10" fill="none" d="M 565.69,74.05 C 585.29,76.28 583.62,70.47 584.49,70.29 M 565.09,41.85 C 581.32,41.8 582.77,40.68 584.24,39.55" />
        <path id="basicBar-bezier8" stroke="none" fill="rgb(255, 255, 255)" d="M 189.06,69.96 C 189.06,69.98 189.05,69.99 189.04,70 L 189.04,70 C 188.96,70.31 189.01,70.64 189.19,70.9 189.41,71.22 194.61,78.84 201.41,78.84 L 201.35,78.84 C 202.93,78.84 204.48,78.44 205.86,77.68 206.47,77.29 207.04,76.91 207.53,76.57 L 207.62,76.51 C 210.57,74.59 213.32,72.4 215.84,69.97 L 189.06,69.96 Z M 189.06,69.96" />
        <path id="basicBar-bezier9" stroke="none" fill="rgb(255, 255, 255)" d="M 21.85,45.73 L 21.85,83.23 57.35,78.59 57.35,41.09 21.85,45.73 Z M 21.85,45.73" />
        <path id="basicBar-bezier10" stroke="rgb(0, 0, 0)" stroke-width="1.38" stroke-miterlimit="10" fill="none" d="M 21.85,45.73 L 21.85,83.23 57.35,78.59 57.35,41.09 21.85,45.73 Z M 21.85,45.73" />
        <path id="basicBar-bezier11" stroke="rgb(0, 0, 0)" stroke-width="0.75" stroke-miterlimit="10" fill="none" d="M 22.63,48.24 L 57.35,43.82 M 22.63,80.45 L 57.35,75.52" />
        <path id="basicBar-bezier12" stroke="none" fill="rgb(212, 213, 214)" d="M 57.35,41.09 L 33.13,37.51 33.13,75.01 57.35,78.59 57.35,41.09 Z M 57.35,41.09" />
        <path id="basicBar-bezier13" stroke="rgb(0, 0, 0)" stroke-width="1.38" stroke-miterlimit="10" fill="none" d="M 57.35,41.09 L 33.13,37.51 33.13,75.01 57.35,78.59 57.35,41.09 Z M 57.35,41.09" />
        <path id="basicBar-bezier14" stroke="none" fill="rgb(255, 255, 255)" d="M 252.17,75.01 C 190.42,86.26 94.88,63.76 33.13,75.01 L 33.13,37.51 C 94.88,26.26 190.42,48.76 252.17,37.51 L 252.17,75.01 Z M 252.17,75.01" />
        <path id="basicBar-bezier15" stroke="rgb(0, 0, 0)" stroke-width="1.38" stroke-miterlimit="10" fill="none" d="M 252.17,75.01 C 190.42,86.26 94.88,63.76 33.13,75.01 L 33.13,37.51 C 94.88,26.26 190.42,48.76 252.17,37.51 L 252.17,75.01 Z M 252.17,75.01" />
        <path id="basicBar-bezier16" stroke="rgb(0, 0, 0)" stroke-width="0.75" stroke-miterlimit="10" fill="none" d="M 252.17,40.43 C 252.17,40.43 232.3,48.47 138.13,40.14 71.62,34.25 38.41,39.41 33.28,40.31 M 253.05,71.39 C 253.05,71.39 232.55,80.05 138.38,71.72 71.87,65.83 38.66,70.99 33.53,71.89" />
        <rect id="basicBar-rectangle" stroke="none" fill="rgb(255, 255, 255)" x="252.08" y="25.97" width="313.89" height="60.64" />
        <rect id="basicBar-rectangle2" stroke="rgb(0, 0, 0)" stroke-width="1.25" stroke-miterlimit="10" fill="none" x="252.08" y="25.97" width="313.89" height="60.64" />
        <path id="basicBar-bezier17" stroke="none" fill="rgb(255, 255, 255)" d="M 249.98,19.67 L 249.98,92.92 249.95,92.99 C 250.42,91.7 251.11,90.51 251.99,89.46 L 252.08,23.23 252.12,23.28 C 251.23,22.25 250.52,21.07 250.03,19.8" />
        <path id="basicBar-bezier18" stroke="rgb(0, 0, 0)" stroke-width="1.25" stroke-miterlimit="10" fill="none" d="M 249.98,19.67 L 249.98,92.92 249.95,92.99 C 250.42,91.7 251.11,90.51 251.99,89.46 L 252.08,23.23 252.12,23.28 C 251.23,22.25 250.52,21.07 250.03,19.8 L 249.98,19.67 Z M 249.98,19.67" />
        <path id="basicBar-bezier19" stroke="rgb(0, 0, 0)" stroke-width="1.25" stroke-miterlimit="10" fill="none" d="M 252.08,78.73 C 252.08,78.73 253.14,89.06 260.48,89.06 L 282.48,89.06 C 282.48,89.06 289.64,86.62 302.98,86.62 M 252.08,33.86 C 252.08,33.86 253.14,23.53 260.48,23.53 L 282.48,23.53 C 282.48,23.53 289.64,25.98 302.98,25.98" />
        <path id="basicBar-bezier20" stroke="none" fill="rgb(255, 255, 255)" d="M 568.07,19.67 L 568.07,92.92 568.09,92.99 C 567.62,91.7 566.93,90.51 566.05,89.46 L 565.97,23.23 565.93,23.28 C 566.82,22.25 567.53,21.07 568.02,19.8" />
        <path id="basicBar-bezier21" stroke="rgb(0, 0, 0)" stroke-width="1.25" stroke-miterlimit="10" fill="none" d="M 568.07,19.67 L 568.07,92.92 568.09,92.99 C 567.62,91.7 566.93,90.51 566.05,89.46 L 565.97,23.23 565.93,23.28 C 566.82,22.25 567.53,21.07 568.02,19.8 L 568.07,19.67 Z M 568.07,19.67" />
        <path id="basicBar-bezier22" stroke="rgb(0, 0, 0)" stroke-width="1.25" stroke-miterlimit="10" fill="none" d="M 565.97,78.73 C 565.97,78.73 564.9,89.06 557.57,89.06 L 535.57,89.06 C 535.57,89.06 528.4,86.62 515.07,86.62 M 565.97,33.86 C 565.97,33.86 564.9,23.53 557.57,23.53 L 535.57,23.53 C 535.57,23.53 528.4,25.98 515.07,25.98" />
        <path id="basicBar-bezier23" stroke="rgb(0, 0, 0)" stroke-width="0.75" stroke-miterlimit="10" fill="none" d="M 273.98,86.62 L 274.25,86.56 C 280.19,85.41 286.22,84.78 292.27,84.67 L 526.87,84.69 527.59,84.72 C 533.64,84.93 539.66,85.67 545.58,86.93 M 544.07,25.98 L 543.81,26.03 C 537.86,27.18 531.82,27.82 525.77,27.92 L 291.18,27.9 290.47,27.88 C 284.41,27.67 278.39,26.93 272.46,25.67" />
        <path id="basicBar-bezier24" stroke="none" fill="rgb(255, 255, 255)" d="M 91.16,20.82 L 91.18,20.83 C 93.22,21.69 94.77,23.39 95.46,25.49 92.6,25.4 91.76,23.2 91.16,20.82 Z M 91.16,20.82" />
        <path id="basicBar-bezier25" stroke="none" fill="rgb(0, 0, 0)" d="M 247.47,80.04 C 246.83,76.57 244.38,70.92 239.64,67.93 235.72,65.47 232.3,66.01 232.29,64.78 232.26,63.23 236.65,63.71 236.65,63.71 231.91,61 225.12,64.32 224.15,62.77 223.58,61.83 227.31,60.53 227.31,60.53 221.54,60.32 214.72,63.29 211.99,65.99 218.88,63.68 228.58,65.01 233.04,68.82 L 233.05,68.83 C 231.17,67.79 229.14,67.05 227.03,66.64 219.18,65.06 210.48,67.39 205.24,69.57 L 205.2,69.58 C 201.55,70.84 198.05,72.51 194.78,74.55 190.91,76.8 183.7,78.91 178.81,76.84 L 178.81,76.85 C 178.81,76.85 186.46,89.6 195.87,85.17 196.56,84.78 197.22,84.39 197.84,84 L 197.74,84.06 C 201.29,82.01 204.64,79.62 207.73,76.93 L 207.89,76.75 C 212.17,73.75 216.88,71.4 221.85,69.79 L 222.09,69.71 C 223.53,69.27 225.05,69.15 226.54,69.36 230.29,69.87 233.53,72.25 234.59,75.1 237.46,74.6 244.73,77 247.47,80.04 Z M 247.47,80.04" />
        <path id="basicBar-bezier26" stroke="none" fill="rgb(0, 0, 0)" d="M 84.53,34.28 C 83.74,30.02 77.86,29.29 74.83,31.25 L 74.81,31.3 C 76,28.51 78.22,26.29 81.01,25.1 L 80.94,25 C 79.4,24.44 77.82,24 76.21,23.68 78.57,22.29 83.34,21.17 85.76,21.38 L 85.74,21.37 C 85.26,21.23 84.76,21.13 84.26,21.07 L 84.78,18.31 C 84.51,15.99 82.41,13.33 79.91,11.73 78.67,8.18 79.88,1.72 81.59,-0 80.73,9.29 93.85,15.03 96.4,21.88 94.96,16.03 88.89,12.17 86.05,8.61 L 86.07,8.66 C 85.35,6.14 85.7,3.44 87.05,1.19 86.61,7.32 93.19,12.4 96.68,16 100.8,20.23 101.89,23.9 101.22,26.85 L 101.24,26.85 C 102.47,27.16 103.29,28.34 103.13,29.61 L 103.12,29.59 C 104.52,29.17 105.67,28.16 106.29,26.84 106.81,31.52 103.93,36.33 100.84,37.7 L 100.84,37.7 C 101.34,36.41 101.17,34.95 100.4,33.8 99.06,32.07 95.17,31.93 93.85,31.98 93.85,31.98 95.54,29.64 94.93,28.41 94.19,26.88 86.55,27.31 83.1,28.44 L 83.11,28.44 C 84.74,28.41 86.36,28.65 87.91,29.16 87.39,29.95 85.89,33.26 86.87,34.3 87.7,35.19 88.87,33.87 89.02,33.7 88.91,34.02 87.76,37.36 88.55,38.2 89.37,39.08 91.22,38.53 91.22,38.53 89.99,41.37 85.5,43.22 82.4,43.12 L 82.35,43.14 C 83.84,42.48 85.02,41.3 85.68,39.81 L 85.69,39.73 C 84.49,40.12 83.21,40.24 81.96,40.09 82.97,39.71 85.06,37.2 84.53,34.28 Z M 95.45,25.48 L 95.46,25.49 C 94.77,23.39 93.22,21.69 91.18,20.83 91.76,23.2 92.6,25.4 95.45,25.48 Z M 95.45,25.48" />
        <path id="basicBar-bezier27" stroke="none" fill="rgb(0, 0, 0)" d="M 68.17,16.82 C 68.68,15.02 65.18,11.81 63.86,11.19 L 63.87,11.19 C 66.4,11.06 68.93,11.39 71.33,12.17 L 71.2,12.09 C 69.95,9.91 69.69,7.3 70.51,4.92 72.97,11.54 82.56,12.88 84.78,18.31 L 84.32,21.08 C 80.53,20.59 74.94,21.72 72.12,24.85 L 72.19,24.86 C 73.75,25.02 75.28,25.35 76.77,25.83 72.34,26.42 66.46,30.18 64.7,31.99 65.22,29.55 65.97,27.5 65.44,26.01 64.69,23.91 62.19,22.95 57.14,23.84 60.63,20.55 67.64,18.66 68.17,16.82 Z M 68.17,16.82" />
        <path id="basicBar-bezier28" stroke="none" fill="rgb(0, 0, 0)" d="M 40.14,33.34 L 41.16,35.56 C 39.79,35.79 38.25,41.2 38.25,41.2 34.76,39.18 37.7,32.72 37.7,32.72 L 40.14,33.34 Z M 40.14,33.34" />
        <path id="basicBar-bezier29" stroke="none" fill="rgb(0, 0, 0)" d="M 32.52,32.42 L 32.6,32.36 C 33.49,31.72 34.45,31.19 35.47,30.8 L 36.89,32.28 36.07,32.53 C 36.07,32.53 34.54,37.53 35.16,39.6 L 36.16,42.5 C 36.16,42.5 32.9,41.85 32.4,40.6 32.4,40.6 31.35,34.97 32.52,32.42 Z M 32.52,32.42" />
        <path id="basicBar-bezier30" stroke="none" fill="rgb(0, 0, 0)" d="M 30.68,34.54 C 30.68,34.54 30.89,40.96 31.55,41.53 L 33.97,42.56 34.04,44.75 C 34.04,44.75 29.72,43.38 29.36,41.73 29,40.08 28.72,35.98 28.72,35.98 L 28.72,35.97 C 29.21,35.31 29.88,34.81 30.65,34.55" />
        <path id="basicBar-bezier33" stroke="none" fill="rgb(0, 0, 0)" d="M 247,18.91 L 247,18.89 C 247.02,20.22 245.96,21.32 244.63,21.34 243.3,21.36 242.2,20.3 242.18,18.97 242.18,18.96 242.18,18.94 242.18,18.93 L 242.18,18.93 C 242.16,17.6 243.22,16.5 244.55,16.47 245.88,16.45 246.98,17.51 247,18.84 247,18.86 247,18.87 247,18.88 M 244.59,20.84 L 244.58,20.84 C 245.56,20.88 246.39,20.11 246.42,19.13 246.42,19.05 246.42,18.98 246.42,18.91 L 246.42,18.9 C 246.47,17.89 245.69,17.03 244.68,16.98 243.68,16.92 242.81,17.7 242.76,18.71 242.76,18.77 242.76,18.84 242.76,18.9 L 242.76,18.9 C 242.68,19.88 243.4,20.75 244.39,20.84 244.45,20.84 244.51,20.85 244.58,20.84 M 245.18,19.25 C 246.08,19.04 245.89,17.67 244.8,17.67 L 243.61,17.67 243.61,20.15 244.27,20.15 244.27,19.38 244.5,19.38 245.09,20.15 245.79,20.15 245.79,20 245.18,19.25 Z M 244.8,18.25 L 244.79,18.25 C 244.95,18.25 245.08,18.37 245.09,18.53 245.09,18.68 244.97,18.81 244.81,18.82 244.81,18.82 244.8,18.82 244.8,18.82 L 244.27,18.82 244.27,18.25 244.8,18.25 Z M 244.8,18.25" />
        <path id="basicBar-bezier34" stroke="none" fill="rgb(0, 0, 0)" d="M 185.26,24.94 L 185.26,24.94 C 185.18,26.05 184.21,26.89 183.1,26.81 183.02,26.81 182.93,26.8 182.85,26.78 L 182.84,26.78 C 183.27,27.13 183.84,27.25 184.38,27.1 L 184.38,27.11 C 183.76,27.8 182.8,28.09 181.9,27.87 L 181.9,27.87 C 181.06,27.63 180.45,26.88 180.39,26 L 180.39,26 C 179.97,26.44 179.97,27.13 180.39,27.58 L 180.39,27.58 C 179.81,27.41 179.38,26.92 179.28,26.33 179.19,25.67 179.55,24.94 178.88,24.35 178.48,24 177.88,23.5 177.48,23.19 176.66,22.55 176.97,22.07 176.79,21.73 176.64,21.47 176.3,21.32 176.09,21.08 L 176.09,21.08 C 175.91,20.85 175.87,20.54 176.01,20.28 L 176.01,20.27 C 175.99,20.55 176.17,20.8 176.45,20.87 176.76,20.97 177.01,20.88 177.27,21.04 177.58,21.22 177.44,21.7 177.66,21.88 177.87,22.03 178.37,21.83 178.8,22.17 179.24,22.52 180.21,23.33 180.63,23.68 L 180.63,23.67 C 180.91,23.98 181.39,24.01 181.7,23.73 181.94,23.52 182.02,23.18 181.9,22.89 L 181.9,22.88 C 182.55,23.3 182.73,24.16 182.31,24.8 182.25,24.89 182.19,24.97 182.11,25.04 182.71,25.18 183.79,24.91 183.79,24.04 L 183.79,24.03 C 183.76,23.56 183.41,23.16 182.94,23.07 L 182.97,23.07 C 184.07,22.92 185.09,23.69 185.24,24.79 185.25,24.85 185.26,24.9 185.26,24.96 M 172.34,18.32 C 172.42,18.03 171.83,17.52 171.62,17.43 L 171.6,17.43 C 172.01,17.39 172.42,17.43 172.82,17.55 L 172.81,17.54 C 172.6,17.2 172.54,16.77 172.66,16.38 173.09,17.44 174.66,17.61 175.04,18.48 L 175.04,18.48 C 174.92,18.04 174.63,17.66 174.23,17.44 L 174.23,17.45 C 174.03,16.81 174.1,16.12 174.43,15.54 174.34,17.04 176.5,17.9 176.95,19 176.68,18.06 175.68,17.46 175.2,16.9 L 175.2,16.89 C 175.07,16.48 175.12,16.04 175.34,15.67 175.28,16.69 176.38,17.48 176.96,18.04 L 176.97,18.05 C 177.52,18.46 177.81,19.12 177.75,19.8 L 177.75,19.78 C 177.96,19.82 178.09,20.01 178.08,20.22 L 178.08,20.21 C 178.3,20.14 178.48,19.97 178.58,19.75 L 178.57,19.75 C 178.67,20.45 178.35,21.15 177.76,21.53 L 177.75,21.54 C 177.82,21.32 177.78,21.09 177.65,20.91 177.43,20.64 176.8,20.63 176.58,20.65 176.58,20.65 176.85,20.26 176.74,20.06 176.61,19.82 175.38,19.93 174.82,20.13 L 174.81,20.13 C 175.07,20.11 175.34,20.15 175.6,20.22 175.53,20.35 175.3,20.9 175.46,21.06 175.61,21.21 175.81,20.95 175.81,20.95 175.81,20.95 175.62,21.55 175.75,21.68 175.89,21.82 176.19,21.72 176.19,21.72 L 176.19,21.71 C 175.9,22.21 175.36,22.51 174.78,22.51 L 174.79,22.51 C 175.03,22.39 175.21,22.18 175.31,21.93 L 175.31,21.94 C 175.11,22.01 174.9,22.04 174.69,22.02 L 174.7,22.02 C 175.01,21.8 175.16,21.43 175.08,21.06 174.93,20.38 173.98,20.29 173.5,20.63 L 173.49,20.64 C 173.67,20.18 174.01,19.81 174.46,19.6 L 174.5,19.6 C 174.26,19.52 174.02,19.45 173.77,19.41 L 173.77,19.39 C 174.21,19.12 174.72,18.97 175.24,18.97 L 175.24,18.97 C 174.45,18.81 173.63,19.03 173.04,19.58 L 173.01,19.6 C 173.25,19.62 173.49,19.66 173.72,19.72 L 173.77,19.72 C 173.06,19.91 172.41,20.28 171.88,20.78 L 171.85,20.8 C 171.96,20.49 171.99,20.16 171.95,19.83 171.81,19.49 171.4,19.34 170.59,19.51 171.14,18.96 172.27,18.62 172.34,18.32 Z M 177.07,19.78 L 176.99,19.53 176.99,19.54 C 176.86,19.14 176.55,18.83 176.16,18.68 L 175.81,18.55 175.91,18.9 C 176,19.21 176.16,19.78 176.81,19.78 L 177.07,19.78 Z M 152.44,20.58 L 152.44,20.55 C 152.44,22.85 150.58,24.71 148.29,24.71 148.21,24.71 148.14,24.71 148.07,24.7 L 148.09,24.7 C 145.83,24.82 143.89,23.08 143.77,20.81 143.65,18.55 145.4,16.61 147.66,16.49 147.78,16.49 147.9,16.49 148.02,16.49 L 148.08,16.49 C 150.37,16.37 152.32,18.13 152.44,20.42 152.44,20.46 152.44,20.51 152.44,20.56 M 150.15,20.58 L 150.15,20.59 C 150.24,19.49 149.43,18.53 148.33,18.43 148.24,18.42 148.15,18.42 148.06,18.43 L 148.05,18.43 C 146.98,18.39 146.07,19.23 146.04,20.31 146.03,20.41 146.04,20.52 146.05,20.62 L 146.05,20.64 C 145.95,21.73 146.76,22.69 147.85,22.78 147.94,22.79 148.03,22.79 148.12,22.79 L 148.11,22.79 C 149.24,22.79 150.16,21.88 150.16,20.75 150.16,20.69 150.15,20.63 150.15,20.57 M 111.75,20.57 L 111.75,20.54 C 111.77,21.44 111.48,22.33 110.93,23.05 L 110.91,23.08 C 110.66,23.39 110.36,23.66 110.03,23.87 L 110.08,23.84 C 109.3,24.37 108.36,24.63 107.42,24.58 L 103.21,24.58 103.39,24.47 C 103.39,24.47 103.9,24.17 104.14,24.03 104.37,23.89 104.47,23.75 104.47,23.26 L 104.47,18.66 C 104.47,18.15 104.33,18.01 104.13,17.87 L 104.14,17.88 C 103.56,17.51 103.15,16.91 103.01,16.23 L 103,16.11 103.1,16.17 103.09,16.16 C 103.31,16.3 103.55,16.41 103.8,16.47 L 103.75,16.47 C 104.48,16.59 105.23,16.63 105.97,16.6 L 107.73,16.6 107.73,16.61 107.71,16.61 C 108.4,16.61 109.07,16.77 109.69,17.08 L 109.71,17.09 C 110.99,17.77 111.78,19.11 111.75,20.56 M 109.43,20.59 C 109.43,19.29 108.76,18.54 107.59,18.54 L 106.69,18.54 106.69,22.64 107.59,22.64 C 108.76,22.64 109.43,21.89 109.43,20.59 Z M 164.75,19.47 C 164.65,19.44 164.54,19.42 164.43,19.39 L 164.4,19.38 C 163.64,19.2 163.15,19.06 163.15,18.74 L 163.15,18.74 C 163.14,18.64 163.18,18.55 163.24,18.48 L 163.24,18.48 C 163.47,18.31 163.75,18.24 164.03,18.27 164.09,18.27 164.15,18.27 164.22,18.28 L 164.24,18.28 164.28,18.28 164.25,18.28 C 165.09,18.38 165.9,18.69 166.6,19.18 L 166.49,16.84 166.34,16.79 166.31,16.78 166.33,16.79 C 166.21,16.75 166.08,16.72 165.96,16.69 L 165.98,16.7 C 165.47,16.58 164.96,16.5 164.45,16.44 164.34,16.44 164.18,16.43 164.03,16.43 162.26,16.43 161.22,17.27 161.11,18.8 L 161.11,18.81 C 161.05,19.57 161.42,20.3 162.07,20.7 L 162.03,20.68 C 162.69,21.03 163.38,21.3 164.09,21.49 L 164.24,21.54 C 164.63,21.66 165.08,21.9 165.01,22.36 164.98,22.61 164.89,22.87 164.16,22.87 164.05,22.87 163.94,22.86 163.81,22.85 L 163.8,22.85 C 163.14,22.73 162.53,22.42 162.04,21.97 L 162.07,22 C 162.05,21.98 162.03,21.97 162.01,21.95 L 161.61,21.65 161.19,21.33 161.36,24.32 161.51,24.37 161.54,24.38 C 161.55,24.38 161.63,24.41 161.9,24.47 L 161.78,24.44 C 162.33,24.56 162.89,24.65 163.44,24.71 163.64,24.72 163.79,24.73 163.94,24.73 165.88,24.73 167.16,23.76 167.2,22.27 167.23,20.83 166.41,19.89 164.75,19.47 Z M 141.55,22.64 L 139.75,22.64 139.75,21.47 141.44,21.47 141.43,21.47 C 141.63,21.45 141.84,21.47 142.03,21.53 L 142.04,21.53 C 142.15,21.59 142.24,21.68 142.31,21.78 L 142.39,21.89 142.39,19.34 142.32,19.38 142.31,19.39 C 142.24,19.43 142.17,19.46 142.09,19.5 L 142.12,19.49 C 141.96,19.54 141.78,19.56 141.62,19.54 L 139.75,19.54 139.75,18.54 141.62,18.54 141.62,18.54 C 141.93,18.5 142.25,18.59 142.49,18.78 L 142.95,19.13 142.7,16.61 136.32,16.61 136.49,16.71 C 136.5,16.71 136.93,16.98 137.19,17.15 137.43,17.31 137.53,17.42 137.53,17.94 L 137.53,23.26 C 137.53,23.78 137.45,23.87 137.2,24.03 136.96,24.18 136.45,24.47 136.45,24.47 L 136.27,24.58 142.88,24.58 143.48,21.91 C 143.48,21.91 142.94,22.3 142.79,22.39 L 142.8,22.39 C 142.43,22.6 141.99,22.69 141.56,22.64 M 129.14,16.61 L 124.63,16.61 124.8,16.71 C 124.8,16.71 125.23,16.98 125.5,17.15 125.74,17.31 125.83,17.42 125.83,17.94 L 125.83,19.87 122.49,16.6 122.5,16.61 117.25,16.6 117.25,16.6 C 117.13,16.61 117.02,16.65 116.92,16.71 L 116.87,16.74 116.91,16.79 C 116.91,16.79 117.02,16.95 117.09,17.05 L 117.09,17.05 C 117.16,17.15 117.19,17.28 117.18,17.4 L 117.18,21.47 117.18,21.48 117.18,21.51 C 117.17,22.36 116.79,22.8 115.98,22.8 115.16,22.8 114.74,22.35 114.74,21.47 L 114.74,17.4 114.74,17.41 C 114.73,17.28 114.76,17.16 114.83,17.05 114.9,16.95 115.01,16.79 115.02,16.79 L 115.05,16.74 115,16.71 115,16.71 C 114.9,16.65 114.79,16.61 114.67,16.6 L 111.32,16.61 111.49,16.71 C 111.49,16.71 111.92,16.98 112.19,17.15 112.43,17.31 112.52,17.42 112.52,17.94 L 112.52,21.23 112.52,21.26 C 112.5,21.84 112.59,22.42 112.79,22.96 L 112.78,22.92 C 112.92,23.22 113.12,23.5 113.36,23.72 L 113.34,23.71 C 114.05,24.39 115.02,24.75 116.01,24.7 L 115.95,24.7 C 117.29,24.82 118.55,24.1 119.14,22.9 L 119.15,22.87 C 119.35,22.36 119.43,21.81 119.4,21.26 L 119.4,17.94 C 119.4,17.42 119.49,17.31 119.73,17.15 119.87,17.06 120.06,16.94 120.21,16.85 120.35,16.94 120.52,17.06 120.64,17.15 120.88,17.32 120.99,17.49 120.99,18 L 120.99,23.26 C 120.99,23.77 120.89,23.88 120.66,24.03 120.41,24.18 119.91,24.47 119.91,24.47 L 119.72,24.58 124.26,24.58 124.07,24.47 C 124.07,24.47 123.57,24.18 123.32,24.03 123.1,23.88 123,23.77 123,23.26 L 123,20.09 127.84,24.83 127.84,17.94 C 127.84,17.43 127.93,17.32 128.17,17.15 128.44,16.97 128.93,16.71 128.94,16.71 L 129.14,16.61 Z M 161.46,16.61 L 156.94,16.61 157.11,16.71 C 157.12,16.71 157.55,16.98 157.81,17.15 158.05,17.31 158.14,17.42 158.14,17.94 L 158.14,19.87 154.81,16.61 152.16,16.61 152.31,16.71 C 152.32,16.71 152.72,16.98 152.96,17.15 153.19,17.32 153.3,17.49 153.3,18 L 153.3,23.26 C 153.3,23.77 153.21,23.88 152.97,24.03 152.72,24.18 152.23,24.47 152.22,24.47 L 152.04,24.58 156.57,24.58 156.39,24.47 C 156.38,24.47 155.88,24.18 155.64,24.03 155.41,23.88 155.31,23.77 155.31,23.26 L 155.31,20.09 160.16,24.83 160.16,17.94 C 160.16,17.43 160.24,17.32 160.49,17.15 160.76,16.97 161.25,16.71 161.25,16.71 L 161.46,16.61 Z M 136.27,24.11 C 136.27,24.11 136.16,23.95 136.09,23.84 136.03,23.75 135.99,23.67 135.99,23.34 L 135.99,21.19 C 135.99,20.87 136.02,20.81 136.08,20.71 136.15,20.6 136.27,20.44 136.27,20.44 L 136.31,20.39 136.25,20.36 136.24,20.36 C 136.15,20.31 136.04,20.27 135.93,20.26 L 135.93,20.26 C 135.88,20.26 132.53,20.26 132.53,20.26 L 132.7,20.36 C 132.7,20.36 133.2,20.67 133.43,20.81 133.65,20.95 133.76,21.1 133.76,21.58 L 133.76,22.75 133.76,22.75 C 133.49,22.83 133.21,22.87 132.93,22.86 131.57,22.86 130.87,22.13 130.87,20.67 L 130.87,20.66 C 130.74,19.59 131.5,18.62 132.57,18.49 132.7,18.48 132.84,18.47 132.97,18.49 L 132.96,18.48 C 133.98,18.48 134.97,18.84 135.75,19.5 L 135.72,19.42 135.47,17.11 135.46,16.94 135.29,16.9 135.13,16.87 135.13,16.87 C 134.67,16.75 134.2,16.66 133.72,16.61 L 133.72,16.6 C 133.5,16.57 133.28,16.56 133.06,16.56 133.02,16.56 132.93,16.56 132.89,16.56 L 132.92,16.56 C 130.65,16.44 128.71,18.19 128.59,20.46 128.47,22.74 130.21,24.68 132.49,24.8 132.61,24.8 132.73,24.8 132.85,24.8 L 132.85,24.8 C 133.43,24.79 134.02,24.73 134.59,24.63 134.83,24.59 134.89,24.57 134.97,24.55 134.98,24.55 135,24.54 135.02,24.54 135.32,24.47 135.62,24.39 135.93,24.3 L 136.32,24.18 136.27,24.11 Z M 195.63,20.57 L 195.62,20.54 C 195.64,21.44 195.35,22.33 194.81,23.05 L 194.78,23.08 C 194.53,23.39 194.24,23.66 193.9,23.87 L 193.95,23.84 C 193.17,24.37 192.24,24.63 191.29,24.58 L 187.08,24.58 187.26,24.47 C 187.26,24.47 187.78,24.17 188.01,24.02 188.25,23.89 188.34,23.75 188.34,23.26 L 188.34,18.66 C 188.34,18.15 188.2,18.01 188,17.87 L 188.02,17.88 C 187.43,17.51 187.02,16.92 186.89,16.23 L 186.88,16.11 186.97,16.17 186.96,16.17 C 187.18,16.3 187.42,16.41 187.67,16.47 L 187.63,16.47 C 188.36,16.59 189.1,16.63 189.84,16.6 L 191.61,16.6 191.61,16.61 191.58,16.6 C 192.27,16.6 192.95,16.77 193.56,17.08 L 193.58,17.09 C 194.86,17.77 195.65,19.11 195.63,20.56 M 193.31,20.59 C 193.31,19.29 192.63,18.54 191.46,18.54 L 190.56,18.54 190.56,22.64 191.46,22.64 C 192.63,22.64 193.31,21.89 193.31,20.59 Z M 239.58,19.47 C 239.47,19.44 239.36,19.42 239.26,19.39 L 239.23,19.38 C 238.47,19.2 237.97,19.06 237.97,18.74 L 237.97,18.74 C 237.97,18.64 238,18.55 238.07,18.48 L 238.06,18.48 C 238.29,18.32 238.56,18.24 238.84,18.27 238.92,18.27 238.98,18.27 239.04,18.28 L 239.07,18.28 C 239.08,18.28 239.09,18.28 239.11,18.28 L 239.07,18.28 C 239.92,18.38 240.73,18.69 241.42,19.18 L 241.32,16.84 241.16,16.79 241.14,16.78 241.13,16.78 C 241.01,16.74 240.89,16.71 240.76,16.69 L 240.81,16.7 C 240.3,16.58 239.78,16.49 239.25,16.44 239.16,16.43 239.01,16.43 238.86,16.43 237.08,16.43 236.05,17.27 235.93,18.8 L 235.93,18.81 C 235.88,19.57 236.25,20.3 236.9,20.71 L 236.85,20.68 C 237.51,21.03 238.2,21.3 238.92,21.5 L 239.07,21.54 C 239.46,21.66 239.9,21.9 239.84,22.36 239.81,22.6 239.71,22.86 238.99,22.86 238.88,22.86 238.77,22.86 238.64,22.85 L 238.63,22.85 C 237.99,22.73 237.39,22.44 236.91,22.01 L 236.9,22 C 236.88,21.98 236.86,21.97 236.84,21.95 L 236.43,21.64 236.02,21.33 236.18,24.31 236.34,24.37 236.37,24.38 C 236.37,24.38 236.46,24.41 236.73,24.47 L 236.64,24.45 C 237.18,24.56 237.72,24.65 238.26,24.7 238.47,24.72 238.62,24.73 238.77,24.73 240.71,24.73 241.99,23.76 242.02,22.27 242.06,20.83 241.24,19.89 239.58,19.47 Z M 227.27,20.58 L 227.27,20.56 C 227.27,22.86 225.41,24.72 223.11,24.72 223.04,24.72 222.97,24.71 222.9,24.71 L 222.92,24.71 C 220.65,24.83 218.72,23.09 218.6,20.82 218.48,18.55 220.22,16.62 222.49,16.5 222.61,16.49 222.73,16.49 222.85,16.49 L 222.9,16.5 C 225.19,16.38 227.14,18.13 227.26,20.42 227.27,20.47 227.27,20.52 227.27,20.57 M 224.98,20.58 L 224.97,20.6 C 225.07,19.5 224.26,18.54 223.16,18.44 223.07,18.43 222.98,18.43 222.88,18.43 L 222.88,18.44 C 221.8,18.4 220.9,19.24 220.86,20.32 220.86,20.42 220.86,20.52 220.87,20.62 L 220.87,20.65 C 220.78,21.74 221.58,22.7 222.67,22.79 222.76,22.8 222.86,22.8 222.95,22.8 L 222.94,22.8 C 224.07,22.8 224.98,21.88 224.98,20.75 224.98,20.69 224.98,20.64 224.97,20.58 M 210.91,24.05 L 211.58,24.58 207.41,24.58 C 207.41,24.58 207.77,24.24 207.93,24.07 L 207.93,24.07 C 208.08,23.94 208.13,23.71 208.03,23.53 208.01,23.48 207.96,23.35 207.9,23.18 L 205.01,23.18 C 204.96,23.34 204.91,23.47 204.88,23.54 204.76,23.82 204.79,23.9 204.95,24.06 205.13,24.23 205.56,24.58 205.56,24.58 L 201.19,24.58 199.18,22.16 199.18,22.15 199.18,22.15 199.17,22.15 C 199.04,21.92 198.85,21.73 198.63,21.59 L 198.64,21.6 C 198.6,21.58 198.56,21.56 198.51,21.56 L 198.52,23.26 C 198.52,23.76 198.61,23.85 198.85,24.03 L 198.88,24.05 C 199.16,24.23 199.46,24.4 199.76,24.56 L 195.13,24.58 C 195.13,24.58 195.85,24.18 196.07,24.03 196.27,23.89 196.4,23.77 196.4,23.26 L 196.4,17.95 C 196.4,17.46 196.29,17.3 196.06,17.16 195.83,17.02 195.36,16.72 195.36,16.72 L 195.2,16.62 198.99,16.62 198.97,16.62 C 199.45,16.59 199.93,16.64 200.4,16.77 L 200.42,16.77 C 201.38,17.03 202.03,17.91 202,18.9 L 202,18.88 C 202,19.33 201.87,19.78 201.62,20.16 L 201.61,20.17 C 201.42,20.45 201.16,20.69 200.86,20.85 201.71,21.96 202.37,22.79 202.77,23.24 202.8,23.19 205.19,17.43 205.19,17.43 L 205.19,17.43 C 205.2,17.39 205.2,17.35 205.2,17.31 205.2,17.28 205.2,17.23 205.08,17.12 L 204.52,16.61 207.66,16.61 C 207.66,16.61 210.28,23.24 210.29,23.28 L 210.29,23.28 210.29,23.28 C 210.34,23.39 210.39,23.5 210.46,23.6 L 210.47,23.6 C 210.59,23.78 210.74,23.94 210.92,24.06 M 199.82,18.88 C 199.82,18.47 199.55,18.2 198.78,18.2 L 198.52,18.2 198.52,20.06 C 198.63,20.06 198.74,20.06 198.78,20.06 199.29,20.06 199.82,19.95 199.82,18.88 Z M 207.23,21.29 L 206.51,19.33 205.73,21.29 207.23,21.29 Z M 236.29,16.61 L 231.77,16.61 231.94,16.71 C 231.94,16.71 232.37,16.98 232.64,17.15 232.88,17.31 232.97,17.42 232.97,17.94 L 232.97,19.87 229.64,16.61 229.64,16.61 226.98,16.61 227.14,16.71 C 227.14,16.71 227.55,16.98 227.78,17.15 228.02,17.32 228.13,17.49 228.13,18 L 228.13,23.26 C 228.13,23.77 228.03,23.88 227.8,24.03 227.55,24.18 227.05,24.47 227.05,24.47 L 226.87,24.58 231.4,24.58 231.21,24.47 C 231.21,24.47 230.71,24.18 230.46,24.03 230.24,23.88 230.14,23.77 230.14,23.26 L 230.14,20.09 234.98,24.83 234.98,17.94 C 234.98,17.43 235.07,17.32 235.31,17.15 235.58,16.97 236.08,16.71 236.08,16.71 L 236.29,16.61 Z M 217.95,23.77 L 217.95,23.78 C 217.87,23.62 217.83,23.45 217.86,23.27 L 217.86,21.12 C 217.86,20.8 217.89,20.73 217.95,20.64 218.01,20.53 218.13,20.37 218.13,20.37 L 218.17,20.32 218.11,20.29 218.11,20.29 C 218.01,20.24 217.9,20.2 217.79,20.19 L 217.79,20.19 C 217.75,20.19 214.4,20.19 214.4,20.19 L 214.57,20.29 C 214.57,20.29 215.07,20.6 215.29,20.74 215.51,20.88 215.62,21.03 215.62,21.51 L 215.62,22.68 215.62,22.68 C 215.35,22.76 215.07,22.8 214.8,22.79 213.43,22.79 212.74,22.05 212.74,20.6 L 212.74,20.59 C 212.61,19.52 213.36,18.55 214.43,18.42 214.56,18.41 214.7,18.41 214.84,18.42 L 214.84,18.42 C 215.85,18.42 216.83,18.77 217.61,19.43 L 217.58,19.35 217.34,17.04 217.32,16.87 217.15,16.83 216.99,16.8 217.01,16.8 C 216.53,16.68 216.05,16.59 215.57,16.53 L 215.59,16.54 C 215.37,16.5 215.15,16.49 214.93,16.49 214.89,16.49 214.8,16.49 214.75,16.49 L 214.79,16.49 C 212.51,16.37 210.57,18.12 210.45,20.39 210.33,22.67 212.08,24.61 214.35,24.73 214.47,24.73 214.59,24.73 214.71,24.73 L 214.72,24.73 C 215.3,24.72 215.87,24.66 216.44,24.56 216.69,24.52 216.75,24.5 216.83,24.48 216.85,24.48 216.86,24.47 216.88,24.47 217.18,24.4 217.49,24.32 217.8,24.23 L 218.19,24.11 218.14,24.04 C 218.14,24.04 218.02,23.88 217.95,23.77 Z M 182.6,19.07 C 180.88,19.16 179.41,20.61 178.65,21.64 L 178.65,21.64 C 178.8,21.69 178.94,21.76 179.06,21.86 179.22,21.99 179.45,22.18 179.7,22.38 L 179.69,22.42 C 180.04,21.64 180.49,20.9 181.04,20.25 L 181.07,20.21 C 181.66,19.53 182.66,19.38 183.42,19.86 L 183.42,19.86 C 184.13,19.41 184.98,19.25 185.81,19.39 L 185.79,19.39 C 185.19,18.75 184.38,18.37 183.51,18.33 182.69,18.33 182.23,18.72 182.11,18.54 181.97,18.32 182.66,17.98 182.66,17.98 181.71,18.02 181.01,19.14 180.72,19 180.55,18.92 180.98,18.38 180.98,18.38 L 180.98,18.37 C 180.14,18.9 179.52,19.7 179.21,20.64 L 179.22,20.61 C 180.06,19.62 181.3,19.05 182.6,19.07 Z M 177.38,23.63 L 177.38,23.63 C 176.92,24.53 176.06,25.17 175.06,25.34 173.34,25.34 172.47,22.89 174.41,20.88 L 174.4,20.88 C 174.32,20.86 174.23,20.84 174.14,20.84 L 174.15,20.84 C 174,20.84 173.85,20.88 173.72,20.96 L 172.87,21.69 173.11,20.5 C 173.13,20.46 173.14,20.42 173.16,20.38 L 173.17,20.37 C 172.8,20.55 172.45,20.79 172.15,21.07 L 171.38,21.91 171.46,20.72 171.51,20.46 171.51,20.47 C 171.56,20.31 171.58,20.14 171.57,19.97 L 171.57,19.97 C 171.56,19.95 171.54,19.93 171.52,19.91 L 171.54,19.9 C 170.76,20.47 170.23,21.33 170.08,22.29 L 170.06,22.34 C 170.16,22.2 170.28,22.09 170.41,22.01 170.53,21.96 170.63,22.01 170.53,22.33 L 170.54,22.31 C 169.95,23.83 170.27,25.55 171.36,26.76 171.4,26.81 171.2,26.28 171.32,26.12 171.38,26.05 171.46,26.04 171.57,26.18 L 171.55,26.16 C 171.63,26.27 171.72,26.37 171.81,26.47 L 171.82,26.49 171.82,26.49 171.83,26.5 C 171.98,26.67 172.15,26.83 172.34,26.98 L 172.35,26.98 C 172.99,27.44 173.76,27.68 174.55,27.68 L 174.47,27.68 C 176.31,27.65 177.96,26.54 178.68,24.84 L 178.71,24.77 C 178.68,24.73 178.65,24.69 178.62,24.66 178.27,24.35 177.76,23.93 177.38,23.63 Z M 172.21,17.03 L 172.21,17.04 C 172.18,16.78 172.2,16.52 172.27,16.27 L 172.61,15.22 173.03,16.24 173.03,16.24 C 173.19,16.54 173.43,16.79 173.73,16.95 L 173.72,16.96 C 173.69,16.49 173.76,16.01 173.94,15.57 L 173.95,15.55 C 173.87,14.88 174.35,14.26 175.03,14.18 175.05,14.18 175.07,14.17 175.09,14.17 176.22,14.17 176.51,15.51 176,16.47 L 175.98,16.45 C 176.25,16.82 176.56,17.16 176.91,17.45 177.04,17.56 177.15,17.66 177.24,17.75 177.27,17.78 177.29,17.81 177.32,17.84 L 177.31,17.85 C 177.81,17.2 178.1,16.42 178.15,15.6 L 178.16,15.57 C 178.18,14.03 176.96,12.76 175.42,12.74 175.37,12.73 175.32,12.74 175.28,12.74 L 175.28,12.73 C 174.29,12.63 173.3,12.99 172.6,13.71 L 172.65,13.66 C 172.04,14.27 171.75,15.12 171.86,15.96 L 171.86,15.96 C 171.88,16.33 172,16.69 172.19,17" />
    </g>
</svg>
