<?xml version="1.0" encoding="UTF-8"?>
<!DOCTYPE svg PUBLIC "-//W3C//DTD SVG 1.1//EN" "http://www.w3.org/Graphics/SVG/1.1/DTD/svg11.dtd">
<svg version="1.1" xmlns="http://www.w3.org/2000/svg" xmlns:xlink="http://www.w3.org/1999/xlink" width="55" height="30"  xml:space="preserve" id="block14">
    <!-- Generated by PaintCode - http://www.paintcodeapp.com -->
    <path id="block14-bezier" stroke="none" fill="rgb(255, 255, 255)" d="M 54.3,18.7 L 54.3,11.3 45.9,0.7 9.1,0.7 0.7,11.3 0.7,18.7 9.1,29.3 45.9,29.3 54.3,18.7 Z M 54.3,18.7" />
    <path id="block14-bezier2" stroke="none" fill="rgb(0, 0, 0)" d="M 55,11 L 46.3,-0 8.7,-0 0,11 0,19 8.7,30 46.2,30 55,19 55,11 Z M 42.5,1.4 C 43.1,1.8 43.7,2.2 44.2,2.6 42.4,1.9 39.5,1.4 35.6,2.4 32.4,3.3 31.1,2.8 30.5,2.3 30.3,2.1 30.1,1.8 30.1,1.4 L 42.5,1.4 Z M 25,1.4 C 24.9,1.7 24.8,2 24.6,2.3 24,2.9 22.7,3.3 19.5,2.4 15.7,1.4 12.8,1.9 10.9,2.6 11.4,2.2 12,1.8 12.6,1.4 L 25,1.4 Z M 1.4,11.5 L 2.8,9.8 C 3.8,11.4 4.4,13.2 4.4,15.1 4.4,17 3.9,18.8 2.9,20.3 L 1.5,18.5 1.4,11.5 Z M 12.5,28.6 C 11.9,28.2 11.3,27.8 10.8,27.4 12.6,28.1 15.5,28.6 19.4,27.6 22.6,26.7 23.9,27.2 24.5,27.7 24.7,27.9 24.9,28.2 24.9,28.6 L 12.5,28.6 Z M 30,28.6 C 30.1,28.3 30.2,28 30.4,27.7 31,27.1 32.3,26.7 35.5,27.6 39.3,28.6 42.2,28.1 44.1,27.4 43.6,27.8 43,28.2 42.4,28.6 L 30,28.6 Z M 45.6,28.6 L 43.7,28.6 C 44.8,27.8 45.7,27 46.5,26.2 L 46.5,26.2 46.5,26.2 C 48.3,24.2 49.2,22.3 49.6,20.8 50,19.3 50.1,17.8 49.8,16.3 L 49,16.4 C 49.1,16.6 50.2,21.1 46,25.6 L 46,25.6 C 46,25.6 42.2,28.7 35.7,26.9 32.9,26.1 31,26.2 30,27.2 29.7,27.6 29.4,28 29.4,28.5 L 25.7,28.5 C 25.6,28 25.4,27.5 25.1,27.2 24.1,26.2 22.2,26.1 19.4,26.9 12.8,28.7 9,25.7 9,25.6 L 9,25.6 C 4.8,21 5.9,16.6 6,16.4 L 5.4,16.2 C 5.1,17.7 5.1,19.3 5.6,20.7 6,22.2 6.9,24.1 8.7,26.1 L 8.7,26.1 8.7,26.1 C 9.4,26.9 10.4,27.7 11.4,28.5 L 9.5,28.5 3.4,20.8 C 4.6,19.1 5.2,17 5.2,14.9 5.2,12.8 4.6,10.7 3.4,9 L 9.5,1.3 11.4,1.3 C 10.3,2.1 9.4,2.9 8.7,3.7 L 8.7,3.7 8.7,3.7 C 6.9,5.7 6,7.6 5.6,9.1 5.2,10.6 5.1,12.1 5.4,13.6 L 6,13.6 C 5.9,13.4 4.8,8.9 9,4.4 L 9,4.4 9,4.4 C 9,4.4 12.8,1.3 19.3,3.1 22.1,3.9 24,3.7 25,2.8 25.3,2.4 25.6,2 25.6,1.5 L 29.3,1.5 C 29.4,2 29.6,2.5 29.9,2.8 30.9,3.8 32.8,3.9 35.6,3.1 42.2,1.3 46,4.3 46,4.4 L 46,4.4 C 50.2,9 49.1,13.4 49,13.6 L 49.6,13.8 49.6,13.8 C 49.9,12.3 49.9,10.7 49.4,9.3 49,7.8 48.1,5.9 46.3,3.9 L 46.3,3.9 46.3,3.9 C 45.6,3.1 44.6,2.3 43.6,1.5 L 45.5,1.5 51.6,9.2 C 49.2,12.8 49.2,17.4 51.6,21 L 45.6,28.6 Z M 52.2,20.3 C 50.2,17.1 50.2,13 52.2,9.8 L 53.6,11.5 53.6,18.5 52.2,20.3 Z M 52.2,20.3" />
    <path id="block14-bezier3" stroke="none" fill="rgb(255, 255, 255)" d="M 4,16.5 L 4,16.5 C 4.8,16.9 5.8,16.5 6.2,15.6 6.6,14.8 6.2,13.8 5.3,13.4 4.9,13.2 4.4,13.2 4,13.4 L 3.9,13.5 C 3.8,13.5 3.8,13.6 3.7,13.6 L 1.2,15 3.7,16.4 C 3.7,16.4 3.8,16.5 3.9,16.5 L 4,16.5 Z M 4,16.5" />
    <path id="block14-bezier4" stroke="none" fill="rgb(0, 0, 0)" d="M 1.9,15 L 4.1,16.2 C 4.8,16.5 5.6,16.2 5.9,15.5 6.2,14.8 5.9,14 5.2,13.7 4.9,13.6 4.5,13.6 4.2,13.7 L 4,13.8 C 4,13.8 3.9,13.8 3.9,13.9 L 1.9,15 Z M 4.7,17 C 4.4,17 4.2,16.9 3.9,16.8 L 3.8,16.7 C 3.7,16.7 3.7,16.6 3.6,16.6 L 0.6,15 3.6,13.3 C 3.6,13.3 3.7,13.3 3.7,13.2 L 3.9,13.1 C 4.9,12.6 6.1,13.1 6.5,14.1 7,15.1 6.5,16.3 5.5,16.7 5.2,16.9 4.9,17 4.7,17 Z M 4.7,17" />
    <path id="block14-bezier5" stroke="none" fill="rgb(255, 255, 255)" d="M 51,16.5 L 51,16.5 C 50.2,16.9 49.2,16.5 48.8,15.6 48.4,14.8 48.8,13.8 49.7,13.4 50.1,13.2 50.6,13.2 51,13.4 L 51.1,13.5 C 51.2,13.5 51.2,13.6 51.3,13.6 L 53.8,15 51.3,16.4 C 51.3,16.4 51.2,16.5 51.1,16.5 L 51,16.5 Z M 51,16.5" />
    <path id="block14-bezier6" stroke="none" fill="rgb(0, 0, 0)" d="M 50.3,13.7 C 49.6,13.7 49,14.3 49,15 49,15.7 49.6,16.3 50.3,16.3 50.5,16.3 50.7,16.3 50.8,16.2 L 53,15 51,13.9 C 51,13.9 50.9,13.9 50.9,13.8 L 50.7,13.7 C 50.7,13.7 50.5,13.7 50.3,13.7 Z M 50.3,17 C 49.2,17 48.3,16.1 48.3,15 48.3,13.9 49.2,13 50.3,13 L 50.3,13 C 50.6,13 50.8,13.1 51.1,13.2 L 51.2,13.3 C 51.3,13.3 51.3,13.4 51.4,13.4 L 54.4,15 51.4,16.7 C 51.4,16.7 51.3,16.7 51.3,16.8 L 51.2,16.9 C 50.9,16.9 50.6,17 50.3,17 Z M 50.3,17" />
</svg>
