<?xml version="1.0" encoding="UTF-8"?>
<!DOCTYPE svg PUBLIC "-//W3C//DTD SVG 1.1//EN" "http://www.w3.org/Graphics/SVG/1.1/DTD/svg11.dtd">
<svg version="1.1" xmlns="http://www.w3.org/2000/svg" xmlns:xlink="http://www.w3.org/1999/xlink" width="55" height="30"  xml:space="preserve" id="block13">
    <!-- Generated by PaintCode - http://www.paintcodeapp.com -->
    <path id="block13-bezier" stroke="none" fill="rgb(255, 255, 255)" d="M 54.3,18.7 L 54.3,11.3 45.9,0.7 9.1,0.7 0.7,11.3 0.7,18.7 9.1,29.3 45.9,29.3 54.3,18.7 Z M 54.3,18.7" />
    <path id="block13-bezier2" stroke="none" fill="rgb(0, 0, 0)" d="M 55,11 L 46.3,-0 8.7,-0 0,11 0,19 8.7,30 46.2,30 55,19 55,11 Z M 53.2,18.9 L 52.2,20.2 C 50.2,17 50.2,12.9 52.2,9.7 L 53.2,11 C 52,11.6 51.1,12.8 50.9,14.2 L 51.5,14.3 51.5,14.3 C 51.7,13.1 52.5,12.1 53.6,11.6 L 53.6,18.4 C 52.5,17.9 51.8,16.9 51.5,15.7 L 50.9,15.8 C 51.1,17.1 52,18.3 53.2,18.9 Z M 3.6,15.7 C 3.4,16.9 2.6,17.9 1.5,18.4 L 1.5,11.5 C 2.6,12 3.4,13 3.6,14.2 L 4.2,14.1 C 4,12.7 3.1,11.5 1.8,10.9 L 2.8,9.6 C 3.8,11.2 4.4,13 4.4,14.9 4.4,16.8 3.9,18.6 2.9,20.1 L 1.9,18.8 C 3.1,18.2 4,17 4.3,15.6 L 3.6,15.7 Z M 5.1,15 C 5.1,13.5 4.8,12 4.1,10.6 L 4.2,10.7 9.2,4.3 C 9.2,4.3 10.2,3.2 11.9,4.3 L 12.1,4.5 15,1.4 39.8,1.4 42.7,4.5 42.9,4.3 C 43.7,3.6 44.8,3.6 45.6,4.2 L 50.6,10.6 50.6,10.6 C 49.4,13.3 49.4,16.4 50.6,19.2 L 45.6,25.6 C 45.6,25.6 44.6,26.7 42.9,25.6 L 42.7,25.4 39.8,28.5 15.1,28.5 12.2,25.4 12,25.6 C 11.2,26.3 10.1,26.3 9.3,25.7 L 4.3,19.3 4.2,19.4 C 4.8,18 5.1,16.5 5.1,15 Z M 51.7,9.1 C 51.5,9.4 51.3,9.7 51.1,10.1 L 46.2,3.9 C 45.3,3.1 43.9,3 42.9,3.7 L 40.8,1.4 45.6,1.4 51.7,9.1 Z M 9.4,1.4 L 14.2,1.4 12.1,3.7 C 11.1,3 9.7,3.1 8.8,3.9 L 3.9,10.1 C 3.7,9.8 3.5,9.4 3.3,9.1 L 9.4,1.4 Z M 3.3,20.9 C 3.5,20.6 3.7,20.2 3.9,19.9 L 8.8,26.1 C 9.7,26.9 11.1,27 12.1,26.3 L 14.2,28.6 9.4,28.6 3.3,20.9 Z M 45.6,28.6 L 40.8,28.6 42.9,26.3 C 43.9,27 45.3,26.9 46.2,26.1 L 51,20 C 51.2,20.3 51.4,20.7 51.6,21 L 45.6,28.6 Z M 45.6,28.6" />
    <path id="block13-bezier3" stroke="none" fill="rgb(255, 255, 255)" d="M 3.6,15 C 3.6,14.3 4.2,13.7 4.9,13.7 5.6,13.7 6.2,14.3 6.2,15 6.2,15.7 5.6,16.3 4.9,16.3 L 4.9,16.3 C 4.1,16.3 3.6,15.7 3.6,15 L 3.6,15 Z M 3.6,15" />
    <path id="block13-bezier4" stroke="none" fill="rgb(0, 0, 0)" d="M 4.8,14.1 C 4.3,14.1 3.9,14.5 3.9,15 3.9,15.5 4.3,15.9 4.8,15.9 5.3,15.9 5.7,15.5 5.7,15 L 5.7,15 C 5.8,14.5 5.4,14.1 4.8,14.1 L 4.8,14.1 Z M 4.8,16.6 C 3.9,16.6 3.2,15.9 3.2,15 3.2,14.1 3.9,13.4 4.8,13.4 5.7,13.4 6.4,14.1 6.4,15 6.4,15.9 5.7,16.6 4.8,16.6 L 4.8,16.6 Z M 4.8,16.6" />
    <path id="block13-bezier5" stroke="none" fill="rgb(255, 255, 255)" d="M 51.4,15 C 51.4,14.3 50.8,13.7 50.1,13.7 49.4,13.7 48.8,14.3 48.8,15 48.8,15.7 49.4,16.3 50.1,16.3 L 50.1,16.3 C 50.9,16.3 51.4,15.7 51.4,15 L 51.4,15 Z M 51.4,15" />
    <path id="block13-bezier6" stroke="none" fill="rgb(0, 0, 0)" d="M 50.2,14.1 C 49.7,14.1 49.3,14.5 49.3,15 49.3,15.5 49.7,15.9 50.2,15.9 50.7,15.9 51.1,15.5 51.1,15 51.1,14.8 51,14.5 50.8,14.3 50.6,14.2 50.4,14.1 50.2,14.1 Z M 50.2,16.6 C 49.3,16.6 48.6,15.9 48.6,15 48.6,14.1 49.3,13.4 50.2,13.4 51.1,13.4 51.8,14.1 51.8,15 L 51.8,15 C 51.7,15.9 51,16.6 50.2,16.6 Z M 50.2,16.6" />
</svg>
