<?xml version="1.0" encoding="UTF-8"?>
<!DOCTYPE svg PUBLIC "-//W3C//DTD SVG 1.1//EN" "http://www.w3.org/Graphics/SVG/1.1/DTD/svg11.dtd">
<svg version="1.1" xmlns="http://www.w3.org/2000/svg" xmlns:xlink="http://www.w3.org/1999/xlink" width="211" height="80"  xml:space="preserve" id="block3">
    <!-- Generated by PaintCode - http://www.paintcodeapp.com -->
    <path id="block3-bezier" stroke="none" fill="rgb(255, 255, 255)" d="M 210.25,5.67 C 208.8,5.22 205.03,3.58 205.03,1.34 L 205.03,0.71 6.1,0.71 6.1,1.34 C 6.1,3.57 2.32,5.22 0.87,5.67 L 0.42,5.8 0.42,78.44 4.72,78.43 4.91,78.11 4.92,78.09 C 5.66,77.04 6.82,76.38 8.1,76.29 L 8.08,76.3 C 8.45,76.81 9.16,76.92 9.67,76.55 9.76,76.49 9.85,76.41 9.91,76.32 L 9.87,76.32 C 11.78,76.62 13.61,77.29 15.27,78.28 L 15.53,78.44 195.59,78.44 195.74,78.35 195.63,78.42 C 197.27,77.4 199.09,76.7 200.99,76.36 L 201.22,76.33 C 201.61,76.83 202.33,76.92 202.83,76.53 202.91,76.46 202.99,76.38 203.06,76.28 L 203.02,76.29 C 204.3,76.38 205.47,77.05 206.21,78.1 L 206.39,78.44 210.7,78.44 210.7,5.8 210.25,5.67 Z M 210.25,5.67" />
    <path id="block3-bezier2" stroke="none" fill="rgb(0, 0, 0)" d="M 207.53,77.87 L 207.51,77.86 C 206.54,76.61 205.09,75.82 203.51,75.68 L 203.51,75.68 C 203.21,75.12 202.51,74.92 201.95,75.23 201.74,75.34 201.58,75.52 201.47,75.73 L 201.44,75.73 C 199.31,76.07 197.28,76.83 195.46,77.96 L 15.51,77.87 15.42,77.82 C 13.58,76.71 11.54,75.99 9.41,75.69 L 9.65,75.73 C 9.37,75.16 8.68,74.92 8.11,75.2 7.9,75.31 7.73,75.47 7.61,75.68 L 7.61,75.68 C 6.03,75.82 4.59,76.61 3.61,77.86 L 1.28,77.87 1.28,66.36 1.24,66.56 C 2.4,60.02 3.04,53.39 3.15,46.74 L 3.16,10.53 C 5.52,6.74 9.91,1.28 15.72,1.28 L 195.4,1.28 C 201.21,1.28 205.61,6.74 207.96,10.54 L 207.96,46.23 207.97,46.74 C 208.09,53.39 208.73,60.02 209.88,66.56 L 209.84,77.87 207.53,77.87 Z M 1.28,14 C 1.42,13.69 1.84,12.8 2.52,11.61 L 2.52,46.23 2.51,47.18 C 2.41,52.61 1.94,58.02 1.09,63.38 L 1.28,14 Z M 6.92,1.28 L 10.56,1.28 C 6.08,3.54 2.9,8.26 1.28,11.17 L 1.28,6.11 C 2.61,5.63 6.39,4.02 6.92,1.28 Z M 204.21,1.28 C 204.73,4.02 208.52,5.63 209.84,6.11 L 209.84,11.17 C 208.22,8.27 205.05,3.54 200.57,1.28 L 204.21,1.28 Z M 208.6,11.61 C 209.29,12.8 209.71,13.7 209.84,14 L 209.84,62.14 209.73,61.37 C 208.98,55.99 208.6,50.57 208.6,45.15 L 208.6,11.61 Z M 210.67,5.05 C 209.21,4.59 205.43,2.92 205.43,0.64 L 205.43,-0 5.7,-0 5.7,0.64 C 5.7,2.91 1.91,4.59 0.45,5.05 L 0,5.19 0,79.15 4.32,79.15 4.5,78.82 4.49,78.83 C 5.21,77.77 6.37,77.08 7.65,76.97 L 7.68,76.97 C 8.04,77.48 8.75,77.61 9.27,77.25 9.36,77.18 9.45,77.1 9.52,77 L 9.45,76.99 C 11.44,77.3 13.34,78.01 15.04,79.08 L 15.17,79.15 195.96,79.15 196.1,79.06 196.08,79.08 C 197.79,78.01 199.69,77.3 201.67,76.99 L 201.6,77 C 201.98,77.5 202.69,77.6 203.19,77.22 203.29,77.15 203.37,77.07 203.44,76.97 L 203.47,76.97 C 204.75,77.08 205.91,77.77 206.63,78.84 L 206.8,79.15 211.12,79.15 211.12,5.19 210.67,5.05 Z M 210.67,5.05" />
</svg>
