<?xml version="1.0" encoding="UTF-8"?>
<!DOCTYPE svg PUBLIC "-//W3C//DTD SVG 1.1//EN" "http://www.w3.org/Graphics/SVG/1.1/DTD/svg11.dtd">
<svg version="1.1" xmlns="http://www.w3.org/2000/svg" xmlns:xlink="http://www.w3.org/1999/xlink" width="55" height="30"  xml:space="preserve" id="block12">
    <!-- Generated by PaintCode - http://www.paintcodeapp.com -->
    <path id="block12-bezier" stroke="none" fill="rgb(255, 255, 255)" d="M 54.3,18.7 L 54.3,11.3 45.9,0.7 9.1,0.7 0.7,11.3 0.7,18.7 9.1,29.3 45.9,29.3 54.3,18.7 Z M 54.3,18.7" />
    <path id="block12-bezier2" stroke="none" fill="rgb(0, 0, 0)" d="M 55,11 L 46.3,-0 8.7,-0 0,11 0,19 8.7,30 46.2,30 55,19 55,11 Z M 51.7,9.1 C 51.5,9.3 51.4,9.6 51.2,9.9 50.5,8.5 49.4,7.4 48,6.8 47.8,5.9 47,3 42.8,1.5 L 45.5,1.5 51.7,9.1 Z M 15.7,28.6 C 8.2,27.8 7.7,23.2 7.7,23 L 7.7,22.8 7.5,22.7 C 6,22 4.8,20.8 4.3,19.2 4.9,17.9 5.2,16.5 5.2,15 5.2,13.5 4.9,12.1 4.3,10.8 4.8,9.3 6,8 7.5,7.4 L 7.7,7.3 7.7,7.1 C 7.7,7 8.1,2.3 15.7,1.5 L 39.3,1.5 C 46.8,2.3 47.3,6.9 47.3,7.1 L 47.3,7.3 47.5,7.4 C 49,8 50.2,9.3 50.7,10.8 49.5,13.5 49.5,16.5 50.7,19.2 50.2,20.7 49,22 47.5,22.6 L 47.3,22.7 47.3,22.9 C 47.3,23 46.9,27.7 39.3,28.5 L 15.7,28.5 15.7,28.6 Z M 9.4,1.4 L 12.2,1.4 C 8,3 7.2,5.9 7,6.8 5.6,7.4 4.5,8.5 3.8,9.9 3.7,9.7 3.5,9.4 3.3,9.1 L 9.4,1.4 Z M 1.4,11.5 L 2.8,9.8 C 3.8,11.4 4.4,13.2 4.4,15.1 4.4,17 3.9,18.8 2.9,20.3 L 1.5,18.5 1.4,11.5 Z M 3.4,20.9 C 3.6,20.6 3.7,20.4 3.9,20.1 4.6,21.5 5.7,22.6 7.1,23.2 7.3,24.1 8.1,27 12.3,28.5 L 9.4,28.5 3.4,20.9 Z M 45.6,28.6 L 42.9,28.6 C 47.1,27.1 47.9,24.1 48.1,23.3 49.5,22.7 50.6,21.6 51.3,20.2 51.4,20.5 51.6,20.7 51.8,20.9 L 45.6,28.6 Z M 52.2,20.3 C 50.2,17.1 50.2,13 52.2,9.8 L 53.6,11.5 53.6,18.5 52.2,20.3 Z M 52.2,20.3" />
    <path id="block12-bezier3" stroke="none" fill="rgb(255, 255, 255)" d="M 51,15 C 51,14.5 50.6,14.1 50.1,14.1 49.6,14.1 49.2,14.5 49.2,15 49.2,15.5 49.6,15.9 50.1,15.9 L 50.1,15.9 C 50.7,15.9 51,15.5 51,15 Z M 51,15" />
    <path id="block12-bezier4" stroke="none" fill="rgb(0, 0, 0)" d="M 50.2,14.4 C 49.9,14.4 49.6,14.7 49.6,15 49.6,15.3 49.9,15.6 50.2,15.6 50.5,15.6 50.8,15.3 50.8,15 L 50.8,15 C 50.7,14.7 50.5,14.4 50.2,14.4 Z M 50.2,16.2 C 49.5,16.2 49,15.7 49,15 49,14.3 49.5,13.8 50.2,13.8 50.5,13.8 50.8,13.9 51.1,14.2 51.3,14.4 51.5,14.7 51.5,15.1 51.4,15.7 50.8,16.2 50.2,16.2 Z M 50.2,16.2" />
    <circle id="block12-oval" stroke="none" fill="rgb(255, 255, 255)" cx="4.8" cy="15" r="0.9" />
    <path id="block12-bezier5" stroke="none" fill="rgb(0, 0, 0)" d="M 4.8,14.4 C 4.5,14.4 4.2,14.7 4.2,15 4.2,15.3 4.5,15.6 4.8,15.6 5.1,15.6 5.4,15.3 5.4,15 L 5.4,15 C 5.4,14.7 5.1,14.4 4.8,14.4 Z M 4.8,16.2 C 4.1,16.2 3.6,15.7 3.6,15 3.6,14.3 4.1,13.8 4.8,13.8 5.1,13.8 5.4,13.9 5.7,14.2 5.9,14.4 6,14.7 6,15 6,15.7 5.5,16.2 4.8,16.2 Z M 4.8,16.2" />
</svg>
