<?xml version="1.0" encoding="UTF-8"?>
<!DOCTYPE svg PUBLIC "-//W3C//DTD SVG 1.1//EN" "http://www.w3.org/Graphics/SVG/1.1/DTD/svg11.dtd">
<svg version="1.1" xmlns="http://www.w3.org/2000/svg" xmlns:xlink="http://www.w3.org/1999/xlink" width="230" height="185"  xml:space="preserve" id="block7">
    <!-- Generated by PaintCode - http://www.paintcodeapp.com -->
    <path id="block7-bezier" stroke="none" fill="rgb(255, 255, 255)" d="M 229.5,4.2 L 229.5,3 225.8,3 225.8,0.4 224.2,0.4 C 223.6,1.1 222.7,1.4 221.9,1.3 L 8.1,1.3 C 7.2,1.4 6.3,1 5.7,0.4 L 4.1,0.4 4.1,3 0.5,3 0.5,4.2 C 2,4.2 2.1,6.7 2.1,6.7 L 2.1,176.8 C 2.1,176.8 2,179.3 0.5,179.3 L 0.5,180.5 4.2,180.5 4.2,184.7 5.8,184.7 C 6.4,184 7.3,183.7 8.1,183.8 L 222,183.8 C 222.9,183.7 223.7,184.1 224.3,184.7 L 224.3,184.7 225.9,184.7 225.9,180.5 229.6,180.5 229.6,179.3 C 228.1,179.3 228,176.8 228,176.8 L 228,6.7 C 227.9,6.7 228,4.2 229.5,4.2 Z M 229.5,4.2" />
    <path id="block7-bezier2" stroke="none" fill="rgb(0, 0, 0)" d="M 227.4,177.1 L 226.3,177.1 226.3,7.3 227.4,7.3 227.4,177.1 Z M 3.7,177.1 L 2.6,177.1 2.6,7.3 3.7,7.3 3.7,177.1 Z M 230,3.8 L 230,2.7 226.3,2.7 226.3,-0 224.7,-0 C 224.1,0.7 223.2,1 222.4,0.9 L 7.6,0.9 C 6.7,1 5.9,0.7 5.3,-0 L 3.7,-0 3.7,2.7 0,2.7 0,3.9 C 1.5,3.9 1.6,6.4 1.6,6.4 L 1.6,177.2 C 1.6,177.2 1.5,179.7 0,179.7 L 0,180.9 3.7,180.9 3.7,185.1 5.3,185.1 5.3,2 224.7,2 224.7,183 5.3,183 5.3,185 C 5.9,184.3 6.8,184 7.6,184.1 L 222.4,184.1 C 223.3,184 224.2,184.4 224.7,185 L 224.7,185 226.3,185 226.3,180.8 230,180.8 230,179.6 C 228.5,179.6 228.4,177.1 228.4,177.1 L 228.4,6.3 C 228.4,6.3 228.5,3.8 230,3.8 Z M 230,3.8" />
</svg>
