<?xml version="1.0" encoding="UTF-8"?>
<!DOCTYPE svg PUBLIC "-//W3C//DTD SVG 1.1//EN" "http://www.w3.org/Graphics/SVG/1.1/DTD/svg11.dtd">
<svg version="1.1" xmlns="http://www.w3.org/2000/svg" xmlns:xlink="http://www.w3.org/1999/xlink" width="210" height="80"  xml:space="preserve" id="block3">
    <!-- Generated by PaintCode - http://www.paintcodeapp.com -->
    <g id="block3-block3Group">
        <path id="block3-bezier" stroke="none" fill="rgb(255, 255, 255)" d="M 209.1,5.7 C 207.6,5.3 203.9,3.6 203.9,1.4 L 203.9,0.7 6.1,0.7 6.1,1.3 C 6.1,3.5 2.3,5.2 0.9,5.6 L 0.4,5.8 0.4,79.3 4.7,79.3 4.9,79 C 5.6,77.9 6.8,77.3 8.1,77.2 8.5,77.7 9.2,77.8 9.7,77.5 9.8,77.4 9.9,77.4 9.9,77.3 11.8,77.6 13.7,78.3 15.4,79.3 L 15.5,79.4 194.4,79.4 194.5,79.3 C 196.2,78.3 198,77.6 200,77.3 200.4,77.8 201.1,77.9 201.6,77.5 201.7,77.4 201.8,77.4 201.8,77.3 203.1,77.4 204.2,78.1 205,79.1 L 205.2,79.4 209.5,79.4 209.5,5.8 209.1,5.7 Z M 209.1,5.7" />
        <path id="block3-bezier2" stroke="none" fill="rgb(0, 0, 0)" d="M 206.4,78.7 C 205.4,77.4 204,76.7 202.4,76.5 202.1,75.9 201.4,75.7 200.8,76 200.6,76.1 200.4,76.3 200.3,76.5 198.2,76.8 196.2,77.6 194.4,78.6 L 15.4,78.6 C 13.6,77.5 11.6,76.8 9.5,76.5 9.2,75.9 8.5,75.7 8,76 7.8,76.1 7.6,76.3 7.5,76.5 5.9,76.6 4.5,77.4 3.5,78.7 L 1.3,78.7 1.3,67.2 C 2.5,60.6 3.1,53.8 3.2,47.1 L 3.2,10.5 C 5.6,6.7 10,1.2 15.8,1.2 L 194.4,1.2 C 200.2,1.2 204.6,6.7 207,10.5 L 207,47 C 207.1,53.7 207.7,60.5 208.9,67.1 L 208.9,78.6 206.4,78.6 206.4,78.7 Z M 1.3,14 C 1.4,13.7 1.9,12.8 2.5,11.6 L 2.5,47.1 C 2.5,52.4 2,57.7 1.3,63 L 1.3,14 Z M 6.9,1.3 L 10.5,1.3 C 6,3.6 2.8,8.3 1.2,11.2 L 1.2,6.1 C 2.6,5.6 6.4,4 6.9,1.3 Z M 203.1,1.3 C 203.6,4 207.4,5.6 208.7,6.1 L 208.7,11.2 C 207.1,8.3 203.9,3.6 199.4,1.3 L 203.1,1.3 Z M 207.5,11.6 C 208.2,12.8 208.6,13.7 208.7,14 L 208.7,63 C 207.9,57.7 207.5,52.4 207.5,47.1 L 207.5,11.6 Z M 209.5,5 C 208,4.5 204.3,2.9 204.3,0.6 L 204.3,-0 5.7,-0 5.7,0.6 C 5.7,2.9 1.9,4.6 0.5,5 L 0,5.2 0,80 4.3,80 4.5,79.7 C 5.2,78.6 6.4,78 7.7,77.9 8.1,78.4 8.8,78.5 9.3,78.2 9.4,78.1 9.5,78 9.6,78 11.6,78.3 13.4,79 15.1,80.1 L 15.2,80.2 194.9,80.2 195,80.1 C 196.7,79.1 198.5,78.4 200.5,78 200.9,78.5 201.6,78.6 202.1,78.2 202.2,78.1 202.3,78 202.3,77.9 203.6,78 204.8,78.7 205.5,79.7 L 205.7,80 210,80 210,5.2 209.5,5 Z M 209.5,5" />
    </g>
</svg>
