<?xml version="1.0" encoding="UTF-8"?>
<!DOCTYPE svg PUBLIC "-//W3C//DTD SVG 1.1//EN" "http://www.w3.org/Graphics/SVG/1.1/DTD/svg11.dtd">
<svg version="1.1" xmlns="http://www.w3.org/2000/svg" xmlns:xlink="http://www.w3.org/1999/xlink" width="100" height="50"  xml:space="preserve" id="block17">
    <!-- Generated by PaintCode - http://www.paintcodeapp.com -->
    <g id="block17-group">
        <path id="block17-bezier" stroke="none" fill="rgb(255, 255, 255)" d="M 90.7,0.9 L 9.3,0.9 0.9,11.4 0.9,38.6 9.3,49.1 90.7,49.1 99.1,38.6 99.1,11.4 90.7,0.9 Z M 90.7,0.9" />
        <path id="block17-bezier2" stroke="none" fill="rgb(0, 0, 0)" d="M 91.1,50 L 8.9,50 0,38.9 0,11.1 8.9,-0 91.2,-0 100.1,11.1 100.1,38.9 91.1,50 Z M 9.7,48.2 L 90.2,48.2 98.1,38.3 98.1,11.8 90.2,1.9 9.7,1.9 1.8,11.8 1.8,38.3 9.7,48.2 Z M 9.7,48.2" />
        <path id="block17-bezier3" stroke="rgb(0, 0, 0)" stroke-width="0.79" stroke-miterlimit="10" fill="none" d="M 12.3,0.9 L 3.4,11.9 M 3.4,38.1 L 12.3,49.1 M 3.4,8.3 L 3.4,42.2" />
        <path id="block17-bezier4" stroke="none" fill="rgb(0, 0, 0)" d="M 2.2,25 C 2.2,25.7 2.8,26.3 3.5,26.3 4.2,26.3 4.8,25.7 4.8,25 4.8,24.3 4.2,23.7 3.5,23.7 L 3.5,23.7 C 2.7,23.7 2.2,24.3 2.2,25 Z M 2.2,25" />
        <path id="block17-bezier5" stroke="none" fill="rgb(0, 0, 0)" d="M 97.8,25 C 97.8,25.7 97.2,26.3 96.5,26.3 95.8,26.3 95.2,25.7 95.2,25 95.2,24.3 95.8,23.7 96.5,23.7 L 96.5,23.7 C 97.3,23.7 97.8,24.3 97.8,25 Z M 97.8,25" />
        <path id="block17-bezier6" stroke="rgb(0, 0, 0)" stroke-width="0.79" stroke-miterlimit="10" fill="none" d="M 87.7,0.9 L 96.6,11.9 M 96.6,38.1 L 87.7,49.1 M 96.6,8.3 L 96.6,42.2" />
    </g>
</svg>
