<?xml version="1.0" encoding="UTF-8"?>
<!DOCTYPE svg PUBLIC "-//W3C//DTD SVG 1.1//EN" "http://www.w3.org/Graphics/SVG/1.1/DTD/svg11.dtd">
<svg version="1.1" xmlns="http://www.w3.org/2000/svg" xmlns:xlink="http://www.w3.org/1999/xlink" width="230" height="186"  xml:space="preserve" id="block7">
    <!-- Generated by PaintCode - http://www.paintcodeapp.com -->
    <path id="block7-bezier" stroke="none" fill="rgb(255, 255, 255)" d="M 229.94,4.19 L 229.94,3.04 226.28,3.04 226.28,0.37 224.68,0.37 224.68,0.38 C 224.09,1.03 223.23,1.37 222.36,1.29 L 8.05,1.29 8.04,1.29 C 7.17,1.37 6.31,1.03 5.72,0.38 L 4.12,0.37 4.12,3.04 0.46,3.04 0.46,4.19 C 1.97,4.19 2.05,6.66 2.05,6.66 L 2.05,178.01 C 2.05,178.01 1.97,180.47 0.46,180.47 L 0.46,181.63 4.12,181.63 4.12,185.83 5.72,185.83 5.72,185.82 C 6.31,185.17 7.17,184.83 8.04,184.91 L 222.35,184.91 222.36,184.91 C 223.23,184.83 224.09,185.17 224.68,185.82 L 224.68,185.83 226.28,185.83 226.28,181.63 229.94,181.63 229.94,180.47 C 228.43,180.47 228.35,178.01 228.35,178.01 L 228.35,6.66 C 228.35,6.66 228.43,4.19 229.94,4.19 Z M 229.94,4.19" />
    <path id="block7-bezier2" stroke="none" fill="rgb(0, 0, 0)" d="M 227.84,178.35 L 226.72,178.35 226.72,7.27 227.84,7.27 227.84,178.35 Z M 3.68,178.35 L 2.56,178.35 2.56,7.27 3.68,7.27 3.68,178.35 Z M 230.4,3.84 L 230.4,2.68 226.72,2.68 226.72,-0 225.12,-0 225.12,0 C 224.53,0.66 223.67,1 222.79,0.92 L 7.62,0.92 7.61,0.92 C 6.73,1 5.87,0.66 5.28,0 L 3.68,-0 3.68,2.68 0,2.68 0,3.84 C 1.51,3.84 1.6,6.32 1.6,6.32 L 1.6,178.35 C 1.6,178.35 1.51,180.83 0,180.83 L 0,181.98 3.68,181.98 3.68,186.2 5.28,186.2 5.28,1.99 225.12,1.99 225.12,184.21 5.28,184.21 5.28,186.2 5.28,186.2 C 5.87,185.54 6.74,185.2 7.61,185.28 L 222.78,185.28 222.79,185.28 C 223.67,185.2 224.53,185.54 225.12,186.19 L 225.12,186.2 226.72,186.2 226.72,181.98 230.4,181.98 230.4,180.83 C 228.89,180.83 228.8,178.35 228.8,178.35 L 228.8,6.32 C 228.8,6.32 228.89,3.84 230.4,3.84 Z M 230.4,3.84" />
</svg>
