<?xml version="1.0" encoding="UTF-8"?>
<!DOCTYPE svg PUBLIC "-//W3C//DTD SVG 1.1//EN" "http://www.w3.org/Graphics/SVG/1.1/DTD/svg11.dtd">
<svg version="1.1" xmlns="http://www.w3.org/2000/svg" xmlns:xlink="http://www.w3.org/1999/xlink" width="102" height="64"  xml:space="preserve" id="block1">
    <!-- Generated by PaintCode - http://www.paintcodeapp.com -->
    <path id="block1-bezier" stroke="none" fill="rgb(255, 255, 255)" d="M 95.46,0.64 L 6.94,0.64 0.51,7.02 0.51,56.99 6.94,63.36 95.46,63.36 101.89,56.99 101.89,7.02 95.46,0.64 Z M 95.46,0.64" />
    <path id="block1-bezier2" stroke="none" fill="rgb(0, 0, 0)" d="M 95.17,62.22 L 91.66,62.22 91.64,62.22 C 94.34,61.08 96.63,59.15 98.22,56.7 L 98.29,56.69 98.29,56.6 98.29,56.6 C 99.28,55.07 100.07,53.42 100.63,51.68 L 100.62,56.76 95.17,62.22 Z M 1.78,56.76 L 1.78,51.73 1.77,51.69 C 2.33,53.42 3.12,55.07 4.11,56.59 L 4.11,56.69 4.17,56.69 4.18,56.7 C 5.77,59.15 8.06,61.08 10.76,62.22 L 7.23,62.22 1.78,56.76 Z M 7.23,1.78 L 10.74,1.78 10.76,1.78 C 8.06,2.92 5.77,4.85 4.18,7.3 L 4.11,7.31 4.11,7.4 4.11,7.41 C 3.12,8.93 2.33,10.58 1.77,12.31 L 1.78,7.24 7.23,1.78 Z M 98.29,8.88 C 98.5,9.26 98.73,9.63 98.93,10.04 L 98.92,10.02 C 99.66,11.62 100.22,13.29 100.59,15.01 L 100.62,48.78 100.59,48.91 C 100.13,51.1 99.34,53.21 98.25,55.17 L 98.29,8.88 Z M 1.78,15.22 L 1.81,15.09 C 2.27,12.9 3.06,10.79 4.15,8.83 L 4.11,55.12 C 3.9,54.74 3.67,54.37 3.47,53.96 L 3.48,53.97 C 2.74,52.38 2.18,50.71 1.81,49 L 1.78,15.22 Z M 89.15,62.22 L 13.22,62.22 13.26,62.23 C 9.97,61.47 7.08,59.52 5.14,56.75 L 5.08,7.37 5.12,7.32 C 7.08,4.51 10.02,2.53 13.36,1.76 L 89.18,1.78 89.14,1.77 C 92.43,2.53 95.32,4.48 97.26,7.25 L 97.32,56.63 97.28,56.68 C 95.32,59.49 92.38,61.47 89.04,62.24 M 100.62,7.24 L 100.62,12.27 100.63,12.32 C 100.07,10.58 99.28,8.93 98.28,7.4 L 98.29,7.31 98.23,7.31 98.22,7.3 C 96.63,4.85 94.33,2.92 91.64,1.78 L 95.16,1.78 100.62,7.24 Z M 95.9,-0 L 6.49,-0 0,6.51 0,57.5 6.49,64 95.9,64 102.4,57.5 102.4,6.51 95.9,-0 Z M 95.9,-0" />
</svg>
