<?xml version="1.0" encoding="UTF-8"?>
<!DOCTYPE svg PUBLIC "-//W3C//DTD SVG 1.1//EN" "http://www.w3.org/Graphics/SVG/1.1/DTD/svg11.dtd">
<svg version="1.1" xmlns="http://www.w3.org/2000/svg" xmlns:xlink="http://www.w3.org/1999/xlink" width="211" height="65"  xml:space="preserve" id="block4">
    <!-- Generated by PaintCode - http://www.paintcodeapp.com -->
    <path id="block4-bezier" stroke="none" fill="rgb(255, 255, 255)" d="M 207.18,0.64 C 207.18,0.64 204.48,5.7 195.78,0.64 L 15.34,0.64 C 6.64,5.7 3.94,0.64 3.94,0.64 L 0.64,0.64 0.64,62.98 3.94,62.98 C 3.94,62.98 6.64,57.92 15.34,62.98 L 195.78,62.98 C 204.48,57.92 207.18,62.98 207.18,62.98 L 210.48,62.98 210.48,0.64 207.18,0.64 Z M 207.18,0.64" />
    <path id="block4-bezier2" stroke="none" fill="rgb(0, 0, 0)" d="M 209.84,46.6 L 209.73,45.84 C 208.98,40.46 208.6,35.03 208.6,29.6 L 208.6,32.92 208.62,31.98 C 208.71,26.55 209.18,21.13 210.03,15.76 L 209.84,46.6 Z M 209.84,62.34 L 207.53,62.34 207.52,62.32 C 206.54,61.07 205.09,60.29 203.51,60.15 L 203.51,60.15 C 203.21,59.59 202.51,59.39 201.95,59.7 201.74,59.81 201.58,59.99 201.47,60.2 L 201.44,60.2 C 199.31,60.53 197.28,61.29 195.46,62.43 L 15.51,62.34 15.42,62.28 C 13.58,61.18 11.54,60.45 9.41,60.16 L 9.65,60.2 C 9.37,59.63 8.68,59.39 8.11,59.67 7.9,59.77 7.72,59.94 7.61,60.15 L 7.61,60.15 C 6.03,60.29 4.58,61.07 3.61,62.32 L 1.28,62.34 1.28,50.82 1.24,51.04 C 2.4,44.49 3.04,37.85 3.15,31.2 L 3.16,32.92 3.15,32.42 C 3.04,25.76 2.4,19.13 1.24,12.58 L 1.28,1.28 3.6,1.28 3.61,1.29 C 4.58,2.54 6.03,3.33 7.61,3.47 L 7.61,3.47 C 7.92,4.03 8.62,4.23 9.17,3.92 9.38,3.81 9.55,3.63 9.65,3.42 L 9.69,3.42 C 11.81,3.08 13.84,2.33 15.66,1.19 L 195.61,1.28 195.7,1.33 C 197.54,2.44 199.58,3.16 201.71,3.46 L 201.47,3.42 C 201.75,3.99 202.44,4.23 203.01,3.95 203.22,3.85 203.4,3.68 203.51,3.47 L 203.51,3.47 C 205.09,3.33 206.54,2.54 207.52,1.29 L 209.84,1.28 209.84,12.79 209.88,12.59 C 208.72,19.13 208.09,25.76 207.97,32.41 L 207.96,30.7 207.97,31.21 C 208.09,37.86 208.72,44.48 209.88,51.03 L 209.84,62.34 Z M 1.28,17.02 L 1.39,17.78 C 2.15,23.16 2.53,28.58 2.53,34.02 L 2.52,30.7 2.51,31.64 C 2.41,37.07 1.94,42.49 1.09,47.86 L 1.28,17.02 Z M 206.8,0.01 L 206.62,0.33 206.63,0.31 C 205.91,1.38 204.75,2.07 203.47,2.18 L 203.44,2.18 C 203.08,1.67 202.37,1.54 201.86,1.9 201.76,1.97 201.67,2.06 201.6,2.15 L 201.67,2.16 C 199.69,1.85 197.79,1.14 196.09,0.08 L 195.96,-0 15.17,-0 15.02,0.09 15.03,0.08 C 13.33,1.14 11.43,1.85 9.45,2.16 L 9.52,2.15 C 9.14,1.65 8.43,1.55 7.93,1.93 7.84,2 7.75,2.09 7.68,2.18 L 7.66,2.18 C 6.37,2.07 5.21,1.38 4.49,0.31 L 4.33,-0 0,-0 0,63.62 4.32,63.61 4.5,63.28 4.49,63.3 C 5.21,62.24 6.37,61.55 7.66,61.44 L 7.68,61.43 C 8.04,61.95 8.75,62.07 9.26,61.71 9.36,61.65 9.45,61.56 9.52,61.47 L 9.45,61.45 C 11.43,61.77 13.33,62.48 15.03,63.54 L 15.17,63.62 195.96,63.62 196.1,63.53 196.09,63.54 C 197.79,62.48 199.69,61.77 201.67,61.45 L 201.6,61.47 C 201.98,61.97 202.69,62.07 203.19,61.69 203.29,61.62 203.37,61.53 203.44,61.43 L 203.47,61.44 C 204.75,61.55 205.91,62.23 206.63,63.3 L 206.8,63.62 211.12,63.62 211.12,-0 206.8,0.01 Z M 206.8,0.01" />
</svg>
