<?xml version="1.0" encoding="UTF-8"?>
<!DOCTYPE svg PUBLIC "-//W3C//DTD SVG 1.1//EN" "http://www.w3.org/Graphics/SVG/1.1/DTD/svg11.dtd">
<svg version="1.1" xmlns="http://www.w3.org/2000/svg" xmlns:xlink="http://www.w3.org/1999/xlink" width="190" height="200"  xml:space="preserve" id="block16">
    <!-- Generated by PaintCode - http://www.paintcodeapp.com -->
    <g id="block16-group">
        <rect id="block16-rectangle" stroke="none" fill="rgb(255, 255, 255)" x="0.9" y="5.8" width="188.2" height="188" />
        <rect id="block16-rectangle2" stroke="rgb(0, 0, 0)" stroke-width="1.74" stroke-miterlimit="10" fill="none" x="0.9" y="5.8" width="188.2" height="188" />
        <path id="block16-bezier" stroke="rgb(0, 0, 0)" stroke-width="1.74" stroke-miterlimit="10" fill="none" d="M 189.1,11 C 185.5,8.3 182.5,4.8 180.3,0.8 L 9.6,0.8 C 7.4,4.8 4.4,8.3 0.8,11" />
        <path id="block16-bezier2" stroke="rgb(0, 0, 0)" stroke-width="0.76" stroke-miterlimit="10" fill="none" d="M 134.7,3.3 C 121.9,7.5 108.4,9.6 95,9.5 81.5,9.6 68.1,7.5 55.3,3.3 M 8.2,3.2 L 180.5,3.2" />
        <ellipse id="block16-oval" stroke="none" fill="rgb(0, 0, 0)" cx="0" cy="-0" rx="1.7" ry="1.6"  transform="translate(95, 9.4) rotate(9.1)" />
        <path id="block16-bezier3" stroke="rgb(0, 0, 0)" stroke-width="1.74" stroke-miterlimit="10" fill="none" d="M 0.9,188.5 C 4.5,191.2 7.5,194.7 9.7,198.7 L 180.5,198.7 C 182.6,194.7 185.7,191.2 189.3,188.5" />
        <path id="block16-bezier4" stroke="rgb(0, 0, 0)" stroke-width="0.76" stroke-miterlimit="10" fill="none" d="M 55.3,196.3 C 68.2,192.1 81.6,190 95,190.1 108.5,190 121.9,192.1 134.7,196.3 M 181.8,196.3 L 9.4,196.3" />
        <ellipse id="block16-oval2" stroke="none" fill="rgb(0, 0, 0)" cx="0" cy="-0" rx="1.7" ry="1.6"  transform="translate(95, 190.2) rotate(9.1)" />
    </g>
</svg>
