<?xml version="1.0" encoding="UTF-8"?>
<!DOCTYPE svg PUBLIC "-//W3C//DTD SVG 1.1//EN" "http://www.w3.org/Graphics/SVG/1.1/DTD/svg11.dtd">
<svg version="1.1" xmlns="http://www.w3.org/2000/svg" xmlns:xlink="http://www.w3.org/1999/xlink" width="240" height="496"  xml:space="preserve" id="block8">
    <!-- Generated by PaintCode - http://www.paintcodeapp.com -->
    <path id="block8-bezier" stroke="none" fill="rgb(255, 255, 255)" d="M 234.82,461.4 L 234.82,6.16 234.26,5.98 C 232.84,5.54 229.15,3.91 229.15,1.74 L 229.15,0.94 11.02,0.94 11.02,1.74 C 11.02,3.91 7.33,5.54 5.9,5.98 L 5.34,6.16 5.34,460.72 C 4.53,463.97 1.36,477.39 2.36,484.56 L 2.42,484.95 2.79,485.08 C 2.83,485.09 3.88,485.45 5.34,486.09 L 5.34,490.29 5.9,490.46 C 7.33,490.9 11.02,492.53 11.02,494.71 L 11.02,495.5 229.15,495.5 229.15,494.71 C 229.15,492.54 232.84,490.91 234.26,490.46 L 234.82,490.29 234.82,486.02 C 236.19,485.42 237.17,485.09 237.21,485.08 L 237.58,484.95 237.64,484.56 C 238.58,477.82 235.83,465.54 234.82,461.4 Z M 234.82,461.4" />
    <path id="block8-bezier2" stroke="none" fill="rgb(0, 0, 0)" d="M 236.89,484.47 C 236.54,484.6 235.97,484.81 235.28,485.1 L 235.28,467.8 C 236.32,473.02 237.4,479.98 236.89,484.47 Z M 233.68,489.62 C 232.27,490.14 228.7,491.73 228.08,494.4 L 225.91,494.4 C 226.73,491.25 230.59,488.77 233.68,487.24 L 233.68,489.62 Z M 6.48,489.62 L 6.48,487.32 C 9.55,488.85 13.28,491.3 14.09,494.4 L 12.09,494.4 C 11.47,491.73 7.9,490.14 6.48,489.62 Z M 3.11,484.47 C 2.57,479.74 3.8,472.26 4.88,466.97 L 4.88,485.17 C 4.11,484.84 3.48,484.61 3.11,484.47 Z M 12.09,2.04 L 15.3,2.04 C 11.12,4.28 8.11,8.64 6.48,11.49 L 6.48,6.83 C 7.9,6.3 11.47,4.71 12.09,2.04 Z M 233.68,6.83 L 233.68,11.49 C 232.06,8.64 229.05,4.28 224.87,2.04 L 228.08,2.04 C 228.7,4.71 232.27,6.3 233.68,6.83 Z M 232.6,12.21 C 233.11,13.1 233.47,13.82 233.68,14.26 L 233.68,477.6 233.71,477.76 C 233.06,473.17 232.7,468.55 232.62,463.91 L 232.6,12.21 Z M 6.48,482.08 L 6.32,483.02 C 7.45,476.6 8.08,470.1 8.19,463.57 L 8.2,11.14 C 10.32,7.72 14.09,2.96 19.06,2.04 L 221.1,2.04 C 226.07,2.96 229.84,7.72 231.96,11.14 L 231.96,462.92 231.97,463.57 C 232.09,470.1 232.71,476.6 233.85,483.02 L 233.68,485.81 C 230.22,487.44 225.43,490.39 224.6,494.4 L 15.4,494.4 C 14.58,490.45 9.93,487.54 6.48,485.89 L 6.48,482.08 Z M 6.48,14.26 C 6.69,13.82 7.05,13.1 7.56,12.21 L 7.56,462.92 7.55,463.91 C 7.47,468.55 7.11,473.17 6.46,477.76 L 6.48,14.26 Z M 235.28,461.82 L 235.28,5.67 234.72,5.5 C 233.29,5.05 229.59,3.42 229.59,1.24 L 229.59,0.44 10.58,0.44 10.58,1.24 C 10.58,3.42 6.88,5.05 5.45,5.5 L 4.88,5.67 4.88,461.14 C 4.07,464.41 0.88,477.85 1.89,485.03 L 1.94,485.43 2.32,485.55 C 2.36,485.56 3.42,485.92 4.88,486.57 L 4.88,490.77 5.45,490.95 C 6.88,491.39 10.58,493.02 10.58,495.2 L 10.58,496 229.59,496 229.59,495.2 C 229.59,493.03 233.29,491.39 234.72,490.95 L 235.28,490.77 235.28,486.5 C 236.66,485.9 237.65,485.57 237.68,485.55 L 238.06,485.43 238.11,485.04 C 239.06,478.28 236.29,465.98 235.28,461.82 Z M 235.28,461.82" />
</svg>
