<?xml version="1.0" encoding="UTF-8"?>
<!DOCTYPE svg PUBLIC "-//W3C//DTD SVG 1.1//EN" "http://www.w3.org/Graphics/SVG/1.1/DTD/svg11.dtd">
<svg version="1.1" xmlns="http://www.w3.org/2000/svg" xmlns:xlink="http://www.w3.org/1999/xlink" width="230" height="330"  xml:space="preserve" id="block15">
    <!-- Generated by PaintCode - http://www.paintcodeapp.com -->
    <path id="block15-bezier" stroke="none" fill="rgb(255, 255, 255)" d="M 223.97,12.62 L 211.63,12.62 C 210.12,10.12 209.32,7.31 209.32,4.41 L 209.32,3.51 138.64,3.51 C 123.48,-0.7 107.42,-0.7 92.16,3.51 L 21.48,3.51 21.48,4.41 C 21.38,7.31 20.58,10.12 19.17,12.62 L 6.83,12.62 0.4,19.04 0.4,311.79 6.83,318.2 19.17,318.2 C 20.58,320.61 21.38,323.41 21.48,326.22 L 21.48,327.12 92.16,327.12 C 107.32,331.43 123.48,331.43 138.64,327.12 L 209.32,327.12 209.32,326.22 C 209.42,323.41 210.22,320.61 211.63,318.2 L 223.97,318.2 230.4,311.79 230.4,18.94 223.97,12.62 Z M 223.97,12.62" />
    <path id="block15-bezier2" stroke="none" fill="rgb(0, 0, 0)" d="M 228.1,24.3 C 227.5,22.6 226.8,21 225.8,19.5 L 225.8,19.4 225.7,19.4 C 224.1,17 221.9,15.1 219.2,14 L 222.7,14 228.1,19.4 228.1,24.3 Z M 228.1,302.85 C 227.6,305.05 226.9,307.15 225.8,309.05 L 225.8,21 C 226,21.4 226.2,21.7 226.4,22.1 227.1,23.7 227.7,25.4 228.1,27.1 L 228.1,302.85 Z M 228.1,310.65 L 222.7,316.05 219.2,316.05 C 221.9,314.95 224.1,313.05 225.7,310.65 L 225.8,310.65 225.8,310.55 C 226.8,309.05 227.5,307.45 228.1,305.75 L 228.1,310.65 Z M 12.99,316.05 C 9.7,315.25 6.9,313.35 5,310.55 L 5,19.5 C 6.9,16.7 9.8,14.8 13.09,14 L 216.81,14 C 220.1,14.8 222.9,16.7 224.8,19.5 L 224.8,310.65 C 222.9,313.45 220,315.35 216.71,316.15 L 12.99,316.05 Z M 207.41,322.35 L 201.81,322.35 C 204.31,321.65 206.51,320.05 207.91,317.85 L 209.01,317.85 C 208.31,319.25 207.81,320.75 207.41,322.35 Z M 143.54,324.95 C 144.74,324.55 145.84,324.05 147.04,323.55 147.54,324.15 148.34,324.15 148.94,323.75 149.14,323.55 149.34,323.35 149.34,323.05 L 207.21,323.05 C 207.11,323.65 207.01,324.25 207.01,324.95 L 143.54,324.95 Z M 114.95,329.15 C 108.15,329.15 101.36,328.35 94.66,326.75 L 135.14,326.75 C 128.54,328.35 121.75,329.15 114.95,329.15 Z M 22.79,324.95 C 22.79,324.35 22.69,323.75 22.59,323.05 L 80.47,323.05 C 80.66,323.75 81.36,324.15 82.06,323.95 82.36,323.85 82.56,323.75 82.76,323.55 83.96,324.05 85.06,324.45 86.26,324.95 L 22.79,324.95 Z M 20.79,317.85 L 21.69,317.85 C 23.09,320.05 25.29,321.65 27.79,322.35 L 22.29,322.35 C 22.09,320.75 21.49,319.25 20.79,317.85 Z M 71.67,317.85 C 74.37,319.55 77.07,321.05 79.97,322.35 L 33.29,322.35 C 26.69,322.35 23.79,319.45 22.59,317.85 L 71.67,317.85 Z M 154.63,319.05 L 75.27,319.05 C 74.57,318.65 73.87,318.25 73.17,317.75 L 156.83,317.75 C 156.03,318.25 155.33,318.65 154.63,319.05 Z M 158.23,317.85 L 207.11,317.85 C 206.01,319.55 203.01,322.35 196.41,322.35 L 149.93,322.35 C 152.73,321.05 155.53,319.55 158.23,317.85 Z M 148.04,321.35 C 147.34,321.35 146.64,321.95 146.64,322.75 146.64,322.85 146.64,322.85 146.64,322.95 144.84,323.75 143.04,324.45 141.14,325.05 L 88.56,325.05 C 86.66,324.45 84.86,323.75 83.06,322.95 83.06,322.85 83.06,322.85 83.06,322.75 83.06,322.05 82.46,321.35 81.66,321.35 81.26,321.35 80.86,321.55 80.66,321.85 79.27,321.25 77.87,320.55 76.57,319.75 L 153.13,319.75 C 151.83,320.45 150.43,321.15 149.04,321.85 148.84,321.55 148.44,321.35 148.04,321.35 Z M 7.1,316.05 L 1.7,310.65 1.7,305.75 C 2.3,307.45 3,309.05 4,310.55 L 4,310.65 4.1,310.65 C 5.7,313.05 7.9,314.95 10.6,316.05 L 7.1,316.05 Z M 1.8,27.2 C 2.2,25 3,22.9 4.1,21 L 4.1,309.05 C 3.9,308.65 3.7,308.35 3.5,307.95 2.8,306.35 2.2,304.65 1.8,302.95 L 1.8,27.2 Z M 1.8,19.4 L 7.1,14 10.6,14 C 7.9,15.1 5.7,17 4.1,19.4 L 4.1,19.4 4.1,19.5 C 3.1,21 2.4,22.6 1.8,24.3 L 1.8,19.4 Z M 22.39,7.6 L 27.99,7.6 C 25.39,8.3 23.19,10 21.79,12.3 L 20.69,12.3 C 21.49,10.8 21.99,9.2 22.39,7.6 Z M 86.26,5 C 85.06,5.4 83.96,5.9 82.76,6.4 82.26,5.8 81.46,5.8 80.86,6.2 80.66,6.4 80.47,6.6 80.47,6.9 L 22.59,6.9 C 22.69,6.3 22.79,5.7 22.79,5 L 86.26,5 Z M 114.95,0.8 C 121.75,0.8 128.54,1.6 135.24,3.2 L 94.66,3.2 C 101.26,1.6 108.05,0.8 114.95,0.8 Z M 207.01,5 C 207.01,5.6 207.11,6.2 207.21,6.9 L 149.34,6.9 C 149.14,6.2 148.44,5.8 147.74,6 147.44,6.1 147.24,6.2 147.04,6.4 145.84,5.9 144.74,5.5 143.54,5 L 207.01,5 Z M 209.11,12.2 L 208.21,12.2 C 206.81,9.9 204.61,8.2 202.01,7.5 L 207.51,7.5 C 207.81,9.2 208.41,10.8 209.11,12.2 Z M 158.33,12.2 C 155.63,10.5 152.73,8.9 149.83,7.5 L 196.51,7.5 C 203.31,7.5 206.21,10.5 207.31,12.2 L 158.33,12.2 Z M 75.27,10.9 L 154.63,10.9 C 155.43,11.3 156.23,11.8 156.93,12.3 L 72.87,12.3 C 73.67,11.8 74.47,11.3 75.27,10.9 Z M 71.47,12.2 L 22.69,12.2 C 23.79,10.5 26.69,7.5 33.49,7.5 L 79.97,7.5 C 77.07,9 74.17,10.5 71.47,12.2 Z M 81.76,8.6 C 82.56,8.6 83.16,8 83.16,7.2 L 83.16,7.2 C 83.16,7.1 83.16,7.1 83.16,7 84.96,6.2 86.76,5.5 88.66,4.9 L 141.34,4.9 C 143.24,5.5 145.04,6.2 146.84,7 146.84,7.1 146.84,7.1 146.84,7.2 146.84,7.9 147.44,8.6 148.24,8.6 L 148.24,8.6 C 148.64,8.6 149.04,8.4 149.24,8.1 150.63,8.7 152.03,9.4 153.33,10.2 L 76.67,10.2 C 77.97,9.5 79.37,8.8 80.76,8.1 80.96,8.4 81.36,8.6 81.76,8.6 Z M 223.4,12.2 L 211.11,12.2 C 209.61,9.7 208.81,6.9 208.71,4 L 208.71,3.2 138.04,3.2 C 122.85,-1.1 106.75,-1.1 91.56,3.2 L 21.09,3.2 21.09,4.1 C 20.99,7 20.19,9.8 18.69,12.2 L 6.4,12.2 0,18.6 0,311.35 6.4,317.75 18.79,317.75 C 20.19,320.25 20.99,322.95 21.09,325.85 L 21.09,326.75 91.76,326.75 C 106.95,331.05 123.05,331.05 138.24,326.75 L 208.91,326.75 208.91,325.85 C 209.01,323.05 209.81,320.25 211.21,317.75 L 223.6,317.75 230,311.35 230,18.6 223.4,12.2 Z M 223.4,12.2" />
</svg>
