<?xml version="1.0" encoding="UTF-8"?>
<!DOCTYPE svg PUBLIC "-//W3C//DTD SVG 1.1//EN" "http://www.w3.org/Graphics/SVG/1.1/DTD/svg11.dtd">
<svg version="1.1" xmlns="http://www.w3.org/2000/svg" xmlns:xlink="http://www.w3.org/1999/xlink" width="210" height="65"  xml:space="preserve" id="block4">
    <!-- Generated by PaintCode - http://www.paintcodeapp.com -->
    <g id="block4-block4Group">
        <path id="block4-bezier" stroke="none" fill="rgb(255, 255, 255)" d="M 206.1,0.6 C 206.1,0.6 203.4,5.7 194.7,0.6 L 15.4,0.6 C 6.7,5.7 4,0.6 4,0.6 L 0.6,0.6 0.6,64.3 3.9,64.3 C 3.9,64.3 6.6,59.2 15.3,64.3 L 194.6,64.3 C 203.3,59.2 206,64.3 206,64.3 L 209.3,64.3 209.3,0.6 206.1,0.6 Z M 206.1,0.6" />
        <path id="block4-bezier2" stroke="none" fill="rgb(0, 0, 0)" d="M 208.7,48 C 207.9,42.7 207.5,36 207.5,30.7 L 207.5,34.3 C 207.6,29 208,22.3 208.7,17 L 208.7,48 Z M 208.7,63.7 L 206.4,63.7 C 205.4,62.4 204,61.7 202.4,61.5 202.1,60.9 201.4,60.7 200.8,61 200.6,61.1 200.4,61.3 200.3,61.5 198.2,61.8 196.2,62.6 194.4,63.6 L 15.4,63.6 C 13.6,62.5 11.6,61.8 9.5,61.5 9.2,60.9 8.5,60.7 8,61 7.8,61.1 7.6,61.3 7.5,61.5 5.9,61.6 4.5,62.4 3.5,63.7 L 1.3,63.7 1.3,52.2 C 2.5,45.6 3.1,37.4 3.2,30.7 L 3.2,34.3 C 3.1,27.6 2.5,19.4 1.3,12.8 L 1.3,1.3 3.6,1.3 C 4.6,2.6 6,3.3 7.6,3.5 7.9,4.1 8.6,4.3 9.2,4 9.4,3.9 9.6,3.7 9.7,3.5 11.8,3.2 13.8,2.4 15.6,1.4 L 194.6,1.4 C 196.4,2.5 198.4,3.2 200.5,3.5 200.8,4.1 201.5,4.3 202,4 202.2,3.9 202.4,3.7 202.5,3.5 204.1,3.4 205.5,2.6 206.5,1.3 L 208.8,1.3 208.8,12.8 C 207.6,19.4 207,27.6 206.9,34.3 L 206.9,30.7 C 207,37.4 207.6,45.6 208.8,52.2 L 208.7,63.7 Z M 1.3,17 C 2.1,22.3 2.5,29 2.5,34.3 L 2.5,30.7 C 2.5,36 2.1,42.7 1.3,48 L 1.3,17 Z M 205.7,-0 L 205.5,0.3 C 204.8,1.4 203.6,2 202.3,2.1 201.9,1.6 201.2,1.5 200.7,1.8 200.6,1.9 200.5,2 200.4,2 198.4,1.7 196.6,1 194.9,-0.1 L 194.8,-0 15.2,-0 15,0.1 C 13.3,1.1 11.5,1.8 9.5,2.2 9.1,1.7 8.4,1.5 7.9,1.9 7.8,2 7.8,2.1 7.7,2.2 6.4,2.1 5.2,1.4 4.5,0.3 L 4.3,-0 0,-0 0,65 4.3,65 4.5,64.7 C 5.2,63.6 6.4,63 7.7,62.9 8.1,63.4 8.8,63.5 9.3,63.2 9.4,63.1 9.5,63 9.6,63 11.6,63.3 13.4,64 15.1,65.1 L 15.2,65.2 194.9,65.2 195,65.1 C 196.7,64.1 198.5,63.4 200.5,63 200.9,63.5 201.6,63.6 202.1,63.2 202.2,63.1 202.3,63 202.3,62.9 203.6,63 204.7,63.7 205.5,64.7 L 205.7,65 210,65 210,-0 205.7,-0 Z M 205.7,-0" />
    </g>
</svg>
