<?xml version="1.0" encoding="UTF-8"?>
<!DOCTYPE svg PUBLIC "-//W3C//DTD SVG 1.1//EN" "http://www.w3.org/Graphics/SVG/1.1/DTD/svg11.dtd">
<svg version="1.1" xmlns="http://www.w3.org/2000/svg" xmlns:xlink="http://www.w3.org/1999/xlink" width="153" height="136"  xml:space="preserve" id="block2">
    <!-- Generated by PaintCode - http://www.paintcodeapp.com -->
    <path id="block2-bezier" stroke="none" fill="rgb(255, 255, 255)" d="M 149.3,82.12 L 149.29,59.19 C 149.71,52.41 150.72,33.4 152.28,28.35 L 152.39,27.99 152.06,27.79 151.99,27.74 C 151.26,27.25 150.59,26.68 149.99,26.03 L 150.03,26.38 C 150.3,24.66 150.71,22.97 151.25,21.32 L 151.4,20.86 150.06,5.94 149.48,5.76 C 148.12,5.34 144.24,3.64 144.24,1.45 L 144.24,0.54 8.76,0.54 8.76,1.45 C 8.76,3.64 4.98,5.3 3.52,5.76 L 2.94,5.94 1.6,20.86 1.66,21.05 1.75,21.32 C 2.29,22.97 2.69,24.66 2.97,26.37 L 2.95,26.08 C 2.36,26.71 1.71,27.27 0.99,27.75 L 0.61,27.99 0.72,28.35 C 2.28,33.4 3.29,52.38 3.7,59.16 L 3.71,82.09 C 3.29,88.87 2.28,102.6 0.72,107.65 L 0.61,108.01 0.94,108.21 0.87,108.17 C 1.59,108.64 2.26,109.19 2.86,109.81 L 2.97,109.63 C 2.7,111.34 2.29,113.03 1.75,114.67 L 1.6,115.14 2.94,130.06 3.52,130.24 C 4.98,130.7 8.76,132.36 8.76,134.55 L 8.76,135.46 144.24,135.46 144.24,134.55 C 144.24,132.36 148.02,130.7 149.48,130.24 L 150.06,130.06 151.4,115.14 151.34,114.95 151.25,114.69 C 150.71,113.03 150.31,111.34 150.03,109.62 L 150.06,109.92 C 150.64,109.29 151.29,108.74 151.99,108.26 L 152.39,108.01 152.28,107.65 C 150.72,102.6 149.71,88.9 149.3,82.12 Z M 149.3,82.12" />
    <path id="block2-bezier2" stroke="none" fill="rgb(0, 0, 0)" d="M 150.47,109.01 L 150.58,109.83 C 149.85,104.6 149.53,99.33 149.62,94.06 L 149.68,93.04 C 150.05,98.35 150.84,103.63 152.04,108.83 L 151.88,107.87 C 151.39,108.21 150.93,108.58 150.5,108.98 M 150.15,115.75 L 149.87,118.82 C 149.34,117.17 148.78,115.86 148.74,115.79 L 148.75,115.82 C 148.48,114.64 148.63,113.41 149.18,112.34 L 149.21,112.29 C 149.45,113.4 149.74,114.5 150.09,115.58 M 143.06,134.17 L 138.23,134.17 C 147.29,130.5 148.94,123.6 149.08,119.62 149.28,120.29 149.48,120.99 149.62,121.66 L 148.94,129.19 C 147.43,129.75 143.75,131.37 143.06,134.17 Z M 4.06,129.19 L 3.38,121.67 C 3.52,121.02 3.7,120.34 3.9,119.69 L 3.9,119.76 C 3.96,121.35 4.25,122.91 4.77,124.41 5.84,127.56 8.5,131.62 14.78,134.17 L 9.94,134.17 C 9.26,131.37 5.57,129.75 4.06,129.19 Z M 4.29,115.71 C 4.24,115.82 3.67,117.16 3.13,118.82 L 2.85,115.75 2.91,115.56 C 3.26,114.49 3.55,113.4 3.79,112.29 L 3.82,112.28 C 4.38,113.34 4.55,114.57 4.28,115.75 M 1.17,107.9 L 1.35,107.09 C 2.46,101.88 3.15,96.59 3.43,91.28 L 3.34,92.3 C 3.52,97.58 3.29,102.86 2.65,108.1 L 2.52,108.99 C 2.09,108.59 1.64,108.22 1.15,107.89 M 2.53,26.99 L 2.42,26.17 C 3.15,31.39 3.47,36.67 3.38,41.94 L 3.32,42.97 C 2.95,37.65 2.16,32.36 0.96,27.17 L 1.14,28.12 C 1.62,27.79 2.07,27.42 2.49,27.03 M 2.85,20.26 L 3.13,17.18 C 3.66,18.83 4.22,20.14 4.26,20.21 L 4.25,20.18 C 4.52,21.35 4.37,22.59 3.82,23.66 L 3.79,23.71 C 3.55,22.6 3.26,21.51 2.91,20.43 M 9.94,1.83 L 14.77,1.83 C 5.71,5.5 4.06,12.4 3.92,16.38 3.72,15.71 3.52,15.01 3.38,14.34 L 4.06,6.81 C 5.57,6.25 9.26,4.63 9.94,1.83 Z M 148.94,6.81 L 149.62,14.33 C 149.48,14.98 149.3,15.66 149.1,16.31 L 149.1,16.24 C 149.04,14.65 148.75,13.09 148.23,11.59 147.16,8.44 144.5,4.38 138.22,1.83 L 143.06,1.83 C 143.75,4.63 147.43,6.25 148.94,6.81 Z M 148.71,20.29 C 148.76,20.19 149.33,18.84 149.87,17.18 L 150.15,20.26 150.09,20.42 C 149.74,21.51 149.44,22.61 149.21,23.73 L 149.18,23.73 C 148.62,22.66 148.45,21.43 148.73,20.25 M 151.83,28.1 L 151.65,28.91 C 150.54,34.12 149.85,39.41 149.57,44.72 L 149.66,43.7 C 149.48,38.42 149.71,33.14 150.35,27.9 L 150.46,26.98 C 150.9,27.4 151.37,27.78 151.87,28.13 M 147.8,116.1 C 147.8,116.12 148.04,116.67 148.35,117.5 L 148.35,117.52 C 148.59,119.8 148.33,122.1 147.58,124.26 146.02,128.83 142.1,132.26 136.25,134.17 L 16.7,134.17 C 4.16,130.09 4.29,120.42 4.64,117.53 4.96,116.66 5.21,116.06 5.23,116.02 L 5.24,115.99 C 5.62,114.17 5.2,112.27 4.08,110.78 5.93,100.72 4.99,87.89 4.95,87.31 L 4.94,48.76 C 4.99,48.12 5.93,35.27 4.09,25.19 L 4.11,25.15 C 5.22,23.62 5.62,21.69 5.19,19.85 5.2,19.88 4.96,19.33 4.65,18.5 L 4.65,18.48 C 4.41,16.2 4.67,13.9 5.42,11.74 6.98,7.17 10.9,3.74 16.75,1.83 L 136.3,1.83 C 148.84,5.91 148.71,15.58 148.36,18.47 148.04,19.34 147.79,19.94 147.77,19.98 L 147.76,20.01 C 147.38,21.83 147.8,23.73 148.92,25.22 147.07,35.28 148.01,48.11 148.05,48.69 L 148.06,87.24 C 148.01,87.88 147.07,100.73 148.91,110.81 L 148.89,110.84 C 147.78,112.37 147.38,114.31 147.81,116.16 M 149.88,82.23 L 149.88,59.12 C 150.3,52.29 151.32,33.13 152.89,28.03 L 153,27.67 152.67,27.46 152.6,27.41 C 151.86,26.92 151.19,26.34 150.59,25.7 L 150.63,26.05 C 150.9,24.32 151.31,22.61 151.85,20.94 L 152.01,20.48 150.66,5.44 150.07,5.26 C 148.7,4.83 144.79,3.12 144.79,0.91 L 144.79,-0 8.21,-0 8.21,0.91 C 8.21,3.12 4.4,4.8 2.93,5.26 L 2.34,5.44 0.99,20.48 1.06,20.67 1.15,20.94 C 1.69,22.6 2.1,24.31 2.37,26.03 L 2.36,25.74 C 1.76,26.38 1.1,26.94 0.38,27.43 L 0,27.67 0.11,28.03 C 1.68,33.12 2.7,52.25 3.12,59.09 L 3.12,82.21 C 2.7,89.04 1.68,102.88 0.11,107.97 L 0,108.33 0.33,108.54 0.25,108.49 C 0.98,108.96 1.66,109.52 2.26,110.15 L 2.37,109.96 C 2.1,111.69 1.69,113.39 1.15,115.05 L 0.99,115.52 2.34,130.56 2.93,130.74 C 4.4,131.2 8.21,132.88 8.21,135.09 L 8.21,136 144.79,136 144.79,135.09 C 144.79,132.88 148.6,131.2 150.07,130.74 L 150.66,130.56 152.01,115.52 151.94,115.33 151.85,115.07 C 151.31,113.4 150.9,111.69 150.63,109.96 L 150.65,110.25 C 151.23,109.63 151.89,109.07 152.6,108.58 L 153,108.33 152.89,107.97 C 151.32,102.88 150.3,89.07 149.88,82.23 Z M 149.88,82.23" />
</svg>
