<?xml version="1.0" encoding="UTF-8"?>
<!DOCTYPE svg PUBLIC "-//W3C//DTD SVG 1.1//EN" "http://www.w3.org/Graphics/SVG/1.1/DTD/svg11.dtd">
<svg version="1.1" xmlns="http://www.w3.org/2000/svg" xmlns:xlink="http://www.w3.org/1999/xlink" width="55" height="30"  xml:space="preserve" id="block10">
    <!-- Generated by PaintCode - http://www.paintcodeapp.com -->
    <path id="block10-bezier" stroke="none" fill="rgb(255, 255, 255)" d="M 54.3,18.7 L 54.3,11.3 45.9,0.7 9.1,0.7 0.7,11.3 0.7,18.7 9.1,29.3 45.9,29.3 54.3,18.7 Z M 54.3,18.7" />
    <path id="block10-bezier2" stroke="none" fill="rgb(0, 0, 0)" d="M 55,11 L 46.3,-0 8.7,-0 0,11 0,19 8.7,30 46.2,30 55,19 55,11 Z M 53.6,11.5 L 53.6,12.9 44.2,1.4 45.6,1.4 53.6,11.5 Z M 1.4,14.4 L 12,1.4 43.2,1.4 53.5,14.1 53.5,15.9 43.2,28.6 12,28.6 1.4,15.6 1.4,14.4 Z M 9.4,1.4 L 11,1.4 1.4,13.2 1.4,11.5 9.4,1.4 Z M 1.4,18.5 L 1.4,16.8 11,28.6 9.4,28.6 1.4,18.5 Z M 45.6,28.6 L 44.3,28.6 53.6,17.1 53.6,18.5 45.6,28.6 Z M 45.6,28.6" />
</svg>
