<?xml version="1.0" encoding="UTF-8"?>
<!DOCTYPE svg PUBLIC "-//W3C//DTD SVG 1.1//EN" "http://www.w3.org/Graphics/SVG/1.1/DTD/svg11.dtd">
<svg version="1.1" xmlns="http://www.w3.org/2000/svg" xmlns:xlink="http://www.w3.org/1999/xlink" width="240" height="255"  xml:space="preserve" id="block6">
    <!-- Generated by PaintCode - http://www.paintcodeapp.com -->
    <path id="block6-bezier" stroke="none" fill="rgb(255, 255, 255)" d="M 237.93,227.9 L 237.9,227.3 237.31,227.26 C 237.28,227.26 235.31,227.05 234.74,222.14 L 234.74,5.47 234.18,5.3 C 232.76,4.85 229.06,3.22 229.06,1.05 L 229.06,0.25 10.94,0.25 10.94,1.05 C 10.94,3.22 7.24,4.85 5.82,5.3 L 5.26,5.47 5.26,222.14 C 4.69,227.05 2.72,227.26 2.71,227.26 L 2.07,227.26 2.07,227.9 2.08,227.86 C 1.99,232.78 3.07,237.64 5.22,242.05 L 5.26,249.34 5.82,249.51 C 7.25,249.95 10.94,251.58 10.94,253.75 L 10.94,254.55 229.06,254.55 229.06,253.75 C 229.06,251.58 232.76,249.95 234.18,249.51 L 234.74,249.33 234.74,242.13 234.78,242.05 C 236.93,237.64 238.01,232.78 237.92,227.86" />
    <path id="block6-bezier2" stroke="none" fill="rgb(0, 0, 0)" d="M 227.99,253.21 L 225.11,253.21 225.18,253.17 C 228.62,251.1 231.54,248.28 233.72,244.92 L 233.6,248.42 C 232.19,248.95 228.61,250.54 227.99,253.21 Z M 6.4,248.42 L 6.4,245.1 6.28,244.92 C 7.2,246.34 8.25,247.66 9.42,248.87 L 9.73,249.19 C 11.27,250.72 12.98,252.06 14.84,253.18 L 12.01,253.21 C 11.39,250.54 7.81,248.95 6.4,248.42 Z M 2.89,228.6 L 2.9,228.59 C 3.51,228.35 4.04,227.94 4.42,227.41 L 4.43,227.4 C 4.57,227.22 4.69,227.02 4.81,226.82 L 4.8,239.18 4.74,239 C 3.51,235.64 2.89,232.09 2.89,228.51 M 12.01,1.6 L 15.22,1.6 C 11.04,3.84 8.03,8.19 6.4,11.05 L 6.4,6.38 C 7.81,5.86 11.39,4.27 12.01,1.6 Z M 233.6,6.38 L 233.6,11.05 C 231.97,8.19 228.96,3.84 224.78,1.6 L 227.99,1.6 C 228.61,4.27 232.19,5.86 233.6,6.38 Z M 233.6,236.4 L 233.62,236.57 C 232.98,231.98 232.61,227.35 232.53,222.72 L 232.52,11.77 C 233.03,12.66 233.39,13.38 233.6,13.82 L 233.6,236.4 Z M 6.4,240.89 L 6.24,241.83 C 7.37,235.41 8,228.9 8.11,222.38 L 8.12,10.69 C 10.24,7.28 14.01,2.52 18.98,1.6 L 221.02,1.6 C 225.99,2.52 229.76,7.28 231.88,10.7 L 231.88,221.73 231.89,222.38 C 232,228.9 232.63,235.41 233.76,241.83 L 233.6,242.64 233.57,242.69 C 232.43,244.75 231.01,246.64 229.34,248.3 L 229.61,248.03 C 227.53,250.19 225.07,251.94 222.35,253.21 L 17.65,253.21 17.45,253.11 C 12.65,250.77 8.71,246.96 6.19,242.24 L 6.4,240.89 Z M 6.4,13.82 C 6.61,13.38 6.97,12.66 7.48,11.77 L 7.48,221.73 7.47,222.72 C 7.39,227.35 7.02,231.98 6.38,236.57 L 6.4,13.82 Z M 235.57,227.4 L 235.58,227.41 C 235.96,227.94 236.49,228.35 237.1,228.59 L 237.12,228.48 C 237.12,232.07 236.49,235.64 235.26,239.02 L 235.2,226.84 235.2,226.84 C 235.31,227.03 235.43,227.21 235.56,227.39 M 238.4,228.1 L 238.38,227.5 237.78,227.46 C 237.75,227.46 235.78,227.25 235.2,222.33 L 235.2,5.23 234.64,5.05 C 233.21,4.61 229.5,2.97 229.5,0.8 L 229.5,-0 10.5,-0 10.5,0.8 C 10.5,2.97 6.79,4.61 5.36,5.05 L 4.8,5.23 4.8,222.33 C 4.23,227.25 2.25,227.46 2.24,227.46 L 1.6,227.46 1.6,228.1 1.6,228.07 C 1.52,232.98 2.59,237.84 4.75,242.26 L 4.8,249.58 5.36,249.75 C 6.79,250.2 10.5,251.83 10.5,254.01 L 10.5,254.81 229.5,254.81 229.5,254.01 C 229.5,251.83 233.21,250.2 234.64,249.75 L 235.2,249.58 235.2,242.36 235.25,242.26 C 237.41,237.84 238.48,232.98 238.4,228.07" />
</svg>
