<?xml version="1.0" encoding="UTF-8"?>
<!DOCTYPE svg PUBLIC "-//W3C//DTD SVG 1.1//EN" "http://www.w3.org/Graphics/SVG/1.1/DTD/svg11.dtd">
<svg version="1.1" xmlns="http://www.w3.org/2000/svg" xmlns:xlink="http://www.w3.org/1999/xlink" width="100" height="65"  xml:space="preserve" id="block1">
    <!-- Generated by PaintCode - http://www.paintcodeapp.com -->
    <g id="block1-block1Group">
        <path id="block1-bezier" stroke="none" fill="rgb(255, 255, 255)" d="M 93.1,0.6 L 6.9,0.6 0.5,7 0.5,58 6.9,64.4 93.1,64.4 99.5,58 99.5,7 93.1,0.6 Z M 93.1,0.6" />
        <path id="block1-bezier2" stroke="none" fill="rgb(0, 0, 0)" d="M 92.8,63.2 L 89.3,63.2 C 92,62.1 94.3,60.1 95.9,57.7 L 96,57.7 96,57.6 C 97,56.1 97.8,54.4 98.3,52.7 L 98.3,57.7 92.8,63.2 Z M 1.8,57.8 L 1.8,52.8 C 2.4,54.5 3.1,56.2 4.1,57.7 L 4.1,57.8 4.2,57.8 C 5.8,60.3 8.1,62.2 10.8,63.3 L 7.2,63.3 1.8,57.8 Z M 7.2,1.8 L 10.7,1.8 C 8,2.9 5.7,4.9 4.1,7.3 L 4.1,7.3 4.1,7.4 C 3.1,8.9 2.3,10.6 1.8,12.3 L 1.8,7.3 7.2,1.8 Z M 95.9,8.9 C 96.1,9.3 96.3,9.7 96.5,10.1 97.3,11.7 97.8,13.4 98.2,15.2 L 98.2,49.8 C 97.7,52 97,54.1 95.9,56.1 L 95.9,8.9 Z M 1.8,15.2 C 2.2,13 3,10.9 4.1,8.9 L 4.1,56.1 C 3.9,55.7 3.7,55.3 3.5,54.9 2.7,53.3 2.2,51.6 1.8,49.8 L 1.8,15.2 Z M 86.7,63.2 L 13.2,63.2 C 9.9,62.4 7,60.4 5.1,57.6 L 5.1,7.3 C 7,4.6 9.9,2.6 13.3,1.8 L 86.8,1.8 C 90.1,2.6 93,4.6 94.9,7.4 L 94.9,57.7 C 93,60.4 90.1,62.4 86.7,63.2 Z M 98.2,7.2 L 98.2,12.2 C 97.6,10.5 96.9,8.8 95.9,7.3 L 95.9,7.3 95.8,7.3 C 94.2,4.8 91.9,2.9 89.2,1.8 L 92.7,1.8 98.2,7.2 Z M 93.5,-0 L 6.5,-0 0,6.5 0,58.5 6.5,65 93.5,65 100,58.5 100,6.5 93.5,-0 Z M 93.5,-0" />
    </g>
</svg>
