<?xml version="1.0" encoding="UTF-8"?>
<!DOCTYPE svg PUBLIC "-//W3C//DTD SVG 1.1//EN" "http://www.w3.org/Graphics/SVG/1.1/DTD/svg11.dtd">
<svg version="1.1" xmlns="http://www.w3.org/2000/svg" xmlns:xlink="http://www.w3.org/1999/xlink" width="55" height="30"  xml:space="preserve" id="block11">
    <!-- Generated by PaintCode - http://www.paintcodeapp.com -->
    <path id="block11-bezier" stroke="none" fill="rgb(255, 255, 255)" d="M 54.3,18.7 L 54.3,11.3 45.9,0.7 9.1,0.7 0.7,11.3 0.7,18.7 9.1,29.3 45.9,29.3 54.3,18.7 Z M 54.3,18.7" />
    <path id="block11-bezier2" stroke="none" fill="rgb(0, 0, 0)" d="M 55,11 L 46.3,-0 8.7,-0 0,11 0,19 8.7,30 46.2,30 55,19 55,11 Z M 51.7,9.1 C 51.5,9.4 51.3,9.7 51.1,10.1 L 44,1.4 45.6,1.4 51.7,9.1 Z M 49.9,13.8 C 49.3,13.9 48.9,14.4 48.9,15 48.9,15.6 49.3,16.1 49.9,16.2 50,17.2 50.3,18.2 50.7,19.2 L 50.7,19.2 43,28.6 12,28.6 4.3,19.2 4.2,19.3 C 4.6,18.3 4.9,17.3 5,16.3 5.6,16.2 6,15.7 6,15.1 6,14.5 5.6,14 5,13.9 4.9,12.9 4.6,11.8 4.2,10.9 L 4.3,11 12,1.4 43,1.4 50.7,10.8 50.8,10.7 C 50.3,11.7 50.1,12.8 49.9,13.8 Z M 9.4,1.4 L 11,1.4 3.9,10.1 C 3.7,9.8 3.5,9.4 3.3,9.1 L 9.4,1.4 Z M 1.4,11.5 L 2.8,9.8 C 3.6,11 4.1,12.4 4.3,13.9 3.9,14.1 3.6,14.5 3.6,15 L 3.6,15 C 3.6,15.5 3.9,15.9 4.3,16.1 4.1,17.6 3.6,19 2.8,20.2 L 1.4,18.4 1.4,11.5 Z M 3.4,20.9 C 3.6,20.6 3.8,20.2 4,19.9 L 11.1,28.6 9.4,28.6 3.4,20.9 Z M 45.6,28.6 L 44,28.6 51.1,20 C 51.3,20.3 51.5,20.7 51.7,21 L 45.6,28.6 Z M 52.2,20.3 C 51.4,19 50.9,17.6 50.7,16.2 51.1,16 51.4,15.6 51.4,15.1 L 51.4,15.1 C 51.4,14.6 51.1,14.2 50.7,14 50.9,12.6 51.4,11.2 52.2,9.9 L 53.6,11.6 53.6,18.6 52.2,20.3 Z M 52.2,20.3" />
</svg>
