<?xml version="1.0" encoding="UTF-8"?>
<!DOCTYPE svg PUBLIC "-//W3C//DTD SVG 1.1//EN" "http://www.w3.org/Graphics/SVG/1.1/DTD/svg11.dtd">
<svg version="1.1" xmlns="http://www.w3.org/2000/svg" xmlns:xlink="http://www.w3.org/1999/xlink" width="147" height="131"  xml:space="preserve" id="block2">
    <!-- Generated by PaintCode - http://www.paintcodeapp.com -->
    <path id="block2-bezier" stroke="none" fill="rgb(255, 255, 255)" d="M 143.51,78.98 L 143.5,56.92 C 143.9,50.41 144.87,32.13 146.37,27.27 L 146.48,26.92 146.16,26.72 146.1,26.68 C 145.4,26.21 144.75,25.66 144.18,25.04 L 144.21,25.37 C 144.48,23.72 144.87,22.09 145.38,20.5 L 145.53,20.06 144.24,5.71 143.69,5.54 C 142.38,5.13 138.65,3.5 138.65,1.4 L 138.65,0.52 8.42,0.52 8.42,1.4 C 8.42,3.5 4.78,5.1 3.38,5.54 L 2.82,5.71 1.54,20.06 1.6,20.24 1.68,20.5 C 2.2,22.09 2.59,23.71 2.85,25.36 L 2.84,25.08 C 2.27,25.69 1.64,26.23 0.95,26.69 L 0.59,26.92 0.7,27.27 C 2.19,32.12 3.16,50.37 3.56,56.9 L 3.56,78.95 C 3.16,85.47 2.19,98.67 0.7,103.52 L 0.59,103.88 0.9,104.07 0.83,104.02 C 1.53,104.48 2.17,105.01 2.74,105.6 L 2.85,105.43 C 2.59,107.08 2.2,108.7 1.68,110.29 L 1.54,110.73 2.82,125.08 3.38,125.25 C 4.78,125.69 8.42,127.29 8.42,129.4 L 8.42,130.27 138.65,130.27 138.65,129.4 C 138.65,127.29 142.28,125.69 143.69,125.25 L 144.24,125.08 145.53,110.73 145.47,110.55 145.39,110.3 C 144.87,108.71 144.48,107.08 144.21,105.42 L 144.24,105.71 C 144.8,105.11 145.42,104.57 146.1,104.11 L 146.48,103.87 146.37,103.52 C 144.88,98.67 143.91,85.5 143.51,78.98 Z M 143.51,78.98" />
    <path id="block2-bezier2" stroke="none" fill="rgb(0, 0, 0)" d="M 144.63,104.83 L 144.74,105.63 C 144.04,100.6 143.73,95.53 143.82,90.46 144.35,94.73 145.04,100.61 145.94,103.77 L 145.99,103.73 C 145.52,104.06 145.08,104.42 144.66,104.81 M 144.32,111.31 L 144.06,114.27 C 143.55,112.68 143.01,111.42 142.97,111.35 L 142.98,111.38 C 142.72,110.25 142.86,109.07 143.39,108.03 L 143.42,108 C 143.65,109.06 143.93,110.12 144.27,111.15 M 137.52,129.03 L 132.87,129.03 C 141.57,125.5 143.16,118.87 143.29,115.04 143.49,115.69 143.68,116.36 143.81,117.01 L 143.16,124.25 C 141.71,124.78 138.17,126.34 137.52,129.03 Z M 3.9,124.25 L 3.25,117.01 C 3.38,116.39 3.56,115.73 3.75,115.11 L 3.75,115.18 C 3.81,116.7 4.09,118.21 4.58,119.65 5.62,122.68 8.17,126.58 14.21,129.03 L 9.55,129.03 C 8.9,126.34 5.36,124.78 3.9,124.25 Z M 4.12,111.28 C 4.07,111.38 3.53,112.67 3.01,114.27 L 2.74,111.31 2.8,111.14 C 3.13,110.11 3.42,109.06 3.64,108 L 3.67,107.98 C 4.21,109 4.37,110.19 4.11,111.32 M 1.13,103.77 C 2.02,100.61 2.72,94.73 3.22,89.13 L 3.21,88.77 C 3.38,93.84 3.16,98.92 2.54,103.96 L 2.42,104.82 C 2.01,104.43 1.57,104.08 1.11,103.75 M 2.43,25.96 L 2.32,25.16 C 3.03,30.19 3.34,35.26 3.25,40.34 2.72,36.06 2.02,30.19 1.13,27.02 L 1.09,27.05 C 1.55,26.73 1.99,26.38 2.39,26 M 2.74,19.48 L 3.01,16.52 C 3.52,18.11 4.06,19.37 4.09,19.44 L 4.09,19.41 C 4.35,20.54 4.2,21.72 3.67,22.76 L 3.64,22.8 C 3.42,21.73 3.13,20.68 2.8,19.65 M 9.55,1.76 L 14.2,1.76 C 5.49,5.29 3.9,11.92 3.77,15.75 3.57,15.11 3.39,14.43 3.25,13.79 L 3.9,6.54 C 5.36,6.01 8.9,4.45 9.55,1.76 Z M 143.16,6.54 L 143.81,13.79 C 143.68,14.41 143.51,15.06 143.32,15.69 L 143.31,15.62 C 143.26,14.09 142.98,12.58 142.48,11.14 141.45,8.12 138.9,4.21 132.86,1.76 L 137.52,1.76 C 138.17,4.45 141.71,6.01 143.16,6.54 Z M 142.95,19.52 C 142.99,19.41 143.54,18.12 144.06,16.53 L 144.32,19.48 144.27,19.63 C 143.93,20.68 143.65,21.74 143.42,22.82 L 143.4,22.82 C 142.85,21.8 142.7,20.61 142.96,19.47 M 145.94,27.02 C 145.04,30.19 144.35,36.06 143.85,41.66 L 143.86,42.03 C 143.68,36.95 143.9,31.87 144.52,26.83 L 144.62,25.95 C 145.05,26.35 145.51,26.72 145.98,27.06 M 142.07,111.65 C 142.07,111.67 142.3,112.21 142.6,113 L 142.6,113.02 C 142.83,115.21 142.58,117.42 141.86,119.51 140.36,123.9 136.59,127.2 130.97,129.03 L 16.06,129.03 C 3.99,125.11 4.13,115.81 4.46,113.03 4.77,112.2 5.01,111.62 5.03,111.58 L 5.03,111.55 C 5.41,109.8 5,107.97 3.92,106.54 5.7,96.86 4.8,84.52 4.76,83.97 L 4.75,46.89 C 4.8,46.28 5.7,33.92 3.93,24.22 L 3.95,24.19 C 5.02,22.72 5.4,20.86 4.99,19.09 5,19.12 4.77,18.59 4.47,17.79 L 4.47,17.77 C 4.24,15.58 4.49,13.37 5.21,11.29 6.71,6.9 10.48,3.59 16.1,1.76 L 131.01,1.76 C 143.07,5.68 142.94,14.98 142.61,17.76 142.3,18.6 142.05,19.18 142.04,19.22 L 142.03,19.24 C 141.66,20.99 142.07,22.82 143.14,24.25 141.37,33.93 142.27,46.27 142.31,46.83 L 142.31,83.9 C 142.27,84.51 141.36,96.88 143.14,106.57 L 143.12,106.6 C 142.05,108.07 141.67,109.93 142.08,111.71 M 144.07,79.08 L 144.07,56.85 C 144.47,50.29 145.45,31.86 146.96,26.96 L 147.07,26.61 146.75,26.41 146.68,26.36 C 145.98,25.89 145.33,25.34 144.75,24.71 L 144.78,25.05 C 145.05,23.38 145.44,21.74 145.96,20.13 L 146.11,19.7 144.81,5.23 144.25,5.06 C 142.93,4.65 139.17,3 139.17,0.88 L 139.17,-0 7.89,-0 7.89,0.88 C 7.89,3 4.23,4.62 2.82,5.06 L 2.25,5.23 0.95,19.7 1.02,19.88 1.1,20.14 C 1.62,21.74 2.02,23.37 2.28,25.04 L 2.26,24.76 C 1.7,25.37 1.06,25.91 0.37,26.38 L 0,26.61 0.11,26.96 C 1.62,31.85 2.59,50.25 3,56.83 L 3,79.06 C 2.59,85.63 1.62,98.94 0.11,103.83 L 0,104.19 0.31,104.38 0.24,104.34 C 0.94,104.79 1.59,105.32 2.17,105.93 L 2.28,105.76 C 2.02,107.42 1.62,109.05 1.11,110.65 L 0.95,111.1 2.25,125.56 2.82,125.74 C 4.23,126.18 7.89,127.79 7.89,129.91 L 7.89,130.79 139.17,130.79 139.17,129.91 C 139.17,127.79 142.84,126.18 144.25,125.74 L 144.81,125.56 146.11,111.1 146.05,110.92 145.96,110.67 C 145.44,109.06 145.05,107.41 144.78,105.75 L 144.81,106.03 C 145.37,105.43 146,104.89 146.69,104.43 L 147.07,104.19 146.96,103.83 C 145.45,98.94 144.47,85.66 144.07,79.08 Z M 144.07,79.08" />
</svg>
