<?xml version="1.0" encoding="UTF-8"?>
<!DOCTYPE svg PUBLIC "-//W3C//DTD SVG 1.1//EN" "http://www.w3.org/Graphics/SVG/1.1/DTD/svg11.dtd">
<svg version="1.1" xmlns="http://www.w3.org/2000/svg" xmlns:xlink="http://www.w3.org/1999/xlink" width="211" height="65"  xml:space="preserve" id="block5">
    <!-- Generated by PaintCode - http://www.paintcodeapp.com -->
    <path id="block5-bezier" stroke="none" fill="rgb(255, 255, 255)" d="M 6.34,62.98 L 204.78,62.98 C 204.78,59.73 210.48,57.96 210.48,57.96 L 210.48,0.64 207.18,0.64 C 207.18,0.64 204.48,5.7 195.78,0.64 L 15.34,0.64 C 6.64,5.7 3.94,0.64 3.94,0.64 L 0.64,0.64 0.64,57.96 C 0.64,57.96 6.34,59.73 6.34,62.98 Z M 6.34,62.98" />
    <path id="block5-bezier2" stroke="none" fill="rgb(0, 0, 0)" d="M 3.6,1.28 L 3.61,1.3 C 4.59,2.54 6.03,3.33 7.61,3.47 L 7.61,3.47 C 7.92,4.03 8.62,4.23 9.18,3.92 9.38,3.81 9.55,3.63 9.65,3.42 L 9.69,3.42 C 11.81,3.08 13.84,2.32 15.67,1.19 L 195.61,1.28 195.7,1.33 C 197.54,2.44 199.59,3.16 201.71,3.46 L 201.47,3.42 C 201.75,3.99 202.44,4.23 203.01,3.95 203.22,3.85 203.4,3.68 203.51,3.47 L 203.52,3.47 C 205.09,3.33 206.54,2.54 207.51,1.3 L 209.84,1.28 209.84,12.8 209.88,12.59 C 208.73,19.14 208.09,25.76 207.97,32.41 L 207.96,53.08 C 205.61,56.88 201.21,62.34 195.4,62.34 L 15.72,62.34 C 9.91,62.34 5.52,56.88 3.16,53.08 L 3.16,32.92 3.15,32.41 C 3.04,25.76 2.4,19.14 1.24,12.59 L 1.28,1.28 3.6,1.28 Z M 209.84,49.62 C 209.71,49.92 209.29,50.82 208.6,52.01 L 208.6,32.92 208.62,31.97 C 208.71,26.55 209.19,21.13 210.03,15.77 L 209.84,49.62 Z M 204.2,62.34 L 200.57,62.34 C 205.05,60.08 208.22,55.35 209.84,52.45 L 209.84,57.5 C 208.52,57.99 204.73,59.6 204.2,62.34 Z M 6.92,62.34 C 6.39,59.6 2.61,57.99 1.28,57.5 L 1.28,52.45 C 2.9,55.35 6.08,60.08 10.56,62.34 L 6.92,62.34 Z M 2.52,52.01 C 1.84,50.81 1.42,49.92 1.28,49.62 L 1.28,17.02 1.39,17.79 C 2.15,23.16 2.53,28.58 2.53,34 L 2.52,52.01 Z M 0.45,58.57 C 1.91,59.02 5.7,60.7 5.7,62.98 L 5.7,63.62 205.42,63.62 205.42,62.98 C 205.42,60.71 209.21,59.03 210.67,58.57 L 211.12,58.43 211.12,-0 206.8,0.01 206.62,0.33 206.63,0.32 C 205.91,1.39 204.75,2.07 203.47,2.18 L 203.44,2.19 C 203.08,1.67 202.37,1.55 201.86,1.91 201.76,1.97 201.67,2.06 201.6,2.15 L 201.67,2.16 C 199.69,1.85 197.79,1.14 196.09,0.08 L 195.96,-0 15.17,-0 15.02,0.09 15.04,0.08 C 13.34,1.14 11.44,1.85 9.45,2.16 L 9.52,2.15 C 9.14,1.65 8.43,1.55 7.93,1.93 7.83,2 7.75,2.09 7.68,2.18 L 7.66,2.18 C 6.38,2.07 5.21,1.38 4.49,0.32 L 4.33,-0 0,-0 0,58.43 0.45,58.57 Z M 0.45,58.57" />
</svg>
