<?xml version="1.0" encoding="UTF-8"?>
<!DOCTYPE svg PUBLIC "-//W3C//DTD SVG 1.1//EN" "http://www.w3.org/Graphics/SVG/1.1/DTD/svg11.dtd">
<svg version="1.1" xmlns="http://www.w3.org/2000/svg" xmlns:xlink="http://www.w3.org/1999/xlink" width="45" height="20"  xml:space="preserve" id="block9">
    <!-- Generated by PaintCode - http://www.paintcodeapp.com -->
    <path id="block9-bezier" stroke="none" fill="rgb(255, 255, 255)" d="M 39.1,2.9 C 38.2,3.8 36.7,3.8 35.8,2.9 35.2,2.3 35,1.5 35.2,0.7 L 9.8,0.7 C 10.1,1.9 9.4,3.2 8.1,3.5 7.3,3.7 6.4,3.5 5.9,2.9 L 0.6,7.3 0.6,12.7 5.8,17.1 C 6.7,16.2 8.2,16.2 9.1,17.1 9.7,17.7 9.9,18.5 9.7,19.3 L 35.1,19.3 C 34.8,18.1 35.5,16.8 36.8,16.5 37.6,16.3 38.5,16.5 39,17.1 L 44.2,12.7 44.2,7.3 39.1,2.9 Z M 39.1,2.9" />
    <path id="block9-bezier2" stroke="none" fill="rgb(0, 0, 0)" d="M 10.5,18.7 L 34.5,18.7 C 34.5,17.9 34.8,17.2 35.4,16.7 36.4,15.7 38,15.6 39.2,16.3 L 43.8,12.4 43.8,7.6 39.2,3.7 C 38,4.5 36.5,4.3 35.4,3.3 34.9,2.8 34.5,2 34.5,1.3 L 10.5,1.3 C 10.5,2.1 10.2,2.8 9.6,3.3 8.6,4.3 7,4.4 5.8,3.7 L 1.3,7.6 1.3,12.5 5.9,16.4 C 7.1,15.6 8.6,15.8 9.7,16.8 10.2,17.2 10.5,18 10.5,18.7 Z M 36,20 L 9,20 9.2,19.2 C 9.4,18.6 9.2,18 8.8,17.6 8.1,17 7.1,17 6.4,17.6 L 5.9,18 0,13 0,7 5.9,2 6.3,2.4 C 7,3.1 8,3.1 8.7,2.4 9.1,2 9.3,1.4 9.1,0.8 L 9,-0 36,-0 35.8,0.8 C 35.6,1.4 35.8,2 36.2,2.4 36.9,3 37.9,3 38.6,2.4 L 39.1,2 45,7 45,13 39.1,18 38.7,17.6 C 38,17 37,17 36.3,17.6 35.9,18 35.7,18.6 35.9,19.2 L 36,20 Z M 36,20" />
</svg>
