<?xml version="1.0" encoding="UTF-8"?>
<!DOCTYPE svg PUBLIC "-//W3C//DTD SVG 1.1//EN" "http://www.w3.org/Graphics/SVG/1.1/DTD/svg11.dtd">
<svg version="1.1" xmlns="http://www.w3.org/2000/svg" xmlns:xlink="http://www.w3.org/1999/xlink" width="195" height="200"  xml:space="preserve" id="block16">
    <!-- Generated by PaintCode - http://www.paintcodeapp.com -->
    <g id="block16-group">
        <rect id="block16-rectangle" stroke="none" fill="rgb(255, 255, 255)" x="1.1" y="6" width="193.2" height="188" />
        <rect id="block16-rectangle2" stroke="rgb(0, 0, 0)" stroke-width="1.77" stroke-miterlimit="10" fill="none" x="1.1" y="6" width="193.2" height="188" />
        <path id="block16-bezier" stroke="rgb(0, 0, 0)" stroke-width="1.77" stroke-miterlimit="10" fill="none" d="M 194.3,11.2 C 190.6,8.5 187.5,5 185.3,1 L 10,1 C 7.8,5 4.7,8.5 1,11.2" />
        <path id="block16-bezier2" stroke="rgb(0, 0, 0)" stroke-width="0.77" stroke-miterlimit="10" fill="none" d="M 138.5,3.5 C 125.3,7.7 111.5,9.8 97.7,9.7 83.8,9.8 70.1,7.7 56.9,3.5 M 8.6,3.4 L 185.5,3.4" />
        <ellipse id="block16-oval" stroke="none" fill="rgb(0, 0, 0)" cx="0" cy="-0" rx="1.7" ry="1.6"  transform="translate(97.7, 9.6) rotate(9.1)" />
        <path id="block16-bezier3" stroke="rgb(0, 0, 0)" stroke-width="1.77" stroke-miterlimit="10" fill="none" d="M 1.1,188.7 C 4.8,191.4 7.9,194.9 10.1,198.9 L 185.4,198.9 C 187.6,194.9 190.7,191.4 194.4,188.7" />
        <path id="block16-bezier4" stroke="rgb(0, 0, 0)" stroke-width="0.77" stroke-miterlimit="10" fill="none" d="M 56.9,196.5 C 70.1,192.3 83.9,190.2 97.7,190.3 111.6,190.2 125.3,192.3 138.5,196.5 M 186.8,196.5 L 9.8,196.5" />
        <ellipse id="block16-oval2" stroke="none" fill="rgb(0, 0, 0)" cx="0" cy="-0" rx="1.7" ry="1.6"  transform="translate(97.7, 190.4) rotate(9.1)" />
    </g>
</svg>
