<?xml version="1.0" encoding="UTF-8"?>
<!DOCTYPE svg PUBLIC "-//W3C//DTD SVG 1.1//EN" "http://www.w3.org/Graphics/SVG/1.1/DTD/svg11.dtd">
<svg version="1.1" xmlns="http://www.w3.org/2000/svg" xmlns:xlink="http://www.w3.org/1999/xlink" width="210" height="65"  xml:space="preserve" id="block5">
    <!-- Generated by PaintCode - http://www.paintcodeapp.com -->
    <g id="block5-block5Group">
        <path id="block5-bezier" stroke="none" fill="rgb(255, 255, 255)" d="M 6.3,64.4 L 203.6,64.4 C 203.6,61.2 209.3,59.4 209.3,59.4 L 209.3,0.6 206,0.6 C 206,0.6 203.3,5.7 194.6,0.6 L 15.3,0.6 C 6.6,5.7 3.9,0.6 3.9,0.6 L 0.6,0.6 0.6,59.3 C 0.6,59.3 6.3,61.1 6.3,64.4 Z M 6.3,64.4" />
        <path id="block5-bezier2" stroke="none" fill="rgb(0, 0, 0)" d="M 3.6,1.3 C 4.6,2.6 6,3.3 7.6,3.5 7.9,4.1 8.6,4.3 9.2,4 9.4,3.9 9.6,3.7 9.7,3.5 11.8,3.2 13.8,2.4 15.6,1.4 L 194.6,1.4 C 196.4,2.5 198.4,3.2 200.5,3.5 200.8,4.1 201.5,4.3 202,4 202.2,3.9 202.4,3.7 202.5,3.5 204.1,3.4 205.5,2.6 206.5,1.3 L 208.8,1.3 208.8,12.8 C 207.6,19.4 207,26.2 206.9,32.9 L 206.9,54.4 C 204.5,58.2 200.2,63.7 194.3,63.7 L 15.7,63.7 C 9.9,63.7 5.5,58.2 3.1,54.4 L 3.1,32.9 C 3,26.2 2.4,19.4 1.2,12.8 L 1.2,1.3 3.6,1.3 Z M 208.7,51 C 208.6,51.3 208.1,52.2 207.5,53.4 L 207.5,32.9 C 207.5,27.6 208,22.3 208.7,17 L 208.7,51 Z M 203.1,63.7 L 199.5,63.7 C 204,61.4 207.2,56.7 208.8,53.8 L 208.8,58.9 C 207.4,59.4 203.6,61 203.1,63.7 Z M 6.9,63.7 C 6.4,61 2.6,59.4 1.3,58.9 L 1.3,53.8 C 2.9,56.7 6.1,61.4 10.6,63.7 L 6.9,63.7 Z M 2.5,53.4 C 1.8,52.2 1.4,51.3 1.3,51 L 1.3,17 C 2.1,22.3 2.5,27.6 2.5,32.9 L 2.5,53.4 Z M 0.5,60 C 2,60.5 5.7,62.1 5.7,64.4 L 5.7,65 204.3,65 204.3,64.4 C 204.3,62.1 208.1,60.4 209.5,60 L 210,59.9 210,-0 205.7,-0 205.5,0.3 C 204.8,1.4 203.6,2 202.3,2.2 201.9,1.7 201.2,1.6 200.7,1.9 200.6,2 200.5,2.1 200.4,2.1 198.4,1.8 196.6,1.1 194.9,-0 L 194.8,-0 15.2,-0 15,0.1 C 13.3,1.1 11.5,1.8 9.5,2.2 9.1,1.7 8.4,1.6 7.9,1.9 7.8,2 7.8,2.1 7.7,2.2 6.4,2.1 5.2,1.4 4.5,0.3 L 4.3,-0 0,-0 0,59.8 0.5,60 Z M 0.5,60" />
    </g>
</svg>
