<?xml version="1.0" encoding="UTF-8"?>
<!DOCTYPE svg PUBLIC "-//W3C//DTD SVG 1.1//EN" "http://www.w3.org/Graphics/SVG/1.1/DTD/svg11.dtd">
<svg version="1.1" xmlns="http://www.w3.org/2000/svg" xmlns:xlink="http://www.w3.org/1999/xlink" width="80" height="50"  xml:space="preserve" id="block1">
    <!-- Generated by PaintCode - http://www.paintcodeapp.com -->
    <g id="block1-block1layer">
        <path id="block1-bezier" stroke="none" fill="rgb(255, 255, 255)" d="M 74.58,0.5 L 5.42,0.5 0.4,5.48 0.4,44.52 5.42,49.5 74.58,49.5 79.6,44.52 79.6,5.48 74.58,0.5 Z M 74.58,0.5" />
        <path id="block1-bezier2" stroke="none" fill="rgb(0, 0, 0)" d="M 74.35,48.61 L 71.61,48.61 71.59,48.61 C 73.7,47.72 75.49,46.22 76.74,44.3 L 76.79,44.29 76.79,44.22 76.79,44.22 C 77.56,43.03 78.18,41.73 78.62,40.38 L 78.61,44.34 74.35,48.61 Z M 1.39,44.34 L 1.39,40.41 1.38,40.39 C 1.82,41.74 2.44,43.02 3.21,44.21 L 3.21,44.29 3.26,44.29 3.26,44.3 C 4.51,46.22 6.3,47.72 8.41,48.61 L 5.65,48.61 1.39,44.34 Z M 5.65,1.39 L 8.39,1.39 8.41,1.39 C 6.3,2.28 4.51,3.78 3.26,5.7 L 3.21,5.71 3.21,5.78 3.21,5.79 C 2.44,6.98 1.82,8.26 1.38,9.61 L 1.39,5.66 5.65,1.39 Z M 76.79,6.94 C 76.96,7.24 77.14,7.52 77.29,7.85 L 77.28,7.83 C 77.86,9.07 78.3,10.38 78.58,11.73 L 78.61,38.11 78.59,38.21 C 78.22,39.92 77.61,41.57 76.76,43.1 L 76.79,6.94 Z M 1.39,11.89 L 1.41,11.79 C 1.78,10.08 2.39,8.43 3.24,6.9 L 3.21,43.06 C 3.04,42.76 2.86,42.48 2.71,42.15 L 2.72,42.17 C 2.14,40.92 1.7,39.62 1.42,38.28 L 1.39,11.89 Z M 69.65,48.61 L 10.33,48.61 10.36,48.61 C 7.79,48.02 5.53,46.5 4.02,44.34 L 3.97,5.76 4,5.72 C 5.53,3.52 7.83,1.98 10.44,1.37 L 69.67,1.39 69.64,1.39 C 72.21,1.98 74.47,3.5 75.98,5.66 L 76.03,44.24 76,44.28 C 74.47,46.48 72.17,48.02 69.56,48.63 M 78.61,5.66 L 78.61,9.59 78.62,9.62 C 78.18,8.27 77.56,6.97 76.79,5.78 L 76.79,5.71 76.74,5.71 76.74,5.7 C 75.49,3.79 73.7,2.28 71.59,1.39 L 74.35,1.39 78.61,5.66 Z M 74.93,-0 L 5.07,-0 0,5.08 0,44.92 5.07,50 74.93,50 80,44.92 80,5.08 74.93,-0 Z M 74.93,-0" />
    </g>
</svg>
