<?xml version="1.0" encoding="UTF-8"?>
<!DOCTYPE svg PUBLIC "-//W3C//DTD SVG 1.1//EN" "http://www.w3.org/Graphics/SVG/1.1/DTD/svg11.dtd">
<svg version="1.1" xmlns="http://www.w3.org/2000/svg" xmlns:xlink="http://www.w3.org/1999/xlink" width="230" height="330"  xml:space="preserve" id="block15">
    <!-- Generated by PaintCode - http://www.paintcodeapp.com -->
    <path id="block15-bezier" stroke="none" fill="rgb(255, 255, 255)" d="M 223.1,12.6 L 210.8,12.6 C 209.3,10.1 208.5,7.3 208.5,4.4 L 208.5,3.5 138.1,3.5 C 123,-0.7 107,-0.7 91.8,3.5 L 21.4,3.5 21.4,4.4 C 21.3,7.3 20.5,10.1 19.1,12.6 L 6.8,12.6 0.4,19 0.4,311.2 6.8,317.6 19.1,317.6 C 20.5,320 21.3,322.8 21.4,325.6 L 21.4,326.5 91.8,326.5 C 106.9,330.8 123,330.8 138.1,326.5 L 208.5,326.5 208.5,325.6 C 208.6,322.8 209.4,320 210.8,317.6 L 223.1,317.6 229.5,311.2 229.5,18.9 223.1,12.6 Z M 223.1,12.6" />
    <path id="block15-bezier2" stroke="none" fill="rgb(0, 0, 0)" d="M 228.2,24.3 C 227.6,22.6 226.9,21 225.9,19.5 L 225.9,19.4 225.8,19.4 C 224.2,17 222,15.1 219.3,14 L 222.8,14 228.2,19.4 228.2,24.3 Z M 228.2,302.9 C 227.7,305.1 227,307.2 225.9,309.1 L 225.9,21 C 226.1,21.4 226.3,21.7 226.5,22.1 227.2,23.7 227.8,25.4 228.2,27.1 L 228.2,302.9 Z M 228.2,310.7 L 222.8,316.1 219.3,316.1 C 222,315 224.2,313.1 225.8,310.7 L 225.9,310.7 225.9,310.6 C 226.9,309.1 227.6,307.5 228.2,305.8 L 228.2,310.7 Z M 13,316.1 C 9.7,315.3 6.9,313.4 5,310.6 L 5,19.5 C 6.9,16.7 9.8,14.8 13.1,14 L 216.9,14 C 220.2,14.8 223,16.7 224.9,19.5 L 224.9,310.7 C 223,313.5 220.1,315.4 216.8,316.2 L 13,316.1 Z M 207.5,322.4 L 201.9,322.4 C 204.4,321.7 206.6,320.1 208,317.9 L 209.1,317.9 C 208.4,319.3 207.9,320.8 207.5,322.4 Z M 143.6,325 C 144.8,324.6 145.9,324.1 147.1,323.6 147.6,324.2 148.4,324.2 149,323.8 149.2,323.6 149.4,323.4 149.4,323.1 L 207.3,323.1 C 207.2,323.7 207.1,324.3 207.1,325 L 143.6,325 Z M 115,329.2 C 108.2,329.2 101.4,328.4 94.7,326.8 L 135.2,326.8 C 128.6,328.4 121.8,329.2 115,329.2 Z M 22.8,325 C 22.8,324.4 22.7,323.8 22.6,323.1 L 80.5,323.1 C 80.7,323.8 81.4,324.2 82.1,324 82.4,323.9 82.6,323.8 82.8,323.6 84,324.1 85.1,324.5 86.3,325 L 22.8,325 Z M 20.8,317.9 L 21.7,317.9 C 23.1,320.1 25.3,321.7 27.8,322.4 L 22.3,322.4 C 22.1,320.8 21.5,319.3 20.8,317.9 Z M 71.7,317.9 C 74.4,319.6 77.1,321.1 80,322.4 L 33.3,322.4 C 26.7,322.4 23.8,319.5 22.6,317.9 L 71.7,317.9 Z M 154.7,319.1 L 75.3,319.1 C 74.6,318.7 73.9,318.3 73.2,317.8 L 156.9,317.8 C 156.1,318.3 155.4,318.7 154.7,319.1 Z M 158.3,317.9 L 207.2,317.9 C 206.1,319.6 203.1,322.4 196.5,322.4 L 150,322.4 C 152.8,321.1 155.6,319.6 158.3,317.9 Z M 148.1,321.4 C 147.4,321.4 146.7,322 146.7,322.8 146.7,322.9 146.7,322.9 146.7,323 144.9,323.8 143.1,324.5 141.2,325.1 L 88.6,325.1 C 86.7,324.5 84.9,323.8 83.1,323 83.1,322.9 83.1,322.9 83.1,322.8 83.1,322.1 82.5,321.4 81.7,321.4 81.3,321.4 80.9,321.6 80.7,321.9 79.3,321.3 77.9,320.6 76.6,319.8 L 153.2,319.8 C 151.9,320.5 150.5,321.2 149.1,321.9 148.9,321.6 148.5,321.4 148.1,321.4 Z M 7.1,316.1 L 1.7,310.7 1.7,305.8 C 2.3,307.5 3,309.1 4,310.6 L 4,310.7 4.1,310.7 C 5.7,313.1 7.9,315 10.6,316.1 L 7.1,316.1 Z M 1.8,27.2 C 2.2,25 3,22.9 4.1,21 L 4.1,309.1 C 3.9,308.7 3.7,308.4 3.5,308 2.8,306.4 2.2,304.7 1.8,303 L 1.8,27.2 Z M 1.8,19.4 L 7.1,14 10.6,14 C 7.9,15.1 5.7,17 4.1,19.4 L 4.1,19.4 4.1,19.5 C 3.1,21 2.4,22.6 1.8,24.3 L 1.8,19.4 Z M 22.4,7.6 L 28,7.6 C 25.4,8.3 23.2,10 21.8,12.3 L 20.7,12.3 C 21.5,10.8 22,9.2 22.4,7.6 Z M 86.3,5 C 85.1,5.4 84,5.9 82.8,6.4 82.3,5.8 81.5,5.8 80.9,6.2 80.7,6.4 80.5,6.6 80.5,6.9 L 22.6,6.9 C 22.7,6.3 22.8,5.7 22.8,5 L 86.3,5 Z M 115,0.8 C 121.8,0.8 128.6,1.6 135.3,3.2 L 94.7,3.2 C 101.3,1.6 108.1,0.8 115,0.8 Z M 207.1,5 C 207.1,5.6 207.2,6.2 207.3,6.9 L 149.4,6.9 C 149.2,6.2 148.5,5.8 147.8,6 147.5,6.1 147.3,6.2 147.1,6.4 145.9,5.9 144.8,5.5 143.6,5 L 207.1,5 Z M 209.2,12.2 L 208.3,12.2 C 206.9,9.9 204.7,8.2 202.1,7.5 L 207.6,7.5 C 207.9,9.2 208.5,10.8 209.2,12.2 Z M 158.4,12.2 C 155.7,10.5 152.8,8.9 149.9,7.5 L 196.6,7.5 C 203.4,7.5 206.3,10.5 207.4,12.2 L 158.4,12.2 Z M 75.3,10.9 L 154.7,10.9 C 155.5,11.3 156.3,11.8 157,12.3 L 72.9,12.3 C 73.7,11.8 74.5,11.3 75.3,10.9 Z M 71.5,12.2 L 22.7,12.2 C 23.8,10.5 26.7,7.5 33.5,7.5 L 80,7.5 C 77.1,9 74.2,10.5 71.5,12.2 Z M 81.8,8.6 C 82.6,8.6 83.2,8 83.2,7.2 L 83.2,7.2 C 83.2,7.1 83.2,7.1 83.2,7 85,6.2 86.8,5.5 88.7,4.9 L 141.4,4.9 C 143.3,5.5 145.1,6.2 146.9,7 146.9,7.1 146.9,7.1 146.9,7.2 146.9,7.9 147.5,8.6 148.3,8.6 L 148.3,8.6 C 148.7,8.6 149.1,8.4 149.3,8.1 150.7,8.7 152.1,9.4 153.4,10.2 L 76.7,10.2 C 78,9.5 79.4,8.8 80.8,8.1 81,8.4 81.4,8.6 81.8,8.6 Z M 223.5,12.2 L 211.2,12.2 C 209.7,9.7 208.9,6.9 208.8,4 L 208.8,3.2 138.1,3.2 C 122.9,-1.1 106.8,-1.1 91.6,3.2 L 21.1,3.2 21.1,4.1 C 21,7 20.2,9.8 18.7,12.2 L 6.4,12.2 0,18.6 0,311.4 6.4,317.8 18.8,317.8 C 20.2,320.3 21,323 21.1,325.9 L 21.1,326.8 91.8,326.8 C 107,331.1 123.1,331.1 138.3,326.8 L 209,326.8 209,325.9 C 209.1,323.1 209.9,320.3 211.3,317.8 L 223.7,317.8 230.1,311.4 230.1,18.6 223.5,12.2 Z M 223.5,12.2" />
</svg>
