<?xml version="1.0" encoding="UTF-8"?>
<!DOCTYPE svg PUBLIC "-//W3C//DTD SVG 1.1//EN" "http://www.w3.org/Graphics/SVG/1.1/DTD/svg11.dtd">
<svg version="1.1" xmlns="http://www.w3.org/2000/svg" xmlns:xlink="http://www.w3.org/1999/xlink" width="231" height="317"  xml:space="preserve" id="boxBg">
    <!-- Generated by PaintCode - http://www.paintcodeapp.com -->
    <path id="boxBg-bezier" stroke="none" fill="rgb(220, 221, 222)" d="M 13.54,0.06 L 6.03,0.06 C 4.84,2.59 0.17,5.37 0.17,5.37 L 0.17,8.67 0.27,8.57 C 4.01,4.69 8.62,1.76 13.72,0 M 217.2,316.72 L 224.71,316.72 C 225.9,314.19 230.57,311.41 230.57,311.41 L 230.57,308.11 230.47,308.22 C 226.73,312.09 222.12,315.03 217.03,316.78 M 230.57,8.67 L 230.57,5.37 C 230.57,5.37 225.9,2.59 224.71,0.06 L 217.2,0.06 217.02,-0 C 222.12,1.76 226.73,4.69 230.47,8.57 M 0.17,308.11 L 0.17,311.42 C 0.17,311.42 4.84,314.19 6.03,316.72 L 13.55,316.72 13.71,316.78 C 8.62,315.03 4.01,312.09 0.27,308.22 M 0.17,290.72 L 0.17,303.03 C 0.53,303.6 0.96,304.25 1.49,304.95 L 1.47,304.83 C 1,302.17 1.17,299.43 1.96,296.85 L 0.17,290.72 Z M 215.93,313.34 L 136.26,313.34 136.26,313.34 C 136.09,313.66 135.76,313.86 135.4,313.87 L 135.39,313.87 C 134.84,313.87 134.38,313.42 134.38,312.86 134.38,312.31 134.84,311.85 135.39,311.85 L 135.4,311.85 C 135.77,311.86 136.1,312.07 136.27,312.4 L 215.93,312.38 C 221.65,312.38 225.76,309.1 228.35,306.07 L 228.37,305.97 C 229.09,303.08 229.04,300.06 228.22,297.2 L 228.19,297.1 228.21,297.01 230.57,288.26 230.57,28.53 228.19,19.68 228.22,19.59 228.22,19.58 C 229.04,16.72 229.09,13.7 228.37,10.82 225.76,7.69 221.64,4.4 215.93,4.4 L 136.26,4.4 136.26,4.4 C 136.09,4.72 135.76,4.93 135.4,4.93 L 135.39,4.93 C 134.83,4.93 134.38,4.48 134.38,3.92 134.38,3.36 134.83,2.91 135.39,2.91 L 135.4,2.91 C 135.77,2.92 136.1,3.13 136.27,3.46 L 215.93,3.44 C 223.26,3.44 228.09,8.51 230.57,12.02 L 230.57,9.6 230.74,9.8 C 226.62,5.22 221.3,1.9 215.39,0.2 L 15.84,0.06 15.89,0.05 C 9.96,1.64 4.58,4.87 0.39,9.36 L 0.17,12.02 C 2.65,8.51 7.48,3.44 14.81,3.44 L 94.48,3.44 94.48,3.45 C 94.74,2.95 95.35,2.77 95.84,3.03 96.34,3.29 96.52,3.9 96.26,4.4 96,4.89 95.39,5.08 94.89,4.81 94.72,4.72 94.58,4.58 94.48,4.41 L 14.81,4.4 C 9.1,4.4 4.98,7.69 2.39,10.72 L 2.37,10.82 C 1.65,13.7 1.7,16.73 2.52,19.59 L 2.55,19.68 2.53,19.77 0.17,28.53 0.17,288.26 2.55,297.1 2.52,297.19 2.52,297.19 C 1.7,300.06 1.65,303.09 2.37,305.98 4.98,309.1 9.1,312.38 14.81,312.38 L 94.48,312.38 94.47,312.39 C 94.74,311.89 95.35,311.71 95.84,311.97 96.33,312.23 96.52,312.84 96.26,313.34 96,313.83 95.39,314.02 94.89,313.75 94.72,313.66 94.58,313.52 94.48,313.35 L 14.81,313.34 C 7.48,313.34 2.65,308.28 0.17,304.76 L 0.17,307.18 0,306.99 C 4.12,311.56 9.43,314.89 15.34,316.58 L 214.9,316.72 214.86,316.73 C 220.79,315.14 226.16,311.92 230.35,307.42 L 230.57,304.76 C 228.09,308.28 223.26,313.34 215.93,313.34 Z M 0.17,13.75 L 0.17,26.07 1.89,19.69 1.87,19.65 C 1.13,17.05 1.01,14.32 1.52,11.67 0.96,12.53 0.53,13.18 0.17,13.75 Z M 230.57,26.07 L 230.57,13.75 C 230.21,13.18 229.78,12.53 229.25,11.83 L 229.27,11.97 C 229.74,14.62 229.57,17.35 228.78,19.93 L 230.57,26.07 Z M 229.25,304.96 L 229.27,304.82 C 229.74,302.16 229.57,299.43 228.78,296.85 L 230.57,290.72 230.57,303.03 C 230.21,303.61 229.78,304.26 229.25,304.96 Z M 229.25,304.96" />
</svg>
