<?xml version="1.0" encoding="UTF-8"?>
<!DOCTYPE svg PUBLIC "-//W3C//DTD SVG 1.1//EN" "http://www.w3.org/Graphics/SVG/1.1/DTD/svg11.dtd">
<svg version="1.1" xmlns="http://www.w3.org/2000/svg" xmlns:xlink="http://www.w3.org/1999/xlink" width="240" height="330"  xml:space="preserve" id="boxBg">
    <!-- Generated by PaintCode - http://www.paintcodeapp.com -->
    <g id="boxBg-_569b5e9988c94f62997fc2f0c1aca80b">
        <g id="boxBg-_54d4b71b39a949bf9bd290548f6817d8">
            <path id="boxBg-bezier" stroke="none" fill="rgb(220, 221, 222)" d="M 14.08,0.07 L 6.26,0.07 C 5.03,2.7 0.17,5.6 0.17,5.6 L 0.17,9.03 0.28,8.92 C 4.17,4.89 8.96,1.83 14.26,0 M 225.92,329.94 L 233.73,329.94 C 234.97,327.3 239.83,324.41 239.83,324.41 L 239.83,320.97 239.72,321.08 C 235.83,325.12 231.03,328.17 225.74,330 M 239.83,9.03 L 239.83,5.59 C 239.83,5.59 234.97,2.7 233.73,0.07 L 225.92,0.07 225.73,-0 C 231.03,1.83 235.82,4.88 239.72,8.92 M 0.17,320.97 L 0.17,324.41 C 0.17,324.41 5.03,327.3 6.26,329.94 L 14.08,329.94 14.26,330 C 8.96,328.17 4.17,325.12 0.28,321.08 M 0.17,302.85 L 0.17,315.68 C 0.54,316.27 0.99,316.95 1.55,317.68 L 1.52,317.54 C 1.03,314.77 1.21,311.92 2.03,309.23 L 0.17,302.85 Z M 224.6,326.42 L 141.73,326.42 141.73,326.41 C 141.55,326.75 141.21,326.96 140.83,326.97 L 140.82,326.97 C 140.24,326.97 139.77,326.5 139.77,325.92 139.77,325.33 140.24,324.86 140.82,324.86 L 140.83,324.86 C 141.22,324.87 141.56,325.09 141.74,325.43 L 224.6,325.42 224.65,325.41 C 229.69,325.24 234.39,322.84 237.5,318.86 L 237.54,318.74 C 238.29,315.73 238.23,312.58 237.38,309.6 L 237.35,309.5 237.38,309.41 239.83,300.28 239.83,29.72 237.35,20.5 237.38,20.41 237.38,20.4 C 238.23,17.43 238.29,14.27 237.54,11.27 L 237.5,11.15 C 234.39,7.17 229.68,4.77 224.64,4.59 L 141.73,4.59 141.73,4.59 C 141.55,4.92 141.21,5.13 140.83,5.14 L 140.82,5.14 C 140.24,5.14 139.77,4.67 139.77,4.09 139.77,3.51 140.24,3.04 140.82,3.04 L 140.83,3.04 C 141.22,3.04 141.56,3.26 141.74,3.6 L 224.6,3.59 C 232.23,3.59 237.25,8.86 239.83,12.53 L 239.83,10.01 240,10.2 C 235.72,5.44 230.18,1.97 224.03,0.21 L 16.47,0.07 16.53,0.05 C 10.35,1.71 4.77,5.07 0.41,9.75 L 0.17,12.53 C 2.75,8.86 7.77,3.59 15.4,3.59 L 98.27,3.59 98.26,3.59 C 98.54,3.08 99.17,2.88 99.69,3.16 100.2,3.43 100.4,4.07 100.12,4.58 99.85,5.09 99.21,5.29 98.7,5.02 98.52,4.92 98.37,4.77 98.27,4.6 L 15.4,4.59 15.36,4.59 C 10.31,4.77 5.61,7.17 2.5,11.15 L 2.46,11.27 C 1.71,14.28 1.76,17.43 2.62,20.41 L 2.65,20.5 2.62,20.6 0.17,29.72 0.17,300.28 2.65,309.5 2.62,309.59 2.62,309.59 C 1.76,312.57 1.71,315.73 2.46,318.74 L 2.5,318.86 C 5.61,322.84 10.31,325.24 15.36,325.41 L 98.27,325.42 98.26,325.42 C 98.54,324.91 99.17,324.71 99.69,324.98 100.2,325.26 100.39,325.89 100.12,326.41 99.85,326.92 99.21,327.12 98.7,326.84 98.52,326.75 98.37,326.6 98.27,326.42 L 15.4,326.42 C 7.77,326.42 2.75,321.14 0.17,317.48 L 0.17,320 0,319.81 C 4.28,324.57 9.81,328.03 15.96,329.79 L 223.52,329.94 223.48,329.95 C 229.84,328.24 235.58,324.72 239.99,319.82 L 239.83,317.48 C 237.25,321.14 232.23,326.42 224.6,326.42 Z M 0.17,14.33 L 0.17,27.16 1.95,20.52 1.94,20.47 C 1.17,17.77 1.04,14.92 1.58,12.16 1,13.06 0.54,13.73 0.17,14.33 M 239.83,27.16 L 239.83,14.33 C 239.46,13.73 239,13.06 238.45,12.33 L 238.48,12.47 C 238.96,15.23 238.79,18.08 237.97,20.76 L 239.83,27.16 Z M 238.45,317.68 L 238.48,317.54 C 238.96,314.77 238.79,311.93 237.97,309.24 L 239.83,302.85 239.83,315.68 C 239.45,316.27 239,316.95 238.45,317.68 Z M 238.45,317.68" />
        </g>
    </g>
</svg>
