<?xml version="1.0" encoding="UTF-8"?>
<!DOCTYPE svg PUBLIC "-//W3C//DTD SVG 1.1//EN" "http://www.w3.org/Graphics/SVG/1.1/DTD/svg11.dtd">
<svg version="1.1" xmlns="http://www.w3.org/2000/svg" xmlns:xlink="http://www.w3.org/1999/xlink" width="180" height="247"  preserveAspectRatio="none" id="boxBg">
    <!-- Generated by PaintCode - http://www.paintcodeapp.com -->
    <path id="boxBg-bezier" stroke="none" fill="rgb(220, 221, 222)" d="M 10.56,0.05 L 4.7,0.05 C 3.77,2.02 0.13,4.19 0.13,4.19 L 0.13,6.76 0.21,6.68 C 3.13,3.66 6.72,1.37 10.7,0 M 169.44,246.95 L 175.3,246.95 C 176.22,244.98 179.87,242.81 179.87,242.81 L 179.87,240.24 179.79,240.32 C 176.87,243.34 173.28,245.63 169.3,247 M 179.87,6.76 L 179.87,4.19 C 179.87,4.19 176.22,2.02 175.3,0.05 L 169.43,0.05 169.3,-0 C 173.27,1.37 176.87,3.66 179.79,6.68 M 0.13,240.24 L 0.13,242.82 C 0.13,242.82 3.77,244.98 4.7,246.95 L 10.57,246.95 10.7,247 C 6.72,245.63 3.13,243.34 0.21,240.32 M 0.13,226.68 L 0.13,236.28 C 0.41,236.72 0.75,237.23 1.16,237.78 L 1.15,237.68 C 0.78,235.6 0.91,233.47 1.53,231.46 L 0.13,226.68 Z M 168.45,244.32 L 106.3,244.32 106.3,244.32 C 106.16,244.57 105.91,244.73 105.62,244.73 L 105.62,244.73 C 105.18,244.73 104.83,244.38 104.83,243.94 104.83,243.51 105.18,243.16 105.62,243.16 L 105.62,243.16 C 105.91,243.16 106.17,243.33 106.3,243.58 L 168.45,243.57 168.48,243.57 C 172.26,243.44 175.79,241.64 178.12,238.66 L 178.15,238.57 C 178.71,236.32 178.67,233.96 178.03,231.73 L 178.01,231.66 178.03,231.59 179.87,224.76 179.87,22.24 178.01,15.34 178.03,15.28 178.03,15.27 C 178.67,13.04 178.71,10.68 178.15,8.43 L 178.12,8.35 C 175.79,5.36 172.26,3.57 168.48,3.43 L 106.3,3.43 106.3,3.43 C 106.16,3.68 105.91,3.84 105.62,3.85 L 105.62,3.85 C 105.18,3.85 104.83,3.49 104.83,3.06 104.83,2.62 105.18,2.27 105.62,2.27 L 105.62,2.27 C 105.91,2.28 106.17,2.44 106.3,2.7 L 168.45,2.68 C 174.17,2.68 177.93,6.63 179.87,9.38 L 179.87,7.49 180,7.64 C 176.79,4.07 172.64,1.48 168.02,0.16 L 12.36,0.05 12.4,0.04 C 7.77,1.28 3.58,3.8 0.3,7.3 L 0.13,9.38 C 2.07,6.63 5.83,2.68 11.55,2.68 L 73.7,2.68 73.7,2.69 C 73.9,2.3 74.38,2.16 74.77,2.36 75.15,2.57 75.3,3.04 75.09,3.43 74.89,3.81 74.41,3.96 74.03,3.75 73.89,3.68 73.78,3.57 73.71,3.44 L 11.55,3.43 11.52,3.43 C 7.74,3.57 4.21,5.36 1.88,8.35 L 1.85,8.43 C 1.29,10.68 1.33,13.04 1.97,15.27 L 1.99,15.34 1.97,15.41 0.13,22.24 0.13,224.76 1.99,231.66 1.97,231.73 1.97,231.73 C 1.33,233.96 1.29,236.32 1.85,238.57 L 1.88,238.66 C 4.21,241.64 7.74,243.44 11.52,243.57 L 73.7,243.57 73.7,243.57 C 73.9,243.19 74.38,243.04 74.76,243.25 75.15,243.45 75.29,243.93 75.09,244.31 74.89,244.7 74.41,244.84 74.02,244.64 73.89,244.57 73.78,244.46 73.71,244.32 L 11.55,244.32 C 5.83,244.32 2.07,240.37 0.13,237.63 L 0.13,239.51 0,239.37 C 3.21,242.93 7.36,245.52 11.97,246.84 L 167.64,246.95 167.61,246.96 C 172.24,245.72 176.42,243.21 179.69,239.7 L 179.87,237.63 C 177.93,240.37 174.17,244.32 168.45,244.32 Z M 0.13,10.72 L 0.13,20.32 1.47,15.35 1.46,15.32 C 0.88,13.3 0.79,11.16 1.19,9.1 0.75,9.77 0.41,10.28 0.13,10.72 Z M 179.87,20.32 L 179.87,10.72 C 179.59,10.28 179.25,9.77 178.83,9.23 L 178.85,9.33 C 179.22,11.4 179.09,13.53 178.47,15.54 L 179.87,20.32 Z M 178.83,237.78 L 178.85,237.67 C 179.22,235.6 179.09,233.47 178.47,231.46 L 179.87,226.68 179.87,236.28 C 179.59,236.73 179.25,237.23 178.83,237.78 Z M 178.83,237.78" />
</svg>
