<?xml version="1.0" encoding="UTF-8"?>
<!DOCTYPE svg PUBLIC "-//W3C//DTD SVG 1.1//EN" "http://www.w3.org/Graphics/SVG/1.1/DTD/svg11.dtd">
<svg version="1.1" xmlns="http://www.w3.org/2000/svg" xmlns:xlink="http://www.w3.org/1999/xlink" width="10" height="10"  xml:space="preserve" id="checkBox2">
    <!-- Generated by PaintCode - http://www.paintcodeapp.com -->
    <circle id="checkBox2-oval" stroke="none" fill="rgb(255, 255, 255)" cx="4.56" cy="4.56" r="3.8"  transform="translate(0.45, 0.45)" />
    <circle id="checkBox2-ovalChecked" stroke="none" fill="rgb(88, 89, 91)" cx="4.56" cy="4.56" r="3.8"  transform="translate(0.45, 0.45)" />
    <path id="checkBox2-bezier" stroke="none" fill="rgb(0, 0, 0)" d="M 5.02,1.68 L 5.02,1.68 C 3.17,1.68 1.68,3.17 1.68,5.02 1.68,6.87 3.17,8.37 5.02,8.37 6.87,8.37 8.37,6.87 8.37,5.02 L 8.37,5.02 C 8.37,3.18 6.87,1.68 5.02,1.68 M 5.02,9.28 L 5.02,9.28 C 2.67,9.28 0.76,7.37 0.76,5.02 0.76,2.67 2.67,0.76 5.02,0.76 7.37,0.76 9.28,2.67 9.28,5.02 L 9.28,5.02 C 9.28,7.37 7.37,9.28 5.02,9.28" transform="translate(0, 0)"  />
</svg>
