<?xml version="1.0" encoding="UTF-8"?>
<!DOCTYPE svg PUBLIC "-//W3C//DTD SVG 1.1//EN" "http://www.w3.org/Graphics/SVG/1.1/DTD/svg11.dtd">
<svg version="1.1" xmlns="http://www.w3.org/2000/svg" xmlns:xlink="http://www.w3.org/1999/xlink" width="45" height="12"  xml:space="preserve" id="deathSaves">
    <!-- Generated by PaintCode - http://www.paintcodeapp.com -->
    <path id="deathSaves-bezier" stroke="none" fill="rgb(0, 0, 0)" d="M 39.01,10.83 L 39.01,10.83 C 36.34,10.83 34.17,8.66 34.17,5.99 34.17,3.32 36.34,1.15 39.01,1.15 41.69,1.15 43.85,3.32 43.85,5.99 L 43.85,5.98 C 43.85,8.66 41.68,10.83 39.01,10.83 M 28.35,7.43 L 28.35,7.4 C 28.42,7.1 28.47,6.79 28.49,6.49 L 33.08,6.56 33.08,6.59 C 33.11,6.9 33.16,7.2 33.24,7.5 L 28.35,7.43 Z M 22.55,10.83 L 22.55,10.83 C 19.88,10.83 17.71,8.66 17.71,5.99 17.71,3.32 19.88,1.15 22.55,1.15 25.23,1.15 27.39,3.32 27.39,5.99 L 27.39,5.98 C 27.39,8.66 25.22,10.83 22.55,10.83 M 11.88,7.43 L 11.89,7.4 C 11.96,7.1 12.01,6.79 12.03,6.49 L 16.62,6.56 16.62,6.59 C 16.65,6.9 16.7,7.2 16.77,7.5 L 11.88,7.43 Z M 6.09,10.83 L 6.09,10.83 C 3.42,10.83 1.25,8.66 1.25,5.99 1.25,3.32 3.42,1.15 6.09,1.15 8.76,1.15 10.93,3.32 10.93,5.99 L 10.93,5.98 C 10.93,8.66 8.76,10.83 6.08,10.83 M 39.01,0 L 39.03,-0 C 35.97,-0 33.41,2.31 33.09,5.35 L 28.48,5.41 28.49,5.44 C 28.2,2.16 25.31,-0.26 22.03,0.02 19.15,0.27 16.87,2.56 16.62,5.44 L 12.02,5.41 12.02,5.38 C 11.67,2.1 8.73,-0.28 5.45,0.06 2.17,0.41 -0.21,3.35 0.13,6.63 0.48,9.91 3.42,12.29 6.7,11.95 9.01,11.7 10.97,10.15 11.73,7.95 L 16.94,8.01 16.92,7.96 C 17.99,11.07 21.38,12.73 24.49,11.66 26.19,11.07 27.53,9.75 28.15,8.06 L 33.4,8.01 33.41,8.02 C 34.53,11.13 37.97,12.73 41.07,11.6 44.17,10.47 45.77,7.04 44.64,3.93 43.78,1.57 41.54,-0 39.02,-0" />
</svg>
