<?xml version="1.0" encoding="UTF-8"?>
<!DOCTYPE svg PUBLIC "-//W3C//DTD SVG 1.1//EN" "http://www.w3.org/Graphics/SVG/1.1/DTD/svg11.dtd">
<svg version="1.1" xmlns="http://www.w3.org/2000/svg" xmlns:xlink="http://www.w3.org/1999/xlink" width="45" height="12"  xml:space="preserve" id="deathSaves">
    <!-- Generated by PaintCode - http://www.paintcodeapp.com -->
    <path id="deathSaves-bezier" stroke="none" fill="rgb(0, 0, 0)" d="M 38.91,10.83 L 38.91,10.83 C 36.24,10.83 34.07,8.66 34.07,5.99 34.07,3.32 36.24,1.15 38.91,1.15 41.59,1.15 43.75,3.32 43.75,5.99 L 43.75,5.98 C 43.75,8.66 41.58,10.83 38.91,10.83 M 28.24,7.43 L 28.25,7.4 C 28.32,7.1 28.37,6.79 28.39,6.49 L 32.98,6.56 32.98,6.59 C 33.01,6.9 33.06,7.2 33.14,7.5 L 28.24,7.43 Z M 22.45,10.83 L 22.45,10.83 C 19.78,10.83 17.61,8.66 17.61,5.99 17.61,3.32 19.78,1.15 22.45,1.15 25.12,1.15 27.29,3.32 27.29,5.99 L 27.29,5.98 C 27.29,8.66 25.12,10.83 22.45,10.83 M 11.78,7.43 L 11.79,7.4 C 11.86,7.1 11.91,6.79 11.93,6.49 L 16.52,6.56 16.52,6.59 C 16.55,6.9 16.6,7.2 16.67,7.5 L 11.78,7.43 Z M 5.99,10.83 L 5.99,10.83 C 3.32,10.83 1.15,8.66 1.15,5.99 1.15,3.32 3.32,1.15 5.99,1.15 8.66,1.15 10.83,3.32 10.83,5.99 L 10.83,5.98 C 10.83,8.66 8.66,10.83 5.98,10.83 M 38.91,0 L 38.93,-0 C 35.87,-0 33.31,2.31 32.99,5.35 L 28.38,5.41 28.38,5.44 C 28.1,2.16 25.21,-0.26 21.93,0.02 19.05,0.27 16.77,2.56 16.52,5.44 L 11.92,5.41 11.92,5.38 C 11.57,2.1 8.63,-0.28 5.35,0.06 2.07,0.41 -0.31,3.35 0.03,6.63 0.38,9.91 3.32,12.29 6.6,11.95 8.91,11.7 10.87,10.15 11.62,7.95 L 16.84,8.01 16.82,7.96 C 17.89,11.07 21.28,12.73 24.39,11.66 26.09,11.07 27.43,9.75 28.05,8.06 L 33.3,8.01 33.3,8.02 C 34.43,11.13 37.87,12.73 40.97,11.6 44.07,10.47 45.67,7.04 44.54,3.93 43.68,1.57 41.44,-0 38.92,-0" />
</svg>
