<?xml version="1.0" encoding="UTF-8"?>
<!DOCTYPE svg PUBLIC "-//W3C//DTD SVG 1.1//EN" "http://www.w3.org/Graphics/SVG/1.1/DTD/svg11.dtd">
<svg version="1.1" xmlns="http://www.w3.org/2000/svg" xmlns:xlink="http://www.w3.org/1999/xlink" width="53" height="14"  xml:space="preserve" id="deathSaves">
    <!-- Generated by PaintCode - http://www.paintcodeapp.com -->
    <path id="deathSaves-bezier" stroke="none" fill="rgb(0, 0, 0)" d="M 45.47,12.66 L 45.47,12.66 C 42.35,12.66 39.81,10.12 39.81,7 39.81,3.87 42.35,1.34 45.47,1.34 48.59,1.34 51.13,3.87 51.13,7 L 51.13,6.99 C 51.13,10.12 48.59,12.66 45.46,12.66 M 33,8.68 L 33.01,8.64 C 33.09,8.29 33.15,7.94 33.17,7.58 L 38.54,7.67 38.54,7.7 C 38.57,8.06 38.63,8.41 38.72,8.76 L 33,8.68 Z M 26.24,12.66 L 26.24,12.66 C 23.11,12.66 20.58,10.12 20.58,7 20.58,3.87 23.11,1.34 26.24,1.34 29.36,1.34 31.89,3.87 31.89,7 L 31.89,6.99 C 31.89,10.12 29.36,12.66 26.23,12.66 M 13.77,8.68 L 13.78,8.64 C 13.86,8.29 13.91,7.94 13.94,7.58 L 19.3,7.67 19.31,7.7 C 19.34,8.06 19.4,8.41 19.48,8.76 L 13.77,8.68 Z M 7,12.66 L 7,12.66 C 3.88,12.66 1.34,10.12 1.34,7 1.34,3.87 3.88,1.34 7,1.34 10.12,1.34 12.66,3.87 12.66,7 L 12.66,6.99 C 12.66,10.12 10.12,12.66 6.99,12.66 M 45.47,0 L 45.49,0 C 41.92,0 38.92,2.7 38.55,6.25 L 33.17,6.33 33.17,6.35 C 32.83,2.52 29.46,-0.31 25.63,0.03 22.26,0.32 19.6,2.99 19.3,6.35 L 13.93,6.33 13.93,6.29 C 13.52,2.45 10.09,-0.33 6.25,0.07 2.42,0.48 -0.36,3.91 0.04,7.75 0.44,11.58 3.88,14.36 7.71,13.96 10.41,13.68 12.7,11.85 13.58,9.29 L 19.68,9.36 19.66,9.31 C 20.91,12.94 24.87,14.87 28.5,13.62 30.49,12.94 32.06,11.39 32.77,9.42 L 38.91,9.36 38.92,9.38 C 40.24,13 44.25,14.87 47.87,13.55 51.5,12.23 53.37,8.22 52.05,4.6 51.04,1.84 48.42,0 45.48,0" transform="translate(0.1, -0) scale(0.99, 0.99)"  />
</svg>
