<?xml version="1.0" encoding="UTF-8"?>
<!DOCTYPE svg PUBLIC "-//W3C//DTD SVG 1.1//EN" "http://www.w3.org/Graphics/SVG/1.1/DTD/svg11.dtd">
<svg version="1.1" xmlns="http://www.w3.org/2000/svg" xmlns:xlink="http://www.w3.org/1999/xlink" width="113" height="28"  xml:space="preserve" id="inspBlock">
    <!-- Generated by PaintCode - http://www.paintcodeapp.com -->
    <path id="inspBlock-inspBlock" stroke="none" fill="rgb(0, 0, 0)" d="M 107.84,23.93 L 103.55,23.93 C 106.14,22.81 109.87,20.84 111.69,18.14 L 111.69,19.63 111.73,19.6 C 110.18,20.76 108.87,22.22 107.87,23.88 M 28.14,22.51 L 104.79,22.51 C 103.48,23.16 102.29,23.64 101.51,23.93 L 28.14,23.93 28.14,22.51 Z M 22.09,26.39 L 22.08,26.38 C 20.85,25.01 19.09,24.23 17.25,24.23 L 10.88,24.23 10.89,24.23 C 9.05,24.23 7.29,25.01 6.06,26.38 L 4.88,26.39 C 4.88,26.39 1.75,26.36 1.75,22.14 L 1.75,6 C 1.75,1.78 4.88,1.75 4.88,1.75 L 6.05,1.75 6.06,1.76 C 7.29,3.13 9.04,3.91 10.88,3.91 L 17.26,3.91 17.26,3.91 C 19.1,3.91 20.85,3.13 22.08,1.76 L 23.25,1.75 C 23.25,1.75 26.39,1.78 26.39,6 L 26.39,22.14 C 26.39,26.36 23.25,26.39 23.25,26.39 L 22.09,26.39 Z M 14.71,26.85 L 14.71,26.85 C 14.5,26.49 14.04,26.38 13.68,26.59 13.58,26.66 13.49,26.75 13.42,26.86 L 13.38,26.85 C 12.13,26.78 10.9,26.53 9.72,26.1 L 9.76,26.12 C 10.13,26.02 10.51,25.98 10.89,25.98 L 17.26,25.98 17.25,25.98 C 17.63,25.98 18.01,26.02 18.38,26.12 L 18.43,26.1 C 17.25,26.53 16.01,26.78 14.75,26.85 M 13.43,1.29 L 13.43,1.29 C 13.64,1.64 14.1,1.76 14.46,1.55 14.56,1.48 14.65,1.39 14.71,1.29 L 14.74,1.29 C 16,1.35 17.25,1.61 18.43,2.04 L 18.38,2.02 C 18.01,2.11 17.63,2.16 17.25,2.16 L 10.88,2.16 10.89,2.16 C 10.51,2.16 10.13,2.11 9.76,2.02 L 9.71,2.04 C 10.89,1.61 12.14,1.35 13.39,1.29 M 101.51,4.21 L 101.26,4.12 C 102.43,4.55 103.58,5.03 104.7,5.58 L 28.14,5.63 28.14,4.21 101.51,4.21 Z M 111.68,8.51 L 111.68,9.99 C 109.87,7.3 106.13,5.33 103.54,4.21 L 107.84,4.21 107.86,4.25 C 108.86,5.92 110.18,7.38 111.73,8.55 M 28.14,6.38 L 29.39,6.38 29.39,21.76 28.14,21.76 28.14,6.38 Z M 106.21,21.76 L 30.14,21.76 30.14,6.38 106.21,6.38 C 108.53,7.68 110.86,9.46 111.68,11.6 L 111.68,16.54 C 110.86,18.68 108.53,20.45 106.21,21.76 Z M 113.06,7.66 L 112.66,7.48 C 111.2,6.79 109.39,4.14 108.82,3.17 L 108.62,2.84 28.14,2.84 28.14,-0 21.27,-0 21,0.33 20.98,0.36 C 20.54,0.9 20,1.33 19.39,1.64 L 19.35,1.6 C 17.9,0.99 16.35,0.63 14.78,0.55 L 14.77,0.55 C 14.6,0.16 14.14,-0.01 13.76,0.16 13.59,0.24 13.45,0.37 13.37,0.54 L 13.36,0.55 C 11.79,0.63 10.24,0.99 8.8,1.6 L 8.74,1.64 C 8.13,1.33 7.6,0.9 7.17,0.37 L 6.88,-0 0,-0 0,28.14 6.88,28.14 7.14,27.81 7.11,27.84 C 7.53,27.3 8.06,26.86 8.67,26.54 L 8.62,26.46 C 10.11,27.13 11.72,27.51 13.35,27.6 L 13.37,27.6 C 13.55,27.98 14.01,28.15 14.39,27.97 14.56,27.89 14.69,27.76 14.77,27.6 L 14.79,27.6 C 16.42,27.51 18.03,27.13 19.52,26.46 L 19.4,26.5 C 20.01,26.81 20.54,27.24 20.97,27.77 L 21.27,28.14 28.14,28.14 28.14,25.3 108.62,25.3 108.82,24.97 C 109.39,24 111.2,21.35 112.66,20.66 L 113.06,20.47 113.06,7.66 Z M 113.06,7.66" />
</svg>
