<?xml version="1.0" encoding="UTF-8"?>
<!DOCTYPE svg PUBLIC "-//W3C//DTD SVG 1.1//EN" "http://www.w3.org/Graphics/SVG/1.1/DTD/svg11.dtd">
<svg version="1.1" xmlns="http://www.w3.org/2000/svg" xmlns:xlink="http://www.w3.org/1999/xlink" width="114" height="28"  xml:space="preserve" id="inspBlock">
    <!-- Generated by PaintCode - http://www.paintcodeapp.com -->
    <g id="inspBlock-group">
        <path id="inspBlock-bezier" stroke="none" fill="rgb(255, 255, 255)" d="M 113.53,8.06 L 113.5,8.04 C 111.89,6.74 110.55,5.14 109.55,3.33 L 28.29,3.43 28.29,3.44 C 27.99,1.88 26.69,0.71 25.1,0.57 L 23.8,0.57 23.79,0.58 C 22.44,2.08 20.52,2.94 18.5,2.94 L 11.51,2.94 11.52,2.94 C 9.5,2.94 7.58,2.08 6.23,0.58 L 4.94,0.57 C 4.94,0.57 1.51,0.6 1.51,5.23 L 1.51,22.91 C 1.51,27.53 4.94,27.57 4.94,27.57 L 6.22,27.57 6.23,27.56 C 7.58,26.06 9.5,25.2 11.52,25.2 L 18.51,25.2 18.5,25.2 C 20.52,25.2 22.44,26.06 23.79,27.56 L 25.07,27.57 25.1,27.57 C 26.71,27.43 28.02,26.22 28.3,24.63 L 109.61,24.68 109.56,24.78 C 110.56,22.97 111.89,21.38 113.5,20.08 L 113.53,8.06 Z M 113.53,8.06" />
        <path id="inspBlock-inspBlock3" stroke="none" fill="rgb(0, 0, 0)" d="M 108.78,23.93 L 104.49,23.93 C 107.08,22.81 110.81,20.84 112.63,18.14 L 112.63,19.63 112.67,19.6 C 111.12,20.76 109.81,22.22 108.81,23.88 M 29.08,22.51 L 105.73,22.51 C 104.42,23.16 103.23,23.64 102.45,23.93 L 29.08,23.93 29.08,22.51 Z M 23.03,26.39 L 23.02,26.38 C 21.79,25.01 20.03,24.23 18.19,24.23 L 11.82,24.23 11.83,24.23 C 9.99,24.23 8.23,25.01 7,26.38 L 5.83,26.39 C 5.83,26.39 2.69,26.36 2.69,22.14 L 2.69,6 C 2.69,1.78 5.83,1.75 5.83,1.75 L 6.99,1.75 7,1.76 C 8.23,3.13 9.98,3.91 11.82,3.91 L 18.2,3.91 18.2,3.91 C 20.04,3.91 21.79,3.13 23.02,1.76 L 24.19,1.75 C 24.19,1.75 27.33,1.78 27.33,6 L 27.33,22.14 C 27.33,26.36 24.19,26.39 24.19,26.39 L 23.03,26.39 Z M 15.65,26.85 L 15.65,26.85 C 15.44,26.49 14.98,26.38 14.62,26.59 14.52,26.66 14.43,26.75 14.36,26.86 L 14.32,26.85 C 13.07,26.78 11.84,26.53 10.66,26.1 L 10.7,26.12 C 11.07,26.02 11.45,25.98 11.83,25.98 L 18.2,25.98 18.19,25.98 C 18.57,25.98 18.95,26.02 19.32,26.12 L 19.37,26.1 C 18.19,26.53 16.95,26.78 15.69,26.85 M 14.37,1.29 L 14.37,1.29 C 14.58,1.64 15.04,1.76 15.4,1.55 15.5,1.48 15.59,1.39 15.65,1.29 L 15.68,1.29 C 16.94,1.35 18.19,1.61 19.37,2.04 L 19.32,2.02 C 18.95,2.11 18.57,2.16 18.19,2.16 L 11.82,2.16 11.83,2.16 C 11.45,2.16 11.07,2.11 10.7,2.02 L 10.65,2.04 C 11.83,1.61 13.08,1.35 14.33,1.29 M 102.45,4.21 L 102.2,4.12 C 103.37,4.55 104.52,5.03 105.64,5.58 L 29.08,5.63 29.08,4.21 102.45,4.21 Z M 112.62,8.51 L 112.62,9.99 C 110.81,7.3 107.08,5.33 104.48,4.21 L 108.78,4.21 108.8,4.25 C 109.8,5.92 111.12,7.38 112.67,8.55 M 29.08,6.38 L 30.33,6.38 30.33,21.76 29.08,21.76 29.08,6.38 Z M 107.15,21.76 L 31.08,21.76 31.08,6.38 107.15,6.38 C 109.47,7.68 111.8,9.46 112.62,11.6 L 112.62,16.54 C 111.8,18.68 109.47,20.45 107.15,21.76 Z M 114,7.66 L 113.6,7.48 C 112.14,6.79 110.33,4.14 109.76,3.17 L 109.56,2.84 29.08,2.84 29.08,-0 22.21,-0 21.94,0.33 21.92,0.36 C 21.48,0.9 20.94,1.33 20.33,1.64 L 20.29,1.6 C 18.84,0.99 17.29,0.63 15.72,0.55 L 15.71,0.55 C 15.54,0.16 15.08,-0.01 14.7,0.16 14.53,0.24 14.39,0.37 14.31,0.54 L 14.3,0.55 C 12.73,0.63 11.18,0.99 9.74,1.6 L 9.68,1.64 C 9.07,1.33 8.54,0.9 8.11,0.37 L 7.82,-0 0.94,-0 0.94,28.14 7.82,28.14 8.08,27.81 8.05,27.84 C 8.47,27.3 9,26.86 9.61,26.54 L 9.56,26.46 C 11.05,27.13 12.66,27.51 14.29,27.6 L 14.31,27.6 C 14.49,27.98 14.95,28.15 15.33,27.97 15.5,27.89 15.63,27.76 15.71,27.6 L 15.73,27.6 C 17.36,27.51 18.97,27.13 20.46,26.46 L 20.34,26.5 C 20.95,26.81 21.48,27.24 21.91,27.77 L 22.21,28.14 29.08,28.14 29.08,25.3 109.56,25.3 109.76,24.97 C 110.33,24 112.14,21.35 113.6,20.66 L 114,20.47 114,7.66 Z M 114,7.66" />
    </g>
</svg>
