<?xml version="1.0" encoding="UTF-8"?>
<!DOCTYPE svg PUBLIC "-//W3C//DTD SVG 1.1//EN" "http://www.w3.org/Graphics/SVG/1.1/DTD/svg11.dtd">
<svg version="1.1" xmlns="http://www.w3.org/2000/svg" xmlns:xlink="http://www.w3.org/1999/xlink" width="146" height="36"  xml:space="preserve" id="inspBlock">
    <!-- Generated by PaintCode - http://www.paintcodeapp.com -->
    <path id="inspBlock-bezier" stroke="none" fill="rgb(255, 255, 255)" d="M 145.4,10.32 C 143.23,8.92 141.12,5.62 140.38,4.39 L 36.29,4.39 36.29,4.4 C 35.9,2.41 34.24,0.91 32.21,0.73 L 30.54,0.73 30.53,0.75 C 28.8,2.66 26.34,3.76 23.76,3.76 L 14.82,3.76 14.82,3.76 C 12.24,3.76 9.78,2.66 8.06,0.75 L 6.41,0.73 C 6.41,0.73 2.01,0.77 2.01,6.69 L 2.01,29.33 C 2.01,35.24 6.41,35.29 6.41,35.29 L 8.04,35.29 8.06,35.27 C 9.78,33.35 12.24,32.26 14.83,32.26 L 23.77,32.26 23.76,32.26 C 26.34,32.26 28.8,33.35 30.53,35.27 L 32.17,35.29 32.21,35.29 C 34.27,35.11 35.95,33.57 36.31,31.53 L 140.38,31.59 C 141.12,30.36 143.24,27.07 145.4,25.66 L 145.4,10.32 Z M 145.4,10.32" />
    <path id="inspBlock-bezier2" stroke="none" fill="rgb(0, 0, 0)" d="M 139.32,30.63 L 133.82,30.63 C 137.14,29.2 141.92,26.68 144.24,23.22 L 144.24,25.13 C 142.12,26.43 140.05,29.49 139.32,30.63 Z M 37.3,28.82 L 135.42,28.82 C 133.74,29.64 132.21,30.25 131.21,30.63 L 37.3,30.63 37.3,28.82 Z M 29.56,33.78 L 29.55,33.76 C 27.97,32.01 25.72,31.01 23.37,31.01 L 15.21,31.01 15.22,31.01 C 12.86,31.01 10.62,32.01 9.04,33.76 L 7.54,33.78 C 7.54,33.78 3.52,33.74 3.52,28.34 L 3.52,7.68 C 3.52,2.28 7.54,2.24 7.54,2.24 L 9.03,2.24 9.04,2.26 C 10.62,4.01 12.86,5 15.21,5 L 23.38,5 23.37,5 C 25.72,5 27.97,4.01 29.55,2.25 L 31.05,2.24 C 31.05,2.24 35.06,2.28 35.06,7.68 L 35.06,28.34 C 35.06,33.74 31.05,33.78 31.05,33.78 L 29.56,33.78 Z M 20.12,34.37 L 20.11,34.36 C 19.84,33.91 19.25,33.76 18.8,34.04 18.66,34.12 18.54,34.24 18.46,34.38 L 18.42,34.37 C 16.81,34.28 15.23,33.96 13.72,33.41 L 13.78,33.43 C 14.25,33.31 14.73,33.25 15.22,33.25 L 23.38,33.25 23.36,33.25 C 23.85,33.25 24.34,33.31 24.82,33.43 L 24.87,33.41 C 23.36,33.96 21.77,34.28 20.17,34.37 M 18.47,1.65 L 18.47,1.65 C 18.74,2.1 19.33,2.25 19.79,1.98 19.92,1.9 20.03,1.78 20.12,1.65 L 20.15,1.65 C 21.77,1.73 23.36,2.06 24.88,2.61 L 24.82,2.59 C 24.34,2.71 23.85,2.77 23.36,2.77 L 15.21,2.77 15.22,2.77 C 14.73,2.77 14.25,2.71 13.78,2.59 L 13.71,2.61 C 15.23,2.06 16.82,1.73 18.43,1.65 M 131.21,5.39 L 130.9,5.28 C 132.4,5.82 133.86,6.44 135.29,7.14 L 37.3,7.2 37.3,5.39 131.21,5.39 Z M 144.24,10.89 L 144.24,12.79 C 141.92,9.34 137.14,6.82 133.82,5.39 L 139.32,5.39 C 140.04,6.53 142.11,9.59 144.24,10.89 Z M 37.3,8.16 L 38.91,8.16 38.91,27.86 37.3,27.86 37.3,8.16 Z M 137.23,27.86 L 39.87,27.86 39.87,8.16 137.24,8.16 C 140.2,9.83 143.19,12.11 144.24,14.84 L 144.24,21.17 C 143.19,23.91 140.2,26.18 137.23,27.86 Z M 146,9.81 L 145.49,9.57 C 143.62,8.69 141.3,5.3 140.57,4.06 L 140.31,3.63 37.3,3.63 37.3,-0 28.5,-0 28.17,0.42 28.13,0.46 C 27.58,1.15 26.89,1.71 26.11,2.1 L 26.05,2.05 C 24.19,1.26 22.21,0.81 20.2,0.7 L 20.19,0.71 C 19.97,0.21 19.39,-0.01 18.89,0.21 18.67,0.3 18.5,0.48 18.4,0.69 L 18.39,0.7 C 16.38,0.81 14.4,1.26 12.54,2.05 L 12.47,2.1 C 11.69,1.7 11.01,1.15 10.46,0.47 L 10.08,-0 1.28,-0 1.28,36.02 10.08,36.02 10.42,35.6 10.39,35.63 C 10.93,34.95 11.6,34.38 12.38,33.97 L 12.31,33.87 C 14.23,34.72 16.28,35.21 18.37,35.32 L 18.4,35.33 C 18.63,35.82 19.21,36.03 19.71,35.8 19.92,35.71 20.08,35.54 20.18,35.33 L 20.21,35.32 C 22.31,35.21 24.36,34.72 26.27,33.87 L 26.11,33.91 C 26.89,34.31 27.58,34.87 28.13,35.55 L 28.5,36.02 37.3,36.02 37.3,32.39 140.31,32.39 140.57,31.96 C 141.3,30.72 143.62,27.33 145.49,26.44 L 146,26.21 146,9.81 Z M 146,9.81" />
</svg>
