<?xml version="1.0" encoding="UTF-8"?>
<!DOCTYPE svg PUBLIC "-//W3C//DTD SVG 1.1//EN" "http://www.w3.org/Graphics/SVG/1.1/DTD/svg11.dtd">
<svg version="1.1" xmlns="http://www.w3.org/2000/svg" xmlns:xlink="http://www.w3.org/1999/xlink" width="225" height="55"  xml:space="preserve" id="labelBlock5">
    <!-- Generated by PaintCode - http://www.paintcodeapp.com -->
    <g id="labelBlock5-group">
        <path id="labelBlock5-bezier" stroke="none" fill="rgb(255, 255, 255)" d="M 217.9,44.2 L 224.1,36.8 224.1,18.2 217.9,10.8 13.4,10.8 13.4,44.2 217.9,44.2 Z M 217.9,44.2" />
        <path id="labelBlock5-bezier2" stroke="none" fill="rgb(255, 255, 255)" d="M 3.8,42.8 L 3.8,12.2 7.3,8.9 20.4,20.3 20.4,34.7 7.3,46.1 3.8,42.8 Z M 3.8,42.8" />
        <path id="labelBlock5-bezier3" stroke="none" fill="rgb(220, 221, 222)" d="M 7.2,6.3 L 1.9,11.3 1.9,43.6 7.2,48.6 22.2,35.5 22.2,19.4 7.2,6.3 Z M 7.3,11.5 L 18.4,21.1 18.4,33.8 7.3,43.5 5.8,42 5.8,13 7.3,11.5 Z M 7.3,11.5" />
        <path id="labelBlock5-bezier4" stroke="none" fill="rgb(0, 0, 0)" d="M 223.2,36.4 L 216.3,43.3 209.6,43.3 C 215.5,41.6 220.4,37.6 223.2,32.1 L 223.2,36.4 Z M 223.2,29.8 C 221.5,34.1 218.5,37.7 214.6,40 L 214.6,40 93.1,40 C 90.8,39.2 88.9,37.7 87.5,35.7 L 90.7,31.6 90.7,23.3 87.5,19.2 C 88.9,17.2 90.8,15.7 93.1,14.9 L 214.5,14.9 C 218.5,17.3 221.6,20.9 223.2,25.2 L 223.2,29.8 Z M 223.2,22.9 C 220.3,17.4 215.2,13.3 209.2,11.6 L 216.3,11.6 223.2,18.5 223.2,22.9 Z M 204.9,11.6 C 207.8,12 210.6,12.9 213.2,14.2 L 83.6,14.2 81.5,11.6 204.9,11.6 Z M 86.1,20.3 C 85.9,20.8 85.6,21.3 85.5,21.8 L 77.2,11.7 79.3,11.7 86.1,20.3 Z M 85.5,33.2 C 85.7,33.7 85.9,34.2 86.1,34.7 L 79.2,43.4 77.1,43.4 85.5,33.2 Z M 87.1,36.3 C 88.2,37.8 89.6,39.1 91.3,40 L 84.2,40 87.1,36.3 Z M 84.2,15 L 91.3,15 C 89.6,15.9 88.2,17.2 87.1,18.7 L 84.2,15 Z M 89,24 L 89,31 86.6,34 C 85.9,32.4 85.4,30.7 85.3,28.9 86.1,28.7 86.6,27.8 86.3,27 86.2,26.5 85.8,26.1 85.3,26 85.4,24.2 85.9,22.5 86.6,20.9 L 89,24 Z M 81.5,43.3 L 83.6,40.7 213.4,40.7 C 211,42 208.3,42.8 205.6,43.3 L 81.5,43.3 Z M 225,37.1 L 225,17.9 217,9.9 11.8,9.9 13.8,11.7 76.2,11.7 85.2,22.7 C 84.9,23.8 84.7,24.9 84.6,26.1 83.8,26.3 83.2,27 83.4,27.9 83.5,28.5 84,29 84.6,29.1 84.7,30.3 84.9,31.4 85.2,32.5 L 76.2,43.5 13.8,43.5 11.8,45.3 217,45.3 225,37.1 Z M 225,37.1" />
        <path id="labelBlock5-bezier5" stroke="none" fill="rgb(0, 0, 0)" d="M 7.2,3.7 L 5.9,4.9 0.6,9.9 0,10.5 0,44.5 0.6,45.1 5.9,50.1 7.2,51.3 8.5,50.2 23.5,37.1 24.2,36.5 24.2,18.5 23.5,17.9 8.5,4.9 7.2,3.7 Z M 7.2,6.3 L 22.2,19.4 22.2,35.6 7.2,48.7 1.9,43.7 1.9,11.3 7.2,6.3 Z M 7.2,6.3" />
    </g>
</svg>
