<?xml version="1.0" encoding="UTF-8"?>
<!DOCTYPE svg PUBLIC "-//W3C//DTD SVG 1.1//EN" "http://www.w3.org/Graphics/SVG/1.1/DTD/svg11.dtd">
<svg version="1.1" xmlns="http://www.w3.org/2000/svg" xmlns:xlink="http://www.w3.org/1999/xlink" width="145" height="50"  xml:space="preserve" id="labelBlock2">
    <!-- Generated by PaintCode - http://www.paintcodeapp.com -->
    <g id="labelBlock2-group3">
        <path id="labelBlock2-bezier" stroke="none" fill="rgb(255, 255, 255)" d="M 144.2,15.4 C 142.4,14.5 140.1,11.3 139.4,10.1 L 139.1,9.8 33,9.8 C 32.7,9.5 32.3,9.3 32,9 L 29.4,7.3 C 26.8,6 24.1,5.2 21.1,5 16,5 11.2,6.3 8.2,9.1 3.2,12.8 0.3,18.6 0.3,24.8 0.3,31.2 5.8,40.1 10.9,42.4 13.6,43.7 16.6,44.4 19.6,44.5 22.8,45 27.2,43.5 29.6,42.3 L 32.2,40.6 C 32.5,40.3 32.9,40.1 33.2,39.8 L 139.2,39.8 139.5,39.4 C 140.2,38.2 142.4,34.9 144.3,34.1 L 144.8,33.9 144.8,15.7 144.2,15.4 Z M 144.2,15.4" />
        <path id="labelBlock2-bezier2" stroke="none" fill="rgb(0, 0, 0)" d="M 23.6,10.2 C 25,11.4 26.4,12.2 28.1,12.9 29.8,13.6 31.8,13.9 33.7,13.8 38.9,20.2 38.9,29.3 33.7,35.7 31.8,35.6 29.9,35.9 28.1,36.6 26.4,37.3 24.9,38.2 23.6,39.3 20.5,40.4 17.2,41 13.9,41 4.9,37.8 0.2,27.7 3.6,18.7 5.3,14 9.1,10.3 13.9,8.4 17.2,8.5 20.4,9.1 23.6,10.2 Z M 42.9,11.4 L 42.9,11.4 130.6,11.4 C 133.6,12.5 141.4,15.9 143.2,20.6 L 143.2,29.2 C 141.4,34 133.5,37.3 130.6,38.4 L 42.9,38.4 42.9,38.4 C 40.9,37.3 38.7,36.7 36.5,36.2 41.2,29.4 41.2,20.4 36.5,13.7 38.7,13.1 40.9,12.3 42.9,11.4 Z M 34.8,11.4 L 40.7,11.4 C 39.1,12.1 37.6,12.5 35.9,12.8 35.5,12.2 35.1,11.7 34.8,11.4 Z M 138.5,11.4 C 139.2,12.5 141.2,15.5 143.3,16.7 L 143.3,18.5 C 141.1,15.2 136.4,12.7 133.2,11.3 L 138.5,11.3 138.5,11.4 Z M 143.3,33 C 141.3,34.3 139.2,37.3 138.5,38.3 L 133.2,38.3 C 136.4,36.9 141.1,34.4 143.3,31.1 L 143.3,33 Z M 34.8,38.3 C 35.2,37.9 35.6,37.4 36,36.9 37.7,37.2 39.2,37.7 40.8,38.3 L 34.8,38.3 Z M 19.1,3.4 C 18.9,3.5 18.7,3.8 18.8,4 18.8,4.1 19,4.4 19.2,4.9 16.5,5 13.8,5.7 11.2,6.8 14.3,6.6 17.5,6.8 20.6,7.4 20.7,7.4 20.7,7.4 20.8,7.4 21,7.7 21.2,7.9 21.4,8.2 5.7,4.5 1.6,12.4 1.6,12.4 3,11 4.5,10 6.4,9.3 6.8,9.1 7.4,9 7.9,8.9 -0.8,15.6 -2.6,28 4.1,36.9 5.2,38.4 6.5,39.6 7.9,40.7 7.4,40.6 6.8,40.5 6.3,40.3 4.6,39.6 2.9,38.6 1.5,37.2 1.5,37.2 5.6,45.2 21.4,41.5 21.2,41.8 21,42 20.8,42.3 20.8,42.3 20.7,42.3 20.6,42.3 17.5,43 14.3,43.2 11.2,42.9 13.7,44.1 16.4,44.7 19.2,44.8 18.9,45.3 18.8,45.6 18.8,45.7 18.7,45.9 18.8,46.2 19.1,46.3 19.3,46.4 19.6,46.3 19.7,46 19.7,46 23.5,38.9 28.3,37.6 29.8,37.1 31.2,36.8 32.8,36.7 30.3,39.5 26.8,41.4 23.1,42 22.3,42.9 21.7,43.7 21.4,44.8 24.1,44.6 26.8,43.8 29.3,42.6 L 31.9,40.9 C 32.2,40.6 32.6,40.4 32.9,40.1 L 139.5,40.1 139.8,39.7 C 140.5,38.5 142.8,35.2 144.6,34.4 L 145.1,34.2 145.1,15.6 144.6,15.4 C 142.8,14.5 140.5,11.2 139.8,10.1 L 139.5,9.7 33,9.6 C 32.7,9.3 32.3,9.1 32,8.8 L 29.4,7.1 C 27,5.8 24.4,5.1 21.5,4.9 21.7,6 22.3,6.9 23.1,7.6 26.8,8.3 30.2,10.1 32.8,12.9 31.2,12.8 29.8,12.5 28.3,12 23.4,10.6 19.7,3.6 19.7,3.6 19.7,3.4 19.4,3.3 19.1,3.4 L 19.1,3.4 Z M 19.1,3.4" />
    </g>
</svg>
