<?xml version="1.0" encoding="UTF-8"?>
<!DOCTYPE svg PUBLIC "-//W3C//DTD SVG 1.1//EN" "http://www.w3.org/Graphics/SVG/1.1/DTD/svg11.dtd">
<svg version="1.1" xmlns="http://www.w3.org/2000/svg" xmlns:xlink="http://www.w3.org/1999/xlink" width="225" height="55"  xml:space="preserve" id="labelBlock4">
    <!-- Generated by PaintCode - http://www.paintcodeapp.com -->
    <g id="labelBlock4-group">
        <path id="labelBlock4-bezier" stroke="none" fill="rgb(255, 255, 255)" d="M 217.9,44.2 L 224.1,36.8 224.1,18.2 217.9,10.8 13.4,10.8 13.4,44.2 217.9,44.2 Z M 217.9,44.2" />
        <path id="labelBlock4-bezier2" stroke="none" fill="rgb(255, 255, 255)" d="M 3.8,42.8 L 3.8,12.2 7.3,8.9 20.4,20.3 20.4,34.7 7.3,46.1 3.8,42.8 Z M 3.8,42.8" />
        <path id="labelBlock4-bezier3" stroke="none" fill="rgb(220, 221, 222)" d="M 7.2,6.3 L 1.9,11.3 1.9,43.6 7.2,48.6 22.2,35.5 22.2,19.4 7.2,6.3 Z M 7.3,11.5 L 18.4,21.1 18.4,33.8 7.3,43.5 5.8,42 5.8,13 7.3,11.5 Z M 7.3,11.5" />
        <path id="labelBlock4-bezier4" stroke="none" fill="rgb(0, 0, 0)" d="M 223.2,36.4 L 216.3,43.3 209.6,43.3 C 215.5,41.6 220.4,37.6 223.2,32.1 L 223.2,36.4 Z M 223.2,29.8 C 221.5,34.1 218.5,37.7 214.6,40 L 214.6,40 39.2,40 C 36.9,39.2 35,37.7 33.6,35.7 L 36.8,31.6 36.8,23.3 33.6,19.2 C 35,17.2 36.9,15.7 39.2,14.9 L 214.5,14.9 C 218.5,17.3 221.6,20.9 223.2,25.2 L 223.2,29.8 Z M 223.2,22.9 C 220.3,17.4 215.2,13.3 209.2,11.6 L 216.3,11.6 223.2,18.5 223.2,22.9 Z M 204.9,11.6 C 207.8,12 210.6,12.9 213.2,14.2 L 29.7,14.2 27.6,11.6 204.9,11.6 Z M 25.3,11.6 L 32.2,20.3 C 32,20.8 31.7,21.3 31.6,21.8 L 23.3,11.7 25.3,11.6 Z M 31.6,33.2 C 31.8,33.7 32,34.2 32.2,34.7 L 25.3,43.4 23.2,43.4 31.6,33.2 Z M 33.2,36.3 C 34.3,37.8 35.7,39.1 37.4,40 L 30.3,40 33.2,36.3 Z M 30.3,15 L 37.4,15 C 35.7,15.9 34.3,17.2 33.2,18.7 L 30.3,15 Z M 35.1,24 L 35.1,31 32.7,34 C 32,32.4 31.5,30.7 31.4,28.9 32.2,28.7 32.7,27.8 32.4,27 32.3,26.5 31.9,26.1 31.4,26 31.5,24.2 32,22.5 32.7,20.9 L 35.1,24 Z M 27.6,43.3 L 29.7,40.7 213.4,40.7 C 211,42 208.3,42.8 205.6,43.3 L 27.6,43.3 Z M 225,37.1 L 225,17.9 217,9.9 11.3,9.9 13.3,11.7 22.2,11.7 31.2,22.7 C 30.9,23.8 30.7,24.9 30.6,26.1 29.8,26.3 29.2,27 29.4,27.9 29.5,28.5 30,29 30.6,29.1 30.7,30.3 30.9,31.4 31.2,32.5 L 22.2,43.5 13.3,43.5 11.3,45.3 217,45.3 225,37.1 Z M 225,37.1" />
        <path id="labelBlock4-bezier5" stroke="none" fill="rgb(0, 0, 0)" d="M 7.2,3.7 L 5.9,4.9 0.6,9.9 0,10.5 0,44.5 0.6,45.1 5.9,50.1 7.2,51.3 8.5,50.2 23.5,37.1 24.2,36.5 24.2,18.5 23.5,17.9 8.5,4.9 7.2,3.7 Z M 7.2,6.3 L 22.2,19.4 22.2,35.6 7.2,48.7 1.9,43.7 1.9,11.3 7.2,6.3 Z M 7.2,6.3" />
    </g>
</svg>
