<?xml version="1.0" encoding="UTF-8"?>
<!DOCTYPE svg PUBLIC "-//W3C//DTD SVG 1.1//EN" "http://www.w3.org/Graphics/SVG/1.1/DTD/svg11.dtd">
<svg version="1.1" xmlns="http://www.w3.org/2000/svg" xmlns:xlink="http://www.w3.org/1999/xlink" width="145" height="40"  xml:space="preserve" id="labelBlock1">
    <!-- Generated by PaintCode - http://www.paintcodeapp.com -->
    <g id="labelBlock1-group">
        <path id="labelBlock1-bezier" stroke="none" fill="rgb(255, 255, 255)" d="M 144.4,11.6 C 142.2,10.2 140.1,6.9 139.4,5.7 L 35,5.7 C 34.6,3.7 32.9,2.2 30.9,2 L 29.3,2 C 27.6,3.9 25.1,5 22.5,5 L 13.5,5 C 10.9,5 8.5,3.9 6.7,2 L 5.1,2 C 5.1,2 0.7,2 0.7,8 L 0.7,30.6 C 0.7,36.5 5.1,36.6 5.1,36.6 L 6.7,36.6 C 8.4,34.7 10.9,33.6 13.5,33.6 L 22.5,33.6 C 25.1,33.6 27.5,34.7 29.3,36.6 L 30.9,36.6 C 33,36.4 34.6,34.9 35,32.9 L 139.4,32.9 C 140.1,31.7 142.3,28.4 144.4,27 L 144.4,11.6 Z M 144.4,11.6" />
        <path id="labelBlock1-bezier2" stroke="none" fill="rgb(0, 0, 0)" d="M 138.3,31.9 L 132.8,31.9 C 136.1,30.5 140.9,27.9 143.2,24.5 L 143.2,26.4 C 141.1,27.7 139,30.7 138.3,31.9 Z M 36,30.1 L 134.4,30.1 C 132.7,30.9 131.2,31.5 130.2,31.9 L 36,31.9 36,30.1 Z M 28.3,35 C 26.7,33.2 24.5,32.2 22.1,32.2 L 13.9,32.2 C 11.5,32.2 9.3,33.2 7.7,35 L 6.3,35 C 6.3,35 2.3,35 2.3,29.6 L 2.3,8.9 C 2.3,3.5 6.3,3.5 6.3,3.5 L 7.8,3.5 C 9.4,5.3 11.6,6.3 14,6.3 L 22.2,6.3 C 24.6,6.3 26.8,5.3 28.4,3.5 L 29.9,3.5 C 29.9,3.5 33.9,3.5 33.9,8.9 L 33.9,29.6 C 33.9,35 29.9,35 29.9,35 L 28.3,35 Z M 18.8,35.6 C 18.5,35.1 17.9,35 17.5,35.3 17.4,35.4 17.2,35.5 17.2,35.6 15.6,35.5 14,35.2 12.5,34.7 13,34.6 13.5,34.5 13.9,34.5 L 22.1,34.5 C 22.6,34.5 23.1,34.6 23.5,34.7 22,35.2 20.4,35.6 18.8,35.6 Z M 17.2,2.9 C 17.5,3.4 18.1,3.5 18.5,3.2 18.6,3.1 18.8,3 18.8,2.9 20.4,3 22,3.3 23.5,3.8 23.1,4 22.6,4 22.1,4 L 13.9,4 C 13.4,4 12.9,3.9 12.5,3.8 14,3.3 15.6,3 17.2,2.9 Z M 130.2,6.7 C 131.6,7.2 133,7.8 134.4,8.5 L 36,8.5 36,6.7 130.2,6.7 Z M 143.2,12.2 L 143.2,14.1 C 140.9,10.7 136.1,8.1 132.8,6.7 L 138.3,6.7 C 139,7.8 141.1,10.9 143.2,12.2 Z M 36,9.4 L 37.6,9.4 37.6,29.1 36,29.1 36,9.4 Z M 136.2,29.1 L 38.5,29.1 38.5,9.4 136.2,9.4 C 139.2,11.1 142.1,13.3 143.2,16.1 L 143.2,22.4 C 142.2,25.2 139.2,27.4 136.2,29.1 Z M 145,11.1 L 144.5,10.9 C 142.6,10 140.3,6.6 139.6,5.4 L 139.3,5 36,4.9 36,1.3 27.2,1.3 26.9,1.7 C 26.3,2.4 25.7,3 24.9,3.4 23,2.5 21,2.1 18.9,2 18.7,1.5 18.1,1.3 17.6,1.5 17.4,1.6 17.2,1.8 17.1,2 15.1,2.1 13,2.6 11.2,3.4 10.4,3 9.7,2.4 9.2,1.7 L 8.8,1.3 0,1.3 0,37.3 8.8,37.3 9.1,36.9 C 9.7,36.2 10.3,35.6 11.1,35.2 13,36 15,36.5 17.1,36.6 17.3,37.1 17.9,37.3 18.4,37.1 18.6,37 18.8,36.8 18.9,36.6 21,36.5 23,36 24.9,35.2 25.7,35.6 26.4,36.2 26.9,36.9 L 27.2,37.3 36,37.3 36,33.7 139.3,33.7 139.6,33.3 C 140.3,32.1 142.7,28.7 144.5,27.8 L 145,27.6 145,11.1 Z M 145,11.1" />
    </g>
</svg>
