<?xml version="1.0" encoding="UTF-8"?>
<!DOCTYPE svg PUBLIC "-//W3C//DTD SVG 1.1//EN" "http://www.w3.org/Graphics/SVG/1.1/DTD/svg11.dtd">
<svg version="1.1" xmlns="http://www.w3.org/2000/svg" xmlns:xlink="http://www.w3.org/1999/xlink" width="145" height="50"  xml:space="preserve" id="labelBlock2">
    <!-- Generated by PaintCode - http://www.paintcodeapp.com -->
    <g id="labelBlock2-group">
        <path id="labelBlock2-bezier" stroke="none" fill="rgb(255, 255, 255)" d="M 144.2,15.8 C 142.3,14.9 140,11.6 139.3,10.3 L 139,10 34.1,10 C 33.8,9.7 33.4,9.5 33.1,9.2 L 30.4,7.5 C 27.7,6.2 24.9,5.3 21.9,5.1 16.5,5 11.5,6.4 8.4,9.3 3.3,13.1 0.3,19.1 0.3,25.5 0.3,32.1 6,41.3 11.2,43.6 14,44.9 17.1,45.7 20.2,45.8 23.5,46.3 28,44.8 30.5,43.5 L 33.2,41.8 C 33.5,41.5 33.9,41.3 34.2,41 L 139,41 139.3,40.6 C 140,39.4 142.3,36 144.2,35.1 L 144.7,34.9 144.7,16.1 144.2,15.8 Z M 144.2,15.8" />
        <path id="labelBlock2-bezier2" stroke="none" fill="rgb(0, 0, 0)" d="M 24.3,10.4 C 25.7,11.6 27.2,12.5 28.9,13.2 30.7,13.9 32.7,14.2 34.7,14.1 40.1,20.7 40.1,30.1 34.7,36.7 32.7,36.6 30.8,36.9 28.9,37.6 27.2,38.3 25.6,39.2 24.3,40.4 21.1,41.5 17.7,42.1 14.3,42.2 5,38.9 0.2,28.5 3.7,19.2 5.5,14.3 9.4,10.5 14.3,8.6 17.7,8.7 21,9.3 24.3,10.4 Z M 44.2,11.6 L 44.2,11.6 130.2,11.6 C 133.3,12.7 141.3,16.2 143.2,21.1 L 143.2,30 C 141.3,34.9 133.2,38.3 130.2,39.5 L 44.2,39.5 44.2,39.5 C 42.1,38.4 39.9,37.7 37.6,37.2 42.4,30.2 42.4,20.9 37.6,14 39.9,13.4 42.1,12.6 44.2,11.6 Z M 35.8,11.6 L 41.9,11.6 C 40.3,12.3 38.7,12.7 37,13 36.6,12.5 36.2,12 35.8,11.6 Z M 138.3,11.6 C 139,12.7 141.1,15.8 143.2,17.1 L 143.2,19 C 140.9,15.6 136.1,13 132.8,11.6 L 138.3,11.6 Z M 143.2,33.9 C 141.1,35.2 139,38.3 138.3,39.4 L 132.8,39.4 C 136.1,38 140.9,35.4 143.2,32 L 143.2,33.9 Z M 35.8,39.4 C 36.2,39 36.6,38.5 37,38 38.7,38.3 40.3,38.8 41.9,39.4 L 35.8,39.4 Z M 19.7,3.4 C 19.5,3.5 19.3,3.8 19.4,4 19.4,4.1 19.6,4.4 19.8,4.9 17,5 14.2,5.7 11.6,6.9 14.8,6.7 18.1,6.9 21.3,7.5 21.4,7.5 21.4,7.5 21.5,7.5 21.7,7.8 21.9,8 22.1,8.3 5.9,4.5 1.6,12.7 1.6,12.7 3,11.3 4.6,10.2 6.5,9.5 7,9.3 7.6,9.2 8.1,9.1 -0.9,16 -2.7,28.8 4.2,37.9 5.3,39.4 6.7,40.7 8.1,41.8 7.6,41.7 7,41.6 6.5,41.4 4.7,40.7 3,39.6 1.6,38.2 1.6,38.2 5.8,46.4 22.1,42.6 21.9,42.9 21.7,43.1 21.5,43.4 21.5,43.4 21.4,43.4 21.3,43.4 18.1,44.1 14.8,44.3 11.6,44 14.2,45.2 17,45.9 19.8,46 19.5,46.5 19.4,46.8 19.4,46.9 19.3,47.1 19.4,47.4 19.7,47.5 19.9,47.6 20.2,47.5 20.3,47.2 20.3,47.2 24.2,39.9 29.2,38.5 30.7,38 32.2,37.7 33.8,37.6 31.2,40.5 27.6,42.4 23.8,43.1 23,44 22.4,44.9 22.1,46 24.9,45.8 27.7,45 30.2,43.7 L 32.9,41.9 C 33.2,41.6 33.6,41.4 33.9,41.1 L 139.3,41.1 139.6,40.7 C 140.3,39.5 142.7,36.1 144.5,35.2 L 145,35 145,16 144.5,15.8 C 142.6,14.9 140.3,11.5 139.6,10.3 L 139.3,9.9 34,9.8 C 33.7,9.5 33.3,9.3 33,9 L 30.3,7.2 C 27.8,5.9 25.1,5.1 22.2,4.9 22.4,6 23,7 23.8,7.7 27.6,8.4 31.1,10.3 33.8,13.2 32.2,13.1 30.7,12.8 29.2,12.3 24.2,10.9 20.3,3.6 20.3,3.6 20.3,3.4 20,3.3 19.7,3.4 L 19.7,3.4 Z M 19.7,3.4" />
    </g>
</svg>
