<?xml version="1.0" encoding="UTF-8"?>
<!DOCTYPE svg PUBLIC "-//W3C//DTD SVG 1.1//EN" "http://www.w3.org/Graphics/SVG/1.1/DTD/svg11.dtd">
<svg version="1.1" xmlns="http://www.w3.org/2000/svg" xmlns:xlink="http://www.w3.org/1999/xlink" width="230" height="40"  xml:space="preserve" id="labelBlock3">
    <!-- Generated by PaintCode - http://www.paintcodeapp.com -->
    <g id="labelBlock3-group">
        <path id="labelBlock3-bezier" stroke="none" fill="rgb(255, 255, 255)" d="M 10.2,3.2 C 4.6,6.7 1.2,12.7 1.1,19.3 1.2,25.9 4.6,31.9 10.2,35.4 L 10.5,35.6 32.6,35.6 32.9,35.4 C 34.1,34.7 35.2,33.8 36.2,32.8 L 223.3,32.8 223.6,32.4 C 224.3,31.2 226.6,28 228.5,27.2 L 229,27 229,11.6 228.5,11.4 C 226.6,10.6 224.4,7.4 223.6,6.2 L 223.3,5.8 36.2,5.8 C 35.2,4.8 34.1,4 32.9,3.2 L 32.6,3 10.5,3 10.2,3.2 Z M 10.2,3.2" />
        <path id="labelBlock3-bezier2" stroke="none" fill="rgb(0, 0, 0)" d="M 34,7.2 C 31.1,6.5 28.3,5.6 25.6,4.5 L 31,4.5 C 32.1,5.3 33.1,6.2 34,7.2 Z M 45.4,6.7 C 44,7.4 41.6,8.2 37.7,7.8 37.4,7.4 37.2,7.1 36.9,6.7 L 45.4,6.7 Z M 228.2,12.2 L 228.2,14.1 C 225.9,10.7 221.1,8.1 217.8,6.7 L 223.3,6.7 C 224,7.9 226.1,10.9 228.2,12.2 Z M 223.3,32 L 217.8,32 C 221.1,30.6 225.9,28 228.2,24.6 L 228.2,26.5 C 226.1,27.8 224,30.8 223.3,32 Z M 37.7,30.9 C 41.7,30.5 44.1,31.3 45.4,32 L 36.9,32 C 37.2,31.6 37.4,31.2 37.7,30.9 Z M 31,34.1 L 25.7,34.1 C 28.4,33 31.2,32.1 34.1,31.4 33.1,32.4 32.1,33.3 31,34.1 Z M 40.3,8.9 C 42.2,12 43.3,15.6 43.4,19.3 43.3,23 42.2,26.6 40.3,29.7 39.7,29.7 39,29.7 38.3,29.7 40.2,26.5 41.2,22.9 41.2,19.2 L 41.2,19.2 C 41.2,15.5 40.2,11.9 38.3,8.7 39,8.9 39.7,8.9 40.3,8.9 Z M 215.2,6.7 C 218.3,7.8 226.3,11.3 228.2,16.2 L 228.2,22.5 C 226.3,27.4 218.2,30.8 215.2,32 L 47.1,32 C 45.5,30.7 43.4,29.9 41.4,29.9 43.3,26.7 44.3,23.1 44.4,19.4 44.3,15.7 43.3,12.1 41.4,8.9 43.5,8.8 45.5,8.1 47.1,6.8 L 215.2,6.7 Z M 2.6,19.3 C 2.6,13.4 5.5,7.9 10.3,4.5 L 20.6,4.5 C 25.4,6.6 31.8,7.8 35,8.4 37.4,11.5 38.7,15.4 38.7,19.3 L 38.7,19.3 C 38.7,23.2 37.4,27.1 35,30.2 31.8,30.8 25.4,32 20.6,34.1 L 10.3,34.1 C 5.4,30.7 2.6,25.2 2.6,19.3 Z M 9.1,2.2 C -0.4,8.5 -2.9,21.3 3.4,30.8 5,33 6.9,35 9.1,36.5 L 9.4,36.7 31.7,36.7 32,36.5 C 33.2,35.7 34.3,34.8 35.3,33.8 L 224.3,33.8 224.6,33.4 C 225.3,32.2 227.7,28.8 229.5,27.9 L 230,27.7 230,11.3 229.5,11.1 C 227.6,10.2 225.3,6.8 224.6,5.6 L 224.3,5 35.3,5 C 34.3,4 33.2,3.1 32,2.3 L 31.7,2 9.5,2 9.1,2.2 Z M 9.1,2.2" />
    </g>
</svg>
