<?xml version="1.0" encoding="UTF-8"?>
<!DOCTYPE svg PUBLIC "-//W3C//DTD SVG 1.1//EN" "http://www.w3.org/Graphics/SVG/1.1/DTD/svg11.dtd">
<svg version="1.1" xmlns="http://www.w3.org/2000/svg" xmlns:xlink="http://www.w3.org/1999/xlink" width="745" height="130"  xml:space="preserve" id="pageHeader1">
    <!-- Generated by PaintCode - http://www.paintcodeapp.com -->
    <g id="pageHeader1-group">
        <path id="pageHeader1-bezier" stroke="none" fill="rgb(220, 221, 222)" d="M 427.79,43.67 L 456.02,41.54 421.22,38.91 474.47,34.89 427.04,31.3 492.74,26.34 380.87,17.88 410.93,15.61 356.04,11.46 307.27,15.15 285.34,12.26 339.15,8.2 296.03,4.94 265.98,7.21 231.08,4.57 198.47,7.04 231.61,9.55 195.1,12.31 158.59,9.55 179.75,7.95 154.47,6.03 73.65,12.14 102.29,14.31 11.47,21.17 64.95,25.21 36.73,27.34 71.53,29.97 18.28,33.99 65.7,37.58 0,42.54 90.29,49.37 48.95,52.49 92.59,55.79 103.88,54.94 136.7,57.42 185.47,53.73 207.38,56.62 150.55,60.91 228.56,66.8 245.62,65.52 214.91,63.2 258.76,59.88 289.5,62.2 309.62,60.68 338.27,62.85 419.1,56.74 390.46,54.58 481.28,47.72 427.79,43.67 Z M 283.04,65.42 L 312.49,67.65 341.95,65.42 312.49,63.2 283.04,65.42 Z M 106.75,57.08 L 136.2,59.31 106.75,61.53 77.3,59.31 106.75,57.08 Z M 106.75,57.08" />
        <path id="pageHeader1-bezier2" stroke="none" fill="rgb(220, 221, 222)" d="M 492.57,110.53 L 515.49,108.79 487.22,106.66 530.48,103.39 491.96,100.48 545.33,96.44 454.45,89.57 478.87,87.73 434.28,84.36 394.67,87.35 376.85,85.01 420.56,81.71 385.53,79.06 361.12,80.91 332.78,78.76 306.29,80.77 333.2,82.8 303.55,85.04 273.89,82.8 291.08,81.5 270.55,79.95 204.89,84.91 228.16,86.67 154.38,92.24 197.83,95.53 174.9,97.26 203.17,99.4 159.92,102.66 198.44,105.58 145.07,109.61 218.41,115.15 184.83,117.69 220.28,120.37 229.45,119.68 256.11,121.69 295.73,118.7 313.52,121.04 267.36,124.53 330.73,129.32 344.59,128.27 319.64,126.38 355.26,123.69 380.23,125.58 396.57,124.34 419.85,126.1 485.5,121.14 462.24,119.38 536.01,113.81 492.57,110.53 Z M 374.98,128.19 L 398.91,130 422.83,128.19 398.91,126.38 374.98,128.19 Z M 231.78,121.41 L 255.71,123.22 231.78,125.03 207.86,123.22 231.78,121.41 Z M 231.78,121.41" />
        <path id="pageHeader1-bezier3" stroke="none" fill="rgb(220, 221, 222)" d="M 700.48,51.64 L 719.39,50.21 696.07,48.45 731.75,45.75 699.98,43.35 743.99,40.03 669.04,34.36 689.18,32.84 652.41,30.06 619.74,32.53 605.04,30.6 641.1,27.87 612.2,25.69 592.07,27.21 568.69,25.45 546.84,27.1 569.04,28.78 544.58,30.63 520.13,28.78 534.3,27.7 517.37,26.42 463.22,30.52 482.41,31.97 421.56,36.56 457.4,39.27 438.49,40.7 461.8,42.46 426.13,45.16 457.9,47.56 413.88,50.88 474.37,55.46 446.68,57.55 475.91,59.76 483.47,59.19 505.46,60.85 538.13,58.38 552.81,60.31 514.74,63.19 567.01,67.14 578.43,66.27 557.86,64.72 587.24,62.5 607.83,64.05 621.31,63.04 640.5,64.49 694.65,60.4 675.47,58.95 736.31,54.35 700.48,51.64 Z M 603.5,66.21 L 623.23,67.7 642.97,66.21 623.23,64.72 603.5,66.21 Z M 485.4,60.62 L 505.13,62.11 485.4,63.6 465.67,62.11 485.4,60.62 Z M 485.4,60.62" />
        <path id="pageHeader1-bezier4" stroke="none" fill="rgb(0, 0, 0)" d="M 92.55,9.7 L 92.55,9.7 C 92.26,12.41 92.36,15.14 92.83,17.82 L 93.06,17.97 C 91.23,16.65 89.35,15.42 87.4,14.3 85.64,13.3 84.19,11.17 83.29,9.59 82.68,8.5 82.32,7.7 82.32,7.7 L 82.28,7.75 C 79.97,10.31 79.45,14.01 80.96,17.1 74.71,15.65 70.83,17.25 70.83,17.25 82.58,24.94 76.33,25.57 69.55,28.78 62.78,31.99 62.28,35.99 62.28,35.99 70.38,33.32 73.6,36.73 73.6,36.73 69.24,40.9 73.13,47.42 73.13,47.42 77.37,55.53 87.87,58.99 97.26,60.41 L 97.9,60.5 C 103.59,61.3 109.35,61.55 115.09,61.25 L 93.39,67.92 74.17,72.77 C 74.17,72.77 55.08,70.73 48.07,54.57 41.07,38.41 53.31,25.68 52.08,24.85 50.91,24.06 49.43,25.82 49.27,26.02 54.6,10.77 70.64,10.94 71.28,9.32 71.93,7.7 68.11,7.6 68.11,7.6 84.33,2.26 92.55,9.7 92.55,9.7 Z M 92.55,9.7" />
        <path id="pageHeader1-bezier5" stroke="none" fill="rgb(255, 255, 255)" d="M 716.15,53.28 L 716.15,102.1 C 734.8,101.99 737.22,102.1 740.4,97.97 L 740.4,49.97 C 734.44,53.13 728.28,53.23 716.15,53.28 Z M 716.15,53.28" />
        <path id="pageHeader1-bezier6" stroke="rgb(0, 0, 0)" stroke-width="1.76" stroke-miterlimit="10" fill="none" d="M 716.15,53.28 L 716.15,102.1 C 734.8,101.99 737.22,102.1 740.4,97.97 L 740.4,49.97 C 734.44,53.13 728.27,53.23 716.15,53.28 Z M 716.15,53.28" />
        <path id="pageHeader1-bezier7" stroke="rgb(0, 0, 0)" stroke-width="0.96" stroke-miterlimit="10" fill="none" d="M 716.15,98.11 C 741.24,100.97 739.1,93.53 740.22,93.31 M 715.38,56.9 C 736.16,56.84 738.01,55.4 739.9,53.96" />
        <path id="pageHeader1-bezier8" stroke="none" fill="rgb(255, 255, 255)" d="M 234.07,92.89 C 234.06,92.9 234.05,92.92 234.04,92.93 L 234.04,92.93 C 233.93,93.33 234,93.75 234.22,94.08 234.5,94.5 241.17,104.25 249.87,104.25 L 249.8,104.25 C 251.81,104.25 253.8,103.74 255.56,102.76 256.35,102.26 257.07,101.78 257.7,101.34 L 257.82,101.26 C 261.59,98.81 265.11,96.01 268.35,92.89 L 234.07,92.89 Z M 234.07,92.89" />
        <path id="pageHeader1-bezier9" stroke="none" fill="rgb(255, 255, 255)" d="M 20.03,61.87 L 20.03,109.87 65.47,103.93 65.47,55.93 20.03,61.87 Z M 20.03,61.87" />
        <path id="pageHeader1-bezier10" stroke="rgb(0, 0, 0)" stroke-width="1.76" stroke-miterlimit="10" fill="none" d="M 20.03,61.87 L 20.03,109.87 65.47,103.93 65.47,55.93 20.03,61.87 Z M 20.03,61.87" />
        <path id="pageHeader1-bezier11" stroke="rgb(0, 0, 0)" stroke-width="0.96" stroke-miterlimit="10" fill="none" d="M 21.03,65.08 L 65.47,59.42 M 21.03,106.3 L 65.47,100" />
        <path id="pageHeader1-bezier12" stroke="none" fill="rgb(178, 179, 182)" d="M 65.47,55.93 L 34.47,51.34 34.47,99.34 65.47,103.93 65.47,55.93 Z M 65.47,55.93" />
        <path id="pageHeader1-bezier13" stroke="rgb(0, 0, 0)" stroke-width="1.76" stroke-miterlimit="10" fill="none" d="M 65.47,55.93 L 34.47,51.34 34.47,99.34 65.47,103.93 65.47,55.93 Z M 65.47,55.93" />
        <path id="pageHeader1-bezier14" stroke="none" fill="rgb(255, 255, 255)" d="M 314.84,99.34 C 235.8,113.74 113.52,84.94 34.47,99.34 L 34.47,51.34 C 113.52,36.94 235.8,65.74 314.84,51.34 L 314.84,99.34 Z M 314.84,99.34" />
        <path id="pageHeader1-bezier15" stroke="rgb(0, 0, 0)" stroke-width="1.76" stroke-miterlimit="10" fill="none" d="M 314.84,99.34 C 235.8,113.74 113.52,84.94 34.47,99.34 L 34.47,51.34 C 113.52,36.94 235.8,65.74 314.84,51.34 L 314.84,99.34 Z M 314.84,99.34" />
        <path id="pageHeader1-bezier16" stroke="rgb(0, 0, 0)" stroke-width="0.96" stroke-miterlimit="10" fill="none" d="M 314.84,55.08 C 314.84,55.08 289.41,65.37 168.88,54.71 83.74,47.17 41.24,53.78 34.66,54.93 M 315.97,94.71 C 315.97,94.71 289.73,105.8 169.2,95.13 84.06,87.6 41.56,94.2 34.98,95.35" />
        <rect id="pageHeader1-rectangle" stroke="none" fill="rgb(255, 255, 255)" x="314.72" y="36.58" width="401.78" height="77.62" />
        <rect id="pageHeader1-rectangle2" stroke="rgb(0, 0, 0)" stroke-width="1.6" stroke-miterlimit="10" fill="none" x="314.72" y="36.58" width="401.78" height="77.62" />
        <path id="pageHeader1-bezier17" stroke="none" fill="rgb(255, 255, 255)" d="M 312.04,28.51 L 312.04,122.28 312.01,122.36 C 312.61,120.71 313.49,119.18 314.62,117.84 L 314.72,33.07 314.78,33.13 C 313.64,31.82 312.73,30.31 312.1,28.68" />
        <path id="pageHeader1-bezier18" stroke="rgb(0, 0, 0)" stroke-width="1.6" stroke-miterlimit="10" fill="none" d="M 312.04,28.51 L 312.04,122.28 312.01,122.36 C 312.61,120.71 313.49,119.18 314.62,117.84 L 314.72,33.07 314.78,33.13 C 313.63,31.82 312.73,30.31 312.1,28.68 L 312.04,28.51 Z M 312.04,28.51" />
        <path id="pageHeader1-bezier19" stroke="rgb(0, 0, 0)" stroke-width="1.6" stroke-miterlimit="10" fill="none" d="M 314.72,104.11 C 314.72,104.11 316.09,117.33 325.48,117.33 L 353.64,117.33 C 353.64,117.33 362.81,114.2 379.88,114.2 M 314.72,46.68 C 314.72,46.68 316.09,33.45 325.48,33.45 L 353.64,33.45 C 353.64,33.45 362.81,36.58 379.88,36.58" />
        <path id="pageHeader1-bezier20" stroke="none" fill="rgb(255, 255, 255)" d="M 719.19,28.51 L 719.19,122.28 719.22,122.36 C 718.62,120.71 717.74,119.18 716.61,117.84 L 716.51,33.07 716.45,33.13 C 717.6,31.82 718.5,30.31 719.13,28.68" />
        <path id="pageHeader1-bezier21" stroke="rgb(0, 0, 0)" stroke-width="1.6" stroke-miterlimit="10" fill="none" d="M 719.19,28.51 L 719.19,122.28 719.22,122.36 C 718.62,120.71 717.74,119.18 716.61,117.84 L 716.51,33.07 716.45,33.13 C 717.6,31.82 718.5,30.31 719.13,28.68 L 719.19,28.51 Z M 719.19,28.51" />
        <path id="pageHeader1-bezier22" stroke="rgb(0, 0, 0)" stroke-width="1.6" stroke-miterlimit="10" fill="none" d="M 716.51,104.11 C 716.51,104.11 715.14,117.33 705.76,117.33 L 677.6,117.33 C 677.6,117.33 668.42,114.2 651.36,114.2 M 716.51,46.68 C 716.51,46.68 715.14,33.45 705.75,33.45 L 677.59,33.45 C 677.59,33.45 668.42,36.58 651.35,36.58" />
        <path id="pageHeader1-bezier23" stroke="rgb(0, 0, 0)" stroke-width="0.96" stroke-miterlimit="10" fill="none" d="M 342.75,114.2 C 349.41,113.04 357.43,111.74 364.78,111.74 L 666.45,111.74 C 673.8,111.74 681.82,113.04 688.48,114.2 M 688.48,36.58 C 681.82,37.74 673.8,39.04 666.45,39.04 L 364.78,39.04 C 357.43,39.04 349.41,37.74 342.75,36.58" />
        <path id="pageHeader1-bezier24" stroke="none" fill="rgb(255, 255, 255)" d="M 108.75,29.98 L 108.78,30 C 111.38,31.1 113.38,33.28 114.25,35.96 110.6,35.85 109.52,33.03 108.75,29.98 Z M 108.75,29.98" />
        <path id="pageHeader1-bezier25" stroke="none" fill="rgb(0, 0, 0)" d="M 308.83,105.78 C 308.01,101.35 304.87,94.11 298.81,90.29 293.79,87.14 289.41,87.82 289.39,86.26 289.36,84.27 294.98,84.88 294.98,84.88 288.92,81.41 280.22,85.66 278.98,83.67 278.25,82.48 283.02,80.81 283.02,80.81 275.63,80.54 266.91,84.35 263.41,87.81 272.23,84.85 284.65,86.55 290.35,91.42 L 290.37,91.43 C 287.97,90.1 285.36,89.15 282.66,88.63 272.62,86.61 261.48,89.59 254.77,92.38 L 254.72,92.4 C 250.04,94.01 245.57,96.14 241.38,98.76 236.43,101.63 227.2,104.34 220.94,101.69 L 220.94,101.7 C 220.94,101.7 230.74,118.02 242.78,112.35 243.66,111.85 244.51,111.35 245.3,110.85 L 245.18,110.92 C 249.72,108.3 254,105.25 257.96,101.8 L 258.16,101.57 C 263.64,97.73 269.67,94.73 276.03,92.66 L 276.34,92.56 C 278.18,92 280.13,91.84 282.04,92.11 286.83,92.76 290.98,95.81 292.34,99.46 296.01,98.82 305.33,101.9 308.83,105.78 Z M 308.83,105.78" />
        <path id="pageHeader1-bezier26" stroke="none" fill="rgb(0, 0, 0)" d="M 100.27,47.21 C 99.26,41.76 91.73,40.82 87.85,43.33 L 87.82,43.4 C 89.34,39.83 92.19,36.98 95.76,35.46 L 95.67,35.33 C 93.7,34.61 91.67,34.05 89.61,33.65 92.64,31.86 98.75,30.43 101.84,30.7 L 101.81,30.69 C 101.19,30.51 100.56,30.38 99.92,30.31 L 100.59,26.77 C 100.24,23.8 97.55,20.4 94.35,18.35 92.77,13.8 94.32,5.54 96.51,3.33 95.4,15.22 112.2,22.57 115.46,31.34 113.62,23.85 105.85,18.91 102.21,14.35 101.06,11.36 102.17,6.41 103.57,4.73 102.93,12.7 111.35,19.21 115.82,23.81 121.09,29.23 122.49,33.93 121.63,37.7 L 121.65,37.71 C 123.23,38.1 124.27,39.61 124.07,41.23 L 124.07,41.21 C 125.86,40.66 127.33,39.38 128.12,37.69 128.79,43.68 125.1,49.84 121.15,51.59 L 121.14,51.59 C 121.78,49.94 121.57,48.07 120.58,46.6 118.87,44.38 113.89,44.2 112.2,44.27 112.2,44.27 114.36,41.27 113.58,39.7 112.63,37.74 102.85,38.29 98.44,39.74 L 98.45,39.74 C 100.53,39.7 102.61,40.01 104.6,40.65 103.93,41.67 102.01,45.91 103.26,47.24 104.32,48.38 105.82,46.69 106.01,46.47 105.87,46.88 104.4,51.15 105.41,52.23 106.46,53.36 108.83,52.65 108.83,52.65 107.26,56.29 101.51,58.65 97.54,58.53 L 97.48,58.55 C 99.38,57.71 100.9,56.19 101.74,54.29 L 101.76,54.19 C 100.21,54.69 98.58,54.84 96.97,54.65 98.27,54.16 100.95,50.95 100.27,47.21 Z M 114.25,35.95 L 114.25,35.96 C 113.38,33.27 111.38,31.1 108.78,29.99 109.52,33.03 110.6,35.84 114.25,35.95 Z M 114.25,35.95" />
        <path id="pageHeader1-bezier27" stroke="none" fill="rgb(0, 0, 0)" d="M 79.33,24.86 C 79.98,22.56 75.5,18.45 73.81,17.66 80.13,17.59 83.24,18.87 83.24,18.87 L 83.21,18.81 C 81.6,16.02 81.28,12.68 82.32,9.63 85.47,18.11 97.75,19.82 100.59,26.77 L 100,30.32 C 95.15,29.69 87.99,31.14 84.38,35.14 L 84.47,35.15 C 86.46,35.36 88.43,35.78 90.33,36.4 84.67,37.15 77.14,41.96 74.88,44.28 75.55,41.16 76.51,38.53 75.83,36.63 74.87,33.94 71.67,32.71 65.21,33.85 69.68,29.64 78.65,27.22 79.33,24.86 Z M 79.33,24.86" />
        <path id="pageHeader1-bezier28" stroke="none" fill="rgb(0, 0, 0)" d="M 43.45,46 L 44.75,48.85 C 43,49.14 41.03,56.06 41.03,56.06 36.56,53.48 40.33,45.21 40.33,45.21 L 43.45,46 Z M 43.45,46" />
        <path id="pageHeader1-bezier29" stroke="none" fill="rgb(0, 0, 0)" d="M 33.69,44.83 L 33.8,44.75 C 34.93,43.93 36.16,43.26 37.47,42.76 L 39.29,44.65 38.24,44.97 C 38.24,44.97 36.28,51.37 37.07,54.02 L 38.35,57.73 C 38.35,57.73 34.18,56.9 33.54,55.3 33.54,55.3 32.2,48.09 33.69,44.83 Z M 33.69,44.83" />
        <path id="pageHeader1-bezier30" stroke="none" fill="rgb(0, 0, 0)" d="M 31.34,47.54 C 31.34,47.54 31.61,55.76 32.45,56.49 L 35.55,57.8 35.64,60.61 C 35.64,60.61 30.11,58.85 29.65,56.74 29.19,54.63 28.83,49.38 28.83,49.38 L 28.83,49.38 C 29.45,48.53 30.31,47.89 31.3,47.55" />
        <path id="pageHeader1-bezier31" stroke="none" fill="rgb(0, 0, 0)" d="M 308.23,27.53 L 308.23,27.51 C 308.26,29.21 306.9,30.62 305.2,30.65 303.49,30.68 302.09,29.32 302.06,27.62 302.06,27.6 302.06,27.58 302.06,27.56 L 302.06,27.56 C 302.03,25.85 303.39,24.45 305.09,24.42 306.79,24.39 308.2,25.75 308.23,27.45 308.23,27.47 308.23,27.49 308.23,27.5 M 305.14,30.01 L 305.13,30.01 C 306.38,30.06 307.44,29.07 307.48,27.81 307.49,27.72 307.49,27.63 307.48,27.54 L 307.48,27.52 C 307.55,26.23 306.55,25.13 305.26,25.06 303.97,24.99 302.87,25.99 302.8,27.28 302.8,27.37 302.8,27.47 302.8,27.56 L 302.8,27.53 C 302.69,28.79 303.62,29.9 304.88,30.01 304.96,30.01 305.04,30.02 305.12,30.01 M 305.89,27.97 C 307.04,27.71 306.81,25.94 305.4,25.94 L 303.89,25.94 303.89,29.12 304.73,29.12 304.73,28.13 305.03,28.13 305.78,29.12 306.68,29.12 306.68,28.94 305.89,27.97 Z M 305.4,26.7 L 305.41,26.7 C 305.61,26.69 305.77,26.85 305.78,27.05 305.78,27.25 305.62,27.42 305.42,27.42 305.41,27.42 305.41,27.42 305.4,27.42 L 304.73,27.42 304.73,26.7 305.4,26.7 Z M 305.4,26.7" />
        <path id="pageHeader1-bezier32" stroke="none" fill="rgb(0, 0, 0)" d="M 229.2,35.25 L 229.2,35.25 C 229.1,36.68 227.86,37.76 226.43,37.66 226.33,37.65 226.22,37.63 226.12,37.61 L 226.1,37.61 C 226.65,38.05 227.38,38.21 228.07,38.03 L 228.07,38.03 C 227.27,38.92 226.05,39.29 224.9,39 L 224.9,39.01 C 223.82,38.7 223.05,37.74 222.97,36.62 L 222.96,36.61 C 222.43,37.18 222.43,38.06 222.96,38.64 L 222.96,38.63 C 222.22,38.42 221.67,37.8 221.55,37.03 221.43,36.19 221.89,35.26 221.03,34.51 220.52,34.06 219.75,33.41 219.24,33.02 218.19,32.19 218.59,31.59 218.35,31.15 218.17,30.81 217.73,30.62 217.46,30.32 L 217.46,30.32 C 217.22,30.02 217.18,29.62 217.35,29.29 L 217.35,29.28 C 217.33,29.64 217.57,29.96 217.92,30.04 218.31,30.17 218.64,30.06 218.97,30.26 219.37,30.49 219.19,31.11 219.47,31.33 219.73,31.53 220.38,31.27 220.93,31.71 221.49,32.16 222.73,33.2 223.27,33.64 L 223.27,33.63 C 223.63,34.03 224.24,34.07 224.65,33.7 224.95,33.43 225.05,33.01 224.9,32.63 L 224.9,32.62 C 225.72,33.15 225.96,34.25 225.42,35.08 225.35,35.19 225.26,35.29 225.17,35.39 225.94,35.56 227.32,35.22 227.32,34.1 L 227.32,34.1 C 227.28,33.49 226.83,32.98 226.23,32.87 L 226.27,32.87 C 227.68,32.67 228.98,33.65 229.18,35.06 229.19,35.14 229.19,35.21 229.2,35.28 M 212.66,26.78 C 212.76,26.41 212.01,25.76 211.73,25.64 L 211.71,25.64 C 212.24,25.6 212.77,25.65 213.27,25.79 L 213.27,25.79 C 212.99,25.35 212.92,24.8 213.07,24.3 213.63,25.66 215.62,25.87 216.12,26.99 L 216.12,26.99 C 215.97,26.42 215.59,25.94 215.08,25.66 L 215.08,25.67 C 214.83,24.85 214.92,23.97 215.33,23.22 215.22,25.14 217.98,26.25 218.56,27.65 218.22,26.45 216.93,25.69 216.32,24.96 L 216.32,24.95 C 216.16,24.43 216.22,23.87 216.49,23.4 216.43,24.69 217.83,25.7 218.58,26.43 L 218.59,26.44 C 219.29,26.96 219.66,27.81 219.59,28.68 L 219.59,28.65 C 219.85,28.71 220.02,28.95 220,29.21 L 220,29.21 C 220.29,29.11 220.52,28.89 220.64,28.61 L 220.64,28.61 C 220.76,29.51 220.36,30.4 219.6,30.89 L 219.58,30.9 C 219.67,30.63 219.63,30.33 219.46,30.1 219.17,29.75 218.37,29.74 218.09,29.77 218.09,29.77 218.43,29.27 218.29,29.02 218.13,28.71 216.55,28.84 215.84,29.1 L 215.82,29.1 C 216.16,29.08 216.5,29.12 216.83,29.21 216.74,29.39 216.45,30.08 216.66,30.29 216.85,30.48 217.1,30.15 217.1,30.15 217.1,30.15 216.85,30.91 217.03,31.09 217.21,31.27 217.59,31.14 217.59,31.14 L 217.59,31.13 C 217.21,31.76 216.53,32.15 215.79,32.15 L 215.79,32.15 C 216.1,31.99 216.34,31.73 216.46,31.41 L 216.46,31.42 C 216.21,31.51 215.94,31.55 215.67,31.53 L 215.68,31.52 C 216.08,31.24 216.27,30.76 216.17,30.29 215.98,29.42 214.75,29.31 214.14,29.74 L 214.13,29.75 C 214.36,29.17 214.8,28.69 215.37,28.43 L 215.42,28.42 C 215.12,28.31 214.81,28.23 214.5,28.18 L 214.49,28.16 C 215.05,27.8 215.71,27.62 216.38,27.62 L 216.37,27.62 C 215.36,27.41 214.31,27.7 213.56,28.4 L 213.52,28.42 C 213.82,28.44 214.13,28.5 214.43,28.57 L 214.49,28.58 C 213.59,28.83 212.76,29.29 212.07,29.93 L 212.04,29.96 C 212.18,29.56 212.22,29.14 212.16,28.72 211.99,28.28 211.46,28.1 210.42,28.31 211.12,27.61 212.57,27.17 212.66,26.78 Z M 218.71,28.65 L 218.61,28.34 218.62,28.35 C 218.44,27.84 218.05,27.43 217.55,27.24 L 217.1,27.07 217.23,27.53 C 217.34,27.92 217.55,28.65 218.38,28.65 L 218.71,28.65 Z M 187.19,29.67 L 187.19,29.64 C 187.19,32.58 184.81,34.96 181.87,34.96 181.78,34.96 181.69,34.96 181.59,34.96 L 181.62,34.96 C 178.72,35.11 176.24,32.88 176.09,29.98 175.94,27.07 178.17,24.6 181.07,24.45 181.23,24.44 181.38,24.44 181.53,24.44 L 181.61,24.44 C 184.53,24.29 187.03,26.54 187.19,29.47 187.19,29.53 187.19,29.59 187.19,29.65 M 184.26,29.67 L 184.25,29.69 C 184.38,28.29 183.34,27.05 181.93,26.93 181.81,26.92 181.7,26.91 181.58,26.92 179.99,26.92 179.01,28 179.01,29.74 L 179.01,29.76 C 178.89,31.15 179.92,32.38 181.31,32.5 181.42,32.51 181.54,32.51 181.66,32.5 L 181.65,32.5 C 183.09,32.5 184.26,31.33 184.26,29.89 184.26,29.82 184.26,29.74 184.25,29.66 M 135.11,29.67 L 135.11,29.63 C 135.13,30.78 134.76,31.91 134.06,32.84 L 134.03,32.88 C 133.71,33.27 133.33,33.62 132.9,33.89 L 132.97,33.85 C 131.96,34.53 130.77,34.86 129.56,34.8 L 124.17,34.79 124.4,34.66 C 124.4,34.66 125.06,34.27 125.37,34.09 125.66,33.91 125.78,33.73 125.78,33.1 L 125.78,27.22 C 125.78,26.57 125.61,26.39 125.35,26.21 L 125.37,26.22 C 124.62,25.75 124.09,24.99 123.92,24.11 L 123.91,23.95 124.03,24.03 124.02,24.02 C 124.3,24.2 124.61,24.34 124.93,24.42 L 124.87,24.41 C 125.81,24.56 126.76,24.62 127.71,24.59 L 129.97,24.58 129.97,24.59 129.93,24.59 C 130.81,24.59 131.68,24.8 132.46,25.2 L 132.49,25.21 C 134.13,26.08 135.14,27.8 135.11,29.65 M 132.14,29.69 C 132.14,28.02 131.28,27.06 129.78,27.06 L 128.63,27.06 128.63,32.31 129.78,32.31 C 131.28,32.31 132.14,31.36 132.14,29.69 Z M 202.95,28.25 C 202.81,28.22 202.67,28.19 202.54,28.15 L 202.5,28.14 C 201.53,27.92 200.89,27.73 200.89,27.32 L 200.89,27.32 C 200.89,27.2 200.93,27.07 201.02,26.99 L 201.01,26.99 C 201.31,26.78 201.67,26.68 202.03,26.72 202.1,26.72 202.18,26.72 202.26,26.73 L 202.27,26.73 C 202.28,26.73 202.29,26.73 202.3,26.73 202.31,26.73 202.33,26.73 202.34,26.73 L 202.3,26.73 C 203.38,26.86 204.42,27.26 205.31,27.88 L 205.18,24.89 204.98,24.83 204.94,24.82 204.97,24.82 C 204.81,24.77 204.65,24.73 204.49,24.7 L 204.52,24.71 C 203.87,24.56 203.22,24.45 202.56,24.38 202.42,24.37 202.22,24.36 202.03,24.36 199.76,24.36 198.43,25.44 198.28,27.4 L 198.28,27.42 C 198.21,28.39 198.69,29.32 199.51,29.84 L 199.47,29.81 C 200.3,30.25 201.19,30.6 202.1,30.85 L 202.3,30.91 C 202.79,31.06 203.36,31.37 203.28,31.96 203.24,32.27 203.12,32.6 202.19,32.6 202.06,32.6 201.91,32.6 201.74,32.58 L 201.73,32.58 C 200.88,32.43 200.1,32.04 199.47,31.45 L 199.52,31.49 C 199.49,31.47 199.47,31.45 199.44,31.43 L 198.92,31.04 198.39,30.64 198.6,34.46 198.8,34.52 198.84,34.54 C 198.84,34.54 198.95,34.57 199.3,34.65 L 199.15,34.62 C 199.85,34.77 200.56,34.88 201.27,34.96 201.53,34.98 201.72,34.99 201.91,34.99 204.39,34.99 206.03,33.75 206.08,31.84 206.12,30 205.07,28.79 202.95,28.25 Z M 173.26,32.31 L 170.94,32.31 170.94,30.82 173.11,30.82 173.1,30.82 C 173.36,30.79 173.62,30.82 173.87,30.89 L 173.88,30.9 C 174.02,30.97 174.14,31.08 174.23,31.21 L 174.32,31.36 174.32,28.09 174.23,28.14 174.22,28.15 C 174.13,28.2 174.04,28.25 173.95,28.29 L 173.98,28.28 C 173.77,28.34 173.55,28.37 173.33,28.34 L 170.94,28.34 170.94,27.07 173.34,27.07 173.34,27.07 C 173.74,27.01 174.14,27.12 174.45,27.37 L 175.04,27.82 174.73,24.59 166.56,24.59 166.78,24.72 C 166.78,24.73 167.34,25.07 167.67,25.29 167.98,25.5 168.1,25.64 168.1,26.3 L 168.1,33.1 C 168.1,33.77 168,33.89 167.68,34.09 167.37,34.28 166.73,34.65 166.72,34.66 L 166.49,34.79 174.96,34.79 175.71,31.39 C 175.71,31.39 175.03,31.88 174.84,32 L 174.85,31.99 C 174.37,32.27 173.81,32.38 173.26,32.31 M 157.37,24.59 L 151.59,24.59 151.8,24.72 C 151.81,24.73 152.36,25.07 152.7,25.29 153.01,25.49 153.13,25.63 153.13,26.3 L 153.13,28.77 148.86,24.59 148.86,24.59 142.15,24.59 142.15,24.59 C 142,24.6 141.85,24.64 141.72,24.72 L 141.66,24.76 141.7,24.82 C 141.71,24.82 141.85,25.03 141.94,25.16 L 141.94,25.16 C 142.02,25.29 142.06,25.45 142.05,25.61 L 142.05,30.81 142.05,30.82 142.06,30.86 C 142.04,31.96 141.55,32.52 140.52,32.52 139.47,32.52 138.94,31.94 138.94,30.81 L 138.94,25.61 138.94,25.61 C 138.92,25.46 138.96,25.3 139.05,25.16 139.14,25.03 139.28,24.82 139.29,24.82 L 139.33,24.76 139.26,24.72 139.27,24.72 C 139.14,24.64 138.99,24.6 138.84,24.59 L 134.55,24.59 134.77,24.72 C 134.77,24.73 135.33,25.06 135.67,25.29 135.98,25.49 136.09,25.63 136.09,26.3 L 136.09,30.51 136.09,30.55 C 136.07,31.29 136.18,32.03 136.44,32.72 L 136.42,32.67 C 136.6,33.06 136.85,33.41 137.17,33.7 L 137.14,33.68 C 138.05,34.56 139.29,35.02 140.55,34.95 L 140.48,34.95 C 142.19,35.1 143.82,34.18 144.57,32.64 L 144.58,32.61 C 144.84,31.95 144.94,31.25 144.89,30.55 L 144.89,26.3 C 144.89,25.63 145.01,25.49 145.32,25.29 145.5,25.17 145.75,25.02 145.93,24.9 146.11,25.01 146.33,25.16 146.49,25.28 146.79,25.5 146.93,25.72 146.93,26.38 L 146.93,33.11 C 146.93,33.76 146.81,33.9 146.51,34.09 146.18,34.29 145.55,34.65 145.55,34.66 L 145.31,34.79 151.11,34.79 150.88,34.66 C 150.87,34.65 150.23,34.28 149.92,34.09 149.63,33.9 149.5,33.75 149.5,33.11 L 149.5,29.05 155.7,35.12 155.7,26.3 C 155.7,25.64 155.81,25.5 156.13,25.29 156.47,25.06 157.1,24.73 157.11,24.72 L 157.37,24.59 Z M 198.73,24.59 L 192.95,24.59 193.17,24.72 C 193.17,24.73 193.73,25.07 194.06,25.29 194.37,25.49 194.49,25.63 194.49,26.3 L 194.49,28.77 190.22,24.59 186.82,24.59 187.03,24.72 C 187.03,24.72 187.55,25.06 187.85,25.28 188.15,25.5 188.29,25.72 188.29,26.38 L 188.29,33.11 C 188.29,33.76 188.17,33.9 187.87,34.09 187.55,34.29 186.91,34.65 186.91,34.66 L 186.67,34.79 192.48,34.79 192.24,34.66 C 192.23,34.65 191.59,34.28 191.28,34.09 190.99,33.9 190.86,33.75 190.86,33.11 L 190.86,29.05 197.06,35.12 197.06,26.3 C 197.06,25.64 197.17,25.5 197.49,25.29 197.83,25.06 198.46,24.73 198.47,24.72 L 198.73,24.59 Z M 166.5,34.2 C 166.5,34.19 166.35,33.99 166.26,33.85 166.18,33.73 166.14,33.63 166.14,33.21 L 166.13,30.46 C 166.13,30.04 166.17,29.96 166.25,29.84 166.34,29.7 166.49,29.5 166.49,29.5 L 166.54,29.43 166.46,29.39 166.46,29.39 C 166.33,29.32 166.19,29.28 166.05,29.26 L 166.05,29.27 C 166,29.26 161.71,29.26 161.71,29.26 L 161.93,29.4 C 161.93,29.4 162.56,29.79 162.85,29.97 163.13,30.14 163.27,30.35 163.27,30.95 L 163.27,32.45 163.27,32.45 C 162.93,32.55 162.58,32.6 162.22,32.6 160.47,32.6 159.58,31.65 159.58,29.79 L 159.58,29.78 C 159.42,28.41 160.39,27.17 161.75,27 161.92,26.98 162.1,26.98 162.27,27 L 162.26,26.99 C 163.56,26.99 164.82,27.45 165.82,28.29 L 165.78,28.19 165.47,25.24 165.45,25.02 165.24,24.97 165.03,24.92 165.03,24.92 C 164.44,24.77 163.84,24.66 163.23,24.59 L 163.22,24.59 C 162.94,24.55 162.66,24.53 162.38,24.53 162.33,24.53 162.22,24.53 162.16,24.53 L 162.19,24.53 C 159.28,24.38 156.8,26.61 156.64,29.53 156.49,32.44 158.73,34.92 161.64,35.07 161.83,35.08 162.01,35.08 162.19,35.07 L 162.11,35.08 C 162.86,35.06 163.61,34.99 164.35,34.86 164.65,34.8 164.72,34.78 164.82,34.76 164.84,34.75 164.86,34.75 164.89,34.74 165.27,34.65 165.66,34.56 166.06,34.43 L 166.56,34.28 166.5,34.2 Z M 242.47,29.67 L 242.47,29.63 C 242.49,30.78 242.12,31.91 241.42,32.83 L 241.39,32.88 C 241.07,33.27 240.69,33.62 240.26,33.89 L 240.33,33.85 C 239.32,34.53 238.13,34.86 236.92,34.79 L 231.53,34.79 231.76,34.66 C 231.76,34.66 232.42,34.27 232.72,34.09 233.02,33.91 233.14,33.73 233.14,33.1 L 233.14,27.21 C 233.14,26.57 232.96,26.39 232.71,26.21 L 232.73,26.22 C 231.98,25.75 231.45,24.99 231.28,24.11 L 231.27,23.95 231.39,24.03 231.38,24.03 C 231.66,24.2 231.97,24.33 232.29,24.42 L 232.23,24.41 C 233.17,24.56 234.12,24.62 235.07,24.59 L 237.32,24.58 237.32,24.59 237.29,24.59 C 238.17,24.59 239.04,24.8 239.82,25.2 L 239.85,25.21 C 241.49,26.08 242.5,27.8 242.47,29.65 M 239.5,29.69 C 239.5,28.02 238.64,27.06 237.13,27.06 L 235.99,27.06 235.99,32.31 237.13,32.31 C 238.64,32.31 239.5,31.36 239.5,29.69 Z M 298.73,28.25 C 298.59,28.22 298.45,28.19 298.31,28.15 L 298.28,28.14 C 297.31,27.91 296.67,27.73 296.67,27.32 L 296.67,27.32 C 296.66,27.19 296.71,27.07 296.8,26.98 L 296.79,26.99 C 297.07,26.78 297.43,26.68 297.78,26.72 297.88,26.72 297.96,26.72 298.04,26.73 L 298.07,26.73 C 298.09,26.73 298.1,26.73 298.12,26.73 L 298.08,26.73 C 299.16,26.86 300.2,27.26 301.09,27.88 L 300.95,24.89 300.76,24.83 300.72,24.81 300.72,24.81 C 300.56,24.77 300.4,24.73 300.24,24.69 L 300.31,24.71 C 299.65,24.56 298.98,24.45 298.31,24.37 298.19,24.37 297.99,24.36 297.81,24.36 295.53,24.36 294.2,25.44 294.06,27.4 L 294.06,27.41 C 293.99,28.39 294.47,29.32 295.3,29.84 L 295.23,29.8 C 296.07,30.25 296.97,30.6 297.89,30.85 L 298.07,30.9 C 298.57,31.06 299.14,31.36 299.06,31.96 299.02,32.27 298.9,32.6 297.97,32.6 297.83,32.6 297.68,32.59 297.52,32.58 L 297.51,32.58 C 296.69,32.43 295.93,32.06 295.31,31.5 L 295.3,31.49 C 295.27,31.47 295.24,31.45 295.22,31.43 L 294.7,31.04 294.17,30.64 294.38,34.46 294.58,34.52 294.62,34.54 C 294.62,34.54 294.73,34.57 295.08,34.65 L 294.96,34.63 C 295.65,34.77 296.34,34.88 297.04,34.96 297.31,34.98 297.5,34.99 297.69,34.99 300.17,34.99 301.81,33.75 301.85,31.84 301.9,30 300.85,28.79 298.73,28.25 Z M 282.97,29.68 L 282.97,29.65 C 282.97,32.59 280.59,34.97 277.65,34.97 277.56,34.97 277.47,34.97 277.37,34.96 L 277.4,34.96 C 274.5,35.12 272.02,32.89 271.87,29.98 271.72,27.08 273.95,24.6 276.85,24.45 277,24.44 277.16,24.44 277.31,24.45 L 277.38,24.45 C 280.31,24.29 282.81,26.54 282.96,29.47 282.97,29.53 282.97,29.6 282.97,29.66 M 280.03,29.68 L 280.03,29.7 C 280.15,28.3 279.12,27.06 277.71,26.94 277.59,26.93 277.47,26.92 277.36,26.93 L 277.35,26.93 C 275.97,26.88 274.81,27.96 274.76,29.34 274.76,29.47 274.77,29.6 274.78,29.73 L 274.78,29.76 C 274.66,31.16 275.69,32.38 277.08,32.51 277.2,32.52 277.32,32.52 277.44,32.51 L 277.43,32.51 C 278.87,32.51 280.04,31.34 280.04,29.9 280.04,29.82 280.04,29.75 280.03,29.67 M 262.03,34.11 L 262.89,34.79 257.55,34.79 C 257.55,34.79 258.01,34.36 258.21,34.14 L 258.21,34.14 C 258.41,33.97 258.47,33.69 258.35,33.46 258.32,33.38 258.26,33.21 258.18,33 L 254.48,33 C 254.41,33.21 254.35,33.37 254.31,33.46 254.16,33.82 254.19,33.93 254.4,34.12 254.63,34.34 255.19,34.79 255.19,34.79 L 249.59,34.79 247.02,31.69 247.01,31.69 247.01,31.68 247.01,31.68 C 246.83,31.39 246.59,31.15 246.31,30.97 L 246.33,30.98 C 246.28,30.95 246.22,30.94 246.16,30.93 L 246.17,33.1 C 246.17,33.74 246.29,33.86 246.59,34.09 L 246.63,34.11 C 246.99,34.35 247.37,34.57 247.76,34.77 L 241.84,34.79 C 241.84,34.79 242.75,34.28 243.03,34.09 243.3,33.91 243.45,33.75 243.45,33.1 L 243.45,26.31 C 243.45,25.68 243.32,25.48 243.03,25.3 242.73,25.12 242.13,24.74 242.13,24.74 L 241.92,24.6 246.77,24.6 246.75,24.6 C 247.36,24.57 247.98,24.64 248.57,24.8 L 248.6,24.8 C 249.83,25.13 250.66,26.26 250.62,27.53 L 250.62,27.5 C 250.63,28.08 250.46,28.65 250.14,29.13 L 250.12,29.15 C 249.88,29.52 249.55,29.82 249.17,30.03 250.25,31.45 251.1,32.51 251.62,33.08 251.65,33.02 254.71,25.64 254.71,25.64 L 254.71,25.64 C 254.72,25.59 254.72,25.54 254.72,25.49 254.72,25.45 254.72,25.38 254.57,25.25 L 253.85,24.59 257.87,24.59 C 257.87,24.59 261.22,33.08 261.24,33.13 L 261.24,33.13 261.24,33.13 C 261.3,33.27 261.37,33.41 261.46,33.54 L 261.46,33.54 C 261.62,33.78 261.81,33.97 262.05,34.12 M 247.83,27.5 C 247.83,26.98 247.49,26.63 246.51,26.62 L 246.17,26.63 246.17,29 C 246.31,29.01 246.45,29.01 246.5,29.01 247.15,29.01 247.83,28.86 247.83,27.5 Z M 257.32,30.58 L 256.4,28.07 255.4,30.58 257.32,30.58 Z M 294.51,24.59 L 288.73,24.59 288.95,24.72 C 288.95,24.72 289.5,25.07 289.84,25.29 290.15,25.49 290.27,25.63 290.27,26.3 L 290.27,28.77 286,24.59 286,24.59 282.6,24.59 282.81,24.72 C 282.81,24.72 283.33,25.06 283.63,25.28 283.93,25.5 284.07,25.72 284.07,26.38 L 284.07,33.1 C 284.07,33.76 283.95,33.9 283.65,34.09 283.33,34.29 282.69,34.65 282.68,34.66 L 282.45,34.79 288.25,34.79 288.02,34.66 C 288.01,34.65 287.37,34.28 287.06,34.09 286.77,33.9 286.64,33.75 286.64,33.1 L 286.64,29.05 292.84,35.12 292.84,26.3 C 292.84,25.64 292.95,25.5 293.27,25.29 293.61,25.06 294.24,24.73 294.25,24.72 L 294.51,24.59 Z M 271.05,33.76 L 271.05,33.77 C 270.93,33.57 270.89,33.34 270.92,33.12 L 270.92,30.37 C 270.92,29.95 270.96,29.87 271.04,29.75 271.12,29.61 271.27,29.41 271.27,29.41 L 271.33,29.34 271.25,29.3 271.25,29.3 C 271.12,29.23 270.98,29.19 270.84,29.17 L 270.84,29.18 C 270.78,29.17 266.49,29.17 266.49,29.17 L 266.71,29.31 C 266.71,29.31 267.35,29.7 267.64,29.88 267.92,30.05 268.06,30.25 268.06,30.86 L 268.06,32.36 268.05,32.36 C 267.71,32.47 267.36,32.52 267,32.51 265.26,32.51 264.37,31.56 264.37,29.7 L 264.37,29.69 C 264.2,28.33 265.17,27.08 266.54,26.92 266.71,26.9 266.88,26.89 267.06,26.91 L 267.06,26.91 C 268.36,26.91 269.61,27.36 270.61,28.2 L 270.57,28.1 270.26,25.15 270.23,24.93 270.02,24.88 269.82,24.83 269.84,24.84 C 269.23,24.69 268.61,24.57 267.99,24.49 L 268.02,24.5 C 267.74,24.46 267.46,24.44 267.17,24.44 267.12,24.44 267.01,24.44 266.95,24.44 L 266.98,24.44 C 264.07,24.29 261.58,26.52 261.43,29.44 261.28,32.35 263.52,34.83 266.43,34.99 266.61,35 266.8,35 266.98,34.99 L 266.91,34.99 C 267.65,34.97 268.38,34.9 269.11,34.77 269.43,34.71 269.51,34.69 269.61,34.67 269.63,34.66 269.65,34.66 269.67,34.65 270.06,34.56 270.45,34.46 270.84,34.34 L 271.34,34.19 271.28,34.11 C 271.28,34.1 271.13,33.9 271.05,33.76 Z M 225.8,27.75 C 223.6,27.85 221.71,29.72 220.74,31.03 L 220.74,31.04 C 220.93,31.1 221.1,31.19 221.26,31.31 221.46,31.48 221.76,31.72 222.08,31.99 L 222.06,32.03 C 222.51,31.03 223.1,30.09 223.8,29.25 L 223.84,29.21 C 224.59,28.34 225.87,28.15 226.85,28.76 L 226.84,28.76 C 227.75,28.18 228.85,27.97 229.91,28.16 L 229.87,28.15 C 229.11,27.34 228.07,26.85 226.95,26.79 225.91,26.79 225.32,27.3 225.17,27.07 224.98,26.78 225.87,26.34 225.87,26.34 224.65,26.4 223.76,27.83 223.39,27.66 223.17,27.55 223.72,26.85 223.72,26.85 L 223.72,26.85 C 222.65,27.52 221.85,28.55 221.46,29.75 L 221.47,29.72 C 222.54,28.44 224.13,27.72 225.8,27.75 Z M 219.11,33.58 C 218.55,34.53 217.36,35.77 216.16,35.77 213.94,35.77 212.83,32.63 215.3,30.06 L 215.3,30.06 C 215.19,30.03 215.08,30.01 214.97,30.01 L 214.98,30.01 C 214.78,30.01 214.59,30.06 214.42,30.17 L 213.34,31.1 213.65,29.57 C 213.67,29.52 213.69,29.47 213.71,29.41 L 213.73,29.41 C 213.25,29.64 212.81,29.94 212.42,30.3 L 211.43,31.38 211.53,29.86 211.6,29.52 211.6,29.53 C 211.66,29.33 211.69,29.11 211.67,28.9 L 211.67,28.89 C 211.66,28.86 211.64,28.84 211.61,28.82 L 211.64,28.8 C 210.63,29.53 209.96,30.63 209.76,31.86 L 209.75,31.93 C 209.87,31.76 210.02,31.61 210.2,31.5 210.35,31.44 210.47,31.51 210.34,31.92 210.29,32.08 209.07,35.37 211.46,37.64 211.46,37.64 211.2,36.98 211.36,36.77 211.43,36.67 211.53,36.67 211.67,36.84 L 211.66,36.82 C 211.76,36.96 211.87,37.09 211.98,37.22 L 212,37.24 212,37.24 212.01,37.25 C 212.2,37.47 212.42,37.68 212.66,37.86 L 212.67,37.87 C 213.5,38.45 214.48,38.76 215.49,38.76 218.38,38.76 219.94,36.75 220.81,35.04 L 220.81,35.04 C 220.78,34.99 220.74,34.94 220.7,34.9 220.25,34.5 219.6,33.97 219.11,33.58 Z M 212.5,25.13 L 212.5,25.14 C 212.45,24.81 212.48,24.48 212.57,24.16 L 213,22.82 213.54,24.12 213.55,24.12 C 213.74,24.51 214.05,24.82 214.44,25.03 L 214.43,25.05 C 214.39,24.44 214.48,23.83 214.71,23.27 L 214.73,23.24 C 214.62,22.37 215.24,21.59 216.1,21.48 216.13,21.48 216.15,21.48 216.18,21.47 217.62,21.47 218,23.19 217.34,24.42 L 217.32,24.39 C 217.66,24.86 218.07,25.29 218.52,25.67 218.68,25.81 218.82,25.94 218.94,26.06 218.98,26.1 219,26.13 219.04,26.17 L 219.03,26.18 C 219.66,25.34 220.03,24.35 220.1,23.3 L 220.11,23.26 C 220.14,21.29 218.57,19.67 216.6,19.64 216.54,19.63 216.48,19.63 216.42,19.64 L 216.42,19.63 C 215.15,19.5 213.89,19.96 213,20.88 L 213.05,20.82 C 212.28,21.6 211.91,22.68 212.04,23.77 L 212.04,23.77 C 212.07,24.24 212.22,24.7 212.47,25.1" />
    </g>
</svg>
