<?xml version="1.0" encoding="UTF-8"?>
<!DOCTYPE svg PUBLIC "-//W3C//DTD SVG 1.1//EN" "http://www.w3.org/Graphics/SVG/1.1/DTD/svg11.dtd">
<svg version="1.1" xmlns="http://www.w3.org/2000/svg" xmlns:xlink="http://www.w3.org/1999/xlink" width="744" height="127"  xml:space="preserve" id="pageHeader1">
    <!-- Generated by PaintCode - http://www.paintcodeapp.com -->
    <path id="pageHeader1-bezier" stroke="none" fill="rgb(220, 221, 222)" d="M 427.79,40.34 L 456.02,38.21 421.22,35.58 474.47,31.55 427.04,27.97 492.74,23.01 380.87,14.55 410.93,12.28 356.04,8.13 307.27,11.82 285.34,8.93 339.15,4.87 296.03,1.61 265.98,3.88 231.08,1.24 198.47,3.71 231.61,6.21 195.1,8.97 158.59,6.21 179.75,4.61 154.47,2.7 73.65,8.81 102.29,10.97 11.47,17.83 64.95,21.88 36.73,24.01 71.53,26.64 18.28,30.66 65.7,34.25 0,39.21 90.29,46.04 48.95,49.16 92.59,52.46 103.88,51.6 136.7,54.09 185.47,50.4 207.38,53.28 150.55,57.58 228.56,63.47 245.62,62.18 214.91,59.86 258.76,56.55 289.5,58.87 309.62,57.35 338.27,59.51 419.1,53.41 390.46,51.24 481.28,44.38 427.79,40.34 Z M 283.04,62.09 L 312.49,64.31 341.95,62.09 312.49,59.86 283.04,62.09 Z M 106.75,53.74 L 136.2,55.97 106.75,58.2 77.3,55.97 106.75,53.74 Z M 106.75,53.74" />
    <path id="pageHeader1-bezier2" stroke="none" fill="rgb(220, 221, 222)" d="M 492.57,107.19 L 515.49,105.46 487.22,103.32 530.48,100.06 491.96,97.14 545.33,93.11 454.45,86.24 478.87,84.4 434.28,81.03 394.67,84.02 376.85,81.68 420.56,78.38 385.53,75.73 361.12,77.57 332.78,75.43 306.29,77.43 333.2,79.47 303.55,81.71 273.89,79.47 291.08,78.17 270.55,76.62 204.89,81.58 228.16,83.34 154.38,88.91 197.83,92.19 174.9,93.92 203.17,96.06 159.92,99.33 198.44,102.24 145.07,106.27 218.41,111.82 184.83,114.36 220.28,117.03 229.45,116.34 256.11,118.36 295.73,115.36 313.52,117.71 267.36,121.19 330.73,125.98 344.59,124.94 319.64,123.05 355.26,120.36 380.23,122.24 396.57,121.01 419.85,122.77 485.5,117.81 462.24,116.05 536.01,110.48 492.57,107.19 Z M 374.98,124.86 L 398.91,126.67 422.83,124.86 398.91,123.05 374.98,124.86 Z M 231.78,118.08 L 255.71,119.89 231.78,121.7 207.86,119.89 231.78,118.08 Z M 231.78,118.08" />
    <path id="pageHeader1-bezier3" stroke="none" fill="rgb(220, 221, 222)" d="M 700.48,48.31 L 719.39,46.88 696.07,45.12 731.75,42.42 699.98,40.02 743.99,36.69 669.04,31.03 689.18,29.51 652.41,26.73 619.74,29.2 605.04,27.26 641.1,24.54 612.2,22.36 592.07,23.88 568.69,22.11 546.84,23.76 569.04,25.44 544.58,27.29 520.13,25.44 534.3,24.37 517.37,23.09 463.22,27.18 482.41,28.63 421.56,33.23 457.4,35.94 438.49,37.37 461.8,39.13 426.13,41.82 457.9,44.22 413.88,47.55 474.37,52.12 446.68,54.22 475.91,56.42 483.47,55.85 505.46,57.52 538.13,55.05 552.81,56.98 514.74,59.86 567.01,63.8 578.43,62.94 557.86,61.38 587.24,59.16 607.83,60.72 621.31,59.7 640.5,61.15 694.65,57.06 675.47,55.61 736.31,51.02 700.48,48.31 Z M 603.5,62.88 L 623.23,64.37 642.97,62.88 623.23,61.38 603.5,62.88 Z M 485.4,57.29 L 505.13,58.78 485.4,60.27 465.67,58.78 485.4,57.29 Z M 485.4,57.29" />
    <path id="pageHeader1-bezier4" stroke="none" fill="rgb(0, 0, 0)" d="M 92.55,6.36 L 92.55,6.37 C 92.26,9.07 92.36,11.8 92.83,14.48 L 93.06,14.64 C 91.23,13.32 89.35,12.09 87.4,10.96 85.64,9.97 84.19,7.83 83.29,6.26 82.68,5.17 82.32,4.36 82.32,4.36 L 82.28,4.42 C 79.97,6.97 79.45,10.68 80.96,13.77 74.71,12.31 70.83,13.91 70.83,13.91 82.58,21.61 76.33,22.23 69.55,25.45 62.78,28.66 62.28,32.65 62.28,32.65 70.38,29.99 73.6,33.4 73.6,33.4 69.24,37.57 73.13,44.08 73.13,44.08 77.37,52.2 87.87,55.65 97.26,57.08 L 97.9,57.17 C 103.59,57.97 109.35,58.22 115.09,57.92 L 93.39,64.59 74.17,69.44 C 74.17,69.44 55.08,67.39 48.07,51.24 41.07,35.07 53.31,22.35 52.08,21.52 50.91,20.72 49.43,22.49 49.27,22.68 54.6,7.44 70.64,7.6 71.28,5.99 71.93,4.36 68.11,4.26 68.11,4.26 84.33,-1.08 92.55,6.36 92.55,6.36 Z M 92.55,6.36" />
    <path id="pageHeader1-bezier5" stroke="none" fill="rgb(255, 255, 255)" d="M 716.15,49.94 L 716.15,98.76 C 734.8,98.66 737.22,98.76 740.4,94.63 L 740.4,46.63 C 734.44,49.8 728.28,49.9 716.15,49.94 Z M 716.15,49.94" />
    <path id="pageHeader1-bezier6" stroke="rgb(0, 0, 0)" stroke-width="1.76" stroke-miterlimit="10" fill="none" d="M 716.15,49.94 L 716.15,98.76 C 734.8,98.66 737.22,98.76 740.4,94.63 L 740.4,46.63 C 734.44,49.8 728.27,49.89 716.15,49.94 Z M 716.15,49.94" />
    <path id="pageHeader1-bezier7" stroke="rgb(0, 0, 0)" stroke-width="0.96" stroke-miterlimit="10" fill="none" d="M 716.15,94.78 C 741.24,97.63 739.1,90.2 740.22,89.97 M 715.38,53.57 C 736.16,53.5 738.01,52.07 739.9,50.62" />
    <path id="pageHeader1-bezier8" stroke="none" fill="rgb(255, 255, 255)" d="M 234.07,89.55 C 234.06,89.57 234.05,89.58 234.04,89.6 L 234.04,89.6 C 233.93,89.99 234,90.41 234.22,90.75 234.5,91.17 241.17,100.92 249.87,100.92 L 249.8,100.92 C 251.81,100.92 253.8,100.4 255.56,99.43 256.35,98.93 257.07,98.45 257.7,98.01 L 257.82,97.93 C 261.59,95.48 265.11,92.68 268.35,89.56 L 234.07,89.55 Z M 234.07,89.55" />
    <path id="pageHeader1-bezier9" stroke="none" fill="rgb(255, 255, 255)" d="M 20.03,58.53 L 20.03,106.53 65.47,100.6 65.47,52.6 20.03,58.53 Z M 20.03,58.53" />
    <path id="pageHeader1-bezier10" stroke="rgb(0, 0, 0)" stroke-width="1.76" stroke-miterlimit="10" fill="none" d="M 20.03,58.53 L 20.03,106.53 65.47,100.6 65.47,52.6 20.03,58.53 Z M 20.03,58.53" />
    <path id="pageHeader1-bezier11" stroke="rgb(0, 0, 0)" stroke-width="0.96" stroke-miterlimit="10" fill="none" d="M 21.03,61.75 L 65.47,56.09 M 21.03,102.97 L 65.47,96.67" />
    <path id="pageHeader1-bezier12" stroke="none" fill="rgb(220, 221, 222)" d="M 65.47,52.6 L 34.47,48.01 34.47,96.01 65.47,100.6 65.47,52.6 Z M 65.47,52.6" />
    <path id="pageHeader1-bezier13" stroke="rgb(0, 0, 0)" stroke-width="1.76" stroke-miterlimit="10" fill="none" d="M 65.47,52.6 L 34.47,48.01 34.47,96.01 65.47,100.6 65.47,52.6 Z M 65.47,52.6" />
    <path id="pageHeader1-bezier14" stroke="none" fill="rgb(255, 255, 255)" d="M 314.84,96.01 C 235.8,110.41 113.52,81.61 34.47,96.01 L 34.47,48.01 C 113.52,33.61 235.8,62.41 314.84,48.01 L 314.84,96.01 Z M 314.84,96.01" />
    <path id="pageHeader1-bezier15" stroke="rgb(0, 0, 0)" stroke-width="1.76" stroke-miterlimit="10" fill="none" d="M 314.84,96.01 C 235.8,110.41 113.52,81.61 34.47,96.01 L 34.47,48.01 C 113.52,33.61 235.8,62.41 314.84,48.01 L 314.84,96.01 Z M 314.84,96.01" />
    <path id="pageHeader1-bezier16" stroke="rgb(0, 0, 0)" stroke-width="0.96" stroke-miterlimit="10" fill="none" d="M 314.84,51.75 C 314.84,51.75 289.41,62.04 168.88,51.37 83.74,43.84 41.24,50.44 34.66,51.59 M 315.97,91.37 C 315.97,91.37 289.73,102.47 169.2,91.8 84.06,84.27 41.56,90.87 34.98,92.02" />
    <rect id="pageHeader1-rectangle" stroke="none" fill="rgb(255, 255, 255)" x="314.72" y="33.25" width="401.78" height="77.62" />
    <rect id="pageHeader1-rectangle2" stroke="rgb(0, 0, 0)" stroke-width="1.6" stroke-miterlimit="10" fill="none" x="314.72" y="33.25" width="401.78" height="77.62" />
    <path id="pageHeader1-bezier17" stroke="none" fill="rgb(255, 255, 255)" d="M 312.04,25.17 L 312.04,118.94 312.01,119.03 C 312.61,117.38 313.49,115.85 314.62,114.5 L 314.72,29.73 314.78,29.8 C 313.64,28.48 312.73,26.97 312.1,25.35" />
    <path id="pageHeader1-bezier18" stroke="rgb(0, 0, 0)" stroke-width="1.6" stroke-miterlimit="10" fill="none" d="M 312.04,25.17 L 312.04,118.94 312.01,119.03 C 312.61,117.38 313.49,115.85 314.62,114.5 L 314.72,29.73 314.78,29.8 C 313.63,28.48 312.73,26.97 312.1,25.34 L 312.04,25.17 Z M 312.04,25.17" />
    <path id="pageHeader1-bezier19" stroke="rgb(0, 0, 0)" stroke-width="1.6" stroke-miterlimit="10" fill="none" d="M 314.72,100.77 C 314.72,100.77 316.09,114 325.48,114 L 353.64,114 C 353.64,114 362.81,110.87 379.88,110.87 M 314.72,43.34 C 314.72,43.34 316.09,30.12 325.48,30.12 L 353.64,30.12 C 353.64,30.12 362.81,33.25 379.88,33.25" />
    <path id="pageHeader1-bezier20" stroke="none" fill="rgb(255, 255, 255)" d="M 719.19,25.17 L 719.19,118.94 719.22,119.03 C 718.62,117.38 717.74,115.85 716.61,114.5 L 716.51,29.73 716.45,29.8 C 717.6,28.48 718.5,26.97 719.13,25.34" />
    <path id="pageHeader1-bezier21" stroke="rgb(0, 0, 0)" stroke-width="1.6" stroke-miterlimit="10" fill="none" d="M 719.19,25.17 L 719.19,118.94 719.22,119.03 C 718.62,117.38 717.74,115.85 716.61,114.5 L 716.51,29.73 716.45,29.8 C 717.6,28.48 718.5,26.97 719.13,25.34 L 719.19,25.17 Z M 719.19,25.17" />
    <path id="pageHeader1-bezier22" stroke="rgb(0, 0, 0)" stroke-width="1.6" stroke-miterlimit="10" fill="none" d="M 716.51,100.77 C 716.51,100.77 715.14,114 705.76,114 L 677.6,114 C 677.6,114 668.42,110.87 651.36,110.87 M 716.51,43.34 C 716.51,43.34 715.14,30.12 705.75,30.12 L 677.59,30.12 C 677.59,30.12 668.42,33.25 651.35,33.25" />
    <path id="pageHeader1-bezier23" stroke="rgb(0, 0, 0)" stroke-width="0.96" stroke-miterlimit="10" fill="none" d="M 342.75,110.87 C 349.41,109.71 357.43,108.41 364.78,108.41 L 666.45,108.41 C 673.8,108.41 681.82,109.71 688.48,110.87 M 688.48,33.25 C 681.82,34.41 673.8,35.71 666.45,35.71 L 364.78,35.71 C 357.43,35.71 349.41,34.41 342.75,33.25" />
    <path id="pageHeader1-bezier24" stroke="none" fill="rgb(255, 255, 255)" d="M 108.75,26.65 L 108.78,26.66 C 111.38,27.77 113.38,29.94 114.25,32.63 110.6,32.51 109.52,29.7 108.75,26.65 Z M 108.75,26.65" />
    <path id="pageHeader1-bezier25" stroke="none" fill="rgb(0, 0, 0)" d="M 308.83,102.45 C 308.01,98.01 304.87,90.77 298.81,86.96 293.79,83.81 289.41,84.49 289.39,82.92 289.36,80.94 294.98,81.55 294.98,81.55 288.92,78.08 280.22,82.33 278.98,80.34 278.25,79.15 283.02,77.48 283.02,77.48 275.63,77.2 266.91,81.01 263.41,84.47 272.23,81.51 284.65,83.21 290.35,88.09 L 290.37,88.1 C 287.97,86.77 285.36,85.82 282.66,85.29 272.62,83.28 261.48,86.25 254.77,89.04 L 254.72,89.06 C 250.04,90.67 245.57,92.81 241.38,95.43 236.43,98.3 227.2,101.01 220.94,98.36 L 220.94,98.37 C 220.94,98.37 230.74,114.69 242.78,109.01 243.66,108.52 244.51,108.01 245.3,107.52 L 245.18,107.59 C 249.72,104.97 254,101.91 257.96,98.47 L 258.16,98.24 C 263.64,94.4 269.67,91.39 276.03,89.33 L 276.34,89.23 C 278.18,88.66 280.13,88.51 282.04,88.78 286.83,89.43 290.98,92.48 292.34,96.13 296.01,95.49 305.33,98.56 308.83,102.45 Z M 308.83,102.45" />
    <path id="pageHeader1-bezier26" stroke="none" fill="rgb(0, 0, 0)" d="M 100.27,43.88 C 99.26,38.43 91.73,37.49 87.85,40 L 87.82,40.07 C 89.34,36.49 92.19,33.65 95.76,32.13 L 95.67,32 C 93.7,31.28 91.67,30.72 89.61,30.32 92.64,28.53 98.75,27.1 101.84,27.37 L 101.81,27.36 C 101.19,27.18 100.56,27.05 99.92,26.97 L 100.59,23.44 C 100.24,20.47 97.55,17.06 94.35,15.01 92.77,10.47 94.32,2.2 96.51,-0 95.4,11.89 112.2,19.24 115.46,28.01 113.62,20.52 105.85,15.58 102.21,11.02 101.06,8.03 102.17,3.07 103.57,1.4 102.93,9.37 111.35,15.87 115.82,20.48 121.09,25.89 122.49,30.59 121.63,34.37 L 121.65,34.37 C 123.23,34.77 124.27,36.28 124.07,37.9 L 124.07,37.88 C 125.86,37.33 127.33,36.05 128.12,34.35 128.79,40.35 125.1,46.5 121.15,48.26 L 121.14,48.26 C 121.78,46.6 121.57,44.74 120.58,43.27 118.87,41.05 113.89,40.87 112.2,40.93 112.2,40.93 114.36,37.94 113.58,36.36 112.63,34.41 102.85,34.96 98.44,36.4 L 98.45,36.4 C 100.53,36.37 102.61,36.68 104.6,37.32 103.93,38.34 102.01,42.57 103.26,43.9 104.32,45.04 105.82,43.35 106.01,43.14 105.87,43.55 104.4,47.82 105.41,48.9 106.46,50.02 108.83,49.32 108.83,49.32 107.26,52.95 101.51,55.32 97.54,55.19 L 97.48,55.22 C 99.38,54.38 100.9,52.86 101.74,50.96 L 101.76,50.85 C 100.21,51.35 98.58,51.51 96.97,51.31 98.27,50.83 100.95,47.62 100.27,43.88 Z M 114.25,32.61 L 114.25,32.63 C 113.38,29.94 111.38,27.76 108.78,26.66 109.52,29.7 110.6,32.51 114.25,32.61 Z M 114.25,32.61" />
    <path id="pageHeader1-bezier27" stroke="none" fill="rgb(0, 0, 0)" d="M 79.33,21.53 C 79.98,19.23 75.5,15.12 73.81,14.32 80.13,14.26 83.24,15.54 83.24,15.54 L 83.21,15.47 C 81.6,12.69 81.28,9.34 82.32,6.3 85.47,14.77 97.75,16.49 100.59,23.44 L 100,26.98 C 95.15,26.36 87.99,27.8 84.38,31.81 L 84.47,31.82 C 86.46,32.03 88.43,32.44 90.33,33.06 84.67,33.82 77.14,38.63 74.88,40.95 75.55,37.82 76.51,35.2 75.83,33.29 74.87,30.6 71.67,29.38 65.21,30.52 69.68,26.3 78.65,23.89 79.33,21.53 Z M 79.33,21.53" />
    <path id="pageHeader1-bezier28" stroke="none" fill="rgb(0, 0, 0)" d="M 43.45,42.67 L 44.75,45.51 C 43,45.81 41.03,52.73 41.03,52.73 36.56,50.15 40.33,41.88 40.33,41.88 L 43.45,42.67 Z M 43.45,42.67" />
    <path id="pageHeader1-bezier29" stroke="none" fill="rgb(0, 0, 0)" d="M 33.69,41.49 L 33.8,41.42 C 34.93,40.6 36.16,39.93 37.47,39.43 L 39.29,41.31 38.24,41.63 C 38.24,41.63 36.28,48.03 37.07,50.68 L 38.35,54.4 C 38.35,54.4 34.18,53.56 33.54,51.96 33.54,51.96 32.2,44.76 33.69,41.49 Z M 33.69,41.49" />
    <path id="pageHeader1-bezier30" stroke="none" fill="rgb(0, 0, 0)" d="M 31.34,44.21 C 31.34,44.21 31.61,52.42 32.45,53.15 L 35.55,54.47 35.64,57.27 C 35.64,57.27 30.11,55.52 29.65,53.41 29.19,51.3 28.83,46.05 28.83,46.05 L 28.83,46.05 C 29.45,45.2 30.31,44.56 31.3,44.22" />
</svg>
