<?xml version="1.0" encoding="UTF-8"?>
<!DOCTYPE svg PUBLIC "-//W3C//DTD SVG 1.1//EN" "http://www.w3.org/Graphics/SVG/1.1/DTD/svg11.dtd">
<svg version="1.1" xmlns="http://www.w3.org/2000/svg" xmlns:xlink="http://www.w3.org/1999/xlink" width="745" height="130"  xml:space="preserve" id="pageHeader3">
    <!-- Generated by PaintCode - http://www.paintcodeapp.com -->
    <g id="pageHeader3-group">
        <path id="pageHeader3-bezier" stroke="none" fill="rgb(220, 221, 222)" d="M 428.28,43.67 L 456.54,41.54 421.69,38.91 475.01,34.89 427.53,31.3 493.31,26.34 381.3,17.88 411.39,15.61 356.45,11.46 307.62,15.15 285.67,12.26 339.54,8.2 296.37,4.94 266.28,7.21 231.35,4.57 198.7,7.04 231.87,9.55 195.32,12.31 158.77,9.55 179.96,7.95 154.65,6.03 73.73,12.14 102.4,14.31 11.48,21.17 65.03,25.21 36.77,27.34 71.61,29.97 18.3,33.99 65.78,37.58 0,42.54 90.4,49.37 49.01,52.49 92.7,55.79 104,54.94 136.86,57.42 185.68,53.73 207.62,56.62 150.72,60.91 228.82,66.8 245.9,65.52 215.16,63.2 259.06,59.88 289.83,62.2 309.97,60.68 338.66,62.85 419.57,56.74 390.9,54.58 481.83,47.72 428.28,43.67 Z M 283.36,65.42 L 312.85,67.65 342.34,65.42 312.85,63.2 283.36,65.42 Z M 106.87,57.08 L 136.36,59.31 106.87,61.53 77.39,59.31 106.87,57.08 Z M 106.87,57.08" />
        <path id="pageHeader3-bezier2" stroke="none" fill="rgb(220, 221, 222)" d="M 493.13,110.53 L 516.08,108.79 487.78,106.66 531.09,103.39 492.52,100.48 545.95,96.44 454.96,89.57 479.41,87.73 434.78,84.36 395.12,87.35 377.28,85.01 421.04,81.71 385.97,79.06 361.53,80.91 333.16,78.76 306.64,80.77 333.58,82.8 303.89,85.04 274.21,82.8 291.41,81.5 270.86,79.95 205.13,84.91 228.42,86.67 154.56,92.24 198.06,95.53 175.1,97.26 203.4,99.4 160.1,102.66 198.66,105.58 145.23,109.61 218.66,115.15 185.04,117.69 220.53,120.37 229.71,119.68 256.4,121.69 296.06,118.7 313.88,121.04 267.67,124.53 331.11,129.32 344.98,128.27 320.01,126.38 355.67,123.69 380.66,125.58 397.03,124.34 420.33,126.1 486.06,121.14 462.77,119.38 536.62,113.81 493.13,110.53 Z M 375.41,128.19 L 399.36,130 423.32,128.19 399.36,126.38 375.41,128.19 Z M 232.04,121.41 L 256,123.22 232.04,125.03 208.1,123.22 232.04,121.41 Z M 232.04,121.41" />
        <path id="pageHeader3-bezier3" stroke="none" fill="rgb(220, 221, 222)" d="M 701.28,51.64 L 720.21,50.21 696.86,48.45 732.58,45.75 700.77,43.35 744.84,40.03 669.8,34.36 689.96,32.84 653.15,30.06 620.44,32.53 605.73,30.6 641.82,27.87 612.9,25.69 592.74,27.21 569.34,25.45 547.47,27.1 569.69,28.78 545.21,30.63 520.72,28.78 534.91,27.7 517.96,26.42 463.75,30.52 482.96,31.97 422.04,36.56 457.92,39.27 438.99,40.7 462.33,42.46 426.61,45.16 458.42,47.56 414.35,50.88 474.91,55.46 447.18,57.55 476.46,59.76 484.03,59.19 506.04,60.85 538.75,58.38 553.44,60.31 515.33,63.19 567.65,67.14 579.09,66.27 558.49,64.72 587.91,62.5 608.52,64.05 622.02,63.04 641.23,64.49 695.44,60.39 676.24,58.94 737.15,54.35 701.28,51.64 Z M 604.19,66.21 L 623.94,67.7 643.7,66.21 623.94,64.72 604.19,66.21 Z M 485.95,60.62 L 505.7,62.11 485.95,63.6 466.2,62.11 485.95,60.62 Z M 485.95,60.62" />
        <path id="pageHeader3-bezier4" stroke="none" fill="rgb(255, 255, 255)" d="M 51.23,53.01 L 51.23,37.35 60.91,37.35 C 60.91,37.35 65.77,39.65 73.25,29.05 L 89.48,29.05 95.93,24.51 C 95.93,24.51 101.46,16.61 106.53,16.61 111.6,16.61 131.77,7.39 131.77,7.39 L 153.53,2.63 179.34,10.16 193.06,15.69 C 193.06,15.69 214.01,23.48 211.13,36.12 211.13,36.12 213.64,25.6 193.06,18.45 193.06,18.45 204.22,26.6 201.92,31.36 201.92,31.36 213.9,39.61 215.74,46.32 215.74,46.32 242.47,54.24 253.06,36.12 253.06,36.12 249.29,44.68 245.69,46.32 245.69,46.32 270.57,61.15 294.54,36.12 294.54,36.12 277.28,51.17 278.41,57.39 L 210.21,55.32 C 210.21,55.32 210.92,25.22 168.4,22.6 125.88,19.99 121.28,41.26 124.73,49.33 L 51.23,53.01 Z M 51.23,53.01" />
        <path id="pageHeader3-bezier5" stroke="none" fill="rgb(255, 255, 255)" d="M 172.48,51.17 C 172.48,51.17 180.26,22.6 206.98,55.32 206.98,55.32 188.34,18.92 168.4,50.25 L 172.48,51.17 Z M 172.48,51.17" />
        <path id="pageHeader3-bezier6" stroke="none" fill="rgb(0, 0, 0)" d="M 197.04,36.26 C 197.32,36.44 197.79,36.79 198.4,37.26 197.55,36.63 197.04,36.26 197.04,36.26 Z M 222.99,51.66 L 223.07,51.72 C 221.72,50.91 220.32,50.19 218.87,49.58 L 218.88,49.68 C 220.41,52.98 221.6,56.43 222.42,59.98 L 222.34,59.69 C 221.25,55.88 219.66,52.23 217.62,48.84 L 217.76,49.05 C 212.09,46.4 206.66,43.27 201.54,39.68 208.47,45.03 218.3,53.31 217.35,56.56 217.35,56.56 216.86,55.27 215.94,55.69 215.12,56.06 212.44,59.34 209.3,57.6 209.28,57.69 209.25,57.77 209.22,57.86 209.24,57.77 209.27,57.69 209.3,57.6 L 209.3,57.6 C 208.87,57.36 208.48,57.07 208.13,56.73 L 208.08,56.71 C 208.49,56.92 208.91,57.1 209.35,57.24 209.84,54.93 209.14,50.18 198.77,44.87 198.77,44.87 195.26,44.46 195.07,47.27 195.07,47.27 184,41.6 183.36,45.82 182.73,50.03 188.83,51.57 188.83,51.57 L 177.16,51.99 177.15,51.92 C 176.68,48.11 177.71,44.27 180.02,41.2 180.02,41.2 179.83,43.77 182.15,43.04 184.48,42.3 189.53,37.07 188.08,33.83 188.08,33.83 193.25,35.61 196.09,38.14 198.76,40.51 211.65,49.53 209.43,57.26 210.88,57.69 213.13,57.81 213.64,54.74 214.28,50.96 204.4,42.08 199.47,38.1 199.33,37.99 199.19,37.88 199.05,37.77 198.82,37.59 198.6,37.42 198.4,37.26 198.49,37.33 198.59,37.4 198.69,37.47 L 198.91,37.65 C 195.85,35.26 193.14,32.45 190.86,29.31 190.5,28.81 200.58,38.69 213.9,43.51 L 214,43.64 C 210.71,39.57 206.83,36.02 202.49,33.09 L 202.56,33.15 C 202.4,33.53 202.17,33.87 201.9,34.18 L 201.89,34.18 C 202.06,33.76 202.17,33.32 202.22,32.87 191.67,25.77 176.08,20.05 153.08,18.17 153.08,18.17 132.68,17.73 133.78,27.94 133.78,27.94 133.43,30.79 137.79,32 L 137.48,31.99 C 135.04,31.91 132.62,31.61 130.23,31.1 130.49,31.16 131.03,29.86 129.8,29.84 128.57,29.82 111.86,40.67 112.66,48.46 112.66,48.46 116.87,48.46 120.8,40.61 120.8,40.61 118.88,46.28 117.8,48.87 117.8,48.87 112.42,50.77 111.23,55.3 L 111.2,55.47 C 110.68,57.71 109.87,59.87 108.79,61.9 108.88,61.73 89.24,78.17 72.19,80.22 72.19,80.22 64.59,81.17 59.26,77.72 L 62.34,77.59 C 62.34,77.59 50.51,75.71 45.48,68.36 40.44,61.01 35.12,45.19 36.96,35.17 36.96,35.17 38.1,44.3 41.55,49.28 41.55,49.28 44.86,20.03 69.56,3.3 69.56,3.3 62.84,11.34 62.99,14.68 62.99,14.68 60.33,13.98 57.22,20.03 54.11,26.08 54.4,36.6 62.76,35.56 71.13,34.52 73.13,25.77 71.77,21.05 71.77,21.05 73.23,24.79 76.65,23.71 L 76.78,23.66 C 79.21,22.73 81.45,21.36 83.38,19.62 83.25,19.73 81.29,27.21 94.31,24.01 L 90.57,23.55 C 90.57,23.55 109.43,9.23 120.33,4.85 L 119.77,5.17 C 114.68,8.11 109.8,11.4 105.16,15.03 105.16,15.03 134.72,-2.51 164.48,4.13 165.32,4.32 166.12,4.53 166.94,4.74 L 166.84,4.69 C 166.84,4.69 167.08,4.76 167.52,4.89 168.31,5.09 169.08,5.3 169.84,5.51 174.86,6.82 184.91,9.11 190.03,7.96 190.03,7.96 185.64,9.54 186.21,11.06 186.78,12.58 195.92,15.81 195.92,15.81 195.92,15.81 193.27,16.6 195.73,19.08 L 195.68,19.06 C 199.84,22.88 202.25,26.69 202.83,29.71 L 202.68,29.59 C 207.72,33.52 212.06,38.26 215.54,43.62 226.79,47.61 239.53,47.33 250.64,35.72 250.64,35.72 245.06,43.22 245.49,44.79 245.92,46.36 249.78,46.58 249.78,46.58 L 250.89,48.88 C 250.89,48.88 241.57,44.12 232.86,49.73 232.86,49.73 233.53,51.39 238.41,50.44 238.41,50.44 237.67,51 234.59,51.49 231.51,51.99 228.89,52.44 232.61,56.16 L 233.02,56.24 C 229.37,55.47 225.77,54.47 222.24,53.26 221.77,53.09 224.43,52.99 222.99,51.66 Z M 102.54,19.58 L 103.41,20.04 103.9,20.9 104.36,20.03 105.22,19.54 104.35,19.08 103.86,18.22 103.4,19.1 102.54,19.58 Z M 104.1,21.84 L 104.1,21.84 C 103.64,21.84 103.27,22.22 103.28,22.69 103.29,23.15 103.67,23.52 104.13,23.51 104.59,23.5 104.96,23.12 104.95,22.66 L 104.95,22.66 C 104.94,22.2 104.56,21.83 104.1,21.84 M 101.49,24.39 L 101.49,24.39 C 101.5,24.7 101.75,24.94 102.06,24.94 102.37,24.93 102.62,24.68 102.61,24.37 102.6,24.06 102.35,23.82 102.04,23.82 L 102.04,23.82 102.04,23.82 C 101.73,23.83 101.49,24.08 101.49,24.39 101.49,24.39 101.49,24.39 101.49,24.4 M 99.8,22.74 L 99.8,22.74 C 99.8,23.2 100.18,23.57 100.65,23.56 101.11,23.56 101.47,23.17 101.47,22.71 101.46,22.25 101.08,21.88 100.62,21.89 L 100.62,21.89 100.62,21.89 C 100.16,21.9 99.79,22.28 99.8,22.74 M 95.95,26.01 L 95.95,26.01 C 95.95,26.32 96.2,26.56 96.51,26.56 96.82,26.55 97.07,26.3 97.06,25.99 97.05,25.68 96.8,25.44 96.49,25.44 L 96.49,25.44 96.49,25.44 C 96.19,25.45 95.94,25.7 95.95,26.01 M 98.67,60.5 C 91.27,68.68 84.38,65.46 84.38,65.46 91.31,71.66 98.67,60.5 98.67,60.5 Z M 105.95,31.94 C 107.36,30.53 116.1,21.9 116.1,21.9 116.1,21.9 106.4,29.17 100.1,30.04 97.31,30.42 91.92,30.07 85.43,30.88 81.44,32.88 75.37,35.76 75.13,34.94 74.98,34.47 75.5,33.66 76.19,32.85 L 76.24,32.84 C 69.75,34.82 63.83,38.31 58.95,43.02 58.7,43.26 55.61,45.23 56.37,45.66 57.12,46.09 57.88,46.52 57.88,46.52 57.88,46.52 53.99,49.11 55.07,50.73 56.15,52.35 65.46,45.4 65.46,45.4 L 65.13,45.76 C 62.82,48.23 60.31,50.5 57.61,52.53 L 57.94,52.28 C 55.34,54.1 54.23,57.41 55.21,60.43 55.24,60.53 56.49,65.69 62.82,64.27 L 62.43,63.59 61.21,62.95 62.41,62.27 63.06,61.05 63.74,62.25 64.96,62.89 63.76,63.57 63.48,64.1 C 63.84,64 64.2,63.89 64.59,63.75 72.47,60.84 82.22,63.13 86.37,64.01 90.51,64.9 95.71,58.82 98.28,52.71 98.28,52.71 99.53,52.9 101.2,50.77 101.2,50.77 99.86,54.09 100.72,55.39 101.58,56.68 103.57,55.73 103.98,54.81 L 103.05,52.99 103.08,52.97 C 105.27,51.66 107.03,49.74 108.15,47.45 110.11,43.52 108.2,39.46 106.68,37.81 L 106.75,37.87 C 107.46,38.53 108.12,39.25 108.71,40.01 108.71,40.01 109.59,32.98 113.32,29.88 113.32,29.88 106.49,34.15 105.41,34.64 104.33,35.12 104.55,33.34 105.95,31.94 Z M 174.62,12.34 C 174.62,12.34 160.71,5.45 138.58,7.48 L 138.56,7.5 C 135.06,10.23 130.85,11.89 126.44,12.27 126.39,12.28 111.7,17.53 104.43,24.9 104.43,24.9 107.73,21.92 110.95,22.84 110.95,22.84 142.07,-0.94 174.62,12.34 Z M 161.43,15.66 L 160.83,15.34 160.49,14.75 160.17,15.36 159.57,15.69 160.18,16.01 160.52,16.6 160.84,16 161.43,15.66 Z M 164.58,14.87 L 163.97,14.55 163.63,13.95 163.32,14.56 162.72,14.9 163.33,15.22 163.66,15.81 163.98,15.21 164.58,14.87 Z M 167.83,15.09 L 167.83,15.09 C 167.83,14.71 167.51,14.4 167.12,14.41 166.74,14.42 166.43,14.73 166.44,15.12 166.45,15.5 166.76,15.81 167.15,15.8 L 167.15,15.8 C 167.53,15.8 167.84,15.48 167.83,15.09 L 167.83,15.09 Z M 171.08,17.41 L 171.08,17.41 C 171.07,17.03 170.75,16.72 170.37,16.73 169.98,16.73 169.68,17.05 169.68,17.44 169.69,17.82 170.01,18.13 170.39,18.12 L 170.39,18.12 C 170.78,18.11 171.08,17.8 171.08,17.41 L 171.08,17.41 M 172.59,15.85 L 172.59,15.85 C 172.58,15.47 172.26,15.16 171.88,15.17 171.49,15.18 171.19,15.49 171.19,15.88 171.2,16.26 171.52,16.57 171.9,16.56 L 171.9,16.56 C 172.29,16.56 172.59,16.24 172.59,15.85 L 172.59,15.85 Z M 179.18,18.54 L 179.18,18.54 C 179.18,18.3 178.98,18.12 178.75,18.12 178.52,18.13 178.34,18.32 178.34,18.55 178.35,18.78 178.54,18.96 178.77,18.96 L 178.77,18.96 C 179,18.96 179.18,18.77 179.18,18.53 L 179.18,18.53 M 180.59,19.63 L 180.59,19.63 C 180.59,19.47 180.46,19.35 180.31,19.35 180.15,19.36 180.03,19.48 180.03,19.64 180.04,19.79 180.16,19.92 180.32,19.91 L 180.32,19.91 C 180.47,19.91 180.59,19.78 180.59,19.63 L 180.59,19.63 Z M 201.83,28.91 C 199.86,22.97 190.56,13.69 152.97,10.3 L 153.26,10.33 C 161.02,11.28 168.67,13.05 176.06,15.6 L 175.1,15.27 C 174.73,16.1 175.1,17.09 175.94,17.46 176.16,17.56 176.4,17.61 176.65,17.6 L 176.64,17.6 C 177.39,17.59 178.04,17.08 178.22,16.35 L 177.79,16.2 C 186.05,19.04 193.84,23.1 200.9,28.23 M 181.6,24.68 L 181.17,25.5 180.37,25.95 181.18,26.38 181.63,27.18 182.06,26.37 182.86,25.91 182.05,25.48 181.6,24.68 Z M 184.33,29.65 L 184.92,28.53 186.02,27.9 184.9,27.32 184.28,26.22 183.69,27.34 182.59,27.96 183.71,28.55 184.33,29.65 Z M 226.2,44.31 L 226.89,43.01 228.17,42.28 226.86,41.59 226.13,40.31 225.45,41.62 224.16,42.35 225.47,43.03 226.2,44.31 Z M 230.25,41.89 L 230.76,40.91 231.72,40.36 230.74,39.85 230.2,38.89 229.69,39.87 228.72,40.41 229.7,40.93 230.25,41.89 Z M 231.09,43.53 L 231.53,43.76 231.77,44.19 232,43.76 232.43,43.51 231.99,43.28 231.75,42.85 231.52,43.29 231.09,43.53 Z M 235.12,44.66 L 235.47,44 236.11,43.64 235.46,43.3 235.09,42.65 234.75,43.31 234.11,43.67 234.76,44.01 235.12,44.66 Z M 241.94,40.9 L 242.63,39.6 243.91,38.87 242.61,38.18 241.88,36.9 241.19,38.2 239.91,38.93 241.21,39.62 241.94,40.9 Z M 250.33,42.81 L 250.06,43.32 249.56,43.61 250.07,43.88 250.36,44.38 250.63,43.87 251.13,43.58 250.62,43.31 250.33,42.81 Z M 216.25,38.02 L 216.7,37.17 217.54,36.69 216.68,36.24 216.2,35.4 215.75,36.25 214.91,36.73 215.77,37.18 216.25,38.02 Z M 117.37,49.65 L 116.8,50.73 115.74,51.34 116.82,51.91 117.43,52.97 118,51.89 119.06,51.29 117.98,50.72 117.37,49.65 Z M 121.25,48.15 L 120.89,48.84 120.22,49.22 120.9,49.58 121.29,50.26 121.65,49.57 122.32,49.19 121.64,48.83 121.25,48.15 Z M 124.66,51.86 L 124.25,52.64 123.49,53.07 124.26,53.48 124.7,54.24 125.1,53.47 125.87,53.03 125.09,52.62 124.66,51.86 Z M 209.17,57.99 L 209.15,58.02 C 209.04,58.28 208.92,58.53 208.78,58.77 L 208.8,58.73 C 208.96,58.49 209.08,58.24 209.18,57.97 M 209.22,57.86 C 209.21,57.87 209.21,57.87 209.21,57.88 L 209.21,57.88 C 209.21,57.87 209.21,57.86 209.22,57.85 M 209.21,57.88 C 209.19,57.92 209.18,57.95 209.17,57.99 209.18,57.95 209.19,57.92 209.21,57.88 Z M 305.32,16.28 C 305.32,16.28 308.28,26.05 306.76,33.08 306.76,33.08 306.89,26.54 304.34,28.22 301.8,29.89 291.43,39.17 299.45,43.71 299.45,43.71 281.47,44.24 280.25,55.71 280.25,55.71 276.18,54.86 270.44,54.07 L 270.56,53.99 C 269.72,54.57 268.83,55.09 267.92,55.54 256.98,60.77 229.85,66.55 237.66,55.57 234.08,57.58 232.46,60.86 234.39,66.02 234.39,66.02 228.14,55.14 244.44,51.84 244.44,51.84 240.68,50.27 242.76,48.83 242.76,48.83 257.93,54.34 271.66,51.67 273.06,49.86 272.78,47.81 269.81,45.6 269.81,45.6 274.42,48.05 272.91,51.4 L 272.82,51.42 C 276.57,50.62 280.1,49.01 283.17,46.7 283.38,46.54 278.49,48.02 276.17,48.53 L 276.37,48.44 C 279.94,46.93 283.32,44.97 286.43,42.64 L 285.62,42.33 283.84,41.4 285.58,40.41 286.52,38.63 287.51,40.37 288.61,40.95 288.94,40.7 C 296.89,34.25 302.68,25.51 305.5,15.67 M 268.99,53.87 C 260.87,52.83 250.08,52.05 242.55,53.79 240.72,54.67 237.62,56.6 239.18,58.94 240.66,61.15 260.75,58.8 268.99,53.87 Z M 310.14,25.36 L 309.67,26.25 308.8,26.74 309.69,27.21 310.18,28.09 310.65,27.19 311.52,26.7 310.63,26.23 310.14,25.36 Z M 312.92,23.91 L 312.69,24.34 312.27,24.58 312.7,24.81 312.94,25.23 313.17,24.8 313.59,24.56 313.16,24.34 312.92,23.91 Z M 310.06,20.3 L 309.38,21.59 308.11,22.31 309.4,22.99 310.12,24.26 310.8,22.97 312.07,22.25 310.78,21.57 310.06,20.3 Z M 316.04,18.04 L 315.61,17.29 315.21,18.05 314.47,18.47 315.23,18.87 315.65,19.62 316.05,18.86 316.8,18.44 316.04,18.04 Z M 288.39,38.75 L 288.79,37.99 289.54,37.57 288.78,37.17 288.35,36.42 287.95,37.18 287.2,37.6 287.96,38 288.39,38.75 Z M 285.08,36.58 L 285.44,35.9 286.11,35.52 285.43,35.16 285.05,34.49 284.69,35.17 284.02,35.55 284.7,35.91 285.08,36.58 Z M 284.18,38.47 L 284.18,38.47 C 284.19,38.8 284.45,39.05 284.77,39.05 285.1,39.04 285.35,38.77 285.35,38.45 285.34,38.13 285.08,37.87 284.75,37.88 L 284.75,37.88 284.75,37.88 C 284.43,37.88 284.17,38.15 284.18,38.47 Z M 288.67,34.31 L 288.67,34.31 C 289.38,34.3 289.95,33.71 289.93,33 289.92,32.29 289.34,31.73 288.63,31.74 287.92,31.75 287.35,32.34 287.36,33.05 L 287.36,33.05 C 287.38,33.76 287.96,34.32 288.67,34.31 Z M 293.27,29.56 L 293.27,29.56 C 293.59,29.56 293.85,29.29 293.84,28.97 293.83,28.65 293.57,28.39 293.25,28.4 292.92,28.4 292.67,28.67 292.67,28.99 L 292.67,28.99 C 292.68,29.31 292.94,29.57 293.27,29.56 Z M 255.65,51.43 L 255.65,51.43 C 256.3,51.42 256.81,50.89 256.8,50.24 256.79,49.6 256.26,49.08 255.61,49.09 254.97,49.11 254.45,49.64 254.46,50.28 L 254.46,50.28 C 254.48,50.93 255.01,51.44 255.65,51.43 M 259.93,48.56 L 259.93,48.56 C 260.25,48.55 260.5,48.29 260.5,47.96 260.49,47.64 260.23,47.39 259.91,47.39 259.58,47.4 259.33,47.66 259.33,47.98 L 259.33,47.98 C 259.34,48.31 259.61,48.56 259.93,48.56 Z M 252.66,54.52 L 252.66,54.52 C 252.67,54.9 252.99,55.21 253.38,55.21 253.76,55.2 254.07,54.88 254.06,54.49 254.06,54.11 253.74,53.8 253.35,53.8 L 253.35,53.8 253.35,53.8 C 252.96,53.81 252.66,54.13 252.66,54.52 Z M 66.12,60.78 L 65.93,61.14 65.57,61.35 65.93,61.54 66.14,61.89 66.33,61.53 66.69,61.33 66.32,61.14 66.12,60.78 Z M 66.51,58.91 L 66.25,59.4 65.77,59.67 66.26,59.93 66.53,60.41 66.79,59.92 67.27,59.65 66.78,59.39 66.51,58.91 Z M 64.12,57.72 L 63.77,58.37 63.13,58.74 63.79,59.08 64.15,59.73 64.49,59.07 65.14,58.7 64.48,58.36 64.12,57.72 Z M 95.36,41.46 L 95.16,41.84 94.78,42.06 95.16,42.26 95.38,42.64 95.58,42.25 95.96,42.04 95.57,41.84 95.36,41.46 Z M 99.19,37.36 L 98.66,38.38 97.66,38.94 98.68,39.48 99.25,40.48 99.78,39.46 100.78,38.89 99.76,38.36 99.19,37.36 Z M 71.08,57.35 L 70.7,58.08 69.98,58.49 70.71,58.87 71.12,59.59 71.5,58.86 72.22,58.45 71.49,58.06 71.08,57.35 Z M 96.73,40.15 L 96.52,40.55 96.12,40.78 96.52,41 96.75,41.39 96.96,40.99 97.36,40.76 96.96,40.55 96.73,40.15 Z M 222.43,60.01 L 222.37,59.77 C 223.48,64.57 224,69.48 223.91,74.41 L 223.89,74.69 C 224.31,69.83 223.84,64.93 222.5,60.24" />
        <path id="pageHeader3-bezier7" stroke="none" fill="rgb(0, 0, 0)" d="M 66.28,36.73 C 66.28,36.73 57.91,42.67 60.22,44.73 62.52,46.79 66.16,42.91 66.16,42.91 66.16,42.91 65.07,45.7 66.16,46.06 67.25,46.43 71.25,42.06 77.92,44 77.92,44 71.86,44.24 73.19,48 L 51.73,49.34 51.97,43.76 C 51.97,43.76 60.34,36.97 66.28,36.73 Z M 66.28,36.73" />
        <path id="pageHeader3-bezier8" stroke="none" fill="rgb(0, 0, 0)" d="M 96.4,46.86 C 96.4,46.86 101.07,46.97 102.86,43.52 L 102.86,43.53 C 103.08,44.31 103.9,44.77 104.69,44.54 104.72,44.54 104.74,44.53 104.76,44.52 L 104.76,44.52 C 106.71,43.77 107.74,41.62 107.09,39.63 L 107.08,39.61 C 108.04,41.15 108.17,43.06 107.44,44.72 107.42,44.75 105.31,45.86 105.42,47.2 L 96.4,46.86 Z M 96.4,46.86" />
        <path id="pageHeader3-bezier9" stroke="none" fill="rgb(255, 255, 255)" d="M 59.88,44.2 C 59.88,44.2 58.64,41.68 60.88,37.76 60.88,37.76 59.54,41.49 61.36,42.32 L 59.88,44.2 Z M 59.88,44.2" />
        <path id="pageHeader3-bezier10" stroke="none" fill="rgb(255, 255, 255)" d="M 85.43,30.88 L 91.44,27.04 86.24,31.44 85.43,30.88 Z M 85.43,30.88" />
        <path id="pageHeader3-bezier11" stroke="none" fill="rgb(255, 255, 255)" d="M 312.89,28.51 L 312.88,122.28 312.85,122.36 C 313.45,120.71 314.34,119.18 315.46,117.84 L 315.57,33.07 315.63,33.13 C 314.48,31.82 313.58,30.31 312.95,28.68" />
        <path id="pageHeader3-bezier12" stroke="rgb(0, 0, 0)" stroke-width="1.6" stroke-miterlimit="10" fill="none" d="M 312.89,28.51 L 312.88,122.28 312.85,122.36 C 313.45,120.71 314.34,119.18 315.46,117.84 L 315.57,33.07 315.63,33.13 C 314.48,31.82 313.58,30.31 312.95,28.68 L 312.89,28.51 Z M 312.89,28.51" />
        <path id="pageHeader3-bezier13" stroke="none" fill="rgb(255, 255, 255)" d="M 20.88,61.87 L 20.88,109.87 66.32,103.93 66.32,55.93 20.88,61.87 Z M 20.88,61.87" />
        <path id="pageHeader3-bezier14" stroke="rgb(0, 0, 0)" stroke-width="1.76" stroke-miterlimit="10" fill="none" d="M 20.88,61.87 L 20.88,109.87 66.32,103.93 66.32,55.93 20.88,61.87 Z M 20.88,61.87" />
        <path id="pageHeader3-bezier15" stroke="rgb(0, 0, 0)" stroke-width="0.96" stroke-miterlimit="10" fill="none" d="M 21.87,65.08 L 66.32,59.42 M 21.87,106.3 L 66.32,100" />
        <path id="pageHeader3-bezier16" stroke="none" fill="rgb(178, 179, 182)" d="M 66.32,55.93 L 35.32,51.34 35.32,99.34 66.32,103.93 66.32,55.93 Z M 66.32,55.93" />
        <path id="pageHeader3-bezier17" stroke="rgb(0, 0, 0)" stroke-width="1.76" stroke-miterlimit="10" fill="none" d="M 66.32,55.93 L 35.32,51.34 35.32,99.34 66.32,103.93 66.32,55.93 Z M 66.32,55.93" />
        <path id="pageHeader3-bezier18" stroke="none" fill="rgb(255, 255, 255)" d="M 315.69,99.34 C 236.65,113.74 114.36,84.94 35.32,99.34 L 35.32,51.34 C 114.36,36.94 236.65,65.74 315.69,51.34 L 315.69,99.34 Z M 315.69,99.34" />
        <path id="pageHeader3-bezier19" stroke="rgb(0, 0, 0)" stroke-width="0.96" stroke-miterlimit="10" fill="none" d="M 315.69,55.08 C 315.69,55.08 290.25,65.37 169.72,54.71 84.59,47.17 42.08,53.78 35.51,54.93 M 316.81,94.71 C 316.81,94.71 290.57,105.8 170.04,95.13 84.91,87.6 42.4,94.2 35.83,95.35" />
        <path id="pageHeader3-bezier20" stroke="rgb(0, 0, 0)" stroke-width="1.76" stroke-miterlimit="10" fill="none" d="M 315.69,99.34 C 236.65,113.74 114.36,84.94 35.32,99.34 L 35.32,51.34 C 114.36,36.94 236.65,65.74 315.69,51.34 L 315.69,99.34 Z M 315.69,99.34" />
        <path id="pageHeader3-bezier21" stroke="rgb(0, 0, 0)" stroke-width="1.76" stroke-miterlimit="10" fill="none" d="M 717,53.28 L 717,102.1 C 735.64,101.99 738.07,102.1 741.25,97.97 L 741.25,49.97 C 735.28,53.13 729.12,53.23 717,53.28 Z M 717,53.28" />
        <path id="pageHeader3-bezier22" stroke="rgb(0, 0, 0)" stroke-width="0.96" stroke-miterlimit="10" fill="none" d="M 716.99,98.11 C 742.08,100.97 739.95,93.53 741.06,93.31 M 716.22,56.9 C 737,56.84 738.86,55.4 740.74,53.96" />
        <rect id="pageHeader3-rectangle" stroke="none" fill="rgb(220, 221, 222)" x="315.57" y="36.58" width="401.78" height="77.62" />
        <rect id="pageHeader3-rectangle2" stroke="rgb(0, 0, 0)" stroke-width="1.6" stroke-miterlimit="10" fill="none" x="315.57" y="36.58" width="401.78" height="77.62" />
        <path id="pageHeader3-bezier23" stroke="rgb(0, 0, 0)" stroke-width="1.6" stroke-miterlimit="10" fill="none" d="M 315.57,104.11 C 315.57,104.11 316.94,117.33 326.32,117.33 L 354.48,117.33 C 354.48,117.33 363.66,114.2 380.72,114.2 M 315.57,46.68 C 315.57,46.68 316.94,33.45 326.32,33.45 L 354.48,33.45 C 354.48,33.45 363.66,36.58 380.72,36.58" />
        <path id="pageHeader3-bezier24" stroke="rgb(0, 0, 0)" stroke-width="1.6" stroke-miterlimit="10" fill="none" d="M 717.36,104.11 C 717.36,104.11 715.99,117.33 706.6,117.33 L 678.44,117.33 C 678.44,117.33 669.27,114.2 652.2,114.2 M 717.35,46.68 C 717.35,46.68 715.99,33.45 706.6,33.45 L 678.44,33.45 C 678.44,33.45 669.27,36.58 652.2,36.58" />
        <path id="pageHeader3-bezier25" stroke="rgb(0, 0, 0)" stroke-width="0.96" stroke-miterlimit="10" fill="none" d="M 343.6,114.2 C 350.26,113.04 358.28,111.74 365.62,111.74 L 667.3,111.74 C 674.65,111.74 682.67,113.04 689.32,114.2 M 689.32,36.58 C 682.67,37.74 674.65,39.04 667.3,39.04 L 365.62,39.04 C 358.28,39.04 350.26,37.74 343.6,36.58" />
        <path id="pageHeader3-bezier26" stroke="none" fill="rgb(255, 255, 255)" d="M 720.04,28.51 L 720.04,122.28 720.07,122.36 C 719.47,120.71 718.59,119.18 717.46,117.84 L 717.35,33.07 717.3,33.13 C 718.44,31.82 719.35,30.31 719.98,28.68" />
        <path id="pageHeader3-bezier27" stroke="rgb(0, 0, 0)" stroke-width="1.6" stroke-miterlimit="10" fill="none" d="M 720.04,28.51 L 720.04,122.28 720.07,122.36 C 719.47,120.71 718.59,119.18 717.46,117.84 L 717.35,33.07 717.3,33.13 C 718.44,31.82 719.35,30.31 719.98,28.68 L 720.04,28.51 Z M 720.04,28.51" />
        <path id="pageHeader3-bezier28" stroke="none" fill="rgb(255, 255, 255)" d="M 424.96,45.19 L 346.19,45.19 338.08,55.4 338.08,76.64 346.19,86.85 424.96,86.85 433.07,76.64 433.07,55.4 424.96,45.19 Z M 424.96,45.19" />
        <path id="pageHeader3-bezier29" stroke="rgb(0, 0, 0)" stroke-width="1.76" stroke-miterlimit="10" fill="none" d="M 424.96,45.19 L 346.19,45.19 338.08,55.4 338.08,76.64 346.19,86.85 424.96,86.85 433.07,76.64 433.07,55.4 424.96,45.19 Z M 424.96,45.19" />
        <path id="pageHeader3-bezier30" stroke="rgb(0, 0, 0)" stroke-width="0.77" stroke-miterlimit="10" fill="none" d="M 349.12,45.19 L 340.52,55.83 M 340.53,76.21 L 349.12,86.85 M 340.53,52.32 L 340.53,80.13" />
        <circle id="pageHeader3-oval" stroke="none" fill="rgb(0, 0, 0)" cx="340.55" cy="65.99" r="1.2" />
        <circle id="pageHeader3-oval2" stroke="none" fill="rgb(0, 0, 0)" cx="430.65" cy="65.99" r="1.2" />
        <path id="pageHeader3-bezier31" stroke="rgb(0, 0, 0)" stroke-width="0.77" stroke-miterlimit="10" fill="none" d="M 422.03,45.19 L 430.63,55.83 M 430.63,76.21 L 422.03,86.85 M 430.63,52.32 L 430.63,80.13" />
        <path id="pageHeader3-bezier32" stroke="none" fill="rgb(255, 255, 255)" d="M 553.87,45.19 L 475.1,45.19 466.99,55.4 466.99,76.64 475.1,86.85 553.87,86.85 561.98,76.64 561.98,55.4 553.87,45.19 Z M 553.87,45.19" />
        <path id="pageHeader3-bezier33" stroke="rgb(0, 0, 0)" stroke-width="1.76" stroke-miterlimit="10" fill="none" d="M 553.87,45.19 L 475.1,45.19 466.99,55.4 466.99,76.64 475.1,86.85 553.87,86.85 561.98,76.64 561.98,55.4 553.87,45.19 Z M 553.87,45.19" />
        <path id="pageHeader3-bezier34" stroke="rgb(0, 0, 0)" stroke-width="0.77" stroke-miterlimit="10" fill="none" d="M 478.03,45.19 L 469.43,55.83 M 469.44,76.21 L 478.03,86.85 M 469.44,52.32 L 469.44,80.13" />
        <circle id="pageHeader3-oval3" stroke="none" fill="rgb(0, 0, 0)" cx="469.45" cy="65.99" r="1.2" />
        <circle id="pageHeader3-oval4" stroke="none" fill="rgb(0, 0, 0)" cx="559.55" cy="65.99" r="1.2" />
        <path id="pageHeader3-bezier35" stroke="rgb(0, 0, 0)" stroke-width="0.77" stroke-miterlimit="10" fill="none" d="M 550.94,45.19 L 559.54,55.83 M 559.54,76.21 L 550.94,86.85 M 559.54,52.32 L 559.54,80.13" />
        <path id="pageHeader3-bezier36" stroke="none" fill="rgb(255, 255, 255)" d="M 686.73,45.19 L 607.97,45.19 599.85,55.4 599.85,76.64 607.96,86.85 686.74,86.85 694.85,76.64 694.85,55.4 686.73,45.19 Z M 686.73,45.19" />
        <path id="pageHeader3-bezier37" stroke="rgb(0, 0, 0)" stroke-width="1.76" stroke-miterlimit="10" fill="none" d="M 686.73,45.19 L 607.97,45.19 599.85,55.4 599.85,76.64 607.96,86.85 686.74,86.85 694.85,76.64 694.85,55.4 686.73,45.19 Z M 686.73,45.19" />
        <path id="pageHeader3-bezier38" stroke="rgb(0, 0, 0)" stroke-width="0.77" stroke-miterlimit="10" fill="none" d="M 610.89,45.19 L 602.3,55.83 M 602.3,76.21 L 610.89,86.85 M 602.3,52.32 L 602.3,80.13" />
        <circle id="pageHeader3-oval5" stroke="none" fill="rgb(0, 0, 0)" cx="602.3" cy="65.99" r="1.2" />
        <circle id="pageHeader3-oval6" stroke="none" fill="rgb(0, 0, 0)" cx="692.4" cy="65.99" r="1.2" />
        <path id="pageHeader3-bezier39" stroke="rgb(0, 0, 0)" stroke-width="0.77" stroke-miterlimit="10" fill="none" d="M 683.8,45.19 L 692.4,55.83 M 692.4,76.21 L 683.8,86.85 M 692.4,52.32 L 692.4,80.13" />
        <path id="pageHeader3-bezier40" stroke="none" fill="rgb(0, 0, 0)" d="M 279.08,29.19 L 279.08,29.21 C 279.06,30.45 278.04,31.44 276.8,31.42 275.56,31.39 274.58,30.37 274.6,29.13 274.62,27.91 275.62,26.93 276.84,26.93 L 276.83,26.93 C 278.01,26.87 279.02,27.78 279.08,28.96 279.09,29.04 279.09,29.11 279.08,29.19 M 276.84,31 L 276.83,31 C 277.74,31.03 278.51,30.31 278.54,29.39 278.55,29.33 278.54,29.26 278.54,29.19 L 278.54,29.19 C 278.59,28.25 277.87,27.44 276.93,27.4 275.99,27.35 275.19,28.07 275.14,29.01 275.13,29.07 275.13,29.13 275.14,29.19 L 275.14,29.19 C 275.06,30.1 275.74,30.91 276.65,30.99 276.71,31 276.77,31 276.83,31 M 277.39,29.51 C 278.22,29.32 278.05,28.04 277.03,28.04 L 275.93,28.04 275.93,30.35 276.54,30.35 276.54,29.63 276.75,29.63 277.3,30.35 277.96,30.35 277.96,30.21 277.39,29.51 Z M 277.03,28.58 L 277.03,28.58 C 277.18,28.58 277.3,28.69 277.3,28.84 277.31,28.98 277.19,29.11 277.05,29.11 277.04,29.11 277.04,29.11 277.04,29.11 L 276.54,29.11 276.54,28.58 277.03,28.58 Z M 277.03,28.58" />
        <path id="pageHeader3-bezier41" stroke="none" fill="rgb(0, 0, 0)" d="M 226.86,26.02 L 224.35,26.02 224.35,14.51 226.86,14.51 C 230.16,14.51 232.05,16.62 232.05,20.29 232.05,23.93 230.16,26.02 226.86,26.02 Z M 262.17,15.72 L 262.17,15.1 262.13,15.11 C 261.72,15.24 261.33,15.39 260.95,15.58 L 260.99,15.58 C 261.39,15.58 261.79,15.63 262.18,15.72 M 234.68,25.79 L 233.98,26.77 234.23,24.01 234.22,24.04 C 234.45,22.2 235.35,20.51 236.75,19.29 L 236.73,19.27 C 236.52,19.29 236.3,19.33 236.09,19.37 L 233.67,19.87 235.45,18.09 235.4,18.13 C 236.05,17.55 236.78,17.06 237.57,16.67 237.75,16.58 237.84,16.53 237.93,16.48 L 237.96,16.55 C 237.11,13.94 235.28,11.76 232.86,10.48 L 232.75,10.42 C 231.04,9.55 229.14,9.09 227.21,9.09 L 227.28,9.07 222.78,9.07 222.9,9.07 C 220.81,9.18 218.72,9.08 216.65,8.79 L 216.25,8.73 C 215.54,8.54 214.87,8.25 214.25,7.86 L 214,7.69 214.03,8.02 214.03,8.05 C 214.4,9.96 215.55,11.63 217.2,12.66 217.72,13.04 218.11,13.43 218.11,14.85 L 218.11,27.76 C 218.11,29.15 217.84,29.53 217.2,29.92 216.52,30.32 215.07,31.17 215.07,31.17 L 214.57,31.47 226.27,31.47 226.19,31.46 C 228.83,31.65 231.46,30.97 233.68,29.52 L 233.88,29.39 C 234.19,29.17 234.48,28.94 234.77,28.7 L 234.7,28.77 C 234.54,27.8 234.53,26.81 234.67,25.84 M 257.08,26.1 L 257.08,26.1 C 257.22,25.89 257.25,25.62 257.15,25.38 L 256.44,23.41 258.25,24.48 258.23,24.47 C 258.41,24.58 258.57,24.7 258.73,24.84 L 259.83,24.77 259.87,24.76 C 260.65,24.69 261.44,24.8 262.18,25.09 L 262.17,19.43 262.19,19.42 C 261.88,19.52 261.58,19.66 261.31,19.85 L 260.84,20.28 260.35,19.9 260.33,19.89 C 259.94,19.63 259.48,19.49 259.02,19.51 L 259.02,19.51 C 258.18,19.51 257.38,19.86 256.82,20.49 L 256.86,20.45 C 256.53,20.82 256.23,21.21 255.94,21.62 L 255.93,26.12 C 256.38,26.46 256.84,26.45 257.08,26.1 Z M 270.6,10.44 L 270.57,10.42 C 268.86,9.55 266.96,9.09 265.03,9.09 L 265.1,9.07 260.61,9.07 260.72,9.07 C 258.64,9.18 256.54,9.08 254.47,8.79 L 254.07,8.73 C 253.36,8.54 252.69,8.25 252.07,7.86 L 251.82,7.69 251.85,8.02 251.86,8.05 C 252.23,9.96 253.37,11.63 255.02,12.66 255.54,13.04 255.93,13.43 255.93,14.85 L 255.93,15.79 255.86,15.83 C 256.5,15.43 257.19,15.09 257.9,14.81 L 257.96,14.8 C 257.66,15.07 257.39,15.38 257.15,15.7 L 257.18,15.67 C 257.83,15.27 258.55,15.01 259.31,14.9 L 259.31,14.9 C 260.27,14.71 261.26,14.7 262.22,14.87 L 262.17,14.51 264.69,14.51 C 267.98,14.51 269.87,16.62 269.87,20.29 269.87,23.93 267.98,26.02 264.69,26.02 L 263.7,26.02 263.68,26 C 264.57,26.78 265.1,27.9 265.12,29.08 L 265.12,29.08 C 265.12,29.92 264.86,30.73 264.38,31.42 L 264.3,31.46 C 266.91,31.6 269.5,30.88 271.67,29.41 L 271.7,29.4 C 272.62,28.77 273.44,28.01 274.13,27.13 L 274.09,27.18 C 275.61,25.15 276.42,22.68 276.37,20.14 L 276.38,20.19 C 276.45,16.13 274.23,12.37 270.64,10.46" />
        <path id="pageHeader3-bezier42" stroke="none" fill="rgb(0, 0, 0)" d="M 238.44,11.79 L 238.44,11.76 C 238.23,10.12 238.8,8.48 239.96,7.32 L 239.96,7.32 C 241.33,5.95 243.25,5.29 245.17,5.53 248.83,5.72 250.62,8.28 250.62,11.04 L 250.62,11.08 C 250.51,12.66 249.94,14.17 248.99,15.43 248.95,15.36 248.9,15.3 248.84,15.24 248.65,15.06 248.44,14.87 248.22,14.67 L 248.23,14.67 C 247.58,14.13 246.99,13.52 246.49,12.84 247.47,10.93 246.89,8.29 244.73,8.29 L 244.74,8.29 C 243.42,8.36 242.41,9.49 242.48,10.8 242.48,10.86 242.49,10.92 242.5,10.97 L 242.5,10.99 C 242.15,11.85 242.01,12.77 242.07,13.69 L 242.06,13.7 C 241.47,13.39 240.99,12.9 240.69,12.3 L 239.89,10.4 239.27,12.36 239.27,12.35 C 239.12,12.83 239.08,13.34 239.15,13.84 L 239.14,13.86 239.14,13.85 C 238.73,13.22 238.49,12.5 238.44,11.76 M 235.99,18.62 C 237.05,17.56 239.23,16.9 239.38,16.32 239.52,15.75 238.39,14.78 237.97,14.59 L 237.94,14.59 C 238.73,14.53 239.53,14.6 240.29,14.82 L 240.29,14.82 C 239.87,14.15 239.76,13.33 239.99,12.57 240.83,14.62 243.85,14.94 244.6,16.62 L 244.6,16.64 C 244.37,15.78 243.8,15.05 243.03,14.62 L 243.02,14.64 C 242.64,13.4 242.78,12.07 243.41,10.94 243.24,13.83 247.42,15.51 248.28,17.63 247.77,15.81 245.83,14.66 244.91,13.57 L 244.9,13.55 C 244.66,12.76 244.76,11.91 245.17,11.2 245.07,13.16 247.18,14.69 248.31,15.78 249.64,17.07 250.02,18.21 249.84,19.14 L 249.85,19.14 C 250.24,19.23 250.5,19.59 250.47,19.99 L 250.47,19.98 C 250.9,19.84 251.24,19.52 251.43,19.11 L 251.43,19.08 C 251.62,20.44 251.01,21.78 249.86,22.53 L 249.83,22.55 C 249.97,22.13 249.9,21.67 249.64,21.32 249.22,20.8 247.99,20.79 247.58,20.82 247.58,20.82 248.09,20.08 247.89,19.69 247.63,19.22 245.24,19.43 244.18,19.82 L 244.14,19.82 C 244.66,19.79 245.18,19.85 245.68,19.99 245.53,20.25 245.1,21.3 245.41,21.62 245.7,21.91 246.08,21.41 246.08,21.41 246.08,21.41 245.71,22.56 245.98,22.83 246.24,23.09 246.82,22.9 246.82,22.9 L 246.82,22.89 C 246.25,23.84 245.22,24.43 244.1,24.43 L 244.08,24.44 C 244.54,24.21 244.9,23.82 245.1,23.35 L 245.1,23.33 C 244.73,23.47 244.33,23.52 243.94,23.48 L 243.94,23.48 C 244.54,23.06 244.83,22.32 244.67,21.61 244.39,20.3 242.54,20.13 241.61,20.78 L 241.62,20.75 C 241.97,19.87 242.66,19.16 243.53,18.77 L 243.53,18.78 C 243.08,18.63 242.61,18.51 242.14,18.42 L 242.14,18.4 C 242.99,17.86 243.98,17.58 244.99,17.58 L 244.9,17.57 C 243.37,17.27 241.79,17.74 240.66,18.83 L 240.67,18.79 C 241.16,18.83 241.65,18.92 242.13,19.05 L 242.14,19.04 C 240.77,19.4 239.52,20.1 238.48,21.07 L 238.43,21.12 C 238.64,20.52 238.7,19.87 238.61,19.24 238.35,18.57 237.56,18.3 235.99,18.62 Z M 248.02,18.77 L 248.02,18.77 C 247.78,18.11 247.27,17.6 246.62,17.35 246.84,18.09 247.12,18.77 248.02,18.77 Z M 264.36,29.11 L 264.36,29.1 C 264.21,26.95 262.35,25.33 260.2,25.48 260.09,25.49 259.98,25.51 259.86,25.52 L 259.92,25.52 C 260.82,25.71 261.48,26.49 261.53,27.41 261.53,29.06 259.44,29.58 258.28,29.32 259.51,28.46 259.34,26.01 257.87,25.13 L 257.86,25.13 C 258.17,25.88 257.8,26.74 257.05,27.05 256.48,27.28 255.83,27.13 255.41,26.69 254.59,26.01 252.72,24.44 251.88,23.77 251.04,23.1 250.06,23.49 249.67,23.2 249.23,22.86 249.51,21.92 248.91,21.57 248.41,21.28 247.91,21.44 247.32,21.25 L 247.33,21.25 C 246.8,21.13 246.43,20.65 246.46,20.11 L 246.46,20.1 C 246.2,20.61 246.27,21.22 246.63,21.66 247.03,22.12 247.7,22.41 247.97,22.92 248.33,23.58 247.73,24.49 249.32,25.74 250.08,26.34 251.26,27.31 252.02,27.99 253.32,29.12 252.63,30.54 252.8,31.78 L 252.79,31.76 C 252.96,32.91 253.78,33.87 254.89,34.21 L 254.94,34.24 C 254.13,33.37 254.13,32.03 254.94,31.17 L 254.95,31.18 C 255.07,32.88 256.23,34.32 257.87,34.79 L 257.86,34.78 C 259.61,35.22 261.46,34.66 262.66,33.32 L 262.66,33.31 C 261.62,33.59 260.52,33.35 259.69,32.68 L 259.71,32.69 C 261.83,33.1 263.89,31.71 264.3,29.59 264.33,29.43 264.35,29.27 264.36,29.11 M 251.53,28.56 C 250.87,27.98 249.88,27.16 249.14,26.56 248.29,28.01 246.49,29.89 244.67,29.89 241.31,29.89 239.62,25.14 243.39,21.25 L 243.38,21.25 C 243.21,21.2 243.04,21.17 242.86,21.17 L 242.87,21.17 C 242.57,21.17 242.28,21.25 242.03,21.41 L 240.56,22.42 240.89,20.54 240.88,20.55 C 240.92,20.45 240.96,20.34 241.01,20.24 L 240.98,20.25 C 240.25,20.61 239.58,21.07 238.99,21.62 L 237.54,23.22 237.69,20.97 C 237.73,20.8 237.76,20.63 237.8,20.47 L 237.79,20.49 C 237.89,20.17 237.93,19.84 237.91,19.51 L 237.91,19.5 C 237.88,19.45 237.85,19.41 237.8,19.38 L 237.85,19.35 C 236.31,20.46 235.29,22.14 234.99,24.01 L 234.99,24.06 C 235.17,23.81 235.41,23.59 235.68,23.43 235.88,23.36 236.07,23.46 235.86,24.08 235.78,24.32 233.95,29.29 237.56,32.73 237.56,32.73 237.16,31.72 237.4,31.41 237.52,31.27 237.67,31.25 237.88,31.52 238.03,31.72 238.2,31.92 238.37,32.12 L 238.37,32.12 238.36,32.1 C 238.66,32.45 239,32.77 239.36,33.06 L 239.39,33.08 C 240.64,33.95 242.12,34.42 243.64,34.42 248.04,34.42 250.41,31.34 251.72,28.75 L 251.72,28.74 C 251.66,28.68 251.59,28.61 251.53,28.56 Z M 259.22,17.77 C 255.89,17.93 253.03,20.77 251.56,22.76 L 251.58,22.77 C 251.87,22.86 252.14,23.01 252.38,23.2 252.66,23.43 253.11,23.8 253.6,24.21 L 253.58,24.25 C 254.26,22.73 255.14,21.32 256.21,20.05 L 256.26,19.98 C 257.41,18.67 259.34,18.38 260.81,19.3 L 260.79,19.3 C 262.14,18.46 263.75,18.13 265.32,18.38 L 265.39,18.39 C 264.24,17.16 262.65,16.42 260.97,16.33 259.39,16.33 258.5,17.1 258.28,16.75 257.99,16.31 259.34,15.65 259.34,15.65 257.49,15.73 256.14,17.91 255.58,17.64 255.25,17.48 256.08,16.42 256.08,16.42 L 256.09,16.42 C 254.46,17.44 253.25,18.99 252.66,20.8 254.23,18.85 257.26,17.49 259.22,17.77 Z M 259.78,26.26 L 259.78,26.26 C 260.32,26.39 260.72,26.84 260.78,27.38 L 260.78,27.39 C 260.78,27.76 260.57,28.1 260.24,28.27 L 260.26,28.26 C 260.09,28.37 259.9,28.45 259.7,28.51 L 259.72,28.48 C 259.82,28.1 259.87,27.71 259.85,27.31 259.83,26.65 259.78,26.26 259.78,26.26 Z M 259.78,26.26" />
    </g>
</svg>
