<?xml version="1.0" encoding="UTF-8"?>
<!DOCTYPE svg PUBLIC "-//W3C//DTD SVG 1.1//EN" "http://www.w3.org/Graphics/SVG/1.1/DTD/svg11.dtd">
<svg version="1.1" xmlns="http://www.w3.org/2000/svg" xmlns:xlink="http://www.w3.org/1999/xlink" width="745" height="130"  xml:space="preserve" id="pageHeader3">
    <!-- Generated by PaintCode - http://www.paintcodeapp.com -->
    <path id="pageHeader3-bezier" stroke="none" fill="rgb(220, 221, 222)" d="M 428.28,41.05 L 456.54,38.91 421.69,36.28 475.01,32.26 427.53,28.68 493.31,23.71 381.3,15.26 411.39,12.99 356.45,8.84 307.62,12.52 285.67,9.64 339.54,5.57 296.37,2.31 266.28,4.58 231.35,1.95 198.7,4.41 231.87,6.92 195.32,9.68 158.77,6.92 179.96,5.32 154.65,3.41 73.73,9.51 102.4,11.68 11.48,18.54 65.03,22.58 36.77,24.71 71.61,27.34 18.3,31.37 65.78,34.95 0,39.92 90.4,46.74 49.01,49.87 92.7,53.16 104,52.31 136.86,54.79 185.68,51.11 207.62,53.99 150.72,58.28 228.82,64.18 245.9,62.89 215.16,60.57 259.06,57.25 289.83,59.58 309.97,58.06 338.66,60.22 419.57,54.11 390.9,51.95 481.83,45.09 428.28,41.05 Z M 283.36,62.8 L 312.85,65.02 342.34,62.8 312.85,60.57 283.36,62.8 Z M 106.87,54.45 L 136.36,56.68 106.87,58.9 77.39,56.68 106.87,54.45 Z M 106.87,54.45" />
    <path id="pageHeader3-bezier2" stroke="none" fill="rgb(220, 221, 222)" d="M 493.13,107.9 L 516.08,106.17 487.78,104.03 531.09,100.76 492.52,97.85 545.95,93.82 454.96,86.95 479.41,85.1 434.78,81.73 395.12,84.73 377.28,82.38 421.04,79.08 385.97,76.43 361.53,78.28 333.16,76.14 306.64,78.14 333.58,80.18 303.89,82.42 274.21,80.18 291.41,78.88 270.86,77.32 205.13,82.28 228.42,84.04 154.56,89.62 198.06,92.9 175.1,94.63 203.4,96.77 160.1,100.04 198.66,102.95 145.23,106.98 218.66,112.52 185.04,115.06 220.53,117.74 229.71,117.05 256.4,119.06 296.06,116.07 313.88,118.41 267.67,121.9 331.11,126.69 344.98,125.64 320.01,123.76 355.67,121.06 380.66,122.95 397.03,121.72 420.33,123.47 486.06,118.51 462.77,116.76 536.62,111.18 493.13,107.9 Z M 375.41,125.56 L 399.36,127.37 423.32,125.56 399.36,123.76 375.41,125.56 Z M 232.04,118.79 L 256,120.6 232.04,122.4 208.1,120.6 232.04,118.79 Z M 232.04,118.79" />
    <path id="pageHeader3-bezier3" stroke="none" fill="rgb(220, 221, 222)" d="M 701.28,49.01 L 720.21,47.58 696.86,45.82 732.58,43.13 700.77,40.73 744.84,37.4 669.8,31.73 689.96,30.21 653.15,27.43 620.44,29.9 605.73,27.97 641.82,25.25 612.9,23.06 592.74,24.58 569.34,22.82 547.47,24.47 569.69,26.15 545.21,28 520.72,26.15 534.91,25.08 517.96,23.8 463.75,27.89 482.96,29.34 422.04,33.93 457.92,36.64 438.99,38.07 462.33,39.83 426.61,42.53 458.42,44.93 414.35,48.26 474.91,52.83 447.18,54.92 476.46,57.13 484.03,56.56 506.04,58.22 538.75,55.75 553.44,57.68 515.33,60.56 567.65,64.51 579.09,63.65 558.49,62.09 587.91,59.87 608.52,61.43 622.02,60.41 641.23,61.86 695.44,57.77 676.24,56.32 737.15,51.72 701.28,49.01 Z M 604.19,63.58 L 623.94,65.07 643.7,63.58 623.94,62.09 604.19,63.58 Z M 485.95,57.99 L 505.7,59.49 485.95,60.98 466.2,59.49 485.95,57.99 Z M 485.95,57.99" />
    <path id="pageHeader3-bezier4" stroke="none" fill="rgb(255, 255, 255)" d="M 51.23,50.39 L 51.23,34.72 60.91,34.72 C 60.91,34.72 65.77,37.03 73.25,26.43 L 89.48,26.43 95.93,21.88 C 95.93,21.88 101.46,13.99 106.53,13.99 111.6,13.99 131.77,4.77 131.77,4.77 L 153.53,0 179.34,7.53 193.06,13.06 C 193.06,13.06 214.01,20.86 211.13,33.49 211.13,33.49 213.64,22.97 193.06,15.83 193.06,15.83 204.22,23.97 201.92,28.73 201.92,28.73 213.9,36.99 215.74,43.69 215.74,43.69 242.47,51.61 253.06,33.49 253.06,33.49 249.29,42.06 245.69,43.69 245.69,43.69 270.57,58.53 294.54,33.49 294.54,33.49 277.28,48.55 278.41,54.77 L 210.21,52.69 C 210.21,52.69 210.92,22.59 168.4,19.97 125.88,17.36 121.28,38.64 124.73,46.7 L 51.23,50.39 Z M 51.23,50.39" />
    <path id="pageHeader3-bezier5" stroke="none" fill="rgb(255, 255, 255)" d="M 172.48,48.54 C 172.48,48.54 180.26,19.97 206.98,52.69 206.98,52.69 188.34,16.29 168.4,47.62 L 172.48,48.54 Z M 172.48,48.54" />
    <path id="pageHeader3-bezier6" stroke="none" fill="rgb(0, 0, 0)" d="M 197.04,33.64 C 197.32,33.82 197.79,34.16 198.4,34.63 197.55,34 197.04,33.64 197.04,33.64 Z M 222.99,49.04 L 223.07,49.09 C 221.72,48.28 220.32,47.56 218.87,46.95 L 218.88,47.05 C 220.41,50.35 221.6,53.81 222.42,57.36 L 222.34,57.06 C 221.25,53.25 219.66,49.61 217.62,46.21 L 217.76,46.42 C 212.09,43.78 206.66,40.64 201.54,37.06 208.47,42.4 218.3,50.69 217.35,53.93 217.35,53.93 216.86,52.65 215.94,53.06 215.12,53.43 212.44,56.71 209.3,54.97 209.28,55.06 209.25,55.14 209.22,55.23 209.24,55.15 209.27,55.06 209.3,54.97 L 209.3,54.97 C 208.87,54.73 208.48,54.44 208.13,54.1 L 208.08,54.08 C 208.49,54.3 208.91,54.47 209.35,54.61 209.84,52.3 209.14,47.55 198.77,42.24 198.77,42.24 195.26,41.83 195.07,44.64 195.07,44.64 184,38.98 183.36,43.19 182.73,47.41 188.83,48.94 188.83,48.94 L 177.16,49.37 177.15,49.29 C 176.68,45.48 177.71,41.64 180.02,38.58 180.02,38.57 179.83,41.15 182.15,40.41 184.48,39.67 189.53,34.45 188.08,31.2 188.08,31.2 193.25,32.98 196.09,35.51 198.76,37.88 211.65,46.9 209.43,54.63 210.88,55.06 213.13,55.18 213.64,52.11 214.28,48.33 204.4,39.45 199.47,35.48 199.33,35.37 199.19,35.25 199.05,35.14 198.82,34.96 198.6,34.79 198.4,34.63 198.49,34.7 198.59,34.77 198.69,34.85 L 198.91,35.02 C 195.85,32.63 193.14,29.83 190.86,26.69 190.5,26.18 200.58,36.06 213.9,40.88 L 214,41.01 C 210.71,36.94 206.83,33.39 202.49,30.46 L 202.56,30.53 C 202.4,30.9 202.17,31.25 201.9,31.55 L 201.89,31.55 C 202.06,31.13 202.17,30.69 202.22,30.24 191.67,23.15 176.08,17.42 153.08,15.55 153.08,15.55 132.68,15.11 133.78,25.32 133.78,25.32 133.43,28.17 137.79,29.38 L 137.48,29.37 C 135.04,29.28 132.62,28.98 130.23,28.48 130.49,28.53 131.03,27.24 129.8,27.22 128.57,27.19 111.86,38.04 112.66,45.83 112.66,45.83 116.87,45.84 120.8,37.98 120.8,37.98 118.88,43.66 117.8,46.25 117.8,46.25 112.42,48.14 111.23,52.68 L 111.2,52.84 C 110.68,55.08 109.87,57.24 108.79,59.27 108.88,59.11 89.24,75.54 72.19,77.6 72.19,77.6 64.59,78.55 59.26,75.09 L 62.34,74.96 C 62.34,74.96 50.51,73.09 45.48,65.73 40.44,58.38 35.12,42.56 36.96,32.54 36.96,32.54 38.1,41.67 41.55,46.65 41.55,46.65 44.86,17.4 69.56,0.67 69.56,0.67 62.84,8.72 62.99,12.05 62.99,12.05 60.33,11.35 57.22,17.4 54.11,23.45 54.4,33.98 62.76,32.93 71.13,31.89 73.13,23.14 71.77,18.42 71.77,18.42 73.23,22.17 76.65,21.08 L 76.78,21.03 C 79.21,20.1 81.45,18.73 83.38,16.99 83.25,17.1 81.29,24.58 94.31,21.38 L 90.57,20.93 C 90.57,20.93 109.43,6.6 120.33,2.22 L 119.77,2.54 C 114.68,5.48 109.8,8.78 105.16,12.4 105.16,12.4 134.72,-5.14 164.48,1.5 165.32,1.69 166.12,1.91 166.94,2.11 L 166.84,2.06 C 166.84,2.06 167.08,2.13 167.52,2.26 168.31,2.46 169.08,2.67 169.84,2.89 174.86,4.19 184.91,6.48 190.03,5.33 190.03,5.33 185.64,6.92 186.21,8.44 186.78,9.95 195.92,13.19 195.92,13.19 195.92,13.19 193.27,13.97 195.73,16.45 L 195.68,16.43 C 199.84,20.26 202.25,24.06 202.83,27.08 L 202.68,26.96 C 207.72,30.89 212.06,35.63 215.54,40.99 226.79,44.98 239.53,44.7 250.64,33.09 250.64,33.09 245.06,40.59 245.49,42.16 245.92,43.73 249.78,43.95 249.78,43.95 L 250.89,46.26 C 250.89,46.26 241.57,41.49 232.86,47.11 232.86,47.11 233.53,48.77 238.41,47.81 238.41,47.81 237.67,48.37 234.59,48.87 231.51,49.37 228.89,49.81 232.61,53.53 L 233.02,53.62 C 229.37,52.84 225.77,51.84 222.24,50.63 221.77,50.47 224.43,50.37 222.99,49.04 Z M 102.54,16.96 L 103.41,17.42 103.9,18.28 104.36,17.4 105.22,16.91 104.35,16.45 103.86,15.59 103.4,16.47 102.54,16.96 Z M 104.1,19.21 L 104.1,19.21 C 103.64,19.22 103.27,19.6 103.28,20.06 103.29,20.52 103.67,20.89 104.13,20.88 104.59,20.87 104.96,20.49 104.95,20.03 L 104.95,20.03 C 104.94,19.57 104.56,19.2 104.1,19.21 M 101.49,21.76 L 101.49,21.76 C 101.5,22.07 101.75,22.32 102.06,22.31 102.37,22.31 102.62,22.05 102.61,21.74 102.6,21.43 102.35,21.19 102.04,21.19 L 102.04,21.19 102.04,21.19 C 101.73,21.2 101.49,21.45 101.49,21.76 101.49,21.76 101.49,21.77 101.49,21.77 M 99.8,20.11 L 99.8,20.12 C 99.8,20.58 100.18,20.94 100.65,20.94 101.11,20.93 101.47,20.55 101.47,20.09 101.46,19.62 101.08,19.26 100.62,19.27 L 100.62,19.27 100.62,19.27 C 100.16,19.27 99.79,19.65 99.8,20.12 M 95.95,23.38 L 95.95,23.38 C 95.95,23.69 96.2,23.94 96.51,23.93 96.82,23.92 97.07,23.67 97.06,23.36 97.05,23.06 96.8,22.81 96.49,22.82 L 96.49,22.82 96.49,22.82 C 96.19,22.82 95.94,23.07 95.95,23.38 M 98.67,57.87 C 91.27,66.05 84.38,62.83 84.38,62.83 91.31,69.03 98.67,57.87 98.67,57.87 Z M 105.95,29.31 C 107.36,27.91 116.1,19.28 116.1,19.28 116.1,19.28 106.4,26.54 100.1,27.41 97.31,27.8 91.92,27.44 85.43,28.25 81.44,30.25 75.37,33.13 75.13,32.32 74.98,31.84 75.5,31.03 76.19,30.22 L 76.24,30.21 C 69.75,32.19 63.83,35.68 58.95,40.39 58.7,40.64 55.61,42.6 56.37,43.03 57.12,43.46 57.88,43.9 57.88,43.9 57.88,43.9 53.99,46.48 55.07,48.1 56.15,49.72 65.46,42.78 65.46,42.78 L 65.13,43.13 C 62.82,45.6 60.31,47.87 57.61,49.9 L 57.94,49.65 C 55.34,51.48 54.23,54.78 55.21,57.81 55.24,57.9 56.49,63.06 62.82,61.64 L 62.43,60.97 61.21,60.32 62.41,59.64 63.06,58.42 63.74,59.62 64.96,60.26 63.76,60.94 63.48,61.47 C 63.84,61.37 64.2,61.26 64.59,61.12 72.47,58.21 82.22,60.5 86.37,61.39 90.51,62.27 95.71,56.19 98.28,50.08 98.28,50.08 99.53,50.28 101.2,48.14 101.2,48.14 99.86,51.47 100.72,52.76 101.58,54.06 103.57,53.11 103.98,52.18 L 103.05,50.37 103.08,50.35 C 105.27,49.03 107.03,47.11 108.15,44.82 110.11,40.89 108.2,36.83 106.68,35.18 L 106.75,35.25 C 107.46,35.91 108.12,36.62 108.71,37.39 108.71,37.39 109.59,30.35 113.32,27.25 113.32,27.25 106.49,31.52 105.41,32.01 104.33,32.49 104.55,30.71 105.95,29.31 Z M 174.62,9.71 C 174.62,9.71 160.71,2.82 138.58,4.86 L 138.56,4.87 C 135.06,7.6 130.85,9.26 126.44,9.65 126.39,9.65 111.7,14.9 104.43,22.27 104.43,22.27 107.73,19.29 110.95,20.22 110.95,20.22 142.07,-3.56 174.62,9.71 Z M 161.43,13.03 L 160.83,12.72 160.49,12.12 160.17,12.73 159.57,13.06 160.18,13.38 160.52,13.98 160.84,13.37 161.43,13.03 Z M 164.58,12.24 L 163.97,11.92 163.63,11.33 163.32,11.93 162.72,12.27 163.33,12.59 163.66,13.19 163.98,12.58 164.58,12.24 Z M 167.83,12.47 L 167.83,12.47 C 167.83,12.08 167.51,11.77 167.12,11.78 166.74,11.79 166.43,12.11 166.44,12.49 166.45,12.88 166.76,13.18 167.15,13.18 L 167.15,13.18 C 167.53,13.17 167.84,12.85 167.83,12.47 L 167.83,12.47 Z M 171.08,14.78 L 171.08,14.79 C 171.07,14.4 170.75,14.09 170.37,14.1 169.98,14.11 169.68,14.42 169.68,14.81 169.69,15.19 170.01,15.5 170.39,15.49 L 170.39,15.49 C 170.78,15.49 171.08,15.17 171.08,14.79 L 171.08,14.79 M 172.59,13.23 L 172.59,13.23 C 172.58,12.84 172.26,12.54 171.88,12.54 171.49,12.55 171.19,12.87 171.19,13.25 171.2,13.64 171.52,13.94 171.9,13.94 L 171.9,13.94 C 172.29,13.93 172.59,13.61 172.59,13.23 L 172.59,13.23 Z M 179.18,15.91 L 179.18,15.91 C 179.18,15.68 178.98,15.49 178.75,15.5 178.52,15.5 178.34,15.69 178.34,15.92 178.35,16.15 178.54,16.34 178.77,16.33 L 178.77,16.33 C 179,16.33 179.18,16.14 179.18,15.91 L 179.18,15.91 M 180.59,17 L 180.59,17 C 180.59,16.85 180.46,16.72 180.31,16.73 180.15,16.73 180.03,16.86 180.03,17.01 180.04,17.17 180.16,17.29 180.32,17.29 L 180.32,17.29 C 180.47,17.28 180.59,17.16 180.59,17 L 180.59,17 Z M 201.83,26.28 C 199.86,20.34 190.56,11.06 152.97,7.67 L 153.26,7.7 C 161.02,8.66 168.67,10.42 176.06,12.97 L 175.1,12.64 C 174.73,13.48 175.1,14.46 175.94,14.83 176.16,14.93 176.4,14.98 176.65,14.97 L 176.64,14.97 C 177.39,14.96 178.04,14.45 178.22,13.72 L 177.79,13.57 C 186.05,16.41 193.84,20.47 200.9,25.6 M 181.6,22.06 L 181.17,22.87 180.37,23.33 181.18,23.75 181.63,24.55 182.06,23.74 182.86,23.28 182.05,22.85 181.6,22.06 Z M 184.33,27.02 L 184.92,25.9 186.02,25.28 184.9,24.69 184.28,23.59 183.69,24.71 182.59,25.33 183.71,25.92 184.33,27.02 Z M 226.2,41.69 L 226.89,40.38 228.17,39.65 226.86,38.97 226.13,37.68 225.45,38.99 224.16,39.72 225.47,40.4 226.2,41.69 Z M 230.25,39.26 L 230.76,38.28 231.72,37.74 230.74,37.22 230.2,36.26 229.69,37.24 228.72,37.79 229.7,38.3 230.25,39.26 Z M 231.09,40.91 L 231.53,41.14 231.77,41.57 232,41.13 232.43,40.88 231.99,40.65 231.75,40.23 231.52,40.66 231.09,40.91 Z M 235.12,42.03 L 235.47,41.38 236.11,41.01 235.46,40.67 235.09,40.03 234.75,40.68 234.11,41.05 234.76,41.39 235.12,42.03 Z M 241.94,38.27 L 242.63,36.97 243.91,36.24 242.61,35.55 241.88,34.27 241.19,35.58 239.91,36.3 241.21,36.99 241.94,38.27 Z M 250.33,40.18 L 250.06,40.69 249.56,40.98 250.07,41.25 250.36,41.76 250.63,41.24 251.13,40.96 250.62,40.69 250.33,40.18 Z M 216.25,35.4 L 216.7,34.54 217.54,34.06 216.68,33.61 216.2,32.77 215.75,33.63 214.91,34.11 215.77,34.56 216.25,35.4 Z M 117.37,47.02 L 116.8,48.11 115.74,48.71 116.82,49.28 117.43,50.35 118,49.26 119.06,48.66 117.98,48.09 117.37,47.02 Z M 121.25,45.53 L 120.89,46.21 120.22,46.59 120.9,46.96 121.29,47.63 121.65,46.94 122.32,46.56 121.64,46.2 121.25,45.53 Z M 124.66,49.24 L 124.25,50.01 123.49,50.44 124.26,50.85 124.7,51.62 125.1,50.84 125.87,50.41 125.09,50 124.66,49.24 Z M 209.17,55.36 L 209.15,55.4 C 209.04,55.65 208.92,55.9 208.78,56.14 L 208.8,56.1 C 208.96,55.86 209.08,55.61 209.18,55.34 M 209.22,55.23 C 209.21,55.24 209.21,55.25 209.21,55.25 L 209.21,55.25 C 209.21,55.24 209.21,55.24 209.22,55.23 M 209.21,55.25 C 209.19,55.29 209.18,55.33 209.17,55.36 209.18,55.33 209.19,55.29 209.21,55.25 Z M 305.32,13.66 C 305.32,13.66 308.28,23.42 306.76,30.46 306.76,30.46 306.89,23.91 304.34,25.59 301.8,27.27 291.43,36.55 299.45,41.09 299.45,41.09 281.47,41.61 280.25,53.08 280.25,53.08 276.18,52.23 270.44,51.44 L 270.56,51.36 C 269.72,51.95 268.83,52.47 267.92,52.92 256.98,58.14 229.85,63.92 237.66,52.95 234.08,54.96 232.46,58.23 234.39,63.4 234.39,63.4 228.14,52.52 244.44,49.22 244.44,49.22 240.68,47.64 242.76,46.21 242.76,46.21 257.93,51.71 271.66,49.04 273.06,47.23 272.78,45.19 269.81,42.97 269.81,42.97 274.42,45.42 272.91,48.77 L 272.82,48.79 C 276.57,47.99 280.1,46.38 283.17,44.08 283.38,43.92 278.49,45.4 276.17,45.9 L 276.37,45.82 C 279.94,44.3 283.32,42.35 286.43,40.01 L 285.62,39.71 283.84,38.77 285.58,37.78 286.52,36 287.51,37.75 288.61,38.33 288.94,38.07 C 296.89,31.62 302.68,22.89 305.5,13.04 M 268.99,51.25 C 260.87,50.21 250.08,49.42 242.55,51.16 240.72,52.05 237.62,53.97 239.18,56.31 240.66,58.53 260.75,56.18 268.99,51.25 Z M 310.14,22.73 L 309.67,23.62 308.8,24.12 309.69,24.58 310.18,25.46 310.65,24.57 311.52,24.07 310.63,23.6 310.14,22.73 Z M 312.92,21.28 L 312.69,21.72 312.27,21.96 312.7,22.18 312.94,22.61 313.17,22.18 313.59,21.94 313.16,21.71 312.92,21.28 Z M 310.06,17.67 L 309.38,18.97 308.11,19.69 309.4,20.37 310.12,21.64 310.8,20.35 312.07,19.62 310.78,18.94 310.06,17.67 Z M 316.04,15.41 L 315.61,14.66 315.21,15.42 314.47,15.85 315.23,16.25 315.65,16.99 316.05,16.23 316.8,15.81 316.04,15.41 Z M 288.39,36.13 L 288.79,35.36 289.54,34.94 288.78,34.54 288.35,33.79 287.95,34.55 287.21,34.98 287.97,35.38 288.39,36.13 Z M 285.08,33.95 L 285.44,33.27 286.11,32.89 285.43,32.53 285.05,31.86 284.69,32.55 284.02,32.93 284.7,33.29 285.08,33.95 Z M 284.18,35.84 L 284.18,35.85 C 284.19,36.17 284.45,36.43 284.78,36.42 285.1,36.41 285.35,36.15 285.35,35.83 285.34,35.5 285.08,35.25 284.75,35.25 L 284.75,35.25 284.75,35.25 C 284.43,35.26 284.17,35.52 284.18,35.84 Z M 288.67,31.68 L 288.67,31.68 C 289.38,31.67 289.95,31.08 289.93,30.38 289.92,29.67 289.34,29.1 288.63,29.11 287.92,29.13 287.35,29.71 287.37,30.42 L 287.37,30.42 C 287.38,31.13 287.96,31.69 288.67,31.68 Z M 293.27,26.94 L 293.27,26.94 C 293.59,26.93 293.85,26.66 293.84,26.34 293.84,26.02 293.57,25.76 293.25,25.77 292.92,25.77 292.67,26.04 292.67,26.36 L 292.67,26.36 C 292.68,26.68 292.94,26.94 293.27,26.94 Z M 255.65,48.8 L 255.65,48.8 C 256.3,48.79 256.81,48.26 256.8,47.62 256.79,46.97 256.26,46.46 255.61,46.47 254.97,46.48 254.45,47.01 254.46,47.66 L 254.46,47.66 C 254.48,48.3 255.01,48.82 255.65,48.8 M 259.93,45.93 L 259.93,45.93 C 260.25,45.92 260.5,45.66 260.5,45.34 260.49,45.01 260.23,44.76 259.91,44.76 259.58,44.77 259.33,45.04 259.33,45.36 L 259.33,45.36 C 259.34,45.68 259.61,45.94 259.93,45.93 Z M 252.66,51.89 L 252.66,51.89 C 252.67,52.28 252.99,52.59 253.38,52.58 253.76,52.57 254.07,52.25 254.06,51.87 254.06,51.48 253.74,51.17 253.35,51.18 L 253.35,51.18 253.35,51.18 C 252.96,51.18 252.66,51.5 252.66,51.89 Z M 66.12,58.15 L 65.93,58.52 65.57,58.72 65.93,58.91 66.14,59.27 66.33,58.9 66.69,58.7 66.32,58.51 66.12,58.15 Z M 66.51,56.28 L 66.25,56.77 65.77,57.04 66.26,57.3 66.53,57.78 66.79,57.29 67.27,57.02 66.78,56.76 66.51,56.28 Z M 64.12,55.09 L 63.77,55.74 63.13,56.11 63.79,56.45 64.15,57.1 64.49,56.44 65.14,56.08 64.48,55.73 64.12,55.09 Z M 95.36,38.83 L 95.16,39.22 94.78,39.43 95.16,39.64 95.38,40.01 95.58,39.63 95.96,39.41 95.57,39.21 95.36,38.83 Z M 99.19,34.73 L 98.66,35.75 97.66,36.32 98.68,36.85 99.25,37.85 99.78,36.83 100.78,36.27 99.76,35.73 99.19,34.73 Z M 71.08,54.72 L 70.7,55.45 69.98,55.86 70.71,56.25 71.12,56.97 71.5,56.23 72.22,55.82 71.49,55.44 71.08,54.72 Z M 96.73,37.52 L 96.52,37.93 96.12,38.15 96.52,38.37 96.75,38.77 96.96,38.36 97.36,38.14 96.96,37.92 96.73,37.52 Z M 222.43,57.38 L 222.37,57.14 C 223.48,61.94 224,66.86 223.91,71.78 L 223.89,72.07 C 224.31,67.21 223.84,62.31 222.5,57.62" />
    <path id="pageHeader3-bezier7" stroke="none" fill="rgb(0, 0, 0)" d="M 66.28,34.1 C 66.28,34.1 57.91,40.04 60.22,42.1 62.52,44.16 66.16,40.28 66.16,40.28 66.16,40.28 65.07,43.07 66.16,43.44 67.25,43.8 71.25,39.44 77.92,41.38 77.92,41.38 71.86,41.62 73.19,45.38 L 51.73,46.71 51.97,41.13 C 51.97,41.13 60.34,34.34 66.28,34.1 Z M 66.28,34.1" />
    <path id="pageHeader3-bezier8" stroke="none" fill="rgb(0, 0, 0)" d="M 96.4,44.24 C 96.4,44.24 101.07,44.35 102.86,40.9 L 102.86,40.9 C 103.08,41.69 103.9,42.14 104.69,41.92 104.72,41.91 104.74,41.9 104.76,41.89 L 104.76,41.89 C 106.71,41.14 107.74,38.99 107.09,37 L 107.08,36.98 C 108.04,38.52 108.17,40.43 107.44,42.09 107.42,42.12 105.31,43.23 105.42,44.57 L 96.4,44.24 Z M 96.4,44.24" />
    <path id="pageHeader3-bezier9" stroke="none" fill="rgb(255, 255, 255)" d="M 59.88,41.58 C 59.88,41.58 58.64,39.05 60.88,35.13 60.88,35.13 59.54,38.86 61.36,39.69 L 59.88,41.58 Z M 59.88,41.58" />
    <path id="pageHeader3-bezier10" stroke="none" fill="rgb(255, 255, 255)" d="M 85.43,28.25 L 91.44,24.41 86.24,28.81 85.43,28.25 Z M 85.43,28.25" />
    <path id="pageHeader3-bezier11" stroke="none" fill="rgb(255, 255, 255)" d="M 312.89,25.88 L 312.88,119.65 312.85,119.73 C 313.45,118.08 314.34,116.55 315.46,115.21 L 315.57,30.44 315.63,30.51 C 314.48,29.19 313.58,27.68 312.95,26.05" />
    <path id="pageHeader3-bezier12" stroke="rgb(0, 0, 0)" stroke-width="1.6" stroke-miterlimit="10" fill="none" d="M 312.89,25.88 L 312.88,119.65 312.85,119.73 C 313.45,118.08 314.34,116.55 315.46,115.21 L 315.57,30.44 315.63,30.51 C 314.48,29.19 313.58,27.68 312.95,26.05 L 312.89,25.88 Z M 312.89,25.88" />
    <path id="pageHeader3-bezier13" stroke="none" fill="rgb(255, 255, 255)" d="M 20.88,59.24 L 20.88,107.24 66.32,101.3 66.32,53.3 20.88,59.24 Z M 20.88,59.24" />
    <path id="pageHeader3-bezier14" stroke="rgb(0, 0, 0)" stroke-width="1.76" stroke-miterlimit="10" fill="none" d="M 20.88,59.24 L 20.88,107.24 66.32,101.3 66.32,53.3 20.88,59.24 Z M 20.88,59.24" />
    <path id="pageHeader3-bezier15" stroke="rgb(0, 0, 0)" stroke-width="0.96" stroke-miterlimit="10" fill="none" d="M 21.87,62.45 L 66.32,56.8 M 21.87,103.68 L 66.32,97.37" />
    <path id="pageHeader3-bezier16" stroke="none" fill="rgb(178, 179, 182)" d="M 66.32,53.3 L 35.32,48.72 35.32,96.72 66.32,101.3 66.32,53.3 Z M 66.32,53.3" />
    <path id="pageHeader3-bezier17" stroke="rgb(0, 0, 0)" stroke-width="1.76" stroke-miterlimit="10" fill="none" d="M 66.32,53.3 L 35.32,48.72 35.32,96.72 66.32,101.3 66.32,53.3 Z M 66.32,53.3" />
    <path id="pageHeader3-bezier18" stroke="none" fill="rgb(255, 255, 255)" d="M 315.69,96.72 C 236.65,111.12 114.36,82.32 35.32,96.72 L 35.32,48.72 C 114.36,34.32 236.65,63.12 315.69,48.72 L 315.69,96.72 Z M 315.69,96.72" />
    <path id="pageHeader3-bezier19" stroke="rgb(0, 0, 0)" stroke-width="0.96" stroke-miterlimit="10" fill="none" d="M 315.69,52.46 C 315.69,52.46 290.25,62.75 169.72,52.08 84.59,44.55 42.08,51.15 35.51,52.3 M 316.81,92.08 C 316.81,92.08 290.57,103.17 170.04,92.51 84.91,84.97 42.4,91.58 35.83,92.73" />
    <path id="pageHeader3-bezier20" stroke="rgb(0, 0, 0)" stroke-width="1.76" stroke-miterlimit="10" fill="none" d="M 315.69,96.72 C 236.65,111.12 114.36,82.32 35.32,96.72 L 35.32,48.72 C 114.36,34.32 236.65,63.12 315.69,48.72 L 315.69,96.72 Z M 315.69,96.72" />
    <path id="pageHeader3-bezier21" stroke="rgb(0, 0, 0)" stroke-width="1.76" stroke-miterlimit="10" fill="none" d="M 717,50.65 L 717,99.47 C 735.64,99.36 738.07,99.47 741.25,95.34 L 741.25,47.34 C 735.28,50.51 729.12,50.6 717,50.65 Z M 717,50.65" />
    <path id="pageHeader3-bezier22" stroke="rgb(0, 0, 0)" stroke-width="0.96" stroke-miterlimit="10" fill="none" d="M 716.99,95.48 C 742.08,98.34 739.95,90.9 741.06,90.68 M 716.22,54.28 C 737,54.21 738.86,52.77 740.74,51.33" />
    <rect id="pageHeader3-rectangle" stroke="none" fill="rgb(220, 221, 222)" x="315.57" y="33.95" width="401.78" height="77.62" />
    <rect id="pageHeader3-rectangle2" stroke="rgb(0, 0, 0)" stroke-width="1.6" stroke-miterlimit="10" fill="none" x="315.57" y="33.95" width="401.78" height="77.62" />
    <path id="pageHeader3-bezier23" stroke="rgb(0, 0, 0)" stroke-width="1.6" stroke-miterlimit="10" fill="none" d="M 315.57,101.48 C 315.57,101.48 316.94,114.71 326.32,114.71 L 354.48,114.71 C 354.48,114.71 363.66,111.58 380.72,111.58 M 315.57,44.05 C 315.57,44.05 316.94,30.82 326.32,30.82 L 354.48,30.82 C 354.48,30.82 363.66,33.95 380.72,33.95" />
    <path id="pageHeader3-bezier24" stroke="rgb(0, 0, 0)" stroke-width="1.6" stroke-miterlimit="10" fill="none" d="M 717.36,101.48 C 717.36,101.48 715.99,114.71 706.6,114.71 L 678.44,114.71 C 678.44,114.71 669.27,111.58 652.2,111.58 M 717.35,44.05 C 717.35,44.05 715.99,30.82 706.6,30.82 L 678.44,30.82 C 678.44,30.82 669.27,33.95 652.2,33.95" />
    <path id="pageHeader3-bezier25" stroke="rgb(0, 0, 0)" stroke-width="0.96" stroke-miterlimit="10" fill="none" d="M 343.6,111.58 C 350.26,110.41 358.28,109.12 365.62,109.12 L 667.3,109.12 C 674.65,109.12 682.67,110.41 689.32,111.58 M 689.32,33.96 C 682.67,35.12 674.65,36.42 667.3,36.42 L 365.62,36.42 C 358.28,36.42 350.26,35.12 343.6,33.96" />
    <path id="pageHeader3-bezier26" stroke="none" fill="rgb(255, 255, 255)" d="M 720.04,25.88 L 720.04,119.65 720.07,119.73 C 719.47,118.08 718.59,116.55 717.46,115.21 L 717.35,30.44 717.3,30.51 C 718.44,29.19 719.35,27.68 719.98,26.05" />
    <path id="pageHeader3-bezier27" stroke="rgb(0, 0, 0)" stroke-width="1.6" stroke-miterlimit="10" fill="none" d="M 720.04,25.88 L 720.04,119.65 720.07,119.73 C 719.47,118.08 718.59,116.55 717.46,115.21 L 717.35,30.44 717.3,30.51 C 718.44,29.19 719.35,27.68 719.98,26.05 L 720.04,25.88 Z M 720.04,25.88" />
    <path id="pageHeader3-bezier28" stroke="none" fill="rgb(255, 255, 255)" d="M 424.96,42.56 L 346.19,42.56 338.08,52.78 338.08,74.02 346.19,84.23 424.96,84.23 433.07,74.02 433.07,52.78 424.96,42.56 Z M 424.96,42.56" />
    <path id="pageHeader3-bezier29" stroke="rgb(0, 0, 0)" stroke-width="1.76" stroke-miterlimit="10" fill="none" d="M 424.96,42.56 L 346.19,42.56 338.08,52.78 338.08,74.02 346.19,84.23 424.96,84.23 433.07,74.02 433.07,52.78 424.96,42.56 Z M 424.96,42.56" />
    <path id="pageHeader3-bezier30" stroke="rgb(0, 0, 0)" stroke-width="0.77" stroke-miterlimit="10" fill="none" d="M 349.12,42.56 L 340.52,53.21 M 340.53,73.59 L 349.12,84.23 M 340.53,49.7 L 340.53,77.5" />
    <circle id="pageHeader3-oval" stroke="none" fill="rgb(0, 0, 0)" cx="340.55" cy="63.37" r="1.2" />
    <circle id="pageHeader3-oval2" stroke="none" fill="rgb(0, 0, 0)" cx="430.65" cy="63.37" r="1.2" />
    <path id="pageHeader3-bezier31" stroke="rgb(0, 0, 0)" stroke-width="0.77" stroke-miterlimit="10" fill="none" d="M 422.03,42.56 L 430.63,53.21 M 430.63,73.59 L 422.03,84.23 M 430.63,49.7 L 430.63,77.5" />
    <path id="pageHeader3-bezier32" stroke="none" fill="rgb(255, 255, 255)" d="M 553.87,42.56 L 475.1,42.56 466.99,52.78 466.99,74.02 475.1,84.23 553.87,84.23 561.98,74.02 561.98,52.78 553.87,42.56 Z M 553.87,42.56" />
    <path id="pageHeader3-bezier33" stroke="rgb(0, 0, 0)" stroke-width="1.76" stroke-miterlimit="10" fill="none" d="M 553.87,42.56 L 475.1,42.56 466.99,52.78 466.99,74.02 475.1,84.23 553.87,84.23 561.98,74.02 561.98,52.78 553.87,42.56 Z M 553.87,42.56" />
    <path id="pageHeader3-bezier34" stroke="rgb(0, 0, 0)" stroke-width="0.77" stroke-miterlimit="10" fill="none" d="M 478.03,42.56 L 469.43,53.21 M 469.44,73.59 L 478.03,84.23 M 469.44,49.7 L 469.44,77.5" />
    <circle id="pageHeader3-oval3" stroke="none" fill="rgb(0, 0, 0)" cx="469.45" cy="63.37" r="1.2" />
    <circle id="pageHeader3-oval4" stroke="none" fill="rgb(0, 0, 0)" cx="559.55" cy="63.37" r="1.2" />
    <path id="pageHeader3-bezier35" stroke="rgb(0, 0, 0)" stroke-width="0.77" stroke-miterlimit="10" fill="none" d="M 550.94,42.56 L 559.54,53.21 M 559.54,73.59 L 550.94,84.23 M 559.54,49.7 L 559.54,77.5" />
    <path id="pageHeader3-bezier36" stroke="none" fill="rgb(255, 255, 255)" d="M 686.73,42.56 L 607.97,42.56 599.85,52.78 599.85,74.02 607.96,84.23 686.74,84.23 694.85,74.02 694.85,52.78 686.73,42.56 Z M 686.73,42.56" />
    <path id="pageHeader3-bezier37" stroke="rgb(0, 0, 0)" stroke-width="1.76" stroke-miterlimit="10" fill="none" d="M 686.73,42.56 L 607.97,42.56 599.85,52.78 599.85,74.02 607.96,84.23 686.74,84.23 694.85,74.02 694.85,52.78 686.73,42.56 Z M 686.73,42.56" />
    <path id="pageHeader3-bezier38" stroke="rgb(0, 0, 0)" stroke-width="0.77" stroke-miterlimit="10" fill="none" d="M 610.89,42.56 L 602.3,53.21 M 602.3,73.59 L 610.89,84.23 M 602.3,49.7 L 602.3,77.5" />
    <circle id="pageHeader3-oval5" stroke="none" fill="rgb(0, 0, 0)" cx="602.3" cy="63.37" r="1.2" />
    <circle id="pageHeader3-oval6" stroke="none" fill="rgb(0, 0, 0)" cx="692.4" cy="63.37" r="1.2" />
    <path id="pageHeader3-bezier39" stroke="rgb(0, 0, 0)" stroke-width="0.77" stroke-miterlimit="10" fill="none" d="M 683.8,42.56 L 692.4,53.21 M 692.4,73.59 L 683.8,84.23 M 692.4,49.7 L 692.4,77.5" />
    <path id="pageHeader3-bezier40" stroke="none" fill="rgb(0, 0, 0)" d="M 279.08,26.57 L 279.08,26.58 C 279.06,27.82 278.04,28.81 276.8,28.79 275.56,28.77 274.58,27.74 274.6,26.51 274.62,25.28 275.62,24.3 276.84,24.3 L 276.83,24.3 C 278.01,24.24 279.02,25.15 279.08,26.34 279.09,26.41 279.09,26.49 279.08,26.56 M 276.84,28.37 L 276.83,28.37 C 277.74,28.4 278.51,27.68 278.54,26.77 278.55,26.7 278.54,26.63 278.54,26.56 L 278.54,26.56 C 278.59,25.62 277.87,24.82 276.93,24.77 275.99,24.72 275.19,25.44 275.14,26.38 275.13,26.44 275.13,26.5 275.14,26.56 L 275.14,26.56 C 275.06,27.47 275.74,28.28 276.65,28.36 276.71,28.37 276.77,28.37 276.83,28.37 M 277.39,26.88 C 278.22,26.69 278.05,25.41 277.03,25.41 L 275.93,25.41 275.93,27.72 276.54,27.72 276.54,27 276.75,27 277.3,27.72 277.96,27.72 277.96,27.59 277.39,26.88 Z M 277.03,25.96 L 277.03,25.96 C 277.18,25.95 277.3,26.06 277.3,26.21 277.31,26.36 277.19,26.48 277.05,26.48 277.04,26.48 277.04,26.48 277.04,26.48 L 276.54,26.48 276.54,25.96 277.03,25.96 Z M 277.03,25.96" />
    <path id="pageHeader3-bezier41" stroke="none" fill="rgb(0, 0, 0)" d="M 226.86,23.4 L 224.35,23.4 224.35,11.88 226.86,11.88 C 230.16,11.88 232.05,13.99 232.05,17.66 232.05,21.31 230.16,23.4 226.86,23.4 Z M 262.17,13.09 L 262.17,12.47 262.13,12.49 C 261.72,12.61 261.33,12.77 260.95,12.95 L 260.99,12.95 C 261.39,12.96 261.79,13 262.18,13.09 M 234.68,23.17 L 233.98,24.14 234.23,21.39 234.22,21.41 C 234.45,19.57 235.35,17.88 236.75,16.67 L 236.73,16.65 C 236.52,16.67 236.3,16.7 236.09,16.75 L 233.67,17.25 235.45,15.46 235.4,15.51 C 236.05,14.92 236.78,14.43 237.57,14.05 237.75,13.95 237.84,13.9 237.93,13.85 L 237.96,13.92 C 237.11,11.32 235.28,9.14 232.86,7.85 L 232.75,7.79 C 231.04,6.92 229.14,6.46 227.21,6.46 L 227.28,6.45 222.78,6.45 222.9,6.44 C 220.81,6.55 218.72,6.46 216.65,6.17 L 216.25,6.1 C 215.54,5.91 214.87,5.62 214.25,5.23 L 214,5.07 214.03,5.39 214.03,5.42 C 214.4,7.33 215.55,9 217.2,10.04 217.72,10.41 218.11,10.81 218.11,12.22 L 218.11,25.14 C 218.11,26.52 217.84,26.9 217.2,27.29 216.52,27.7 215.07,28.55 215.07,28.55 L 214.57,28.84 226.27,28.84 226.19,28.83 C 228.83,29.02 231.46,28.34 233.68,26.9 L 233.88,26.76 C 234.19,26.55 234.48,26.32 234.77,26.07 L 234.7,26.14 C 234.54,25.17 234.53,24.18 234.67,23.21 M 257.08,23.48 L 257.08,23.48 C 257.22,23.26 257.25,22.99 257.15,22.76 L 256.44,20.78 258.25,21.86 258.23,21.84 C 258.41,21.95 258.57,22.08 258.73,22.22 L 259.83,22.14 259.87,22.14 C 260.65,22.07 261.44,22.18 262.18,22.46 L 262.17,16.8 262.19,16.8 C 261.88,16.89 261.58,17.03 261.31,17.23 L 260.84,17.65 260.35,17.27 260.33,17.26 C 259.94,17 259.48,16.87 259.02,16.88 L 259.02,16.88 C 258.18,16.88 257.38,17.24 256.82,17.86 L 256.86,17.82 C 256.53,18.2 256.23,18.59 255.94,18.99 L 255.93,23.49 C 256.38,23.83 256.84,23.82 257.08,23.48 Z M 270.6,7.81 L 270.57,7.79 C 268.86,6.92 266.96,6.46 265.03,6.46 L 265.1,6.45 260.61,6.45 260.72,6.44 C 258.64,6.55 256.54,6.46 254.47,6.17 L 254.07,6.1 C 253.36,5.91 252.69,5.62 252.07,5.23 L 251.82,5.07 251.85,5.39 251.86,5.42 C 252.23,7.33 253.37,9 255.02,10.03 255.54,10.41 255.93,10.81 255.93,12.22 L 255.93,13.16 255.86,13.2 C 256.5,12.8 257.19,12.46 257.9,12.19 L 257.96,12.18 C 257.66,12.45 257.39,12.75 257.15,13.08 L 257.18,13.05 C 257.83,12.64 258.55,12.38 259.31,12.27 L 259.31,12.27 C 260.27,12.09 261.26,12.08 262.22,12.25 L 262.17,11.88 264.69,11.88 C 267.98,11.88 269.87,13.99 269.87,17.66 269.87,21.31 267.98,23.4 264.69,23.4 L 263.7,23.4 263.68,23.38 C 264.57,24.15 265.1,25.27 265.12,26.46 L 265.12,26.46 C 265.12,27.29 264.86,28.11 264.38,28.79 L 264.3,28.83 C 266.91,28.97 269.5,28.25 271.67,26.79 L 271.7,26.77 C 272.62,26.14 273.44,25.38 274.13,24.5 L 274.09,24.55 C 275.61,22.53 276.42,20.05 276.37,17.51 L 276.38,17.56 C 276.45,13.5 274.23,9.74 270.64,7.83" />
    <path id="pageHeader3-bezier42" stroke="none" fill="rgb(0, 0, 0)" d="M 238.44,9.16 L 238.44,9.13 C 238.23,7.49 238.8,5.86 239.96,4.69 L 239.96,4.69 C 241.33,3.33 243.25,2.66 245.17,2.9 248.83,3.09 250.62,5.65 250.62,8.41 L 250.62,8.45 C 250.51,10.03 249.94,11.54 248.99,12.81 248.95,12.73 248.9,12.67 248.84,12.62 248.65,12.44 248.44,12.24 248.22,12.04 L 248.23,12.05 C 247.58,11.5 246.99,10.89 246.49,10.21 247.47,8.3 246.89,5.67 244.73,5.67 L 244.74,5.67 C 243.42,5.74 242.41,6.86 242.48,8.18 242.48,8.23 242.49,8.29 242.5,8.34 L 242.5,8.36 C 242.15,9.22 242.01,10.14 242.07,11.07 L 242.06,11.07 C 241.47,10.76 240.99,10.27 240.69,9.68 L 239.89,7.77 239.27,9.73 239.27,9.73 C 239.12,10.21 239.08,10.72 239.15,11.22 L 239.14,11.23 239.14,11.22 C 238.73,10.6 238.49,9.88 238.44,9.13 M 235.99,16 C 237.05,14.93 239.23,14.27 239.38,13.69 239.52,13.12 238.39,12.15 237.97,11.97 L 237.94,11.97 C 238.73,11.9 239.53,11.98 240.29,12.19 L 240.29,12.19 C 239.87,11.52 239.76,10.7 239.99,9.94 240.83,11.99 243.85,12.32 244.6,14 L 244.6,14.01 C 244.37,13.15 243.8,12.42 243.03,11.99 L 243.02,12.01 C 242.64,10.78 242.78,9.44 243.41,8.32 243.24,11.21 247.42,12.88 248.28,15 247.77,13.19 245.83,12.03 244.91,10.94 L 244.9,10.92 C 244.66,10.13 244.76,9.28 245.17,8.57 245.07,10.53 247.18,12.06 248.31,13.16 249.64,14.44 250.02,15.58 249.84,16.52 L 249.85,16.52 C 250.24,16.6 250.5,16.96 250.47,17.36 L 250.47,17.36 C 250.9,17.21 251.24,16.89 251.43,16.48 L 251.43,16.45 C 251.62,17.81 251.01,19.16 249.86,19.9 L 249.83,19.92 C 249.97,19.51 249.9,19.05 249.64,18.69 249.22,18.17 247.99,18.17 247.58,18.2 247.58,18.2 248.09,17.45 247.89,17.07 247.63,16.59 245.24,16.8 244.18,17.19 L 244.14,17.19 C 244.66,17.16 245.18,17.22 245.68,17.37 245.53,17.62 245.1,18.67 245.41,18.99 245.7,19.28 246.08,18.78 246.08,18.78 246.08,18.78 245.71,19.93 245.98,20.2 246.24,20.47 246.82,20.27 246.82,20.27 L 246.82,20.26 C 246.25,21.22 245.22,21.8 244.1,21.8 L 244.08,21.81 C 244.54,21.58 244.9,21.2 245.1,20.72 L 245.1,20.7 C 244.73,20.84 244.33,20.89 243.94,20.86 L 243.94,20.85 C 244.54,20.43 244.83,19.7 244.67,18.98 244.39,17.68 242.54,17.51 241.61,18.15 L 241.62,18.12 C 241.97,17.24 242.66,16.53 243.53,16.15 L 243.53,16.16 C 243.08,16 242.61,15.88 242.14,15.8 L 242.14,15.77 C 242.99,15.23 243.98,14.95 244.99,14.95 L 244.9,14.94 C 243.37,14.64 241.79,15.11 240.66,16.2 L 240.67,16.17 C 241.16,16.2 241.65,16.29 242.13,16.43 L 242.14,16.41 C 240.77,16.78 239.52,17.47 238.48,18.44 L 238.43,18.5 C 238.64,17.89 238.7,17.25 238.61,16.61 238.35,15.95 237.56,15.67 235.99,16 Z M 248.02,16.14 L 248.02,16.14 C 247.78,15.49 247.27,14.97 246.62,14.72 246.84,15.46 247.12,16.14 248.02,16.14 Z M 264.36,26.49 L 264.36,26.47 C 264.21,24.33 262.35,22.71 260.2,22.86 260.09,22.87 259.98,22.88 259.86,22.9 L 259.92,22.89 C 260.82,23.08 261.48,23.86 261.53,24.78 261.53,26.43 259.44,26.95 258.28,26.69 259.51,25.84 259.34,23.38 257.87,22.51 L 257.86,22.5 C 258.17,23.26 257.8,24.12 257.05,24.42 256.48,24.65 255.83,24.51 255.41,24.06 254.59,23.38 252.72,21.82 251.88,21.14 251.04,20.47 250.06,20.86 249.67,20.57 249.23,20.23 249.51,19.29 248.91,18.94 248.41,18.65 247.91,18.81 247.32,18.62 L 247.33,18.62 C 246.8,18.51 246.43,18.03 246.46,17.49 L 246.46,17.47 C 246.2,17.98 246.27,18.59 246.63,19.03 247.03,19.49 247.7,19.78 247.97,20.29 248.33,20.95 247.73,21.87 249.32,23.11 250.08,23.71 251.26,24.69 252.02,25.36 253.32,26.5 252.63,27.91 252.8,29.15 L 252.79,29.13 C 252.96,30.29 253.78,31.25 254.89,31.59 L 254.94,31.61 C 254.13,30.74 254.13,29.4 254.94,28.54 L 254.95,28.55 C 255.07,30.25 256.23,31.69 257.87,32.16 L 257.86,32.16 C 259.61,32.59 261.46,32.03 262.66,30.69 L 262.66,30.68 C 261.62,30.96 260.52,30.72 259.69,30.05 L 259.71,30.06 C 261.83,30.47 263.89,29.09 264.3,26.96 264.33,26.8 264.35,26.65 264.36,26.49 M 251.53,25.93 C 250.87,25.35 249.88,24.53 249.14,23.94 248.29,25.38 246.49,27.27 244.67,27.27 241.31,27.27 239.62,22.51 243.39,18.62 L 243.38,18.62 C 243.21,18.57 243.04,18.54 242.86,18.54 L 242.87,18.54 C 242.57,18.54 242.28,18.62 242.03,18.78 L 240.56,19.8 240.89,17.91 240.88,17.93 C 240.92,17.82 240.96,17.71 241.01,17.61 L 240.98,17.63 C 240.25,17.98 239.58,18.44 238.99,18.99 L 237.54,20.59 237.69,18.35 C 237.73,18.17 237.76,18 237.8,17.84 L 237.79,17.86 C 237.89,17.55 237.93,17.22 237.91,16.89 L 237.91,16.87 C 237.88,16.83 237.85,16.78 237.8,16.76 L 237.85,16.72 C 236.31,17.84 235.29,19.51 234.99,21.38 L 234.99,21.44 C 235.17,21.18 235.41,20.96 235.68,20.8 235.88,20.73 236.07,20.84 235.86,21.45 235.78,21.7 233.95,26.67 237.56,30.11 237.56,30.11 237.16,29.09 237.4,28.79 237.52,28.64 237.67,28.63 237.88,28.89 238.03,29.1 238.2,29.3 238.37,29.49 L 238.37,29.5 238.36,29.48 C 238.66,29.83 239,30.15 239.36,30.43 L 239.39,30.45 C 240.64,31.33 242.12,31.79 243.64,31.79 248.04,31.79 250.41,28.71 251.72,26.13 L 251.72,26.12 C 251.66,26.05 251.59,25.99 251.53,25.93 Z M 259.22,15.15 C 255.89,15.31 253.03,18.14 251.56,20.14 L 251.58,20.14 C 251.87,20.24 252.14,20.38 252.38,20.58 252.66,20.8 253.11,21.18 253.6,21.58 L 253.58,21.62 C 254.26,20.11 255.14,18.69 256.21,17.42 L 256.26,17.35 C 257.41,16.04 259.34,15.75 260.81,16.67 L 260.79,16.67 C 262.14,15.83 263.75,15.5 265.32,15.75 L 265.39,15.76 C 264.24,14.53 262.65,13.79 260.97,13.7 259.39,13.7 258.5,14.47 258.28,14.13 257.99,13.68 259.34,13.03 259.34,13.03 257.49,13.1 256.14,15.28 255.58,15.01 255.25,14.85 256.08,13.8 256.08,13.8 L 256.09,13.8 C 254.46,14.81 253.25,16.36 252.66,18.18 254.23,16.22 257.26,14.86 259.22,15.15 Z M 259.78,23.63 L 259.78,23.63 C 260.32,23.76 260.72,24.21 260.78,24.76 L 260.78,24.76 C 260.78,25.13 260.57,25.47 260.24,25.65 L 260.26,25.64 C 260.09,25.74 259.9,25.83 259.71,25.88 L 259.72,25.85 C 259.82,25.47 259.87,25.08 259.85,24.69 259.83,24.02 259.78,23.63 259.78,23.63 Z M 259.78,23.63" />
</svg>
