<?xml version="1.0" encoding="UTF-8"?>
<!DOCTYPE svg PUBLIC "-//W3C//DTD SVG 1.1//EN" "http://www.w3.org/Graphics/SVG/1.1/DTD/svg11.dtd">
<svg version="1.1" xmlns="http://www.w3.org/2000/svg" xmlns:xlink="http://www.w3.org/1999/xlink" width="744" height="127"  xml:space="preserve" id="pageHeader1">
    <!-- Generated by PaintCode - http://www.paintcodeapp.com -->
    <path id="pageHeader1-bezier" stroke="none" fill="rgb(220, 221, 222)" d="M 427.79,40.34 L 456.02,38.21 421.22,35.58 474.47,31.55 427.04,27.97 492.74,23.01 380.87,14.55 410.93,12.28 356.04,8.13 307.27,11.82 285.34,8.93 339.15,4.87 296.03,1.61 265.98,3.88 231.08,1.24 198.47,3.71 231.61,6.21 195.1,8.97 158.59,6.21 179.75,4.61 154.47,2.7 73.65,8.81 102.29,10.97 11.47,17.83 64.95,21.88 36.73,24.01 71.53,26.64 18.28,30.66 65.7,34.25 0,39.21 90.29,46.04 48.95,49.16 92.59,52.46 103.88,51.6 136.7,54.09 185.47,50.4 207.38,53.28 150.55,57.58 228.56,63.47 245.62,62.18 214.91,59.86 258.76,56.55 289.5,58.87 309.62,57.35 338.27,59.51 419.1,53.41 390.46,51.24 481.28,44.38 427.79,40.34 Z M 283.04,62.09 L 312.49,64.31 341.95,62.09 312.49,59.86 283.04,62.09 Z M 106.75,53.74 L 136.2,55.97 106.75,58.2 77.3,55.97 106.75,53.74 Z M 106.75,53.74" />
    <path id="pageHeader1-bezier2" stroke="none" fill="rgb(220, 221, 222)" d="M 492.57,107.19 L 515.49,105.46 487.22,103.32 530.48,100.06 491.96,97.14 545.33,93.11 454.45,86.24 478.87,84.4 434.28,81.03 394.67,84.02 376.85,81.68 420.56,78.38 385.53,75.73 361.12,77.57 332.78,75.43 306.29,77.43 333.2,79.47 303.55,81.71 273.89,79.47 291.08,78.17 270.55,76.62 204.89,81.58 228.16,83.34 154.38,88.91 197.83,92.19 174.9,93.92 203.17,96.06 159.92,99.33 198.44,102.24 145.07,106.27 218.41,111.82 184.83,114.36 220.28,117.03 229.45,116.34 256.11,118.36 295.73,115.36 313.52,117.71 267.36,121.19 330.73,125.98 344.59,124.94 319.64,123.05 355.26,120.36 380.23,122.24 396.57,121.01 419.85,122.77 485.5,117.81 462.24,116.05 536.01,110.48 492.57,107.19 Z M 374.98,124.86 L 398.91,126.67 422.83,124.86 398.91,123.05 374.98,124.86 Z M 231.78,118.08 L 255.71,119.89 231.78,121.7 207.86,119.89 231.78,118.08 Z M 231.78,118.08" />
    <path id="pageHeader1-bezier3" stroke="none" fill="rgb(220, 221, 222)" d="M 700.48,48.31 L 719.39,46.88 696.07,45.12 731.75,42.42 699.98,40.02 743.99,36.69 669.04,31.03 689.18,29.51 652.41,26.73 619.74,29.2 605.04,27.26 641.1,24.54 612.2,22.36 592.07,23.88 568.69,22.11 546.84,23.76 569.04,25.44 544.58,27.29 520.13,25.44 534.3,24.37 517.37,23.09 463.22,27.18 482.41,28.63 421.56,33.23 457.4,35.94 438.49,37.37 461.8,39.13 426.13,41.82 457.9,44.22 413.88,47.55 474.37,52.12 446.68,54.22 475.91,56.42 483.47,55.85 505.46,57.52 538.13,55.05 552.81,56.98 514.74,59.86 567.01,63.8 578.43,62.94 557.86,61.38 587.24,59.16 607.83,60.72 621.31,59.7 640.5,61.15 694.65,57.06 675.47,55.61 736.31,51.02 700.48,48.31 Z M 603.5,62.88 L 623.23,64.37 642.97,62.88 623.23,61.38 603.5,62.88 Z M 485.4,57.29 L 505.13,58.78 485.4,60.27 465.67,58.78 485.4,57.29 Z M 485.4,57.29" />
    <path id="pageHeader1-bezier4" stroke="none" fill="rgb(0, 0, 0)" d="M 92.55,6.36 L 92.55,6.37 C 92.26,9.07 92.36,11.8 92.83,14.48 L 93.06,14.64 C 91.23,13.32 89.35,12.09 87.4,10.96 85.64,9.97 84.19,7.83 83.29,6.26 82.68,5.17 82.32,4.36 82.32,4.36 L 82.28,4.42 C 79.97,6.97 79.45,10.68 80.96,13.77 74.71,12.31 70.83,13.91 70.83,13.91 82.58,21.61 76.33,22.23 69.55,25.45 62.78,28.66 62.28,32.65 62.28,32.65 70.38,29.99 73.6,33.4 73.6,33.4 69.24,37.57 73.13,44.08 73.13,44.08 77.37,52.2 87.87,55.65 97.26,57.08 L 97.9,57.17 C 103.59,57.97 109.35,58.22 115.09,57.92 L 93.39,64.59 74.17,69.44 C 74.17,69.44 55.08,67.39 48.07,51.24 41.07,35.07 53.31,22.35 52.08,21.52 50.91,20.72 49.43,22.49 49.27,22.68 54.6,7.44 70.64,7.6 71.28,5.99 71.93,4.36 68.11,4.26 68.11,4.26 84.33,-1.08 92.55,6.36 92.55,6.36 Z M 92.55,6.36" />
    <path id="pageHeader1-bezier5" stroke="none" fill="rgb(255, 255, 255)" d="M 716.15,49.94 L 716.15,98.76 C 734.8,98.66 737.22,98.76 740.4,94.63 L 740.4,46.63 C 734.44,49.8 728.28,49.9 716.15,49.94 Z M 716.15,49.94" />
    <path id="pageHeader1-bezier6" stroke="rgb(0, 0, 0)" stroke-width="1.76" stroke-miterlimit="10" fill="none" d="M 716.15,49.94 L 716.15,98.76 C 734.8,98.66 737.22,98.76 740.4,94.63 L 740.4,46.63 C 734.44,49.8 728.27,49.89 716.15,49.94 Z M 716.15,49.94" />
    <path id="pageHeader1-bezier7" stroke="rgb(0, 0, 0)" stroke-width="0.96" stroke-miterlimit="10" fill="none" d="M 716.15,94.78 C 741.24,97.63 739.1,90.2 740.22,89.97 M 715.38,53.57 C 736.16,53.5 738.01,52.07 739.9,50.62" />
    <path id="pageHeader1-bezier8" stroke="none" fill="rgb(255, 255, 255)" d="M 234.07,89.55 C 234.06,89.57 234.05,89.58 234.04,89.6 L 234.04,89.6 C 233.93,89.99 234,90.41 234.22,90.75 234.5,91.17 241.17,100.92 249.87,100.92 L 249.8,100.92 C 251.81,100.92 253.8,100.4 255.56,99.43 256.35,98.93 257.07,98.45 257.7,98.01 L 257.82,97.93 C 261.59,95.48 265.11,92.68 268.35,89.56 L 234.07,89.55 Z M 234.07,89.55" />
    <path id="pageHeader1-bezier9" stroke="none" fill="rgb(255, 255, 255)" d="M 20.03,58.53 L 20.03,106.53 65.47,100.6 65.47,52.6 20.03,58.53 Z M 20.03,58.53" />
    <path id="pageHeader1-bezier10" stroke="rgb(0, 0, 0)" stroke-width="1.76" stroke-miterlimit="10" fill="none" d="M 20.03,58.53 L 20.03,106.53 65.47,100.6 65.47,52.6 20.03,58.53 Z M 20.03,58.53" />
    <path id="pageHeader1-bezier11" stroke="rgb(0, 0, 0)" stroke-width="0.96" stroke-miterlimit="10" fill="none" d="M 21.03,61.75 L 65.47,56.09 M 21.03,102.97 L 65.47,96.67" />
    <path id="pageHeader1-bezier12" stroke="none" fill="rgb(178, 179, 182)" d="M 65.47,52.6 L 34.47,48.01 34.47,96.01 65.47,100.6 65.47,52.6 Z M 65.47,52.6" />
    <path id="pageHeader1-bezier13" stroke="rgb(0, 0, 0)" stroke-width="1.76" stroke-miterlimit="10" fill="none" d="M 65.47,52.6 L 34.47,48.01 34.47,96.01 65.47,100.6 65.47,52.6 Z M 65.47,52.6" />
    <path id="pageHeader1-bezier14" stroke="none" fill="rgb(255, 255, 255)" d="M 314.84,96.01 C 235.8,110.41 113.52,81.61 34.47,96.01 L 34.47,48.01 C 113.52,33.61 235.8,62.41 314.84,48.01 L 314.84,96.01 Z M 314.84,96.01" />
    <path id="pageHeader1-bezier15" stroke="rgb(0, 0, 0)" stroke-width="1.76" stroke-miterlimit="10" fill="none" d="M 314.84,96.01 C 235.8,110.41 113.52,81.61 34.47,96.01 L 34.47,48.01 C 113.52,33.61 235.8,62.41 314.84,48.01 L 314.84,96.01 Z M 314.84,96.01" />
    <path id="pageHeader1-bezier16" stroke="rgb(0, 0, 0)" stroke-width="0.96" stroke-miterlimit="10" fill="none" d="M 314.84,51.75 C 314.84,51.75 289.41,62.04 168.88,51.37 83.74,43.84 41.24,50.44 34.66,51.59 M 315.97,91.37 C 315.97,91.37 289.73,102.47 169.2,91.8 84.06,84.27 41.56,90.87 34.98,92.02" />
    <rect id="pageHeader1-rectangle" stroke="none" fill="rgb(255, 255, 255)" x="314.72" y="33.25" width="401.78" height="77.62" />
    <rect id="pageHeader1-rectangle2" stroke="rgb(0, 0, 0)" stroke-width="1.6" stroke-miterlimit="10" fill="none" x="314.72" y="33.25" width="401.78" height="77.62" />
    <path id="pageHeader1-bezier17" stroke="none" fill="rgb(255, 255, 255)" d="M 312.04,25.17 L 312.04,118.94 312.01,119.03 C 312.61,117.38 313.49,115.85 314.62,114.5 L 314.72,29.73 314.78,29.8 C 313.64,28.48 312.73,26.97 312.1,25.35" />
    <path id="pageHeader1-bezier18" stroke="rgb(0, 0, 0)" stroke-width="1.6" stroke-miterlimit="10" fill="none" d="M 312.04,25.17 L 312.04,118.94 312.01,119.03 C 312.61,117.38 313.49,115.85 314.62,114.5 L 314.72,29.73 314.78,29.8 C 313.63,28.48 312.73,26.97 312.1,25.34 L 312.04,25.17 Z M 312.04,25.17" />
    <path id="pageHeader1-bezier19" stroke="rgb(0, 0, 0)" stroke-width="1.6" stroke-miterlimit="10" fill="none" d="M 314.72,100.77 C 314.72,100.77 316.09,114 325.48,114 L 353.64,114 C 353.64,114 362.81,110.87 379.88,110.87 M 314.72,43.34 C 314.72,43.34 316.09,30.12 325.48,30.12 L 353.64,30.12 C 353.64,30.12 362.81,33.25 379.88,33.25" />
    <path id="pageHeader1-bezier20" stroke="none" fill="rgb(255, 255, 255)" d="M 719.19,25.17 L 719.19,118.94 719.22,119.03 C 718.62,117.38 717.74,115.85 716.61,114.5 L 716.51,29.73 716.45,29.8 C 717.6,28.48 718.5,26.97 719.13,25.34" />
    <path id="pageHeader1-bezier21" stroke="rgb(0, 0, 0)" stroke-width="1.6" stroke-miterlimit="10" fill="none" d="M 719.19,25.17 L 719.19,118.94 719.22,119.03 C 718.62,117.38 717.74,115.85 716.61,114.5 L 716.51,29.73 716.45,29.8 C 717.6,28.48 718.5,26.97 719.13,25.34 L 719.19,25.17 Z M 719.19,25.17" />
    <path id="pageHeader1-bezier22" stroke="rgb(0, 0, 0)" stroke-width="1.6" stroke-miterlimit="10" fill="none" d="M 716.51,100.77 C 716.51,100.77 715.14,114 705.76,114 L 677.6,114 C 677.6,114 668.42,110.87 651.36,110.87 M 716.51,43.34 C 716.51,43.34 715.14,30.12 705.75,30.12 L 677.59,30.12 C 677.59,30.12 668.42,33.25 651.35,33.25" />
    <path id="pageHeader1-bezier23" stroke="rgb(0, 0, 0)" stroke-width="0.96" stroke-miterlimit="10" fill="none" d="M 342.75,110.87 C 349.41,109.71 357.43,108.41 364.78,108.41 L 666.45,108.41 C 673.8,108.41 681.82,109.71 688.48,110.87 M 688.48,33.25 C 681.82,34.41 673.8,35.71 666.45,35.71 L 364.78,35.71 C 357.43,35.71 349.41,34.41 342.75,33.25" />
    <path id="pageHeader1-bezier24" stroke="none" fill="rgb(255, 255, 255)" d="M 108.75,26.65 L 108.78,26.66 C 111.38,27.77 113.38,29.94 114.25,32.63 110.6,32.51 109.52,29.7 108.75,26.65 Z M 108.75,26.65" />
    <path id="pageHeader1-bezier25" stroke="none" fill="rgb(0, 0, 0)" d="M 308.83,102.45 C 308.01,98.01 304.87,90.77 298.81,86.96 293.79,83.81 289.41,84.49 289.39,82.92 289.36,80.94 294.98,81.55 294.98,81.55 288.92,78.08 280.22,82.33 278.98,80.34 278.25,79.15 283.02,77.48 283.02,77.48 275.63,77.2 266.91,81.01 263.41,84.47 272.23,81.51 284.65,83.21 290.35,88.09 L 290.37,88.1 C 287.97,86.77 285.36,85.82 282.66,85.29 272.62,83.28 261.48,86.25 254.77,89.04 L 254.72,89.06 C 250.04,90.67 245.57,92.81 241.38,95.43 236.43,98.3 227.2,101.01 220.94,98.36 L 220.94,98.37 C 220.94,98.37 230.74,114.69 242.78,109.01 243.66,108.52 244.51,108.01 245.3,107.52 L 245.18,107.59 C 249.72,104.97 254,101.91 257.96,98.47 L 258.16,98.24 C 263.64,94.4 269.67,91.39 276.03,89.33 L 276.34,89.23 C 278.18,88.66 280.13,88.51 282.04,88.78 286.83,89.43 290.98,92.48 292.34,96.13 296.01,95.49 305.33,98.56 308.83,102.45 Z M 308.83,102.45" />
    <path id="pageHeader1-bezier26" stroke="none" fill="rgb(0, 0, 0)" d="M 100.27,43.88 C 99.26,38.43 91.73,37.49 87.85,40 L 87.82,40.07 C 89.34,36.49 92.19,33.65 95.76,32.13 L 95.67,32 C 93.7,31.28 91.67,30.72 89.61,30.32 92.64,28.53 98.75,27.1 101.84,27.37 L 101.81,27.36 C 101.19,27.18 100.56,27.05 99.92,26.97 L 100.59,23.44 C 100.24,20.47 97.55,17.06 94.35,15.01 92.77,10.47 94.32,2.2 96.51,-0 95.4,11.89 112.2,19.24 115.46,28.01 113.62,20.52 105.85,15.58 102.21,11.02 101.06,8.03 102.17,3.07 103.57,1.4 102.93,9.37 111.35,15.87 115.82,20.48 121.09,25.89 122.49,30.59 121.63,34.37 L 121.65,34.37 C 123.23,34.77 124.27,36.28 124.07,37.9 L 124.07,37.88 C 125.86,37.33 127.33,36.05 128.12,34.35 128.79,40.35 125.1,46.5 121.15,48.26 L 121.14,48.26 C 121.78,46.6 121.57,44.74 120.58,43.27 118.87,41.05 113.89,40.87 112.2,40.93 112.2,40.93 114.36,37.94 113.58,36.36 112.63,34.41 102.85,34.96 98.44,36.4 L 98.45,36.4 C 100.53,36.37 102.61,36.68 104.6,37.32 103.93,38.34 102.01,42.57 103.26,43.9 104.32,45.04 105.82,43.35 106.01,43.14 105.87,43.55 104.4,47.82 105.41,48.9 106.46,50.02 108.83,49.32 108.83,49.32 107.26,52.95 101.51,55.32 97.54,55.19 L 97.48,55.22 C 99.38,54.38 100.9,52.86 101.74,50.96 L 101.76,50.85 C 100.21,51.35 98.58,51.51 96.97,51.31 98.27,50.83 100.95,47.62 100.27,43.88 Z M 114.25,32.61 L 114.25,32.63 C 113.38,29.94 111.38,27.76 108.78,26.66 109.52,29.7 110.6,32.51 114.25,32.61 Z M 114.25,32.61" />
    <path id="pageHeader1-bezier27" stroke="none" fill="rgb(0, 0, 0)" d="M 79.33,21.53 C 79.98,19.23 75.5,15.12 73.81,14.32 80.13,14.26 83.24,15.54 83.24,15.54 L 83.21,15.47 C 81.6,12.69 81.28,9.34 82.32,6.3 85.47,14.77 97.75,16.49 100.59,23.44 L 100,26.98 C 95.15,26.36 87.99,27.8 84.38,31.81 L 84.47,31.82 C 86.46,32.03 88.43,32.44 90.33,33.06 84.67,33.82 77.14,38.63 74.88,40.95 75.55,37.82 76.51,35.2 75.83,33.29 74.87,30.6 71.67,29.38 65.21,30.52 69.68,26.3 78.65,23.89 79.33,21.53 Z M 79.33,21.53" />
    <path id="pageHeader1-bezier28" stroke="none" fill="rgb(0, 0, 0)" d="M 43.45,42.67 L 44.75,45.51 C 43,45.81 41.03,52.73 41.03,52.73 36.56,50.15 40.33,41.88 40.33,41.88 L 43.45,42.67 Z M 43.45,42.67" />
    <path id="pageHeader1-bezier29" stroke="none" fill="rgb(0, 0, 0)" d="M 33.69,41.49 L 33.8,41.42 C 34.93,40.6 36.16,39.93 37.47,39.43 L 39.29,41.31 38.24,41.63 C 38.24,41.63 36.28,48.03 37.07,50.68 L 38.35,54.4 C 38.35,54.4 34.18,53.56 33.54,51.96 33.54,51.96 32.2,44.76 33.69,41.49 Z M 33.69,41.49" />
    <path id="pageHeader1-bezier30" stroke="none" fill="rgb(0, 0, 0)" d="M 31.34,44.21 C 31.34,44.21 31.61,52.42 32.45,53.15 L 35.55,54.47 35.64,57.27 C 35.64,57.27 30.11,55.52 29.65,53.41 29.19,51.3 28.83,46.05 28.83,46.05 L 28.83,46.05 C 29.45,45.2 30.31,44.56 31.3,44.22" />
    <path id="pageHeader1-bezier31" stroke="none" fill="rgb(0, 0, 0)" d="M 308.23,24.2 L 308.23,24.18 C 308.26,25.88 306.9,27.29 305.2,27.32 303.49,27.35 302.09,25.99 302.06,24.28 302.06,24.27 302.06,24.25 302.06,24.23 L 302.06,24.22 C 302.03,22.52 303.39,21.11 305.09,21.08 306.79,21.05 308.2,22.41 308.23,24.12 308.23,24.13 308.23,24.15 308.23,24.17 M 305.14,26.68 L 305.13,26.68 C 306.38,26.72 307.44,25.74 307.48,24.48 307.49,24.39 307.49,24.29 307.48,24.2 L 307.48,24.19 C 307.55,22.9 306.55,21.8 305.26,21.73 303.97,21.66 302.87,22.65 302.8,23.94 302.8,24.04 302.8,24.13 302.8,24.23 L 302.8,24.19 C 302.69,25.45 303.62,26.56 304.88,26.67 304.96,26.68 305.04,26.68 305.12,26.68 M 305.89,24.64 C 307.04,24.38 306.81,22.61 305.4,22.61 L 303.89,22.61 303.89,25.79 304.73,25.79 304.73,24.8 305.03,24.8 305.78,25.79 306.68,25.79 306.68,25.6 305.89,24.64 Z M 305.4,23.36 L 305.41,23.36 C 305.61,23.36 305.77,23.52 305.78,23.72 305.78,23.92 305.62,24.09 305.42,24.09 305.41,24.09 305.41,24.09 305.4,24.09 L 304.73,24.09 304.73,23.36 305.4,23.36 Z M 305.4,23.36" />
    <path id="pageHeader1-bezier32" stroke="none" fill="rgb(0, 0, 0)" d="M 229.2,31.92 L 229.2,31.92 C 229.1,33.35 227.86,34.42 226.43,34.32 226.33,34.31 226.22,34.3 226.12,34.28 L 226.1,34.27 C 226.65,34.72 227.38,34.88 228.07,34.69 L 228.07,34.7 C 227.27,35.58 226.05,35.96 224.9,35.67 L 224.9,35.67 C 223.82,35.36 223.05,34.41 222.97,33.28 L 222.96,33.27 C 222.43,33.85 222.43,34.73 222.96,35.3 L 222.96,35.3 C 222.22,35.09 221.67,34.46 221.55,33.7 221.43,32.86 221.89,31.92 221.03,31.17 220.52,30.72 219.75,30.08 219.24,29.68 218.19,28.86 218.59,28.25 218.35,27.82 218.17,27.48 217.73,27.29 217.46,26.98 L 217.46,26.98 C 217.22,26.69 217.18,26.29 217.35,25.95 L 217.35,25.95 C 217.33,26.3 217.57,26.63 217.92,26.71 218.31,26.84 218.64,26.73 218.97,26.92 219.37,27.15 219.19,27.78 219.47,28 219.73,28.2 220.38,27.94 220.93,28.38 221.49,28.83 222.73,29.86 223.27,30.3 L 223.27,30.3 C 223.63,30.7 224.24,30.73 224.65,30.37 224.95,30.1 225.05,29.67 224.9,29.3 L 224.9,29.29 C 225.72,29.82 225.96,30.92 225.42,31.74 225.35,31.86 225.26,31.96 225.17,32.05 225.94,32.23 227.32,31.88 227.32,30.77 L 227.32,30.76 C 227.28,30.15 226.83,29.65 226.23,29.53 L 226.27,29.53 C 227.68,29.34 228.98,30.32 229.18,31.73 229.19,31.8 229.19,31.88 229.2,31.95 M 212.66,23.45 C 212.76,23.07 212.01,22.43 211.73,22.31 L 211.71,22.31 C 212.24,22.26 212.77,22.32 213.27,22.46 L 213.27,22.46 C 212.99,22.01 212.92,21.47 213.07,20.97 213.63,22.32 215.62,22.54 216.12,23.65 L 216.12,23.66 C 215.97,23.09 215.59,22.61 215.08,22.32 L 215.08,22.34 C 214.83,21.52 214.92,20.64 215.33,19.89 215.22,21.81 217.98,22.91 218.56,24.32 218.22,23.11 216.93,22.35 216.32,21.63 L 216.32,21.62 C 216.16,21.1 216.22,20.53 216.49,20.06 216.43,21.36 217.83,22.37 218.58,23.1 L 218.59,23.11 C 219.29,23.63 219.66,24.48 219.59,25.34 L 219.59,25.32 C 219.85,25.38 220.02,25.61 220,25.88 L 220,25.87 C 220.29,25.78 220.52,25.56 220.64,25.28 L 220.64,25.28 C 220.76,26.18 220.36,27.07 219.6,27.56 L 219.58,27.57 C 219.67,27.3 219.63,27 219.46,26.76 219.17,26.42 218.37,26.41 218.09,26.43 218.09,26.43 218.43,25.94 218.29,25.68 218.13,25.37 216.55,25.51 215.84,25.76 L 215.82,25.77 C 216.16,25.75 216.5,25.79 216.83,25.88 216.74,26.05 216.45,26.75 216.66,26.96 216.85,27.15 217.1,26.82 217.1,26.82 217.1,26.82 216.85,27.58 217.03,27.76 217.21,27.93 217.59,27.81 217.59,27.81 L 217.59,27.8 C 217.21,28.43 216.53,28.82 215.79,28.82 L 215.79,28.81 C 216.1,28.66 216.34,28.4 216.46,28.08 L 216.46,28.09 C 216.21,28.18 215.94,28.22 215.67,28.19 L 215.68,28.19 C 216.08,27.91 216.27,27.43 216.17,26.96 215.98,26.09 214.75,25.98 214.14,26.4 L 214.13,26.42 C 214.36,25.83 214.8,25.36 215.37,25.09 L 215.42,25.09 C 215.12,24.98 214.81,24.9 214.5,24.85 L 214.49,24.83 C 215.05,24.47 215.71,24.28 216.38,24.28 L 216.37,24.29 C 215.36,24.08 214.31,24.37 213.56,25.07 L 213.52,25.09 C 213.82,25.11 214.13,25.16 214.43,25.24 L 214.49,25.25 C 213.59,25.49 212.76,25.95 212.07,26.59 L 212.04,26.63 C 212.18,26.23 212.22,25.8 212.16,25.39 211.99,24.94 211.46,24.76 210.42,24.98 211.12,24.27 212.57,23.83 212.66,23.45 Z M 218.71,25.31 L 218.61,25 218.62,25.01 C 218.44,24.51 218.05,24.1 217.55,23.91 L 217.1,23.74 217.23,24.2 C 217.34,24.59 217.55,25.31 218.38,25.31 L 218.71,25.31 Z M 187.19,26.34 L 187.19,26.31 C 187.19,29.25 184.81,31.63 181.87,31.63 181.78,31.63 181.69,31.63 181.59,31.62 L 181.62,31.62 C 178.72,31.78 176.24,29.55 176.09,26.64 175.94,23.74 178.17,21.26 181.07,21.11 181.23,21.1 181.38,21.1 181.53,21.11 L 181.61,21.11 C 184.53,20.96 187.03,23.2 187.19,26.13 187.19,26.2 187.19,26.26 187.19,26.32 M 184.26,26.34 L 184.25,26.36 C 184.38,24.95 183.34,23.72 181.93,23.59 181.81,23.58 181.7,23.58 181.58,23.59 179.99,23.59 179.01,24.67 179.01,26.41 L 179.01,26.42 C 178.89,27.82 179.92,29.04 181.31,29.16 181.42,29.17 181.54,29.18 181.66,29.17 L 181.65,29.17 C 183.09,29.17 184.26,28 184.26,26.56 184.26,26.48 184.26,26.41 184.25,26.33 M 135.11,26.33 L 135.11,26.29 C 135.13,27.45 134.76,28.58 134.06,29.51 L 134.03,29.55 C 133.71,29.94 133.33,30.28 132.9,30.56 L 132.97,30.52 C 131.96,31.19 130.77,31.53 129.56,31.46 L 124.17,31.46 124.4,31.33 C 124.4,31.32 125.06,30.94 125.37,30.75 125.66,30.58 125.78,30.4 125.78,29.77 L 125.78,23.88 C 125.78,23.24 125.61,23.06 125.35,22.87 L 125.37,22.88 C 124.62,22.41 124.09,21.65 123.92,20.78 L 123.91,20.62 124.03,20.7 124.02,20.69 C 124.3,20.87 124.61,21 124.93,21.09 L 124.87,21.08 C 125.81,21.23 126.76,21.29 127.71,21.26 L 129.97,21.25 129.97,21.26 129.93,21.26 C 130.81,21.26 131.68,21.46 132.46,21.86 L 132.49,21.88 C 134.13,22.75 135.14,24.46 135.11,26.32 M 132.14,26.36 C 132.14,24.69 131.28,23.73 129.78,23.73 L 128.63,23.73 128.63,28.98 129.78,28.98 C 131.28,28.98 132.14,28.02 132.14,26.36 Z M 202.95,24.92 C 202.81,24.89 202.67,24.85 202.54,24.82 L 202.5,24.81 C 201.53,24.58 200.89,24.4 200.89,23.98 L 200.89,23.99 C 200.89,23.86 200.93,23.74 201.02,23.65 L 201.01,23.66 C 201.31,23.44 201.67,23.35 202.03,23.38 202.1,23.38 202.18,23.39 202.26,23.39 L 202.27,23.39 C 202.28,23.39 202.29,23.39 202.3,23.4 202.31,23.4 202.33,23.4 202.34,23.4 L 202.3,23.4 C 203.38,23.53 204.42,23.92 205.31,24.55 L 205.18,21.56 204.98,21.49 204.94,21.48 204.97,21.49 C 204.81,21.44 204.65,21.4 204.49,21.37 L 204.52,21.37 C 203.87,21.23 203.22,21.12 202.56,21.05 202.42,21.04 202.22,21.03 202.03,21.03 199.76,21.03 198.43,22.11 198.28,24.07 L 198.28,24.08 C 198.21,25.05 198.69,25.99 199.51,26.5 L 199.47,26.48 C 200.3,26.92 201.19,27.27 202.1,27.51 L 202.3,27.57 C 202.79,27.72 203.36,28.03 203.28,28.63 203.24,28.94 203.12,29.27 202.19,29.27 202.06,29.27 201.91,29.26 201.74,29.25 L 201.73,29.24 C 200.88,29.09 200.1,28.7 199.47,28.12 L 199.52,28.16 C 199.49,28.14 199.47,28.12 199.44,28.1 L 198.92,27.71 198.39,27.3 198.6,31.12 198.8,31.19 198.84,31.2 C 198.84,31.21 198.95,31.24 199.3,31.32 L 199.15,31.29 C 199.85,31.44 200.56,31.55 201.27,31.62 201.53,31.65 201.72,31.65 201.91,31.65 204.39,31.65 206.03,30.42 206.08,28.51 206.12,26.67 205.07,25.46 202.95,24.92 Z M 173.26,28.98 L 170.94,28.98 170.94,27.49 173.11,27.48 173.1,27.49 C 173.36,27.46 173.62,27.48 173.87,27.56 L 173.88,27.56 C 174.02,27.64 174.14,27.75 174.23,27.88 L 174.32,28.02 174.32,24.76 174.23,24.81 174.22,24.81 C 174.13,24.87 174.04,24.92 173.95,24.96 L 173.98,24.94 C 173.77,25.01 173.55,25.03 173.33,25.01 L 170.94,25.01 170.94,23.73 173.34,23.73 173.34,23.73 C 173.74,23.68 174.14,23.79 174.45,24.04 L 175.04,24.49 174.73,21.26 166.56,21.26 166.78,21.39 C 166.78,21.39 167.34,21.73 167.67,21.96 167.98,22.16 168.1,22.3 168.1,22.96 L 168.1,29.77 C 168.1,30.44 168,30.56 167.68,30.75 167.37,30.95 166.73,31.32 166.72,31.32 L 166.49,31.46 174.96,31.46 175.71,28.05 C 175.71,28.05 175.03,28.54 174.84,28.67 L 174.85,28.66 C 174.37,28.93 173.81,29.05 173.26,28.98 M 157.37,21.26 L 151.59,21.26 151.8,21.39 C 151.81,21.39 152.36,21.73 152.7,21.96 153.01,22.16 153.13,22.3 153.13,22.96 L 153.13,25.44 148.86,21.26 148.86,21.26 142.15,21.26 142.15,21.26 C 142,21.27 141.85,21.31 141.72,21.39 L 141.66,21.42 141.7,21.49 C 141.71,21.49 141.85,21.69 141.94,21.83 L 141.94,21.83 C 142.02,21.96 142.06,22.12 142.05,22.27 L 142.05,27.48 142.05,27.49 142.06,27.53 C 142.04,28.63 141.55,29.18 140.52,29.18 139.47,29.18 138.94,28.61 138.94,27.48 L 138.94,22.28 138.94,22.28 C 138.92,22.12 138.96,21.96 139.05,21.83 139.14,21.69 139.28,21.49 139.29,21.49 L 139.33,21.42 139.26,21.38 139.27,21.39 C 139.14,21.31 138.99,21.27 138.84,21.26 L 134.55,21.26 134.77,21.39 C 134.77,21.39 135.33,21.73 135.67,21.96 135.98,22.16 136.09,22.3 136.09,22.96 L 136.09,27.17 136.09,27.22 C 136.07,27.96 136.18,28.7 136.44,29.39 L 136.42,29.34 C 136.6,29.73 136.85,30.08 137.17,30.37 L 137.14,30.35 C 138.05,31.23 139.29,31.69 140.55,31.62 L 140.48,31.62 C 142.19,31.77 143.82,30.85 144.57,29.31 L 144.58,29.27 C 144.84,28.62 144.94,27.92 144.89,27.22 L 144.89,22.96 C 144.89,22.3 145.01,22.16 145.32,21.96 145.5,21.83 145.75,21.68 145.93,21.57 146.11,21.68 146.33,21.83 146.49,21.95 146.79,22.16 146.93,22.38 146.93,23.05 L 146.93,29.77 C 146.93,30.43 146.81,30.57 146.51,30.75 146.18,30.95 145.55,31.32 145.55,31.32 L 145.31,31.46 151.11,31.46 150.88,31.32 C 150.87,31.32 150.23,30.95 149.92,30.75 149.63,30.57 149.5,30.42 149.5,29.77 L 149.5,25.71 155.7,31.79 155.7,22.96 C 155.7,22.3 155.81,22.17 156.13,21.95 156.47,21.72 157.1,21.39 157.11,21.39 L 157.37,21.26 Z M 198.73,21.26 L 192.95,21.26 193.17,21.39 C 193.17,21.39 193.73,21.73 194.06,21.96 194.37,22.16 194.49,22.3 194.49,22.96 L 194.49,25.44 190.22,21.26 186.82,21.26 187.03,21.39 C 187.03,21.39 187.55,21.73 187.85,21.95 188.15,22.16 188.29,22.38 188.29,23.05 L 188.29,29.77 C 188.29,30.43 188.17,30.57 187.87,30.75 187.55,30.95 186.91,31.32 186.91,31.32 L 186.67,31.46 192.48,31.46 192.24,31.32 C 192.23,31.32 191.59,30.95 191.28,30.75 190.99,30.57 190.86,30.42 190.86,29.77 L 190.86,25.71 197.06,31.79 197.06,22.96 C 197.06,22.31 197.17,22.17 197.49,21.95 197.83,21.72 198.46,21.39 198.47,21.39 L 198.73,21.26 Z M 166.5,30.86 C 166.5,30.86 166.35,30.66 166.26,30.52 166.18,30.4 166.14,30.3 166.14,29.88 L 166.13,27.12 C 166.13,26.71 166.17,26.63 166.25,26.51 166.34,26.37 166.49,26.17 166.49,26.16 L 166.54,26.1 166.46,26.06 166.46,26.06 C 166.33,25.99 166.19,25.95 166.05,25.93 L 166.05,25.93 C 166,25.93 161.71,25.93 161.71,25.93 L 161.93,26.06 C 161.93,26.06 162.56,26.46 162.85,26.63 163.13,26.81 163.27,27.01 163.27,27.62 L 163.27,29.12 163.27,29.12 C 162.93,29.22 162.58,29.27 162.22,29.26 160.47,29.26 159.58,28.32 159.58,26.46 L 159.58,26.45 C 159.42,25.08 160.39,23.84 161.75,23.67 161.92,23.65 162.1,23.65 162.27,23.66 L 162.26,23.66 C 163.56,23.66 164.82,24.12 165.82,24.96 L 165.78,24.86 165.47,21.9 165.45,21.69 165.24,21.64 165.03,21.59 165.03,21.59 C 164.44,21.44 163.84,21.33 163.23,21.25 L 163.22,21.25 C 162.94,21.21 162.66,21.2 162.38,21.2 162.33,21.2 162.22,21.19 162.16,21.19 L 162.19,21.2 C 159.28,21.04 156.8,23.28 156.64,26.19 156.49,29.1 158.73,31.59 161.64,31.74 161.83,31.75 162.01,31.75 162.19,31.74 L 162.11,31.74 C 162.86,31.73 163.61,31.66 164.35,31.53 164.65,31.47 164.72,31.45 164.82,31.43 164.84,31.42 164.86,31.42 164.89,31.41 165.27,31.32 165.66,31.22 166.06,31.1 L 166.56,30.95 166.5,30.86 Z M 242.47,26.33 L 242.47,26.29 C 242.49,27.45 242.12,28.58 241.42,29.5 L 241.39,29.54 C 241.07,29.94 240.69,30.28 240.26,30.56 L 240.33,30.52 C 239.32,31.19 238.13,31.52 236.92,31.46 L 231.53,31.46 231.76,31.33 C 231.76,31.32 232.42,30.94 232.72,30.75 233.02,30.57 233.14,30.4 233.14,29.77 L 233.14,23.88 C 233.14,23.24 232.96,23.05 232.71,22.87 L 232.73,22.89 C 231.98,22.41 231.45,21.65 231.28,20.78 L 231.27,20.62 231.39,20.7 231.38,20.69 C 231.66,20.87 231.97,21 232.29,21.09 L 232.23,21.08 C 233.17,21.23 234.12,21.29 235.07,21.25 L 237.32,21.25 237.32,21.25 237.29,21.25 C 238.17,21.25 239.04,21.46 239.82,21.86 L 239.85,21.88 C 241.49,22.75 242.5,24.46 242.47,26.32 M 239.5,26.36 C 239.5,24.69 238.64,23.73 237.13,23.73 L 235.99,23.73 235.99,28.98 237.13,28.98 C 238.64,28.98 239.5,28.02 239.5,26.36 Z M 298.73,24.92 C 298.59,24.88 298.45,24.85 298.31,24.82 L 298.28,24.81 C 297.31,24.58 296.67,24.4 296.67,23.98 L 296.67,23.98 C 296.66,23.86 296.71,23.74 296.8,23.65 L 296.79,23.66 C 297.07,23.45 297.43,23.35 297.78,23.38 297.88,23.38 297.96,23.39 298.04,23.39 L 298.07,23.39 C 298.09,23.4 298.1,23.4 298.12,23.4 L 298.08,23.39 C 299.16,23.53 300.2,23.92 301.09,24.55 L 300.95,21.56 300.76,21.49 300.72,21.48 300.72,21.48 C 300.56,21.43 300.4,21.39 300.24,21.36 L 300.31,21.38 C 299.65,21.22 298.98,21.11 298.31,21.04 298.19,21.04 297.99,21.03 297.81,21.03 295.53,21.03 294.2,22.11 294.06,24.07 L 294.06,24.08 C 293.99,25.05 294.47,25.99 295.3,26.5 L 295.23,26.47 C 296.07,26.92 296.97,27.27 297.89,27.52 L 298.07,27.57 C 298.57,27.72 299.14,28.03 299.06,28.62 299.02,28.93 298.9,29.27 297.97,29.27 297.83,29.27 297.68,29.26 297.52,29.25 L 297.51,29.24 C 296.69,29.1 295.93,28.73 295.31,28.17 L 295.3,28.16 C 295.27,28.14 295.24,28.12 295.22,28.1 L 294.7,27.71 294.17,27.3 294.38,31.12 294.58,31.19 294.62,31.2 C 294.62,31.2 294.73,31.24 295.08,31.32 L 294.96,31.29 C 295.65,31.44 296.34,31.55 297.04,31.62 297.31,31.65 297.5,31.65 297.69,31.65 300.17,31.65 301.81,30.42 301.85,28.51 301.9,26.66 300.85,25.46 298.73,24.92 Z M 282.97,26.35 L 282.97,26.32 C 282.97,29.26 280.59,31.64 277.65,31.64 277.56,31.64 277.47,31.63 277.37,31.63 L 277.4,31.63 C 274.5,31.78 272.02,29.55 271.87,26.65 271.72,23.75 273.95,21.27 276.85,21.12 277,21.11 277.16,21.11 277.31,21.11 L 277.38,21.11 C 280.31,20.96 282.81,23.21 282.96,26.14 282.97,26.2 282.97,26.26 282.97,26.32 M 280.03,26.35 L 280.03,26.37 C 280.15,24.96 279.12,23.73 277.71,23.6 277.59,23.59 277.47,23.59 277.36,23.6 L 277.35,23.6 C 275.97,23.55 274.81,24.63 274.76,26.01 274.76,26.14 274.77,26.27 274.78,26.4 L 274.78,26.43 C 274.66,27.82 275.69,29.05 277.08,29.17 277.2,29.18 277.32,29.18 277.44,29.18 L 277.43,29.18 C 278.87,29.18 280.04,28.01 280.04,26.57 280.04,26.49 280.04,26.41 280.03,26.34 M 262.03,30.78 L 262.89,31.46 257.55,31.46 C 257.55,31.46 258.01,31.02 258.21,30.81 L 258.21,30.81 C 258.41,30.64 258.47,30.35 258.35,30.12 258.32,30.05 258.26,29.88 258.18,29.67 L 254.48,29.67 C 254.41,29.87 254.35,30.04 254.31,30.12 254.16,30.49 254.19,30.59 254.4,30.79 254.63,31.01 255.19,31.46 255.19,31.46 L 249.59,31.46 247.02,28.36 247.01,28.35 247.01,28.35 247.01,28.35 C 246.83,28.06 246.59,27.82 246.31,27.63 L 246.33,27.64 C 246.28,27.62 246.22,27.6 246.16,27.59 L 246.17,29.77 C 246.17,30.41 246.29,30.53 246.59,30.76 L 246.63,30.78 C 246.99,31.02 247.37,31.24 247.76,31.43 L 241.84,31.46 C 241.84,31.46 242.75,30.95 243.03,30.75 243.3,30.58 243.45,30.42 243.45,29.77 L 243.45,22.98 C 243.45,22.35 243.32,22.15 243.03,21.97 242.73,21.78 242.13,21.4 242.13,21.4 L 241.92,21.27 246.77,21.27 246.75,21.27 C 247.36,21.24 247.98,21.3 248.57,21.46 L 248.6,21.47 C 249.83,21.8 250.66,22.93 250.62,24.2 L 250.62,24.17 C 250.63,24.75 250.46,25.32 250.14,25.8 L 250.12,25.82 C 249.88,26.18 249.55,26.48 249.17,26.69 250.25,28.11 251.1,29.17 251.62,29.74 251.65,29.68 254.71,22.31 254.71,22.31 L 254.71,22.3 C 254.72,22.26 254.72,22.21 254.72,22.16 254.72,22.11 254.72,22.05 254.57,21.91 L 253.85,21.25 257.87,21.25 C 257.87,21.25 261.22,29.75 261.24,29.8 L 261.24,29.8 261.24,29.8 C 261.3,29.94 261.37,30.08 261.46,30.2 L 261.46,30.21 C 261.62,30.44 261.81,30.64 262.05,30.79 M 247.83,24.16 C 247.83,23.64 247.49,23.29 246.51,23.29 L 246.17,23.29 246.17,25.67 C 246.31,25.67 246.45,25.67 246.5,25.67 247.15,25.67 247.83,25.53 247.83,24.16 Z M 257.32,27.25 L 256.4,24.74 255.4,27.25 257.32,27.25 Z M 294.51,21.26 L 288.73,21.26 288.95,21.39 C 288.95,21.39 289.5,21.73 289.84,21.95 290.15,22.16 290.27,22.3 290.27,22.96 L 290.27,25.43 286,21.25 286,21.26 282.6,21.26 282.81,21.39 C 282.81,21.39 283.33,21.73 283.63,21.95 283.93,22.16 284.07,22.38 284.07,23.05 L 284.07,29.77 C 284.07,30.43 283.95,30.57 283.65,30.75 283.33,30.95 282.69,31.32 282.68,31.32 L 282.45,31.46 288.25,31.46 288.02,31.32 C 288.01,31.32 287.37,30.95 287.06,30.75 286.77,30.57 286.64,30.42 286.64,29.77 L 286.64,25.71 292.84,31.79 292.84,22.96 C 292.84,22.3 292.95,22.17 293.27,21.95 293.61,21.72 294.24,21.39 294.25,21.39 L 294.51,21.26 Z M 271.05,30.43 L 271.05,30.43 C 270.93,30.24 270.89,30.01 270.92,29.79 L 270.92,27.03 C 270.92,26.62 270.96,26.54 271.04,26.42 271.12,26.28 271.27,26.08 271.27,26.08 L 271.33,26.01 271.25,25.97 271.25,25.97 C 271.12,25.9 270.98,25.86 270.84,25.84 L 270.84,25.84 C 270.78,25.84 266.49,25.84 266.49,25.84 L 266.71,25.98 C 266.71,25.98 267.35,26.36 267.64,26.55 267.92,26.72 268.06,26.92 268.06,27.53 L 268.06,29.03 268.05,29.03 C 267.71,29.13 267.36,29.18 267,29.18 265.26,29.18 264.37,28.23 264.37,26.37 L 264.37,26.35 C 264.2,24.99 265.17,23.75 266.54,23.58 266.71,23.56 266.88,23.56 267.06,23.57 L 267.06,23.57 C 268.36,23.57 269.61,24.03 270.61,24.87 L 270.57,24.77 270.26,21.81 270.23,21.6 270.02,21.55 269.82,21.5 269.84,21.5 C 269.23,21.35 268.61,21.24 267.99,21.16 L 268.02,21.17 C 267.74,21.13 267.46,21.11 267.17,21.11 267.12,21.11 267.01,21.11 266.95,21.11 L 266.98,21.11 C 264.07,20.95 261.58,23.19 261.43,26.1 261.28,29.02 263.52,31.5 266.43,31.65 266.61,31.66 266.8,31.66 266.98,31.65 L 266.91,31.65 C 267.65,31.64 268.38,31.57 269.11,31.44 269.43,31.38 269.51,31.36 269.61,31.33 269.63,31.33 269.65,31.33 269.67,31.32 270.06,31.23 270.45,31.13 270.84,31.01 L 271.34,30.85 271.28,30.77 C 271.28,30.77 271.13,30.57 271.05,30.43 Z M 225.8,24.41 C 223.6,24.52 221.71,26.38 220.74,27.7 L 220.74,27.7 C 220.93,27.76 221.1,27.86 221.26,27.98 221.46,28.14 221.76,28.39 222.08,28.65 L 222.06,28.7 C 222.51,27.69 223.1,26.76 223.8,25.92 L 223.84,25.87 C 224.59,25 225.87,24.81 226.85,25.42 L 226.84,25.42 C 227.75,24.85 228.85,24.64 229.91,24.83 L 229.87,24.82 C 229.11,24 228.07,23.52 226.95,23.46 225.91,23.46 225.32,23.97 225.17,23.74 224.98,23.44 225.87,23.01 225.87,23.01 224.65,23.06 223.76,24.5 223.39,24.32 223.17,24.22 223.72,23.52 223.72,23.52 L 223.72,23.52 C 222.65,24.19 221.85,25.21 221.46,26.42 L 221.47,26.39 C 222.54,25.11 224.13,24.38 225.8,24.41 Z M 219.11,30.24 C 218.55,31.2 217.36,32.43 216.16,32.43 213.94,32.43 212.83,29.3 215.3,26.73 L 215.3,26.73 C 215.19,26.7 215.08,26.68 214.97,26.68 L 214.98,26.68 C 214.78,26.68 214.59,26.73 214.42,26.83 L 213.34,27.77 213.65,26.24 C 213.67,26.18 213.69,26.13 213.71,26.08 L 213.73,26.07 C 213.25,26.31 212.81,26.61 212.42,26.97 L 211.43,28.05 211.53,26.53 211.6,26.19 211.6,26.2 C 211.66,25.99 211.69,25.78 211.67,25.56 L 211.67,25.56 C 211.66,25.53 211.64,25.51 211.61,25.49 L 211.64,25.47 C 210.63,26.2 209.96,27.3 209.76,28.53 L 209.75,28.59 C 209.87,28.42 210.02,28.28 210.2,28.17 210.35,28.11 210.47,28.18 210.34,28.59 210.29,28.75 209.07,32.03 211.46,34.31 211.46,34.31 211.2,33.64 211.36,33.44 211.43,33.34 211.53,33.33 211.67,33.51 L 211.66,33.48 C 211.76,33.62 211.87,33.76 211.98,33.89 L 212,33.91 212,33.91 212.01,33.92 C 212.2,34.14 212.42,34.35 212.66,34.53 L 212.67,34.54 C 213.5,35.12 214.48,35.43 215.49,35.43 218.38,35.43 219.94,33.41 220.81,31.71 L 220.81,31.7 C 220.78,31.65 220.74,31.61 220.7,31.57 220.25,31.17 219.6,30.63 219.11,30.24 Z M 212.5,21.8 L 212.5,21.81 C 212.45,21.48 212.48,21.14 212.57,20.82 L 213,19.49 213.54,20.78 213.55,20.79 C 213.74,21.17 214.05,21.49 214.44,21.69 L 214.43,21.71 C 214.39,21.11 214.48,20.5 214.71,19.94 L 214.73,19.91 C 214.62,19.04 215.24,18.25 216.1,18.15 216.13,18.15 216.15,18.14 216.18,18.14 217.62,18.14 218,19.86 217.34,21.09 L 217.32,21.05 C 217.66,21.53 218.07,21.96 218.52,22.34 218.68,22.48 218.82,22.61 218.94,22.72 218.98,22.76 219,22.8 219.04,22.84 L 219.03,22.84 C 219.66,22.01 220.03,21.01 220.1,19.97 L 220.11,19.93 C 220.14,17.96 218.57,16.34 216.6,16.3 216.54,16.3 216.48,16.3 216.42,16.3 L 216.42,16.3 C 215.15,16.17 213.89,16.63 213,17.55 L 213.05,17.49 C 212.28,18.26 211.91,19.35 212.04,20.43 L 212.04,20.43 C 212.07,20.91 212.22,21.36 212.47,21.77" />
</svg>
