<?xml version="1.0" encoding="UTF-8"?>
<!DOCTYPE svg PUBLIC "-//W3C//DTD SVG 1.1//EN" "http://www.w3.org/Graphics/SVG/1.1/DTD/svg11.dtd">
<svg version="1.1" xmlns="http://www.w3.org/2000/svg" xmlns:xlink="http://www.w3.org/1999/xlink" width="230" height="35"  xml:space="preserve" id="persBlock">
    <!-- Generated by PaintCode - http://www.paintcodeapp.com -->
    <path id="persBlock-bezier" stroke="none" fill="rgb(255, 255, 255)" d="M 10.81,1.24 L 10.74,1.29 C 5.16,4.78 1.76,10.9 1.76,17.49 L 1.76,17.19 C 1.76,23.78 5.15,29.9 10.74,33.39 L 11.13,33.64 33.19,33.64 33.51,33.44 33.64,33.35 C 34.83,32.58 35.93,31.69 36.93,30.69 L 223.22,30.85 223.48,30.45 C 224.2,29.29 226.5,26.1 228.35,25.27 L 228.85,25.05 228.85,9.63 228.35,9.41 C 226.5,8.58 224.2,5.39 223.47,4.23 L 223.22,3.83 36.76,3.83 36.69,3.76 C 35.67,2.77 34.55,1.89 33.34,1.14 L 33.19,1.04 11.13,1.04 10.81,1.24 Z M 10.81,1.24" />
    <path id="persBlock-bezier2" stroke="none" fill="rgb(0, 0, 0)" d="M 34.59,5.24 L 34.51,5.22 C 31.57,4.54 28.71,3.61 25.94,2.44 L 31.58,2.56 31.51,2.51 C 32.63,3.3 33.66,4.21 34.57,5.22 M 46.03,4.72 C 44.67,5.45 42.26,6.19 38.3,5.83 38.05,5.45 37.78,5.08 37.51,4.72 L 46.03,4.72 Z M 228.24,10.22 L 228.24,12.12 C 225.92,8.67 221.14,6.15 217.82,4.72 L 223.32,4.72 C 224.04,5.86 226.12,8.92 228.24,10.22 Z M 223.32,29.96 L 217.82,29.96 C 221.14,28.53 225.92,26.01 228.24,22.56 L 228.24,24.46 C 226.12,25.76 224.05,28.82 223.32,29.96 Z M 38.3,28.85 C 42.26,28.49 44.67,29.23 46.03,29.96 L 37.51,29.96 C 37.78,29.6 38.05,29.23 38.3,28.85 Z M 31.58,32.12 L 26.23,32.12 25.94,32.24 C 28.71,31.07 31.58,30.14 34.51,29.46 L 34.58,29.45 C 33.66,30.47 32.63,31.38 31.51,32.17 M 40.92,6.91 L 40.87,6.81 C 42.81,9.92 43.9,13.49 44.03,17.15 L 44.04,17.16 C 43.97,20.83 42.95,24.41 41.06,27.56 40.32,27.76 39.66,27.77 38.96,27.82 L 38.89,27.93 C 40.81,24.73 41.83,21.07 41.83,17.34 L 41.83,17.34 41.83,17.34 C 41.83,13.61 40.81,9.95 38.89,6.75 39.66,6.91 40.32,6.92 40.92,6.91 Z M 215.22,4.72 C 218.29,5.86 226.35,9.27 228.24,14.17 L 228.24,20.5 C 226.36,25.4 218.29,28.82 215.22,29.96 L 47.76,29.96 47.81,30 C 46.17,28.67 44.14,27.91 42.03,27.84 L 41.93,27.98 C 43.81,24.85 44.86,21.31 44.98,17.67 L 44.99,17.39 C 44.93,13.75 43.94,10.18 42.12,7.03 L 42.03,6.84 C 44.14,6.77 46.17,6.01 47.81,4.68 L 215.22,4.72 Z M 3.17,17.34 L 3.17,17.33 C 3.17,11.45 6.04,5.94 10.86,2.56 L 21.2,2.56 C 25.96,4.66 32.4,5.84 35.56,6.43 L 35.65,6.55 C 38,9.67 39.27,13.46 39.27,17.37 L 39.27,17.34 39.27,17.31 C 39.27,21.21 38,25.01 35.65,28.13 32.4,28.84 25.96,30.02 21.2,32.12 L 10.87,32.12 10.87,32.12 C 6.04,28.74 3.17,23.23 3.17,17.34 M 9.76,0.22 L 9.7,0.26 C 0.26,6.62 -2.23,19.43 4.14,28.86 5.62,31.05 7.5,32.94 9.7,34.42 L 10.08,34.68 32.36,34.68 32.68,34.46 32.7,34.45 C 33.9,33.64 35.01,32.71 36.01,31.68 L 224.31,31.72 224.57,31.29 C 225.3,30.05 227.62,26.66 229.49,25.78 L 230,25.54 230,9.14 229.49,8.9 C 227.62,8.02 225.3,4.63 224.57,3.39 L 224.31,2.96 35.97,2.96 36.02,3.01 C 35.01,1.97 33.9,1.04 32.7,0.22 L 32.36,-0 10.08,-0 9.76,0.22 Z M 9.76,0.22" />
</svg>
