<?xml version="1.0" encoding="UTF-8"?>
<!DOCTYPE svg PUBLIC "-//W3C//DTD SVG 1.1//EN" "http://www.w3.org/Graphics/SVG/1.1/DTD/svg11.dtd">
<svg version="1.1" xmlns="http://www.w3.org/2000/svg" xmlns:xlink="http://www.w3.org/1999/xlink" width="114" height="35"  xml:space="preserve" id="profBlock">
    <!-- Generated by PaintCode - http://www.paintcodeapp.com -->
    <path id="profBlock-profBox" stroke="none" fill="rgb(0, 0, 0)" d="M 19.31,5.55 L 19.35,5.59 C 20.41,6.51 21.62,7.23 22.92,7.73 L 22.99,7.76 C 24.41,8.28 25.91,8.51 27.42,8.46 L 27.43,8.48 C 31.59,13.62 31.59,20.97 27.43,26.11 L 27.42,26.12 C 25.91,26.07 24.41,26.31 22.99,26.82 L 22.92,26.85 C 21.62,27.35 20.41,28.08 19.35,29 L 19.32,29.03 C 16.83,29.89 14.23,30.37 11.6,30.46 L 11.6,30.5 C 4.3,27.85 0.54,19.78 3.2,12.48 4.59,8.66 7.57,5.63 11.37,4.17 L 11.61,4.12 C 14.23,4.22 16.83,4.7 19.32,5.55 M 34.85,6.44 L 34.86,6.43 102.45,6.43 C 104.85,7.33 111.15,10 112.62,13.82 L 112.62,20.76 C 111.15,24.59 104.85,27.26 102.45,28.15 L 34.86,28.15 34.85,28.15 34.92,28.18 C 33.25,27.33 31.46,26.71 29.62,26.35 L 29.66,26.45 C 33.45,21.04 33.52,13.84 29.82,8.36 L 29.61,8.23 C 31.34,7.89 33.02,7.33 34.61,6.56 M 28.3,6.43 L 33.03,6.43 33.16,6.38 C 31.94,6.9 30.66,7.28 29.36,7.51 28.93,7.15 28.62,6.79 28.3,6.43 Z M 108.78,6.43 L 108.81,6.48 C 109.81,8.14 111.12,9.6 112.66,10.76 L 112.62,12.22 C 110.81,9.52 107.08,7.55 104.48,6.43 L 108.78,6.43 Z M 112.62,23.85 L 112.67,23.82 C 111.12,24.99 109.81,26.44 108.81,28.1 L 104.48,28.15 C 107.07,27.04 110.81,25.06 112.62,22.37 L 112.62,23.85 Z M 28.3,28.15 C 28.62,27.8 28.93,27.43 29.22,27.05 L 29.35,27.08 C 30.66,27.31 31.94,27.69 33.17,28.21 L 28.3,28.15 Z M 15.77,0.03 L 15.77,0.03 C 15.58,0.1 15.49,0.32 15.56,0.51 15.58,0.56 15.7,0.83 15.9,1.22 L 15.87,1.23 C 13.63,1.3 11.43,1.85 9.41,2.84 L 9.68,2.78 C 12.18,2.6 14.69,2.78 17.14,3.3 17.13,3.29 17.17,3.29 17.2,3.29 17.35,3.49 17.51,3.69 17.68,3.89 4.94,0.92 1.63,7.34 1.63,7.34 L 1.69,7.28 C 2.76,6.21 4.04,5.37 5.44,4.8 5.85,4.69 6.27,4.6 6.69,4.51 L 6.74,4.48 C -0.34,9.81 -1.75,19.87 3.58,26.95 4.48,28.14 5.54,29.2 6.74,30.11 6.27,29.99 5.85,29.89 5.43,29.78 L 5.44,29.78 C 4.03,29.21 2.76,28.37 1.69,27.3 1.63,27.24 4.94,33.67 17.68,30.69 17.51,30.9 17.35,31.1 17.2,31.3 17.17,31.3 17.13,31.3 17.08,31.3 L 17.15,31.28 C 14.69,31.8 12.17,31.98 9.67,31.8 L 9.4,31.75 C 11.42,32.73 13.63,33.28 15.87,33.36 15.7,33.76 15.58,34.02 15.56,34.07 L 15.56,34.07 C 15.49,34.26 15.58,34.48 15.77,34.56 15.96,34.63 16.18,34.54 16.26,34.35 16.26,34.34 19.27,28.63 23.19,27.55 L 23.12,27.57 C 24.27,27.2 25.47,26.96 26.69,26.88 L 26.74,26.9 C 24.65,29.14 21.89,30.64 18.87,31.17 L 18.95,31.17 C 18.29,31.75 17.84,32.53 17.64,33.39 L 17.59,33.35 C 19.82,33.19 22,32.57 23.97,31.52 L 26.1,30.15 C 26.36,29.95 26.62,29.74 26.88,29.52 L 109.56,29.52 109.76,29.19 C 110.33,28.22 112.14,25.57 113.6,24.88 L 114,24.7 114,9.89 113.6,9.7 C 112.14,9.01 110.33,6.36 109.76,5.4 L 109.56,5.06 26.88,5.06 C 26.62,4.84 26.36,4.63 26.1,4.43 L 23.95,3.06 23.98,3.07 C 22,2.02 19.82,1.39 17.58,1.24 L 17.66,1.27 C 17.87,2.12 18.34,2.89 19,3.47 L 18.87,3.41 C 21.89,3.94 24.65,5.44 26.73,7.68 L 26.7,7.71 C 25.48,7.62 24.28,7.39 23.11,7.01 19.27,5.96 16.27,0.25 16.26,0.23 L 16.26,0.23 C 16.18,0.04 15.96,-0.05 15.77,0.03" />
</svg>
