<?xml version="1.0" encoding="UTF-8"?>
<!DOCTYPE svg PUBLIC "-//W3C//DTD SVG 1.1//EN" "http://www.w3.org/Graphics/SVG/1.1/DTD/svg11.dtd">
<svg version="1.1" xmlns="http://www.w3.org/2000/svg" xmlns:xlink="http://www.w3.org/1999/xlink" width="146" height="45"  xml:space="preserve" id="profBlock">
    <!-- Generated by PaintCode - http://www.paintcodeapp.com -->
    <path id="profBlock-bezier" stroke="none" fill="rgb(255, 255, 255)" d="M 145.2,12.51 C 143.34,11.64 141.03,8.28 140.3,7.06 L 140.04,6.63 34.64,6.63 C 34.31,6.36 33.98,6.09 33.64,5.84 L 30.91,4.1 30.95,4.12 C 28.33,2.78 25.47,1.96 22.54,1.7 17.04,1.69 12.08,3.05 8.9,5.94 L 8.91,5.94 C 3.82,9.78 0.82,15.78 0.82,22.16 0.82,28.73 6.57,37.91 11.68,40.25 L 11.58,40.21 C 14.34,41.49 17.31,42.26 20.34,42.47 23.92,42.97 28.47,41.45 30.91,40.17 L 33.64,38.43 C 33.98,38.18 34.31,37.91 34.63,37.63 L 140.04,37.63 140.3,37.21 C 141.03,35.99 143.34,32.62 145.2,31.75 L 145.71,31.52 145.71,12.75 145.2,12.51 Z M 145.2,12.51" />
    <path id="profBlock-bezier2" stroke="none" fill="rgb(0, 0, 0)" d="M 24.8,7.11 L 24.85,7.15 C 26.2,8.33 27.75,9.26 29.42,9.9 L 29.51,9.93 C 31.33,10.59 33.25,10.9 35.17,10.83 L 35.19,10.85 C 40.52,17.43 40.52,26.84 35.19,33.42 L 35.17,33.44 C 33.24,33.37 31.32,33.67 29.51,34.33 L 29.42,34.37 C 27.75,35.01 26.2,35.94 24.85,37.11 L 24.8,37.16 C 21.62,38.25 18.29,38.87 14.93,38.99 L 14.93,39.04 C 5.59,35.64 0.78,25.32 4.17,15.98 5.96,11.08 9.77,7.2 14.63,5.33 L 14.94,5.28 C 18.3,5.4 21.63,6.01 24.81,7.11 M 44.69,8.24 L 44.7,8.24 131.21,8.24 C 134.29,9.38 142.36,12.79 144.24,17.69 L 144.24,26.58 C 142.36,31.47 134.29,34.89 131.21,36.03 L 44.7,36.03 44.69,36.03 44.78,36.07 C 42.63,34.98 40.35,34.19 37.99,33.73 L 38.05,33.86 C 42.9,26.93 42.98,17.72 38.25,10.7 L 37.98,10.54 C 40.2,10.1 42.35,9.39 44.38,8.39 M 36.3,8.24 L 42.36,8.24 42.53,8.17 C 40.97,8.83 39.33,9.31 37.66,9.61 37.11,9.15 36.72,8.69 36.3,8.24 Z M 139.32,8.24 C 140.05,9.37 142.12,12.44 144.24,13.74 L 144.24,15.64 C 141.92,12.19 137.14,9.66 133.82,8.24 L 139.32,8.24 Z M 144.24,30.53 C 142.12,31.83 140.05,34.89 139.32,36.03 L 133.82,36.03 C 137.14,34.6 141.92,32.08 144.24,28.63 L 144.24,30.53 Z M 36.3,36.03 C 36.72,35.58 37.11,35.11 37.49,34.63 L 37.65,34.66 C 39.33,34.95 40.97,35.44 42.53,36.1 L 36.3,36.03 Z M 20.27,0.04 L 20.27,0.03 C 20.03,0.13 19.91,0.41 20,0.65 20.03,0.72 20.17,1.06 20.44,1.57 L 20.39,1.57 C 17.52,1.67 14.71,2.37 12.12,3.63 L 12.47,3.56 C 15.67,3.33 18.88,3.56 22.01,4.22 22.01,4.21 22.05,4.21 22.1,4.21 22.29,4.46 22.49,4.72 22.71,4.98 6.41,1.17 2.17,9.4 2.17,9.4 L 2.25,9.32 C 3.61,7.95 5.25,6.87 7.04,6.15 7.57,6.01 8.11,5.89 8.65,5.78 L 8.71,5.73 C -0.35,12.56 -2.16,25.43 4.66,34.49 5.82,36.02 7.18,37.38 8.71,38.53 8.11,38.38 7.57,38.26 7.04,38.11 L 7.04,38.11 C 5.24,37.39 3.61,36.31 2.25,34.94 2.17,34.87 6.41,43.1 22.71,39.29 22.49,39.55 22.29,39.81 22.1,40.06 22.05,40.06 22.01,40.06 21.95,40.06 L 22.03,40.04 C 18.88,40.71 15.66,40.93 12.46,40.71 L 12.12,40.63 C 14.7,41.89 17.52,42.6 20.4,42.7 20.17,43.21 20.03,43.55 20,43.61 L 20,43.61 C 19.91,43.86 20.04,44.13 20.29,44.22 20.53,44.31 20.79,44.2 20.89,43.97 20.9,43.95 24.75,36.64 29.76,35.26 L 29.67,35.29 C 31.15,34.81 32.69,34.51 34.24,34.4 L 34.3,34.43 C 31.63,37.3 28.09,39.22 24.23,39.9 L 24.33,39.89 C 23.5,40.64 22.91,41.64 22.66,42.73 L 22.59,42.68 C 25.45,42.48 28.23,41.68 30.76,40.34 L 33.48,38.59 C 33.82,38.34 34.16,38.07 34.48,37.79 L 140.31,37.79 140.57,37.36 C 141.3,36.13 143.62,32.73 145.49,31.85 L 146,31.61 146,12.65 145.49,12.42 C 143.62,11.54 141.3,8.14 140.57,6.91 L 140.31,6.48 34.48,6.48 C 34.16,6.2 33.82,5.93 33.48,5.67 L 30.74,3.91 30.77,3.93 C 28.24,2.58 25.45,1.78 22.58,1.58 L 22.68,1.63 C 22.95,2.72 23.56,3.7 24.4,4.44 L 24.23,4.37 C 28.09,5.05 31.63,6.97 34.3,9.83 L 34.25,9.86 C 32.69,9.75 31.15,9.46 29.67,8.97 24.75,7.63 20.9,0.32 20.89,0.3 L 20.89,0.3 C 20.79,0.05 20.51,-0.06 20.27,0.03" />
</svg>
